<svg width="32" height="32" fill="none" xmlns="http://www.w3.org/2000/svg"><path d="M2.667 24.667v-12c0-.556.194-1.028.583-1.417a1.929 1.929 0 0 1 1.417-.583h4.666V7.333c0-.555.195-1.027.583-1.416a1.929 1.929 0 0 1 1.417-.584h9.333c.556 0 1.028.195 1.417.584.39.389.584.86.584 1.416v3.334h4.666c.556 0 1.028.194 1.417.583.389.389.583.861.583 1.417v12c0 .555-.194 1.027-.583 1.416a1.929 1.929 0 0 1-1.417.584H4.667a1.929 1.929 0 0 1-1.417-.584 1.929 1.929 0 0 1-.583-1.416Zm2 0h22.666v-5h-3.666V20a.97.97 0 0 1-.284.717.971.971 0 0 1-.716.283.971.971 0 0 1-.717-.283.97.97 0 0 1-.284-.717v-.333H10.333V20a.971.971 0 0 1-.283.717.971.971 0 0 1-.717.283.971.971 0 0 1-.716-.283.971.971 0 0 1-.284-.717v-.333H4.666v5Zm0-12v5h3.666v-.334a.972.972 0 0 1 1-1 .971.971 0 0 1 1 1v.334h11.333v-.334c0-.289.095-.527.284-.716a.972.972 0 0 1 .716-.284.971.971 0 0 1 1 1v.334h3.667v-5H4.667Zm6.666-2h9.333V7.333h-9.333v3.334Z" fill="url(#a)"/><defs><linearGradient id="a" x1="16" y1="5.333" x2="16" y2="26.667" gradientUnits="userSpaceOnUse"><stop stop-color="#FF4D35"/><stop offset="1" stop-color="#D1301A"/></linearGradient></defs></svg>