<svg width="32" height="32" fill="none" xmlns="http://www.w3.org/2000/svg"><path d="M18.2 29.333h-4.4a.993.993 0 0 1-.65-.233.98.98 0 0 1-.35-.6l-.533-3.367a8.931 8.931 0 0 1-1.333-.633 9.153 9.153 0 0 1-1.234-.833L6.6 25.1a.99.99 0 0 1-.733.05.967.967 0 0 1-.567-.483l-2.2-3.9a.866.866 0 0 1-.1-.7c.067-.245.2-.445.4-.6l2.867-2.1a3.962 3.962 0 0 1-.084-.684A15.916 15.916 0 0 1 6.167 16c0-.2.005-.428.016-.683.012-.256.04-.484.084-.684l-2.867-2.1a1.112 1.112 0 0 1-.4-.6.866.866 0 0 1 .1-.7l2.2-3.9a.966.966 0 0 1 .567-.483.99.99 0 0 1 .733.05l3.1 1.433a9.16 9.16 0 0 1 1.234-.833 6.896 6.896 0 0 1 1.333-.6l.533-3.4a.98.98 0 0 1 .35-.6.994.994 0 0 1 .65-.233h4.4c.245 0 .461.077.65.233a.98.98 0 0 1 .35.6l.534 3.367c.422.155.872.36 1.35.616.477.256.883.54 1.216.85L25.4 6.9a.991.991 0 0 1 .734-.05.966.966 0 0 1 .566.483l2.2 3.867a.952.952 0 0 1 .117.717.988.988 0 0 1-.417.616l-2.867 2.034c.045.222.073.46.084.716a15.458 15.458 0 0 1 0 1.417 4.645 4.645 0 0 1-.084.7l2.867 2.067c.2.155.333.355.4.6a.866.866 0 0 1-.1.7l-2.2 3.9a.966.966 0 0 1-.566.483.99.99 0 0 1-.734-.05l-3.1-1.433c-.355.289-.761.572-1.216.85a5.812 5.812 0 0 1-1.35.616L19.2 28.5a.98.98 0 0 1-.35.6.993.993 0 0 1-.65.233Zm-2.2-9c1.2 0 2.222-.422 3.067-1.266.844-.845 1.267-1.867 1.267-3.067 0-1.2-.423-2.222-1.267-3.067-.845-.844-1.867-1.266-3.067-1.266-1.2 0-2.222.422-3.066 1.266-.845.845-1.267 1.867-1.267 3.067 0 1.2.422 2.222 1.267 3.067.844.844 1.866 1.266 3.066 1.266Zm0-2a2.248 2.248 0 0 1-1.65-.683 2.248 2.248 0 0 1-.683-1.65c0-.644.228-1.194.683-1.65a2.249 2.249 0 0 1 1.65-.683c.645 0 1.195.228 1.65.683.456.456.684 1.006.684 1.65 0 .645-.228 1.195-.684 1.65a2.248 2.248 0 0 1-1.65.683Zm-1.466 9h2.933l.466-3.733a7.862 7.862 0 0 0 2.084-.833A8.543 8.543 0 0 0 21.8 21.4l3.534 1.533 1.333-2.4-3.134-2.3c.09-.377.162-.75.217-1.116.056-.367.084-.74.084-1.117 0-.378-.023-.75-.067-1.117a6.894 6.894 0 0 0-.233-1.116l3.133-2.3-1.334-2.4L21.8 10.6a7.43 7.43 0 0 0-1.733-1.45 5.622 5.622 0 0 0-2.134-.75l-.466-3.733h-2.933L14.066 8.4a7.063 7.063 0 0 0-2.117.8 7.354 7.354 0 0 0-1.75 1.4L6.667 9.067l-1.334 2.4 3.134 2.3c-.09.378-.161.75-.217 1.116a7.441 7.441 0 0 0 0 2.234c.056.366.128.739.217 1.116l-3.134 2.3 1.334 2.4L10.2 21.4a8.543 8.543 0 0 0 1.784 1.367 7.86 7.86 0 0 0 2.083.833l.466 3.733Z" fill="url(#a)"/><defs><linearGradient id="a" x1="16.004" y1="2.667" x2="16.004" y2="29.333" gradientUnits="userSpaceOnUse"><stop stop-color="#FF4D35"/><stop offset="1" stop-color="#D1301A"/></linearGradient></defs></svg>