<svg width="32" height="32" fill="none" xmlns="http://www.w3.org/2000/svg"><path d="M13.633 21.167c.511.51 1.25.75 2.217.716.966-.033 1.672-.394 2.116-1.083l5.967-9.333c.155-.245.139-.461-.05-.65-.189-.19-.406-.206-.65-.05L14 16.8c-.667.444-1.023 1.156-1.067 2.133-.044.978.189 1.723.7 2.234Zm-7.167 5.5c-.378 0-.75-.095-1.116-.284a1.815 1.815 0 0 1-.817-.816 15.905 15.905 0 0 1-1.333-3.25 12.868 12.868 0 0 1-.467-3.517c0-1.844.35-3.583 1.05-5.217.7-1.633 1.65-3.055 2.85-4.266a13.61 13.61 0 0 1 4.217-2.884A12.611 12.611 0 0 1 16 5.367c1 0 2.044.127 3.133.383a12.34 12.34 0 0 1 3.233 1.283c.445.245.69.54.734.884a.894.894 0 0 1-.334.85 1.32 1.32 0 0 1-.616.25 1.01 1.01 0 0 1-.65-.117c-.934-.511-1.9-.894-2.9-1.15-1-.256-1.867-.383-2.6-.383-3.111 0-5.767 1.11-7.967 3.333-2.2 2.222-3.3 4.922-3.3 8.1 0 1 .139 2.011.417 3.033a11.467 11.467 0 0 0 1.183 2.834h19.3c.489-.8.878-1.734 1.167-2.8.288-1.067.433-2.111.433-3.134 0-.822-.106-1.7-.317-2.633a8.926 8.926 0 0 0-1.083-2.667c-.133-.222-.178-.45-.133-.683.044-.233.155-.428.333-.583a.935.935 0 0 1 .8-.217.954.954 0 0 1 .667.483 15.056 15.056 0 0 1 1.266 3.05 12.01 12.01 0 0 1 .467 3.05 14.245 14.245 0 0 1-.417 3.767c-.3 1.178-.75 2.267-1.35 3.267-.266.51-.55.822-.85.933-.3.111-.672.167-1.116.167H6.466Z" fill="url(#a)"/><defs><linearGradient id="a" x1="15.984" y1="5.367" x2="15.984" y2="26.667" gradientUnits="userSpaceOnUse"><stop stop-color="#FF4D35"/><stop offset="1" stop-color="#D1301A"/></linearGradient></defs></svg>