<svg width="32" height="32" fill="none" xmlns="http://www.w3.org/2000/svg"><path d="M18.934 24.667c2.355 0 4.344-.862 5.966-2.584 1.623-1.722 2.434-3.772 2.434-6.15 0-2.444-.873-4.489-2.617-6.133-1.744-1.644-3.839-2.467-6.283-2.467-1.245 0-2.412.15-3.5.45-1.09.3-2.234.773-3.434 1.417l4.034 1.5c1.133.422 1.905 1.028 2.316 1.817.411.789.617 1.683.617 2.683 0 1.333-.444 2.45-1.333 3.35-.89.9-1.978 1.35-3.267 1.35h-9c-.111.511-.172 1.194-.183 2.05-.011.855-.017 1.761-.017 2.717h14.267ZM5.1 17.9h8.567c.822 0 1.494-.261 2.017-.783.522-.523.783-1.162.783-1.917 0-.644-.15-1.189-.45-1.633-.3-.445-.739-.767-1.317-.967l-5.133-2.133a13.926 13.926 0 0 0-2.767 3.3c-.733 1.222-1.3 2.6-1.7 4.133Zm13.834 8.767H4.667c-.533 0-1-.2-1.4-.6-.4-.4-.6-.867-.6-1.4v-2.5c0-2.4.4-4.628 1.2-6.684.8-2.055 1.906-3.833 3.317-5.333a15.367 15.367 0 0 1 5-3.533c1.922-.856 4.005-1.284 6.25-1.284 1.488 0 2.894.273 4.216.817a10.915 10.915 0 0 1 3.467 2.25 10.744 10.744 0 0 1 2.35 3.367c.578 1.289.867 2.677.867 4.166 0 1.467-.273 2.856-.817 4.167a10.71 10.71 0 0 1-2.233 3.417 10.752 10.752 0 0 1-3.3 2.3c-1.256.566-2.606.85-4.05.85Z" fill="url(#a)"/><defs><linearGradient id="a" x1="16" y1="5.333" x2="16" y2="26.667" gradientUnits="userSpaceOnUse"><stop stop-color="#FF4D35"/><stop offset="1" stop-color="#D1301A"/></linearGradient></defs></svg>