<svg width="32" height="32" fill="none" xmlns="http://www.w3.org/2000/svg"><path d="M7.1 26.167c-.978-1-1.739-2.156-2.283-3.467A10.424 10.424 0 0 1 4 18.667c0-1.623.283-3.106.85-4.45.567-1.345 1.417-2.584 2.55-3.717.778-.778 1.744-1.433 2.9-1.967 1.156-.533 2.517-.95 4.083-1.25 1.567-.3 3.34-.489 5.317-.566 1.978-.078 4.178-.04 6.6.116.178 2.4.239 4.595.183 6.584-.055 1.989-.233 3.772-.533 5.35-.3 1.578-.722 2.96-1.267 4.15-.544 1.189-1.216 2.183-2.016 2.983-1.134 1.133-2.356 1.989-3.667 2.567a10.298 10.298 0 0 1-4.2.866c-1.533 0-2.939-.26-4.217-.783-1.277-.522-2.439-1.317-3.483-2.383Zm3.433 0c.556.377 1.2.666 1.934.866.733.2 1.51.3 2.333.3a8.442 8.442 0 0 0 3.433-.733c1.111-.489 2.123-1.2 3.034-2.133.6-.6 1.11-1.384 1.533-2.35.422-.967.767-2.111 1.033-3.434.267-1.322.445-2.816.534-4.483.089-1.667.089-3.5 0-5.5a69.517 69.517 0 0 0-5.617.083c-1.656.1-3.117.284-4.383.55C13.1 9.6 12.01 9.94 11.1 10.35c-.911.411-1.656.917-2.233 1.517-.934.955-1.645 1.966-2.134 3.033A7.766 7.766 0 0 0 6 18.167c0 1.066.228 2.183.683 3.35.456 1.166 1.017 2.105 1.684 2.816a27.442 27.442 0 0 1 4.233-5.866c1.644-1.734 3.389-3.1 5.233-4.1-1.933 1.666-3.5 3.472-4.7 5.416a21.095 21.095 0 0 0-2.6 6.384Z" fill="url(#a)"/><defs><linearGradient id="a" x1="15.252" y1="6.678" x2="15.252" y2="29.333" gradientUnits="userSpaceOnUse"><stop stop-color="#FF4D35"/><stop offset="1" stop-color="#D1301A"/></linearGradient></defs></svg>