<svg width="220" height="220" fill="none" xmlns="http://www.w3.org/2000/svg"><path fill-rule="evenodd" clip-rule="evenodd" d="m108.9 45.705.385 85.525 4.07-85.25h.165l-3.355 85.305 7.7-84.7h.165l-6.985 84.755 11.33-83.82.165.055-10.615 83.875 14.85-82.665.165.055-14.135 82.775 18.26-81.235.165.055-17.545 81.345 21.505-79.475.165.11L114.565 132l24.585-77.385.165.11-23.925 77.605 27.5-75.185.165.11-26.84 75.35 30.25-72.655.165.165-29.59 72.875 32.725-69.96.165.165-32.12 70.18 34.98-67.045.165.22-34.375 67.265 37.07-64.075.165.22-36.355 64.24 38.72-60.775.165.275-38.17 60.995 40.205-57.42.165.275-39.655 57.64 41.415-54.01.165.33-40.865 54.23L163.9 85.25l.11.385-41.745 50.71 42.955-46.97.11.385-42.405 47.135L166.21 93.5c.055.165.055.275.11.44l-42.68 43.56 43.34-39.82c0 .165.055.33.055.495l-42.79 39.985 43.12-36.3c0 .165 0 .33.055.495l-42.57 36.465 42.625-32.835v.55l-42.075 33 41.91-29.48c0 .22-.055.385-.055.605l-41.36 29.59 40.92-26.235-.11.66-40.37 26.345 39.765-23.1-.165.66-39.16 23.21 38.39-20.13c-.055.22-.165.495-.22.715l-37.73 20.24 36.795-17.325c-.11.275-.165.495-.275.715l-36.135 17.38 35.09-14.685c-.11.275-.22.495-.33.77l-34.375 14.74 33.22-12.265c-.11.275-.275.55-.385.77l-32.505 12.32 31.24-10.01-.495.825-30.47 10.065 29.205-7.975c-.165.275-.33.55-.55.825l-28.435 8.03 27.06-6.16c-.22.275-.385.55-.605.825l-26.29 6.215 24.97-4.565-.66.825-24.09 4.62 22.825-3.135c-.275.275-.495.55-.77.825l-21.945 3.19 20.735-1.925-.825.825-19.8 2.035 18.645-.935c-.275.275-.605.55-.88.77l-17.71 1.045 16.665-.11c-.33.275-.605.495-.935.77l-15.675.22 14.685.55c-.33.275-.66.495-.99.715l-13.75-.385 12.87 1.045c-.33.22-.66.495-1.045.715l-11.88-.825 11.11 1.375c-.33.22-.715.44-1.045.66l-10.175-1.155 9.46 1.595c-.385.22-.715.44-1.1.66l-8.525-1.375 7.92 1.705c-.385.22-.715.385-1.1.605l-6.985-1.43 6.545 1.705c-.385.165-.77.385-1.155.55l-5.61-1.43 5.225 1.595c-.385.165-.77.385-1.155.55l-4.345-1.265 4.015 1.43-1.155.495-3.135-1.1 2.915 1.21-1.155.495-2.09-.825 1.98.88c-.385.165-.77.275-1.155.44l-1.155-.495 1.1.55c-.385.165-.77.275-1.155.385l-.33-.165.33.165a59.995 59.995 0 0 1-36.52.77l.275-.165-.275.165c-.385-.11-.77-.22-1.155-.385l1.045-.605-1.1.55c-.385-.11-.77-.275-1.155-.385l1.87-.99-2.035.88c-.385-.11-.77-.275-1.155-.44l2.86-1.32-3.08 1.21c-.385-.165-.77-.33-1.155-.44l3.905-1.595-4.235 1.485-1.155-.495 5.115-1.815-5.5 1.65c-.385-.165-.77-.33-1.155-.55l6.38-1.98-6.93 1.705c-.385-.165-.77-.385-1.155-.55l7.81-2.035-8.415 1.705c-.385-.22-.77-.385-1.1-.605l9.35-1.98-10.065 1.595c-.385-.22-.715-.44-1.1-.605l11-1.87-11.825 1.375c-.33-.22-.715-.44-1.045-.66l12.76-1.595-13.695.99c-.33-.22-.66-.44-.99-.715l14.63-1.155-15.62.44c-.33-.22-.66-.495-.99-.715l16.555-.605-17.71-.275c-.33-.22-.605-.495-.935-.77l18.59.11-19.8-1.155c-.275-.275-.55-.495-.88-.77l20.735 1.045-22-2.255c-.275-.275-.55-.495-.77-.77l22.88 2.145-24.2-3.52a9.833 9.833 0 0 0-.715-.77l25.08 3.465-26.455-5.06c-.22-.275-.44-.55-.66-.77l27.225 4.95-28.655-6.765a6.673 6.673 0 0 1-.55-.77l29.425 6.655-30.8-8.69c-.165-.275-.33-.495-.495-.77l31.57 8.635-32.945-10.835c-.165-.275-.275-.495-.44-.77l33.605 10.78-34.925-13.2c-.11-.275-.275-.495-.385-.77l35.585 13.145L53.02 128.48c-.11-.22-.22-.495-.275-.715L90.2 143.44l-38.5-18.535c-.055-.22-.165-.44-.22-.715l39.105 18.425-40.04-21.45-.165-.66 40.645 21.34-41.415-24.53c-.055-.22-.055-.44-.11-.605l41.965 24.42-42.515-27.775-.055-.605 43.065 27.61-43.56-31.185c0-.165 0-.385-.055-.55l43.945 30.91-44.055-34.54v-.495l44.605 34.375L48.4 100.76c0-.165.055-.33.055-.495l44.935 37.84L48.895 96.47l.055-.44 45.1 41.47-44.33-45.21c.055-.165.055-.275.11-.385l44.88 44.99L50.82 88.11c.055-.11.055-.275.11-.385l44.44 48.565-43.12-52.36.11-.33 43.67 52.085L53.955 79.86l.165-.275 42.625 55.605L55.99 75.955l.165-.275 41.305 59.015L58.355 72.16l.165-.22 39.71 62.26-37.235-65.67.165-.22L99 133.76 63.91 65.12l.165-.165 35.695 68.42-32.67-71.5.165-.165 33.33 71.28L70.51 58.85l.165-.165 30.745 73.865L74.195 56.1l.165-.11 27.94 76.285-24.31-78.54.165-.11 24.915 78.43L82.06 51.59l.165-.055 21.725 80.3-17.71-82.06.165-.055 18.37 81.95-14.19-83.435.165-.055 14.96 83.27-10.67-84.37.165-.055 11.385 84.315-7.04-85.03h.165l7.755 85.03-3.355-85.415h.165l4.07 85.415.385-85.525.165-.11Z" fill="#9C9C9C"/><path fill-rule="evenodd" clip-rule="evenodd" d="M107.855 43.78c33.99 0 61.545 27.555 61.545 61.545s-27.555 61.545-61.545 61.545-61.545-27.555-61.545-61.545S73.865 43.78 107.855 43.78Zm0-2.255c-35.255 0-63.8 28.6-63.8 63.8 0 35.255 28.6 63.8 63.8 63.8 35.255 0 63.8-28.6 63.8-63.8 0-35.255-28.6-63.8-63.8-63.8Z" fill="#9C9C9C"/><path fill-rule="evenodd" clip-rule="evenodd" d="M107.855 39.27c36.465 0 66.055 29.59 66.055 66.055s-29.59 66.055-66.055 66.055S41.8 141.79 41.8 105.325 71.39 39.27 107.855 39.27Zm0-4.015c-38.72 0-70.07 31.405-70.07 70.07 0 38.72 31.405 70.07 70.07 70.07 38.72 0 70.07-31.405 70.07-70.07 0-38.72-31.405-70.07-70.07-70.07ZM109.23 194.37c16.445 0 32.34.11 47.19.33.495 0 .88.165.935.33 0 .165-.385.33-.935.33-14.85.22-30.745.33-47.19.33-16.445 0-32.34-.11-47.19-.33-.495 0-.935-.165-.935-.33s.385-.33.935-.33c14.85-.22 30.69-.33 47.19-.33ZM109.23 196.68c14.08 0 27.665.11 40.37.33.495 0 .88.165.88.33s-.385.33-.88.385c-12.705.22-26.29.33-40.37.33-14.08 0-27.665-.11-40.37-.33-.495 0-.935-.165-.88-.385 0-.165.385-.33.88-.33 12.705-.22 26.29-.33 40.37-.33ZM109.23 192.005c19.58 0 38.445.11 56.1.33.495 0 .935.165.935.33 0 .22-.385.33-.935.385-17.71.22-36.52.33-56.1.33s-38.445-.11-56.1-.33c-.495 0-.935-.165-.935-.385 0-.165.385-.33.935-.33 17.655-.22 36.52-.33 56.1-.33Z" fill="#9C9C9C"/><path fill-rule="evenodd" clip-rule="evenodd" d="M134.2 51.81c.66 1.65 1.265 3.245 1.705 4.95.605 2.475.825 5.005.825 7.535 0 4.62-1.43 8.635-5.005 11.605-3.52 2.915-8.305 4.18-12.65 5.335-2.805.715-7.535 1.815-9.57 3.96l-1.54 1.595-1.54-1.595c-2.09-2.145-6.765-3.245-9.57-3.96-1.98-.55-3.96-1.045-5.885-1.76-7.37-2.64-11.77-6.985-11.77-15.18 0-2.53.22-5.06.825-7.535.44-1.76 1.045-3.3 1.705-4.95.88-2.2 1.485-3.85 1.485-6.27 0-2.255-.605-4.4-1.815-6.325-.495-.715-1.21-1.65-1.87-2.255l-1.87-1.485 11.715-12.21 1.265-1.32 1.485 1.045c1.925 1.265 4.73 1.925 6.985 1.925 2.42 0 5.665-.825 7.81-2.035l1.1-.605 1.1.605c2.145 1.21 5.39 2.035 7.81 2.035 2.255 0 5.06-.66 6.985-1.925l1.485-1.045 1.265 1.32 10.12 10.505 1.595 1.705-1.815 1.485c-.715.55-1.43 1.485-1.87 2.255a11.744 11.744 0 0 0-1.815 6.325c-.22 2.42.44 4.07 1.32 6.27Z" fill="#fff"/><path fill-rule="evenodd" clip-rule="evenodd" d="M130.515 45.54c0 6.655 4.015 8.14 4.015 18.755 0 16.5-20.24 12.705-26.675 19.415C101.42 77 81.18 80.74 81.18 64.295c0-10.615 4.015-12.045 4.015-18.755 0-6.655-4.51-10.23-4.51-10.23L90.75 24.805s3.3 2.31 8.195 2.31c4.895 0 8.855-2.31 8.855-2.31s4.015 2.31 8.91 2.31c4.895 0 8.195-2.31 8.195-2.31l10.12 10.505s-4.51 3.52-4.51 10.23Zm5.5-9.02 1.32-1.045-1.155-1.21-10.12-10.505-.88-.935-1.045.715c-.055.055-3.025 2.035-7.315 2.035-4.4 0-8.085-2.09-8.14-2.09l-.77-.44-.77.44c-.055 0-3.74 2.09-8.14 2.09-4.29 0-7.315-2.035-7.315-2.035l-1.045-.715-.88.935-10.12 10.505-1.155 1.21 1.32 1.045c.165.11 3.905 3.245 3.905 9.02 0 2.64-.66 4.345-1.54 6.49-1.155 2.86-2.475 6.05-2.475 12.265 0 11.825 9.57 14.3 17.215 16.335 4.07 1.045 7.865 2.09 9.9 4.18l1.1 1.155 1.1-1.155c1.98-2.09 5.83-3.08 9.9-4.125 7.7-2.035 17.215-4.565 17.215-16.335 0-6.215-1.32-9.405-2.475-12.265-.88-2.145-1.54-3.85-1.54-6.49-.055-5.885 3.74-8.965 3.905-9.075Zm-6.93 7.26c.44-4.18 2.475-7.04 3.795-8.525l-8.195-8.58c-1.485.77-4.345 1.925-7.92 1.925-4.015 0-7.425-1.43-8.91-2.09-1.485.715-4.895 2.09-8.855 2.09-3.63 0-6.435-1.155-7.92-1.925l-8.195 8.58c1.32 1.485 3.355 4.345 3.795 8.525h42.405Zm1.705 9.405c-.935-2.255-1.76-4.4-1.76-7.645v-.66H86.68v.66c0 3.245-.88 5.39-1.76 7.645-1.1 2.695-2.255 5.5-2.255 11.11 0 9.46 7.26 11.33 14.96 13.365 3.905 1.045 7.59 1.98 10.175 4.015 2.585-2.035 6.325-2.97 10.175-4.015 7.7-2.035 14.96-3.96 14.96-13.365.055-5.61-1.045-8.415-2.145-11.11Zm-14.025-25.3c-4.235 0-7.755-1.65-8.91-2.2-1.155.605-4.675 2.2-8.855 2.2-3.96 0-6.875-1.43-8.085-2.09l-9.13 9.515c1.32 1.265 4.18 4.785 4.18 10.285 0 3.135-.825 5.17-1.705 7.37-1.045 2.64-2.31 5.665-2.31 11.385 0 10.01 7.92 12.1 15.51 14.135 4.07 1.1 7.92 2.09 10.395 4.235 2.475-2.2 6.325-3.19 10.395-4.235 7.645-1.98 15.51-4.07 15.51-14.135 0-5.775-1.21-8.745-2.31-11.385-.88-2.2-1.705-4.235-1.705-7.37 0-5.5 2.86-8.965 4.18-10.285l-9.13-9.515c-1.155.66-4.125 2.09-8.03 2.09Zm-22.55 8.305c.22-.165.33-.495.33-.88s-.11-.66-.33-.88c-.22-.22-.55-.33-.99-.33h-1.43v2.365h1.43c.44.055.77-.055.99-.275Zm2.035 3.465v-.605c0-.495-.11-.88-.33-1.21-.22-.33-.55-.55-1.045-.715.44-.165.77-.44.99-.715.22-.275.33-.66.33-1.1 0-.77-.275-1.375-.77-1.76-.495-.44-1.265-.66-2.2-.66h-3.08v8.14h1.65v-3.245h1.54c.385 0 .715.11.935.33.22.22.33.55.33.935v.55c0 .275 0 .495.055.77s.165.495.275.605h1.705v-.11c-.165-.11-.275-.275-.33-.55-.055-.22-.055-.44-.055-.66Zm6.38-1.98V36.19c0-.66-.165-1.155-.495-1.54a1.674 1.674 0 0 0-1.32-.605c-.55 0-.99.22-1.265.605-.33.385-.44.935-.44 1.54v1.485c0 .66.165 1.155.44 1.595.33.385.715.605 1.265.605.55 0 .99-.22 1.32-.605.385-.44.495-.935.495-1.595Zm-1.76-4.95c-.99 0-1.815.33-2.42.99-.605.66-.935 1.485-.935 2.475v1.485c0 .99.33 1.815.935 2.475.605.66 1.43.99 2.42.99s1.815-.33 2.475-.99c.605-.66.935-1.485.935-2.475V36.19c0-.99-.33-1.815-.935-2.475-.66-.66-1.485-.99-2.475-.99Zm9.515 5.555c0 .55-.165.935-.44 1.21-.275.275-.715.385-1.21.385s-.88-.11-1.21-.385c-.275-.275-.44-.66-.44-1.21v-5.39h-1.65v5.39c0 .935.275 1.595.88 2.09.605.495 1.375.77 2.365.77.99 0 1.76-.275 2.365-.77.605-.495.935-1.21.935-2.09v-5.39h-1.65v5.39h.055Zm2.475-4.18h2.31v6.875h1.65V34.1h2.31v-1.265h-6.215V34.1h-.055Zm12.705 0v-1.265h-5.555v8.14h5.61V39.71h-3.96V37.4h3.355v-1.265h-3.355V34.1h3.905Zm-24.42 33.44c.55-.88.88-1.87.88-3.135 0-1.265-.275-2.31-.88-3.08-.55-.77-1.32-1.155-2.31-1.155-.825 0-1.54.165-2.145.385a3.487 3.487 0 0 0-1.375 1.1v1.54c0 1.815.33 3.19.99 4.18.66.99 1.54 1.43 2.585 1.43.935.055 1.705-.385 2.255-1.265Zm-1.1-10.835c-.99 0-1.87.165-2.64.44-.77.33-1.43.715-1.925 1.265l-.055-.055c-.055-1.815.33-3.3 1.155-4.29.825-1.045 1.98-1.54 3.355-1.54.715 0 1.32.055 1.87.165.55.11 1.155.275 1.815.55l.825-3.355c-.715-.33-1.485-.55-2.2-.715-.715-.165-1.54-.22-2.365-.22-2.64 0-4.84.88-6.6 2.64-1.705 1.76-2.585 4.125-2.585 7.15v4.455c0 2.915.77 5.17 2.255 6.765 1.54 1.65 3.465 2.475 5.885 2.475 2.255 0 4.125-.77 5.555-2.255 1.43-1.485 2.145-3.41 2.145-5.665s-.605-4.07-1.705-5.555c-1.155-1.485-2.75-2.255-4.785-2.255ZM119.57 67.54c.55-.88.825-1.87.825-3.135 0-1.265-.275-2.31-.88-3.08-.55-.77-1.32-1.155-2.31-1.155-.825 0-1.54.165-2.145.385a3.487 3.487 0 0 0-1.375 1.1v1.54c0 1.815.33 3.19.99 4.18.66.99 1.54 1.43 2.585 1.43.99.055 1.76-.385 2.31-1.265Zm-1.1-10.835c-.99 0-1.87.165-2.64.44-.77.33-1.43.715-1.925 1.265l-.055-.055c-.055-1.815.33-3.3 1.155-4.29.825-1.045 1.98-1.54 3.355-1.54.715 0 1.32.055 1.87.165.55.11 1.155.275 1.815.55l.825-3.355c-.715-.33-1.485-.55-2.2-.715-.715-.165-1.54-.22-2.365-.22-2.64 0-4.84.88-6.6 2.64-1.705 1.76-2.585 4.125-2.585 7.15v4.455c0 2.915.77 5.17 2.255 6.765 1.54 1.65 3.465 2.475 5.885 2.475 2.255 0 4.125-.77 5.555-2.255 1.43-1.485 2.145-3.41 2.145-5.665s-.605-4.07-1.76-5.555c-1.1-1.485-2.695-2.255-4.73-2.255ZM44.055 131.45H174.35c3.905 0 7.095 3.19 7.095 7.095v44c0 3.905-3.19 7.095-7.095 7.095H44.055c-3.905 0-7.095-3.19-7.095-7.095v-44c0-3.905 3.19-7.095 7.095-7.095Z" fill="#9C9C9C"/><path fill-rule="evenodd" clip-rule="evenodd" d="M44.055 132.55H174.35c3.3 0 5.995 2.695 5.995 5.995v44c0 3.3-2.695 5.995-5.995 5.995H44.055c-3.3 0-5.995-2.695-5.995-5.995v-44c.055-3.3 2.75-5.995 5.995-5.995Z" fill="#fff"/><path fill-rule="evenodd" clip-rule="evenodd" d="M44.055 134.585H174.35c2.2 0 3.96 1.76 3.96 3.96v44c0 2.2-1.76 3.96-3.96 3.96H44.055c-2.2 0-3.96-1.76-3.96-3.96v-44c0-2.2 1.815-3.96 3.96-3.96Z" fill="#9C9C9C"/><path fill-rule="evenodd" clip-rule="evenodd" d="M51.755 171.105c-.44-2.86-.935-5.775-1.375-8.69-.44-2.97-.935-5.995-1.375-9.02-.11.055-.22.11-.275.11v5.5l.66-.165v13.09c-1.485.55-2.915 1.045-4.4 1.595v-13.75c.33-.055.715-.165 1.045-.22v-7.205c-.33.055-.715.11-1.045.165v-13.75h6.6c.385 2.42.825 4.785 1.21 7.15s.825 4.675 1.21 6.985c.33-2.255.66-4.62 1.045-7.095.385-2.475.715-4.785 1.045-6.985h6.49v11.44c-.33.055-.715.055-1.045.11v6.105c.33-.055.66-.11 1.045-.165v11.44c-2.145.605-4.29 1.265-6.435 1.925v-12.21c.275-.055.605-.11.88-.165v-6.215c-.11 0-.22 0-.275-.055-.275 1.595-.55 3.19-.77 4.785-.22 1.595-.495 3.19-.715 4.785-.275 1.595-.495 3.245-.77 4.895-.275 1.65-.495 3.3-.77 4.95l-1.98.66ZM64.9 167.145c-.495.11-.935-.11-1.265-.715-.33-.605-.495-1.43-.495-2.42v-21.67c0-1.045.165-1.87.495-2.585.33-.715.77-1.045 1.265-1.045h8.25c.495 0 .935.33 1.265.935.33.605.495 1.375.495 2.31v19.47c0 .88-.165 1.705-.495 2.365-.33.715-.77 1.1-1.265 1.21-2.75.77-5.5 1.43-8.25 2.145Zm3.52-17.49c-.22 0-.385.22-.55.55-.165.33-.22.715-.22 1.1v2.64c0 .44.055.77.22 1.045.165.275.33.385.55.385.44-.055.825-.11 1.265-.165.22 0 .385-.22.55-.55.165-.33.22-.715.22-1.1v-2.585c0-.385-.055-.715-.22-1.045-.165-.275-.33-.44-.55-.44-.44.055-.88.11-1.265.165ZM78.925 154v-5.28c-.385 0-.77.055-1.155.055v3.465c-.715.055-1.485.165-2.2.22v-13.75h10.945v12.65c-.715.055-1.485.11-2.2.165v-3.3c-.385 0-.77.055-1.155.055v5.115c.495-.055.935-.11 1.43-.165v9.57c-2.365.44-4.73.825-7.095 1.21V154c.44.11.935.055 1.43 0ZM88.935 162.415c-.495.055-.935-.165-1.265-.715-.33-.55-.495-1.21-.495-2.035V141.79c0-.825.165-1.54.495-2.145.33-.55.77-.88 1.265-.88h8.25c.495 0 .88.275 1.265.825.33.55.495 1.21.495 2.035v16.94c0 .77-.165 1.43-.495 2.035-.33.55-.77.88-1.265.935-2.75.22-5.5.495-8.25.88ZM92.4 147.95c-.22 0-.385.165-.55.44-.165.275-.22.605-.22.935v2.2c0 .385.055.66.22.935.165.22.33.385.55.33.44-.055.88-.055 1.265-.055.22 0 .385-.165.55-.44.165-.275.22-.55.22-.935v-2.2c0-.33-.055-.605-.22-.88s-.385-.385-.55-.385c-.44 0-.88.055-1.265.055ZM108.625 160.985a1.21 1.21 0 0 1-.715-.22c-.22-.165-.44-.33-.66-.55-.22-.22-.33-.55-.44-.88-.11-.33-.22-.715-.22-1.1v-5.83c0-.55-.11-.935-.275-1.045-.22-.11-.44-.165-.715-.165h-.44v1.045h.825v8.8c-2.145.055-4.345.11-6.49.275v-8.91c.44 0 .88-.055 1.32-.055v-4.675c-.44 0-.88.055-1.32.055v-8.91h10.89c.495 0 .935.275 1.265.77.33.55.495 1.21.495 1.98v5.61c0 .66-.11 1.265-.33 1.87-.22.605-.55 1.1-.935 1.485.33.385.55.825.715 1.32.165.495.275 1.045.275 1.54v6.38c0 .22.055.33.22.33a.417.417 0 0 0 .22-.11c.055-.055.11-.165.11-.33v-3.905h.605v3.905c0 .44-.11.77-.275 1.045a.778.778 0 0 1-.66.385c-1.155-.055-2.31-.11-3.465-.11Zm-1.705-10.835c.22 0 .44-.11.605-.385.165-.22.22-.55.22-.935s-.055-.715-.22-.935c-.165-.22-.33-.33-.605-.33h-1.76v2.585h1.76ZM120.945 149.325v-1.595c-.44 0-.825 0-1.265-.055-.22 0-.385.11-.55.385-.165.275-.22.55-.22.88v2.145c0 .33.055.66.22.935s.33.385.55.385c.44 0 .825.055 1.265.055v-1.485l4.125.165v7.7c0 .77-.165 1.43-.495 1.98-.33.55-.77.77-1.265.715-2.64-.165-5.28-.385-7.92-.44-.495 0-.88-.275-1.265-.825-.33-.55-.495-1.21-.495-1.98v-16.72c0-.77.165-1.43.495-1.98.33-.55.77-.825 1.265-.825h5.17c.275 0 .55.165.825.495.275.33.605.825.825 1.375v-1.925h2.805v10.67c-1.32.055-2.695 0-4.07-.055ZM132.11 138.82v9.35c-.22 0-.385 0-.605-.055.275.605.605 1.21.88 1.87.385-.605.77-1.155 1.155-1.76-.22 0-.385 0-.605-.055v-9.46h4.565v9.68c-.44-.055-.88-.055-1.32-.11-.88 1.375-1.76 2.75-2.64 4.07v.715c.495.055.935.11 1.43.165v9.515c-2.365-.385-4.73-.66-7.15-.935v-9.13c.495.055.935.055 1.485.11v-1.1c-.715-1.32-1.43-2.585-2.145-3.905-.495 0-.99-.055-1.485-.055v-9.02c2.145.11 4.29.11 6.435.11ZM145.475 150.975v-1.87c-.44-.055-.825-.055-1.265-.11-.22 0-.385.11-.55.385a1.9 1.9 0 0 0-.275.99v2.475c0 .385.11.77.275 1.045.165.33.33.495.55.495.44.055.825.11 1.265.165v-1.705l4.125.495v9.13c0 .935-.165 1.705-.495 2.255-.33.55-.77.825-1.265.715-2.64-.605-5.28-1.155-7.92-1.65-.495-.11-.88-.44-1.265-1.1-.33-.66-.495-1.375-.495-2.255v-18.48c0-.88.165-1.595.495-2.2.33-.605.77-.88 1.265-.88h5.17c.275 0 .55.22.88.605.275.385.55.935.825 1.65v-2.2h2.805v12.65c-1.43-.33-2.75-.495-4.125-.605ZM158.565 156.64v-4.73c1.045.165 2.035.275 3.08.44v16.94a223.588 223.588 0 0 0-11.44-3.3v-10.78c.44.055.88.165 1.375.22v-5.775c-.44-.055-.88-.11-1.375-.165v-10.78h7.205v11.55c-.495-.055-1.045-.11-1.54-.165v5.995c.88.22 1.76.385 2.695.55ZM167.475 156.585c0 .495.055.935.22 1.375.165.385.33.605.55.66 1.815.385 3.575.825 5.39 1.21v9.46c0 1.21-.165 2.145-.495 2.86-.33.715-.77.935-1.265.77-2.64-.99-5.28-1.98-7.92-2.915-.495-.165-.935-.66-1.265-1.54-.33-.825-.495-1.815-.495-2.86v-22.99c0-1.1.165-1.98.495-2.75.33-.77.77-1.1 1.265-1.1h7.92c.495 0 .935.44 1.265 1.265.33.825.495 1.87.495 3.135v13.86c-2.09-.385-4.125-.825-6.215-1.21.055.275.055.495.055.77Zm2.09-1.87v-2.75c-.44-.055-.825-.11-1.265-.165-.22-.055-.385.11-.55.495-.165.33-.22.77-.22 1.265v.825c.66.055 1.32.22 2.035.33ZM62.095 174.185c-.605.11-1.155.22-1.76.33 0-.22-.11-.385-.165-.55a1.285 1.285 0 0 0-.385-.385 1.359 1.359 0 0 0-.495-.22h-.55c-.22.055-.385.165-.55.275-.11.11-.22.275-.22.44a.5.5 0 0 0 .165.385c.11.055.275.11.495.165.22.055.44.055.715.11.275 0 .495.055.77.11s.55.165.77.275c.275.11.495.275.715.495.22.22.385.495.495.88.11.33.165.77.165 1.265 0 .55-.11.99-.275 1.375-.165.385-.44.715-.715.935-.33.22-.66.44-1.045.55-.385.11-.825.165-1.21.165-.44 0-.825-.055-1.155-.165a5.221 5.221 0 0 1-1.155-.495v.495h-1.76v-2.97c.605-.055 1.155-.165 1.76-.22.11.44.33.77.605.99.33.22.66.33 1.045.33.275 0 .44-.11.605-.22.11-.11.22-.275.22-.385 0-.22-.11-.385-.33-.495-.22-.11-.495-.165-.77-.22-.33-.055-.66-.11-1.045-.165a2.629 2.629 0 0 1-.99-.33c-.33-.165-.605-.385-.77-.66-.22-.275-.33-.715-.33-1.21 0-.385.11-.77.275-1.1.165-.33.385-.66.66-.935s.605-.55.99-.77c.385-.22.715-.385 1.155-.55a5.035 5.035 0 0 1 1.43-.22c.385.055.715.11.935.22v-.605c.605-.165 1.155-.33 1.76-.495v1.815c-.055.55-.055 1.155-.055 1.76ZM68.64 175.285c-.605.055-1.21.165-1.815.22v1.43c0 .275.055.44.165.55.11.11.275.165.55.165v2.86c-1.595 0-3.135 0-4.73.055v-2.53c.33 0 .55-.11.66-.22.11-.11.22-.33.22-.66v-3.52c0-.33-.055-.495-.22-.605-.165-.11-.385-.11-.66-.055v-2.53c1.54-.385 3.135-.825 4.73-1.265v2.86c-.275.055-.44.165-.55.275-.11.165-.165.33-.165.605v1.21c.605-.11 1.21-.165 1.815-.275v-1.265c0-.275-.055-.495-.165-.605-.11-.11-.275-.11-.55-.055v-2.86c1.54-.385 3.135-.715 4.73-1.045v3.135c-.33.055-.55.165-.66.33-.11.165-.22.44-.22.77v4.18c0 .385.055.605.22.715.11.11.33.165.66.165v3.135h-4.73v-2.86c.275 0 .44-.11.55-.22.11-.11.165-.33.165-.605v-1.485ZM73.095 174.185c0-1.1.11-2.09.33-2.97.22-.88.55-1.65.935-2.31.44-.66.88-1.21 1.485-1.595.55-.385 1.21-.66 1.87-.77.66-.11 1.32-.11 1.87.11s1.045.605 1.485 1.155c.385.55.715 1.265.935 2.2.22.935.33 1.98.33 3.245 0 1.265-.11 2.31-.33 3.3-.22.935-.55 1.76-.935 2.365a3.7 3.7 0 0 1-1.485 1.43c-.55.33-1.21.44-1.87.44-.66 0-1.32-.165-1.87-.44s-1.045-.715-1.485-1.265c-.385-.55-.715-1.265-.935-2.09-.22-.77-.33-1.76-.33-2.805Zm3.575-.385c0 .715 0 1.32.055 1.815.055.495.11.88.165 1.21.055.275.165.495.33.66.11.11.33.165.495.165.22 0 .385-.055.495-.22.165-.165.22-.385.33-.715.055-.33.165-.715.165-1.21.055-.495.055-1.155.055-1.87 0-.715 0-1.375-.055-1.87a16.43 16.43 0 0 0-.165-1.21c-.055-.275-.165-.495-.33-.605-.11-.11-.33-.165-.495-.11-.22.055-.385.11-.495.275-.11.165-.22.385-.33.715-.055.33-.11.715-.165 1.21-.055.385-.055 1.045-.055 1.76ZM86.79 174.845v.605c0 .33.055.66.11.825.11.22.275.275.495.275h.55v3.795h-5.17v-3.63c.33 0 .55-.11.66-.275.11-.165.22-.44.22-.88v-4.95c0-.44-.055-.715-.22-.88-.11-.165-.385-.22-.66-.165v-3.63c1.925-.275 3.795-.55 5.72-.825.495-.055.935 0 1.32.22.33.22.605.495.825.935.22.44.385.935.44 1.54.11.605.165 1.32.165 2.035 0 .77-.055 1.43-.165 2.035-.11.605-.22 1.1-.44 1.54-.22.44-.495.715-.825.935-.385.22-.77.33-1.32.385-.55.055-1.1.11-1.705.11Zm0-2.365c.165 0 .385-.055.55-.055.275 0 .495-.165.605-.495.11-.33.165-.715.165-1.21s-.055-.88-.165-1.155c-.11-.33-.33-.44-.605-.44-.22 0-.385.055-.55.055v3.3ZM115.995 169.895h-1.76c-.055-.385-.11-.715-.165-1.045-.11-.33-.22-.605-.385-.88-.165-.22-.275-.44-.495-.55-.165-.11-.33-.22-.55-.22a.61.61 0 0 0-.55.275c-.11.165-.22.44-.22.77s.055.55.165.77c.11.22.275.385.495.495.22.165.44.275.66.385.275.11.495.275.77.495.275.165.55.44.77.66.275.275.495.605.715 1.045.22.385.385.935.495 1.54.11.605.165 1.32.165 2.145 0 .88-.11 1.65-.275 2.255a5.008 5.008 0 0 1-.715 1.54c-.275.385-.66.715-1.045.88-.385.165-.825.275-1.21.275-.44 0-.825-.11-1.155-.33-.385-.22-.77-.55-1.155-.99v.99h-1.76v-6.16h1.76c.11.88.33 1.595.605 2.09.33.495.66.77 1.045.77.275 0 .44-.11.605-.33.11-.22.22-.44.22-.715 0-.385-.11-.715-.33-.935-.22-.22-.495-.44-.77-.605a9.567 9.567 0 0 1-.99-.605c-.385-.22-.715-.55-1.045-.935-.33-.44-.55-.99-.77-1.65-.22-.66-.33-1.54-.33-2.64 0-.825.11-1.54.275-2.145.165-.605.385-1.155.66-1.595.275-.44.605-.715.99-.935.385-.22.715-.33 1.155-.33.55 0 1.045.165 1.43.44s.715.55.935.88v-1.045c.605 0 1.155 0 1.76.055v5.885ZM121.66 176.275c.165 0 .275 0 .385-.055.11-.055.165-.165.22-.275.055-.165.11-.33.11-.605 0-.275.055-.55.055-.935.605 0 1.21.055 1.87.055v5.83h-7.535v-4.125c.33 0 .55-.11.66-.275.165-.165.22-.495.22-.99v-5.61c0-.495-.055-.825-.22-.99-.11-.165-.33-.275-.66-.275V163.9c2.53.165 5.005.275 7.535.495v5.83c-.605-.055-1.265-.055-1.87-.11 0-.385 0-.715-.055-.935 0-.22-.055-.44-.11-.605-.055-.165-.11-.22-.22-.33-.11-.055-.22-.11-.385-.11-.33 0-.66-.055-.935-.055v2.915c.55 0 1.1.055 1.705.055v1.925c-.55 0-1.155-.055-1.705-.055v3.135c.33.22.66.22.935.22ZM124.74 180.345v-4.015c.275 0 .495-.055.66-.22.11-.165.22-.495.22-.935v-5.39c0-.495-.055-.825-.22-.99a1.255 1.255 0 0 0-.66-.33v-4.015c1.87.165 3.74.385 5.61.605.495.055.935.22 1.32.495.33.22.66.55.825.99.22.385.33.825.44 1.375.11.495.165 1.1.165 1.705 0 1.155-.11 2.035-.44 2.695-.275.66-.77.99-1.375.99v.11c.33.055.55.165.77.385.22.165.385.44.495.715.11.275.165.66.22 1.045.055.385.055.825.055 1.32v.55c0 .165 0 .33.055.44.055.11.11.165.22.165s.165-.055.22-.165c.055-.11.055-.275.055-.44v-2.585c.22 0 .385 0 .605.055v2.53c0 .495-.055.935-.11 1.32s-.22.77-.385 1.045c-.165.275-.385.55-.66.715-.275.165-.66.275-1.045.275-.385 0-.77-.11-.99-.275-.275-.165-.44-.44-.605-.715-.165-.33-.22-.66-.33-1.1-.055-.44-.11-.825-.11-1.32v-.825c0-.55 0-.99-.055-1.375-.055-.33-.055-.605-.165-.825-.055-.22-.165-.33-.275-.385a1.036 1.036 0 0 0-.44-.11h-.11v1.485c0 .385.055.66.165.825.11.165.275.275.55.275v3.85c-1.54.055-3.135.055-4.675.055Zm3.96-8.305h.44c.275 0 .495-.11.605-.385.11-.275.165-.66.165-1.155 0-.605-.055-.99-.165-1.265-.11-.275-.33-.44-.605-.44-.165 0-.33 0-.44-.055v3.3ZM134.86 170.555c-.055-.22-.11-.385-.11-.55-.055-.165-.11-.275-.165-.385-.055-.11-.165-.165-.22-.22-.11-.055-.22-.11-.385-.11v-3.74c1.54.22 3.08.44 4.62.715v3.52c-.55-.055-.715.22-.605.88.11.77.275 1.595.385 2.365.11.77.275 1.595.44 2.365h.055c.11-.77.275-1.54.44-2.255.11-.77.275-1.485.44-2.255.11-.605-.055-.935-.605-1.045v-3.52c1.045.22 2.035.385 3.08.55v3.355h-.385c-.11 0-.165.055-.22.165-.055.055-.11.165-.165.275-.055.11-.055.275-.11.44-.33 1.485-.715 2.97-1.045 4.455l-.99 4.62h-2.365c-.33-1.595-.715-3.245-1.045-4.895-.385-1.43-.715-3.08-1.045-4.73ZM142.395 180.4v-3.355c.33 0 .55-.055.66-.165.11-.165.22-.385.22-.77v-4.51c0-.385-.055-.66-.22-.825-.11-.165-.33-.275-.66-.33v-3.355c1.595.33 3.245.715 4.84 1.045v3.08c-.33-.055-.55-.055-.66.11-.11.11-.22.33-.22.715v4.29c0 .385.055.605.22.77.11.165.385.22.66.22v3.08c-1.65.055-3.245.055-4.84 0ZM151.69 168.905c.22.055.44.165.66.275.22.11.385.22.55.385.165.11.33.275.44.385.11.11.22.22.275.33v-.55c.605.165 1.155.33 1.76.495v3.85c-.605-.11-1.21-.22-1.87-.33 0-.33 0-.605-.11-.825-.055-.22-.165-.44-.22-.605a2.392 2.392 0 0 0-.33-.385c-.11-.055-.275-.165-.44-.165-.22-.055-.385-.055-.55.055-.165.055-.275.22-.385.495-.11.22-.165.55-.22.99-.055.44-.055.935-.055 1.54s0 1.155.055 1.595c.055.44.11.77.22 1.045.11.275.22.44.385.605.165.11.385.165.55.22.165 0 .33 0 .44-.11a1.03 1.03 0 0 0 .385-.33c.11-.165.165-.385.275-.605.055-.22.11-.55.11-.88.605.055 1.21.11 1.815.22 0 .605-.055 1.155-.22 1.65-.165.495-.385.99-.66 1.375s-.66.715-1.155.935c-.495.22-1.045.385-1.65.385s-1.1-.11-1.65-.33c-.495-.22-.935-.605-1.32-1.155-.385-.495-.66-1.21-.935-2.035-.22-.825-.33-1.815-.33-2.97 0-1.155.11-2.09.33-2.86.22-.77.495-1.375.88-1.815.385-.44.825-.715 1.265-.825.715-.22 1.21-.22 1.705-.055ZM161.15 178.365h.385c.11 0 .165-.055.22-.11a.42.42 0 0 0 .11-.275c0-.11.055-.275.055-.495.605.055 1.21.165 1.87.22v2.86c-2.53 0-5.06-.055-7.535-.055v-2.53c.33 0 .55 0 .66-.11.11-.11.22-.275.22-.55v-3.41c0-.275-.055-.495-.22-.66-.11-.11-.385-.22-.66-.275v-2.53c2.53.77 5.06 1.54 7.535 2.365v2.86c-.605-.11-1.265-.275-1.87-.385 0-.22 0-.385-.055-.495 0-.11-.055-.22-.11-.33l-.22-.22a.795.795 0 0 0-.385-.11c-.33-.055-.605-.165-.935-.22v1.595c.55.11 1.1.22 1.705.33v.99c-.55-.11-1.155-.165-1.705-.22v1.76c.33-.055.66 0 .935 0ZM103.675 176.88c.22 0 .385-.165.495-.44.165-.275.22-.825.22-1.65h.605c0 1.155-.055 2.09-.11 2.86a7.406 7.406 0 0 1-.385 1.87c-.165.495-.385.77-.66.99-.275.165-.55.275-.935.275a1.81 1.81 0 0 1-1.045-.33c-.33-.22-.66-.55-.88-.935-.165.165-.33.275-.495.44-.165.165-.385.275-.605.44-.22.11-.44.22-.77.33-.275.055-.605.11-.99.11-.44 0-.88-.11-1.265-.275-.385-.22-.77-.495-1.045-.88a4.67 4.67 0 0 1-.715-1.485 8.133 8.133 0 0 1-.275-2.145c0-.66.055-1.21.165-1.705.11-.495.275-.935.44-1.375.165-.385.44-.715.66-.99.275-.275.55-.495.825-.715-.165-.55-.33-1.1-.385-1.65-.11-.55-.165-.99-.165-1.43 0-.88.055-1.595.275-2.145.165-.55.44-.99.715-1.32.275-.33.605-.55.99-.715.385-.165.77-.22 1.1-.275.33 0 .66 0 .935.11.33.11.605.33.825.605.22.275.44.605.605 1.045.165.44.22.99.22 1.595s-.055 1.1-.165 1.485a3.97 3.97 0 0 1-.495 1.1c-.22.33-.44.605-.715.825-.275.22-.55.495-.825.715.33.77.605 1.43.935 1.98.33.55.66 1.155.99 1.705a.76.76 0 0 0 .165-.22c.055-.11.055-.22.055-.385s-.055-.275-.11-.385c-.055-.11-.22-.165-.495-.165v-3.135c1.155-.055 2.31-.055 3.41-.055v3.19h-.275c-.22 0-.385.11-.495.33-.165.22-.275.495-.385.825-.11.33-.275.66-.385.935-.11.33-.275.605-.385.825l.165.165c.055.055.11.055.165.11.055.055.11.055.165.055.275-.11.275-.11.33-.11Zm-5.83-2.915c-.11.165-.22.44-.22.77-.055.33-.055.605-.055.935 0 .715.11 1.265.33 1.595.22.33.495.495.77.495.11 0 .275 0 .385-.055a.886.886 0 0 0 .385-.22c-.165-.33-.33-.605-.495-.88-.165-.275-.275-.55-.385-.825l-.33-.825c-.11-.33-.22-.66-.385-.99Zm2.145-6.6c0-.22-.055-.44-.165-.605-.11-.165-.22-.275-.385-.275s-.33.11-.385.275c-.11.165-.165.44-.165.715 0 .275 0 .495.11.715.055.22.165.55.275.935.22-.275.385-.55.55-.77.11-.22.165-.55.165-.99ZM48.62 175.01l.66 2.255 2.365-.055-1.925 1.375.77 2.2-1.87-1.32-1.925 1.32.77-2.2-1.925-1.375 2.365.055.715-2.255ZM169.4 175.01l.715 2.255 2.31-.055-1.87 1.375.715 2.2-1.87-1.32-1.87 1.32.715-2.2-1.87-1.375 2.31.055.715-2.255ZM69.355 93.775c-.22-.11-.495-.22-.715-.275.22.055.495.165.77.22-.055 0-.055.055-.055.055Zm-19.085.715a22.108 22.108 0 0 0-11.825 19.58c0 12.21 9.9 22.165 22.165 22.165 9.9 0 18.535-6.545 21.285-16.005l8.855.605c1.045 2.915 2.42 3.85 5.555 4.455.77.44 1.595.715 2.475.77l25.685 1.485h.605c4.84 0 9.075-3.245 10.395-7.865l4.785-17.05c.11.33.385.66.77.77.275.11.165.11.495.11h.055c-1.76 3.19-2.695 6.82-2.695 10.615 0 12.21 9.9 22.165 22.165 22.165 12.21 0 22.165-9.9 22.165-22.165 0-10.23-6.985-18.865-16.445-21.395l.165-.165c.275-.33.33-.825.22-1.21l-.605-1.815c-.11-.44-.495-.715-.88-.88-3.685-.99-8.635-.825-12.32.055-.22.055-.495.11-.715.22l-1.21-2.695a2.885 2.885 0 0 0 1.87-1.87c.44-1.65.66-3.355.66-5.06 0-1.705-.22-3.41-.66-5.06a2.773 2.773 0 0 0-2.695-2.035h-.275c-1.65.165-3.245.66-4.51 1.705l-.275-.605a2.818 2.818 0 0 0-1.595-1.485c-.715-.275-1.485-.275-2.2.055-.715.33-1.21.88-1.485 1.595 0 .055 0 .055-.055.11-.33-.11-.66-.165-1.045-.055l-2.585.605a1.255 1.255 0 0 0-.66.33c-1.815-1.21-4.29-1.54-6.435-1.54-7.59 0-15.07 1.925-21.67 5.775-2.09 1.21-4.125 2.64-5.94 4.29-.495.44-.99.935-1.375 1.43-.495-.33-1.155-.495-1.705-.605-1.43-.33-3.025-.33-4.51-.33-2.09 0-4.18.11-6.27.22-1.265.055-2.585.165-3.905.165-2.31 0-5.115-1.155-7.26-1.98-1.155-.44-2.86-1.21-4.125-1.21h-.22c-2.365.165-4.015 1.485-4.29 3.685-1.87-.33-3.74-.44-5.665-.44-4.07 0-8.47.44-12.265 1.925-1.155.44-2.915 1.265-3.795 2.145a1.332 1.332 0 0 0-.165 1.65l2.915 4.18a.946.946 0 0 0 1.045.66Zm91.63 1.925 1.705-6.105.88-.55c1.1.275 1.98.99 2.75 1.815-.99.715-1.87 1.43-2.75 2.255-.825.77-1.76 1.65-2.585 2.585Zm-66.99.825c0-.165.055-.275 0-.44.165-.055.33-.165.44-.275l.11-.11c.165.055.275.165.44.22 1.045 1.815 2.97 3.685 4.565 4.95 1.045.825 2.145 1.65 3.3 2.31.495 1.1.935 2.31 1.21 3.52h-3.3A22.467 22.467 0 0 0 74.91 97.24Z" fill="#fff"/><path fill-rule="evenodd" clip-rule="evenodd" d="m84.26 118.91 1.21.11c.77.055 1.595.11 2.365.165.825.055 1.595.055 2.42.11h2.42a8.238 8.238 0 0 0-1.21-.11l-1.21-.11c-.825-.055-1.595-.11-2.42-.165-.825-.055-1.595-.055-2.42-.11l-1.21-.055h-1.21c.495.11.88.11 1.265.165Zm16.995-6.05a2.91 2.91 0 0 0 1.65.495c.22 0 .495-.055.715-.055.825-.22 1.54-.715 1.98-1.43.44-.715.55-1.595.33-2.42-.22-.825-.77-1.485-1.485-1.925l-3.245-1.815c-.11-.055-.275-.22-.44-.44l3.905 2.2c.77.44 1.32 1.155 1.54 2.035.22.88.11 1.76-.385 2.53-.605.99-1.705 1.595-3.025 1.595-.66 0-1.32-.165-1.87-.495-.88-.495-1.65-.935-2.475-1.32.055-.11.11-.22.165-.385 1.045.44 1.87.935 2.64 1.43Zm20.46-1.65c-.11 0-.165-.055-.165-.165 0-.11.055-.165.165-.165.11 0 .165.11.165.165 0 .11-.055.165-.165.165Zm-1.43-15.29c-1.1-.055-2.2.055-3.3.275-.55.11-1.045.275-1.595.495-.495.22-.99.44-1.485.77.88-.66 1.925-1.1 3.025-1.375 1.1-.275 2.2-.385 3.3-.33 1.1.055 2.255.165 3.3.55 1.045.33 2.09.825 2.915 1.595-.44-.33-.88-.66-1.375-.88-.495-.22-.99-.44-1.54-.605a10.8 10.8 0 0 0-3.245-.495Zm-.385 2.53c.495 0 .935.44.935.935 0 .495-.44.935-.935.935a.927.927 0 0 1-.935-.935c0-.495.385-.935.935-.935Zm-1.155.935c0 .66.55 1.155 1.21 1.155.66 0 1.155-.55 1.155-1.155 0-.66-.55-1.21-1.155-1.21-.715.055-1.21.55-1.21 1.21Zm2.695 0c0-.825-.66-1.54-1.54-1.54-.825 0-1.54.66-1.54 1.54 0 .275.055.55.22.77-.825-.605-.935-1.65-.935-.77 0 1.21.99 2.255 2.255 2.255 1.21 0 2.255-.99 2.255-2.255 0-.88-.055.11-.935.77.11-.22.22-.495.22-.77Zm.99 0c0-1.375-1.1-2.475-2.475-2.475s-2.53 1.1-2.53 2.475 1.1 2.475 2.53 2.475c1.32.055 2.475-1.1 2.475-2.475Zm-9.9 0c0 2.145 3.3 3.905 7.37 3.905s7.37-1.76 7.37-3.905c0-1.815-.33.22-4.51.935.055-.165.11-.275.11-.44.11 0 .275-.055.385-.11.33-.055.66-.165.935-.275.275-.11.55-.22.77-.275.22-.11.44-.165.605-.275.33-.165.495-.275.495-.275s-.22.055-.55.11c-.165.055-.385.055-.605.11-.22.055-.495.11-.77.165-.275.055-.605.11-.935.165-.11 0-.22.055-.33.055-.055-1.595-1.375-2.915-2.97-2.915-1.595 0-2.915 1.265-2.97 2.915-.44-.055-.88-.11-1.265-.165-.275-.055-.55-.11-.77-.165-.22-.055-.44-.055-.605-.11-.33-.055-.55-.11-.55-.11s.165.11.495.275c.165.055.385.165.605.275.22.11.495.22.77.275.385.165.88.275 1.32.385.055.165.055.33.11.44-4.125-.715-4.51-2.805-4.51-.99Zm16.885-6.435 3.795 1.595-.22.55-3.795-1.595.22-.55Zm6.325 3.3.22-.495c.11.11.22.22.275.385l-.11.275-.385-.165Zm-.165.44.33.165-.88 2.145-.33-.165.88-2.145Zm-6.6-2.805-.88 2.145 3.795 1.595.88-2.145-.605-.275-3.19-1.32Zm-4.84-1.815c0-.055.055-.055.11-.11h.11l.165.055-.88 2.145-.165-.055c-.055 0-.055-.055-.11-.11v-.11l.77-1.815Zm-17.325 3.025-.22-.55 3.795-1.595.22.55-3.795 1.595Zm-3.025.66.22.495-.33.165-.11-.275c0-.165.11-.275.22-.385Zm-.88 1.43.165-.055.88 2.145-.165.055h-.055c-.055 0-.11-.055-.165-.11l-.77-1.815v-.165c.055 0 .11 0 .11-.055Zm2.145 1.65-.88-2.145-.33.165.88 2.145.33-.165Zm1.925-3.355.88 2.145 3.795-1.595-.88-2.145-3.19 1.375-.605.22Zm8.415-3.52h.11c.055 0 .055.055.11.11l.77 1.815v.11c0 .055-.055.055-.11.11l-.165.055-.88-2.145.165-.055Zm-17.105 31.35c2.145 0 4.345.055 6.49.165 2.145.055 4.345.165 6.49.33 2.145.11 4.345.275 6.49.44 2.145.165 4.29.33 6.49.55-2.145 0-4.345-.055-6.49-.165a255.971 255.971 0 0 1-12.98-.715c-2.2-.165-4.345-.385-6.49-.605Zm36.025-8.855 1.375-4.62c.935-3.08 1.76-6.16 2.64-9.24.825-3.08 1.705-6.16 2.53-9.24l1.21-4.62c.385-1.54.77-3.08 1.155-4.675-.495 1.54-.935 3.025-1.43 4.565l-1.375 4.62-2.64 9.24c-.88 3.08-1.705 6.16-2.53 9.24l-1.21 4.62c-.385 1.54-.77 3.08-1.155 4.675.495-1.485.935-3.025 1.43-4.565Zm17.655.825c-.055-.11.055-.22.165-.275.11-.055.22.055.275.165.055.11-.055.22-.165.275a.302.302 0 0 1-.275-.165Zm.77.495c-.055-.11.055-.22.165-.275.11-.055.22.055.275.165.055.11-.055.22-.165.275a.302.302 0 0 1-.275-.165Zm1.21.33c.055.11-.055.22-.165.275-.11.055-.22-.055-.275-.165-.055-.11.055-.22.165-.275.11-.055.275.055.275.165Zm.605 4.015c.11.055.11.22.055.33-.055.11-.22.11-.33.055-.11-.055-.11-.22-.055-.33.055-.11.22-.165.33-.055Zm.605.275c-.11-.055-.11-.22-.055-.33.055-.11.22-.11.33-.055.11.055.11.22.055.33-.11.11-.22.11-.33.055Zm.935-.11c-.11-.055-.11-.22-.055-.33.055-.11.22-.11.33-.055.11.055.11.22.055.33-.11.11-.275.11-.33.055Zm3.08 2.585c.11 0 .22.11.22.22s-.11.22-.22.22-.22-.11-.22-.22.11-.22.22-.22Zm.66-.165c-.11 0-.22-.11-.22-.22s.11-.22.22-.22.22.11.22.22c0 .165-.055.22-.22.22Zm.715-.605c-.11 0-.22-.11-.22-.22s.11-.22.22-.22.22.11.22.22c0 .165-.11.22-.22.22Zm4.015.275c.11-.055.22-.055.33.055.055.11.055.22-.055.275-.11.055-.22.055-.33-.055-.055-.055-.055-.22.055-.275Zm.495-.825c.055.11.055.22-.055.33-.11.055-.22.055-.33-.055-.055-.11-.055-.22.055-.275.165-.11.275-.11.33 0Zm.22-.88c.055.11.055.22-.055.275-.11.055-.22.055-.33-.055-.055-.11-.055-.22.055-.275.11-.055.275-.055.33.055Zm3.465-1.595c-.11-.055-.165-.165-.11-.275.055-.11.165-.165.275-.11.11.055.165.165.11.275-.055.11-.165.165-.275.11Zm-.33-.825c-.11-.055-.165-.165-.11-.275.055-.11.165-.165.275-.11.11.055.165.165.11.275-.055.11-.165.165-.275.11Zm-.385-.825c-.11-.055-.165-.165-.11-.275.055-.11.165-.165.275-.11.11.055.165.165.11.275-.055.11-.165.165-.275.11Zm2.035-3.74a.302.302 0 0 1-.275-.165c-.055-.11.055-.22.165-.275.11-.055.22.055.275.165.055.11-.055.275-.165.275Zm-.77-.495c-.11.055-.22-.055-.275-.165-.055-.11.055-.22.165-.275.11-.055.22.055.275.165 0 .165-.055.275-.165.275Zm-1.045-.605c-.055-.11.055-.22.165-.275.11-.055.22.055.275.165.055.11-.055.22-.165.275-.11.055-.275-.055-.275-.165Zm-.605-4.015c-.11-.055-.11-.22-.055-.33.055-.11.22-.11.33-.055.11.055.11.22.055.33-.055.11-.22.11-.33.055Zm-.935-.22c.055-.11.22-.11.33-.055.11.055.11.22.055.33-.055.11-.22.11-.33.055-.11-.11-.11-.22-.055-.33Zm-.605.055c.11.055.11.22.055.33-.055.11-.22.11-.33.055-.11-.055-.11-.22-.055-.33.11-.11.275-.11.33-.055Zm-3.08-2.585c-.11 0-.22-.11-.22-.22s.11-.22.22-.22.22.11.22.22-.11.22-.22.22Zm-.935.385c0-.11.11-.22.22-.22s.22.11.22.22-.11.22-.22.22-.22-.11-.22-.22Zm-.44.385c.11 0 .22.11.22.22s-.11.22-.22.22-.22-.11-.22-.22c0-.165.11-.22.22-.22Zm-35.86 5.995c.11 0 .165.055.165.165 0 .11-.055.165-.165.165-.11 0-.165-.055-.165-.165 0-.11.055-.165.165-.165Zm0 9.13c-.11 0-.165-.11-.165-.165 0-.11.055-.165.165-.165.11 0 .165.11.165.165 0 .11-.055.165-.165.165Zm-4.07 1.265c-.11 0-.165-.055-.165-.165 0-.11.055-.165.165-.165.11 0 .165.11.165.165 0 .055-.055.165-.165.165Zm6.215-5.61c-.11 0-.165-.055-.165-.165 0-.11.055-.165.165-.165.11 0 .165.11.165.165.055.11-.055.165-.165.165Zm-71.225-11.55c.055.11.055.22-.055.33-.11.055-.22.055-.33-.055-.055-.11-.055-.22.055-.33.11-.055.275-.055.33.055Zm-.165.88c.055.11.055.22-.055.33-.11.055-.22.055-.33-.055-.055-.11-.055-.22.055-.33.11-.055.275 0 .33.055Zm-.495 1.155c-.055-.11-.055-.22.055-.33.11-.055.22-.055.33.055.055.11.055.22-.055.33-.11.055-.275.055-.33-.055Zm-4.455 7.205c.11-.055.22 0 .275.165.055.11 0 .22-.165.275-.11.055-.22 0-.275-.165 0-.11.055-.22.165-.275Zm1.1.605c.055.11 0 .22-.165.275-.11.055-.22 0-.275-.165-.055-.11 0-.22.165-.275.11 0 .22.055.275.165Zm.77.385c.055.11 0 .22-.165.275-.11.055-.22 0-.275-.165-.055-.11 0-.22.165-.275.165 0 .275.055.275.165Zm.825 4.015c.11.055.11.22.055.33-.055.11-.22.11-.33.055-.11-.055-.11-.22-.055-.33.055-.11.22-.11.33-.055Zm.66.22c-.11-.055-.11-.22-.055-.275.055-.11.22-.11.33-.055.11.055.11.22.055.33-.11.055-.275.055-.33 0Zm.88-.11c-.11-.055-.11-.22-.055-.33.055-.11.22-.11.33-.055.11.055.11.22.055.33-.11.11-.275.11-.33.055Zm3.19 2.42c.11 0 .22.11.22.22s-.11.22-.22.22-.22-.11-.22-.22.11-.22.22-.22Zm.715-.22c-.11 0-.22-.11-.22-.22s.11-.22.22-.22.22.11.22.22-.11.22-.22.22Zm.605-.605c-.11 0-.22-.11-.22-.22s.11-.22.22-.22.22.11.22.22-.11.22-.22.22Zm4.07.055c.11-.055.22-.055.33.055.055.11.055.22-.055.33-.11.055-.22.055-.33-.055-.055-.11-.055-.275.055-.33Zm.11-.605c-.055-.11-.055-.22.055-.33.11-.055.22-.055.33.055.055.11.055.22-.055.33-.11.055-.275.055-.33-.055Zm.44-.825c-.11.055-.22.055-.33-.055-.055-.11-.055-.22.055-.33.11-.055.22-.055.33.055.055.11.055.22-.055.33Zm3.465-2.09a.302.302 0 0 1-.165-.275.302.302 0 0 1 .275-.165c.11.055.165.165.165.275-.055.165-.165.22-.275.165Zm-.275-1.21c.11.055.165.165.165.275a.302.302 0 0 1-.275.165.302.302 0 0 1-.165-.275c.055-.165.165-.22.275-.165Zm-.385-.825c.11.055.165.165.165.275a.302.302 0 0 1-.275.165.302.302 0 0 1-.165-.275c0-.165.165-.22.275-.165Zm-.715-8.745c.11.055.11.22.055.33-.055.11-.22.11-.33.055-.11-.055-.11-.22-.055-.33.11-.11.22-.11.33-.055Zm-5.005-2.145c-.11 0-.22-.11-.22-.22s.11-.22.22-.22.22.11.22.22-.11.22-.22.22Zm-.715.605c-.11 0-.22-.11-.22-.22s.11-.22.22-.22.22.11.22.22-.055.22-.22.22Zm-.605.22c.11 0 .22.11.22.22s-.11.22-.22.22-.22-.11-.22-.22c0-.165.11-.22.22-.22Zm33.22 16.72c-.55-.605-.935-1.485-1.32-2.75l-.495-.055c.44 1.485.99 2.31 1.815 2.805Zm53.295-33.495-.11-.22c-.495-.495-.99-.825-1.54-.99l-.275.165c.66.22 1.32.55 1.925 1.045Zm11.99 24.42c.055-.11.055-.22.11-.33l-9.405-20.57-.22.11 9.515 20.79Zm2.86.55c-.165.385-.55.66-.99.605-.55-.055-.935-.495-.935-.99-.055.11-.055.165-.055.275 0 .55.385.99.935 1.045a.955.955 0 0 0 1.045-.935Zm-.66 4.235-1.155-2.53c.11.055.22.11.33.11l1.045 2.31c.165.385.495.605.88.605h.055c.165 0 .275 0 .44-.11l-1.32-2.86c.44-.165.825-.495 1.045-.88l1.045 2.255c.055.165.11.33.11.495 0 .165 0 .33-.11.495-.055.055-.055.165-.11.22-.11.22-.33.385-.55.495-.055 0-.11.055-.11.055h-.495c-.44.055-.88-.22-1.1-.66Zm-9.185-16.94c.385.33.715.66 1.045.99l1.595 3.465s-.055 0-.055.055c-1.43-1.155-2.915-2.365-4.07-3.3.44-.44.935-.825 1.485-1.21Zm.33-.22c.055 0 .11-.055.165-.11l.165.385c-.165-.055-.22-.165-.33-.275Zm4.015-1.87c0 .11.055.275.055.385l-.165-.33c.055-.055.11-.055.11-.055Zm3.74 4.895c-.495.055-.99.11-1.485.22l-1.65-3.63c-.055-.495-.11-1.045-.22-1.595.605-.165 1.265-.275 1.925-.385.55 2.145 1.045 3.905 1.43 5.39Zm-.33 2.805c.495-.055.99-.11 1.485-.055 1.925.11 3.63.935 4.95 2.365 1.265 1.43 1.925 3.245 1.815 5.115-.11 1.925-.935 3.63-2.365 4.95-1.32 1.21-3.025 1.815-4.785 1.815h-.385c-1.925-.11-3.63-.935-4.95-2.365-1.265-1.43-1.925-3.245-1.815-5.115 0-.495.11-.99.22-1.485-.605-.275-1.375-.825-1.925-1.265-.275.825-.495 1.76-.55 2.64-.11 2.475.715 4.895 2.42 6.71 1.65 1.87 3.96 2.915 6.435 3.08 2.475.11 4.895-.715 6.71-2.42 1.87-1.65 2.915-3.96 3.08-6.435.275-5.17-3.74-9.515-8.855-9.79-.88-.055-1.705.055-2.53.22l1.045 2.035Zm4.675 11.055v-.22l.275-.275c.33-.385.605-.825.825-1.265.22-.495.33-.99.44-1.485a7.207 7.207 0 0 0 0-1.54c-.11-.495-.22-.99-.44-1.485-.22-.44-.495-.88-.88-1.265a5.002 5.002 0 0 0-1.155-.99c-.44-.275-.935-.44-1.43-.605a6.958 6.958 0 0 0-1.54-.165l-.11-.22h.11c.55 0 1.1.055 1.595.165.495.165 1.045.33 1.485.605.44.275.88.605 1.265.99.33.385.66.88.88 1.32.22.495.385.99.44 1.54a7.73 7.73 0 0 1 0 1.595c-.11.55-.22 1.045-.495 1.54-.22.495-.55.935-.88 1.32-.055.22-.22.33-.385.44Zm-7.92-7.26a1.2 1.2 0 0 1 .22-.275l.055.165c-.055.055-.11.165-.22.22-.33.385-.55.88-.77 1.375-.165.495-.275.99-.33 1.54 0-.55.11-1.045.275-1.54.22-.55.495-1.045.77-1.485Zm-7.59-6.49c.385-.495.825-.99 1.32-1.43 1.54 1.265 2.915 2.365 4.07 3.3-.55.495-1.21 1.265-1.76 1.98-1.1-1.1-2.255-2.365-3.63-3.85Zm12.045-.11h-.495c-.495-1.925-1.045-3.85-1.485-5.445.55-.055 1.1-.11 1.65-.11h.275c.275 1.485.55 2.805.77 4.015-.22.495-.495 1.045-.715 1.54Zm1.76 3.96-.33.165a26.31 26.31 0 0 0-.88-.165c0-.055-.055-.165-.055-.22.055-.165.165-.275.22-.44.33.055.605.11.88.165.11.165.11.33.165.495Zm.55-.275c-.055.055-.11.055-.165.11 0-.055 0-.11-.055-.165.055 0 .11.055.22.055Zm1.21 1.375s-.055 0-.055.055a8.754 8.754 0 0 0-1.21-.715c0-.055-.055-.165-.055-.22.165-.11.385-.165.55-.275.33.165.66.385.99.605-.11.165-.165.385-.22.55Zm.605-.275c-.055 0-.11.055-.165.055 0-.055.055-.11.055-.165l.11.11Zm1.375 1.595c-.165 0-.33-.055-.44-.055.055-.11.11-.22.165-.385.11.165.22.275.275.44Zm.66 1.32a3.7 3.7 0 0 1-.605.385 6.75 6.75 0 0 0-.66-1.43c.275.055.55.11.88.11.11.33.275.66.385.935Zm.165.66c-.11-.055-.22-.055-.385-.055.11-.055.22-.11.275-.22.055.11.11.165.11.275Zm.165 1.045c-.22.11-.44.275-.66.385 0-.385-.055-.77-.11-1.155.22.055.495.11.715.165 0 .165.055.385.055.605Zm0 .77c0 .11 0 .275-.055.385l-.495-.495c.165-.11.33-.22.55-.275v.385Zm-.33 1.705c-.275 0-.495 0-.715-.055a6.25 6.25 0 0 0 .33-1.375c.22.165.385.385.605.605-.055.275-.11.55-.22.825Zm-.275.715c-.11-.11-.22-.275-.385-.385h.495a.795.795 0 0 1-.11.385Zm-.44.825c-.275-.055-.55-.055-.77-.11.22-.275.385-.605.55-.935.165.165.33.33.495.55-.11.22-.165.33-.275.495Zm-.825 1.045c-.055-.275-.11-.55-.11-.77.22.055.495.055.715.11-.22.22-.385.44-.605.66Zm-1.485.33c.385-.22.715-.495.99-.825.055.275.11.55.11.825-.22.165-.385.33-.605.495-.165-.165-.385-.33-.495-.495 0 0-.055.055 0 0Zm-9.735-5.72c-.055 0-.055.055-.11.055v-.11c.055 0 .11.055.11.055Zm0 1.815c0 .055 0 .055 0 0-.055.055-.055 0 0 0Zm1.1 1.65c-.22-.055-.44-.055-.66-.11a3.65 3.65 0 0 1-.33-1.1l.495-.33h.165c.11.495.275.935.44 1.375-.055.055-.11.11-.11.165Zm-.165.33c-.055.11-.11.22-.165.275l-.165-.33c.11 0 .22.055.33.055Zm1.21.99c-.22.11-.44.22-.66.275-.165-.22-.33-.385-.495-.605.11-.22.22-.44.275-.605h.165c.22.33.44.66.715.935Zm1.54 1.21c-.22.11-.44.22-.715.385a4.153 4.153 0 0 1-.77-.605c.11-.22.165-.495.275-.715.385.385.77.715 1.21.935Zm.165.33c.055.165.055.385.11.55-.22-.11-.44-.165-.605-.275.165-.11.33-.165.495-.275Zm1.485.275c-.11.22-.22.385-.33.605-.22-.055-.385-.11-.605-.165-.055-.275-.11-.55-.165-.77.33.11.715.22 1.1.33Zm.275.275c.055.165.055.275.11.44-.11 0-.22 0-.33-.055.055-.11.165-.22.22-.385Zm2.145-.22.495.495c-.275.055-.55.165-.88.165.165-.22.275-.44.385-.66Zm-1.54-.55h.385-.385Zm2.915.165c0 .165.055.33.055.495-.165.055-.33.165-.495.22-.165-.165-.275-.275-.44-.385.22 0 .44-.055.605-.165.11-.055.165-.11.275-.165Zm.33-.165c.165.11.275.22.44.33-.11.055-.22.11-.385.22 0-.22 0-.385-.055-.55Zm-3.3 1.265s-.055 0 0 0a5.108 5.108 0 0 1-.22-.715h.275c.385 0 .77 0 1.155-.055-.11.22-.22.495-.385.715-.275.055-.55.055-.825.055Zm-4.29-1.87c-.055-.055-.11-.11-.11-.165.055-.055.165-.055.22-.11a.42.42 0 0 1-.11.275Zm-1.98-4.07a2.665 2.665 0 0 1 0-.935c.165-.055.275-.165.385-.22l.275.275c0 .33 0 .605.055.88-.055.055-.11.055-.165.11-.165-.055-.33-.055-.55-.11Zm.99-3.08.165.165c-.165.385-.275.77-.33 1.155l-.33.165-.33-.33c0-.11.055-.22.055-.33.165.055.22.055.275 0 .11-.11.275-.44.495-.825Zm1.1-1.485h.055l-.055.055v-.055Zm-6.38-1.21c-1.265-.165-2.475-.33-3.465-.44.275-.715.605-1.375.935-2.035.66.66 1.54 1.54 2.53 2.475Zm1.485.99-.44-.44c.22 0 .385.055.605.055-.055.165-.11.275-.165.385Zm0 1.1c-1.98-.11-4.015-.22-5.61-.275.11-.66.33-1.265.495-1.87 1.485.22 2.86.385 4.015.495.385.385.825.77 1.21 1.21 0 .11-.055.275-.11.44Zm-.44 3.025c-1.485-.275-3.3-.66-5.445-1.045.055-.66.11-1.32.22-1.925 2.2.11 4.015.22 5.555.275a7.26 7.26 0 0 0-.33 2.145v.55Zm-5.5-.275v-.385c1.54.275 3.52.66 5.445 1.045 0 .22 0 .44.055.66-.44.275-.88.495-1.375.715-1.21-.165-2.585-.385-4.07-.605 0-.44-.055-.935-.055-1.43Zm.55 4.07c.88-.495 1.98-1.045 3.08-1.705a75.62 75.62 0 0 0-3.52-.495c.11.77.275 1.485.44 2.2Zm5.115-1.76c-.055-.165-.055-.385-.11-.55-.275.11-.495.275-.77.44.33.055.605.055.88.11Zm-4.29 3.905c-.275-.605-.495-1.155-.66-1.815 1.32-.715 2.53-1.375 3.575-1.98.495.055.99.165 1.54.22.055.165.11.385.165.55-1.705 1.155-3.3 2.2-4.62 3.025Zm1.1 2.09c-.33-.55-.66-1.1-.935-1.705 1.76-1.155 3.3-2.145 4.565-2.97.33.825.715 1.65 1.265 2.365-1.43.66-3.025 1.375-4.895 2.31Zm1.375 1.76a17.46 17.46 0 0 1-1.155-1.485c1.375-.66 3.135-1.485 4.84-2.255.165.22.33.385.495.55 0 0 0 .055.055.055-.165.385-.385.825-.55 1.21-1.1.55-2.31 1.21-3.685 1.925Zm1.87 1.815a14.75 14.75 0 0 1-1.65-1.54c.825-.44 1.925-.99 3.135-1.65-.495 1.155-1.045 2.255-1.485 3.19Zm2.64-4.675.33.33c-.22.11-.385.22-.605.33.055-.22.165-.44.275-.66Zm-.715 5.94c-.55-.33-1.1-.66-1.595-1.045.66-1.375 1.21-2.585 1.76-3.685.385-.22.77-.385 1.155-.605.165.165.385.33.55.44-.66 1.76-1.32 3.465-1.87 4.895Zm2.09.99c-.605-.22-1.21-.495-1.76-.825.715-1.87 1.32-3.52 1.87-4.895.715.495 1.54.88 2.42 1.155-.715 1.32-1.54 2.86-2.53 4.565Zm2.145.66c.66-1.375 1.32-2.64 1.815-3.685-.055-.385-.165-.715-.22-1.1a5.754 5.754 0 0 1-.935-.22c-.88 1.595-1.815 3.245-2.475 4.51.605.165 1.21.385 1.815.495Zm1.98-3.08a76.7 76.7 0 0 0 .66 3.41c-.77-.055-1.485-.11-2.2-.275.385-.825.935-1.925 1.54-3.135Zm.385-1.65c-.11 0-.22 0-.33-.055.055.165.055.33.11.495.055-.11.11-.275.22-.44Zm1.21.055h-.825c-.165.33-.33.66-.495 1.045.22 1.155.495 2.53.77 4.015h.275c.55 0 1.1-.055 1.65-.11-.44-1.43-.88-3.19-1.375-4.95Zm3.025-.495c.165 1.43.385 3.08.605 5.005-.605.165-1.265.275-1.925.385-.495-1.87-.935-3.52-1.32-4.895.935-.055 1.76-.22 2.64-.495Zm2.035.165c.22 1.21.44 2.53.715 4.07-.55.22-1.155.44-1.76.66-.165-1.43-.385-3.19-.605-5.005.33-.11.66-.275.935-.385.22.22.44.44.715.66Zm.44.44c.22 1.32.44 2.585.605 3.465.66-.33 1.32-.66 1.98-1.1-.77-.66-1.65-1.485-2.585-2.365Zm-.605-1.43c0 .11.055.275.055.385-.11-.11-.22-.165-.275-.275.055-.055.11-.055.22-.11Zm1.045-.77c1.375 1.1 2.805 2.255 3.905 3.135-.495.44-.99.825-1.485 1.21-1.1-1.045-2.09-1.98-2.97-2.805-.055-.33-.11-.715-.165-1.045.22-.11.495-.275.715-.495Zm2.09-2.145c.99 1.045 2.09 2.255 3.41 3.685-.385.495-.825.99-1.32 1.43-1.485-1.21-2.805-2.255-3.905-3.135.11-.055.165-.165.275-.22.605-.55 1.1-1.155 1.54-1.76Zm1.76-1.1c.88.825 1.87 1.815 2.97 2.915-.33.55-.66 1.045-1.045 1.54-.99-1.045-2.2-2.365-3.465-3.685.165-.275.33-.55.495-.88.33.055.66.055 1.045.11Zm.605.11c.99.935 1.87 1.815 2.53 2.475.385-.66.66-1.32.935-2.035-1.045-.165-2.2-.275-3.465-.44Zm-1.375-.825.33.33c-.165 0-.275-.055-.44-.055 0-.11.055-.22.11-.275Zm.385-1.21c1.815.11 3.63.165 5.06.275-.11.605-.33 1.265-.495 1.87-1.54-.22-2.86-.385-4.07-.495l-.77-.77c.11-.33.22-.605.275-.88Zm.33-3.025v.935c-.055.605-.11 1.155-.22 1.705 1.43.055 3.135.165 5.06.275.11-.605.22-1.265.22-1.925-1.98-.385-3.63-.715-5.06-.99Zm5.06.165v.385c-1.43-.275-3.245-.605-5.06-.99 0-.33-.055-.605-.11-.88.33-.22.715-.385 1.045-.55 1.21.165 2.585.385 4.07.605.055.495.055.99.055 1.43Zm-.55-4.015c-.88.495-1.98 1.1-3.08 1.705 1.32.22 2.585.385 3.52.495-.055-.77-.22-1.485-.44-2.2Zm-4.785 1.815c.22 0 .385.055.605.11-.165.11-.33.165-.495.275-.055-.165-.11-.275-.11-.385Zm4.015-3.96c.275.605.495 1.155.66 1.815-1.32.715-2.53 1.375-3.575 1.98-.44-.055-.825-.11-1.265-.165-.055-.22-.165-.495-.22-.715a75.122 75.122 0 0 1 4.4-2.915Zm-1.1-2.09c.33.55.66 1.1.99 1.705-1.705 1.1-3.135 2.035-4.4 2.86a12.2 12.2 0 0 0-1.375-2.31c1.265-.605 2.86-1.32 4.785-2.255Zm-1.375-1.76c.385.44.77.935 1.155 1.485-1.375.66-3.135 1.485-4.895 2.255-.165-.165-.33-.385-.55-.55.22-.44.385-.825.605-1.265 1.1-.55 2.31-1.21 3.685-1.925Zm-1.925-1.815c.605.44 1.155.99 1.65 1.54-.825.44-1.925.99-3.135 1.65.55-1.155 1.045-2.255 1.485-3.19Zm-3.025 4.4c.22-.11.495-.275.715-.385-.11.22-.22.495-.33.715-.11-.11-.22-.22-.385-.33Zm1.155-5.665c.55.33 1.1.66 1.595 1.045-.66 1.375-1.21 2.585-1.76 3.685l-1.32.66-.495-.33c.715-1.76 1.43-3.63 1.98-5.06Zm-2.09-.99c.605.22 1.21.495 1.76.825-.77 1.98-1.375 3.685-1.925 5.06-.77-.44-1.595-.825-2.475-1.045.66-1.375 1.54-2.97 2.64-4.84Zm-4.29 3.63c-.165.33-.33.605-.44.88.22 0 .44.055.605.055-.055-.33-.11-.605-.165-.935Zm1.76-4.345c-.715-.165-1.485-.22-2.2-.275.165.99.44 2.2.66 3.465.55-1.265 1.1-2.365 1.54-3.19Zm.385.055c-.66 1.375-1.32 2.64-1.815 3.74.11.495.22 1.045.275 1.54.22.055.44.055.66.11.935-1.76 1.925-3.52 2.695-4.895-.605-.165-1.21-.385-1.815-.495Zm-16.335 7.095c.33-.55.66-1.045 1.045-1.54 1.045 1.1 2.31 2.475 3.575 3.85-.165.275-.33.495-.44.715-.385-.055-.825-.11-1.21-.165-.88-.825-1.815-1.76-2.97-2.86Zm8.415 4.51c-.11.22-.275.385-.385.605h-.165c.165-.275.33-.55.55-.825v.22Zm9.515-.165c-.22-.33-.495-.605-.825-.88v-.055c.22-.11.385-.22.66-.275l.385.385c.055.055.11.165.165.22-.11.22-.22.44-.275.66-.055-.055-.055-.055-.11-.055Zm-4.565-2.31h-.66l-.275-.66c.275-.055.55-.055.88-.055h.11c.055.165.11.33.11.44-.11.11-.165.165-.165.275Zm-11.55-6.05c-1.485 1.43-2.75 3.19-3.575 5.115a16.877 16.877 0 0 0-1.485 6.16c-.11-1.65.11-3.355.55-5.005a16.175 16.175 0 0 0-.935 5.445c0 9.185 7.48 16.72 16.665 16.72 9.185 0 16.665-7.48 16.665-16.72 0-1.925-.33-3.74-.935-5.445.44 1.65.66 3.355.55 5.06a16.877 16.877 0 0 0-1.485-6.16 17.496 17.496 0 0 0-3.575-5.115C169.07 99.55 165 97.9 160.875 97.9c-1.65 0-3.3.275-4.84.77l.11.275c1.485-.44 3.08-.715 4.73-.715 8.745 0 15.895 7.095 15.895 15.895 0 8.745-7.095 15.895-15.895 15.895-8.745 0-15.895-7.095-15.895-15.895 0-5.61 2.915-10.56 7.37-13.365l-.165-.33c-.88.55-1.76 1.21-2.53 1.98Zm-6.545 11.66c0-6.38 3.41-11.99 8.47-15.125l.055.165a17.56 17.56 0 0 0-8.36 14.96c0 9.68 7.865 17.6 17.6 17.6 9.68 0 17.6-7.865 17.6-17.6 0-9.68-7.92-17.6-17.6-17.6-1.87 0-3.74.33-5.445.88l-.055-.165c1.76-.55 3.575-.88 5.5-.88 9.79 0 17.765 7.975 17.765 17.765 0 9.79-7.975 17.765-17.765 17.765-9.79.055-17.765-7.92-17.765-17.765Zm-1.265 0c0-6.875 3.685-12.925 9.185-16.28l.385.88c-5.17 3.19-8.635 8.91-8.635 15.4 0 9.955 8.14 18.095 18.095 18.095 9.955 0 18.095-8.085 18.095-18.095 0-9.955-8.085-18.095-18.095-18.095-1.98 0-3.85.33-5.665.935l-.385-.88c1.925-.66 3.96-.99 6.05-.99 10.505 0 19.03 8.525 19.03 19.03s-8.525 19.03-19.03 19.03c-10.505.055-19.03-8.525-19.03-19.03Zm6.875-16.445c.55-.385 1.1-.77 1.705-1.155l.44.935a22.802 22.802 0 0 0-2.365 1.65c-.165-.33-.11-.88.22-1.43Zm-2.64 2.365c.66-.715 1.43-1.375 2.2-1.98-.165.495-.11.935.055 1.265-.77.66-1.54 1.375-2.2 2.2-.275-.33-.33-.88-.055-1.485Zm-2.255 2.805a18.654 18.654 0 0 1 1.815-2.31c-.055.495 0 .935.275 1.21-.66.77-1.265 1.65-1.76 2.53-.33-.33-.44-.825-.33-1.43Zm-3.41 11.275v-.66c.275.44.605.715.99.77 0 1.045.11 2.09.275 3.08-.165 0-.385-.11-.55-.22a19.52 19.52 0 0 1-.33-2.585 14.687 14.687 0 0 0 0 2.2c-.055-.11-.165-.22-.22-.33a15.003 15.003 0 0 1-.165-2.255Zm40.975 0c0-.77-.055-1.54-.11-2.255-.33-.605-.77-.88-1.155-.935.165.99.275 2.035.275 3.08.385.055.715.33.99.77v-.66Zm-5.665-12.595c-.66-.77-1.375-1.54-2.2-2.2.33-.22.825-.275 1.43-.055.715.66 1.375 1.43 1.98 2.2a1.52 1.52 0 0 0-1.21.055Zm1.98 2.75c-.495-.88-1.1-1.76-1.76-2.53.33-.165.88-.11 1.43.22.605.77 1.1 1.595 1.595 2.475-.495-.22-.935-.275-1.265-.165Zm1.485 3.08c.385-.055.77.055 1.21.385-.33-.935-.66-1.87-1.1-2.75-.495-.44-.99-.605-1.375-.495.44.935.88 1.925 1.265 2.86Zm.88 3.3c.385 0 .77.22 1.1.605-.165-.99-.33-1.925-.605-2.86-.44-.495-.88-.77-1.265-.715.33.935.55 1.925.77 2.97Zm.495 7.095a.855.855 0 0 0-.44-.33c.165-.99.275-2.035.275-3.08.22.055.44.22.605.44-.11.99-.22 1.98-.44 2.97Zm-.99 3.245c.385-.935.66-1.925.935-2.915-.11-.165-.275-.33-.44-.385-.22 1.045-.44 2.035-.825 2.97l.33.33Zm-1.54 3.08c.385-.66.77-1.32 1.045-1.98.11-.22.22-.495.33-.77a.563.563 0 0 0-.275-.33 21.91 21.91 0 0 1-1.32 2.805c.11.055.165.165.22.275Zm-1.98 2.75c-.055-.11-.11-.165-.165-.275.66-.77 1.265-1.65 1.76-2.53a1.2 1.2 0 0 1 .22.275c-.55.935-1.155 1.76-1.815 2.53Zm-2.475 2.365c0-.11-.055-.165-.11-.22.77-.66 1.54-1.375 2.2-2.2a.42.42 0 0 1 .11.275c-.385.44-.77.825-1.155 1.21-.33.33-.66.66-1.045.935Zm-2.805 1.98c0-.055 0-.165-.055-.22.88-.495 1.76-1.1 2.53-1.76.055.055.055.165.055.22-.77.66-1.595 1.265-2.53 1.76Zm-3.08 1.43c.22-.055.385-.165.605-.22.77-.275 1.485-.66 2.2-1.045 0-.055 0-.165-.055-.22a21.91 21.91 0 0 1-2.805 1.32c.055.055.055.11.055.165Zm-3.3.715v.165c1.045-.165 2.035-.44 3.025-.77v-.22c-.99.385-1.98.66-3.025.825Zm-3.355.33c0 .055-.055.11-.055.165 1.045 0 2.09-.11 3.08-.275 0-.055.055-.11.055-.165-1.045.165-2.035.275-3.08.275Zm-3.41-.275c0 .055-.055.11-.055.165 1.045.165 2.035.275 3.08.275.055-.055.055-.11.055-.165-1.045 0-2.09-.11-3.08-.275Zm-3.3-.88c-.055.055-.055.11-.11.165.99.33 1.98.605 3.025.825.055-.055.055-.11.11-.165a27.196 27.196 0 0 1-3.025-.825Zm-3.08-1.43-.165.165c.77.44 1.595.825 2.42 1.155.165.055.275.11.44.165.055-.055.11-.11.11-.165-.99-.33-1.925-.77-2.805-1.32Zm-2.805-1.925c.77.66 1.65 1.265 2.53 1.76l-.165.165c-.22-.165-.44-.275-.66-.44-.275-.165-.495-.385-.77-.55l-.77-.55-.33-.275c.055 0 .11-.055.165-.11Zm-2.365-2.365c.66.77 1.375 1.54 2.2 2.2a.417.417 0 0 1-.22.11l-.165-.165-.715-.66c-.495-.44-.935-.935-1.375-1.43.055 0 .165 0 .275-.055Zm-1.98-2.805c.55.88 1.1 1.76 1.76 2.53-.11.055-.165.055-.275.055-.33-.385-.66-.77-.935-1.21-.33-.44-.605-.88-.88-1.32.11.055.22 0 .33-.055Zm-1.485-3.025h-.165c-.11 0-.165 0-.275-.055l.495 1.155c.275.55.55 1.155.88 1.65h.385a25.246 25.246 0 0 1-1.32-2.75Zm38.17-1.98c0 .055-.055.165-.055.22.055-.055.055-.11.055-.22Zm.55-3.52a2.033 2.033 0 0 0-.275-.605c.055 1.155 0 2.255-.165 3.41 0 .055.055.055.055.11.165-.935.33-1.925.385-2.915Zm-40.7 1.595.165.165c.055.66.165 1.32.275 1.98-.22-.715-.33-1.43-.44-2.145Zm1.1.605c.165 1.045.44 2.035.825 2.97-.165 0-.33 0-.44-.055-.385-.99-.66-2.035-.88-3.08.11.11.33.165.495.165Zm-.88-7.7c.165.495.495.825.825.935-.165.99-.275 2.035-.275 3.08-.385-.11-.77-.495-.935-1.1.055-.99.165-1.98.385-2.915Zm1.045-3.41c.11.495.33.88.66 1.1-.33.99-.605 1.98-.825 2.97-.33-.165-.66-.605-.77-1.265.275-.99.55-1.925.935-2.805Zm.22-.605c.385-.88.825-1.76 1.375-2.585 0 .495.165.935.44 1.155a21.91 21.91 0 0 0-1.32 2.805c-.275-.22-.495-.715-.495-1.375Zm30.085-8.855c.825.55 1.595 1.155 2.31 1.815-.495-.055-.935.055-1.21.275-.77-.66-1.65-1.265-2.53-1.76.275-.33.825-.44 1.43-.33Zm-8.03-2.145c.165-.33.44-.66.935-.825-.935-.22-1.925-.33-2.915-.385-.605.22-.99.55-1.1.935 1.045 0 2.035.11 3.08.275Zm3.245.88c.22-.33.55-.55 1.1-.66-.88-.385-1.815-.66-2.805-.88-.66.11-1.1.385-1.265.77 1.045.165 2.035.385 2.97.77Zm3.135 1.43c.22-.275.66-.44 1.155-.44-.825-.495-1.705-.99-2.585-1.375-.66 0-1.155.22-1.375.495.935.33 1.87.77 2.805 1.32ZM158.62 93.72c.77-.055 1.485-.11 2.255-.11h.66c-.44.275-.715.605-.77.99-1.045 0-2.09.11-3.08.275.055-.385.385-.825.935-1.155Zm-4.29 1.21-.055-.165c.11-.055.165-.055.275-.11-.11.055-.165.165-.22.275Zm3.08 0a16.88 16.88 0 0 0-2.75.715l-.165-.385c.11-.275.33-.55.66-.825.935-.275 1.87-.495 2.86-.605-.385.33-.605.715-.605 1.1Zm2.035 19.36c-.055-.44.165-.88.495-1.21.33-.33.825-.495 1.265-.495.495 0 .935.22 1.21.605.275.33.44.825.33 1.265-.055-.44-.22-.825-.495-1.1-.275-.275-.66-.44-1.1-.495-.385 0-.825.11-1.1.385-.33.22-.55.605-.605 1.045Zm-7.315-22.33-1.155.495 9.24 20.185c.33-.165.66-.275 1.045-.22.11 0 .22 0 .275.055L152.13 91.96Zm-4.455-9.68 4.125 8.965-1.155.495-4.07-8.965 1.1-.495Zm-3.3-7.26c-.11.495-.385.99-.715 1.54l2.53 5.5 1.155-.495-2.97-6.545ZM72.05 95.645c.44.495.825.935 1.32 1.32a7.671 7.671 0 0 0-1.155-1.485c-.44-.495-.825-.935-1.32-1.32.33.495.715.99 1.155 1.485ZM40.095 114.07c0 .77.055 1.54.11 2.255.055.11.11.22.22.33a14.682 14.682 0 0 1 0-2.2c.055.88.165 1.76.33 2.585.165.165.385.22.55.22a18.864 18.864 0 0 1-.275-3.08c-.385-.055-.715-.33-.99-.77.055.22.055.44.055.66ZM145.53 83.215l4.125 8.965-.22.11-4.07-8.965.165-.11Zm-2.75-5.39c.055-.055.11-.165.165-.22L145.2 82.5l-.22.11-2.2-4.785Zm-70.51 16.39-.11.165-.165-.22.11-.165.165.22Zm.935 1.045-.11.165-.165-.22.11-.165.165.22Zm.77 2.2c3.355 2.75 5.94 6.49 7.15 10.725h4.84c-.66-2.585-1.265-4.07-1.65-4.785-1.485-.88-2.805-1.925-3.41-2.365-1.155-.935-3.41-2.97-4.455-4.95-.44-.275-.88-.495-1.375-.77 0 .22-.055.495-.275.66-.165.11-.33.22-.55.22-.22 0-.44-.11-.605-.275v-.055l-.11.165.33.385c.33.33.33.715.11 1.045Zm-2.805-1.485-.165-.22.11-.165.165.22-.11.165ZM58.3 93.72c-.605.33-.88.77-.935 1.155.99-.165 2.035-.275 3.08-.275.055-.385.33-.715.77-.99h-.66c-.77 0-1.485.055-2.255.11Zm-16.555 26.785c.165.055.33.11.44.055-.33-.99-.605-1.98-.825-2.97-.165 0-.385-.055-.55-.165.275 1.1.55 2.09.935 3.08Zm19.855-7.26-.715 1.155a.5.5 0 0 1-.44.22c-.11 0-.22 0-.275-.055a.371.371 0 0 1-.22-.33c-.055-.11 0-.275.055-.385l.385-.605h-.33l-.275.44a.676.676 0 0 0-.055.715c.055.11.165.275.275.33.11.055.275.11.44.11h.11c.055 0 .11 0 .165-.055.11-.055.22-.11.33-.22l.055-.055.825-1.265h-.33Zm80.85-34.265c-.165.99-.44 1.815-.66 2.475h.275l.275-.88c.11-.33.275-.605.495-.77l-.385-.825Zm1.1-5.335c.165.11.22.44.165.715-.055.825-.605 1.815-1.375 2.805a3.693 3.693 0 0 0-.935-1.21c.165-.22.275-.44.44-.66.165-.275.33-.55.44-.88.11-.22.165-.44.22-.66.385-.165.825-.275 1.045-.11Zm-16.39 15.95-2.42-.055c-1.595 0-3.19 0-4.785-.055-1.595 0-3.19 0-4.785.055l-2.42.055c-.825 0-1.595.055-2.42.055.825.055 1.595.055 2.42.055l2.42.055c1.595 0 3.19 0 4.785.055 1.595 0 3.19 0 4.785-.055l2.42-.055c.825 0 1.595-.055 2.42-.055-.77 0-1.595-.055-2.42-.055ZM74.965 90.86c.44.495.825.935 1.32 1.32a7.671 7.671 0 0 0-1.155-1.485c-.44-.44-.88-.935-1.375-1.32.385.55.77.99 1.21 1.485Zm-.99 1.595c-.44-.495-.825-.935-1.155-1.485.495.385.935.88 1.32 1.32.385.495.825.935 1.155 1.485-.44-.385-.88-.88-1.32-1.32Zm-.77 1.43c.385.495.825.935 1.155 1.485-.495-.385-.935-.88-1.32-1.32-.44-.495-.825-.99-1.155-1.485.44.385.88.825 1.32 1.32Zm14.19 14.3h-.66c-.495-1.925-.935-3.245-1.32-4.18.055.055.11.055.22.11a29.846 29.846 0 0 1 1.76 4.07ZM71.885 96.8l.11-.165.165.22-.11.165-.165-.22Zm-1.98-1.1c.495.385.935.88 1.375 1.32.385.495.825.935 1.155 1.485-.495-.385-.935-.88-1.32-1.32a6.233 6.233 0 0 1-1.21-1.485Zm-4.51-1.485c-.66.11-1.1.385-1.265.77 1.045.165 2.035.44 2.97.825.22-.33.55-.55 1.1-.66-.88-.44-1.815-.715-2.805-.935Zm-23.045 27.83c.275.55.55 1.155.88 1.65h.385a21.91 21.91 0 0 1-1.32-2.805h-.165c-.11 0-.165 0-.275-.055.165.44.33.825.495 1.21Zm1.43 1.87c-.11.055-.22.055-.33.055.275.44.55.935.88 1.32.275.44.605.825.935 1.21.11 0 .22-.055.275-.055-.66-.77-1.265-1.595-1.76-2.53Zm3.025 4.345.715.66.165.165c.11-.055.165-.055.22-.11-.77-.66-1.485-1.43-2.2-2.2-.11.055-.165.055-.275.11l1.375 1.375Zm2.97 2.31c.22.165.44.275.66.44l.165-.165c-.88-.55-1.705-1.1-2.53-1.76-.055.055-.11.11-.22.11l.33.275.77.55c.33.22.605.385.825.55Zm7.15 2.86c.055-.055.055-.11.11-.165a13.163 13.163 0 0 1-2.97-.825c-.055.055-.055.11-.11.165.935.33 1.925.605 2.97.825Zm3.41.33c0-.055.055-.11.055-.165-1.045 0-2.09-.11-3.08-.275 0 .055-.055.11-.055.165.99.165 2.035.275 3.08.275Zm3.41-.275c0-.055.055-.11.055-.165-.99.165-2.035.275-3.08.275 0 .055-.055.11-.055.165.99 0 2.035-.11 3.08-.275Zm9.185-4.345c-.77.66-1.65 1.265-2.53 1.76 0 .055.055.165.055.22.88-.495 1.76-1.1 2.53-1.76 0-.055 0-.165-.055-.22Zm4.785-5.115c.385-.66.77-1.32 1.045-1.98.11-.22.22-.495.33-.77a.563.563 0 0 0-.275-.33 21.91 21.91 0 0 1-1.32 2.805c.11.055.165.165.22.275Zm1.65-4.675.44.055c-.165.55-.33 1.045-.55 1.595-.11-.11-.22-.22-.33-.275.165-.495.275-.935.44-1.375Zm-13.97-3.355c-.22.495-.44.935-.77 1.32s-.715.77-1.155 1.045c-.44.275-.88.495-1.375.715-.495.165-1.045.22-1.54.275.495 0 1.045-.055 1.54-.22a6.75 6.75 0 0 0 1.43-.66c.44-.275.825-.66 1.21-1.045.33-.385.605-.88.825-1.375l.165-.495h-.22c-.055.165-.11.275-.11.44Zm30.525-.715v-.715c-.055 0-.11-.055-.165-.055v.825c0 .66.055 1.265.055 1.925.11-.715.11-1.32.11-1.98Zm43.505-33.935 1.54.055c.22-.55.495-1.265.66-2.2-.77.77-1.54 1.485-2.2 2.145Zm-3.52.605c-.165-.165-.275-.44-.33-.715.33.055.66.11.825.275.165.165.22.44.22.715-.22-.055-.55-.11-.715-.275ZM104.94 92.29l2.42-.88s.77-.275 1.705-.605h-.165c-1.265 0-2.42-.055-3.41-.22-.165.55-.33 1.1-.55 1.705Zm-30.085-.22.11-.165.165.22-.11.165-.165-.22Zm3.3 2.695c-.055.33.055.66.11.935.11.33.22.605.385.935.275.605.66 1.1 1.1 1.65.275.33.55.66.88.99-2.035-1.815-3.52-3.795-3.52-5.005 0-2.365 5.39-2.585 11.385-2.585h3.96c7.425 0 7.59.275 7.59 2.53 0 1.815-.275 3.3-.77 4.455 0-.055 0-.11.055-.11.11-.66.165-1.32.165-1.925 0-.66-.055-1.265-.11-1.925-.165 1.265-.33 2.53-.715 3.685-.11.33-.22.66-.385.99.11-1.045.165-2.42.165-4.235 0-1.87-.165-2.09-6.16-2.09s-12.43-.275-12.43 2.09c0 1.155 1.155 3.08 3.135 4.73a24.954 24.954 0 0 1-2.64-2.145c-.44-.44-.88-.88-1.265-1.375-.165-.275-.385-.495-.495-.77-.275-.22-.44-.495-.44-.825Zm10.89 11.11 1.265.055c.825 0 1.705.055 2.53.055.825 0 1.705 0 2.53-.055l1.265-.055c.44 0 .825-.055 1.265-.055-.44-.055-.825-.055-1.265-.055l-1.265-.055c-.825 0-1.705 0-2.53-.055-.825 0-1.705 0-2.53.055l-1.265.055c-.44 0-.825.055-1.265.055.44.055.825.055 1.265.055Zm-.055 1.65c0-.275-.22-.44-.495-.44s-.44.22-.44.44c0 .275.22.44.44.44.33 0 .495-.22.495-.44Zm-11.66 1.54c-.11.55-.11 1.045-.11 1.54 0 .495 0 .99.11 1.485.055-.22.055-.44.055-.66h13.09c2.31 0 4.565.715 6.545 1.595l.88-1.65c-.935-.44-1.87-.77-2.805-1.045-1.705-.495-3.19-.77-4.565-.77H77.44c0-.11-.055-.275-.055-.385H90.53c2.75 0 5.335.825 7.535 1.87l.055-.11c-2.2-1.045-4.84-1.87-7.645-1.87H77.33Zm1.595-4.07c.44.88.825 1.76 1.1 2.75-.385-.33-.825-.44-1.21-.385a21.91 21.91 0 0 0-1.32-2.805c.44-.165.935 0 1.43.44Zm-1.87-3.025c.605.77 1.1 1.595 1.595 2.475-.44-.22-.88-.275-1.265-.165-.55-.88-1.1-1.76-1.76-2.53.33-.22.88-.165 1.43.22Zm-6.985-3.19c.44.44.88.935 1.32 1.32a7.671 7.671 0 0 0-1.155-1.485c-.44-.495-.88-.935-1.375-1.32.385.55.825 1.045 1.21 1.485Zm-9.515 32.89c-9.68 0-17.6-7.865-17.6-17.6 0-9.68 7.92-17.6 17.6-17.6 2.585 0 5.06.55 7.315 1.595.22 0 .44.055.605.22l.055-.11a17.73 17.73 0 0 0-7.975-1.87c-9.79 0-17.765 7.975-17.765 17.765 0 9.79 7.975 17.765 17.765 17.765 8.03 0 14.85-5.335 17.05-12.65h-.22c-2.2 7.26-8.91 12.485-16.83 12.485Zm0-1.705c-8.745 0-15.895-7.095-15.895-15.895 0-8.745 7.095-15.895 15.895-15.895 2.475 0 4.84.55 6.985 1.595l.11-.165-.275-.275c-2.145-.99-4.455-1.54-6.765-1.54-4.125 0-8.25 1.65-11.22 4.565-1.485 1.43-2.75 3.19-3.575 5.115a16.877 16.877 0 0 0-1.485 6.16c-.11-1.65.11-3.355.55-5.005a16.175 16.175 0 0 0-.935 5.445c0 9.185 7.48 16.72 16.665 16.72 7.425 0 13.75-4.895 15.895-11.66l-.825-.055c-2.145 6.325-8.085 10.89-15.125 10.89Zm3.135-10.835v-.11a7.87 7.87 0 0 0 .825-.605l.495.055c0 .11.055.275.055.385-.275.275-.605.495-.935.715-.165-.22-.275-.33-.44-.44Zm.055.605v-.055c.055 0 .055 0 0 .055.055 0 .055 0 0 0Zm-1.54.11c.055-.11.11-.165.11-.275.33-.11.605-.22.88-.385l.11.11c0 .165.055.385.055.605l-.825.33c-.055-.11-.22-.22-.33-.385Zm-.275.605c.055-.055.055-.165.11-.22l.165.165c-.11 0-.22 0-.275.055Zm-1.705-.55h.33c.385 0 .715-.055 1.045-.11l.165.165c-.11.165-.165.385-.275.55-.33.055-.605.055-.935.055h-.22a6.924 6.924 0 0 0-.165-.55c0-.055 0-.11.055-.11Zm18.92-11.715a2.681 2.681 0 0 0-.22-.605c.33 0 .77.165 1.155.605h-.935Zm-7.205-7.48c.055-.055.11-.11.11-.165 2.365 2.035 4.235 4.675 5.28 7.645h-.22c-1.045-2.915-2.805-5.5-5.17-7.48Zm-8.745 7.48h.33l4.84-7.7-.165-.22-5.005 7.92Zm8.085 10.78c1.265.165 2.475.33 3.465.44-.275.715-.55 1.375-.935 2.035-.66-.66-1.595-1.54-2.53-2.475Zm1.265 4.345c-1.045-1.155-2.42-2.585-3.74-4.015.11-.22.275-.385.385-.605.495.055.99.11 1.43.165.88.825 1.87 1.815 2.97 2.915-.275.495-.66 1.045-1.045 1.54Zm-1.54 1.705c-1.65-1.32-3.08-2.475-4.235-3.41.715-.55 1.32-1.265 1.815-1.98 1.045 1.1 2.255 2.42 3.74 3.96-.385.495-.825.99-1.32 1.43Zm-4.73-1.32c-.11-.495-.165-.99-.275-1.54.165-.11.33-.22.44-.33 1.54 1.21 3.025 2.475 4.29 3.465-.495.44-.99.825-1.485 1.21-1.1-1.045-2.09-1.98-2.97-2.805Zm-.44-.44c-.22-.22-.44-.385-.66-.605.165-.11.33-.165.495-.275.055.275.11.605.165.88Zm3.08 3.465c-.605.385-1.265.77-1.925 1.1-.165-.935-.385-2.145-.605-3.465.88.825 1.76 1.65 2.53 2.365Zm-4.07 1.87c-.22-1.54-.44-3.52-.66-5.445.22-.11.44-.165.66-.275.385.33.715.66 1.1 1.045.22 1.21.44 2.53.715 4.07-.605.22-1.21.44-1.815.605Zm-2.255.495c-.55-2.035-1.045-3.795-1.43-5.28.935-.055 1.815-.22 2.64-.55.165 1.485.385 3.3.66 5.445-.605.165-1.21.275-1.87.385Zm-3.025-3.85c.22-.44.44-.935.66-1.375h.605c.495 1.87.99 3.795 1.43 5.28-.55.055-1.1.11-1.65.11h-.275c-.33-1.54-.55-2.86-.77-4.015Zm-.165-.66-.165-.825c.165 0 .385.055.55.055-.11.275-.22.495-.385.77Zm-1.705 4.345c.44-.825.99-1.98 1.595-3.19a76.7 76.7 0 0 0 .66 3.41c-.77.055-1.54-.055-2.255-.22Zm-2.145-.55c.77-1.375 1.705-3.08 2.64-4.785.22.055.44.11.715.165.11.495.165.99.275 1.485-.55 1.1-1.155 2.31-1.815 3.685-.66-.165-1.265-.385-1.815-.55Zm-2.145-.99c.77-1.98 1.375-3.63 1.925-5.06.77.495 1.595.825 2.475 1.1a424.91 424.91 0 0 1-2.64 4.785c-.605-.22-1.21-.495-1.76-.825Zm-.22-4.895c.44-.22.88-.44 1.32-.715l.495.33c-.715 1.815-1.375 3.63-1.925 5.06-.55-.33-1.1-.66-1.595-1.045a95.82 95.82 0 0 0 1.705-3.63Zm.275-.55c.11-.275.22-.495.33-.715.11.11.275.22.385.33-.22.11-.44.22-.715.385Zm-2.31 4.015a14.75 14.75 0 0 1-1.65-1.54c.825-.44 1.925-.99 3.135-1.65-.495 1.155-1.045 2.255-1.485 3.19Zm-3.025-3.3c1.375-.66 3.135-1.485 4.895-2.31.165.165.33.385.495.55-.22.44-.385.88-.605 1.32-1.1.55-2.31 1.21-3.685 1.925-.385-.495-.77-.935-1.1-1.485Zm-1.21-1.98c1.76-1.155 3.245-2.09 4.455-2.915.33.825.825 1.595 1.375 2.31-1.375.66-2.97 1.375-4.895 2.31-.33-.55-.605-1.155-.935-1.705Zm2.75-4.125c.44.055.935.11 1.375.22.055.22.11.44.22.605a270.218 270.218 0 0 1-4.51 2.915c-.275-.605-.495-1.155-.66-1.815 1.375-.715 2.53-1.32 3.575-1.925Zm.55-.275.66-.33c.055.165.055.275.11.44-.275-.055-.495-.11-.77-.11Zm-4.785-2.585c1.485.275 3.355.66 5.225.99 0 .275.055.55.11.825l-1.155.66c-1.21-.165-2.585-.385-4.07-.605-.055-.495-.055-.99-.055-1.485-.055-.11-.055-.22-.055-.385Zm3.96-.44h1.265c0 .22-.055.495-.055.715v.385c-1.43-.275-3.19-.605-5.225-.99.055-.66.11-1.32.22-1.925.44 0 .88.055 1.32.055.385.99 1.375 1.76 2.475 1.76Zm27.28-.88H50.765c0-.055.055-.11.055-.11h25.85v.11Zm-22.385 1.21c-.11.055-.22.11-.385.22 0-.165 0-.385.055-.55l.33.33Zm.44 1.54c-.22-.055-.495-.11-.715-.165-.055-.22-.055-.495-.055-.77l.66-.33.055.055v.055c-.055.385 0 .77.055 1.155Zm-.44.275c-.055.055-.11.055-.165.11 0-.055-.055-.11-.055-.165.11.055.165.055.22.055Zm1.1 1.65c-.22-.055-.495-.055-.77-.11-.165-.33-.275-.66-.385-.99a3.7 3.7 0 0 1 .605-.385c.11.495.33.99.605 1.43-.055 0-.055 0-.055.055Zm-.165.33c-.055.11-.11.22-.165.275-.055-.11-.165-.22-.22-.33.11 0 .22.055.385.055Zm1.265.99c-.22.11-.385.165-.605.275-.165-.165-.385-.385-.55-.605.11-.22.165-.385.275-.605h.165c.22.275.44.605.715.825v.11Zm-.22.495c0 .055-.055.11-.055.11l-.055-.055c.055 0 .055-.055.11-.055Zm1.815.66c-.165.11-.385.22-.605.33a5.45 5.45 0 0 1-.935-.605c.055-.22.165-.385.22-.605.055 0 .055 0 .055-.055.385.275.77.55 1.21.77.055.055.055.11.055.165Zm.055.385c0 .055.055.165.055.22-.11-.055-.22-.055-.275-.11a.417.417 0 0 0 .22-.11Zm-3.465-6.655v.165l-.165-.165h.165Zm.495.715c0-.22 0-.495.055-.715h.055c-.055.22-.055.495-.11.715Zm-5.005-4.4h26.51v1.87H50.875c-.055-.385-.165-.88-.385-1.265a6 6 0 0 0-.33-.605Zm-.55-.495h27.005v.11h-26.84c-.055-.055-.11-.11-.165-.11Zm19.47-8.69c-.385-.495-.825-.99-1.155-1.485.495.385.935.88 1.32 1.32.385.495.825.935 1.155 1.485-.44-.385-.88-.825-1.32-1.32Zm-4.345 7.81h.33l4.18-6.655-.165-.22-4.345 6.875Zm-4.18-3.575a9.2 9.2 0 0 0-7.315 3.575h3.135c1.155-.88 2.64-1.375 4.18-1.375.825 0 1.595.165 2.365.385l1.21-1.925c-1.155-.385-2.365-.66-3.575-.66Zm5.39-4.62 1.155.495-2.75 4.4c-.275-.11-.605-.22-.935-.33.715-1.32 1.595-2.805 2.53-4.565Zm-2.09-.66c.605.11 1.21.33 1.76.495-.715 1.32-1.65 2.97-2.53 4.62-.275-.055-.55-.165-.88-.165-.055-.385-.165-.825-.22-1.21.55-1.1 1.155-2.365 1.87-3.74Zm-1.98 3.08c-.22-1.265-.44-2.42-.66-3.465.77.055 1.485.11 2.255.275l-1.595 3.19Zm-1.595 1.705c-.495-1.815-.99-3.575-1.375-5.06.55-.055 1.1-.11 1.65-.11h.275c.275 1.485.55 2.805.77 4.015-.165.385-.385.77-.55 1.155h-.77Zm-3.025.55c-.165-1.43-.385-3.135-.66-5.17.605-.165 1.265-.275 1.925-.385.495 1.925.99 3.575 1.32 5.005-.88.055-1.76.275-2.585.55Zm-2.035-.33c-.22-1.21-.44-2.53-.715-4.07.55-.22 1.155-.44 1.76-.66.165 1.485.44 3.3.66 5.17-.275.11-.55.22-.825.385-.275-.275-.605-.55-.88-.825Zm-.44-.44c-.935-.88-1.815-1.705-2.53-2.42.605-.385 1.265-.77 1.98-1.1.11.935.33 2.2.55 3.52Zm-.33 2.31c-1.43-1.155-2.915-2.365-4.07-3.3.495-.44.99-.825 1.485-1.21 1.1 1.045 2.09 1.98 2.97 2.805.055.385.165.825.22 1.265-.165.11-.385.275-.605.44Zm-2.255 1.98c-.935-1.045-2.09-2.2-3.355-3.575.385-.495.825-.99 1.32-1.43a385.927 385.927 0 0 0 4.015 3.245c-.605.495-1.155 1.1-1.65 1.76h-.33Zm-2.86 0c-.55-.55-1.155-1.155-1.815-1.76.33-.55.66-1.045 1.045-1.54.88.935 1.98 2.09 3.08 3.3h-2.31Zm-1.705.77c-.44-.055-.825-.11-1.21-.165.275-.715.605-1.375.935-2.035.44.44.935.935 1.54 1.485-.495.11-.935.385-1.265.715Zm-.33.33c-.275.385-.44.88-.44 1.43 0 .11 0 .22.055.385-.385 0-.825-.055-1.155-.055.11-.605.33-1.265.495-1.87.385.055.715.055 1.045.11Zm8.47-3.96c-.11.055-.22.11-.33.22-.055-.22-.055-.385-.11-.605.165.11.275.275.44.385Zm6.05-1.155c-.11 0-.275-.055-.385-.055.11-.165.165-.385.275-.55.055.22.055.44.11.605Zm.66 3.465c0 .055 0 .11.055.165l-.22.385h-.495c-.11 0-.22-.055-.33-.055l.33-.66.66.165Zm-4.18.11c.165.165.33.33.495.44h-1.1v-.165c.22-.11.385-.22.605-.275Zm2.97 0c-.055-.11-.055-.22-.11-.33.11 0 .165 0 .275.055-.055.055-.11.165-.165.275Zm-1.925-.275c-.11.165-.165.33-.275.495-.11-.11-.275-.22-.385-.385.22 0 .44-.055.66-.11Zm.11.66c.11-.22.22-.495.385-.77.22 0 .495-.055.715-.055h.22c.055.22.11.495.165.715h-.44c-.33.055-.715.055-1.045.11Zm10.505-8.195.11-.165.165.22-.11.165-.165-.22Zm5.335 8.25c-.935-2.31-2.42-4.4-4.235-5.995l.165-.33c.22.165.385.385.605.55 1.485 1.43 2.75 3.19 3.575 5.115.11.22.22.44.275.66h-.385Zm-7.37-2.475a2.57 2.57 0 0 1-.55.275l1.705-2.75c-.385.88-.77 1.705-1.155 2.475Zm6.27 1.815-.99.66H68.53c0-.055-.055-.055-.055-.11 1.32-.605 2.915-1.375 4.785-2.255.33.55.66 1.155.935 1.705Zm.165.385.165.33h-.605a.855.855 0 0 1 .44-.33Zm-6.71-.77c.165-.385.385-.77.55-1.155 1.1-.55 2.31-1.21 3.685-1.925.385.44.77.935 1.155 1.485-1.375.66-3.08 1.43-4.84 2.255-.165-.22-.33-.44-.55-.66Zm-.275-.275c-.11-.11-.22-.22-.33-.275.22-.11.385-.22.605-.33-.055.22-.165.44-.275.605Zm2.86-4.4c.495.44.99.88 1.43 1.32-.825.44-1.925.99-3.135 1.65.55-1.1 1.045-2.2 1.485-3.135 0 .055.11.11.22.165Zm-2.365 5.72c-.33-.44-.715-.825-1.1-1.21l-.495.825c0 .055 0 .11-.055.11l-.055.055-.11.165h1.815v.055Zm-17.765 3.96c-.11.22-.275.385-.495.44.385-.22.495-.715.495-1.1 0-.385-.11-.825-.33-1.21-.22-.385-.44-.715-.77-.935-.33-.22-.77-.385-1.155-.275a.9.9 0 0 1 .66-.11c.22.055.44.11.605.22.385.22.66.605.88.99.22.385.33.825.275 1.265 0 .275-.055.55-.165.715Zm-4.125 5.995c-.22-.715-.33-1.43-.44-2.2.935.11 2.145.33 3.52.495-1.1.66-2.145 1.21-3.08 1.705Zm23.045-19.25.11-.165.165.22-.11.165-.165-.22Zm-9.185 21.67.055-.055v.055h-.055Zm-.11-.605c-.11.165-.22.33-.275.55a4.582 4.582 0 0 1-.825-.22c-.055-.22-.055-.385-.11-.55.055-.055.165-.055.22-.11.33.11.66.165.99.22v.11Zm11.165-21.56.165.22.11-.165-.165-.22-.11.165Zm-.77-1.265-.11.165.165.22.11-.165-.165-.22Zm2.42 2.2a19.398 19.398 0 0 1 6.105 8.91h-.99a18.172 18.172 0 0 0-5.445-7.92c.055-.22 0-.495-.165-.66l-.385-.44.11-.165.055.055a.883.883 0 0 0 .605.275c0-.055.055-.055.11-.055Zm30.635 21.395c-.275 0-.55-.055-.825-.11-.605-.165-1.21-.33-1.76-.66-.44-.275-.88-.55-1.265-.88 0 .275-.275.495-.55.495h-.055c.44.44.935.77 1.485 1.1.605.33 1.265.55 1.98.715.33.055.66.11.935.11-.055-.11-.11-.22-.11-.33 0-.22.055-.33.165-.44Zm3.08.165a6.958 6.958 0 0 0 1.705-1.1l.165-.165c-.165-.055-.33-.165-.385-.33-.055 0-.055.055-.11.055a6.099 6.099 0 0 1-1.65.935c-.605.22-1.21.33-1.815.44h-.22a.5.5 0 0 1 .165.385c0 .11-.055.22-.11.33h.275c.66-.11 1.32-.275 1.98-.55Zm9.625 1.485-1.65-.055c-1.1 0-2.2 0-3.3-.055-1.1 0-2.2 0-3.3.055l-1.65.055c-.55 0-1.1.055-1.65.055.55.055 1.1.055 1.65.055l1.65.055h6.6l1.65-.055c.55 0 1.1-.055 1.65-.055-.55-.055-1.1-.055-1.65-.055Zm5.83-.055c-.22 0-.44.22-.44.44s.22.44.44.44.44-.22.44-.44-.22-.44-.44-.44Zm-5.115-6.435c.22-.055.44-.055.66-.055h4.07c.22 0 .44 0 .66.055.825.22 1.485 1.045 1.54 1.98 0-.44-.11-.935-.385-1.32a2.343 2.343 0 0 0-1.1-.825 3.219 3.219 0 0 0-.715-.11h-4.07c-.22 0-.495.055-.715.11-.44.165-.825.44-1.1.825-.275.385-.385.88-.385 1.32.055-.935.66-1.76 1.54-1.98Zm5.5-1.65c1.65 0 2.97 1.32 2.97 2.97 0 1.155-.66 2.145-1.65 2.64.33-.22.55-.495.77-.825.33-.495.44-1.155.385-1.705-.165 1.045-.88 1.87-1.76 2.2a2.4 2.4 0 0 0 1.155-2.035c0-1.32-1.1-2.42-2.42-2.42h-4.565c-1.32 0-2.42 1.1-2.42 2.42 0 .88.495 1.65 1.21 2.09-.88-.33-1.595-1.155-1.76-2.2-.11.55.055 1.21.385 1.705.22.33.44.605.77.825-.99-.495-1.65-1.485-1.65-2.64 0-1.65 1.32-2.97 2.97-2.97h5.61v-.055Zm3.52 2.31c-.055-1.375-.99-2.64-2.31-3.025-.33-.11-.66-.11-.99-.11h-6.16c-.33 0-.66.055-.99.11-1.265.385-2.255 1.595-2.31 3.025 0-.66.165-1.375.605-1.98.385-.55.99-.99 1.65-1.265.33-.11.715-.165 1.045-.165h6.16c.33 0 .715.055 1.045.165.66.22 1.265.66 1.65 1.265.44.605.66 1.32.605 1.98Zm.165 4.565c-.22 0-.44.22-.44.44s.22.44.44.44.44-.22.44-.44c0-.275-.165-.44-.44-.44Zm10.725-21.725a.663.663 0 0 1-.275.275c-.055 0-.11 0-.11.055l-4.07 14.19h.44l4.345-15.07-.33.55Zm2.365-9.405h.44l-2.035 7.095c-.055-.11-.165-.165-.275-.22l-.055-.055 1.925-6.82Zm-.22-5.885c0-.275.22-.495.495-.495s.44.22.44.495-.22.44-.44.44c-.275 0-.495-.165-.495-.44ZM103.95 92.62c.165-.385.33-.715.44-1.045-.165.385-.385.77-.605 1.155 0-.055.055-.055.165-.11Zm-2.695 2.475c.77-1.65 1.65-3.3 2.695-4.565-.495 1.1-1.1 2.2-1.925 3.355-.275.385-.495.825-.77 1.21Zm.11-3.135c.275 0 .495-.22.495-.495a.493.493 0 0 0-.495-.495c-.275 0-.44.22-.44.495-.055.33.165.495.44.495Zm-25.41-1.375s-.715-.77-.66-.77c.11 0 .22.055.33.11.055.055.11.055.11.11.11.165.22.33.22.55Zm22.825 28.16c.165 0 .275.11.275.275 0 .165-.11.275-.275.275-.165 0-.275-.11-.275-.275 0-.165.11-.275.275-.275Zm12.1 2.64c.66 0 1.32 0 1.925.055l.99.055c.33 0 .66.055.99.055-.33 0-.66.055-.99.055l-.99.055c-.66 0-1.32 0-1.925.055-.66 0-1.32 0-1.925-.055l-.99-.055c-.33 0-.66-.055-.99-.055.33-.055.66-.055.99-.055l.99-.055c.605-.055 1.265-.055 1.925-.055Zm1.815-9.13c-.825 0-1.65 0-2.475.11.825.11 1.65.11 2.475.11.825 0 1.65-.055 2.475-.11-.825-.055-1.65-.11-2.475-.11Zm9.46-1.21c0-.22-.22-.44-.44-.44s-.44.22-.44.44.22.44.44.44.44-.22.44-.44Zm7.26-.55-.22.385h.165c0-.11 0-.22.055-.385Zm.935.55c-.11-.055-.165-.055-.275-.11.055-.275.11-.605.165-.88.11-.55.22-1.1.385-1.705l1.595-2.64c-.165.495-.385.99-.66 1.54-.605 1.54-.935 2.75-1.21 3.795Zm4.84-11.605.11.055-3.685 12.815c-.11-.33-.275-.605-.55-.825.22-1.1.55-2.31 1.265-3.905.825-1.815 1.375-3.52 1.54-5.17.055-.055.11-.11.11-.165l1.21-2.805Zm.715-9.46h.825c-.055 1.595-.55 3.3-1.43 5.06l-.055-.055c.55-1.87.605-3.52.55-4.565l.11-.44Zm-2.365 1.87c-.275 0-.495-.22-.495-.44 0-.275.22-.495.495-.495s.495.22.495.495c0 .22-.22.44-.495.44Zm-33.495 9.405 1.32.22c-.055-.275-.11-.495-.165-.77-.275-1.265-.55-2.86.825-4.785.165-.22.33-.44.44-.66-.055-.165-.055-.33-.055-.495-1.485 2.255-1.925 4.345-2.365 6.325.055.055 0 .11 0 .165Zm-.77-.11c0-.055.055-.165.055-.275 0-.055 0-.11.055-.165-.11.11-.165.275-.275.385l.165.055Zm-.605 9.13c0-.055 0-.055 0 0-.165-.055-.275-.22-.33-.385l-.11.11c.11.11.275.165.44.275Zm9.845 8.855c0 .165-.11.275-.275.275-.165 0-.275-.11-.275-.275 0-.165.11-.275.275-.275.165 0 .275.11.275.275Zm1.76-4.18h-.055c0 .165-.055.275-.055.44-.055.165-.055.33-.11.495l-.165.44a7.172 7.172 0 0 1-.88 1.705c-.165.22-.33.44-.495.605.165.055.275.165.275.33.22-.22.385-.495.55-.715.33-.605.605-1.21.77-1.87.055-.495.11-.935.165-1.43Zm23.815-15.235.495.22-.165.33-.055-.055a17.834 17.834 0 0 1-1.54-.605c-.495-.22-1.045-.44-1.54-.605l-1.485-.66.055-.165c.495.22.99.385 1.485.605.055 0 .11.055.11.055.055-.11.055-.165.11-.275l1.65.66-.11.275c.275.11.605.275.88.385l.11-.165Zm-20.9 11.66-.715-1.705-.11.055.715 1.705.11-.055Zm14.3-1.65-.11-.055-.715 1.705.11.055.715-1.705Zm5.17-7.15.385.165c-.11.11-.22.165-.33.275l-.055-.055c-.55-.22-1.045-.385-1.595-.605-.55-.22-1.045-.44-1.54-.605-.33-.165-.66-.275-1.045-.44l.055-.165c.33.165.715.275 1.045.44.11.055.275.11.385.165.055-.055.11-.165.165-.22l1.54.66-.22.22c.33.165.605.275.935.44a.663.663 0 0 0 .275-.275Zm-7.205 6.435-.11-.055-.055.165-.165.385-.44 1.1.11.055.66-1.65Zm-13.365-9.625c0 2.31 3.52 4.235 7.81 4.235 4.29 0 7.81-1.925 7.81-4.235 0-2.31-3.52-4.235-7.81-4.235-4.29 0-7.81 1.925-7.81 4.235Zm-5.115 3.63.055-.055c.495-.22 1.045-.385 1.595-.605.495-.22 1.045-.44 1.54-.605.33-.165.715-.275 1.045-.44l-.055-.165c-.33.165-.715.275-1.045.44-.11.055-.275.11-.385.165-.055-.055-.11-.165-.165-.22l-1.54.66.22.22c-.33.165-.605.275-.935.44l-.275-.275-.385.165c.165.11.275.22.33.275Zm.935.77c-.11-.11-.22-.165-.33-.275l.275-.11.275.275c.33-.165.605-.275.935-.44l-.22-.22 1.375-.55c.055.055.11.165.165.22.22-.11.44-.165.66-.275.22-.055.385-.165.605-.22l.055.165c-.22.11-.385.165-.605.275-.495.22-1.045.44-1.54.605-.55.165-1.045.33-1.65.55Zm1.32 1.815c.55-.22 1.1-.385 1.595-.605.495-.22 1.045-.44 1.54-.605.055 0 .055-.055.11-.055l-.055-.165c-.055 0-.055 0-.11.055-.275.11-.605.275-.88.385-.055-.11-.055-.165-.11-.275l-1.155.495c.055.11.055.165.11.275-.275.165-.605.275-.88.44-.055-.11-.11-.22-.11-.33l-.165.055c.055.055.055.165.11.33Zm1.705 2.365.165.165-.165-.165Zm18.59-.88a1.2 1.2 0 0 1-.22.275c-.275-.165-.605-.275-.88-.44.055-.11.165-.165.22-.275l-1.1-.44c-.055.055-.11.165-.165.22-.275-.11-.55-.22-.825-.385l-.055.165 1.32.495c.495.22 1.045.385 1.54.605h.055l.275-.275-.165.055Zm-1.045-9.35c.055.055.165.11.22.165v-.055c-.055-.055-.11-.11-.22-.11Zm-22.385 4.345-.055-.22.495-.22.055.22c0 .055.055.055.055.11.275-.165.605-.275.88-.385 0-.055-.055-.055-.055-.11l-.055-.165 1.65-.715c.055.055.055.165.11.165v.055c.055 0 .11-.055.11-.055.495-.22.99-.44 1.485-.605l.055.165-1.485.66c-.495.22-1.045.44-1.54.605-.495.22-1.045.385-1.595.605h-.055s-.055-.055-.055-.11Zm5.885 4.73c.44-.165.88-.33 1.32-.55l-.055-.165c-.275.11-.55.275-.88.385-.055-.055-.11-.165-.165-.22l-1.1.44c.055.11.11.165.22.275-.275.165-.605.275-.88.44a1.2 1.2 0 0 0-.22-.275l-.11.055.275.275h.055c.495-.275 1.045-.44 1.54-.66Zm1.595 1.65c.165-.055.385-.165.55-.22l-.055-.165c-.165.055-.33.165-.495.22-.055-.055-.11-.165-.165-.275l-.77.33c.055.11.165.165.22.275-.275.11-.55.275-.825.385.495-.165 1.045-.33 1.54-.55Zm-1.375-6.49 3.575 8.47h-.055l-3.63-8.635c0 .055.055.11.11.165Zm2.31 1.705h-.055l2.585 6.215h.055l-2.585-6.215Zm8.25 6.215 2.53-6.16h.055l-2.585 6.16Zm3.575-1.815c-.055.11-.11.165-.165.275a1.647 1.647 0 0 1-.44-.22l-.055.165c.165.055.33.165.495.22.495.22 1.045.385 1.595.605-.275-.11-.55-.275-.825-.385a1.2 1.2 0 0 0 .22-.275l-.825-.385Zm4.29-2.86-.165-.055c-.055.11-.055.22-.11.33a6.566 6.566 0 0 1-.88-.44c.055-.11.055-.22.11-.275l-1.155-.495c-.055.055-.055.165-.11.275-.275-.11-.605-.275-.88-.385 0 0-.055 0-.055-.055l-.055.165s.055 0 .055.055c.495.22 1.045.44 1.54.605.495.22 1.045.385 1.595.605h.055c0-.11.055-.22.055-.33Zm-25.3-4.95.055-.055c.495-.165 1.045-.385 1.595-.605.495-.22 1.045-.44 1.54-.605l1.485-.66-.055-.165c-.495.22-.99.385-1.54.605-.055 0-.055.055-.11.055-.055-.11-.055-.165-.11-.275l-1.65.66.11.275c-.275.11-.605.275-.88.385l-.11-.33-.495.22.165.495Zm.495.935h-.055l-.165-.33.495-.22.11.33c.275-.165.605-.275.88-.385l-.11-.275 1.65-.66c.055.11.055.165.11.275.055 0 .055-.055.11-.055.495-.22.99-.44 1.54-.605l.055.165-1.485.66c-.495.22-1.045.44-1.54.605-.55.11-1.1.33-1.595.495Zm20.13 2.53.055-.165c.11.055.165.055.275.11l-.055.165c-.11-.055-.165-.055-.275-.11Zm-.385.99c.055.055.165.055.275.11l.055-.165c-.11-.055-.165-.055-.275-.11l-.055.165Zm-.165 1.1.055-.165c-.11-.055-.165-.055-.275-.11l-.055.165c.11.055.165.055.275.11Zm-.44.99.055-.165c-.11-.055-.165-.055-.275-.11l-.055.165c.11.055.22.11.275.11Zm-.935 1.595-.055.165.275.11.055-.165-.275-.11Zm.605-.77c-.11-.055-.165-.055-.275-.11l-.055.165c.11.055.165.055.275.11l.055-.165Zm-13.2-7.315-1.155-2.75h.055l1.1 2.64v.11Zm2.42 3.41c-.11.055-.165.055-.275.11l-.055-.165c.11-.055.165-.055.275-.11l.055.165Zm.385.99-.055-.165c-.11.055-.165.055-.275.11l.055.165c.11-.055.22-.11.275-.11Zm-2.75-5.94s0 .055 0 0c0 .055 0 0 0 0Zm.165-1.815.275.715s0 .055-.055.055l-.22-.77Zm-.33.77c-.11 0-.165.055-.275.055v.055c.11 0 .165-.055.275-.11Zm4.18 6.38s-.055 0 0 0c-.11 0-.165 0-.22.055v.055c.11-.055.165-.11.22-.11Zm1.1.66.605-.22c-.22-.055-.44-.11-.605-.11l-.275.11c.055.11.055.22.11.33-.22.055-.495.165-.715.275l.055.11c.275-.22.55-.33.825-.495Zm.825.825c-.385.22-.825.385-1.265.605l-.055-.11c.22-.055.44-.165.605-.22-.055-.11-.055-.22-.11-.33l1.925-.825c.22 0 .385.055.605.055v.11l-1.705.715Zm-.715 1.54c-.055 0-.055.055-.11.055l-.055-.165c.055 0 .055 0 .11-.055.11-.055.275-.11.385-.165-.055-.11-.055-.165-.11-.275l2.365-.99c0 .165.055.275.055.385l-1.155.495c-.495.275-.99.495-1.485.715Zm6.435-.11c-.11-.055-.275-.11-.385-.165 0-.11.055-.165.11-.275l-2.42-.99c-.055.165-.055.275-.055.385l1.155.495c.495.275.99.495 1.54.715.055 0 .11.055.165.055l.055-.165c-.055 0-.11-.055-.165-.055Zm.33-2.475-.275-.11c-.22.055-.44.11-.605.11l.55.22c.275.165.605.275.88.44l.055-.11c-.22-.11-.495-.165-.715-.275.055-.055.055-.165.11-.275Zm.88-.44h-.055c.055.055.165.055.22.11v-.055c-.055-.055-.11-.055-.165-.055Zm-.66 1.98c-.22-.11-.44-.165-.66-.22.055-.11.055-.22.11-.33l-1.925-.825c-.22 0-.385.055-.605.055v.11l1.76.77c.44.22.825.44 1.265.605l.055-.165Zm-8.635.605-.055-.165c-.11.055-.165.055-.275.11l.055.165c.11-.055.22-.055.275-.11Zm.165 1.1c.11-.055.165-.055.275-.11l-.055-.165c-.11.055-.165.055-.275.11l.055.165Zm.66.77-.055-.165-.275.11.055.165.275-.11Zm-1.485-2.75c.11-.055.165-.055.275-.11l-.055-.165c-.11.055-.165.055-.275.11l.055.165Zm13.805-8.8-.33.715-.055-.055.385-.66Zm.33 11.22a17.834 17.834 0 0 1-1.54-.605 6.71 6.71 0 0 1-.935-.385l.055-.165c.22.11.44.165.66.275.055-.055.11-.165.165-.22l.935.385c-.055.11-.165.165-.22.275.275.165.605.275.88.44Zm-4.4 2.2 3.52-8.47c.055-.055.055-.11.11-.165l-3.63 8.635Zm-5.115-1.54-.715-1.65-.165.055.715 1.65.165-.055Zm-7.81-.66c.275-.165.605-.275.88-.44a1.2 1.2 0 0 1-.22-.275l.935-.385c.055.055.11.165.165.22.22-.11.44-.22.66-.275l.055.165c-.33.11-.605.275-.935.385-.495.22-.99.385-1.54.605Zm-1.54-1.705c-.055-.11-.11-.165-.165-.275v-.055l.22-.055v.055c.055.11.055.165.11.275.275-.165.605-.275.88-.44a.417.417 0 0 1-.11-.22v-.055l1.155-.495v.055c0 .055.055.11.11.22.275-.11.55-.22.825-.385.055 0 .11-.055.165-.055l.055.165c-.055 0-.11.055-.165.055-.495.22-1.045.44-1.54.605-.55.275-1.045.44-1.54.605 0 0-.055.055 0 0Zm-.77-1.98c-.11-.11-.22-.165-.33-.275l.165-.055c.11.11.22.165.275.275.33-.165.605-.275.935-.44l-.055-.055c-.055-.055-.11-.11-.22-.165l1.155-.495c.055.11.11.165.165.22.33-.11.605-.275.935-.385h.055l.055.165h-.055c-.495.22-1.045.44-1.54.605-.495.22-.99.385-1.54.605Zm23.265-.99c-.11.11-.22.165-.33.275h-.055c-.55-.22-1.045-.385-1.54-.605-.55-.22-1.045-.44-1.54-.605-.165-.055-.385-.165-.55-.22l.055-.165c.165.055.385.165.55.22.22.11.44.165.66.275.055-.055.11-.165.165-.22l1.32.55-.22.22c.33.165.605.275.935.44l.275-.275.275.11Zm-1.32.99c.11-.11.22-.165.33-.275l-.165-.055c-.11.11-.22.165-.275.275-.33-.165-.605-.275-.935-.44l.055-.055c.055-.055.11-.11.22-.165l-1.155-.495a.76.76 0 0 1-.165.22c-.33-.11-.605-.275-.935-.385l-.11.165c.55.22 1.045.44 1.54.605.55.22 1.045.385 1.595.605Zm-.715 2.035s0-.055 0 0c.055-.11.11-.22.11-.275v-.055l-.22-.055v.055c-.055.11-.055.165-.11.275-.275-.165-.605-.275-.88-.44a.417.417 0 0 0 .11-.22v-.055l-1.155-.495v.055c0 .055-.055.11-.11.22a5.55 5.55 0 0 1-.825-.385c-.055 0-.11-.055-.11-.055l-.055.165c.055 0 .11.055.11.055.495.22 1.045.44 1.54.605.55.22 1.1.385 1.595.605Zm-1.32 1.375Zm-8.03.935.715-1.65.11.055-.715 1.65-.11-.055Zm-5.72 1.815.11-.055-.495-1.1-.165-.385-.055-.165-.11.055.715 1.65Zm14.465-13.145-1.155 2.75v-.165l1.155-2.585Zm-14.85-6.16a.882.882 0 0 0-.825-.055l-3.41 1.43-3.96 1.65-2.475 1.045c-.055 0-.11.055-.165.055-.055 0-.055.055-.11.055s-.055.055-.055.055l-.055.055c-.055.055-.055.11-.11.165 0 0 0 .055-.055.055 0 .055 0 .055-.055.11v.055l-.11.495 11.715-4.95.11-.055-.165-.11-.275-.055Zm.88.44h-.22l-.22.11-4.29 1.815-3.3 1.375-.66.275-1.54.66-1.1.44-.495.22-.55.22-.275.11c-.055 0-.055.055-.055.055s0 .055-.055.055v.275l.22.495.55 1.32.055.055.055.055c.055 0 .055.055.11.055h.11l.22-.11.55-.22.495-.22 2.64-1.1 3.96-1.65 4.29-1.815.22-.11s.055 0 .055-.055c0 0 .055 0 .055-.055l.055-.055v-.165l-.605-1.375-.165-.44c0-.055-.055-.055-.055-.055 0-.11-.055-.11-.055-.165Zm18.59 9.075-.165.33h-.055c-.495-.22-1.045-.385-1.595-.605-.495-.22-1.045-.44-1.54-.605l-1.485-.66.055-.165c.495.22.99.385 1.485.605.055 0 .11.055.11.055.055-.11.055-.165.11-.275l1.65.66-.11.275c.275.11.605.275.88.385l.11-.33.55.33Zm-.495 1.155c0 .055-.055.055-.11.11h-.055c-.495-.22-1.045-.385-1.54-.605-.55-.22-1.045-.385-1.54-.605l-1.485-.66.055-.165c.495.22.99.385 1.485.605.055 0 .055.055.11.055v-.055c0-.055.055-.11.055-.165l1.65.715-.055.165s-.055.055-.055.11c.275.11.605.275.88.385 0-.055.055-.11.055-.11l.055-.22.495.22v.22Zm2.145-6.545-2.475-1.045-3.96-1.65-3.41-1.43c-.11-.055-.22-.055-.385-.055s-.33.055-.495.11l-.22.165-.165.11.11.055 11.385 4.785.11-.495v-.11c-.055-.055-.055-.11-.11-.165l-.055-.055-.11-.11-.055-.055c-.055 0-.11-.055-.165-.055Zm-.715 3.575.33.11.715-2.42h-.055l-.495-.22-2.64-1.1-.66-.275-3.3-1.375-4.29-1.815-.22-.11h-.22c-.055 0-.055.055-.11.055l-.055.055-.22.495-.55 1.32v.22c0 .055.055.055.11.11 0 0 .055 0 .055.055l.22.11 4.29 1.815 3.96 1.65 2.64 1.1.495.22Zm-24.805 15.015c-.165 0-.275.11-.275.275 0 .165.11.275.275.275.165 0 .275-.11.275-.275 0-.165-.165-.275-.275-.275ZM99.33 109.56c.22-.165.44-.385.66-.55.495-.385 1.1-.66 1.705-.88l.44-.165c.165-.055.33-.055.495-.11.11-.055.275-.055.385-.055l-.11-.055c-.44 0-.88.055-1.265.165-.66.165-1.265.44-1.87.77-.22.165-.495.33-.715.495.11.11.22.22.275.385Zm-.825.11c0 .165.11.275.275.275.165 0 .275-.11.275-.275 0-.165-.11-.275-.275-.275-.165 0-.275.11-.275.275Zm1.76 1.32c0 .055-.055.055-.055.11.055-.055.055-.11.055-.11Zm3.355-.825c-.99 0-1.925.385-2.695 1.045l-.165.165c.385.22.715.44 1.045.66.495.33 1.045.385 1.595.275.55-.11 1.045-.495 1.375-.99.165-.275.275-.605.275-.88a4.131 4.131 0 0 0-1.43-.275Zm-.935-13.805c-1.21 1.65-.935 2.97-.66 4.18.055.33.165.715.165 1.045l1.21.165c-.385-.99-.77-2.09-1.045-2.805-.33-.935-.055-1.485.165-1.87.055-.055.055-.11.11-.11.11-.165.22-.22.22-.22l-.165-.495c.055.055 0 .055 0 .11Zm20.295-4.345c-1.045-.11-2.09-.11-3.135-.11s-2.09.055-3.135.11c1.045.11 2.09.11 3.135.11 1.045.055 2.09 0 3.135-.11Zm14.025 5.28v.165l-.33.77-.44 1.045s-.055.055-.055.11l.11-.44.66-1.54v-.165c0-.055-.055-.055-.11-.11h-.055v-.055h.055c.055 0 .055.055.11.055 0 0 0 .055.055.055v.11Zm-38.28 13.97c-.33.385-.55.825-.77 1.265-.22.44-.44.88-.605 1.375.11-.165.22-.33.33-.55.88.44 1.65.935 2.365 1.375.88.55 1.87.88 2.915.88.385 0 .825-.055 1.21-.165a5.386 5.386 0 0 0 3.41-2.475c.77-1.265.99-2.75.605-4.125-.385-1.43-1.265-2.585-2.585-3.3l-4.345-2.53.33-.165c.11-.055.275-.055.44-.055.275 0 .495.055.77.22l3.245 1.815a6.21 6.21 0 0 1 2.97 3.795c.44 1.65.165 3.3-.66 4.785-.88 1.43-2.255 2.475-3.905 2.86-.44.11-.935.165-1.375.165-1.21 0-2.365-.33-3.355-.99a22.52 22.52 0 0 0-2.365-1.375l-.055.11c.88.44 1.65.88 2.31 1.32.11.055.22.165.33.22.055 0 .055.055.11.055.11.055.22.11.275.165 0 0 .055 0 .055.055.11.055.22.11.385.165.055 0 .055 0 .11.055.11.055.22.055.275.11.055 0 .055 0 .11.055.11.055.275.055.385.11h.11c.11 0 .22.055.33.055h.11c.11 0 .275.055.385.055H103.785c.055 0 .165 0 .22-.055h.11c.11 0 .22-.055.33-.055 1.155-.275 2.2-.825 3.025-1.65.385-.385.715-.825.99-1.265.275-.44.495-.935.605-1.43v-.055c0-.055 0-.11.055-.165 0-.055.055-.11.055-.165v-.11c.055-.275.11-.55.11-.825 0-.22.055-.44 0-.605 0-.55-.055-1.045-.22-1.595s-.33-1.045-.605-1.485c-.55-.99-1.375-1.815-2.42-2.42l-3.245-1.815a1.109 1.109 0 0 0-.605-.165h-.22c-.11 0-.275 0-.385.055h-.11c-.055 0-.055 0-.11.055-.055 0-.055.055-.11.055-.11.055-.22.11-.275.165-.165.11-.33.33-.44.495-.44.77-.165 1.815.66 2.255l2.035 1.155 1.21.715c.22.11.44.275.605.44.385.385.66.825.77 1.32v.165c.11.385.11.77.055 1.155-.055.33-.165.605-.33.935 0 .055-.055.11-.055.11-.22.33-.495.66-.825.88a3.97 3.97 0 0 1-1.1.495c-.11 0-.22.055-.33.055h-.55c-.11 0-.165 0-.275-.055h-.055c-.055 0-.11-.055-.22-.055h-.055c-.11 0-.165-.055-.22-.11h-.055c-.055-.055-.11-.055-.22-.11 0 0-.055 0-.055-.055-.055-.055-.165-.11-.22-.165-.715-.44-1.595-.99-2.585-1.43Zm-2.035-1.87c.22-.495.55-.99.88-1.43.385-.495.88-.88 1.43-1.265.385-.275.77-.44 1.21-.66l-.11-.11c-.44.165-.825.33-1.21.605-.165.055-.275.165-.385.275-.11.11-.275.22-.385.33-.11.11-.22.22-.385.33l-.33.385c-.385.44-.715.935-.99 1.485.11 0 .165.055.275.055Zm40.865-19.415h.55l-1.65 5.72c-.11-.165-.22-.275-.385-.33.88-1.87 1.43-3.685 1.485-5.39Zm.99-1.925c0 .275-.22.495-.44.495a.493.493 0 0 1-.495-.495c0-.275.22-.44.495-.44.22 0 .44.22.44.44Zm-13.2 24.695c0 .22.22.44.44.44s.44-.22.44-.44-.22-.44-.44-.44-.44.22-.44.44Zm-22.055 8.36c0 .165.11.275.275.275.165 0 .275-.11.275-.275 0-.165-.11-.275-.275-.275-.165 0-.275.11-.275.275Zm-7.865-13.805c-.77-.11-1.595-.11-2.365-.11-.77 0-1.595 0-2.365.11.77.11 1.595.11 2.365.11.77 0 1.595 0 2.365-.11Zm-1.54-13.585c.77.055 1.54.055 2.365.22.11 0 .165.055.275.055l.165.055.11.055c.165.055.33.22.44.385.165.385.165.77.165 1.155 0-.385 0-.77-.22-1.1a.855.855 0 0 0-.44-.33l-.11-.055-.11-.055c-.11 0-.165-.055-.275-.055-.77-.11-1.54-.11-2.31-.165h-4.675c-1.54 0-3.135 0-4.675.11-.77.055-1.54.11-2.31.33-.385.11-.77.22-1.045.385-.165.11-.33.22-.44.385.11-.165.275-.275.44-.44a3.97 3.97 0 0 1 1.1-.495c.77-.22 1.54-.33 2.31-.385 1.54-.165 3.135-.165 4.675-.165h2.31c.715.055 1.485.055 2.255.11Zm36.905 26.51c.33-.77.55-1.54.77-2.365.22-.825.385-1.595.55-2.42-.33.77-.55 1.54-.77 2.365-.275.825-.44 1.595-.55 2.42Zm-2.86-3.465c-.22 0-.44.22-.44.44s.22.44.44.44.44-.22.44-.44c0-.275-.165-.44-.44-.44Zm-29.7 2.31c-.33-.44-.66-.88-.935-1.32-.33-.605-.55-1.265-.715-1.98-.055-.33-.11-.66-.11-.935.055.055.165.11.22.11.165.11.33.165.495.275 0 .165.055.275.055.44.165.605.33 1.21.66 1.76.22.385.495.77.77 1.1-.165 0-.44.22-.44.55Zm-3.96-6.105a12.457 12.457 0 0 0-3.795-.605H77.33v-.11h13.145c2.2 0 4.29.66 6.16 1.54l-.055.11c-.715-.385-1.485-.66-2.31-.935ZM69.3 96.25l.275.33-.11.165a.672.672 0 0 0-.495-.22c-.495-.22-1.045-.44-1.54-.66.22-.33.715-.55 1.375-.495.11.055.22.11.385.165-.11.22-.055.495.11.715Zm3.355 1.32c.55.385 1.045.825 1.54 1.265-.495-.055-.935.055-1.21.275h-.055a.765.765 0 0 0 0-1.045l-.275-.495Zm2.035 1.705c.715.66 1.375 1.43 1.98 2.2-.495-.165-.935-.11-1.265.055-.66-.77-1.375-1.54-2.2-2.2.33-.275.88-.275 1.485-.055Zm-.825-5.61.165.22.11-.165-.165-.22-.11.165Zm-.715-.825.11-.165-.165-.22-.11.165.165.22Zm.99-1.595-.165-.22.11-.165.165.22-.11.165Zm48.62 32.615c1.21.055 2.42-.22 3.465-.88.275-.165.495-.33.77-.495.11-.11.22-.22.33-.275l.165-.165.165-.165c.44-.44.77-.935 1.045-1.485l.22-.44c.055-.11.11-.275.165-.44.11-.275.165-.605.22-.88.11-.605.165-1.21.11-1.815a9.059 9.059 0 0 0-.33-1.76c-.22-.55-.495-1.1-.825-1.595.275.55.495 1.1.66 1.65.165.55.275 1.155.275 1.76s-.055 1.155-.165 1.76c-.165.55-.33 1.1-.605 1.65a6.545 6.545 0 0 1-2.365 2.53c-.22.165-.495.275-.77.44-.11.055-.275.11-.385.165l-.22.055c-.055.055-.165.055-.22.055l-.44.11-.44.055-.22.055h-.22l-.385.11Zm-55.275-8.305c-.715 3.135-3.575 5.5-6.93 5.5-3.905 0-7.15-3.19-7.15-7.15 0-.275 0-.495.055-.715h-2.2c0 .22-.055.495-.055.715 0 5.17 4.18 9.35 9.35 9.35 4.62 0 8.415-3.355 9.185-7.755h-2.255v.055ZM77.55 124.3a20.45 20.45 0 0 1-1.815 2.475c-.055-.11-.11-.165-.165-.275.66-.77 1.265-1.65 1.76-2.53.11.11.165.22.22.33Zm-3.19 3.96c-.33.33-.715.605-1.045.935 0-.11-.055-.165-.11-.22.77-.66 1.54-1.375 2.2-2.2a.42.42 0 0 1 .11.275c-.385.385-.77.825-1.155 1.21Zm-6.38 4.07c-.22.11-.385.165-.605.22v-.22a21.91 21.91 0 0 0 2.805-1.32c0 .055 0 .165.055.22-.77.44-1.485.825-2.255 1.1Zm-.935.33v-.22c-.935.33-1.98.605-2.97.77v.165c.99-.11 1.98-.385 2.97-.715Zm-13.86-.33c-.825-.33-1.65-.715-2.42-1.155l.165-.165c.88.495 1.815.935 2.805 1.32-.055.055-.055.11-.11.165a3.79 3.79 0 0 1-.44-.165Zm-11.66-18.26c0 10.505 8.525 19.03 19.03 19.03 8.69 0 16.06-5.885 18.315-13.86l-.99-.055a18.05 18.05 0 0 1-17.325 12.925c-9.955 0-18.095-8.085-18.095-18.095 0-9.955 8.085-18.095 18.095-18.095 2.75 0 5.39.605 7.7 1.76a.832.832 0 0 1 .11-1.045c-2.365-1.1-5.005-1.65-7.81-1.65-10.505.055-19.03 8.635-19.03 19.085Zm9.955-18.315c.88-.44 1.76-.825 2.75-1.1-.33.385-.44.825-.385 1.21a21.91 21.91 0 0 0-2.805 1.32c-.165-.44 0-.935.44-1.43Zm-5.72 4.235c.66-.715 1.43-1.375 2.2-1.98-.165.495-.11.935.055 1.265-.77.66-1.54 1.375-2.2 2.2-.275-.33-.33-.88-.055-1.485Zm2.64-2.365c.77-.605 1.65-1.1 2.475-1.595-.22.44-.275.88-.165 1.265-.88.55-1.76 1.1-2.53 1.76-.165-.33-.11-.88.22-1.43Zm6.38-3.19c.935-.275 1.87-.495 2.86-.605-.385.33-.605.715-.605 1.1-1.045.165-2.035.44-2.97.77 0-.385.22-.825.715-1.265Zm7.095-.77c.99.055 1.98.22 2.915.385-.495.165-.825.495-.935.825a18.864 18.864 0 0 0-3.08-.275c.11-.385.44-.715 1.1-.935ZM92.07 87.56c-2.475.165-4.895.33-7.37.44-.605 0-1.21.055-1.815.055s-1.21-.11-1.815-.22c-1.21-.22-2.365-.605-3.52-.99-1.155-.385-2.31-.77-3.465-1.265-1.155-.44-2.31-.88-3.41-1.375 2.2 1.045 4.51 2.035 6.82 2.805 1.155.385 2.365.77 3.575.99.605.11 1.21.22 1.87.22.605 0 1.21 0 1.87-.055 2.475-.11 4.895-.33 7.37-.495 2.42-.22 4.895-.44 7.315-.715-2.53.275-4.95.44-7.425.605Zm40.645 1.265c.44-.275.825-.605 1.155-.99a8.287 8.287 0 0 0 1.375-2.31c.275-.88.495-1.815.55-2.695.22.11.44.165.66.22-.55 2.97-1.87 4.785-3.74 5.775Zm3.355-8.305c.77-.715 2.09-1.87 3.245-3.135a1.42 1.42 0 0 1 1.155.165c.22.165.55.495.495 1.155a33.14 33.14 0 0 1-3.575 3.3c-.055-.33-.165-.77-.44-1.045-.22-.275-.55-.385-.88-.44Zm4.73-4.84c.11 0 .275.055.385.165.11-.22.22-.495.275-.715l.165-.66c-.22.33-.495.77-.825 1.21ZM40.315 116.985l.165.165c.055.66.11 1.32.275 1.98-.22-.715-.33-1.43-.44-2.145Zm-.165-4.18c.055-.99.22-1.98.385-2.915.165.495.495.77.825.935-.165.99-.275 2.035-.275 3.08-.385-.11-.77-.495-.935-1.1Zm.495-3.52c.22-.935.55-1.87.88-2.805.11.495.33.88.66 1.1-.33.99-.605 1.98-.825 2.97-.33-.165-.605-.605-.715-1.265Zm1.155-3.41c.385-.88.825-1.76 1.375-2.585 0 .495.165.935.44 1.155a21.91 21.91 0 0 0-1.32 2.805c-.275-.22-.495-.715-.495-1.375Zm1.705-3.08a18.654 18.654 0 0 1 1.815-2.31c-.055.495.055.935.275 1.21-.66.77-1.265 1.65-1.76 2.53-.33-.33-.44-.825-.33-1.43Zm7.425-15.18c-1.485.605-2.42 1.155-2.915 1.485l2.365 3.41c.11-.055.165-.055.275-.11l-1.375-1.98c5.39-2.035 10.34-2.585 14.795-2.09 2.915.275 5.665 1.045 8.195 1.98.11-.11.22-.165.33-.165-.385-.165-.77-.33-1.21-.44-1.21-.44-2.365-.77-3.575-1.1a39.619 39.619 0 0 0-3.685-.66c-1.265-.165-2.475-.165-3.74-.11a42.903 42.903 0 0 0-3.74.33c-2.475.385-4.95.99-7.37 1.76 2.31-1.045 4.73-1.87 7.26-2.365 1.265-.275 2.53-.385 3.795-.495 1.265-.055 2.585-.055 3.85.11 1.265.165 2.53.385 3.795.715 1.265.33 2.475.715 3.63 1.21.495.22 1.045.44 1.54.66a.62.62 0 0 1-.165-.605 17.327 17.327 0 0 0-1.43-.715c-.275-.165-.605-.275-.935-.385-.33-.11-.605-.22-.935-.33l-.935-.33c-.33-.11-.66-.165-.99-.275-.66-.165-1.32-.275-1.98-.44l-.275-.055-.275-.055-.495-.055-.99-.11H65.78c.66.055 1.375.055 2.035.165.33.055.66.055 1.045.11l.99.22h.055a2.607 2.607 0 0 1-.55-.55 30.94 30.94 0 0 0-6.93-.77c-5.665.22-9.405 1.21-11.495 2.035Zm37.455-2.145c1.485-.11 2.915-.165 4.4-.22 1.485-.055 2.915-.055 4.4.11.715.11 1.485.165 2.145.495.165.11.33.165.495.33.165.165.22.33.275.55 0 .22-.055.44-.165.605-.11.165-.275.275-.44.385-.33.22-.66.385-1.045.495-.33.11-.715.22-1.045.33-.715.165-1.43.275-2.145.385-1.43.22-2.915.33-4.4.385l-4.4.165h-4.4c1.485 0 2.915-.055 4.4-.11 1.485-.055 2.915-.11 4.4-.22 1.43-.11 2.915-.22 4.345-.44.715-.11 1.43-.22 2.145-.385.33-.11.715-.165 1.045-.33.33-.11.66-.275.935-.44.275-.165.55-.44.495-.77 0-.33-.275-.55-.605-.715h-.055c-2.97.275-12.98 1.32-16.335 1.32-3.19 0-10.45-3.08-12.485-3.96.44-.55 1.21-.88 2.145-.935h.11c1.76 0 7.15 3.19 11.385 3.19 1.485 0 2.97-.11 4.4-.22Zm40.92-10.67c4.785 0 6.82 1.54 7.26 4.18-.935.88-1.705 1.485-1.705 1.54l-.165.11v.165c0 .11.055 1.1.66 1.65l.055.055c-.165.935-.44 1.815-.825 2.695-.33.715-.825 1.43-1.375 1.925a6.2 6.2 0 0 1-1.98 1.21 4.756 4.756 0 0 1-1.265.33c2.75-.77 4.51-2.97 4.51-7.48 0-2.475-1.375-4.015-5.225-4.29.605.11 1.265.275 1.815.55.66.33 1.21.825 1.54 1.43.33.66.385 1.375.33 2.035-.055-.66-.22-1.32-.605-1.87a3.326 3.326 0 0 0-1.485-1.155c-.605-.22-1.265-.33-1.925-.385-.33-.055-.66-.055-.99-.055h-.99c-2.695.11-5.335.44-7.975 1.1-2.585.605-5.115 1.54-7.535 2.695a44.284 44.284 0 0 0-3.52 1.98c-.55.385-1.1.77-1.65 1.21-.275.22-.495.44-.77.66-.11.11-.22.22-.33.385-.055.055-.11.11-.165.22a.417.417 0 0 0-.11.22c0-.165.11-.33.165-.495.11-.165.22-.275.275-.44.22-.275.44-.55.66-.77.495-.495.99-.935 1.54-1.375.275-.22.605-.44.935-.66-3.3 2.035-5.115 3.96-5.115 4.455 0 .99 1.65 2.09 5.555 2.31h-.495c-.825 0-1.65 0-2.475-.11-.825-.11-1.65-.22-2.42-.55-.385-.11-.77-.33-1.1-.605-.33-.275-.605-.605-.605-1.045-.055.44.165.88.495 1.21.33.33.66.605 1.045.77.66.385 1.43.605 2.145.77-3.19-.44-4.62-1.595-4.62-2.695.165-1.21 10.835-11.88 28.435-11.88Zm20.79 7.865h.11c-.55-.11-1.1-.22-1.65-.385l.11.22c.44.055.935.11 1.43.165Zm-.33 2.255c.11 0 .22.055.33.055h.385v-.495h-.33c-.11 0-.275 0-.385-.055-.11 0-.165-.055-.275-.055l.275.55Zm-1.375-2.97-2.695-5.885c1.265-.825 2.97-1.265 4.785-1.375v.275c-1.32.055-2.64.33-3.85.825l2.31-.33c.495 0 .99 0 1.485.055v6.435c-.605.055-1.265.055-2.035 0Zm.495-7.755a5.945 5.945 0 0 0-2.805 1.43c.715-.825 1.705-1.375 2.75-1.705.275-.055.55-.165.77-.22.11 0 .275-.055.385-.055l.22-.055h.275v.385h-.44c-.11 0-.275.055-.385.055-.22.055-.495.11-.77.165Zm2.64 0-.165-.165c-.055-.055-.165-.11-.22-.165v11c.11-.055.22-.165.33-.275l.055-.055v-10.34Zm.77 7.095c.22-2.145.055-4.345-.495-6.435v9.075c0-.055.055-.165.055-.22l.165-.825c.11-.495.22-1.045.275-1.595Zm12.43 9.075.275.77c-.99-.055-1.98-.11-2.915-.11-3.245 0-6.215.44-8.91 1.32l-.715-1.54c.385-.11.77-.275 1.155-.33 5.17-1.265 9.955-.385 11.11-.11Zm-22.495 9.845.22-1.54c.495-.605 2.97-3.63 6.325-5.885l.55 1.265c-2.64 1.485-5.005 3.52-7.095 6.16Zm-8.305 19.03c-1.155 4.125-5.06 6.985-9.405 6.71l-25.685-1.485a4.04 4.04 0 0 1-3.465-2.475l-3.025-7.26h-30.47l.605-.99c1.925.055 3.85.11 5.775.11 2.64.055 5.225.055 7.865.055 2.64 0 5.225 0 7.865-.055 2.64-.055 5.225-.11 7.865-.22-2.64-.11-5.225-.165-7.865-.22-2.64-.055-5.225-.055-7.865-.055-2.64 0-5.225 0-7.865.055-1.925 0-3.795.055-5.72.11l.275-.44h27.665c1.045 0 2.09.165 3.08.44l3.245 7.755c.385.88 1.21 1.43 2.09 1.485l25.685 1.485c3.575.22 6.875-2.145 7.81-5.61l10.67-38.115c0-.055.055-.165.11-.22l.99 2.145-10.23 36.795Zm-40.48 1.045h.33l.88 2.09.165.33c-.605-.55-.99-1.32-1.375-2.42Zm-1.815-2.145c.275 0 .495-.22.495-.495s-.22-.44-.495-.44-.44.22-.44.44c-.055.275.165.495.44.495Zm-7.37-.825c0 .275.22.44.495.44s.44-.22.44-.44c0-.275-.22-.44-.44-.44-.275 0-.495.165-.495.44ZM60.555 92.73c3.41 0 6.655.825 9.515 2.2.11 0 .22.055.33.165h.055l.11-.165-.275-.33c-.275-.33-.275-.825.055-1.1a.5.5 0 0 1 .385-.165c-5.5-1.98-12.485-2.695-20.35.33-.22.11-.495 0-.66-.22l-2.915-4.18c-.165-.22-.11-.495.055-.715.165-.165 4.125-3.905 15.565-3.905 2.42 0 4.51.22 6.38.605v-.11c0-2.2 1.32-3.52 3.63-3.74h.165c.88 0 2.09.495 3.795 1.155 2.31.935 5.17 2.035 7.535 2.035.99 0 2.42-.055 3.905-.165 1.98-.11 4.18-.22 6.215-.22 1.87 0 3.3.11 4.345.33.715.165 1.485.44 2.035.935.33-.495.88-1.1 1.76-1.98 1.1-1.045 2.97-2.585 5.775-4.235 4.4-2.585 11.715-5.665 21.285-5.665 2.86 0 4.95.55 6.325 1.65.11.055.165.165.275.22.055-.33.275-.66.66-.715l2.585-.66c.495-.11.935.165 1.045.66l.055.165.33-.495c0-.275.055-.55.11-.77.22-.55.605-.935 1.1-1.155.495-.22 1.1-.22 1.595-.055.495.22.935.605 1.155 1.1l.715 1.54c1.045-1.265 2.695-2.035 4.84-2.255h.22c.935 0 1.705.605 1.925 1.43.275 1.045.605 2.695.605 4.84s-.33 3.85-.605 4.84c-.22.88-1.045 1.485-1.925 1.485h-.33l1.98 4.29c.44-.165.88-.275 1.32-.385 6.27-1.54 11.715-.11 11.935-.055.165.055.33.165.385.33l.605 1.815a.528.528 0 0 1-.11.495.5.5 0 0 1-.44.22c-4.565-.44-8.58-.055-12.1 1.045l.275.55c2.2-.77 4.565-1.155 7.04-1.155 11.825 0 21.395 9.57 21.395 21.395s-9.57 21.395-21.395 21.395-21.395-9.57-21.395-21.395c0-7.865 4.235-14.74 10.56-18.425l-.275-.605c-3.025 1.705-5.665 4.18-7.92 7.48a.5.5 0 0 1-.44.22c-.055 0-.11 0-.22-.055-.22-.11-.385-.33-.33-.55l.495-3.74c0-.11.055-.165.11-.275.055-.055 1.375-1.815 3.52-3.74 1.1-.99 2.2-1.87 3.3-2.585l-.22-.495c-1.32-1.375-2.31-2.145-3.74-2.365l-1.375.88-8.305 29.645c-1.21 4.29-5.17 7.315-9.68 7.315h-.55L98.67 125.18c-.825-.055-1.595-.275-2.255-.715-3.08-.55-4.235-1.32-5.28-4.455l-10.01-.66a21.31 21.31 0 0 1-20.68 16.005c-11.825 0-21.395-9.57-21.395-21.395.165-11.66 9.735-21.23 21.505-21.23Z" fill="#9C9C9C"/></svg>