<svg width="220" height="220" fill="none" xmlns="http://www.w3.org/2000/svg"><path fill-rule="evenodd" clip-rule="evenodd" d="m111.1 49.94.385 88.88 4.235-88.605h.165l-3.465 88.66 8.03-88.055h.165l-7.26 88.11 11.77-87.175.165.055-11 87.23 15.4-85.965.165.055-14.685 86.02 18.975-84.425.165.055-18.26 84.645 22.33-82.61.165.11-21.56 82.775 25.575-80.52.165.11-24.86 80.685 28.6-78.155.165.11-27.885 78.32 31.405-75.515.165.165-30.745 75.735 34.045-72.71.165.165-33.33 72.93 36.355-69.685.165.22-35.75 69.905 38.445-66.495.165.22-37.785 66.715 40.26-63.14.165.275-39.655 63.415 41.8-59.675.165.33L123.585 143l43.065-56.21.165.33-42.46 56.32 44-52.47.11.385-43.395 52.69 44.66-48.785.11.44-44.055 49.005 44.99-45.1c.055.165.055.33.11.44l-44.44 45.265 45.045-41.415c0 .165.055.33.055.495l-44.495 41.635 44.825-37.73c0 .165 0 .33.055.55l-44.22 37.895 44.33-34.155v.605l-43.725 34.32 43.56-30.635c0 .22-.055.385-.055.605l-42.955 30.8 42.57-27.28-.11.66-42.075 27.335 41.305-24.035c-.055.22-.11.44-.165.715l-40.7 24.145 39.875-20.9c-.055.275-.165.495-.22.715l-39.215 21.01 38.225-17.985c-.11.275-.165.495-.275.77l-37.565 18.095 36.465-15.29c-.11.275-.22.55-.33.77L130.9 152.35l34.485-12.705c-.11.275-.275.55-.385.825l-33.77 12.76 32.45-10.395-.495.825-31.68 10.45 30.36-8.305c-.165.275-.385.55-.55.825l-29.535 8.36 28.16-6.38c-.22.275-.44.55-.66.88L132 155.925l25.96-4.73c-.22.275-.495.55-.715.825l-25.08 4.785 23.76-3.245c-.275.275-.495.55-.77.825l-22.825 3.355 21.56-2.035c-.275.275-.55.55-.88.825l-20.57 2.09 19.415-.99c-.33.275-.605.55-.935.825l-18.425 1.1 17.27-.11c-.33.275-.66.55-.99.77l-16.335.275 15.29.55c-.33.275-.66.495-1.045.77l-14.3-.385 13.365 1.045c-.33.275-.715.495-1.045.715l-12.375-.88 11.55 1.43c-.385.22-.715.495-1.1.715l-10.56-1.21 9.845 1.65-1.155.66-8.855-1.43 8.25 1.76-1.155.66-7.26-1.485 6.765 1.76c-.385.22-.77.385-1.155.605l-5.83-1.43 5.445 1.65c-.385.165-.77.385-1.21.55l-4.51-1.32 4.18 1.485c-.385.165-.77.33-1.21.55l-3.3-1.155 3.08 1.21c-.385.165-.825.33-1.21.495l-2.2-.88 2.035.935c-.385.165-.825.33-1.21.44l-1.21-.55 1.155.55c-.385.165-.825.275-1.21.44l-.33-.165.33.165a61.545 61.545 0 0 1-20.24 3.41c-6.16 0-12.1-.88-17.71-2.585l.275-.165-.33.165c-.385-.11-.825-.275-1.21-.385l1.1-.605-1.155.55c-.385-.11-.825-.275-1.21-.385l1.98-.99-2.145.935c-.385-.165-.825-.275-1.21-.44l2.97-1.375-3.19 1.265c-.385-.165-.825-.33-1.21-.495l4.07-1.65-4.4 1.485c-.385-.165-.825-.33-1.21-.495l5.335-1.87-5.72 1.705c-.385-.165-.825-.385-1.21-.55l6.655-2.035-7.15 1.815c-.385-.22-.77-.385-1.155-.605l8.14-2.09-8.745 1.76c-.385-.22-.77-.385-1.155-.605l9.735-2.09-10.45 1.65-1.155-.66 11.44-1.925-12.265 1.43c-.385-.22-.715-.44-1.1-.66l13.255-1.65-14.19 1.045c-.33-.22-.715-.495-1.045-.715l15.18-1.21-16.225.44c-.33-.22-.66-.495-.99-.77l17.215-.66-18.37-.275c-.33-.275-.66-.495-.935-.77l19.36.11-20.625-1.21c-.275-.275-.605-.55-.88-.77l21.56 1.1-22.88-2.31-.825-.825 23.76 2.2-25.19-3.685c-.275-.275-.495-.55-.77-.825l26.07 3.575-27.5-5.225-.66-.825 28.325 5.17-29.81-7.04c-.22-.275-.385-.55-.605-.825l30.58 6.93-32.01-9.02a7.166 7.166 0 0 0-.55-.825L90.75 154l-34.21-11.275c-.165-.275-.275-.55-.44-.77l34.925 11.165-36.3-13.75c-.11-.275-.275-.495-.385-.77l37.015 13.64-38.225-16.39c-.11-.275-.22-.495-.33-.77l38.885 16.28-40.04-19.25c-.11-.22-.165-.495-.22-.715l40.645 19.14-41.635-22.275c-.055-.22-.11-.44-.165-.715l42.24 22.165-43.23-25.41c-.055-.22-.11-.44-.11-.66l43.615 25.355-44.22-28.875-.055-.605 44.77 28.71-45.1-32.34c0-.22 0-.385-.055-.605l45.705 32.175-45.76-35.915v-.55l46.365 35.695-46.2-39.545c0-.165.055-.33.055-.495l46.75 39.325-46.255-43.285.055-.44L95.7 145.31 49.61 98.34c.055-.165.055-.275.11-.44l46.64 46.75-45.595-50.71c.055-.11.055-.275.11-.385l46.2 50.49L52.14 89.65l.11-.33 45.375 54.175-43.67-58.025.165-.33 44.33 57.805L56.1 81.4l.165-.275L99.22 142.45 58.575 77.44l.165-.22 41.25 64.735L61.27 73.7l.165-.22 39.325 68.035-36.465-71.39.165-.22 37.125 71.115L67.65 66.715l.165-.165 34.65 74.085-31.295-77 .165-.165 31.955 76.78-28.325-79.475.165-.11 29.04 79.31L78.98 58.3l.165-.11 25.905 81.51-21.89-83.655.165-.11 22.605 83.49L87.56 54.12l.165-.055 19.14 85.195L92.07 52.58l.165-.055 15.565 86.57L96.69 51.37l.165-.055 11.825 87.615-7.26-88.385h.165l8.03 88.385-3.465-88.88h.165l4.235 88.77.385-88.88h.165Z" fill="#9C9C9C"/><path fill-rule="evenodd" clip-rule="evenodd" d="M110 47.905c35.31 0 63.965 28.655 63.965 63.965S145.31 175.835 110 175.835 46.035 147.18 46.035 111.87 74.69 47.905 110 47.905Zm0-2.365c-36.63 0-66.33 29.7-66.33 66.33 0 36.63 29.7 66.33 66.33 66.33 36.63 0 66.33-29.7 66.33-66.33 0-36.63-29.7-66.33-66.33-66.33Z" fill="#9C9C9C"/><path fill-rule="evenodd" clip-rule="evenodd" d="M110 43.23c37.95 0 68.695 30.745 68.695 68.695 0 37.95-30.745 68.695-68.695 68.695-37.895 0-68.695-30.745-68.695-68.695 0-37.95 30.8-68.695 68.695-68.695Zm0-4.18c-40.205 0-72.82 32.615-72.82 72.82 0 40.205 32.615 72.82 72.82 72.82 40.205 0 72.82-32.615 72.82-72.82 0-40.205-32.615-72.82-72.82-72.82Z" fill="#9C9C9C"/><path fill-rule="evenodd" clip-rule="evenodd" d="M187.605 56.045c.385 3.74.88 7.425 1.21 11.11.33 3.685.66 7.37 1.045 11-25.52-7.37-52.58-12.1-80.3-11.99-27.72.165-54.835 4.95-80.575 11.99.385-3.52.88-7.15 1.32-10.725.44-3.63.99-7.315 1.54-10.945-1.925-2.805-3.795-5.5-5.775-8.195-1.925-2.695-3.905-5.28-5.885-7.92 28.71-8.47 59.07-13.2 90.035-13.31 30.91-.055 61.105 4.455 89.65 12.265a409.758 409.758 0 0 0-6.215 8.36 213.978 213.978 0 0 0-6.05 8.36Z" fill="#9C9C9C"/><path fill-rule="evenodd" clip-rule="evenodd" d="M186.175 55.605c.44 3.41.825 6.875 1.21 10.34.385 3.41.66 6.875.99 10.285-25.135-6.985-51.7-11.495-78.815-11.33-27.17.165-53.79 4.73-79.145 11.385.385-3.355.825-6.71 1.265-10.12.495-3.41.99-6.82 1.54-10.175-1.76-2.64-3.63-5.28-5.39-7.81a434.418 434.418 0 0 0-5.445-7.425c28.105-7.81 57.695-12.375 87.78-12.43 30.03-.055 59.51 4.235 87.395 11.55a259.616 259.616 0 0 0-5.775 7.81c-1.87 2.64-3.74 5.225-5.61 7.92Z" fill="#fff"/><path fill-rule="evenodd" clip-rule="evenodd" d="M25.355 41.36c27.28-6.93 55.77-11.165 84.755-11.22 28.93-.11 57.31 3.96 84.37 10.56-1.705 2.365-3.465 4.675-5.115 7.04-1.705 2.42-3.41 4.84-5.06 7.315.44 3.025.825 6.105 1.21 9.185.33 3.08.66 6.215.935 9.295-24.585-6.38-50.435-10.615-76.89-10.45-26.4.11-52.36 4.455-77.165 10.615.385-3.025.825-6.105 1.265-9.185.44-3.025.935-6.05 1.485-9.13-1.595-2.42-3.245-4.785-4.895-7.205-1.595-2.31-3.245-4.565-4.895-6.82Z" fill="#9C9C9C"/><path fill-rule="evenodd" clip-rule="evenodd" d="m57.2 50.6.66 4.95c.22 1.705.385 3.41.66 5.06.055.495.11.935.22 1.43.055.33-.165.605-.495.66-.77.11-1.54.275-2.31.385-.275.055-.495-.165-.495-.44l-.33-2.475c-.11-.77-.22-1.595-.33-2.365-.275-1.815-.55-3.575-.77-5.39-.11-1.045-.275-2.09-.385-3.135 0-.11 0-.165-.055-.275-.055-.055-.165-.055-.275 0-.055 0-.11.11-.11.22 0 .495-.055.935-.055 1.375 0 .935-.055 1.925-.11 2.86l-.165 3.63c-.055 1.045-.055 2.09-.055 3.135 0 .44-.055.88-.055 1.32 0 .33-.22.55-.495.66-.44.11-.88.22-1.375.275-.22.055-.495.11-.715.165-.385.11-.66 0-.77-.385-.22-.55-.385-1.1-.605-1.65-.385-1.045-.77-2.145-1.155-3.245-.44-1.21-.88-2.42-1.32-3.685-.33-.99-.66-1.98-1.045-2.915 0-.055-.055-.11-.055-.165-.055-.11-.165-.11-.275-.055-.11.055-.165.055-.165.165 0 .055 0 .165.055.22.22 1.32.44 2.64.66 3.905.165.825.275 1.595.385 2.42.33 2.09.77 4.18 1.1 6.325.055.22.055.385.11.605.055.385-.11.605-.495.715-.715.165-1.43.33-2.09.44-.33.055-.55-.11-.605-.44-.11-.55-.22-1.155-.33-1.76-.44-2.42-.825-4.785-1.265-7.205-.55-3.19-1.155-6.435-1.705-9.625-.22-1.375-.495-2.75-.715-4.125-.055-.44.055-.66.55-.77 1.265-.275 2.585-.605 3.905-.88.275-.055.55.165.66.385.275.825.66 1.65.935 2.42.605 1.705 1.21 3.41 1.815 5.17.44 1.21.825 2.42 1.32 3.63.165.44.33.935.495 1.43.055.165.165.275.33.22.22-.055.22-.22.22-.33 0-1.32.055-2.585.055-3.905 0-.715.11-1.485.11-2.255 0-.715 0-1.485.055-2.2.055-.825.055-1.65.11-2.42.055-.935.11-1.815.11-2.75 0-.495.165-.605.605-.715 1.265-.22 2.53-.44 3.85-.66.495-.055.715.11.77.55.11.88.22 1.705.33 2.585.165 1.1.275 2.145.44 3.19.22 1.43.385 2.86.55 4.29-.055.55 0 .99.11 1.43ZM65.065 37.29c.77-.11 1.54-.22 2.31-.275.385-.055.66.055.935.22.77.55 1.485 1.1 2.255 1.705.275.22.44.495.44.825.11.99.11 1.98.275 2.915.11.66.11 1.375.165 2.09.055.99.22 1.925.275 2.915.11 1.045.165 2.035.275 3.08.11 1.43.275 2.86.385 4.235.055.88.11 1.76.22 2.64 0 .33-.11.55-.275.77-.605.66-1.155 1.375-1.705 2.035-.275.33-.55.495-.99.55-1.375.165-2.75.33-4.07.55-.33.055-.66-.055-.935-.22a50.741 50.741 0 0 0-2.09-1.54c-.275-.22-.495-.495-.55-.88-.165-1.375-.275-2.805-.44-4.18-.165-1.375-.33-2.695-.495-4.07l-.33-2.64c-.11-.99-.275-1.925-.385-2.86-.165-1.32-.33-2.64-.495-4.015-.055-.385.11-.77.385-1.1.495-.55.99-1.1 1.485-1.705.385-.44.77-.715 1.43-.77a20.26 20.26 0 0 1 1.925-.275Zm3.355 11.77c-.055-.66-.165-1.265-.22-1.87-.165-1.98-.385-3.905-.605-5.885-.055-.44-.605-.99-1.21-.99-.66.055-1.32.165-1.98.275-.66.11-1.1.715-1.045 1.265.165 1.32.275 2.64.385 3.96l.33 2.475c.165 1.375.275 2.75.44 4.125.165 1.595.385 3.245.55 4.84.055.55.715 1.155 1.32 1.045.605-.11 1.21-.165 1.815-.275.44-.055.99-.66.935-1.155-.055-.77-.11-1.54-.22-2.31-.165-1.87-.33-3.685-.495-5.5ZM77.825 49.665c-.11-1.54-.22-3.025-.33-4.51l-.33-4.455c0-.275-.055-.55-.055-.825-.055-.44-.275-.66-.77-.605-.825.055-1.595.11-2.42.22-.55.055-.825-.165-.825-.605l-.165-1.98c0-.33.22-.55.55-.605 1.485-.11 2.915-.275 4.4-.385.385 0 .825-.11 1.265-.165 1.485-.165 2.97-.165 4.455-.275.55-.055.715.11.715.605.055.605.055 1.21.11 1.815.055.44-.22.66-.66.715l-2.475.165c-.55.055-.715.22-.715.77 0 .77.11 1.595.165 2.365 0 .66.11 1.265.11 1.925.055 1.1.11 2.255.22 3.355.055.77.055 1.54.165 2.255.055.935.11 1.87.22 2.805.055.88.11 1.76.165 2.585 0 .22.055.495.055.77 0 .22 0 .495.055.715.11.88.165 1.815.165 2.695 0 .495-.22.715-.66.715-.66 0-1.32.165-1.925.165-.495.055-.715-.11-.715-.605l-.495-6.6c-.11-.88-.22-1.98-.275-3.025ZM92.29 35.09c.77-.055 1.54-.11 2.31-.11.385 0 .715.11.99.33.715.55 1.375 1.21 2.09 1.815.275.22.385.495.385.88 0 .99 0 1.925.055 2.915.055.66 0 1.375.055 2.09 0 .99 0 1.925.055 2.915 0 1.045.055 2.035.055 3.08 0 1.43.055 2.805.055 4.235 0 .88.055 1.76.055 2.64 0 .275-.165.55-.385.715-.66.605-1.265 1.265-1.87 1.925-.275.275-.605.44-1.045.495-1.375.055-2.805.165-4.18.22-.33 0-.66-.055-.88-.275-.715-.55-1.375-1.155-2.035-1.705-.275-.22-.495-.495-.495-.935-.055-1.375-.055-2.75-.165-4.18-.055-1.375-.11-2.695-.22-4.07-.055-.88-.11-1.76-.11-2.64-.055-.99-.11-1.925-.165-2.86-.055-1.32-.11-2.64-.165-4.015 0-.385.165-.77.495-1.045.495-.495 1.1-1.045 1.595-1.54.385-.44.825-.66 1.54-.66.66-.165 1.32-.22 1.98-.22Zm2.475 11.88c0-.66-.055-1.265-.055-1.87-.055-1.98-.11-3.905-.165-5.83 0-.44-.495-1.045-1.1-1.045-.66 0-1.375.055-2.035.11-.66.055-1.155.605-1.155 1.21.055 1.32.055 2.64.11 3.96l.165 2.475c.055 1.375.055 2.75.11 4.125.055 1.595.165 3.245.165 4.84 0 .605.605 1.155 1.21 1.1.605-.055 1.21-.11 1.87-.165.44-.055.99-.605.99-1.1 0-.77-.055-1.54-.055-2.31.055-1.87 0-3.685-.055-5.5ZM105.49 54.01v4.07c0 .33-.22.55-.55.55-.715 0-1.43.055-2.2.055-.385 0-.605-.22-.605-.605 0-.66-.055-1.265 0-1.925V51.81c0-.99 0-1.925-.055-2.86v-2.695c0-1.65-.055-3.3-.055-4.95V35.365c0-.385.165-.605.715-.605 2.365-.055 4.73-.11 7.15-.11.495 0 .88.165 1.21.44.55.495 1.1 1.045 1.65 1.54.385.33.605.715.605 1.265L113.19 44c-.055.77 0 1.54-.055 2.255 0 .33-.11.605-.385.825-.495.385-.88.825-1.375 1.265a.912.912 0 0 0-.33.88c.44 2.09.825 4.235 1.21 6.38.165.77.33 1.54.44 2.31.055.385-.165.605-.55.605h-2.2c-.495 0-.66-.165-.77-.605-.275-1.155-.44-2.31-.66-3.465-.275-1.54-.605-3.08-.88-4.565-.11-.44-.385-.605-.825-.605-.22 0-.495 0-.715.055-.385 0-.55.22-.55.55v3.575c-.055.22-.055.385-.055.55Zm.055-11.99v3.63c0 .33.275.55.605.55.77 0 1.595-.055 2.365-.055.55 0 1.265-.495 1.265-1.155s.055-1.265.055-1.925c0-1.375.055-2.805.055-4.235 0-.495-.66-1.155-1.265-1.1-.77.055-1.54.055-2.255 0-.44 0-.715.22-.715.605-.11 1.265-.11 2.475-.11 3.685ZM120.175 46.75c-.055.99-.11 1.98-.165 3.025-.055.88-.055 1.76-.11 2.64 0 .605 0 1.21-.055 1.815-.055.55.495 1.21 1.1 1.21.55 0 1.21 0 1.76.055s1.155-.55 1.21-1.045c.055-1.155.165-2.31.22-3.465 0-.385.22-.55.605-.495.715 0 1.43 0 2.2.11.44.055.66.22.605.605-.055 1.045-.11 2.145-.22 3.19-.055.44-.11.935-.11 1.43 0 .385-.165.66-.44.88-.66.55-1.375 1.21-2.035 1.76-.33.275-.715.385-1.1.33-.935-.11-1.925-.11-2.86-.165-.44 0-.88-.055-1.32-.055-.33 0-.605-.11-.825-.33-.55-.605-1.155-1.155-1.76-1.705-.33-.33-.495-.66-.495-1.155l.165-5.775c.055-2.365.165-4.73.275-7.15l.165-4.62c0-.44.165-.825.55-1.1.66-.55 1.375-1.155 2.035-1.705.22-.22.605-.33.935-.33l4.62.165c.385 0 .715.165.99.44l1.815 1.815c.275.275.385.605.385.99-.11 1.54-.165 3.025-.275 4.565 0 .44-.275.66-.77.66-.715 0-1.43-.055-2.145-.055-.385 0-.605-.22-.605-.605.055-.66.11-1.32.11-1.98 0-.44.055-.935.055-1.43.055-.66-.605-1.21-1.21-1.21-.55 0-1.155-.055-1.76-.11-.55-.055-1.32.495-1.32 1.1 0 .77-.11 1.54-.11 2.31a89.954 89.954 0 0 0-.11 3.85c.055.55 0 .99 0 1.54ZM133.155 53.845c.11-1.485.22-2.97.385-4.455.055-.44 0-.88-.11-1.265-.385-1.54-.825-3.08-1.21-4.62-.44-1.705-.935-3.355-1.375-5.005-.22-.88-.495-1.76-.715-2.64 0-.11-.055-.22-.055-.33-.055-.275.165-.44.495-.44.825 0 1.705.055 2.585.11.275 0 .605.275.66.55.22.88.385 1.705.55 2.53.22.88.495 1.76.605 2.64.11.77.33 1.43.495 2.2 0 .11.11.275.275.275.22 0 .275-.11.385-.275.44-1.1.88-2.145 1.32-3.19.495-1.265 1.045-2.475 1.595-3.74.165-.44.495-.66 1.045-.605.77.055 1.485.165 2.31.22.385 0 .55.22.385.55l-1.155 2.475c-.44.99-.935 2.035-1.375 3.08-.495 1.045-.99 2.09-1.43 3.19-.33.77-.715 1.54-1.045 2.31-.165.44-.385.825-.55 1.265-.165.385-.22.77-.22 1.155-.11 1.485-.275 2.915-.385 4.345-.11 1.485-.275 3.025-.385 4.51-.055.495-.275.715-.77.66-.66-.055-1.375-.11-2.035-.165-.385 0-.55-.275-.55-.605.055-1.1.165-2.2.275-3.3a6.212 6.212 0 0 1 0-1.43ZM146.795 48.345c-.11.99-.275 1.98-.44 3.025-.11.88-.165 1.76-.275 2.64-.055.605-.11 1.21-.22 1.815-.11.55.385 1.265 1.045 1.265.55.055 1.155.11 1.705.165.55.055 1.21-.44 1.265-.99l.495-3.465c.055-.385.275-.55.605-.495.715.055 1.43.11 2.145.22.385.055.605.275.55.66-.165 1.045-.275 2.145-.44 3.19-.055.44-.165.935-.165 1.375-.055.385-.22.66-.495.88l-2.145 1.65c-.33.22-.715.33-1.155.275-.935-.165-1.87-.22-2.805-.33l-1.32-.165c-.33 0-.605-.165-.825-.44-.495-.66-1.045-1.265-1.595-1.87-.33-.33-.44-.715-.385-1.21.165-1.925.44-3.85.605-5.775.22-2.365.495-4.73.77-7.15.165-1.54.385-3.08.495-4.62a1.7 1.7 0 0 1 .605-1.1c.715-.55 1.43-1.045 2.145-1.54.275-.165.605-.33.99-.275 1.485.165 3.025.33 4.565.495.385.055.66.22.935.495.55.66 1.1 1.265 1.65 1.925.275.33.385.605.33 1.045-.22 1.54-.44 3.025-.605 4.565-.055.44-.275.66-.77.605-.715-.055-1.375-.165-2.09-.22-.385-.055-.605-.275-.55-.66.11-.66.22-1.32.275-1.98.055-.44.11-.935.165-1.43.11-.66-.495-1.265-1.1-1.265-.55-.055-1.155-.165-1.705-.22-.55-.055-1.32.385-1.375 1.045-.055.77-.165 1.54-.275 2.31-.165 1.265-.275 2.585-.44 3.85 0 .66-.11 1.155-.165 1.705ZM157.685 49.555c.22-1.595.44-3.19.715-4.84.275-1.925.605-3.85.88-5.775.055-.275.055-.55.11-.88.055-.33.33-.495.66-.44l2.31.33c.385.055.55.33.495.715-.33 2.145-.66 4.29-1.045 6.49-.385 2.31-.715 4.565-1.1 6.875-.33 2.09-.66 4.18-.99 6.215-.055.44.11.66.495.77 1.32.22 2.695.44 4.07.66.385.055.66.385.55.715-.165.66-.22 1.265-.33 1.925-.055.44-.33.605-.77.55-1.1-.165-2.145-.33-3.3-.495l-2.97-.495c-.385-.055-.66-.165-1.045-.165-.33 0-.605-.33-.495-.77.275-1.98.605-3.96.88-5.94.33-1.87.66-3.63.88-5.445ZM171.105 64.295c-1.265-.275-2.585-.55-3.85-.825-.44-.11-.66-.385-.55-.77.22-.825.33-1.705.495-2.53.22-1.265.44-2.475.66-3.74.22-1.21.385-2.365.605-3.575.165-.825.33-1.595.495-2.42.165-.99.385-2.035.55-3.025.165-.825.275-1.65.44-2.475.165-.715.275-1.485.385-2.255.165-.935.385-1.87.495-2.75.055-.385.275-.495.715-.44 1.32.275 2.585.495 3.905.77 1.485.33 2.97.605 4.51.935.605.11.66.33.605.88-.11.605-.275 1.155-.385 1.76-.055.385-.33.605-.77.495-.55-.165-1.155-.22-1.76-.33-.935-.22-1.87-.385-2.805-.55-.165-.055-.33-.055-.495-.11-.385-.055-.66 0-.715.44-.11.66-.275 1.375-.385 2.035-.22 1.1-.44 2.255-.66 3.355-.11.495.055.77.605.88 1.045.165 2.09.44 3.135.66.495.11.605.275.495.77-.11.605-.165 1.21-.385 1.87-.11.495-.33.605-.825.495-.495-.11-1.045-.22-1.54-.33-.275-.055-.55-.11-.825-.22a2.207 2.207 0 0 0-.825-.165c-.495 0-.605.11-.715.55l-.825 4.455c-.11.715-.275 1.43-.385 2.09-.055.495.055.715.55.825 1.54.33 3.135.66 4.675 1.045.385.11.55.33.495.77-.11.605-.275 1.155-.385 1.76-.11.605-.33.77-.935.605-1.265-.385-2.53-.66-3.795-.935ZM106.59 162.03c-25.19-.825-50.38-3.96-75.57-9.295l-5.555-1.155 5.28-2.09c7.7-3.025 10.505-3.355 18.81-1.32 3.08.77 5.83-.605 4.29-4.07-2.2-5.005-6.49-5.83-8.745-.33l-.55 1.375-2.915-.77.165-1.485c.495-3.905 1.76-8.36 5.72-10.065 6.93-3.025 16.885 4.18 24.2 1.43 1.045-.385 3.245-1.375 3.3-2.75.11-2.97-6.05-5.94-8.69-5.94-11.605-.055-20.295 10.065-31.405 11.99-5.225.935-10.89-.055-15.565-2.475-8.635-4.455-12.65-12.87-11-22.495l.77-4.455a25.8 25.8 0 0 1-3.465-4.51l-3.96-6.27 6.325 3.905c2.31 1.43 6.325 3.85 9.185 2.86 1.485-.495 2.915-1.925 4.015-2.97 2.09-2.035 4.015-3.96 6.325-5.775 18.535-14.63 36.19-11.33 48.29 10.45 5.005 9.02 17.16 14.52 30.855 16.445v39.765h-.11Zm-95.7-52.14.77 2.585c3.3 11.22 7.92 14.245 19.305 11.66 2.09-.495 5.5-2.695 4.125-5.17s-7.81-1.43-10.065-1.32l-4.125.22 2.75-3.08c4.895-5.445 15.07-6.49 21.67-3.905 2.365.935 9.405 4.015 10.175-.275.66-3.74-5.94-6.82-8.745-7.48-10.615-2.64-13.09.715-21.12 7.095-5.39 4.18-10.56 3.08-14.74-.33Z" fill="#fff"/><path fill-rule="evenodd" clip-rule="evenodd" d="M74.25 106.7C59.4 80.025 40.26 87.45 28.49 96.745c-9.24 7.26-9.46 13.42-21.45 6.05 5.61 8.8 11.935 10.45 17.545 6.05 8.965-7.095 11.605-10.12 22.605-7.425 3.245.77 10.89 4.29 10.01 9.46-.99 5.94-8.525 3.135-12.485 1.595-6.215-2.42-15.565-1.21-19.8 3.465 2.42-.11 9.625-1.43 11.605 2.2 1.925 3.52-1.815 6.875-5.225 7.645-11.715 2.695-17.655-.165-21.34-12.87-2.915 16.94 12.98 25.025 24.64 22.99 10.615-1.87 19.58-12.1 31.735-12.045 6.105 0 16.335 8.14 5.995 11.99-10.89 4.015-26.51-11.165-28.82 7.26 2.75-6.875 9.02-6.215 11.88.275 2.365 5.39-2.53 7.315-6.27 6.435-8.58-2.09-11.165-1.32-17.765 1.265 20.185 13.585 50.16 16.775 75.185 17.545v-44.55c-14.245-2.035-27.005-7.81-32.285-17.38Z" fill="#9C9C9C"/><path fill-rule="evenodd" clip-rule="evenodd" d="M113.41 162.03c25.19-.825 50.38-3.96 75.57-9.295l5.555-1.155-5.28-2.09c-7.7-3.025-10.505-3.355-18.81-1.32-3.08.77-5.775-.605-4.29-4.07 2.2-5.005 6.49-5.83 8.745-.33l.55 1.375 2.915-.77-.165-1.485c-.495-3.905-1.76-8.36-5.72-10.065-6.93-3.025-16.885 4.18-24.2 1.43-1.045-.385-3.245-1.375-3.3-2.75-.11-2.97 6.05-5.94 8.69-5.94 11.605-.055 20.295 10.065 31.405 11.99 5.225.935 10.89-.055 15.565-2.475 8.635-4.455 12.65-12.87 11-22.495l-.77-4.455a25.8 25.8 0 0 0 3.465-4.51l3.96-6.27-6.325 3.905c-2.31 1.43-6.325 3.85-9.185 2.86-1.485-.495-2.915-1.925-4.015-2.97-2.09-2.035-4.015-3.96-6.325-5.775-18.535-14.63-36.19-11.33-48.29 10.45-5.005 9.02-17.16 14.52-30.855 16.445v39.765h.11Zm95.7-52.14-.77 2.585c-3.3 11.22-7.92 14.245-19.305 11.66-2.09-.495-5.5-2.695-4.07-5.17 1.375-2.475 7.81-1.43 10.065-1.32l4.125.22-2.75-3.08c-4.895-5.445-15.07-6.49-21.67-3.905-2.365.935-9.405 4.015-10.175-.275-.66-3.74 5.94-6.82 8.745-7.48 10.615-2.64 13.09.715 21.12 7.095 5.335 4.18 10.505 3.08 14.685-.33Z" fill="#fff"/><path fill-rule="evenodd" clip-rule="evenodd" d="M145.75 106.7c14.85-26.675 33.99-19.25 45.76-9.955 9.24 7.26 9.46 13.42 21.45 6.05-5.61 8.8-11.935 10.45-17.545 6.05-8.965-7.095-11.605-10.12-22.605-7.425-3.245.77-10.89 4.29-10.01 9.46.99 5.94 8.525 3.135 12.485 1.595 6.215-2.42 15.565-1.21 19.8 3.465-2.42-.11-9.625-1.43-11.605 2.2-1.925 3.52 1.815 6.875 5.225 7.645 11.715 2.695 17.655-.165 21.34-12.87 2.86 16.94-12.98 25.025-24.64 22.99-10.615-1.87-19.58-12.1-31.735-12.045-6.105 0-16.335 8.14-5.995 11.99 10.89 4.015 26.51-11.165 28.82 7.26-2.75-6.875-9.02-6.215-11.88.275-2.365 5.39 2.475 7.315 6.27 6.435 8.58-2.09 11.165-1.32 17.765 1.265-20.185 13.585-50.16 16.775-75.185 17.545v-44.55c14.245-2.035 27.005-7.81 32.285-17.38Z" fill="#9C9C9C"/><path fill-rule="evenodd" clip-rule="evenodd" d="M187.385 168.52c1.65 2.365 3.245 4.785 4.895 7.15a569.676 569.676 0 0 0 5.06 7.15c-28.16 6.16-57.53 10.23-87.395 10.175-29.865-.11-59.235-4.345-87.34-10.725a1942.1 1942.1 0 0 0 5.005-6.985c1.65-2.31 3.3-4.675 4.95-6.985-.495-2.97-.935-5.885-1.32-8.855-.385-2.97-.77-5.885-1.045-8.855 25.575 6.6 52.415 11.165 79.805 11.165 27.39 0 54.285-4.565 79.86-11.165-.385 3.025-.77 5.995-1.155 8.965-.44 3.025-.825 5.995-1.32 8.965Z" fill="#9C9C9C"/><path fill-rule="evenodd" clip-rule="evenodd" d="M186.23 168.905c1.485 2.2 3.025 4.455 4.565 6.655 1.54 2.2 3.08 4.455 4.675 6.655-27.61 5.885-56.32 9.79-85.525 9.735-29.205-.055-57.915-4.18-85.525-10.285 1.595-2.2 3.135-4.345 4.675-6.545 1.54-2.145 3.025-4.345 4.565-6.49-.44-2.75-.88-5.5-1.265-8.25-.385-2.75-.77-5.5-1.1-8.25 25.245 6.325 51.645 10.67 78.595 10.67 26.95 0 53.35-4.345 78.65-10.67-.385 2.805-.715 5.61-1.1 8.36-.33 2.805-.77 5.61-1.21 8.415Z" fill="#fff"/><path fill-rule="evenodd" clip-rule="evenodd" d="M33.11 154.22c24.75 5.885 50.6 10.01 76.89 10.01s52.14-4.07 76.89-9.955c-.33 2.53-.715 5.06-1.045 7.535-.385 2.53-.77 5.06-1.155 7.535 1.32 2.035 2.75 4.015 4.07 6.05 1.375 1.98 2.75 4.015 4.125 5.995-26.785 5.5-54.67 9.24-82.94 9.13-28.27-.055-56.155-3.96-82.94-9.68 1.375-1.98 2.805-3.905 4.18-5.885 1.375-1.925 2.695-3.905 4.07-5.885-.44-2.475-.825-4.95-1.155-7.425l-.99-7.425Z" fill="#9C9C9C"/><path fill-rule="evenodd" clip-rule="evenodd" d="M41.47 175.725c-.165.66-.275 1.265-.385 1.925-.055.275-.11.495-.165.77-.055.22-.22.33-.44.275-.495-.11-1.045-.22-1.54-.385-.275-.055-.385-.275-.33-.55.11-.44.165-.88.275-1.265.22-.935.385-1.925.55-2.915.11-.66.275-1.265.385-1.925l.33-1.815.66-3.3c.22-1.045.44-2.09.605-3.135l.165-.825c.055-.22.22-.385.55-.275 1.485.385 2.915.715 4.455 1.045.33.055.55.22.715.44.275.385.605.825.88 1.21.22.275.33.55.275.935-.22 1.375-.44 2.695-.715 4.07-.11.495-.165 1.045-.275 1.54-.055.22-.11.385-.33.495-.385.22-.66.44-1.045.66-.165.11-.33.275-.33.55l.165 4.455c0 .55.055 1.1.11 1.65 0 .275-.165.385-.44.33-.495-.11-1.045-.22-1.54-.275-.33-.055-.44-.22-.495-.495 0-.825-.055-1.595-.055-2.42 0-1.045-.055-2.145-.11-3.245a.536.536 0 0 0-.44-.55c-.165-.055-.33-.055-.495-.11-.22-.055-.385.055-.44.275-.165.77-.275 1.595-.44 2.42-.055.22-.11.33-.11.44Zm1.54-8.03-.495 2.475c-.055.22.11.44.33.495.55.11 1.045.22 1.54.33.385.11.935-.165.99-.605.055-.44.165-.88.22-1.265.165-.935.33-1.925.495-2.86.055-.33-.275-.825-.66-.88-.44-.055-.99-.22-1.43-.33-.275-.055-.44 0-.495.33-.22.66-.385 1.485-.495 2.31ZM51.865 180.895c-.935-.165-1.925-.33-2.86-.55-.33-.055-.495-.22-.44-.495.11-.55.22-1.155.33-1.705.165-.825.275-1.65.44-2.475.11-.77.275-1.595.385-2.365.11-.55.22-1.1.275-1.595.11-.66.22-1.32.33-2.035.11-.55.165-1.1.275-1.65.055-.495.165-.99.22-1.485.11-.66.22-1.21.33-1.87.055-.275.22-.33.495-.275.825.165 1.705.33 2.585.495.99.22 1.98.33 3.025.495.385.055.495.165.44.55-.055.44-.165.825-.165 1.21 0 .275-.22.385-.495.385-.385-.055-.825-.11-1.21-.165-.605-.11-1.265-.22-1.87-.33-.11 0-.22-.055-.33-.055-.275-.055-.44 0-.495.275-.055.44-.165.935-.22 1.375-.11.77-.22 1.485-.385 2.255-.055.33.055.495.44.55.715.11 1.43.275 2.145.385.33.055.44.165.385.495-.055.44-.11.825-.165 1.265-.055.33-.22.44-.55.33-.385-.055-.77-.11-1.1-.165-.22 0-.385-.11-.605-.165-.22-.055-.385-.055-.55-.055-.33 0-.44.055-.495.33l-.495 2.97c-.055.495-.165.935-.22 1.43-.055.33.055.495.44.55 1.155.22 2.31.385 3.465.55.275.055.385.165.385.495-.055.385-.165.77-.165 1.155-.055.44-.165.55-.66.495-.99-.275-1.98-.44-2.915-.605ZM60.5 179.355c-.11.77-.22 1.54-.33 2.365-.055.275-.22.385-.44.33-.55-.055-1.045-.165-1.595-.22-.22-.055-.385-.22-.385-.385 0-.22.055-.44.11-.605l.33-2.475c.11-.605.165-1.21.22-1.76.11-.715.22-1.43.33-2.2.11-.88.22-1.76.385-2.64.165-.88.22-1.815.385-2.695.055-.165.055-.33.055-.495.11-.605.165-1.21.275-1.815.055-.165 0-.385 0-.55 0-.22.22-.33.44-.33.165 0 .275.055.44.055 1.375.22 2.75.44 4.125.605.275.055.55.055.77.22 0 0 .055.055.11.055.275.385.605.715.935 1.1.11.165.275.275.385.495.11.11.11.275.11.385-.055.165-.055.385-.11.55-.11.77-.165 1.485-.275 2.255-.055.495-.11 1.045-.22 1.54-.11.55-.055 1.155-.22 1.705 0 .055-.055.165-.055.275 0 .22-.11.385-.275.55-.55.385-1.1.715-1.65 1.1-.22.165-.44.165-.715.165-.605-.11-1.265-.165-1.925-.275-.165 0-.33-.055-.495-.055-.275-.055-.44.055-.495.275 0 .055-.055.165-.055.275 0 .715-.055 1.43-.165 2.2Zm3.905-7.59c.11-.77.165-1.595.275-2.365.055-.33-.22-.825-.715-.88-.55-.055-1.045-.165-1.595-.22-.22 0-.385.055-.44.275 0 .165-.055.33-.055.495-.11.99-.275 1.98-.44 3.025-.055.66-.165 1.265-.22 1.925-.055.33.055.44.44.495.495.055.935.165 1.485.22.495.055.88-.22.935-.66l.33-2.31ZM74.195 183.7c-.275 0-.495-.055-.77-.055-.33-.055-.495-.22-.495-.495-.055-.715-.055-1.485-.11-2.2-.055-.33-.165-.44-.495-.44-.605-.055-1.21-.165-1.815-.165h-.22c-.275-.055-.495.055-.55.275-.11.44-.275.935-.385 1.43-.055.22-.11.495-.165.715-.055.165-.165.33-.33.385-.055.055-.11.055-.165.055-.55-.055-1.1-.11-1.595-.165-.275-.055-.385-.22-.33-.44.22-.88.55-1.705.77-2.53.275-.935.55-1.87.88-2.805.22-.605.33-1.21.55-1.87.165-.55.33-1.045.495-1.595.22-.715.385-1.485.66-2.2.275-.77.495-1.54.715-2.365.11-.44.22-.825.33-1.265 0-.11.055-.165.11-.275.055-.165.22-.275.495-.275.66.055 1.32.165 2.035.22.22 0 .385.165.385.385.055.55.11 1.1.165 1.595.055.715.11 1.43.165 2.09.055.715.11 1.375.165 2.035.055.825.11 1.595.22 2.42.055.77.165 1.54.22 2.255.055.825.11 1.595.165 2.365.055.825.11 1.595.22 2.365v.385c0 .165-.165.33-.33.33-.44-.11-.715-.11-.99-.165Zm-2.64-5.445c.22 0 .495.055.715.055.275 0 .385-.11.385-.33v-.385c-.055-.77-.11-1.595-.165-2.365-.055-.825-.055-1.595-.11-2.365 0-.165-.055-.33-.055-.55 0-.11-.055-.165-.165-.165-.11 0-.165.055-.165.11 0 .11-.055.165-.055.22-.055.44-.22.88-.33 1.265-.22.88-.44 1.705-.66 2.53-.11.44-.275.935-.385 1.375-.055.22.055.44.33.44.22.11.44.165.66.165ZM80.41 172.535c-.11 1.1-.165 2.145-.275 3.245-.055.495-.055 1.045-.165 1.54-.055.495-.055.99-.11 1.485-.11.935-.165 1.87-.22 2.805-.055.66-.11 1.375-.165 2.09 0 .33-.165.44-.55.44-.495-.055-1.045-.055-1.54-.11-.22 0-.385-.165-.385-.44.055-.44.11-.88.165-1.375.11-1.1.165-2.2.275-3.3.055-.495.11-.99.165-1.54.055-1.045.165-1.98.275-3.025.055-.715.165-1.43.22-2.2l.165-2.475c.055-.385.055-.77.11-1.155 0-.11.055-.165.055-.22a.414.414 0 0 1 .385-.275c.495.055.99.055 1.54.11.275 0 .385.165.385.44 0 .495-.055.935-.11 1.43-.11.88-.165 1.705-.22 2.53ZM84.92 181.445c-.055.66-.11 1.265-.165 1.925 0 .275-.055.495-.055.77 0 .22-.165.33-.385.33-.55-.055-1.1-.055-1.595-.11-.33 0-.44-.22-.44-.44.055-.44.055-.88.11-1.265.11-.935.165-1.925.22-2.86.055-.66.11-1.265.165-1.925.055-.605.11-1.21.11-1.815.055-1.1.165-2.2.22-3.3.055-1.045.165-2.09.22-3.135 0-.275.055-.55.11-.825.055-.22.11-.385.495-.385 1.54.11 3.135.275 4.675.33.33 0 .605.165.77.33.33.385.715.715 1.1 1.045.275.22.385.495.33.88l-.165 4.07c-.055.495-.055.99-.11 1.54 0 .22-.11.385-.275.55-.33.22-.605.55-.99.77-.165.11-.275.33-.22.605.22 1.43.495 2.86.715 4.29.11.495.22 1.045.275 1.595.055.275-.11.385-.44.385-.55 0-1.1-.055-1.65-.055-.33 0-.495-.165-.55-.44-.165-.77-.22-1.54-.385-2.31-.165-1.045-.33-2.035-.495-3.08-.055-.275-.22-.44-.55-.44h-.55c-.22 0-.385.11-.385.33-.055.77-.11 1.595-.165 2.365.11.055.055.165.055.275Zm.55-7.975c-.055.825-.11 1.595-.165 2.42 0 .22.165.385.385.44.55.055 1.045.055 1.595.055.44.055.88-.275.88-.715 0-.44.055-.825.11-1.265l.165-2.805c0-.33-.385-.77-.77-.77-.495 0-1.045-.055-1.485-.11-.33-.055-.495.055-.495.385-.11.77-.165 1.595-.22 2.365ZM125.565 185.075c-.55 0-1.1.055-1.65.055-.22 0-.44-.055-.605-.22-.44-.33-.825-.715-1.265-1.045-.055-.055-.11-.11-.22-.165-.165-.11-.275-.275-.275-.44 0-.22-.055-.385-.055-.605 0-.715-.055-1.43-.055-2.145 0-.275.11-.44.44-.44.495-.055 1.045-.055 1.595-.055.275 0 .44.11.44.33.055.495.055.99.055 1.54v.33c0 .44.44.715.935.715.385 0 .77-.055 1.21-.055.44 0 .825-.385.825-.77 0-.55-.055-1.045-.11-1.595 0-.22-.165-.385-.33-.55l-1.155-1.155-1.32-1.32a86.137 86.137 0 0 0-2.2-2.255l-.275-.275a.706.706 0 0 1-.22-.55c-.055-1.045-.055-2.035-.11-3.08 0-.33.11-.605.33-.825.44-.385.825-.77 1.265-1.155.165-.165.33-.22.605-.275.99-.055 2.09-.11 3.08-.165.165 0 .385.055.55.165.495.44 1.045.825 1.54 1.265.165.11.22.33.22.55 0 .55.055 1.1.11 1.65 0 .33.055.66.055.99 0 .22-.165.385-.44.385-.55 0-1.045.055-1.595.055-.22 0-.385-.11-.385-.33-.055-.33 0-.66-.055-.99 0-.33 0-.66-.055-.99 0-.33-.385-.66-.77-.605-.44 0-.88 0-1.32.055-.44.055-.715.385-.715.77 0 .44 0 .935.055 1.375 0 .22.11.385.22.495.275.275.495.55.77.77.605.605 1.155 1.21 1.76 1.76.44.385.825.825 1.265 1.21.495.44.935.88 1.375 1.375.165.165.275.385.22.605 0 .495.055.935.055 1.43 0 .55.055 1.155.11 1.705 0 .22-.11.385-.22.55-.44.495-.935.935-1.375 1.375-.165.165-.33.22-.605.22-.605.22-1.155.275-1.705.33 0-.055 0-.055 0 0ZM135.575 184.58l-2.97.165c-.33 0-.495-.11-.55-.385 0-.55-.11-1.155-.11-1.705l-.165-2.475c-.055-.77-.11-1.595-.165-2.365-.055-.55-.055-1.045-.055-1.595-.055-.66-.11-1.32-.165-2.035 0-.55-.055-1.1-.055-1.65 0-.495-.055-.99-.11-1.485-.055-.605-.055-1.21-.11-1.815 0-.275.11-.385.385-.385.88-.055 1.76-.11 2.695-.165 1.045-.055 2.035-.165 3.08-.22.44-.055.55.055.55.44.055.385.055.825.11 1.155.055.275-.11.44-.385.44-.385 0-.825.11-1.265.11-.605.055-1.265.11-1.98.165h-.33c-.275 0-.44.11-.385.385.055.44.055.935.11 1.375.055.77.11 1.485.165 2.255 0 .33.165.44.55.44.715-.055 1.485-.11 2.255-.165.385 0 .495.055.55.385.055.385.055.825.055 1.265 0 .33-.11.44-.495.44s-.77.055-1.155.11c-.22 0-.44.055-.605 0-.165 0-.44 0-.55.055-.33.11-.385.165-.385.44.055.99.11 1.98.22 2.97.055.495.055.935.11 1.375 0 .33.165.44.55.44 1.155-.11 2.365-.165 3.52-.275.33 0 .44.11.495.385.055.385 0 .77.11 1.155.055.385-.055.55-.55.605l-2.97.165ZM143.77 180.95c.055.66.11 1.265.165 1.925 0 .275.055.495.055.77 0 .22-.11.385-.385.385-.55.055-1.1.055-1.595.11-.275 0-.495-.11-.495-.385-.055-.44-.055-.825-.11-1.265-.055-.935-.165-1.925-.22-2.86-.055-.66-.11-1.265-.165-1.925l-.165-1.815c-.11-1.1-.22-2.2-.275-3.3-.11-1.045-.165-2.09-.22-3.135 0-.275-.055-.55-.055-.825 0-.22.11-.44.44-.44 1.54-.11 3.135-.275 4.675-.44.33-.055.605 0 .825.22.385.275.77.605 1.21.88.275.22.44.44.495.825.165 1.375.275 2.695.44 4.07.055.495.11.99.165 1.54 0 .22 0 .44-.165.605-.33.275-.55.605-.88.935-.165.165-.22.385-.165.605.44 1.375.88 2.75 1.375 4.18.165.495.385 1.045.55 1.54.055.275-.055.44-.33.44-.55.055-1.1.11-1.595.165-.385.055-.495-.055-.605-.33a35.59 35.59 0 0 1-.715-2.255c-.33-.99-.66-2.035-.99-3.025-.11-.275-.275-.385-.605-.33-.165 0-.33.055-.495.055-.275.055-.385.165-.385.385.055.77.165 1.595.22 2.365v.33Zm-.715-8.03c.055.825.11 1.65.22 2.42 0 .22.22.385.44.33.55-.055 1.1-.11 1.595-.165.385 0 .825-.44.77-.88-.055-.44-.11-.88-.11-1.265-.11-.935-.165-1.87-.275-2.805-.055-.33-.495-.715-.935-.66l-1.485.165c-.33 0-.44.165-.44.44.055.825.165 1.65.22 2.42ZM155.045 182.93c-.33.055-.715.055-1.045.11-.275.055-.44-.055-.55-.33-.22-.77-.495-1.595-.715-2.42-.385-1.32-.825-2.695-1.21-4.015-.55-1.76-.99-3.465-1.54-5.225-.22-.825-.44-1.65-.66-2.42-.11-.33-.165-.66-.275-.99-.055-.165.055-.33.275-.385l1.65-.165c.165 0 .33.11.385.275.11.385.22.715.33 1.1.275 1.045.495 2.09.825 3.135.22.715.385 1.485.605 2.2l.495 1.815c.165.715.385 1.485.605 2.2 0 .055.055.165.055.22 0 .11.055.165.165.165.11 0 .165-.055.165-.165 0-.33.055-.66.055-.99v-1.54c0-.605.055-1.21.055-1.76 0-.715.055-1.43.055-2.145 0-.605.055-1.265.055-1.87 0-.605.055-1.265.055-1.87v-.825c0-.275.165-.44.44-.44.495-.055.99-.165 1.43-.22.165 0 .22 0 .33.11.11.055.11.11.11.22-.055.495-.055.99-.055 1.485-.055.66-.055 1.32-.11 1.98-.055 1.21-.055 2.42-.11 3.63l-.165 3.19c-.055.825-.11 1.705-.11 2.53 0 .44 0 .88-.055 1.32-.055.55-.11 1.045-.11 1.54 0 .275-.165.44-.44.44-.33.055-.66.11-.99.11ZM161.59 170.17l.495 3.3c.055.495.165 1.045.22 1.54.055.495.165.99.22 1.485.11.99.275 1.925.44 2.86.11.715.165 1.375.275 2.09.055.33-.055.495-.44.55-.495.055-1.045.11-1.54.22-.22.055-.44-.11-.44-.33-.055-.44-.11-.935-.165-1.375-.165-1.1-.33-2.255-.495-3.355-.055-.495-.11-1.045-.22-1.54-.165-1.045-.275-2.035-.44-3.025-.11-.715-.165-1.485-.275-2.2-.11-.825-.275-1.65-.385-2.475l-.165-1.155v-.22c0-.22.165-.33.33-.385.495-.055.99-.165 1.485-.22.275-.055.44.055.495.33.11.495.165.99.22 1.43.165.77.275 1.595.385 2.475ZM167.035 173.14c.11.66.165 1.375.275 2.035.11.605.22 1.21.275 1.76.055.385.165.825.22 1.21.055.385.495.715.935.66.385-.11.825-.165 1.21-.22.385-.055.715-.55.66-.88-.11-.77-.275-1.54-.385-2.365-.055-.275.055-.385.33-.44.495-.11.99-.22 1.485-.275.275-.055.495.055.55.33l.33 2.145c.055.33.11.66.165.935a.9.9 0 0 1-.11.66l-1.155 1.485c-.165.22-.385.385-.715.385-.66.11-1.32.22-2.035.33-.33.055-.66.11-.935.165-.275.055-.44 0-.66-.11-.495-.33-.99-.66-1.43-.935a.969.969 0 0 1-.495-.715c-.22-1.32-.385-2.585-.605-3.85-.275-1.595-.495-3.19-.715-4.84-.165-1.045-.275-2.09-.44-3.135-.055-.33 0-.55.22-.825.385-.44.715-.935 1.1-1.375.11-.165.33-.33.55-.385.99-.165 1.925-.33 2.915-.55a.834.834 0 0 1 .715.165c.44.33.935.605 1.43.935.22.165.33.33.385.605.165 1.045.385 2.09.55 3.08.055.33-.055.495-.385.55-.495.11-.935.165-1.375.275-.275.055-.44-.055-.495-.33-.055-.44-.11-.88-.22-1.32-.055-.33-.11-.605-.165-.99-.055-.44-.55-.715-.935-.605-.385.11-.715.165-1.1.22-.385.055-.77.55-.715.935.11.495.165 1.045.275 1.54.11.88.33 1.76.44 2.585 0 .44 0 .77.055 1.155ZM179.19 179.135c-.935.22-1.925.385-2.86.605-.33.055-.55-.055-.55-.33-.055-.605-.165-1.155-.275-1.76-.11-.825-.33-1.65-.44-2.53-.11-.825-.33-1.595-.44-2.42-.11-.55-.165-1.1-.22-1.65-.11-.66-.275-1.375-.385-2.035-.11-.55-.22-1.1-.275-1.705-.055-.495-.22-.99-.33-1.54-.11-.66-.165-1.265-.275-1.87-.055-.275.055-.385.33-.44.825-.165 1.65-.385 2.53-.605.99-.22 1.925-.495 2.915-.715.385-.11.495 0 .55.385.11.44.165.825.22 1.21.055.275-.055.44-.33.55-.385.055-.77.22-1.155.33-.605.165-1.265.275-1.87.44-.11 0-.22.055-.33.11-.275.055-.385.22-.33.495.055.44.165.935.275 1.375.11.77.275 1.54.44 2.255.055.33.22.44.605.385l2.145-.495c.385-.055.44 0 .55.33.11.385.165.825.22 1.265.055.385 0 .495-.385.55-.385.055-.77.165-1.1.275-.165.055-.385.11-.55.11-.22 0-.385.11-.55.165-.33.165-.385.22-.33.55.165 1.045.33 2.035.55 3.025.11.495.22.935.275 1.43.055.33.22.44.55.33 1.1-.275 2.255-.495 3.41-.77.275-.055.44.055.495.33.11.385.11.77.22 1.155s0 .605-.44.715c-.99.055-1.98.275-2.86.495ZM102.465 176.66c-.33.165-.605.33-.825.495-.22.165-.44.44-.605.66-.165.22-.33.495-.385.77a2.16 2.16 0 0 0-.165.77c0 .44.055.88.22 1.265.165.385.44.715.77.99s.715.495 1.1.66c.44.165.935.22 1.375.22.55 0 1.155-.055 1.705-.33.55-.22 1.045-.605 1.485-1.1-1.54-1.375-3.135-2.915-4.675-4.4Zm1.32-5.94c-.22 0-.44.055-.605.11-.22.055-.44.165-.605.33-.165.11-.275.275-.385.495-.11.165-.165.44-.165.66 0 .495.165.935.44 1.43.275.44.715.99 1.265 1.485.715-.275 1.21-.66 1.54-1.1.33-.44.55-.935.55-1.485 0-.605-.165-1.045-.55-1.43-.33-.275-.825-.495-1.485-.495Zm.385-.935c.495 0 .99.055 1.375.22s.77.33 1.045.605c.275.22.495.495.66.825.165.33.22.66.22.99 0 .275-.055.55-.11.88-.11.275-.22.55-.495.88-.22.275-.55.605-.935.88-.44.275-.99.55-1.65.77 1.32 1.265 2.695 2.53 4.015 3.85.165-.275.385-.55.55-.88.165-.33.33-.66.44-.99.11-.33.275-.66.33-.99.11-.33.165-.605.165-.88 0-.11-.055-.165-.165-.165-.55 0-1.1-.055-1.705-.11-.055 0-.11 0-.11-.11v-.55c0-.055.055-.11.11-.11h4.84c.11 0 .11 0 .11.11v.55c0 .055-.055.11-.11.11-.605.055-1.21.055-1.815.11a.24.24 0 0 0-.165.055v.11c-.055.275-.11.605-.165.99-.11.385-.22.715-.385 1.155-.165.385-.33.77-.55 1.21-.22.385-.44.77-.715 1.155.88.825 1.76 1.595 2.64 2.365 0 0 .055.055.11.055.605.055 1.265.11 1.925.165.055 0 .11.055.11.11v.55c0 .055-.055.11-.11.11-1.265 0-2.475.055-3.74 0-.055 0-.055 0-.11-.055l-1.98-1.815c-.33.275-.605.55-.88.825-.33.275-.66.44-1.1.66a6.75 6.75 0 0 1-1.375.44c-.495.11-1.1.165-1.76.11-.66 0-1.265-.11-1.815-.33-.55-.22-1.045-.44-1.43-.77s-.715-.715-.935-1.155c-.22-.44-.33-.935-.33-1.43.055-.88.33-1.65.88-2.365.55-.66 1.43-1.32 2.585-1.815-.275-.33-.55-.605-.77-.88a2.757 2.757 0 0 1-.44-.77c-.11-.275-.22-.495-.275-.715-.055-.275-.055-.495-.055-.825 0-.44.11-.88.33-1.265.22-.385.495-.715.825-.99.33-.275.77-.495 1.21-.605a4.997 4.997 0 0 1 1.705-.275Z" fill="#fff"/><path fill-rule="evenodd" clip-rule="evenodd" d="M83.82 129.415c-3.135-1.21-8.855-5.555-9.46-8.195-.77-3.135-.77-9.845 2.31-11.77 1.155-.715.825-5.775.66-7.04-.55-4.125-.77-8.195-1.21-12.32-.33-3.465.22-7.81 1.045-11.22 1.32-5.5 3.74-10.725 7.535-14.905 6.6-7.26 15.73-9.9 25.3-9.9s18.7 2.64 25.3 9.9c3.795 4.18 6.215 9.405 7.535 14.905.825 3.355 1.375 7.7 1.045 11.22-.385 4.125-.66 8.195-1.21 12.32-.165 1.265-.495 6.325.66 7.04 3.08 1.925 3.135 8.635 2.31 11.77-.495 1.925-2.915 3.96-4.455 5.115-1.045.825-3.52 2.475-5.17 3.135-.275 3.63-.33 7.315-.33 11 .55 0 1.1-.055 1.65-.11.88-1.1 2.75-1.54 4.015-1.65 2.365-.22 4.895-.11 7.26.165.77.11 2.53.275 3.135.88l.385.44v2.145l3.465-.33.55.22c.55.22 1.045.66 1.1 1.265V145.75l-.11.22c-1.265 2.2-5.665 2.75-7.865 2.75-2.42 0-4.73-.33-7.04-.935-.825-.22-2.53-.88-3.3-.99-.99-.11-2.145-.11-3.245-.11v2.585c-.055 4.51-2.805 6.655-6.16 9.02-.715.495-1.375.935-2.035 1.485-1.375 1.045-2.64 2.75-3.685 4.125-1.705 2.2-3.905 5.225-6.82 5.775-.55.11-1.1.165-1.65.165-.99 0-1.65-.22-2.53-.605-.99-.44-1.76-.495-2.86-.495-1.045 0-1.87.055-2.86.495-.88.385-1.54.605-2.53.605-.55 0-1.1-.055-1.65-.165-2.915-.55-5.115-3.575-6.82-5.775-1.045-1.375-2.31-3.08-3.685-4.125-.66-.495-1.375-.99-2.035-1.485-3.355-2.31-6.105-4.51-6.16-9.02v-2.75c-1.98 0-3.96.055-5.885.055-1.54 1.1-4.95 1.705-6.49 1.87-.88.11-1.815.165-2.695.165-1.54 0-3.685-.22-5.225-.825l-.715.055-.11-.99c-.055-.385-.275-1.265-.22-1.98-.11-.495.055-.66.165-.825l.275-.33c-.165-.44-.22-.935-.33-1.375-.22-.55.165-1.155.66-1.485.44-.275.99-.44 1.485-.605 2.09-.605 4.345-1.045 6.49-1.21 1.98-.165 5.06.055 6.875.99 1.76.275 3.795.33 5.555.33v-4.07c0-2.365-.055-4.62-.22-6.875Z" fill="#fff"/><path fill-rule="evenodd" clip-rule="evenodd" d="M115.445 161.095c.055.33.165.66.22.935.055.275.165.495.22.605.055.165.11.22.11.22v-.275c0-.165-.055-.385-.055-.66-.055-.275-.055-.605-.11-.935-.055-.33-.055-.715-.055-1.045-.055-.33-.055-.715-.055-1.045 0-.33-.055-.66-.055-.935v-.935s-.055.11-.055.22c-.055.165-.11.385-.165.66-.055.275-.11.605-.11.935v1.1c0 .495.055.825.11 1.155Zm14.245-44.77c.715 0 1.43-.055 2.09-.165.66-.055 1.265-.165 1.76-.275.495-.11.935-.22 1.265-.275.275-.11.44-.11.44-.11s-.165 0-.495.055c-.275.055-.715.11-1.265.165-.495.055-1.155.11-1.76.165-.66.055-1.32.11-2.035.11-.715 0-1.375 0-2.035-.055-.66-.055-1.265-.055-1.76-.165-.495-.055-.935-.11-1.265-.165-.33-.055-.495-.055-.495-.055s.165.055.44.11.715.165 1.265.275c.495.11 1.155.165 1.815.22.605.165 1.32.165 2.035.165Zm-35.75-.44c-.22.055-.44.11-.715.165-.55.11-1.155.165-1.87.275-.66.055-1.43.055-2.145.055-.715-.055-1.43-.11-2.145-.275-.66-.11-1.32-.275-1.815-.44-.275-.055-.495-.165-.715-.22-.22-.055-.385-.165-.55-.22-.275-.11-.495-.165-.495-.165s.165.11.44.22c.165.055.33.165.55.275.22.11.44.22.715.275.495.22 1.155.385 1.815.55.66.165 1.43.22 2.145.275.77 0 1.485 0 2.2-.055.715-.055 1.32-.22 1.87-.385.275-.055.495-.165.715-.22.22-.055.385-.11.55-.22.275-.11.44-.22.44-.22s-.165.055-.495.11c-.11.11-.275.165-.495.22Zm-15.18 6.655c.11.11.22.165.22.165s-.11-.055-.22-.165c-.055-.165-.165-.33-.33-.55-.165-.22-.275-.495-.44-.77-.165-.275-.275-.605-.385-.935-.11-.33-.22-.66-.275-.99-.055-.33-.11-.605-.11-.88v-.825s0 .11-.055.22c-.055.165-.11.385-.11.66s-.055.605 0 .935c.055.33.11.715.22 1.045.11.33.275.66.44.935.165.275.385.55.55.77.165.165.33.33.495.385Zm61.325-.935s.055-.055.165-.11c.11-.055.22-.165.385-.33s.33-.33.495-.55c.165-.22.33-.44.44-.715.11-.275.22-.55.33-.77.11-.275.165-.495.22-.715.055-.22.055-.385.055-.495v-.22s0 .055-.055.165c-.055.11-.11.275-.165.495-.055.22-.165.44-.275.66-.11.22-.22.495-.385.715-.11.275-.275.495-.385.715-.165.22-.275.44-.385.605-.11.165-.22.33-.275.44-.165.055-.165.11-.165.11Zm-15.51 0a6.022 6.022 0 0 0-.55.605c-.165.275-.33.55-.44.825-.11.275-.165.605-.22.935-.055.275 0 .605 0 .825 0 .22.055.44.11.55.055.11.055.22.055.22v-.77c0-.22.055-.495.11-.77s.11-.55.22-.825c.11-.275.22-.55.385-.77.165-.22.275-.44.44-.605.165-.165.275-.33.385-.44l.165-.165s-.055.055-.165.11c-.11 0-.275.11-.495.275Zm-28.16 2.915c0-.22-.055-.33-.055-.33v.33c0 .22-.055.55-.055.88 0 .385-.055.825-.11 1.265-.055.44-.11.935-.165 1.43-.055.495-.11.99-.22 1.43-.11.44-.165.88-.22 1.265-.055.385-.11.66-.165.88-.055.22-.055.33-.055.33s.055-.11.11-.33c.055-.22.22-.495.33-.88.11-.33.22-.77.33-1.21.11-.44.165-.935.275-1.43.055-.495.11-.99.11-1.485V125.4c-.055-.33-.11-.66-.11-.88Zm-14.74-41.635c-.11-.275-.22-.605-.33-.99-.11-.385-.22-.77-.275-1.155l-.165-1.155c0-.385-.055-.715 0-1.045 0-.275 0-.55.055-.715v-.275s-.055.11-.11.275c-.055.165-.11.44-.165.715-.055.33-.11.66-.11 1.045 0 .385.055.825.11 1.21s.165.825.33 1.155c.11.385.275.715.44.99.165.275.275.495.385.605.11.165.165.22.165.22s-.055-.11-.11-.275c-.055-.11-.11-.33-.22-.605Zm39.435-5.72c-.22.055-.44.11-.715.22-.275.055-.55.165-.825.275-.275.11-.55.22-.77.275-.275.11-.495.22-.66.275-.22.11-.385.165-.495.22a.68.68 0 0 0-.165.11s.055 0 .22-.055c.11-.055.33-.055.495-.11.22-.055.44-.11.715-.22.275-.055.55-.165.825-.275l.825-.33c.275-.11.495-.22.66-.275.22-.11.385-.165.495-.22a.68.68 0 0 0 .165-.11s-.055 0-.22.055c-.165.11-.33.11-.55.165Zm-19.58-.605c.11.33.275.66.44.935.165.275.33.55.495.77.165.22.33.385.44.495l.165.165s-.055-.055-.11-.22a3.529 3.529 0 0 0-.33-.55c-.11-.22-.275-.495-.385-.77-.11-.275-.275-.605-.385-.935-.11-.33-.22-.66-.275-.99-.055-.33-.11-.605-.165-.88-.055-.275-.055-.495-.055-.605v-.22s0 .11-.055.22c0 .165-.055.385-.055.66s0 .55.055.88c.055.33.11.715.22 1.045Zm-9.35 11.385a6.77 6.77 0 0 0-1.1-.11c-.385 0-.715 0-1.1.055-.33.055-.66.11-.935.165-.275.055-.495.11-.66.165a.602.602 0 0 0-.22.11h.275c.165 0 .385-.055.66-.055.275-.055.605-.055.935-.055h1.045c.385 0 .715.055 1.045.055.33.055.66.055.935.11s.495.11.66.11c.165.055.275.055.275.055l-.22-.11c-.165-.055-.385-.165-.605-.22-.385-.11-.66-.22-.99-.275Zm11.165 7.59c-.275-.22-.605-.44-.935-.66-.33-.22-.66-.385-.99-.55-.33-.165-.66-.275-.935-.385-.275-.11-.495-.165-.66-.22-.165-.055-.275-.055-.275-.055l.22.11c.165.055.385.165.605.33.275.11.55.275.825.44.33.165.605.385.935.55.33.22.605.44.935.605.275.22.55.385.77.605.22.165.385.33.55.44.11.11.22.165.22.165s-.055-.055-.165-.22c-.11-.11-.275-.33-.44-.55-.11-.11-.385-.385-.66-.605Zm14.795-.715c.55-.33 1.21-.66 1.815-.99.66-.33 1.265-.605 1.925-.825.605-.22 1.21-.44 1.705-.605.495-.165.935-.275 1.21-.385.275-.11.495-.11.495-.11s-.165 0-.495.055c-.33.055-.77.11-1.265.275-.495.11-1.1.275-1.76.495-.66.22-1.32.495-1.925.825-.66.33-1.265.66-1.815 1.045-.55.385-1.1.715-1.485 1.045-.44.33-.77.605-.99.825l-.33.33s.165-.11.385-.275c.275-.165.605-.44 1.045-.715.385-.33.935-.66 1.485-.99Zm2.585 38.555c-.055-.495-.055-1.155-.11-1.76-.055-.66-.055-1.32-.055-2.035-.055-.715-.055-1.375-.055-2.035v-3.52s-.055.165-.11.495c-.055.275-.165.715-.22 1.265-.055.55-.11 1.155-.22 1.815-.055.66-.055 1.375-.055 2.09.055.715.11 1.43.165 2.09.11.66.22 1.265.275 1.76.11.495.22.935.33 1.265.11.275.165.44.165.44v-.495c-.11-.385-.11-.825-.11-1.375ZM100.1 125.84s-.055.165-.11.385-.11.605-.22.99c-.055.44-.165.935-.275 1.43-.055.55-.165 1.1-.275 1.65-.055.55-.165 1.1-.22 1.65-.055.55-.165 1.045-.22 1.43-.055.44-.11.77-.11 1.045 0 .275-.055.385-.055.385s.055-.11.165-.385c.11-.22.22-.55.385-.99.11-.385.275-.88.385-1.43.11-.495.22-1.1.33-1.65.055-.55.165-1.155.165-1.65.055-.55.055-1.045.055-1.485 0-.44 0-.77-.055-1.045.055-.22.055-.33.055-.33Zm5.665-13.97.33-.99c.11-.33.165-.66.275-.935.11-.275.22-.495.385-.66.165-.165.385-.22.495-.275.165-.055.22 0 .22 0s-.055-.055-.22-.11-.44-.055-.715.11c-.275.11-.55.385-.715.715-.165.33-.275.66-.385.99-.11.33-.165.66-.275.99-.055.33-.11.66-.165.88-.055.275-.055.495-.055.66v.22s.055-.055.11-.22c.055-.11.165-.33.33-.55.165-.22.275-.55.385-.825Zm5.555-3.575c-.11.11-.11.22-.165.275v.11s0-.055.055-.11.11-.165.22-.22c.22-.165.605-.275.99-.165.385.11.77.495.99.99.22.495.33 1.1.495 1.705.165.605.33 1.21.495 1.76.165.55.33 1.1.495 1.54.165.44.275.825.385 1.045.11.275.165.385.165.385s0-.165-.055-.44-.11-.66-.165-1.155c-.11-.44-.165-.99-.275-1.595-.11-.55-.275-1.21-.385-1.815-.165-.605-.275-1.21-.605-1.815-.33-.55-.88-.99-1.375-1.045-.66.055-1.045.33-1.265.55Zm5.72 12.925c-.165-.605-.275-1.1-.44-1.43-.11-.33-.22-.55-.22-.55s.055.22.055.55c.055.33.11.825.165 1.43.055.605.11 1.32.11 2.035 0 .77 0 1.54-.055 2.31s-.165 1.54-.495 2.2c-.165.33-.33.605-.55.825-.22.22-.495.385-.77.495-.55.22-1.045.22-1.375.11a2.681 2.681 0 0 1-.385-.165c-.055-.055-.11-.055-.11-.055l.11.11c.055.055.165.165.33.22.33.165.88.275 1.54.11.33-.11.66-.22.935-.44.33-.22.55-.55.77-.88.385-.715.605-1.595.66-2.42.055-.825.055-1.65 0-2.42a20.287 20.287 0 0 0-.275-2.035Zm-6.875 6.545c-.495 0-1.21.055-1.925.495-.385.22-.715.55-1.045.825-.33.275-.715.495-1.155.495-.44.055-.88-.11-1.265-.385-.385-.275-.66-.66-.88-1.1-.44-.88-.495-1.98-.495-2.97a21.947 21.947 0 0 1 0-2.695c.055-.77.11-1.485.165-1.925.055-.44.11-.715.11-.715s-.055.275-.22.715c-.11.44-.275 1.1-.44 1.925-.11.825-.22 1.76-.22 2.75s0 2.145.495 3.19 1.595 1.87 2.805 1.76c.605-.055 1.045-.385 1.375-.715.33-.33.605-.66.935-.88a3.725 3.725 0 0 1 1.705-.66h.77s-.055 0-.165-.055c-.11 0-.275-.055-.55-.055Zm-6.38-49.39c.22.385.605.88 1.155 1.375.495.495 1.155.99 1.76 1.54.275.275.55.55.715.825l.275.55c.11.165.165.385.275.605.165.385.33.825.495 1.21.165.385.275.825.385 1.21.275.77.44 1.54.66 2.2.165.66.275 1.21.385 1.65.055.385.165.66.165.66l.165-.66c.11-.44.22-.99.22-1.705.055-.715 0-1.54-.165-2.475a7.086 7.086 0 0 0-.33-1.375 6.895 6.895 0 0 0-.495-1.375l-.33-.66c-.11-.22-.22-.44-.385-.66a5.326 5.326 0 0 0-1.155-1.1c-.77-.495-1.485-.88-2.145-1.155a10.58 10.58 0 0 1-1.43-.77c-.165-.11-.275-.22-.385-.275l-.11-.11s0 .055.055.165c.055 0 .165.11.22.33Zm8.03 8.085s.11-.165.275-.44c.165-.275.385-.66.605-1.1.275-.44.55-.935.88-1.375.165-.22.33-.44.55-.605.22-.165.385-.385.66-.55.22-.165.495-.33.77-.44.275-.165.55-.33.825-.44.55-.275 1.1-.605 1.54-.88.44-.275.77-.55 1.045-.77.22-.22.385-.33.385-.33h-.495c-.33 0-.77.055-1.265.165-.495.11-1.1.22-1.705.44-.33.11-.66.22-.99.385-.33.165-.66.33-.99.55-.33.22-.66.495-.88.825-.275.275-.44.66-.605.935-.33.66-.44 1.265-.55 1.815-.055.55-.055.99-.055 1.32-.055.33 0 .495 0 .495Zm-22.055.77c-1.1-.055-1.98 0-2.64 0-.605.055-.99.055-.99.055s.33-.165.935-.385c.605-.165 1.485-.44 2.585-.605a26.13 26.13 0 0 1 3.795-.275c.715 0 1.43 0 2.145.055.715.055 1.485.165 2.2.275.715.11 1.485.275 2.2.44.33.11.715.165 1.045.33l.275.11.11.055c.055 0 .055 0 .165.055.33.165.44.275.605.44.55.55.935 1.045 1.32 1.595.385.495.715.99 1.045 1.43.605.88 1.1 1.65 1.485 2.145.165.275.33.44.44.55l.165.165-.22-.11c-.165-.11-.385-.22-.605-.44-.55-.385-1.21-.99-1.98-1.76a26.867 26.867 0 0 1-1.21-1.265c-.44-.44-.88-.935-1.375-1.265l-.165-.11-.055-.055c0-.055.055-.11.055-.165v-.11c0-.055-.165.495-.11.275h-.055l-.11-.055-.22-.055c-.33-.11-.66-.165-.99-.22-.66-.11-1.375-.275-2.09-.385-.715-.11-1.43-.22-2.09-.275-.715-.055-1.375-.165-2.035-.22-1.32-.11-2.585-.165-3.63-.22Zm29.205-.165c.33-.11.66-.22 1.045-.33.715-.22 1.43-.44 2.145-.55a15.184 15.184 0 0 1 2.2-.33c.715-.11 1.485-.11 2.2-.11 1.43 0 2.75.22 3.795.44 1.1.22 1.98.55 2.585.77.605.22.935.385.935.385s-.385 0-.99-.055c-.66-.055-1.54-.11-2.64-.165-1.1-.055-2.31-.055-3.63.055-.66.055-1.32.11-2.035.22-.66.11-1.375.22-2.09.385-.715.165-1.375.33-2.035.495-.33.055-.66.165-.99.275-.165.055-.33.11-.495.11-.11.055-.22.055-.33.165-.44.275-.935.715-1.375 1.1-.44.44-.825.88-1.21 1.265-.77.825-1.375 1.485-1.925 1.87-.275.22-.495.33-.605.44-.165.055-.22.11-.22.11l.165-.165c.11-.11.275-.33.44-.605.33-.495.825-1.32 1.375-2.255.275-.44.605-.99 1.045-1.485.385-.495.825-1.045 1.54-1.54.165-.11.385-.22.605-.33.165-.055.275-.11.495-.165Zm7.15 25.575c.33.055.77.165 1.32.275.55.055 1.21.11 1.87.11.66 0 1.43-.11 2.145-.275.715-.165 1.43-.385 2.035-.66.605-.275 1.21-.55 1.65-.88.44-.275.825-.55 1.1-.77.275-.22.385-.33.385-.33s-.11.11-.33.385c-.22.22-.55.55-1.045.88-.44.33-.99.715-1.65.99-.66.275-1.375.55-2.09.715-.715.165-1.485.22-2.2.22-.715 0-1.375-.11-1.925-.22s-.99-.275-1.32-.385a7.29 7.29 0 0 1-.495-.22s.22.055.55.165Zm2.75-18.48c1.265.11 2.53.33 3.74.715.605.22 1.21.44 1.76.715.55.275 1.1.605 1.54 1.1-.495-.385-1.1-.55-1.65-.77-.605-.165-1.155-.33-1.76-.44-1.21-.22-2.42-.275-3.575-.22-1.21.055-2.365.22-3.465.55-.55.165-1.1.385-1.65.605-.275.11-.495.275-.77.385l-.055.055c3.41-.66 9.9-.44 11 .66.825.825 2.145 6.82 2.09 10.945.11-.605.165-1.21.22-1.87.11-1.32.22-2.64.22-3.96 0-.66 0-1.32-.055-1.98-.055-.33-.055-.66-.11-.99a2.708 2.708 0 0 0-.33-.935c.275.22.44.55.605.825.165.33.275.66.385.99.22.66.33 1.32.495 1.98.22 1.375.385 2.695.385 4.07 0 1.375-.055 2.75-.385 4.18-.11.33-.165.715-.33 1.1a2.57 2.57 0 0 1-.275.55c-.11.165-.22.385-.33.55-.55.715-1.265 1.155-1.98 1.485-1.485.605-2.915.66-4.29.66a26.38 26.38 0 0 1-4.125-.495c-2.695-.55-5.28-1.375-7.7-2.585l3.96.66c.165 0 .33.055.44.055-1.65-.385-3.025-.825-3.795-1.045-2.09-.77-3.41-4.73-3.905-7.48-.11.495-.165.935-.275 1.43-.055.605-.11 1.21-.055 1.815-.275-.55-.33-1.21-.385-1.87-.055-.66 0-1.265 0-1.87l.055-.935v-.935c.055-.66.165-1.375.495-2.035.275-.66.825-1.21 1.43-1.65.55-.44 1.21-.715 1.815-.935 1.21-.495 2.31-.825 3.355-1.375l.825-.44c.275-.165.605-.275.88-.44.605-.275 1.21-.44 1.87-.605 1.1-.22 2.42-.33 3.685-.22Zm-44 16.28c.165.22.44.495.825.825.33.33.77.66 1.32.935.495.275 1.045.55 1.65.77.605.22 1.21.33 1.76.385a7.684 7.684 0 0 0 1.595 0c.495-.055.88-.11 1.155-.165.275-.055.44-.11.44-.11s-.165.055-.385.165c-.275.11-.66.22-1.1.275-.495.055-1.045.11-1.65.055a11.115 11.115 0 0 1-1.87-.33c-.605-.22-1.21-.495-1.705-.825a8.53 8.53 0 0 1-1.265-1.045c-.44-.385-.66-.715-.77-.935-.22-.22-.275-.33-.275-.33s.11.11.275.33Zm17.985-10.945c.165.11.275.165.385.275-.22-.165-.44-.275-.715-.44.165.055.275.11.33.165ZM82.995 111.98a4.19 4.19 0 0 1-.33-1.1c-.33-1.43-.385-2.805-.385-4.18 0-1.375.165-2.75.385-4.07.11-.66.275-1.32.495-1.98.11-.33.22-.66.385-.99.165-.33.33-.605.605-.825a2.708 2.708 0 0 0-.33.935c-.055.33-.11.66-.11.99-.055.66-.055 1.32-.055 1.98 0 1.32.055 2.64.22 3.96.055.605.165 1.265.22 1.87-.055-4.125 1.21-10.065 2.09-10.945 1.155-1.155 8.14-.99 11.385-.22.22.055.495.11.715.165-.11-.055-.275-.11-.385-.22-.165-.055-.275-.165-.44-.275l-.385-.22a5.029 5.029 0 0 0-.77-.385c-.495-.275-1.045-.44-1.65-.605-1.1-.33-2.31-.55-3.465-.55-1.21-.055-2.42.055-3.575.22-.605.11-1.21.275-1.76.44-.605.22-1.155.385-1.65.77.385-.495.99-.825 1.54-1.1.55-.275 1.155-.55 1.76-.715 1.21-.385 2.475-.605 3.74-.715 1.265-.055 2.585 0 3.85.33.66.165 1.265.33 1.87.605.33.11.605.275.88.44l.825.44c1.045.55 2.145.88 3.355 1.375.605.22 1.21.55 1.815.935.55.44 1.1.99 1.43 1.65.33.66.44 1.375.495 2.035v.935l.055.935c0 .605.055 1.265 0 1.87-.055.605-.11 1.265-.385 1.87.11-.605.055-1.21-.055-1.815-.055-.495-.165-.935-.275-1.43-.495 2.75-1.815 6.765-3.905 7.48-.715.275-2.09.66-3.795 1.045.165 0 .33-.055.44-.055 1.32-.165 2.64-.385 3.96-.66-2.42 1.265-5.005 2.035-7.7 2.585-1.32.275-2.695.44-4.125.495-1.43 0-2.86-.055-4.29-.66a4.605 4.605 0 0 1-1.98-1.485c-.11-.165-.275-.385-.33-.55-.22-.22-.33-.44-.385-.605Zm27.445 9.075c0 .22-.055.385-.055.495v.165s0-.055-.055-.165c0-.11-.055-.275-.055-.495 0-.22-.055-.44-.055-.715 0-.275-.055-.55-.055-.825v-1.54c0-.22.055-.385.055-.495v-.165s0 .055.055.165c0 .11.055.275.11.495 0 .22.055.44.055.715 0 .275.055.55.055.825v.825c0 .22-.055.495-.055.715Zm-.66-4.18c-.11.605-.275 1.265-.33 1.87-.055.66 0 1.265.055 1.925.055.605.11 1.21.165 1.705 0 .495 0 .935-.055 1.21 0 .165-.055.275-.055.33 0 .055-.055.11-.055.11v-.44c0-.275 0-.715-.055-1.155-.055-.495-.165-1.045-.275-1.65a7.694 7.694 0 0 1-.11-1.98c.055-.66.22-1.32.385-1.925s.33-1.155.385-1.65c.055-.495.11-.88.11-1.155v-.44.11c0 .055.055.165.055.33.055.275.055.715 0 1.21.055.44-.055.99-.22 1.595Zm6.105 6.49c.165 3.85-.55 4.84-1.98 4.785-1.375-.11-1.65-2.145-3.905-2.145s-2.53 2.035-3.905 2.145c-1.375.055-2.145-.88-1.98-4.785.165-3.85 2.31-13.585 3.52-13.915 1.21-.33.935 1.32 2.365 1.32 1.43 0 1.1-1.65 2.365-1.32 1.21.33 3.355 10.065 3.52 13.915Zm-49.5 21.285 5.225-.495.165-.055c.11 0 1.98-.66 1.87-1.65-.11-.935-2.035-1.21-2.145-1.265h-.165l-5.885.495c.165-.055.385-.165.715-.275.825-.275 3.08-.88 5.61-1.1 1.485-.11 4.18.055 5.445.88l.055.055h.11c1.045.165 3.08.385 6.82.44l11.605.055c.165.11.385.165.66.22-2.2-.055-4.345-.055-6.545-.055l-4.18-.055h-.275c-.275 0-.495.055-.77.055-.495.055-.935.22-1.155.385-.275.165-.33.33-.165.495l.055.055h-2.97c-.935 0-1.65 0-2.31.055.055-.055.055-.165.055-.22.055-.33 0-.55-.11-.715-.055-.165-.165-.22-.22-.275-.055-.055-.11-.055-.11-.055.11.33.11.715 0 1.1-.165.385-.495.77-1.1 1.155-.33.165-.715.385-1.21.55-.44.165-.935.275-1.485.385l.66-.165c.495-.165.88-.33 1.265-.55.385-.22.605-.44.77-.605.055-.055.11-.11.165-.22-1.21.165-1.815.44-2.475.825-.385.22-.825.385-1.43.605-.825.275-2.2.44-4.235.44H67.43c-.11 0-.22 0-.33-.055-.11 0-.22 0-.275-.055-.275-.055-.495-.055-.66-.11-.33-.055-.605-.11-.715-.165-.11-.055.935-.11.935-.11Zm4.29-2.09-.11-.88s-6.16.44-6.215.495c.055.22.11.605.165.88h.055c0-.11-.055-.22-.055-.33l6.05-.495.055.33h.055Zm1.595.495a.887.887 0 0 0 .165-.495c-.055-.66-1.155-.935-1.54-.99 0 0 .11.935.165.935v-.22l.165.055c.275.055.77.275 1.045.715Zm66.44-1.375.275-.055v-.11c.11-.825 1.595-1.375 2.915-1.485 2.42-.22 5.28 0 6.38.165.495.055.88.11 1.1.165l-5.5.55-.055.055c-.055 0-1.045.66.55 1.705 1.705 1.1 4.4 1.43 4.51 1.43h.22l5.83-.605c0 .055-.11.165-.275.33-.22.165-.66.44-1.32.715-.33.165-.77.275-1.265.385-.385 0-.77.055-1.155.055-1.045 0-2.145-.11-3.465-.275-1.76-.275-2.805-.495-3.74-.715-.715-.165-1.375-.33-2.2-.44.44.275 1.045.55 2.035.88 1.045.385 2.035.55 2.86.715-.275-.055-.55-.055-.825-.11-1.155-.165-2.2-.44-3.08-.715a9.843 9.843 0 0 1-2.145-.99c-.55-.33-.88-.715-1.045-1.045l-.055.055v.11c0 .055 0 .11.055.22s.165.33.44.55c-.715-.055-1.595-.055-2.695-.11h-2.365s.055 0 .055-.055c.165-.165.165-.33 0-.495-.165-.165-.55-.275-.99-.385-.22-.055-.44-.055-.715-.11h-9.57l5.06.055h4.4c.165 0 .385.055.55.055.33.055.605.165.715.275.11.11.11.22 0 .33-.165.11-.385.165-.715.22h-1.21l-5.17-.055c-2.475 0-5.005-.055-7.48-.055.55-.055.99-.165 1.265-.44h.11c.605-.055 1.43-.055 1.76-.55h.055c.33 0 .825-.055 1.21-.165l9.185.055c2.2.055 4.07 0 5.5-.11Zm6.105-.495c-.11.11-.33.385-.055.77l5.885-.77v.385h.11v-.77c-.055 0-.055-.055-.11-.055s-.165-.055-.22-.055l-5.61.495Zm4.29 5.5c4.18 0 6.105-1.21 6.6-1.925v.715c.055-.055.055-.11.11-.165 0 0 0-1.265-.055-1.21-.495.33-1.925 1.21-4.895 1.54-1.155.11-2.805.055-4.51-.165-1.32-.165-3.245-.495-5.005-1.155-1.265-.22-3.52-.44-7.26-.44l-16.17-.055c-.605.275-1.65.33-2.53.385h-.495a.417.417 0 0 1-.11.22c11.44.055 23.1.275 24.145.385.44.055.935.22 1.705.44 1.76.55 4.455 1.43 8.47 1.43Zm-56.155-6.71c.055.495.165.99.275 1.375h2.2c-.055-.11-.055-.22-.055-.33v-.22c-.495-.055-1.155-.11-1.375-.55-.33.055-.77-.055-1.045-.275Zm-6.82-11.33c.275 3.96.385 8.635.44 12.705h5.335c-.55-2.42-.715-5.94-.77-9.35 0-.055-.055-.055-.055-.11-.22 1.87-.33 3.795-.495 5.665-.165-2.035-.385-4.07-.55-6.105-.055-.66-.11-1.265-.11-1.925a.417.417 0 0 1-.11-.22l-.44 2.475-.55-3.355c-.165-.055-.33-.055-.55-.055-.44 0-.935.055-1.43.11-.275.11-.495.11-.715.165Zm52.58-40.37c.22-1.375 1.1-2.64 2.035-3.52l-.495.77c-1.485 2.42-1.32 3.245-1.43 5.995-.165-1.045-.33-2.2-.11-3.245Zm-9.405 42.735c.22 3.795.275 7.865-.22 10.505h2.42c-.055-2.42 0-5.335.165-8.47-.22 1.54-.44 3.135-.715 4.675 0-1.98-.165-3.96-.22-5.995 0-.77-.055-1.54-.055-2.31l-.55 2.145-.275-1.815c-.11.385-.33.825-.55 1.265Zm-4.73 10.065c0 .165-.055.33-.11.44h3.3c.385-1.76.495-4.565.385-7.7-.275.825-.55 1.65-.715 2.365-.055.275-.22.55-.385.825.11.11.165.275.165.495.055.715.055 1.265.055 1.705v.275c0 .66-.715.825-1.265.825-.22.44-.88.495-1.375.55 0 .055-.055.11-.055.22Zm-9.625 2.2c-.385-.385-.22-2.805-.11-3.96.11-.055.22-.11.44-.11l.33.77.33-.825c.11 0 .22.055.33.055.275.11.385.275.44.495.11.88.44 1.705.66 2.31.165.385.33.77.33.99-.33.22-1.76.275-2.2.33h-.385c-.165 0-.165-.055-.165-.055Zm6.655-1.705h.165c.055 0 .11-.055.165-.055v-.33c0-.495.055-1.21-.055-2.035 0-.11-.055-.22-.22-.275-.055 0-.11-.055-.165-.055l-.275.605-.275-.605a.554.554 0 0 0-.165.055c-.055.88-.11 1.54-.055 2.035.11.275.165.495.275.715.165 0 .385 0 .605-.055Zm1.925-1.32.165.44c0-.495.055-1.155-.055-1.925 0-.11-.055-.165-.165-.22-.055 0-.11-.055-.22-.055l-.33.77-.22-.385c0 .055 0 .11.055.165.11.825.055 1.54.055 2.035.165 0 .44-.055.605-.055l.11-.77Zm1.65-.385v-.275c0-.44.055-1.045-.055-1.705 0-.11-.055-.11-.11-.165-.055-.055-.165-.055-.275-.055l-.165.77-.165-.165c.055.11.11.22.11.385.055.495.055.935.055 1.265.275 0 .495 0 .605-.055Zm1.21-.715v.22c-.055 0-.165.055-.275.055 0-.385 0-.88-.055-1.43l.275-.385c.11.605.055 1.155.055 1.54Zm-15.4.055c.165-.055.44-.055.715-.11l.385 1.705.44-1.65.495.165c.22.165.33.33.33.605 0 1.045.275 1.98.44 2.75.11.33.165.715.22.935-.22-.055-.55-.11-.825-.055-.44.055-.88.165-1.265.275-.385.11-.77.22-.935.22-.44-.165-.495-2.475 0-4.84Zm14.08 6.93c-.055 0-.055 0-.11.055v-.77h.22c0 .22 0 .385-.055.66l-.055.055Zm-1.1 1.265c-.11.055-.275.055-.385.055V145.805c0-.22-.055-.33-.165-.44h.11c.22 0 .44.055.55.055v.22c0 .385.055.935-.055 1.595 0 .11 0 .165-.055.165Zm-3.96 1.54c0-.275-.055-.55-.055-.77.165-.385.275-.715.275-1.045a.625.625 0 0 0-.165-.44c-.055 0-.055-.055-.11-.055 0-.11.055-.22.055-.22h.055c.165 0 .495 0 .715.055l.055.825.165-.44c0 .44.055 1.1-.055 1.87 0 .11-.055.165-.165.22-.165.11-.55.055-.77 0Zm-5.665-.495c.11-.495.22-.935.22-1.265 0 0 .055-.055.11-.055h.33c.44 0 1.705.055 2.035.275 0 .22-.165.55-.33.88-.165.33-.275.77-.44 1.21 0-.11-.055-.22-.055-.275 0-.11-.055-.22-.055-.275 0-.055-.055-.11-.055-.11s0 .055-.055.11c0 .055-.055.165-.11.275 0 .11-.055.275-.11.385 0 .165-.055.33-.055.44V150.755c-.055.055-.11.055-.165.11-.44.165-1.045.055-1.265-.11.055-.495 0-1.485 0-2.31Zm-7.81-.055c-.11-.44-.22-.88-.22-1.155.22-.165 1.1-.165 2.53 0 .165 0 .275.055.33 0 .165.165.275.88.22 1.98-.055-.22-.11-.33-.165-.44-.055-.11-.055-.165-.055-.165v.605c0 .165-.055.385-.055.55 0 .22 0 .44-.055.66 0 .22-.055.44-.055.66-.055.165-.055.385-.055.495-.44.055-1.21.11-1.705-.165-.22-.11-.33-.275-.33-.55.055-.88-.165-1.76-.385-2.475Zm-10.615-2.695v-.22c.165-.055.495-.055.66-.11a.625.625 0 0 0-.165.44V147.235l-.165-.66-.165.88h-.055c-.055-.055-.11-.055-.11-.11-.055-.715 0-1.265 0-1.65Zm3.905-3.685c.055-.165.165-.44.275-.715.22-.55.495-1.155.55-1.925 0-.165.11-.22.22-.33l.22.935.495-1.045c.165 0 .275.055.385.11.055.88.11 1.54.11 2.035-.055.165-.165.385-.22.55-.055.11-.055.22-.11.275l-.055-.44-.33.66c-.44.055-1.265 0-1.54-.11Zm-6.16-4.4c0-.055 0-.11.055-.11.11-.055.22-.055.275-.055-.055.11-.055.22-.11.33-.055.66-.055 1.21-.055 1.595-.11 0-.22 0-.275-.055v-.22c.055-.33 0-.88.11-1.485Zm10.45 5.39h.55s-.055 0-.165-.055c-.11-.055-.275-.11-.44-.165a5.708 5.708 0 0 0-.66-.165c-.22-.055-.495-.055-.77-.11h-.165c.055-.165.11-.33.22-.495.275-.66.605-1.43.66-2.31.055-.275.165-.385.44-.495.055 0 .11-.055.165-.055l.33 1.1.44-1.1c.22.055.385.11.44.165.11 1.155.275 3.575-.11 3.96 0 0-.055.055-.11.055a3.217 3.217 0 0 1-.825-.33Zm18.48 5.06-.385-.275-.33.275v-1.54c0-.22-.055-.385-.165-.495 0-.055.055-.11.055-.165.22 0 .715.055.88.11v.275c0 .44.055 1.045-.055 1.76.055 0 .055 0 0 .055Zm-14.41-2.805h.385c4.015 0 8.36.055 12.43.055-.055.055-.055.165-.11.275-.275-.055-.55-.055-.77-.055h-.055c-.275 0-.495.055-.66.275-.165.165-.275.385-.33.77h-.055c-.22 0-.44.055-.66 0-.055 0-.165-.055-.275-.165-.165-.11-.33-.22-.55-.275-.33 0-.55.11-.715.275 0 0 0 .055-.055.055a9.685 9.685 0 0 0-1.815-.165h-.33c-.22 0-.44.055-.66.165-.66-.33-1.925-.165-3.025-.055-.11 0-.275 0-.33.055-.165 0-.385.11-.605.385-.055.055-.055.11-.11.165 0-.055-.055-.11-.11-.165-.22-.275-.44-.33-.605-.385-.11 0-.22 0-.33-.055-1.045-.11-2.31-.22-3.025.055-.165-.11-.385-.22-.66-.165-.22 0-.385.11-.605.22a.594.594 0 0 1-.385.165h-.99c-.055-.11-.11-.165-.165-.275a.926.926 0 0 0-.66-.275h-.275c-.44 0-.935.055-1.375.11a1.063 1.063 0 0 0-.275-.495.91.91 0 0 0-.66-.275h-.055c-.22 0-.495 0-.77.055l-.165-.33h8.8c.33.055.495.055.605.055Zm-13.255.88c-.055 0-.055-.055-.055-.11-.055-.275-.055-.495-.055-.715h.22v.825h-.11Zm12.65-6.93.33 1.43.55-1.485c.22 0 .44.055.605.11.165.825.275 1.65.33 2.42v.275c0 .22-.055.495-.055.715-.055.22-.055.44-.11.66-.055.165-.055.33-.055.44v.165s.055-.055.11-.165c.055-.11.11-.22.22-.385 0 .55-.11.88-.22.99-.77.055-1.65.055-2.31-.055l-.275-.77-.385.605c-.165-.055-.275-.11-.33-.165 0-.275.11-.77.22-1.265.22-.77.44-1.76.44-2.75 0-.22.055-.385.22-.495.055-.055.11-.055.165-.11.11-.11.33-.165.55-.165Zm-12.76.66v-.275c0-.44-.055-1.045.055-1.705 0-.055.055-.11.055-.11l.275.935.495-.935v.385c-.11.165-.22.33-.22.55-.055.495-.055.935-.055 1.265-.275-.055-.495-.055-.605-.11Zm1.54-1.1c-.11.77-.055 1.43-.055 1.925v.33c.11.055.385.11.605.11l.11-.935.165.605c0-.44 0-1.045.055-1.65 0-.165.055-.33.11-.44v-.055c-.055 0-.11-.055-.165-.055l-.275.66-.275-.66h-.055c-.165 0-.22.055-.22.165Zm1.705 2.75v-.33c0-.495-.055-1.21.055-2.035v-.055l.275 1.1.495-1.32c.11 0 .22.055.275.055.055.88.11 1.54.055 2.035-.11.275-.22.495-.275.715-.22 0-.715-.055-.88-.165Zm-.715 6.435c-.11-.715-.055-1.32-.055-1.76v-.275c.165-.055.66-.11.88-.11.055.055.055.11.055.165-.11.11-.165.275-.22.495v.33c0 .33-.055.825 0 1.375a.937.937 0 0 1-.55 0c-.055-.055-.11-.11-.11-.22Zm1.65.77c0 .11.055.165.165.22.055.055.165.055.275.055l.165-.44.33.385h.055c0-.275.055-.55.055-.77-.165-.385-.275-.715-.275-1.045 0-.22.11-.385.275-.55 0-.11-.055-.165-.11-.165-.22 0-.77.055-.935.11v.33c-.055.44-.11 1.1 0 1.87Zm3.575 1.21c-.22.11-.66.165-.935.055-.165-.055-.22-.165-.22-.275-.055-.66-.33-1.32-.55-1.76-.11-.22-.22-.495-.22-.66.275-.11 1.21-.165 1.54-.165-.055.11-.11.22-.11.33 0 .385.165.77.385 1.265.055.165.11.275.165.44 0 .165-.055.44-.055.77Zm1.43.66v-.55c0-.165-.055-.385-.055-.55-.055-.165-.11-.33-.165-.44-.055-.11-.11-.22-.165-.275-.055-.055-.055-.11-.055-.11v.44c-.11-.275-.22-.55-.33-.77-.11-.22-.22-.495-.275-.66.055 0 .11.055.11.055.165.055.275.055.44.11h.495c.165 0 .275-.055.385-.055a.42.42 0 0 0 .275-.11c.055-.055.11-.055.11-.055s-.055 0-.11-.055c-.055 0-.165-.055-.275-.055.275-.055.495-.165.66-.275.055-.055.165-.11.165-.11h.11c0 .385.11.77.22 1.265a27.4 27.4 0 0 1-.11 2.365c-.22.11-.825.22-1.265.11-.11-.055-.22-.11-.275-.165.11 0 .11-.055.11-.11Zm6.875 1.045c-.44-2.31-.33-4.18-.11-4.345.11 0 .22 0 .385-.055.99-.11 1.65-.11 2.09-.11-.055.33-.055.715-.055 1.045.11-.33.275-.66.44-.99.055 0 .055 0 .11.055 0 .22-.11.66-.22 1.155-.165.715-.44 1.595-.44 2.585 0 .22-.11.385-.33.55-.55.275-1.485.22-1.87.11Zm7.755-1.98c0 .055-.055.11-.055.165l-.165-.55-.495.715c-.165 0-.33-.055-.385-.11 0-.33-.055-.55-.055-.825.055-.165.11-.275.165-.44.22-.495.385-.935.385-1.265.11 0 .275.055.385.055h.99c-.055.165-.11.33-.165.44-.275.495-.55 1.1-.605 1.815Zm-.275-7.425h.055c.22 0 .715 0 1.155-.055h-.165c-.22 0-.385-.055-.495-.055a.24.24 0 0 1-.165-.055s.055 0 .165-.055c.11 0 .275-.055.495-.11.22 0 .44-.055.715-.11l-.165-.495c-.22-.55-.495-1.155-.55-1.925 0-.165-.11-.275-.275-.33-.055-.055-.165-.055-.22-.055l-.275.66-.33-.605c-.11 0-.165.055-.22.055-.055.88-.11 1.54-.11 2.035.055.165.165.385.22.55 0 .165.11.33.165.55Zm-25.63-4.235c-.055-.55-.11-1.155-.11-1.76.055.275.165.55.33.825-.11.11-.165.275-.165.495-.055.11-.055.275-.055.44Zm-14.795 5.885.11 1.265h.11v-.55c1.265 0 14.74-.165 27.005-.165-.055-.055-.055-.11-.055-.165h-.165c-.385 0-.77-.22-1.21-.385-.055 0-.11-.055-.11-.055l-20.46-.055c-2.035-.11-3.74-.055-5.225.11Zm1.155-62.7c.165 4.07 4.29 6.38.88 14.96-.055-1.43-.33-2.75-.825-4.07.11 1.21.055 2.42-.165 3.575-.385-5.115-1.155-7.7.11-14.465Zm-2.035 31.405c.055.77.33 1.485.77 2.035a3.17 3.17 0 0 1 .22-2.255c.055.385.11.77.165 1.1.22.825.605 1.43.88 1.815.165.165.275.33.385.385a.68.68 0 0 1 .165.11s0-.055-.055-.165a2.557 2.557 0 0 1-.165-.495 7.26 7.26 0 0 1-.22-1.76c.055-3.74 1.98-5.885.605-11.385-.22-.99-.165-1.485.165-2.475.825-2.365 3.135-4.455 3.85-6.82l-1.1.385c1.21-7.315-1.43-7.04-3.19-11.935-.11-.22-.165-.44-.165-.605 2.09-10.065 9.075-24.09 30.745-24.09 4.345-.055 8.745.44 12.87 1.925 4.125 1.43 7.92 3.85 10.835 7.15 5.995 6.71 8.525 16.335 7.7 25.245.825-8.525-2.365-18.7-7.975-24.97-2.86-3.245-6.6-5.61-10.67-7.095-.33-.11-.66-.22-1.045-.33 11.55 5.005 15.73 17.38 16.83 26.29.66-.825 1.705-1.815 1.54-2.805.77 2.365-4.565 3.63-2.53 11.88l-1.76-1.045s.055.165.165.385c.385.825 2.475 4.84 2.585 5.5-.11 5.225.11 8.305.275 9.57.11.825.77 1.705 1.485 2.64l-.33-4.015c.55 2.64 1.43 6.545.33 9.13.77-.605 1.265-1.43 1.485-2.64.165.495.33.99.385 1.54.11-.22.22-.385.275-.605.66 2.035 1.32 6.49-3.63 10.23-.44.33-.825.605-1.21.935.385-.55.66-1.155.935-1.76a15.578 15.578 0 0 1-4.125 3.3c-.275-.055-.55-.055-.88-.11a4.275 4.275 0 0 0-.88-.11c-.275-.055-.605-.055-.88-.11s-.605-.055-.88-.11c-.55-.055-1.1-.055-1.54-.055-.44 0-.77-.055-1.045-.11a4.041 4.041 0 0 1-.44-.11s.055.165.22.385.495.495.99.77l.825.33c-.055.055-.11.055-.165.11-.605.495-1.32 1.76-1.98 3.19l-.22-1.21-.33.825-.605-1.98-.055 1.265c-.77-2.2-.605-4.84.55-7.095a8.583 8.583 0 0 0-1.485 2.805c0-.22-.055-.44-.055-.66 0-.715.165-1.375.495-1.925.33-.55.825-.935 1.375-1.265 1.045-.605 2.2-.77 2.915-.88.77-.11 1.21-.165 1.21-.165s-.44-.055-1.21-.165c-.385-.055-.88-.055-1.43 0-.55.055-1.21.11-1.87.385-.66.275-1.375.66-1.98 1.375s-.935 1.65-.99 2.585c-.055.935.055 1.87.22 2.75.165.88.33 1.705.495 2.585.165.88.385 1.76.55 2.585.165.825.385 1.65.385 2.365 0 .55-.11 1.1-.33 1.54l-.935-.99-.275 1.375c-.165.055-.33.055-.495.165l-.55-.605-.275 1.265c-.22 0-.55.055-.77.165-.165-.275-.385-.495-.605-.715-.11.33-.22.605-.385.88-.22 0-.55.055-.825.165l-.77-1.155-.33 1.21a3.246 3.246 0 0 0-.77-.11c-.22 0-.605.055-.88.165l-.605-.935-.385 1.1c-.275-.165-.66-.22-1.045-.22-.33 0-.715.055-1.045.165l-.715-1.87c-.165.66-.33 1.375-.495 2.09a3.555 3.555 0 0 0-1.155-.33s-1.155-.11-1.76.165l-.55-1.925-.44 1.925c-.605-.275-1.76-.22-1.76-.22a4.79 4.79 0 0 0-1.045.275l-.385-1.815-.715 1.76c-.385-.165-.825-.275-1.21-.275s-.66.055-.935.165l-.33-1.155-.66 1.1c-.33-.165-.77-.22-1.045-.275-.275 0-.55.055-.77.11l-.385-.99-.66.99c-.275-.165-.66-.165-.88-.22h-.33c-.11-.275-.275-.55-.44-.825-.11.22-.275.385-.44.55-.11-.055-.275-.055-.385-.11l-.55-.88-.33.385c-.22-.165-.605-.275-.88-.275l-.495-.88-.495.605c-.275-.44-.385-.99-.33-1.595 0-.715.165-1.485.385-2.365.165-.88.385-1.705.55-2.585.165-.88.33-1.705.495-2.585.165-.88.275-1.815.165-2.75-.055-.935-.385-1.87-.99-2.585-.55-.715-1.32-1.1-1.98-1.375-.66-.275-1.32-.33-1.87-.385-.55-.055-1.045 0-1.43 0-.77.055-1.21.165-1.21.165s.44.055 1.21.165c.77.11 1.87.275 2.915.88.55.275 1.045.715 1.375 1.265.33.495.495 1.155.495 1.925 0 .44-.055.88-.11 1.32a8.341 8.341 0 0 0-1.76-3.3 8.341 8.341 0 0 1 .825 5.83l-.605-2.255-.055 3.96-.66-1.76.055 2.035c-.605-1.32-1.265-2.42-1.815-2.915-.055-.055-.11-.055-.165-.11l.825-.33c.44-.22.77-.55.99-.77.165-.22.22-.385.22-.385s-.165.055-.44.11-.605.11-1.045.11c-.44 0-.935 0-1.54.055-.275 0-.55.055-.88.11-.275.055-.605.055-.88.11s-.55.11-.88.11c-.275.055-.55.055-.825.11h-.055a12.346 12.346 0 0 1-4.345-3.41c.44.99.99 1.98 1.705 2.86-2.42-1.485-5.83-4.07-6.215-5.61-.22-1.87-.385-5.995.605-8.14Zm7.095 30.085c.11.11.33.165.605.22.165 0 .275.055.44.055H99.88c-.33-.055-.605-.165-.825-.385H99c-.605-.055-1.43-.055-1.76-.55h-.11c-2.42 0-4.895 0-7.315.055H85.47c-.165 0-.33 0-.495.055-.33.055-.605.165-.715.22-.165.11-.22.22-.11.33Zm-19.91 2.31.165 1.375c.055 0 .055.055.11.055l-.11-.66c.715.22 2.255.715 4.62.715.825 0 1.705-.055 2.585-.165 3.465-.44 5.17-1.21 5.885-1.595l.055.605c.11-.055.11-.11.11-.11l-.11-1.265c-1.485.825-3.685 1.375-5.28 1.485-.99.11-1.925.11-2.805.11-1.925 0-3.465-.22-4.18-.275-.495-.055-.825-.165-1.045-.275Zm43.615 20.625c-.055.055-.165.11-.275.22a4.66 4.66 0 0 1-.935.55c-.22.11-.385.165-.66.275-.22.055-.495.165-.715.22-.275.055-.495.055-.77.11-.275 0-.495 0-.77-.055s-.55-.11-.77-.165c-.275-.11-.495-.165-.77-.275-.495-.22-.99-.44-1.375-.66-.055-.055-.165-.11-.22-.165-.165-.275-.385-.495-.55-.825-.495-.66-1.045-1.43-1.65-2.255-.275-.44-.605-.825-.935-1.265-.33-.44-.605-.88-.935-1.32-.33-.44-.66-.88-.935-1.32-.33-.44-.605-.88-.935-1.265-.275-.44-.605-.825-.825-1.21-.275-.385-.55-.715-.77-1.1-.935-1.32-1.65-2.2-1.65-2.2s.275 1.1.99 2.585c.165.385.385.77.605 1.21.165.33.33.605.495.935-3.465-2.585-6.93-4.015-6.985-8.415v-.935c.055.11.11.275.11.33.44 1.155.935 2.035 1.32 2.64.165.33.33.55.44.66.11.165.165.22.165.22s-.055-.11-.11-.275c-.055-.165-.165-.44-.275-.77-.22-.66-.55-1.595-.825-2.75-.165-.55-.275-1.21-.385-1.87-.055-.385-.11-.715-.165-1.1 2.145 0 4.51-.055 7.04-.055 0 .275.055.55.055.825.055.495.495.88 1.045.88 0 .11 0 .22.055.33.055.55.495.88 1.1.935.165.33.33.66.495.935-.055-.33-.11-.605-.11-.935.11.275.275.44.55.605.165.55.385 1.045.66 1.54-.055-.495-.055-.935-.055-1.43h.44c.22.825.495 1.65.825 2.42a8.825 8.825 0 0 1 0-1.705c.165.055.33.055.495.055.165.935.44 1.76.88 2.585-.11-.935-.055-1.87.11-2.805h.055v.11c.055.495.385.88.825 1.045.22.825.55 1.595.88 2.31a9.896 9.896 0 0 1-.055-2.2c.275 0 .605-.11.88-.22 0 .055 0 .165.055.22.11 1.32.495 2.53.99 3.685-.11-.935-.11-1.87 0-2.75.22.055.44.11.66.11h.055c.22 0 .495-.055.715-.11.22 1.045.495 2.035.935 2.97-.11-.935-.055-1.87 0-2.805.275.33.77.55 1.375.66.165 1.045.385 2.035.715 3.025 0-1.045.11-2.035.275-3.025.495-.055 1.045-.165 1.155-.55 0 0 0-.11.055-.22 0 .11.055.22.055.22.055.33.44.495.88.55l.385 3.3.66-3.245h.11c.44-.055.825-.165 1.1-.33l.385 3.355.77-3.85c.275.11.605.165.825.165h.055c.22 0 .385 0 .605-.055l.165 2.31.99-3.245c0-.055.055-.055.055-.11.165 0 .275.055.44.11l.22 2.75.825-2.75c.495-.11.77-.44.935-.88.11.66.165 1.375.165 2.035a9.03 9.03 0 0 0 .77-2.145h.055c.165 0 .275 0 .385-.055 0 .44.055.88 0 1.265.22-.495.44-1.045.605-1.595a.8.8 0 0 0 .33-.495c.11 0 .22.055.33.055.11.33.055.715.055 1.045.165-.385.33-.715.495-1.1.11-.055.22-.055.33-.11 0 .22-.055.385-.11.605.22-.385.44-.77.605-1.155h.165c.715 0 1.21-.385 1.265-.935 0-.11 0-.22.055-.33.55-.055.935-.33 1.045-.77.33-.275.66-.55.935-.88 1.76 0 3.355.055 4.84.055.055.44.055.825.055 1.265-.11.385-.22.715-.33 1.045-.11.33-.22.66-.385.99-.165.33-.275.66-.385.935-.11.275-.275.55-.385.825-.11.275-.22.495-.33.715-.11.22-.22.385-.275.55-.165.275-.22.495-.22.495s.165-.11.44-.33c.165-.11.33-.22.495-.385.165-.165.385-.33.55-.605l.22-.22c-.77 1.87-2.145 3.52-4.18 4.84 0-.055.055-.11.055-.165.55-1.375.77-2.31.77-2.31s-.605.77-1.43 1.98c-.22.33-.44.605-.66.99-.22.33-.495.715-.715 1.1l-.33.495c-2.475 2.86-4.62 7.205-7.095 9.02-.22.055-.495.11-.825.165-.33.055-.715.055-1.045.055-.165 0-.385-.055-.55-.055-.22 0-.385-.055-.55-.11-.165-.055-.385-.11-.55-.165-.165-.055-.33-.165-.55-.22a2.57 2.57 0 0 0-.55-.275c-.165-.11-.385-.165-.55-.22-.385-.165-.715-.165-.935-.11-.11 0-.22.055-.275.055-.055 0-.11.055-.11.055s.11.055.275.165c.165.11.385.275.605.495l.055.055c-.55-.11-1.21-.165-2.09-.165-1.045 0-1.815.055-2.365.22.11-.165.22-.33.275-.495.055-.11.11-.22.11-.33 0-.055.055-.11.055-.11s-.055-.275-.165-.22Zm47.85-22.44c.11.055.385.165.44.385v1.815s-1.21 2.2-6.93 2.2-8.91-1.76-10.23-1.87c-.385-.055-1.98-.055-4.4-.11v3.63c-.055 4.29-2.915 6.215-5.72 8.14-.66.495-1.375.935-2.09 1.485-1.375 1.045-2.64 2.695-3.905 4.345-1.98 2.53-3.795 4.95-6.16 5.39-.55.11-1.045.165-1.485.165-.99 0-1.54-.275-2.09-.495-.605-.275-1.265-.605-3.245-.605-2.035 0-2.695.33-3.3.605-.495.22-1.1.495-2.09.495-.44 0-.935-.055-1.485-.165-2.365-.44-4.18-2.805-6.16-5.39-1.265-1.595-2.53-3.3-3.905-4.345-.715-.55-1.375-1.045-2.09-1.485-2.75-1.925-5.665-3.905-5.72-8.14V145.42c-4.4.055-7.315.055-7.315.055s-1.32 1.265-6.27 1.87c-.935.11-1.815.165-2.585.165-3.3 0-5.005-.88-5.005-.88l-.22-1.925c0-.055 0-.055.055-.11l.11-.165 7.15-.66.55-.275c-.11-.55-.66-.715-.66-.715l-6.71.55c-.165-.44-.33-1.43-.33-1.43 0-.11.165-.33 1.485-.77.935-.275 3.41-.935 6.27-1.21 2.09-.165 5.005.11 6.435.99.99.165 2.805.33 6.215.385h.825c-.055-.495-.055-.99-.055-1.485v-3.575a154.73 154.73 0 0 0-.33-7.59c-1.87-.44-8.745-4.895-9.46-7.7-.44-1.76-1.045-8.8 1.87-10.615 1.76-1.1 1.375-6.325 1.155-8.085-.66-5.06-.715-7.59-1.21-12.265-.385-4.07.275-16.445 8.305-25.3 5.72-6.325 13.97-9.57 24.53-9.57s18.81 3.19 24.53 9.57c7.975 8.8 8.69 21.23 8.305 25.3-.495 4.675-.55 7.205-1.21 12.265-.22 1.76-.605 6.985 1.155 8.085 2.97 1.815 2.31 8.91 1.87 10.615-.715 2.86-7.92 7.48-9.625 7.7-.33 4.015-.385 8.855-.44 12.87 1.265 0 2.365-.055 3.3-.165.275-.935 1.98-1.485 3.465-1.595 2.695-.275 5.83 0 7.04.165 2.035.22 2.42.495 2.475.55l.11.11v1.265l-5.61.715c1.21.715 2.86 1.045 3.41 1.1l6.49-.66.495.165Zm-42.735 17.82c0 .165.055.33.055.495.055.11.055.165.055.165s0-.055.055-.165c0-.11.055-.275.055-.44 0-.165.055-.44.055-.66 0-.22 0-.495.055-.77v-.77c0-.22-.055-.44-.055-.66 0-.22-.055-.33-.055-.44 0-.11-.055-.165-.055-.165s0 .055-.055.165c0 .11-.055.275-.055.44 0 .165-.055.44-.055.66 0 .22 0 .495-.055.77v.77c0 .165.055.44.055.605Zm-6.05-3.685c-.055-.165-.11-.275-.165-.385-.055-.11-.055-.165-.055-.165v3.74s0-.055.055-.165c.055-.11.11-.22.165-.385.055-.165.11-.385.11-.605 0-.22.055-.44.055-.715 0-.22-.055-.495-.055-.715 0-.22-.055-.44-.11-.605Zm-1.265.22c-.055-.33-.11-.605-.11-.77-.055-.165-.055-.275-.055-.275v1.045c0 .33-.055.715-.055 1.1 0 .385-.055.825-.055 1.265 0 .44-.055.825-.11 1.265-.055.385-.055.77-.11 1.1-.055.33-.055.605-.055.77v.275s.055-.11.11-.275c.055-.165.165-.44.22-.77.055-.33.165-.66.22-1.1.055-.385.11-.825.165-1.265v-1.265c-.11-.385-.11-.77-.165-1.1Z" fill="#9C9C9C"/></svg>