<svg width="220" height="220" fill="none" xmlns="http://www.w3.org/2000/svg"><path fill-rule="evenodd" clip-rule="evenodd" d="m110 24.42.33 70.235 3.85-70.125-3.19 70.18 7.37-69.85-6.71 69.905 10.835-69.41-10.23 69.52L126.61 26.07l-13.695 68.915 17.765-67.98-17.16 68.145 21.175-66.99-20.515 67.155 24.475-65.78-23.87 66.055 27.775-64.515-27.17 64.735 30.965-63.03-30.415 63.305 34.155-61.38-33.55 61.71 37.18-59.62-36.63 59.95 40.095-57.64-39.545 58.025L160.6 41.58l-42.46 55.935 45.705-53.35-45.21 53.79L166.98 46.97l-47.85 51.425 50.82-48.51-50.38 49.005 53.185-45.87-52.745 46.365 55.44-43.175-55.055 43.67 57.53-40.315-57.145 40.865 59.455-37.4-59.125 37.95 61.325-34.375-60.995 34.925 62.92-31.185-62.645 31.735 64.46-27.995-64.185 28.6 65.78-24.695-65.56 25.3 66.935-21.395-66.715 22.055 67.925-18.04-67.76 18.645 68.75-14.575-68.585 15.235 69.355-11.11-69.245 11.715 69.795-7.59-69.74 8.25 70.125-4.07-70.07 4.73 70.235-.55-70.235 1.21 70.18 2.97-70.235-2.31 69.96 6.49-70.015-5.885 69.575 10.01-69.63-9.35L191.73 123.2l-69.08-12.815 68.2 16.94-68.31-16.335 67.21 20.35-67.43-19.69 66.165 23.705-66.385-23.1L187 139.26l-65.12-26.4 63.415 30.195-63.69-29.59 61.82 33.33-62.15-32.78 60.06 36.41-60.39-35.86 58.19 39.38-58.52-38.83 56.1 42.295-56.54-41.745 53.955 44.99-54.34-44.495 51.59 47.685-52.03-47.245 49.115 50.27-49.61-49.775 46.585 52.635-47.025-52.195 43.835 54.89-44.385-54.505 41.03 57.035-41.525-56.65 38.115 59.015-38.665-58.63 35.09 60.83-35.64-60.5 31.955 62.535-32.56-62.26 28.82 64.075-29.425-63.8 25.575 65.45-26.18-65.23 22.275 66.66-22.88-66.44 18.865 67.65-19.47-67.485 15.4 68.53-16.06-68.365 11.99 69.245-12.65-69.135 8.525 69.74-9.13-69.63 4.95 70.07-5.61-70.07 1.43 70.235-2.09-70.18-2.09 70.18 1.43-70.235-5.61 70.07 4.95-70.07-9.13 69.63 8.525-69.74-12.65 69.135 11.99-69.245-16.06 68.365 15.4-68.53-19.47 67.485 18.865-67.65-22.88 66.44 22.275-66.66-26.18 65.23 25.575-65.45-29.425 63.8 28.82-64.075-32.56 62.26 31.955-62.535-35.64 60.5 35.09-60.83-38.665 58.63 38.115-59.015-41.525 56.65 41.03-57.035-44.385 54.505 43.835-54.89L54.56 169.73l46.585-52.635-49.61 49.775 49.115-50.215-52.03 47.19 51.59-47.685-54.34 44.495 53.955-44.99-56.54 41.745 56.1-42.295-58.52 38.83 58.19-39.38-60.39 35.86 60.06-36.41-62.15 32.78 61.82-33.33-63.69 29.59L98.12 112.86 33 139.26l64.9-27.005-66.385 23.1L97.68 111.65l-67.43 19.69 67.21-20.35-68.31 16.335 68.145-16.94L28.27 123.2l68.915-13.475-69.63 9.35 69.575-10.01-70.015 5.885 69.96-6.49-70.235 2.31 70.18-2.97-70.235-1.21 70.235.55-70.07-4.73 70.125 4.07-69.74-8.25 69.795 7.59-69.245-11.715 69.355 11.11L28.655 89.98l68.75 14.575-67.76-18.645 67.925 18.04-66.715-22.055L97.79 103.29l-65.56-25.3 65.78 24.695-64.185-28.6 64.46 27.995L35.64 70.345l62.92 31.185-60.995-34.925L98.89 100.98 39.765 63.03l59.455 37.4-57.145-40.865 57.53 40.315L44.55 56.21l55.44 43.175L47.245 53.02l53.185 45.87-50.38-49.005 50.82 48.51L53.02 46.97l48.345 50.985-45.21-53.79 45.705 53.35L59.4 41.58l42.955 55.55L62.81 39.105l40.095 57.64-36.63-59.95 37.18 59.62-33.55-61.71 34.155 61.38L73.645 32.78l30.965 63.03-27.17-64.735 27.775 64.515-23.87-66.055L105.82 95.37 85.305 28.16l21.175 66.99-17.16-68.145 17.765 67.98L93.39 26.07l14.355 68.805-10.23-69.52 10.835 69.41-6.71-69.905 7.37 69.85-3.19-70.18 3.85 70.125.33-70.235Z" fill="#9C9C9C"/><path fill-rule="evenodd" clip-rule="evenodd" d="M44.88 144.705h130.295c1.815 0 3.52.77 4.73 2.145 1.21 1.375 1.76 3.135 1.485 4.95l-4.455 33.825c-.385 3.135-3.08 5.445-6.215 5.445H49.335c-3.135 0-5.775-2.31-6.215-5.445L38.665 151.8c-.22-1.815.275-3.575 1.485-4.95 1.21-1.43 2.86-2.145 4.73-2.145Z" fill="#9C9C9C"/><path fill-rule="evenodd" clip-rule="evenodd" d="M44.88 145.75h130.295c1.54 0 2.915.605 3.905 1.76a5.267 5.267 0 0 1 1.265 4.07l-4.455 33.825a5.162 5.162 0 0 1-5.115 4.51H49.335a5.162 5.162 0 0 1-5.115-4.51l-4.455-33.825c-.22-1.485.22-2.97 1.265-4.07a5.005 5.005 0 0 1 3.85-1.76Z" fill="#fff"/><path fill-rule="evenodd" clip-rule="evenodd" d="M44.88 148.005h130.295c.88 0 1.65.33 2.2.99.605.66.825 1.485.715 2.365l-4.455 33.825c-.22 1.485-1.43 2.585-2.915 2.585H49.335c-1.485 0-2.75-1.1-2.915-2.585l-4.455-33.825c-.11-.88.11-1.65.715-2.365.55-.66 1.265-.99 2.2-.99Z" fill="#9C9C9C"/><path fill-rule="evenodd" clip-rule="evenodd" d="m81.675 176.495-30.03.55v.385l30.03.495v-1.43ZM81.675 178.695l-26.84.495v.385l26.84.495v-1.375ZM81.675 180.84l-22.66.495v.385l22.66.55v-1.43ZM81.675 183.04l-17.16.495v.385l17.16.495v-1.375ZM143.385 176.495l24.97.55v.385l-24.97.495v-1.43ZM143.385 178.695l22.33.495v.385l-22.33.495v-1.375ZM143.385 180.84l18.865.495v.385l-18.865.55v-1.43ZM143.385 183.04l14.3.495v.385l-14.3.495v-1.375ZM65.835 162.69v10.23c0 .33-.165.55-.495.55-.66 0-1.32 0-2.035-.055-.22 0-.385-.165-.385-.44v-2.2c0-.66.055-1.375.055-2.09V160.82c-.055-.055-.165-.055-.22-.055-.11 0-.11.11-.11.165-.11.44-.165.825-.22 1.21-.165.825-.33 1.705-.44 2.53l-.55 3.135c-.165.935-.275 1.815-.495 2.75-.055.385-.11.715-.165 1.155 0 .275-.275.44-.55.44h-1.87c-.33 0-.55-.11-.605-.495-.11-.495-.165-.99-.275-1.54l-.55-3.025c-.165-1.155-.385-2.255-.605-3.41l-.495-2.75v-.165c-.055-.11-.11-.11-.165-.11-.11 0-.165.055-.165.165v3.685c0 .715.055 1.43 0 2.2 0 1.925.055 3.795.055 5.72v.55c-.055.33-.22.55-.55.55h-1.87c-.275 0-.44-.22-.44-.55v-20.46c0-.385.11-.55.55-.55h3.3c.22 0 .44.22.495.495l.44 2.31.825 4.785c.165 1.155.385 2.255.605 3.41.11.44.165.88.22 1.32 0 .11.055.22.275.22.22 0 .22-.11.22-.275l.55-3.355c.11-.605.275-1.265.385-1.925.11-.605.165-1.265.33-1.925.11-.715.22-1.43.33-2.09.165-.77.275-1.595.44-2.365.11-.385.22-.495.605-.495h3.19c.385 0 .55.165.55.605v10.01h-.165ZM73.645 151.91h1.87c.275 0 .55.11.77.33.55.55 1.1 1.1 1.65 1.705.22.22.275.44.275.825 0 .88-.055 1.76 0 2.64.055.605 0 1.21 0 1.87v11.55a.91.91 0 0 1-.275.66l-1.65 1.65c-.275.275-.55.385-.935.385-1.155-.055-2.365 0-3.575 0-.275 0-.55-.11-.77-.33l-1.65-1.65c-.275-.22-.385-.495-.385-.88v-15.95c0-.385.165-.605.44-.88.44-.385.88-.88 1.32-1.32.33-.385.715-.55 1.21-.495.66-.11 1.155-.11 1.705-.11Zm1.76 10.78v-6.985c0-.385-.385-.935-.88-.99h-1.65c-.55 0-.935.495-.935.99v13.805c0 .495.495 1.045.99 1.045.495-.055 1.045 0 1.54-.055.385 0 .935-.495.935-.935v-6.875ZM83.215 164.12V155.375c0-.44-.165-.605-.605-.605h-1.98c-.44 0-.605-.22-.605-.605v-1.76c0-.33.165-.495.495-.495 1.155.055 2.365 0 3.52.055.33 0 .66 0 .99-.055 1.21 0 2.365.055 3.575.055.385 0 .605.165.605.55v1.65c.055.385-.165.605-.605.605h-1.98c-.44 0-.605.165-.605.66-.055.715 0 1.43 0 2.145-.055.55 0 1.155 0 1.705v10.505c-.055.22 0 .44 0 .66v2.42c0 .44-.165.66-.605.605-.55-.055-1.1 0-1.65 0-.44-.055-.55-.165-.55-.605V164.12ZM95.755 151.91h1.87c.275 0 .55.11.77.33.55.55 1.1 1.1 1.65 1.705.22.22.33.44.33.825 0 .88-.055 1.76 0 2.64v13.42c0 .275-.11.495-.33.66l-1.65 1.65c-.275.275-.55.385-.935.385-1.155-.055-2.365 0-3.575 0-.33 0-.55-.11-.77-.33l-1.65-1.65c-.275-.22-.385-.495-.385-.88.055-1.21.055-2.475.055-3.74V160.875c0-.88-.055-1.76-.055-2.585 0-1.21.055-2.365.055-3.575 0-.385.165-.605.385-.88.44-.385.88-.88 1.32-1.32.33-.385.715-.55 1.21-.495.605-.11 1.155-.11 1.705-.11Zm1.705 10.78v-6.985c0-.385-.385-.935-.88-.99h-1.65c-.55 0-.935.495-.935.99v3.575c.055.77 0 1.485.055 2.2 0 1.265-.055 2.475-.055 3.685 0 1.43.055 2.915 0 4.345 0 .495.55 1.045 1.045 1.045.495-.055 1.045 0 1.54-.055.385 0 .88-.495.88-.935.055-.66 0-1.375 0-2.09v-4.785ZM106.425 169.345v2.585c0 .33 0 .66-.055 1.045 0 .275-.165.495-.495.495h-1.87c-.33 0-.495-.22-.495-.605.055-.55 0-1.155 0-1.705.055-1.32 0-2.64 0-3.905V153.56c0-.385 0-.715.055-1.1 0-.33.165-.55.55-.55h5.775c.385 0 .715.165.99.385.44.44.88.935 1.375 1.375.33.275.495.66.495 1.155 0 1.815.055 3.63 0 5.5 0 .66.055 1.375 0 2.035 0 .275-.055.55-.33.77-.385.33-.715.77-1.1 1.1-.165.22-.33.495-.22.825.385 1.87.715 3.795 1.1 5.72.11.715.275 1.375.44 2.09.055.385-.11.55-.44.55h-1.87c-.385 0-.55-.165-.66-.55-.22-1.045-.385-2.035-.605-3.08l-.825-4.125c-.055-.385-.275-.55-.66-.55-.165.055-.385.055-.605.055-.275 0-.44.22-.44.495v3.685h-.11Zm0-10.835v3.3c0 .275.22.55.495.55.66 0 1.32-.055 1.925-.055.44.055 1.045-.44.99-1.045v-5.5c0-.44-.55-1.045-1.045-.99h-1.815c-.385 0-.55.165-.55.55v3.19ZM118.58 162.8c-.055.88-.055 1.815-.055 2.75 0 .825 0 1.595.055 2.365v1.595c-.055.495.44 1.045.99 1.045.495-.055.99-.055 1.485-.055.44.055.935-.495.935-.99v-3.135c0-.33.165-.495.495-.495.605 0 1.21-.055 1.815 0 .33 0 .55.165.55.55v4.125c0 .33-.055.605-.275.825-.55.55-1.1 1.155-1.65 1.65-.275.22-.55.385-.935.385-.825-.055-1.595-.055-2.42-.055h-1.155c-.275.055-.55-.11-.715-.275-.495-.55-.99-1.045-1.54-1.54a1.408 1.408 0 0 1-.44-1.045v-15.73c0-.385.11-.715.385-.99a42.89 42.89 0 0 1 1.595-1.54c.165-.22.495-.33.77-.33 1.21.055 2.475.055 3.685.055.33 0 .605.11.825.33l1.54 1.54c.22.275.385.55.33.88v4.125c0 .44-.165.605-.55.605h-1.76c-.33 0-.495-.22-.495-.55 0-.605.055-1.21 0-1.815v-1.265c.055-.605-.55-1.045-1.045-1.045-.44.055-.935 0-1.43 0-.44 0-.99.495-.99 1.045.055.66 0 1.375 0 2.09 0 1.155 0 2.31.055 3.465-.055.495-.11.935-.055 1.43ZM129.855 168.685v-4.015c0-.385-.055-.77-.165-1.1a87.96 87.96 0 0 1-1.265-4.07c-.495-1.485-.935-2.97-1.43-4.455l-.715-2.365c0-.055-.055-.22-.055-.33-.055-.22.11-.385.33-.385h2.09c.22 0 .495.22.55.495.22.77.385 1.485.605 2.255.22.77.495 1.54.715 2.31.11.66.385 1.265.55 1.925.055.11.055.275.22.275s.22-.11.275-.275c.275-.99.605-1.98.825-2.97l.99-3.41c.11-.44.33-.605.77-.605.605.055 1.21.055 1.87.055.275 0 .44.165.33.495-.22.77-.44 1.54-.715 2.31-.275.935-.55 1.87-.88 2.805-.275.99-.605 1.925-.935 2.915-.22.715-.44 1.485-.66 2.145-.11.385-.22.77-.385 1.155-.11.33-.11.66-.11 1.045v7.975c.055.44-.165.605-.605.66h-1.705a.493.493 0 0 1-.495-.495V168.685ZM140.855 162.8c-.055.88-.055 1.815-.055 2.75 0 .825 0 1.595.055 2.365v1.595c-.055.495.44 1.045.99 1.045.495-.055.99-.055 1.485-.055.495.055.99-.495.99-.99v-3.135c0-.33.165-.495.495-.495.605 0 1.21-.055 1.815 0 .33 0 .55.165.55.55v2.86c0 .385-.055.88 0 1.265 0 .33-.055.605-.275.825-.55.55-1.1 1.155-1.65 1.65-.275.22-.55.385-.935.385-.825-.055-1.595-.055-2.42-.055h-1.155c-.275.055-.55-.11-.715-.275-.495-.55-.99-1.045-1.54-1.54a1.408 1.408 0 0 1-.44-1.045v-15.73c0-.385.11-.715.385-.99a42.89 42.89 0 0 1 1.595-1.54c.165-.22.44-.33.77-.33 1.21.055 2.475.055 3.685.055.33 0 .605.11.825.33l1.54 1.54c.22.275.385.55.33.88v4.125c0 .44-.165.605-.55.605h-1.76c-.33 0-.495-.22-.495-.55v-1.815c-.055-.385 0-.825 0-1.265 0-.605-.55-1.045-1.045-1.045-.495.055-.935 0-1.43 0-.495 0-.99.495-.99 1.045.055.66 0 1.375 0 2.09 0 1.155 0 2.31.055 3.465-.11.495-.165.935-.11 1.43ZM150.095 162.745v-10.34c0-.275.22-.44.495-.44h1.925c.33 0 .495.22.495.55v17.6c0 .385.165.55.55.55h3.575c.385 0 .605.22.605.55v1.705c0 .385-.165.55-.55.605h-5.555c-.33 0-.66-.055-.935 0-.275 0-.55-.22-.55-.605v-5.39c-.055-1.595-.055-3.19-.055-4.785ZM163.68 173.525h-3.465c-.385 0-.605-.22-.605-.605.055-.77 0-1.54.055-2.31v-3.355c0-1.1-.055-2.145-.055-3.19 0-.715.055-1.43.055-2.145 0-.88-.055-1.815 0-2.695 0-.715-.055-1.485 0-2.2 0-.66-.055-1.32-.055-2.035 0-.825.055-1.65.055-2.475 0-.33.165-.495.495-.495h7.095c.495 0 .605.165.605.66 0 .55-.055 1.045 0 1.595 0 .385-.165.605-.55.605H163.02c-.33 0-.495.165-.495.495v4.84c0 .44.165.605.605.605h2.75c.44 0 .55.165.55.605v1.65c0 .495-.165.605-.605.55H163.02c-.385.11-.495.22-.495.605v5.885c0 .44.165.605.605.605h4.235c.33 0 .495.165.55.55 0 .495-.055 1.045 0 1.54 0 .55-.165.77-.715.77-1.155-.055-2.365-.055-3.52-.055Z" fill="#fff"/><path fill-rule="evenodd" clip-rule="evenodd" d="M140.965 176.66c.33-.55.715-1.045 1.1-1.54.715-.935 1.54-1.76 2.42-2.585.88-.825 1.98-1.485 3.19-1.65.22-.055.495-.055.715-.055.495 0 .99.165 1.375.44.495.33.715.825.825 1.43.055.55 0 1.155-.165 1.65v.055c.055-.055.165-.055.22-.11.605-.22 1.21-.275 1.815.055.605.275.88.825.825 1.485 0 .44-.055.88-.11 1.32-.055.44-.165.88-.33 1.32-.22.825-.55 1.65-.825 2.42a12.536 12.536 0 0 1-1.98 3.3c-.055.055-.11.165-.165.22.55 0 1.1.11 1.595.275.99.33 1.375 1.155 1.43 2.145.055 1.32-.22 2.585-.88 3.74-.495.825-.99 1.705-1.65 2.42a18.585 18.585 0 0 1-3.025 2.475c-1.21.825-2.53 1.375-3.96 1.705-1.265.33-2.86.55-3.96-.275-.88-.605-1.375-1.485-1.54-2.585a7.252 7.252 0 0 1 .165-3.08c.055-.33.165-.605.275-.935a3.1 3.1 0 0 0-.66.22h-.055c-.77.22-1.54.495-2.31.77-.935.33-1.815.77-2.75 1.155-.44.22-.88.495-1.32.715-.495.275-.935.495-1.43.77l-1.65.99c-.55.385-1.155.77-1.76 1.1a38.93 38.93 0 0 1-2.585 1.43c-.99.55-1.98.99-2.97 1.43-.99.385-1.98.715-3.025.935-1.54.33-3.63.495-4.785-.825-.99-1.155-.99-2.64-.55-4.07.055-.22.22-.44.33-.66.33-.495.935-.605 1.485-.44.275.11.605.165.88.22.44.11.99.055 1.485 0 .825-.11 1.65-.275 2.475-.44 1.155-.275 2.365-.715 3.465-1.155 1.375-.55 2.805-1.1 4.18-1.705l3.465-1.485c.77-.33 1.54-.605 2.365-.935h-.055a1.361 1.361 0 0 1-.77-.88c0-.055 0-.11-.055-.165l-.055-.165v-.165c0-.77.165-1.595.275-2.31.165-.99.495-1.98.825-2.915-.165.165-.275.385-.385.55a9.642 9.642 0 0 0-1.43 2.805c-.11.44-.22.825-.33 1.265-.055.275-.11.605-.165.88-.055.275-.055.605-.22.825-.165.22-.33.495-.55.66h-.055c-.22.11-.44.165-.66.165-.77.055-1.65.055-2.42-.11-.55-.11-1.1-.33-1.595-.66a1.95 1.95 0 0 1-.77-1.375c-.055-.495 0-.935.055-1.43.22-.77.44-1.54.715-2.31-.44 1.045-.77 2.2-.935 3.355-.055.605-.055 1.485.33 1.98.11.165.22.385.275.55.165.55-.11.99-.605 1.21-.33.165-.605.275-.935.44-.44.22-.88.33-1.32.44-.495.11-.99.165-1.485.165-.605 0-1.155-.11-1.705-.33-.385-.165-.66-.44-.77-.88 0-.055 0-.11-.055-.165l-.055-.11v-.165c0-.275 0-.605.055-.88-.22.22-.495.44-.715.715-1.045.99-2.255 1.76-3.52 2.42-1.43.715-2.97 1.1-4.565 1.1-1.21.055-2.42-.33-2.915-1.54-.44-1.045-.385-2.2-.165-3.3.275-1.32.825-2.585 1.485-3.795.66-1.21 1.485-2.42 2.365-3.52.55-.66 1.155-1.21 1.76-1.815.605-.55 1.32-1.1 2.035-1.485.66-.385 1.43-.715 2.2-.88a3.93 3.93 0 0 1 2.255.165c.935.385 1.265 1.21 1.21 2.145-.055.935-.385 1.815-.825 2.585-.495.935-1.1 1.76-1.76 2.585-.605.715-1.32 1.375-2.2 1.815-.495.275-1.21.605-1.76.605-.385 0-.77-.11-1.045-.44l-.11-.11-.055-.055c-.055.33-.11.715-.055.88.055.22.33.22.55.22.77 0 1.54-.165 2.255-.495.77-.33 1.485-.715 2.145-1.155.66-.44 1.265-.88 1.87-1.375.44-.385.935-.825 1.32-1.265l.055-.055c.055-.11.11-.275.165-.385.715-1.65 1.54-3.3 2.475-4.84.275-.495.935-1.54 1.32-1.98.275-.385.605-.66 1.045-.715-.055-.11-.165-.165-.22-.275-.22-.33-.33-.77-.33-1.155 0-.605.385-1.265.66-1.815.495-.825 1.21-1.485 1.98-2.035.77-.495 1.595-.935 2.475-1.21.77-.22 1.54-.385 2.365-.275.715.055 1.43.33 1.87.99v.055c.385.77.055 1.54-.55 2.09-.55.55-1.21 1.045-1.87 1.485-.715.495-1.43.935-2.145 1.375-.275.165-.935.605-1.1.88l-.055.055-.055.055c-.165.165-.33.275-.495.33.22.165.44.44.605.66.11.165.165.385.22.55.385-.66.77-1.375 1.155-2.035.385-.55.935-.825 1.595-.825.33 0 .715 0 1.045.11.055 0 .165.055.22.055.275.055.495.165.66.33.33.165.55.495.77.825.275.44.275.88.165 1.32.33-.33.715-.605 1.045-.935a18.484 18.484 0 0 1 2.695-1.925c.165-.165.33-.22.55-.33h.055l.055-.055.11-.055c.385-.22.825-.385 1.21-.495.605-.165 1.21-.055 1.65.385.605.55.77 1.32.495 2.145-.165.55-.44 1.045-.715 1.54.33.11.33.165.275.22Zm-28.105 6.27c.11-.165.275-.275.33-.44.22-.275.385-.605.55-.935 0 .055-.055.055-.055.11-.275.44-.55.88-.825 1.265Zm29.37 4.125c0 .055.055.055.055.11l.055-.055c.055-.055.11-.11.22-.165-.11.055-.22.11-.33.11Zm-.77 3.85c0 .165-.055.275-.055.44 0 .275.11.44.385.605.495.275 1.87.055 2.42-.055.66-.165 1.32-.44 1.925-.77.66-.385 1.265-.825 1.87-1.32.605-.495 1.1-1.1 1.54-1.76-.11 0-.22.055-.33.055-.66.11-1.32.275-1.925.55-.66.275-1.32.605-1.925 1.045-.495.33-.825.77-.99 1.32v.11c-.11.22-.275.44-.495.605-.22.165-.495.22-.715.11-.165 0-.33-.055-.495-.055-.33-.055-.605-.22-.88-.44a3.05 3.05 0 0 0-.33-.44Zm6.49-13.695a3.79 3.79 0 0 0-.44.165c-.495.11-1.155.11-1.375-.495-.165-.385-.165-.77.055-1.155.11-.165.22-.33.385-.44.055-.055.11-.11.11-.165.11-.165.165-.33.275-.55 0-.055 0-.055.055-.11-.165.055-.33.11-.495.22-.165.11-.275.165-.44.275-.055.055-.165.11-.22.22-.495.44-.99 1.1-1.32 1.65-.44.715-.88 1.485-1.155 2.31-.165.44-.44 1.595-.33 2.035.055.165.275.165.44.11.275-.055.66-.275.88-.385a8.056 8.056 0 0 0 1.32-.935c.495-.385.935-.77 1.375-1.21.33-.275.605-.55.88-.88 0-.165.055-.33.11-.495l-.11-.165Zm-62.92 15.895c.55.55 1.1 1.155 1.705 1.705.66.605 1.375 1.21 2.145 1.595.935.44 1.87.55 2.86.495.935-.055 1.87-.165 2.75-.385.275-.055.605-.055.88.055.715.22.715.935.44 1.54v.055l-.055.055-1.155 1.485c-.495.605-1.1 1.21-1.705 1.705-.66.605-1.375 1.1-2.145 1.54-.77.495-1.65.77-2.585.825-1.155.11-2.255-.11-3.19-.88a11.579 11.579 0 0 1-2.145-2.475c-.66-1.045-1.21-2.09-1.65-3.245l-.66-1.65c-.495 1.155-.935 2.365-1.155 3.52-.11.715-.33 1.76-.275 2.475v.165c0 .165-.055.385-.11.55-.11.385-.385.66-.66.88h-.11c-1.375.77-3.355 1.815-4.95 1.925-1.815.11-2.2-1.32-1.925-2.86.22-.99.77-2.09 1.21-2.97.495-1.045 1.045-2.035 1.595-3.08-.99 0-2.145-.165-2.97-.66-.715-.44-1.32-1.045-1.43-1.925-.165-.825.11-1.54.55-2.255.44-.715 1.1-1.265 1.815-1.705.605-.33 1.265-.66 1.925-.825.165-.055.33-.11.44-.11-.33-.165-.66-.385-.88-.66-.385-.495-.44-1.045-.385-1.65.055-.77.44-1.705.825-2.365.88-1.76 2.035-3.3 3.355-4.73 1.32-1.43 2.97-2.64 4.62-3.74 2.145-1.375 4.565-2.2 7.04-2.75 1.705-.33 3.85-.605 5.5-.055 1.265.385 2.365 1.155 2.97 2.365.55 1.21.55 2.585.22 3.85-.33 1.54-1.045 2.97-1.925 4.29-.825 1.375-1.87 2.64-2.97 3.85-1.155 1.21-2.42 2.365-3.74 3.355-1.155 1.045-2.585 1.925-4.07 2.695Zm-7.535-4.675c.33.055.715.11 1.045.165l.495-.825c.165-.22.33-.495.44-.715v-.11c.715-1.1 1.375-2.2 2.145-3.245.55-.825 1.1-1.65 1.595-2.42-.22.165-.385.33-.605.495a21.336 21.336 0 0 0-2.31 2.145c-.605.66-1.21 1.32-1.705 2.09-.275.44-.66.99-.77 1.54.055.33-.11.66-.33.88Zm5.775 1.815c.11-.055.22-.11.385-.22.495-.275.99-.605 1.485-.99 1.87-1.32 4.07-3.025 5.39-4.95.77-1.1 1.595-2.53 1.87-3.795.165-.605.11-1.1-.33-1.54-.33-.33-1.1-.385-1.76-.33.055.22.11.495.11.77 0 1.045-.825 2.31-1.43 3.08-.11.165-.275.33-.385.495-.11.11-.22.275-.33.385-.055.055-.055.165-.11.22l-.055.055-.055.055c-.165.165-.33.385-.495.605-.275.33-.55.715-.825 1.045-.275.33-.55.715-.825 1.1l-.66.99c-.495.715-.935 1.43-1.43 2.145a4.75 4.75 0 0 1-.55.88Zm-6.49 1.43a1.832 1.832 0 0 0-1.21.055c-.11.055-.33.11-.33.275v.165c.275.11.605.11.88.11.11 0 .22-.055.33-.055l.33-.55Zm28.765 2.365c.22-.33.22-.715.055-1.045l-.11-.275-.055-.055c-.385-.55-.55-1.155-.495-1.87.055-.935.385-1.87.715-2.75a20.69 20.69 0 0 1 1.375-2.97v-.055c.22-.495.275-.99.055-1.485-.22-.825-.825-1.32-1.595-1.595l-.11-.055h-.055c-.165-.055-.33-.055-.495-.055v-.55c-.055-.715-.385-1.265-.99-1.65a1.81 1.81 0 0 0-1.045-.33c-.22 0-.385 0-.605-.055h-.11c-1.265.11-2.365.715-3.3 1.595-.88.825-1.76 1.705-2.475 2.695-.44.55-.88 1.21-1.32 1.815-.495.77-.99 1.54-1.375 2.365a21 21 0 0 0-1.155 2.53c-.275.77-.495 1.595-.55 2.42-.055.715.11 1.485.495 2.09.495.715 1.375.935 2.2.99 1.375 0 2.585-.495 3.685-1.32.605-.44 1.1-.935 1.65-1.485.11.275.22.55.385.77.44.495.935.88 1.595 1.045.715.22 1.485.22 2.2.055.605-.055 1.155-.22 1.43-.77Zm-4.51-7.315c.11-.275.22-.495.275-.77-.495.055-1.045 0-1.21-.55-.165-.385-.055-.77.055-1.1l.055-.11.11-.11c.055-.055.11-.165.22-.22l.055-.055c.165-.22.275-.55.33-.77-.11.055-.275.165-.33.22-.495.385-.935.88-1.32 1.375-.495.66-.935 1.32-1.375 2.035-.33.605-.66 1.32-.88 1.98-.11.33-.22.825-.055 1.21.055.055.385.055.495 0 .385-.055 1.045-.495 1.375-.715.66-.495 1.265-.99 1.87-1.54.055-.055.055-.165.055-.22.11-.22.165-.44.275-.66Z" fill="#9C9C9C"/><path fill-rule="evenodd" clip-rule="evenodd" d="M139.975 175.505c.33-.55.715-1.045 1.1-1.54.715-.935 1.54-1.76 2.42-2.585.88-.825 1.98-1.485 3.19-1.65.22-.055.495-.055.715-.055.495 0 .99.165 1.375.44.495.33.715.825.825 1.43.055.55 0 1.155-.165 1.705v.055c.055-.055.165-.055.22-.11.605-.22 1.21-.275 1.815.055.605.275.88.825.825 1.485 0 .44-.055.88-.11 1.32-.055.44-.165.88-.275 1.32-.22.825-.55 1.65-.825 2.42a12.536 12.536 0 0 1-1.98 3.3c-.055.055-.11.165-.165.22.55 0 1.1.11 1.595.33.99.33 1.375 1.155 1.43 2.145.055 1.32-.22 2.585-.88 3.74-.495.825-1.045 1.705-1.65 2.42a18.585 18.585 0 0 1-3.025 2.475c-1.21.825-2.53 1.375-3.96 1.705-1.265.33-2.86.55-3.96-.275-.88-.605-1.375-1.485-1.54-2.585a7.252 7.252 0 0 1 .165-3.08c.055-.33.165-.66.275-.935-.22.055-.44.11-.66.22h-.055c-.77.22-1.54.495-2.31.77-.935.33-1.815.715-2.75 1.155-.44.22-.88.495-1.32.715-.495.275-.935.495-1.43.77l-1.65.99c-.55.385-1.155.77-1.76 1.1a38.93 38.93 0 0 1-2.585 1.43c-.99.55-1.98.99-2.97 1.43-.99.385-1.98.715-3.025.935-1.54.33-3.63.495-4.785-.825-.99-1.155-.99-2.64-.55-4.07.055-.22.22-.44.33-.66.33-.495.935-.605 1.485-.44.275.11.605.165.88.22.44.11.99.055 1.485 0 .825-.11 1.65-.275 2.475-.44 1.155-.275 2.365-.715 3.465-1.155 1.375-.55 2.805-1.1 4.18-1.705l3.465-1.485c.77-.33 1.595-.605 2.365-.935h-.055c-.385-.165-.66-.44-.77-.88 0-.055 0-.11-.055-.165l-.055-.165v-.165c0-.77.165-1.595.275-2.31.165-.99.495-1.98.825-2.915-.165.165-.275.385-.385.55a9.642 9.642 0 0 0-1.43 2.805c-.11.44-.22.825-.33 1.265-.055.275-.11.605-.165.88-.055.275-.055.605-.22.825-.165.22-.33.495-.55.66h-.11c-.22.11-.44.165-.66.165-.77.055-1.65.055-2.42-.11-.55-.11-1.1-.33-1.595-.66a1.95 1.95 0 0 1-.77-1.375c-.055-.495 0-.935.055-1.43.22-.77.44-1.54.715-2.31-.44 1.045-.77 2.2-.935 3.355-.055.66-.055 1.485.33 2.035.11.165.22.385.275.55.165.55-.11.99-.605 1.21-.33.165-.605.275-.935.44-.44.165-.88.33-1.32.44-.495.11-.99.165-1.485.165-.605 0-1.155-.11-1.705-.33-.385-.165-.66-.44-.77-.88 0-.055 0-.11-.055-.165l-.055-.11v-.165c0-.275 0-.605.055-.88-.22.22-.495.44-.715.66-1.045.99-2.255 1.76-3.52 2.42-1.43.715-2.97 1.1-4.565 1.1-1.21.055-2.42-.33-2.915-1.54-.44-1.045-.385-2.2-.165-3.3.275-1.32.825-2.64 1.485-3.795.66-1.21 1.43-2.42 2.365-3.52.55-.66 1.1-1.21 1.76-1.815.605-.55 1.32-1.1 2.035-1.485.66-.385 1.43-.715 2.2-.88a3.93 3.93 0 0 1 2.255.165c.935.385 1.265 1.21 1.21 2.145-.055.935-.385 1.815-.825 2.585-.495.935-1.1 1.76-1.76 2.53-.605.715-1.32 1.375-2.2 1.815-.495.275-1.21.605-1.76.605-.385 0-.77-.11-1.045-.44l-.11-.11-.055-.055c-.055.385-.11.715-.055.88.055.22.33.22.495.22.77 0 1.54-.165 2.255-.495.77-.33 1.485-.715 2.145-1.155.66-.44 1.265-.88 1.87-1.375.44-.385.935-.825 1.32-1.265l.055-.055c.055-.11.11-.275.165-.385.715-1.65 1.54-3.3 2.475-4.84.275-.495.935-1.54 1.32-1.98.275-.385.605-.66 1.045-.715-.055-.11-.165-.165-.22-.275-.22-.33-.33-.77-.33-1.155 0-.605.385-1.32.66-1.815.495-.825 1.21-1.485 1.98-2.035.77-.495 1.595-.935 2.475-1.21.77-.22 1.54-.385 2.365-.275.715.055 1.43.33 1.87.99v.055c.385.77.055 1.54-.55 2.09-.55.55-1.21 1.045-1.87 1.485-.715.495-1.43.935-2.145 1.375-.275.165-.935.605-1.1.88l-.055.055-.055.055c-.165.165-.33.275-.495.33.22.165.44.44.605.66.11.165.165.33.22.55.385-.66.77-1.375 1.155-2.035.385-.55.935-.825 1.595-.825.33 0 .715 0 1.045.11.055 0 .165.055.22.055.275.055.495.165.66.33.33.165.55.495.77.825.275.44.275.88.165 1.32.33-.33.715-.605 1.045-.935a18.484 18.484 0 0 1 2.695-1.925c.165-.11.33-.22.55-.33h.055l.055-.11.11-.055c.385-.22.825-.385 1.21-.495.605-.165 1.21-.055 1.65.385.605.55.77 1.32.495 2.145-.165.55-.44 1.045-.715 1.54.385.11.33.165.33.22Zm-28.105 6.27c.11-.165.275-.275.33-.44.22-.275.385-.605.55-.935 0 0-.055.055-.055.11-.275.385-.55.825-.825 1.265Zm29.315 4.125c0 .055.055.055.055.11l.055-.055c.055-.055.11-.11.22-.165-.11.055-.22.055-.33.11Zm-.77 3.795c0 .165-.055.275-.055.44 0 .275.11.44.385.605.495.275 1.87.055 2.42-.055.66-.165 1.32-.44 1.925-.77.66-.385 1.265-.825 1.87-1.32.605-.495 1.1-1.1 1.54-1.76-.11 0-.22.055-.33.055-.66.11-1.32.33-1.925.55-.66.275-1.32.605-1.925 1.045-.495.33-.825.77-.99 1.32v.11c-.11.22-.275.44-.495.605-.22.165-.495.22-.715.11-.165 0-.33-.055-.495-.055-.33-.055-.605-.22-.88-.44-.11-.165-.22-.275-.33-.44Zm6.49-13.64-.495.165c-.495.11-1.155.055-1.375-.495-.165-.385-.165-.77.055-1.155.11-.165.22-.33.385-.44.055-.055.11-.11.11-.165.11-.165.165-.33.275-.55 0-.055 0-.055.055-.11-.165.055-.33.11-.495.22-.165.11-.275.165-.44.275-.055.055-.165.11-.22.22-.495.44-.99 1.1-1.32 1.705-.44.715-.88 1.485-1.155 2.31-.165.44-.44 1.595-.33 2.035.055.165.275.165.44.11.275-.055.66-.275.88-.385a8.056 8.056 0 0 0 1.32-.935c.495-.385.935-.77 1.375-1.21.33-.275.605-.55.88-.88 0-.165.055-.33.11-.495l-.055-.22Zm-62.865 15.84c.55.55 1.1 1.155 1.705 1.705.66.605 1.375 1.21 2.145 1.595.935.44 1.87.55 2.86.495.935-.055 1.87-.165 2.75-.385.275-.055.605-.055.88.055.715.22.715.935.44 1.54v.055l-.055.055c-.33.495-.77.99-1.155 1.485-.495.605-1.1 1.21-1.705 1.705-.66.605-1.375 1.1-2.145 1.54-.77.495-1.65.77-2.585.825-1.155.11-2.255-.11-3.19-.88a11.58 11.58 0 0 1-2.145-2.475c-.66-.99-1.21-2.09-1.65-3.245l-.66-1.65c-.495 1.155-.935 2.365-1.155 3.52-.11.77-.33 1.76-.275 2.475v.165c0 .165-.055.385-.11.55-.11.385-.385.66-.66.88h-.11c-1.375.77-3.355 1.815-4.95 1.925-1.815.11-2.2-1.32-1.925-2.86.22-.99.77-2.09 1.21-2.97.495-1.045 1.045-2.035 1.595-3.08-.99 0-2.145-.165-2.97-.66-.715-.44-1.32-1.045-1.43-1.925-.165-.825.11-1.54.55-2.255.44-.715 1.1-1.265 1.815-1.705.605-.33 1.265-.66 1.925-.825.165-.055.33-.11.44-.11-.33-.165-.66-.385-.88-.66-.385-.495-.44-1.045-.385-1.65.055-.77.44-1.705.825-2.365.88-1.76 2.035-3.3 3.355-4.73 1.32-1.43 2.97-2.64 4.62-3.74 2.145-1.375 4.565-2.2 7.04-2.75 1.705-.33 3.85-.605 5.5-.055 1.265.385 2.365 1.155 2.97 2.365.55 1.21.55 2.585.22 3.85-.33 1.54-1.045 2.97-1.925 4.29-.825 1.375-1.87 2.64-2.97 3.85-1.155 1.21-2.42 2.365-3.74 3.355-1.155 1.1-2.585 1.98-4.07 2.695Zm-7.535-4.62c.33.055.715.11 1.045.165l.495-.825c.165-.22.33-.495.44-.715v-.11c.715-1.1 1.375-2.2 2.145-3.245.55-.825 1.1-1.65 1.595-2.42-.22.165-.385.33-.605.44a21.336 21.336 0 0 0-2.31 2.145c-.605.66-1.21 1.32-1.705 2.09-.275.44-.66 1.045-.77 1.54 0 .33-.11.66-.33.935Zm5.775 1.815c.11-.055.22-.165.385-.22.495-.275.99-.605 1.485-.99 1.87-1.32 4.07-3.025 5.39-4.95.77-1.1 1.595-2.53 1.87-3.795.165-.605.11-1.1-.33-1.54-.33-.33-1.1-.385-1.76-.33.055.22.11.495.11.77 0 1.045-.825 2.31-1.43 3.08-.11.165-.275.33-.385.495-.11.11-.22.275-.33.385-.055.055-.055.165-.11.22l-.055.055-.055.055c-.165.165-.33.385-.495.605-.275.33-.55.715-.825 1.045-.275.33-.55.715-.825 1.1l-.66.99c-.495.715-.935 1.43-1.43 2.145a4.75 4.75 0 0 0-.55.88Zm-6.49 1.43a1.832 1.832 0 0 0-1.21.055c-.11.055-.33.11-.33.275v.165c.275.11.605.11.88.11.11 0 .22-.055.33-.055l.33-.55Zm28.765 2.365c.22-.33.22-.715.055-1.045l-.11-.275-.055-.055c-.385-.55-.55-1.155-.495-1.87.055-.935.385-1.87.715-2.75a20.69 20.69 0 0 1 1.375-2.97v-.11c.22-.495.275-.99.055-1.485-.22-.825-.825-1.32-1.595-1.595h-.165c-.165-.055-.33-.055-.495-.055v-.55c-.055-.715-.385-1.265-.99-1.65a1.81 1.81 0 0 0-1.045-.33H101.09c-1.265.11-2.365.715-3.3 1.595-.88.825-1.76 1.705-2.475 2.695-.44.55-.88 1.21-1.32 1.815-.495.77-.99 1.54-1.375 2.365a21 21 0 0 0-1.155 2.53c-.275.77-.495 1.595-.55 2.42-.055.715.11 1.485.495 2.09.495.715 1.375.935 2.2.935 1.375 0 2.585-.495 3.685-1.32.605-.44 1.1-.935 1.65-1.485.11.275.22.55.385.77.44.495.935.88 1.595 1.045.715.22 1.485.22 2.2.055.605-.055 1.155-.275 1.43-.77Zm-4.51-7.315c.11-.275.22-.495.275-.77-.495.055-1.045 0-1.21-.55-.165-.385-.055-.77.055-1.1l.055-.11.11-.11c.055-.055.11-.165.22-.22l.055-.055c.165-.22.275-.55.385-.77-.11.055-.275.165-.33.22-.495.385-.935.88-1.32 1.375-.495.66-.935 1.32-1.375 2.035-.33.605-.66 1.32-.88 1.98-.11.33-.22.825-.055 1.21.055.055.385 0 .495 0 .385-.055 1.045-.495 1.375-.715.66-.495 1.265-.99 1.87-1.54.055-.055.055-.165.055-.22 0-.275.11-.495.22-.66Z" fill="#9C9C9C"/><path fill-rule="evenodd" clip-rule="evenodd" d="M73.755 194.205c-1.375.055-2.42-.165-3.08-.55-.66-.385-1.045-.88-1.1-1.43-.11-.55.055-1.155.44-1.705.385-.605.935-1.1 1.595-1.485.605-.33 1.21-.605 1.76-.77a10.917 10.917 0 0 1 1.65-.33 5.745 5.745 0 0 1 1.375 0c.385.055.715.11.99.165a.968.968 0 0 0 .33.055c.055 0 .11.055.165 0 0 .055 0 .055.055.055.275-.44.495-.88.715-1.21.22-.33.385-.605.495-.825.605-.99 1.32-2.09 2.09-3.245.77-1.155 1.375-2.035 1.76-2.64.11-.165.165-.33.275-.385l.11-.165c.275-.55.495-1.1.66-1.595-.99.55-1.98 1.155-2.86 1.87-.88.715-1.705 1.43-2.365 2.2a19.234 19.234 0 0 0-1.76 2.2c-.495.715-.77 1.265-.825 1.76-.055.33-.22.55-.44.715-.22.165-.385.22-.55.165-.33-.055-.715-.11-1.1-.22-.385-.11-.66-.275-.88-.55-.22-.275-.275-.66-.275-1.155.055-.495.275-1.21.715-2.09a19.316 19.316 0 0 1 3.245-4.565c1.1-1.21 2.64-2.42 4.455-3.63 1.87-1.21 4.125-2.09 6.82-2.64 2.2-.44 3.905-.495 5.17-.055 1.265.385 2.09 1.045 2.53 2.035.44.935.495 2.09.22 3.41-.33 1.32-.935 2.695-1.815 4.07-.77 1.265-1.76 2.475-2.915 3.685-.99 1.045-2.2 2.145-3.63 3.3-1.43 1.155-3.08 2.145-5.005 3.025.825.825 1.595 1.65 2.365 2.42.77.77 1.54 1.32 2.365 1.705.99.495 2.035.66 3.245.55 1.21-.11 2.145-.22 2.86-.44.22-.055.385-.055.55 0 .165.055.165.22 0 .495-.275.385-.66.88-1.1 1.43-.44.55-.99 1.1-1.595 1.65a13.287 13.287 0 0 1-1.98 1.485c-.715.44-1.485.66-2.31.77-1.045.11-1.925-.11-2.64-.715-.715-.605-1.375-1.375-1.98-2.31s-1.1-1.98-1.595-3.08c-.44-1.155-.88-2.2-1.375-3.135-.11.275-.165.385-.165.44-.88 1.925-1.43 3.52-1.65 4.73-.22 1.21-.33 2.09-.275 2.64v.055c0 .055-.055.22-.11.385s-.22.33-.44.495c-2.035 1.155-3.575 1.76-4.62 1.815-1.045.055-1.43-.605-1.155-1.98.165-.605.55-1.54 1.155-2.86a52.252 52.252 0 0 1 2.2-4.125c-.22.11-.44.165-.77.11Zm9.845-8.58c-.495.77-.99 1.485-1.43 2.2-.44.715-.825 1.375-1.21 2.035.11.055.22.11.275.165a1.2 1.2 0 0 0 .275.22c.44-.22.935-.495 1.485-.77s1.045-.66 1.595-1.045c2.64-1.815 4.455-3.52 5.555-5.115 1.1-1.595 1.76-2.97 1.98-4.07.275-.88.055-1.65-.55-2.255-.605-.605-1.815-.715-3.575-.33.495.275.715.66.77 1.32 0 .605-.44 1.485-1.32 2.695-.11.11-.22.275-.33.385-.11.165-.275.275-.385.495 0 0-.055.11-.165.275-.11.165-.33.385-.55.66-.22.33-.495.66-.77.99-.275.385-.605.715-.88 1.1-.33.385-.55.77-.77 1.045Zm-7.37 4.235c-.715-.22-1.375-.22-1.925 0s-.825.495-.825.935c-.055.385.11.66.44.77.33.11.77.165 1.21.165.11 0 .22-.055.385-.055.11 0 .22 0 .385-.055l.88-1.54a.42.42 0 0 0-.275-.11c-.11 0-.165 0-.275-.11Z" fill="#fff"/><path fill-rule="evenodd" clip-rule="evenodd" d="M105.435 183.59c-.55.99-.99 1.98-1.43 3.025-.44 1.1-.715 2.035-.77 2.915-.055.88.11 1.65.605 2.365l.11.22c.055.165.055.275-.055.44-.11.275-.385.385-.825.385-.77.165-1.43.11-1.98-.055-.44-.11-.88-.385-1.21-.825-.33-.44-.495-1.1-.385-2.035-.77.99-1.65 1.87-2.695 2.695-.99.825-2.09 1.21-3.245 1.155-.77 0-1.32-.22-1.65-.66-.275-.44-.44-.99-.385-1.65.055-.66.22-1.43.495-2.255.33-.825.66-1.65 1.1-2.475.44-.825.88-1.595 1.375-2.31.495-.715.88-1.32 1.265-1.76a20.53 20.53 0 0 1 2.42-2.585c.935-.88 1.925-1.32 2.86-1.375h.605c.275 0 .495.11.715.22.385.22.605.605.66 1.045 0 .495-.055.99-.275 1.595v.055h.055c.385-.33.825-.44 1.265-.33.055.055.055.055.11.055.66.22 1.045.605 1.21 1.155.22.275.165.605.055.99Zm-4.73 2.255c.165-.44.33-.935.55-1.375.22-.44.44-.935.715-1.375-.22.22-.44.44-.715.605-.22.165-.495.275-.825.385-.385.055-.55.055-.605-.055-.055-.165-.055-.33.055-.605l.22-.22.055-.055c.165-.22.33-.55.495-.99.165-.44.055-.77-.275-.935-.33-.165-.715 0-1.155.33-.495.33-.99.825-1.485 1.485-.495.605-.99 1.32-1.43 2.09-.44.77-.77 1.485-.935 2.145-.165.66-.22 1.21-.055 1.65.165.44.55.605 1.265.495.44-.055 1.045-.33 1.76-.88.715-.55 1.375-1.1 1.98-1.65.11-.165.165-.33.22-.495a.93.93 0 0 1 .165-.55ZM120.01 181.885c.22.165.165.55-.165.99-.33.55-.825 1.265-1.54 2.145-.66.935-1.485 1.815-2.475 2.695-.99.88-2.09 1.65-3.355 2.31-1.265.66-2.695.99-4.235 1.045-1.21.055-1.925-.33-2.255-1.1-.33-.77-.33-1.705-.11-2.86.22-1.155.715-2.365 1.43-3.63.715-1.265 1.43-2.42 2.255-3.41a12.48 12.48 0 0 1 1.705-1.705 11.627 11.627 0 0 1 1.925-1.43c.66-.385 1.32-.66 1.98-.825.66-.165 1.265-.11 1.815.165.55.22.825.715.77 1.43-.055.715-.275 1.485-.715 2.31-.44.825-.99 1.65-1.65 2.42-.66.77-1.32 1.32-1.98 1.65-.66.33-1.155.55-1.43.55-.275 0-.44-.055-.55-.22l-.055-.055c-.11-.22-.11-.55.055-.88.165-.33.44-.715.825-1.045.165-.165.385-.385.66-.715.275-.33.495-.715.66-1.1.165-.385.33-.715.385-1.045.055-.33.055-.55-.055-.715-.11-.11-.33-.11-.66.165-.33.22-.66.55-.99 1.045-.33.44-.715.99-1.045 1.595-.33.605-.605 1.21-.77 1.815-.385 1.21-.55 2.035-.385 2.475.165.495.55.715 1.21.715.88 0 1.705-.165 2.53-.55.825-.33 1.595-.77 2.255-1.21.715-.495 1.32-.99 1.925-1.485.55-.495 1.045-.935 1.375-1.32.11-.11.22-.165.33-.22a.35.35 0 0 1 .33 0Z" fill="#fff"/><path fill-rule="evenodd" clip-rule="evenodd" d="M132.055 168.245c.22.385.055.825-.385 1.265-.44.44-1.045.935-1.76 1.375-.715.495-1.43.935-2.09 1.375-.715.44-1.155.825-1.32 1.1-.11.11-.165.165-.275.165-.055 0-.22.055-.44.055s-.495 0-.77-.11c-.33-.11-.55-.275-.66-.495-.11-.22-.22-.495-.22-.77 0-.33.165-.825.55-1.43.44-.715 1.045-1.32 1.76-1.815.77-.495 1.485-.88 2.255-1.1.77-.22 1.43-.33 2.09-.275.605.055 1.045.275 1.265.66Zm-6.215 6.435c.165.055.385.275.605.605.22.33.165.715-.22 1.265-.22.33-.495.77-.77 1.32-.275.495-.605 1.045-.88 1.65-.22.33-.385.715-.55 1.045-.165.385-.33.715-.495 1.045-.55 1.265-.88 2.42-.99 3.575-.11 1.1.055 1.98.495 2.53.055.11.11.22.165.385.055.165-.055.275-.275.385-.275.11-.55.275-.935.44-.33.165-.77.275-1.155.385-.44.11-.88.165-1.375.165s-.935-.055-1.43-.275c-.165-.055-.275-.22-.33-.33 0-.165-.055-.275-.11-.33 0-.55.055-1.375.33-2.53.22-1.155.77-2.64 1.595-4.455.88-1.98 1.705-3.575 2.475-4.785s1.155-1.815 1.265-1.925c.22-.33.55-.55.935-.55s.66.055.825.055c.055 0 .165.055.275.11.22.055.385.11.55.22Z" fill="#fff"/><path fill-rule="evenodd" clip-rule="evenodd" d="M128.26 187.11c-.99.055-1.76.055-2.365-.055-.55-.11-.99-.33-1.265-.55a1.43 1.43 0 0 1-.495-.88c-.055-.385 0-.77.055-1.21.275-.99.55-1.98.88-2.86.33-.88.66-1.76 1.1-2.585.385-.825.825-1.65 1.32-2.475.495-.825.99-1.76 1.595-2.75.22-.33.55-.55.99-.55.44 0 .66.055.77.11.055 0 .165.055.33.055.11.055.275.11.495.22.165.11.33.275.55.605.22.33.165.715-.22 1.265-.22.33-.495.77-.77 1.32-.275.495-.605 1.045-.88 1.65a6 6 0 0 1-.33.605c-.11.22-.22.385-.33.605.165-.165.44-.55.88-1.045.44-.495.99-1.1 1.65-1.76.66-.66 1.43-1.375 2.255-2.035a17.997 17.997 0 0 1 2.64-1.925c.11-.11.22-.165.33-.22.11-.055.22-.11.33-.22.33-.165.715-.33 1.1-.44.385-.11.715-.055.935.22.385.33.495.825.275 1.375-.22.55-.44 1.045-.66 1.43-.165.275-.33.605-.495.935-.165.33-.385.66-.55.99-.165.33-.33.66-.495 1.045-.165.385-.33.715-.495 1.045-.495 1.265-.825 2.42-.935 3.575-.165 1.1.055 1.98.55 2.53.055.11.11.22.165.385 0 .165-.055.275-.275.385-.275.11-.55.275-.935.44-.33.165-.77.275-1.155.385-.44.11-.88.165-1.375.165s-.935-.055-1.375-.275c-.165-.055-.275-.22-.33-.33 0-.165-.055-.275-.11-.33 0-.44.11-1.21.275-2.2.165-.99.605-2.31 1.21-3.85.11-.275.22-.605.385-.935.165-.33.33-.715.605-1.1v-.11c-.055 0-.11 0-.165.055-.495.385-.99.825-1.485 1.32-.495.495-.99 1.045-1.43 1.65-.66.88-1.155 1.87-1.54 2.97-.11.495-.22.935-.33 1.32-.055.385-.11.715-.165.935-.055.275-.055.44-.11.55-.165.22-.275.385-.385.495-.11.055-.165.055-.22.055Z" fill="#fff"/><path fill-rule="evenodd" clip-rule="evenodd" d="M151.195 185.735c.055 1.21-.22 2.31-.77 3.355-.605.99-1.1 1.76-1.54 2.31a18.19 18.19 0 0 1-2.915 2.365c-1.1.77-2.31 1.265-3.74 1.595-1.54.385-2.695.33-3.355-.165-.715-.495-1.1-1.21-1.265-2.09-.165-.88-.11-1.815.165-2.805.22-.99.55-1.705.88-2.2-.715.11-1.43.33-2.145.55-.715.22-1.485.44-2.365.77-.88.33-1.815.715-2.805 1.21-.44.22-.88.44-1.32.715-.44.22-.88.495-1.43.77-.55.275-1.1.605-1.705.99-.385.275-.935.605-1.705 1.1-.77.44-1.595.935-2.53 1.43-.935.495-1.925.935-2.915 1.375-1.045.44-1.98.715-2.86.88-2.035.44-3.41.22-4.125-.605-.715-.825-.825-1.925-.385-3.41 0-.055.11-.22.22-.44.165-.22.385-.275.66-.165.22.055.55.165.935.22.385.055.99.055 1.65 0 .715-.055 1.54-.22 2.53-.495.99-.22 2.2-.605 3.575-1.155 1.595-.605 3.025-1.155 4.18-1.705a81.936 81.936 0 0 1 3.465-1.485c1.1-.44 2.31-.88 3.465-1.32 1.21-.44 2.64-.825 4.235-1.265.715-.165 1.32-.275 1.815-.275.44 0 .825.055 1.155.11.33.11.44.33.385.715-.11.385-.33.935-.605 1.54a4.25 4.25 0 0 0-.385 1.76c0 .55.275.935.77 1.21.495.275 1.485.275 2.915 0 .715-.165 1.375-.44 2.09-.88.605-.33 1.265-.825 1.98-1.375.715-.55 1.375-1.375 2.035-2.365a.594.594 0 0 0 .165-.385c0-.22-.055-.33-.33-.33-.165 0-.55.055-1.155.11-.605.11-1.32.275-2.035.605-.77.275-1.43.66-2.09 1.1-.66.44-1.045.99-1.265 1.705-.055.11-.11.22-.22.275-.11.055-.165.055-.165.055-.165 0-.33-.055-.55-.055-.22-.055-.385-.11-.55-.275a1.975 1.975 0 0 1-.385-.55c-.11-.22-.11-.55 0-.88.11-.55.44-1.1.99-1.595.55-.55 1.265-.99 2.09-1.32-.165-.055-.275-.22-.275-.33 0-.11.11-.275.22-.385a.43.43 0 0 1 .22-.22c.715-.55 1.32-1.32 1.815-2.2.495-.935.825-1.87 1.1-2.805-.33.605-.77 1.265-1.265 1.98a12.3 12.3 0 0 1-1.76 2.035c-.66.66-1.375 1.155-2.09 1.595-.715.44-1.54.66-2.365.66-1.21 0-1.87-.44-1.98-1.375-.11-.88.055-1.925.44-3.135.44-1.21.99-2.42 1.76-3.685a24.282 24.282 0 0 1 1.925-2.915c.66-.825 1.43-1.65 2.31-2.475.88-.825 1.87-1.32 2.805-1.485.055 0 .275 0 .605-.055.33 0 .66.11.935.33.275.22.495.55.55.935.055.385 0 .88-.11 1.43-.055.055-.11.22-.22.495-.22.385-.495.77-.88 1.155s-.825.66-1.32.77c-.385.055-.55.055-.605-.055a.412.412 0 0 1 0-.495.43.43 0 0 1 .22-.22c.11-.055.165-.165.33-.385l.33-.66c.055-.22.11-.44.055-.605-.055-.22-.165-.33-.33-.44a1.125 1.125 0 0 0-.605 0c-.22.055-.44.165-.605.275-.165.11-.385.22-.495.33-.165.11-.275.22-.275.275-.44.385-.935.99-1.43 1.815-.55.825-.935 1.65-1.21 2.475-.385 1.21-.495 2.035-.33 2.53.165.495.55.715 1.21.605.275-.055.66-.22 1.1-.495.495-.275.935-.605 1.43-.99.495-.385.935-.825 1.43-1.21.44-.385.825-.77 1.1-1.1.055-.275.055-.495.11-.66l.055-.605c.165-.55.55-1.045 1.21-1.485.275-.165.66-.33.99-.495.495-.165.935-.165 1.265 0 .33.165.495.44.44.77 0 .44-.055.825-.11 1.21s-.165.825-.275 1.265c-.11.55-.385 1.32-.825 2.365-.385 1.045-1.045 2.09-1.87 3.135-.275.385-.55.66-.825.935-.275.275-.605.495-.88.715l1.21-.22c.11 0 .22-.055.33-.055h.275c.495 0 1.1.055 1.65.275.44.385.77.88.77 1.65ZM84.48 130.35c6.93 1.98 13.695 4.84 20.13 7.975h.055l3.355 1.43-.165-15.235c-.055-5.39 0-10.78-.055-16.17 0-3.795.055-7.645.055-11.44v-1.43l-.935-.605c-7.755-5.005-18.7-7.48-27.885-7.7-7.975-.165-17.05 1.705-21.56 9.02l-.605.99.33 1.1c.88 3.08.605 7.645-.11 10.945-2.97.88-5.83 2.2-8.525 3.63a68.733 68.733 0 0 0-9.075 5.83l-1.265.99.33 1.54c.825 3.795 1.32 8.085 1.32 11.935 0 7.04-1.76 16.06-3.74 22.88l-2.86 9.955 7.15-7.48c3.795-3.85 9.68-7.59 14.74-9.35 3.905-1.375 8.085-1.1 12.155-.88 5.94.33 12.265.66 16.28-4.62l.495-.715-.055-2.805c.33-3.19.495-6.545.44-9.79Z" fill="#fff"/><path fill-rule="evenodd" clip-rule="evenodd" d="M63.25 94.105c.11-.11.275-.22.495-.33.22-.11.44-.22.66-.385.77-.44 1.925-.99 3.3-1.43.22 1.54.44 3.135.605 4.675 1.485-.495 3.135-.88 4.785-1.155-.165-1.485-.33-3.025-.605-4.675.935-.165 1.98-.22 2.97-.33 1.705-.11 3.465-.11 5.225 0 .165 1.595.275 3.135.385 4.565l1.815.165c1.32.165 2.805.44 4.345.77a69.899 69.899 0 0 0-.33-4.785c1.32.22 2.64.495 3.905.77 1.375.33 2.695.66 3.96 1.045.11 1.65.165 3.465.165 5.28 1.76.605 3.575 1.32 5.28 2.09-.055-1.98-.11-3.85-.22-5.61.715.275 1.32.495 1.815.715.55.22.935.385 1.21.55.275.11.44.22.44.22s-.165-.055-.44-.22c-.275-.11-.66-.33-1.21-.605-1.045-.495-2.585-1.155-4.455-1.87-1.87-.66-4.07-1.375-6.49-1.98s-5.06-1.045-7.7-1.32a46.678 46.678 0 0 0-7.81-.165c-2.475.165-4.785.605-6.71 1.21a19.944 19.944 0 0 0-4.4 1.98c-.22.165-.44.275-.66.44-.055.165-.22.275-.33.385-.275.165-.385.275-.385.275s.165-.11.385-.275ZM82.335 127.6v1.045c.11 3.465-.165 8.855-.275 11.44l.055 2.2-.11.11c-3.355 4.455-8.745 4.125-14.465 3.795-4.29-.275-8.69-.495-12.925.99-9.075 3.135-15.455 9.79-15.565 9.845l-1.265 1.375.495-1.815c.055-.11 3.795-13.31 3.795-23.43 0-6.215-1.32-12.32-1.375-12.375l-.055-.275.22-.165c.055-.055 3.74-2.97 8.745-5.61 3.355-1.815 6.49-3.08 9.295-3.795 1.98-7.81.33-13.2.33-13.255l-.055-.22.11-.165c3.795-6.105 11.44-8.195 19.745-8.03 8.855.165 19.415 2.585 26.785 7.37v.33c0 2.75-.055 6.71-.055 11.44 0 4.73 0 10.285.055 16.225l.11 12.045-.385-.165c-6.93-3.465-15.07-6.82-23.21-8.91ZM60.17 97.57c.495-.825 1.155-1.595 1.98-2.42.22 1.375.33 2.805.44 4.18-.66.495-1.265.99-1.815 1.595.055.605.11 1.32.11 2.09 0 .935-.055 1.925-.11 2.97.66-.44 1.375-.77 2.09-1.155 0 1.705-.055 3.3-.165 4.84-.88.44-1.76.935-2.585 1.43-.165.935-.33 1.815-.495 2.75-.33 1.815-.77 3.575-1.155 5.225.935-.88 2.035-1.65 3.19-2.365-.275 1.705-.44 3.52-.66 5.225-1.21.66-2.31 1.43-3.3 2.365v.275c-.11 1.485-.165 2.75-.11 3.63v1.375s-.055-.495-.11-1.375-.11-2.145-.055-3.63a37.89 37.89 0 0 1 .55-5.115c.385-1.87.88-3.795 1.21-5.72.385-1.925.715-3.905.99-5.775.22-1.87.44-3.575.495-5.06.055-1.485 0-2.75-.11-3.575-.055-.44-.11-.77-.165-.99-.055-.22-.055-.33-.055-.33-.055-.165-.11-.33-.165-.44Zm-7.975 16.885c.22 1.045.44 2.255.66 3.52 1.045-.385 1.98-.77 2.75-1.045-.22-1.32-.44-2.585-.715-3.685-.935.385-1.87.77-2.695 1.21Zm-4.675 2.475a51.855 51.855 0 0 0-2.805 1.76c.165.825.33 1.65.44 2.585.935-.495 1.925-.935 2.915-1.375-.165-.99-.33-1.98-.55-2.97Zm-4.95 9.845c.715-.385 1.43-.715 2.145-1.045-.11-1.045-.165-2.035-.275-3.025-.77.385-1.485.825-2.2 1.265.11.825.22 1.76.33 2.805Zm.44 6.38c0 1.155-.055 2.365-.11 3.575.715-.385 1.43-.715 2.2-1.045 0-1.32 0-2.64-.055-3.905-.715.275-1.43.605-2.035.935-.055.11 0 .275 0 .44Zm-1.815 15.235c.99-.935 2.09-1.76 3.355-2.585.11-1.21.22-2.53.33-3.905-.935.55-1.925 1.155-2.805 1.815-.33 1.595-.605 3.19-.88 4.675Zm3.355 2.915a61.55 61.55 0 0 1 3.41-2.145c.33-1.155.605-2.805.825-4.785-1.155.55-2.31 1.21-3.41 1.87-.22 1.925-.495 3.63-.825 5.06Zm9.735-5.005c1.1-.385 2.255-.66 3.355-.825.055-1.43.11-2.805.165-4.125-1.155.22-2.365.55-3.575.935-.055 1.54-.22 2.97-.385 4.18.11-.055.275-.11.44-.165Zm12.925-1.045c.055-.66.165-2.09.22-3.795-2.09-.11-3.795-.33-4.455-.44-.055 1.815-.11 3.3-.165 4.07 1.54 0 3.025.11 4.4.165Zm9.46-.33c.055-.44.11-1.705 0-4.015-.935.275-2.09.44-3.245.55-.055 1.76-.165 3.19-.275 3.96 1.265-.055 2.42-.165 3.52-.495Zm4.345-14.355c-.88-.88-1.98-1.485-3.465-1.925.055 1.65.055 3.19.055 4.51 1.265.495 2.42 1.155 3.41 2.035v-4.62Zm8.855-1.54c.825.275 1.32.495 1.32.495s-.165-.055-.55-.22c.715.275 1.485.55 2.2.825.055-1.045.275-3.465.44-6.71-2.09-.77-4.29-1.43-6.49-1.98-.055 2.915-.055 5.39-.055 6.38-.11-.055-.22-.055-.33-.11-1.485-.495-3.19-1.045-5.115-1.43-.715-.165-1.485-.275-2.2-.385v-.165c0-1.155.055-3.19.055-5.555-1.87-.165-3.685-.275-5.445-.22.055 2.475.11 4.565.11 5.555-1.595 0-3.135.11-4.62.385-.99.11-1.87.385-2.75.55-.055 0-.165.055-.22.055 0-.935 0-3.025.11-5.5-1.595.44-3.08 1.045-4.51 1.76-.22 2.31-.385 4.345-.44 5.39-.33.11-.605.275-.825.385-.825.385-1.265.605-1.265.605s.495-.165 1.32-.495c.825-.385 2.035-.77 3.52-1.21.77-.165 1.54-.44 2.42-.605.88-.165 1.76-.385 2.695-.495 1.87-.275 3.96-.385 5.995-.275 2.035.055 4.07.33 5.94.715 1.87.385 3.63.825 5.115 1.265 1.485.275 2.695.715 3.575.99Zm14.795 6.05-.11-6.105a48.061 48.061 0 0 0-3.74-2.255c-.11 3.3-.22 5.665-.275 6.49 1.76.77 3.135 1.43 4.125 1.87Zm-16.5-37.895c1.87.495 3.85 1.045 5.83 1.76v4.51a78.055 78.055 0 0 0-5.94-1.485c.11-1.54.165-3.135.11-4.785ZM74.03 96.25a38.899 38.899 0 0 1 6.16-.33c.055 1.76.11 3.41.055 5.06-1.98-.11-4.015-.11-5.94.055-.055-1.485-.11-3.08-.275-4.785Zm-7.095 17.38c.055-.44.11-.825.165-1.21.22-1.1.33-2.31.44-3.575a24.46 24.46 0 0 0-4.015 1.43c-.11 1.54-.33 2.97-.605 4.29-.055.165-.055.33-.11.55 1.375-.605 2.695-1.1 4.125-1.485Zm5.885 5.39v-5.445c-1.76.165-3.465.44-5.06.825-.22 1.705-.33 3.575-.44 5.335 1.76-.385 3.63-.66 5.5-.715Zm13.09 1.21c.055-1.925.11-3.905.22-5.72-1.76-.385-3.52-.66-5.28-.825-.22 0-.385-.055-.605-.055a95.514 95.514 0 0 0-.165 5.61c1.98.22 3.905.605 5.83.99Zm14.08 5.06c.055-1.815.11-3.85.165-5.995a46.36 46.36 0 0 0-5.61-2.365c-.11 2.09-.22 4.07-.33 5.83 2.035.77 3.96 1.595 5.775 2.53Zm1.21-11.77c0 1.815-.055 3.52-.11 5.225 1.21.605 2.31 1.21 3.355 1.87l-.055-5.335c-.99-.605-2.035-1.21-3.19-1.76Zm-20.075-11.55a78.103 78.103 0 0 1-.33 5.06c1.98.165 4.015.44 5.995.825.165-1.65.275-3.355.385-5.115a44.373 44.373 0 0 0-6.05-.77Zm-1.705 10.67c.055-1.32.165-2.53.275-3.52.055-.44.11-.88.11-1.265-2.09-.11-4.015-.11-5.775 0-.055.495-.055.99-.11 1.43-.11.99-.165 2.09-.165 3.3 1.87-.11 3.74-.055 5.665.055Zm14.245 3.025c.055-1.65.165-3.3.165-5.005a61.836 61.836 0 0 0-6.27-1.65c-.055.825-.165 1.65-.275 2.475-.055.715-.165 1.54-.22 2.42 2.31.385 4.51.99 6.6 1.76Zm1.155-5.72c1.925.66 3.74 1.375 5.5 2.145v-5.335a73.902 73.902 0 0 0-5.39-2.09c0 1.76-.055 3.52-.11 5.28Zm-26.125-7.095a47.38 47.38 0 0 1-.11 4.895c1.485-.33 3.025-.55 4.62-.715.11-1.54.165-3.19.165-4.95-1.595.11-3.19.385-4.675.77Zm32.505-1.1c0 1.43.055 2.915.055 4.4 1.1.55 2.145 1.045 3.08 1.595l-.055-4.565c-1.045-.44-2.035-.935-3.08-1.43Zm-47.685 21.615c.165 1.43.275 2.915.385 4.455 1.21-.33 2.09-.55 2.585-.66v-1.21c0-.055-.11-1.375-.275-3.19-.495.11-1.43.275-2.695.605Zm3.905-6.105c-.22.055-.495.165-.88.275.165.99.275 1.98.385 2.915.165-1.045.33-2.09.495-3.19Zm-8.36 3.245c.165 1.045.275 2.145.385 3.245 1.155-.44 2.2-.77 3.08-1.045-.11-1.21-.275-2.365-.44-3.52-.99.44-1.98.88-3.025 1.32Zm-.055 8.8a52.806 52.806 0 0 0-.33-4.235c-.935.385-1.925.77-3.025 1.265.11 1.32.165 2.695.22 4.07 1.045-.44 2.09-.77 3.135-1.1Zm.11 9.57c.055-1.21.055-2.53.055-3.85-1.045.33-2.145.77-3.19 1.21 0 1.375-.055 2.75-.11 4.07a24.238 24.238 0 0 1 3.245-1.43Zm4.235 2.695c.055-1.045.055-2.09.055-3.19-1.1.33-2.2.66-3.355 1.1-.055 1.21-.11 2.31-.165 3.41a44.6 44.6 0 0 1 3.465-1.32Zm8.745-1.54c0-1.1 0-2.255-.055-3.355-.88.11-1.98.275-3.3.495v3.08c1.265-.22 2.365-.275 3.355-.22Zm10.395.605c0-.715-.055-1.54-.11-2.365-1.045-.22-2.09-.44-3.19-.66-.33-.055-.66-.11-.99-.22.055 1.1.11 2.2.055 3.19 1.54.11 2.97.11 4.235.055Zm-.55-14.025c1.76.22 3.3.495 4.675.77 0-.275-.055-.605-.055-.88-1.595-.165-3.135-.11-4.62 0v.11Zm-5.17 4.455h.11c1.375.11 2.805.22 4.29.44 0-1.21-.055-2.585-.11-4.07-.55-.055-1.1-.11-1.705-.22l-1.265-.165-1.485.33c.11 1.375.165 2.585.165 3.685Zm-5.72-.88c0-.275 0-.605-.055-.88-.33.11-.605.275-.88.385.22.22.55.385.935.495Zm-3.245 6.215c0-1.375-.055-2.31-.055-2.75-.22-.22-.385-.385-.495-.605-.495.055-1.54.275-2.97.605.055 1.21.055 2.42.055 3.575a24.04 24.04 0 0 1 3.465-.825Zm.88-2.035c.165.11.385.22.605.385a3.7 3.7 0 0 1-.605-.385Zm-8.745-4.4c.055 1.265.11 2.53.165 3.85 1.155-.33 2.255-.66 3.245-.88-.055-1.265-.11-2.585-.22-3.905-.99.275-2.09.55-3.19.935Zm30.085 9.955c.605.33.88.55.88.55s-.33-.22-.88-.66c-.605-.33-1.43-.88-2.53-1.265-.33-.11-.66-.275-1.045-.385.055-.77.165-2.31.22-4.455-1.485-.55-3.025-.88-4.62-1.155 0 2.09-.11 3.575-.165 4.345l-2.64-.495c-1.21-.22-2.42-.44-3.52-.715.055-.66.165-1.98.165-3.795-1.485-.11-2.805-.275-3.905-.495 0 1.485-.055 2.64-.11 3.19-.275-.11-.55-.165-.825-.275-1.1-.385-1.98-.825-2.42-1.265-.22-.22-.385-.44-.495-.605-.11-.165-.165-.22-.165-.22s.055.11.11.275c.11.165.22.385.44.66.495.495 1.32 1.045 2.42 1.485 1.1.44 2.365.88 3.74 1.32 1.375.44 2.915.715 4.455 1.045 1.54.275 3.025.55 4.455.825 1.43.33 2.695.66 3.795 1.045 1.155.275 2.035.715 2.64 1.045ZM63.58 99.825a17.219 17.219 0 0 1 3.905-1.925c.11 1.43.22 2.86.275 4.235a41.762 41.762 0 0 0-3.96 1.32c-.055-1.21-.11-2.42-.22-3.63Z" fill="#9C9C9C"/><path fill-rule="evenodd" clip-rule="evenodd" d="M137.005 142.89c21.175 0 38.5-17.27 38.5-38.5 0-21.175-17.27-38.5-38.5-38.5-21.175 0-38.5 17.27-38.5 38.5.055 21.23 17.325 38.5 38.5 38.5Z" fill="#fff"/><path fill-rule="evenodd" clip-rule="evenodd" d="M127.82 55.44c0-.385-.055-.77-.11-1.155-.44-2.97-2.145-5.28-4.565-6.985-1.925-1.375-4.18-1.98-6.435-2.64-1.485-.385-2.915-.825-4.345-1.43-4.895-2.145-9.845-4.675-14.575-7.15l-2.42-1.265v.44c-1.98-1.1-3.905-2.255-5.885-3.355-2.2-1.21-4.895-2.53-7.48-2.695-3.135-2.255-6.105-4.675-9.13-7.15-2.585-2.145-6.16-5.115-9.35-6.16l-2.695-.935.165 1.815c.055.385.11.825.22 1.21v.11c.385 1.43.935 2.805 1.65 4.125.88 1.65 1.87 3.245 2.97 4.73-1.595-.935-3.245-1.705-4.785-2.09l-2.805-.66.33 1.815c.055.385.165.77.275 1.155v.11c.44 1.375 1.155 2.64 1.87 3.905 1.54 2.53 3.41 4.84 5.445 6.985-1.76-.77-3.63-1.375-5.335-1.43l-2.53-.055.385 1.54.33.99v.11c.495 1.21 1.21 2.31 1.925 3.355 1.595 2.2 3.52 4.235 5.555 5.995-1.595-.55-3.19-.88-4.73-.77-.33 0-.605 0-.935.055l-1.375.11.33 1.32.33.99v.055a12.974 12.974 0 0 0 1.925 3.135c1.65 2.2 3.685 4.125 5.885 5.775-1.54-.275-3.08-.33-4.51 0l-2.53.605 1.485 2.145c.66.88 1.54 1.76 2.365 2.475a41.323 41.323 0 0 0 5.885 4.29c-.66.055-1.265.22-1.87.44l-2.145.825 1.375 1.815c.495.66 1.375 1.43 2.035 1.98 1.54 1.265 3.245 2.365 5.005 3.3-.66.11-1.265.275-1.815.55l-1.98.935 1.43 1.65c.495.55 1.265 1.155 1.87 1.595 1.54 1.045 3.19 1.925 4.95 2.695-1.155.165-2.2.495-3.08 1.1l-1.815 1.21 1.65 1.43c.55.495 1.43.935 2.09 1.265 1.98.99 4.18 1.65 6.325 2.145.11 0 .275.055.385.055-.88.385-1.595.88-2.145 1.485l-1.21 1.375 1.43 1.1c.55.385 1.32.77 1.925.99 1.1.44 2.31.715 3.52.935l-.165.165-1.21 1.265.935.825c.11.11.275.22.44.33.11.11.22.165.385.275-.165 3.19.055 6.435.55 9.68 4.18 26.235 28.93 44.165 55.165 39.985s44.165-28.93 39.985-55.165-28.93-44.165-55.165-39.985c-.495.11-1.1.22-1.65.33Zm6.325 56.595c.22-.22.44-.385.605-.605l.055-.055.935 3.245-4.51 17.545a21.42 21.42 0 0 1-2.695-.66l3.96-17.82 1.485-1.595c.11 0 .11 0 .165-.055Zm-20.955 1.155v.055l.055.88-2.86 2.2c-.275-.495-.495-.99-.715-1.54l3.575-1.76c-.055.055-.055.11-.055.165Zm4.455-27.335c-.275-1.375-.33-2.805-.275-4.235l12.595 11.55.935 3.135-3.355-.825-9.9-9.625Zm48.015 7.205c.275.88.55 1.76.77 2.695l-17.435 5.445-3.19-.77 2.365-2.475 17.49-4.895Zm-1.98-4.62c.275.495.495.99.77 1.485l-8.58 2.42 7.81-3.905Zm-5.995-7.755c.385.385.825.77 1.21 1.21L152.9 88.22l4.785-7.535Zm-9.405-5.94c.495.22 1.045.44 1.54.66l-5.005 7.315 3.465-7.975Zm-9.57-2.09c.55.055 1.155.055 1.705.165l-.55 8.69-1.155-8.855Zm4.73 5.005.275-4.29c.495.11.99.22 1.43.385l-1.705 3.905Zm-24.365 1.045c.44-.33.935-.66 1.375-.99l5.17 7.04-6.545-6.05Zm-1.925 46.42c-.44-.385-.825-.77-1.21-1.155l7.205-5.17-5.995 6.325Zm19.085 7.645c-.55 0-1.1-.055-1.65-.11l2.2-8.58-.55 8.69Zm9.735-1.32c-.55.165-1.1.33-1.65.44l-2.475-8.36 4.125 7.92Zm4.62-12.155 5.17 6.985-1.32.99-3.85-7.975Zm7.7 4.785-2.53-3.465 3.575 2.365c-.385.44-.715.77-1.045 1.1Zm-14.52-11.33 7.865 16.335c-.825.44-1.65.88-2.53 1.21l-8.415-16.225.22-3.245 2.86 1.925Zm-18.37 17.6c-.495-.22-1.045-.44-1.54-.715l3.465-7.975-1.925 8.69Zm.495-50.875-2.585-3.465 1.32-.66 1.265 4.125Zm4.345 3.025-2.475-8.36c.55-.165 1.045-.33 1.595-.495l.88 8.855Zm27.83 5.06 2.97-3.135c.33.385.605.77.88 1.21l-3.85 1.925Zm9.13 13.145-8.69.99L167.035 99c.055.605.11 1.155.165 1.705Zm-4.29 3.795 4.29-.495c0 .495-.055.99-.11 1.485l-4.18-.99Zm-4.785 2.31 8.47 2.035c-.11.55-.22 1.1-.385 1.65l-8.085-3.685Zm-9.46-.66 16.5 7.48a21 21 0 0 1-1.155 2.53l-16.83-6.985-1.925-2.64 3.41-.385Zm5.5 9.515 8.25 3.41c-.33.495-.605.935-.935 1.375l-7.315-4.785ZM139.81 128.37l1.21 4.125-1.485.165.275-4.29Zm-18.81-.33c-.44-.275-.825-.55-1.21-.825l2.97-3.135-1.76 3.96Zm11.605-55.055c.935-.165 1.87-.22 2.75-.275l2.365 18.095-1.32 3.025-2.035-2.75-1.76-18.095ZM152.79 77c.77.495 1.595.99 2.31 1.54l-9.845 15.345-2.915 1.43.22-3.41L152.79 77Z" fill="#fff"/><path fill-rule="evenodd" clip-rule="evenodd" d="M91.63 96.47c.33-2.255.825-4.455 1.43-6.6.66-2.145 1.43-4.29 2.42-6.325 3.795-8.195 10.01-15.18 17.71-19.855 1.925-1.155 3.905-2.2 5.995-3.08 2.09-.88 4.18-1.595 6.38-2.2 2.2-.55 4.4-.935 6.6-1.21 2.255-.22 4.51-.33 6.71-.22 2.255.11 4.51.33 6.71.77s4.4.99 6.49 1.76 4.18 1.65 6.16 2.695c1.98 1.045 3.905 2.255 5.72 3.52 1.815 1.32 3.52 2.805 5.17 4.345 1.595 1.595 3.08 3.245 4.455 5.06 1.375 1.76 2.585 3.685 3.685 5.665s1.98 4.015 2.805 6.105c.77 2.09 1.375 4.29 1.87 6.49.44 2.2.77 4.455.935 6.655.11 2.255.11 4.51-.055 6.71a54.038 54.038 0 0 1-1.045 6.655c-2.035 8.745-6.765 16.885-13.365 23.045a47.545 47.545 0 0 1-5.225 4.235c-1.87 1.32-3.795 2.42-5.83 3.41a51.503 51.503 0 0 1-6.27 2.53c-2.145.715-4.345 1.21-6.6 1.595 2.255-.385 4.455-.88 6.6-1.54a44.33 44.33 0 0 0 6.325-2.475c2.035-.99 4.015-2.09 5.885-3.41 1.87-1.265 3.63-2.695 5.335-4.235 6.655-6.16 11.495-14.3 13.64-23.155 2.2-8.855 1.595-18.315-1.595-26.84-.825-2.145-1.705-4.235-2.805-6.215-1.1-1.98-2.31-3.905-3.74-5.72-1.375-1.815-2.915-3.52-4.51-5.115a50.232 50.232 0 0 0-5.225-4.4c-1.87-1.32-3.795-2.53-5.83-3.575a52.49 52.49 0 0 0-6.27-2.695c-2.145-.77-4.345-1.32-6.6-1.76-2.255-.44-4.51-.66-6.765-.77-9.075-.33-18.26 2.035-26.015 6.875-7.755 4.785-13.97 11.88-17.71 20.185a52.177 52.177 0 0 0-2.365 6.38c-.605 2.2-1.045 4.4-1.375 6.655-.33 2.255-.385 4.51-.385 6.765.055 2.255.275 4.51.605 6.765a56.075 56.075 0 0 1-.55-6.765c0-2.255.165-4.51.495-6.71Zm45.815 8.14a1.926 1.926 0 0 1-2.2-1.595 1.926 1.926 0 0 1 1.595-2.2 1.926 1.926 0 0 1 2.2 1.595c.22 1.045-.495 2.035-1.595 2.2Zm2.695-3.575c.22.385.33.825.385 1.265-.22-.88-.715-1.65-1.43-2.09-.715-.495-1.595-.66-2.42-.55-.825.11-1.595.605-2.145 1.265-.495.66-.77 1.54-.715 2.42-.11-.44-.11-.88 0-1.32.11-.44.275-.88.55-1.265.495-.77 1.375-1.32 2.255-1.43.935-.165 1.87.11 2.585.66.385.275.715.605.935 1.045Zm-6.655 2.255a3.735 3.735 0 0 1 7.37-1.21 3.735 3.735 0 0 1-7.37 1.21Zm-11.66-40.095c-.715.275-1.155.935-1.155.935l-.88-2.035s.605-.44 1.32-.715c.33-.165.715-.22.99-.275.275-.055.44-.055.44-.055l.715 2.09s-.165-.055-.495-.055c-.22-.055-.605 0-.935.11Zm3.41-1.155c-.385.11-.66.33-.88.495-.22.165-.33.33-.33.33l-.66-2.09s.165-.11.385-.22c.275-.11.605-.275.935-.385.33-.11.715-.165.99-.22h.495l.55 2.145s-.165-.055-.44-.11c-.33-.055-.715-.055-1.045.055Zm2.585-.44c-.22.165-.385.275-.385.275l-.495-2.145s.165-.055.44-.22c.275-.11.605-.22.99-.275.715-.11 1.485-.11 1.485-.11l.385 2.145s-.715-.275-1.485-.165c-.44.165-.715.33-.935.495Zm5.445-.88a1.902 1.902 0 0 0-.99-.11c-.77.11-1.32.605-1.32.605l-.33-2.145s.715-.275 1.43-.385c.385-.055.715-.055.99 0 .275 0 .44.055.44.055l.165 2.2c.055-.055-.11-.11-.385-.22Zm3.575-.165c-.275-.11-.605-.165-.99-.165s-.715.11-.99.22-.385.22-.385.22l-.165-2.2s.165-.055.44-.11.66-.11.99-.11c.385 0 .715 0 .99.055s.44.11.44.11v2.2c.11 0-.055-.11-.33-.22Zm2.585-.165c-.385-.055-.715.055-.99.165-.275.11-.44.22-.44.22l.055-2.2s.165-.055.44-.055c.275-.055.66-.11.99-.055a7.57 7.57 0 0 1 1.43.275l-.165 2.2c.055-.055-.55-.495-1.32-.55Zm4.51.715c-.22-.165-.55-.33-.935-.385-.77-.11-1.43.275-1.43.275l.22-2.2s.77-.11 1.485 0c.385.055.715.165.99.22.275.11.44.165.44.165l-.385 2.145c0 .055-.11-.11-.385-.22Zm2.64.275c-.385-.055-.715-.055-.99 0s-.44.11-.44.11l.44-2.145h.495c.275 0 .66.055.99.11.715.165 1.375.55 1.375.55l-.55 2.145c-.055 0-.605-.605-1.32-.77Zm4.29 1.485c-.22-.165-.495-.385-.88-.495-.715-.22-1.485 0-1.485 0l.605-2.09s.77 0 1.485.275c.33.11.66.275.935.385.275.11.385.22.385.22l-.715 2.09c0-.055-.11-.22-.33-.385Zm2.53.715c-.33-.165-.715-.165-.99-.165a2.27 2.27 0 0 0-.495.055l.77-2.035s.165 0 .44.055.66.11.99.275c.66.275 1.265.77 1.265.77l-.935 1.98c.055 0-.33-.66-1.045-.935Zm4.015 2.145a2.317 2.317 0 0 0-.77-.66c-.66-.33-1.43-.22-1.43-.22l.935-1.98s.715.165 1.375.495c.33.165.605.385.825.55.22.165.385.33.385.33l-1.1 1.925c.055-.055-.055-.22-.22-.44Zm3.08 1.87c-.165-.22-.385-.495-.715-.715-.33-.22-.66-.275-.935-.33-.275-.055-.44-.055-.44-.055l1.1-1.87s.165.055.44.165c.275.11.605.275.935.44.33.22.605.44.825.605l.33.33-1.21 1.815c-.11 0-.165-.165-.33-.385Zm3.025 2.42c-.055-.055-.055-.165-.165-.33-.165-.22-.33-.55-.66-.77a2.406 2.406 0 0 0-.935-.44c-.275-.055-.495-.055-.495-.055l1.265-1.815s.165.055.44.165c.275.11.55.33.88.55.275.22.55.495.77.66.11.11.165.22.22.275.055.055.055.11.055.11l-1.375 1.705c.055.055.055 0 0-.055Zm1.98 1.21c-.275-.275-.605-.385-.88-.495-.275-.11-.44-.11-.44-.11l1.43-1.65s.165.11.385.22c.22.165.55.33.825.605a5.51 5.51 0 0 1 .935 1.155l-1.54 1.595c.055-.055-.165-.825-.715-1.32Zm2.585 2.53c-.55-.55-1.265-.715-1.265-.715l1.54-1.54s.66.385 1.155.935.825 1.21.825 1.21l-1.65 1.43s-.11-.77-.605-1.32Zm2.805 3.63a3.79 3.79 0 0 1-.165-.44 1.198 1.198 0 0 0-.275-.44c-.495-.605-1.21-.825-1.21-.825l1.65-1.43s.605.44 1.045 1.045c.11.165.22.275.33.44.11.165.165.275.22.44.11.275.22.44.22.44l-1.76 1.32c0-.11 0-.275-.055-.55Zm-56.375.88c1.21-1.1 2.475-2.09 3.85-3.025s2.805-1.705 4.235-2.42c1.485-.715 3.025-1.265 4.565-1.76 1.54-.495 3.135-.825 4.785-1.1a34.89 34.89 0 0 0-4.73 1.155 32.18 32.18 0 0 0-4.51 1.815c-1.43.715-2.86 1.54-4.18 2.475-1.32.935-2.585 1.925-3.795 3.08-4.73 4.455-8.14 10.285-9.57 16.555-1.485 6.27-1.045 13.035 1.21 19.085 2.255 6.05 6.325 11.385 11.55 15.18 5.225 3.795 11.55 5.995 18.04 6.27 6.435.275 12.98-1.43 18.48-4.785 5.5-3.355 10.01-8.36 12.76-14.245.715-1.485 1.265-2.97 1.76-4.565.495-1.54.825-3.135 1.045-4.73.22-1.595.33-3.245.33-4.84 0-1.65-.165-3.245-.385-4.84.22 1.595.44 3.245.44 4.84 0 1.65-.055 3.245-.275 4.895a35.168 35.168 0 0 1-.99 4.785c-.44 1.54-.99 3.135-1.705 4.62-2.695 5.94-7.205 11.11-12.76 14.575s-12.21 5.225-18.755 4.95c-6.545-.22-13.035-2.475-18.37-6.325a33.285 33.285 0 0 1-11.715-15.455c-2.255-6.16-2.695-12.98-1.155-19.36 1.54-6.545 5.005-12.43 9.845-16.83Zm37.895-2.86c1.485.825 2.915 1.815 4.235 2.86L146.025 94.82l-5.06 2.53.385-5.83 11.055-16.115Zm-21.065-3.41c.275-.055.605-.11.935-.165 1.43-.22 2.805-.33 4.18-.385l2.53 19.525-2.255 5.17-3.465-4.675-1.925-19.47Zm-8.8 23.54L110 87.23a30.922 30.922 0 0 1 2.365-3.575L125.18 96.14l-2.64-.605Zm-.99 34.21c-1.265-.715-2.42-1.54-3.575-2.42l8.525-9.02-4.95 11.44Zm17.49-8.195 3.52 11.935c-.165.055-.33.055-.495.11-1.265.22-2.53.33-3.795.385l.77-12.43Zm8.47-9.955 16.61 6.93c-.715 1.265-1.54 2.42-2.42 3.575l-12.595-8.36-1.595-2.145Zm1.375-6.655 17.82 8.085c-.55 1.65-1.265 3.19-2.09 4.675l-18.15-7.535-3.355-4.565 5.775-.66Zm4.455-.55 14.63 3.52c-.22 1.43-.605 2.805-.99 4.18l-16.28-7.37 2.64-.33Zm2.75-.275 12.375-1.43c0 1.43-.11 2.915-.275 4.29l-12.1-2.86Zm11.935-6.38c.22 1.32.33 2.695.385 4.015l-15.015 1.705-2.585-.605 17.16-5.39c.055.11.055.22.055.275ZM152.57 91.63l8.58-9.02c.935 1.1 1.76 2.255 2.53 3.465l-11.11 5.555Zm-6.27 4.62.44-.715 1.485-.715-1.155 1.21-.77.22Zm-1.375.385-.77.22.935-.495-.165.275Zm-4.73-3.355.165-.22-.055.935-.11-.715Zm-.935-.22-.44.66.44-.99v.33Zm-5.83.44v-.275l.55.715-.55-.44Zm-2.09-3.025.99 1.32.055.77-.605-.55-.44-1.54Zm-.77-2.64-4.29-14.465c1.32-.495 2.695-.88 4.125-1.21l1.76 17.82-1.595-2.145Zm-1.65-2.2-7.37-10.01c1.21-.715 2.53-1.375 3.85-1.87l3.52 11.88Zm3.685 12.32-5.665-1.375-13.97-13.64c1.1-1.32 2.255-2.585 3.575-3.685l14.465 13.31 1.595 5.39Zm-4.18.11-.165-.165.88.22-.715-.055Zm-2.2-.11-1.375-.88 1.595.385.55.55-.77-.055Zm-.825 6.655-19.525-1.485c0-1.76.11-3.465.33-5.115l19.635.88 4.73 3.135-5.17 2.585Zm-6.49 3.245-11.11 5.5c-.495-1.32-.88-2.695-1.21-4.125l12.32-1.375ZM110 118.14a31.864 31.864 0 0 1-1.87-3.905l13.53-6.765 2.64-.275L110 118.14Zm20.57-5.5-1.1 1.155.66-1.54.66-.44-.22.825ZM126.28 132c-1.375-.495-2.64-1.1-3.905-1.76l6.05-13.86 1.815-1.925L126.28 132Zm12.265-17.435-.11 1.65-.495-1.595.22-.77.385.715Zm6.16-2.64 8.47 17.655c-1.43.88-3.025 1.65-4.62 2.255l-9.075-17.49.33-5.665 4.895 3.245Zm.385-1.32.77.33.99 1.32-1.375-.935-.385-.715Zm-.605-1.32-.385-.77.66.88-.275-.11Zm2.475-5.225.22.11-.935.11.715-.22Zm1.32-.44.77-.22 1.595.385-1.65.165-.715-.33Zm-1.265-.55-.77-.33 1.045.275-.275.055Zm-1.87-5.06.385-.605.275-.055-.66.66ZM143 99.66c-.22-.44-.55-.88-.88-1.265l2.09-.605-1.21 1.87Zm-3.3-3.025c-.495-.22-.99-.33-1.485-.44l1.21-1.76.275 2.2Zm-7.15-2.64.055.825-.33-1.045.275.22Zm1.265 3.08-.22-2.145 1.65 1.485c-.55.165-.99.385-1.43.66Zm-5.775 1.87.605.55-.88-.605.275.055Zm2.915 1.595-1.54-1.485 2.2.11c-.22.385-.495.88-.66 1.375Zm-3.465 4.235h-.275l.825-.44-.55.44Zm-1.1.825-.66.495-1.595.165 1.485-.715.77.055Zm1.375.11.825.055-1.045.11.22-.165Zm3.465 4.07-.165.66-.22.165.385-.825Zm.66 1.265.66-.495-.715.77.055-.275Zm2.09-2.64-1.76 1.265.495-2.145c.385.33.77.66 1.265.88Zm3.19 3.52.33.605-.055.275-.275-.88Zm1.32.55.22-.77-.055 1.045-.165-.275Zm-.11-3.355-.55 2.09-1.045-1.98c.44 0 .88 0 1.375-.055.11 0 .165-.055.22-.055Zm4.73.66.66.275.11.22-.77-.495Zm-.88-2.97.935 1.925-2.035-.825c.44-.33.77-.66 1.1-1.1Zm1.32-2.64c.11-.495.165-1.045.165-1.54l1.98.88-2.145.66Zm-12.87-.66v.22c.055.44.165.88.33 1.32l-2.145-.165 1.815-1.375Zm5.665-6.105c2.915-.44 5.665 1.54 6.105 4.455.165.935.055 1.815-.22 2.64.11-.77.055-1.595-.275-2.31-.11 1.265-.605 2.42-1.375 3.19-.715.825-1.705 1.32-2.75 1.485-1.045.165-2.145 0-3.08-.55s-1.76-1.43-2.31-2.64c-.055.77.11 1.54.495 2.255-.55-.715-.935-1.54-1.045-2.42-.495-2.915 1.54-5.61 4.455-6.105Zm21.78 28.49-7.37-9.955 10.34 6.875a52.017 52.017 0 0 1-2.97 3.08Zm-9.68-11.495 8.965 12.1c-1.1.935-2.255 1.76-3.465 2.585l-7.755-16.115 2.255 1.43Zm-.77 17.765c-1.32.495-2.75.88-4.18 1.155l-4.29-14.52.165-2.64 8.305 16.005Zm-10.34 1.815c-1.43 0-2.86-.11-4.29-.275l4.455-17.325.77 2.585-.935 15.015Zm-5.17-.44c-1.705-.275-3.355-.715-5.005-1.265l4.29-19.195 3.905-4.125 1.65 5.61-4.84 18.975Zm-14.96-6.765c-1.1-.935-2.145-1.87-3.135-2.97l14.52-10.45-1.045 2.475-10.34 10.945Zm-3.74-3.685a31.77 31.77 0 0 1-3.025-4.125l15.62-11.935 5.61-.66-2.31 5.335-15.895 11.385Zm-7.205-15.455c-.165-1.21-.33-2.365-.385-3.575l17.875 1.375-2.42 1.21-14.96 1.705c0-.275-.055-.495-.11-.715Zm13.64-12.76-12.1-2.915c.495-1.375 1.1-2.64 1.76-3.96l10.34 6.875Zm-12.43-1.98 14.685 3.52 2.2 1.485-17.985-.825c.275-1.43.66-2.86 1.1-4.18Zm9.735-14.3c1.1-.935 2.255-1.76 3.52-2.53l8.965 12.155.77 2.53-13.255-12.155Zm23.375 11-.11 1.65-.44.66-.11-.825.66-1.485Zm1.265-5.28.77-12.43c1.43.275 2.805.605 4.18 1.045l-4.95 11.385Zm-4.455-12.87c1.43 0 2.915.11 4.29.33l-.935 15.07-1.045 2.42-2.31-17.82Zm10.285 1.815a31.035 31.035 0 0 1 3.905 1.705l-10.12 14.74.165-2.695 6.05-13.75Zm9.735 5.61c1.1.935 2.145 1.925 3.08 3.025L150.095 92.84l-2.365 1.155 9.68-15.125Zm6.71 8.03a31.423 31.423 0 0 1 1.925 3.85l-17.215 4.84 1.87-1.925 13.42-6.765Zm2.31 4.73a30.08 30.08 0 0 1 1.43 4.95l-18.81 5.83-5.5-1.32 4.015-4.235 18.865-5.225Zm-24.145 43.175c-17.71 2.805-34.43-9.295-37.235-27.005-2.805-17.71 9.295-34.43 27.005-37.235 17.71-2.805 34.43 9.295 37.235 27.005 2.805 17.71-9.295 34.43-27.005 37.235ZM180.4 113.96l.33.11c-.11.33-.165.66-.275.99l-.22-.055c.055-.385.11-.715.165-1.045ZM93.83 91.41l-.22-.055c.11-.33.165-.66.275-.99l.33.11c-.165.275-.275.605-.385.935Zm9.295 16.72c-2.97-18.755 9.845-36.465 28.6-39.435 18.755-3.025 36.465 9.845 39.435 28.6 3.025 18.755-9.845 36.465-28.6 39.435-18.7 2.97-36.41-9.845-39.435-28.6Zm13.42 24.035c-3.74-2.75-6.93-6.215-9.295-10.175-2.365-3.96-3.96-8.36-4.62-12.925.825 4.51 2.475 8.91 4.895 12.76 2.42 3.905 5.61 7.26 9.35 9.955 3.74 2.64 7.92 4.62 12.375 5.665a35.313 35.313 0 0 0 13.585.495 35.357 35.357 0 0 0 12.76-4.675c3.905-2.365 7.315-5.555 10.01-9.24a35.433 35.433 0 0 0 5.775-12.375c1.1-4.455 1.32-9.13.66-13.64.77 4.51.66 9.24-.385 13.75s-2.97 8.8-5.665 12.54c-2.695 3.795-6.16 6.985-10.12 9.46a36.339 36.339 0 0 1-12.98 4.84c-4.565.715-9.295.55-13.805-.55-4.51-1.21-8.8-3.135-12.54-5.885Zm-.22-66.11c-.495.275-.99.495-1.485.77.165-.165.33-.33.55-.44.275-.22.66-.275.935-.33Zm38.225 72.325c-1.76.88-3.575 1.54-5.445 2.145s-3.74.99-5.665 1.32c1.925-.33 3.795-.77 5.665-1.375s3.685-1.32 5.39-2.2c1.76-.88 3.41-1.815 5.005-2.97 1.595-1.1 3.135-2.31 4.51-3.63a39.222 39.222 0 0 0 11.55-19.855c1.815-7.535 1.32-15.62-1.43-22.88-2.695-7.26-7.59-13.695-13.915-18.26-6.27-4.565-13.915-7.26-21.67-7.535a39.198 39.198 0 0 0-22.22 5.83c-6.6 4.07-11.99 10.12-15.235 17.16-.825 1.76-1.485 3.575-2.035 5.445s-.935 3.795-1.21 5.665c-.275 1.925-.385 3.85-.385 5.83 0 1.925.22 3.905.495 5.83-.275-1.925-.495-3.85-.495-5.83 0-1.925.055-3.905.33-5.83.275-1.925.66-3.85 1.21-5.72.55-1.87 1.21-3.685 2.035-5.5 3.245-7.095 8.635-13.2 15.29-17.27 6.655-4.125 14.52-6.16 22.33-5.885 7.81.275 15.51 2.915 21.835 7.535 6.325 4.565 11.275 11.055 13.97 18.425 2.695 7.315 3.19 15.455 1.375 23.045-1.815 7.59-5.94 14.63-11.66 19.91a41.3 41.3 0 0 1-4.565 3.63c-1.65 1.155-3.355 2.09-5.06 2.97Zm20.075-55.22c-.275-.495-.605-.99-.88-1.43.22.165.495.44.66.77.11.165.165.44.22.66Zm6.765 25.685c-.055.44-.165.935-.22 1.375l.385.055c-.055.33-.11.66-.165 1.045l-.385-.055-.275 1.32-.165.66c.275-1.705.44-3.41.495-5.17.11-.275.22-.715.275-1.155.055-.715-.055-1.485-.055-1.485h-.165v-.825h.22s.22-.715.22-1.485c0-.715-.165-1.485-.165-1.485h-.44c-.055-.275-.055-.55-.11-.825h.55s.165-.77.11-1.485a7.57 7.57 0 0 0-.275-1.43l-.77.11c-.055-.275-.11-.55-.165-.77l.825-.11s.055-.77 0-1.485c-.11-.715-.44-1.43-.44-1.43l-.99.22a4.051 4.051 0 0 0-.22-.77l1.1-.22s0-.77-.165-1.485c-.165-.715-.55-1.375-.55-1.375l-1.265.33c-.11-.22-.165-.495-.275-.715l1.32-.385s0-.77-.275-1.43c-.22-.715-.66-1.32-.66-1.32l-1.485.55c-.11-.22-.22-.495-.33-.715l1.485-.605s-.11-.77-.385-1.43c-.33-.66-.77-1.265-.77-1.265l-1.65.77c-.11-.22-.275-.44-.385-.66l1.65-.825s-.165-.715-.55-1.375c-.165-.33-.385-.605-.55-.825-.165-.22-.33-.33-.33-.33l-1.76 1.045c-.165-.22-.275-.44-.44-.66l1.76-1.1s-.055-.165-.165-.44a3.557 3.557 0 0 0-.495-.88c-.22-.33-.44-.605-.66-.77l-.33-.33-1.815 1.265s.165.055.44.22c.22.165.495.385.715.715.22.33.33.66.385.935 0 .11 0 .165.055.22-1.65-2.31-3.465-4.51-5.5-6.49-9.13-9.625-22.715-14.74-36.795-12.485-1.65.275-3.245.605-4.785 1.045a41.15 41.15 0 0 0-8.195 2.805c.055-.055.055-.11.11-.165.165-.22.44-.495.77-.66.66-.33 1.43-.22 1.43-.22l-.88-1.98s-.715.165-1.43.44a6.14 6.14 0 0 0-.88.55c-.22.165-.385.275-.385.275l.99 1.815c-.22.11-.44.22-.715.33l-.99-1.76s-.165.055-.44.165c-.275.11-.605.275-.935.44-.66.385-1.155.935-1.155.935l.99 1.54c-.22.11-.44.275-.66.385l-.99-1.485s-.715.275-1.32.715c-.275.22-.55.495-.77.66l-.33.33.99 1.265c-.22.165-.44.275-.66.44l-.99-1.21s-.165.055-.44.22c-.22.165-.55.33-.825.605-.55.495-.99 1.1-.99 1.1l.935.99c-.22.165-.385.33-.605.495l-.88-.935s-.66.385-1.155.88c-.275.275-.495.55-.605.77-.165.22-.22.385-.22.385l.77.715c-.22.165-.385.385-.55.55l-.77-.66s-.165.11-.385.275c-.22.165-.495.44-.715.715-.22.275-.44.605-.55.825l-.22.44.605.495c-.165.22-.33.385-.55.605l-.605-.44s-.165.11-.33.33c-.22.22-.44.495-.66.77-.22.275-.385.605-.495.88-.055.11-.11.22-.11.33-.055.055-.055.11-.055.11l.44.275-.495.66-.385-.22-.33.33c-.165.22-.44.495-.605.825-.385.66-.55 1.375-.55 1.375l.165.11c-.165.22-.275.44-.44.66l-.11-.055s-.495.55-.825 1.265a5.927 5.927 0 0 0-.33 1.1 35.222 35.222 0 0 0-2.145 4.62l.165-.495.44-1.32-.385-.11c.11-.33.22-.66.385-.99l.385.11c.165-.44.33-.88.495-1.265l.55-1.265-.385-.165c.165-.33.275-.66.44-.935l.33.165.605-1.21c.22-.385.44-.825.66-1.21l-.33-.165c.165-.33.33-.605.495-.935l.33.22.715-1.155.385-.605.385-.55-.33-.22c.22-.275.385-.55.605-.88l.33.22c.275-.385.55-.77.825-1.1.275-.385.55-.715.825-1.1l-.33-.22.66-.825.275.275c.55-.715 1.21-1.375 1.815-2.035l-.275-.275c.22-.275.495-.495.715-.715l.275.275.99-.99 1.045-.935-.275-.275c.275-.22.495-.44.77-.715l.275.275c.715-.55 1.43-1.155 2.145-1.705l-.22-.33c.275-.22.55-.385.825-.605l.22.33c.385-.275.77-.495 1.155-.77.385-.22.77-.495 1.155-.77l-.22-.33c.275-.165.605-.385.88-.55l.22.33c.77-.495 1.595-.88 2.42-1.32l-.165-.33c.33-.165.605-.33.935-.44l.165.33 1.265-.605c.44-.165.825-.33 1.265-.495l-.165-.385c.33-.11.66-.275.99-.385l.165.385 1.32-.44.66-.22c.22-.055.44-.11.66-.22l-.11-.385c.33-.11.66-.22.99-.275l.11.385 1.32-.33 1.32-.33-.055-.385c.33-.055.66-.165 1.045-.22l.055.385 1.375-.275 1.375-.165-.055-.385c.33-.055.715-.11 1.045-.11l.055.385 1.375-.11c.44-.055.935-.055 1.375-.11v-.385c.33 0 .715 0 1.045-.055v.385H139.15v-.385c.33 0 .715.055 1.045.055v.385c.44.055.935.055 1.375.11l1.375.165.055-.385c.33.055.715.11 1.045.165l-.055.385c.88.165 1.815.275 2.695.495l.11-.385c.33.055.66.165 1.045.22l-.11.385 1.32.33c.44.11.88.22 1.32.385l.11-.385.99.33-.11.385c.88.275 1.705.605 2.585.935l.165-.385c.33.11.66.275.99.385l-.165.385 1.265.55 1.21.605.165-.33c.33.165.605.33.935.495l-.165.33c.825.44 1.595.88 2.365 1.375l.22-.33c.275.165.605.385.88.55l-.22.33c.385.22.77.495 1.155.77s.77.495 1.1.77l.22-.33.825.66-.22.33.55.44.55.44 1.045.88.275-.275c.275.22.495.44.77.715l-.275.275c.33.33.66.605.99.935l.99.99.275-.275c.22.275.495.495.715.77l-.275.275.935 1.045c.33.33.605.715.88 1.045l.33-.275.66.825-.33.22.825 1.1c.275.385.55.715.77 1.1l.33-.22c.22.275.385.605.55.88l-.33.22c.275.385.495.77.715 1.155l.715 1.21.33-.165c.165.275.33.605.495.935l-.33.165c.22.385.44.825.605 1.21l.605 1.265.385-.165c.165.33.275.66.44.935l-.385.165c.33.825.715 1.705.99 2.585l.385-.11.33.99-.385.11c.165.44.275.88.385 1.32.11.44.275.88.385 1.32l.385-.11c.11.33.165.66.275.99l-.385.11c.22.88.385 1.815.55 2.695l.385-.055c.055.165.055.33.11.495 0 .165.055.33.055.495l-.385.055c.11.935.275 1.815.33 2.75l.385-.055c.055.33.055.715.055 1.045h-.385c.055.44.055.935.055 1.375 0 .44.055.935.055 1.375h.385v1.045h-.385c0 .935-.055 1.815-.165 2.75l.385.055c-.055.33-.055.715-.11 1.045l-.385-.055-.385 1.43Zm-1.815 8.965c0-.055 0-.055.055-.11 0 0-.055.055-.055.11Zm-49.83-61.545c25.575-4.07 49.72 13.42 53.845 38.995 4.07 25.575-13.42 49.72-38.995 53.845-25.575 4.07-49.72-13.42-53.845-38.995-4.07-25.575 13.42-49.72 38.995-53.845Z" fill="#9C9C9C"/><path fill-rule="evenodd" clip-rule="evenodd" d="M63.91 60.5c2.145-.55 4.895 0 8.305 1.21 1.65.55 3.465 1.265 5.39 2.035-2.42-1.21-4.84-2.585-6.93-4.015-3.85-2.585-6.16-5.115-7.48-6.875-1.32-1.76-1.705-2.86-1.76-2.915a5.406 5.406 0 0 1-.275-.88c.275-.055.605-.055.88-.055 2.31-.165 4.95.825 8.25 2.475 2.915 1.43 6.435 3.3 10.615 5.17-.935-.495-1.925-.99-2.86-1.54-2.915-1.705-5.83-3.575-8.36-5.5-3.905-3.025-6.27-5.72-7.645-7.645-1.375-1.925-1.76-3.08-1.815-3.135-.11-.33-.22-.605-.33-.935h.935c2.42.055 5.225 1.32 8.69 3.3 2.09 1.21 4.51 2.64 7.205 4.18-2.42-1.705-4.785-3.52-6.82-5.39-4.29-3.795-6.71-7.15-8.14-9.46-1.43-2.31-1.76-3.63-1.815-3.685-.11-.33-.22-.715-.275-1.045l.99.22c2.585.605 5.5 2.53 9.295 5.225 1.375.99 2.805 2.035 4.4 3.19-.99-.88-1.98-1.76-2.86-2.64-4.18-4.07-6.49-7.7-7.755-10.12-1.265-2.475-1.54-3.795-1.54-3.905-.055-.385-.165-.77-.165-1.1l.99.33c2.53.825 5.335 2.97 8.965 5.94 2.64 2.145 5.775 4.73 9.46 7.37 2.09.055 4.455 1.045 7.315 2.585 2.2 1.21 4.73 2.75 7.7 4.345v-.495l.66.33c.11.055 8.69 4.565 14.63 7.205 1.485.66 3.025 1.1 4.51 1.485 2.2.605 4.29 1.155 6.05 2.42 2.365 1.705 3.74 3.795 4.07 6.16.66 4.73-2.585 9.955-6.27 14.96-.55.77-1.1 1.65-1.595 2.585-.33.715-.66 1.485-.99 2.2 0 .055-.055.11-.055.22-2.475 6.655-2.42 15.73 4.51 21.835 5.445 4.785 10.285 4.455 13.42 4.235 2.035-.165 3.63-.275 4.18 1.265.99 2.805-.825 4.29-3.63 6.49l-.77.605c-.055.055-.055.11-.11.22-.715 1.1-1.98 2.42-3.245 3.3-.935.715-1.815.99-2.42 1.155-.605.165-.99.11-1.045.11l-.33-.055-.11-.385c-.11-.385-.165-.77-.11-1.1-.77.66-1.705 1.265-2.585 1.705-1.155.605-2.145.825-2.805.88-.715.055-1.1-.055-1.155-.055l-.33-.11-.055-.44c-.165-.88.055-1.595.495-2.255-.825.55-1.65.99-2.475 1.375-1.32.605-2.365.77-3.135.77-.77.055-1.155-.11-1.21-.11l-.33-.11v-.44c-.055-1.155.44-2.035 1.32-2.86-.99.44-2.09.77-3.025.99a7.734 7.734 0 0 1-3.41 0c-.77-.165-1.155-.44-1.155-.44-.11-.055-.22-.165-.33-.22l.11-.44c.33-1.375 1.375-2.09 2.86-2.805h-.11c-1.155.385-2.365.66-3.465.825-1.76.275-3.025.22-3.905.055-.88-.165-1.32-.385-1.375-.385l-.385-.22.165-.44c.385-1.155 1.375-1.925 2.695-2.585-.935.165-1.87.275-2.695.275-1.76.055-3.08-.165-3.96-.495-.825-.275-1.265-.55-1.32-.605l-.33-.22.22-.44c.495-.935 1.32-1.54 2.475-1.98-1.1.055-2.145.055-3.135 0-2.255-.165-3.795-.605-4.84-.99-.99-.385-1.485-.77-1.485-.825-.11-.11-.275-.22-.385-.33l.385-.385c.935-.935 2.31-1.43 4.125-1.705l1.155-.165c-1.32.055-2.64 0-3.85-.11-2.42-.165-4.07-.66-5.17-1.1-1.1-.44-1.595-.77-1.65-.825l-.44-.33.385-.44c1.65-1.87 5.005-2.09 9.57-2.42-2.75-.165-5.83-.55-8.415-1.1-2.86-.605-4.84-1.43-6.05-2.035-1.265-.605-1.815-1.1-1.87-1.155l-.44-.385.55-.33c2.035-1.375 5.39-1.21 10.01-.825-2.09-.55-4.29-1.21-6.16-1.98-2.75-1.045-4.565-2.145-5.72-2.97-1.155-.825-1.65-1.375-1.65-1.43l-.385-.44.55-.275c2.035-.99 5.17-.385 9.35.605-2.035-.77-4.07-1.595-5.885-2.475-3.025-1.485-5.06-2.86-6.325-3.905-1.265-1.045-1.76-1.705-1.815-1.76l-.44-.55.66-.275c2.09-.825 4.895-.275 8.58.825-1.595-.715-3.08-1.485-4.51-2.255-3.74-2.035-6.215-3.96-7.7-5.335-1.54-1.375-2.145-2.2-2.145-2.31l-.495-.715h.935Z" fill="#fff"/><path fill-rule="evenodd" clip-rule="evenodd" d="M120.67 50.325a3.7 3.7 0 0 1-.605-.385c-.22-.11-.44-.22-.715-.33-.99-.495-2.2-.935-3.465-1.43-1.32-.44-2.695-.935-4.07-1.32-1.375-.495-2.805-.935-4.07-1.43a21.975 21.975 0 0 1-3.41-1.65c-.44-.33-.88-.605-1.265-.88-.33-.33-.66-.55-.88-.825-.44-.495-.66-.825-.66-.825l.715.715c.22.22.55.44.935.715.385.275.825.495 1.265.77.99.495 2.145.99 3.465 1.43 1.265.495 2.695.88 4.07 1.375a70.21 70.21 0 0 1 4.07 1.43c1.265.495 2.475 1.045 3.465 1.65.22.165.495.275.715.385.22.165.385.275.605.44.385.275.715.495.935.715.495.44.77.715.77.715s-.33-.22-.825-.605c-.33-.275-.66-.44-1.045-.66Zm-46.805 17.71c3.63 1.98 8.195 3.96 12.21 5.225.99.275 1.98.605 2.915.77.275.055.605.11.88.165h1.98c-.715-.165-1.43-.275-2.09-.44-3.3-.77-5.5-1.705-6.985-2.475-1.43-.77-2.09-1.265-2.145-1.32l-.55-.44.605-.385c-4.565-1.87-9.02-4.07-13.365-6.545 2.42.99 4.73 2.145 7.15 3.135a100.908 100.908 0 0 0 7.095 2.915c1.1-.495 2.475-.66 4.07-.715l-1.485-.495c-4.29-1.54-8.085-3.19-11.33-4.345-3.245-1.155-5.995-1.87-8.085-1.705 1.21 1.155 3.85 3.74 9.13 6.655Zm-3.74 3.025c3.355-.715 8.8 1.54 15.785 3.795-.55.22-1.1.495-1.54.88l-.495.385c-1.925-.66-3.85-1.375-5.775-2.09-1.925-.715-3.85-1.485-5.83-2.145 3.74 1.87 7.59 3.465 11.495 4.84.495.165.99.33 1.54.55.275.165.605.33.99.55 1.32.66 3.355 1.485 6.38 2.09.77.165 1.54.275 2.365.44-.055.11-.165.165-.275.22-.935.055-1.705.165-2.42.385-1.265-.165-3.025-.55-4.895-1.1-3.19-.935-6.82-2.365-9.79-3.795-4.345-2.09-6.6-4.07-7.535-5.005Zm4.4 8.25c.88.77 2.915 2.31 6.765 3.795 2.64 1.045 5.94 1.98 8.745 2.585 2.805.55 5.17.715 5.94.385.33-.165.605-.44.825-.77h-.22c-1.1-.165-2.09-.385-2.86-.605-.605-.055-1.155-.165-1.76-.22-1.76-.275-3.52-.715-5.28-1.155-3.465-.935-6.93-2.035-10.23-3.41 1.76.44 3.465.99 5.17 1.485 1.705.495 3.465.99 5.17 1.43 1.375.33 2.75.605 4.18.88-.715-.385-1.045-.66-1.1-.66l-.385-.33.385-.385c.11-.11.22-.165.275-.275-.605-.11-1.21-.275-1.815-.385-6.105-1.595-10.945-3.135-13.805-2.365Zm3.41 7.81c2.75-1.265 7.755-.44 14.025 0 .66.055 1.32.11 2.035.11-.55.33-1.045.715-1.43 1.155l-.22.275c-.605-.055-1.155-.055-1.76-.11-1.76-.165-3.575-.33-5.335-.55-1.76-.22-3.52-.495-5.335-.605 3.52.825 7.04 1.375 10.615 1.76.825.055 1.595.165 2.42.22.275.165.715.33 1.375.55 1.1.33 2.695.715 5.005.825-1.1.22-2.97.385-5.115.275-2.86-.11-6.27-.55-9.02-1.155-4.07-.99-6.27-2.2-7.26-2.75Zm6.655 7.26c.825.44 2.805 1.265 6.215 1.54 2.31.165 5.115.165 7.48-.165.33-.055.66-.11.935-.11a13.165 13.165 0 0 1-1.98-.275c-.99-.22-1.485-.495-1.54-.55l-.385-.22.055-.165h-.275c-2.97.165-5.885.11-8.8-.165 1.43-.11 2.915-.11 4.4-.165 1.485-.055 2.915-.11 4.4-.22.22 0 .44-.055.66-.055.44-.715 1.045-1.265 1.87-1.705-.55.055-1.1.11-1.595.165-5.28.44-9.405.44-11.44 2.09ZM89.98 99c.77.44 2.585 1.265 5.72 1.485 2.145.165 4.785 0 6.985-.44 1.045-.22 1.98-.44 2.695-.715-1.76.22-3.08.11-3.96 0-.605-.11-.99-.22-1.21-.33-.22 0-.385.055-.605.055-2.695.275-5.445.275-8.14-.055 1.32-.11 2.695-.11 4.015-.165a49.365 49.365 0 0 0 4.015-.33h.165l.11-.275c.22-.495.55-.935.935-1.265-.165 0-.275.055-.44.055-4.62.605-8.36.495-10.285 1.98Zm6.875 4.4c1.265-1.65 4.07-2.035 7.535-2.86-.44.44-.77.935-.99 1.54l-.055.165c-.77.165-1.485.275-2.255.44-1.045.165-2.09.33-3.135.605 1.87 0 3.685-.22 5.555-.55l.11.055c.055 0 .44.22 1.265.44.55.11 1.32.22 2.255.165-.055 0-.11.055-.165.055-1.705.495-3.74.825-5.445.88-2.475 0-4.015-.605-4.675-.935Zm5.335 3.96c.715.22 2.31.55 4.73.165.385-.055.825-.165 1.265-.22-.11-.055-.165-.055-.22-.055l-.385-.165.055-.44c0-.22.055-.44.165-.605-1.485.44-2.97.77-4.51.99.99-.385 2.035-.66 3.025-.99.55-.165 1.1-.33 1.65-.55.495-.935 1.43-1.65 2.695-2.42-.33.11-.715.275-1.045.385-3.465 1.265-6.38 2.035-7.425 3.905Zm10.175-1.045c-2.09.66-3.52.495-4.18.385.55-1.925 2.97-3.025 5.83-4.62.22-.11.44-.22.66-.385.55.11 1.265.11 2.09-.11-.11.165-.165.33-.22.495l-.055.055c-.77.55-1.595.99-2.42 1.485-.825.44-1.65.88-2.53 1.265-.825.44-1.705.825-2.475 1.32 1.815-.55 3.52-1.32 5.225-2.145.715-.385 1.43-.77 2.09-1.155 0 .275.055.55.11.88l.11.44.165.11-.055.055c-1.265.715-2.915 1.485-4.345 1.925Zm-4.07 4.07c.77-1.76 3.08-2.42 5.83-3.74.55-.275 1.155-.605 1.705-.935-.935.825-1.595 1.595-1.815 2.53-.77.33-1.54.66-2.31.935-.825.33-1.65.55-2.475.935 1.595-.22 3.19-.66 4.73-1.265v.77l.385.11c.055 0 .385.11.935.11-.935.385-1.98.715-2.86.935-2.145.275-3.52-.165-4.125-.385Zm10.065-2.145c.88-.44 1.87-.99 2.75-1.595-.055 0-.11-.055-.11-.055l-.33-.165-.11-.44c-.055-.22-.055-.44-.11-.605-.22.11-.385.275-.605.44-1.485.99-3.08 1.98-4.73 2.695.715-.55 1.43-1.045 2.2-1.54.77-.495 1.485-.99 2.2-1.54.33-.22.605-.44.935-.715.055-.165.055-.33.11-.44-.055 0-.11.055-.11.055a4.52 4.52 0 0 1-2.255.385c-2.035 1.485-3.63 2.75-3.85 4.4.715.055 2.145 0 4.015-.88Zm-3.52 5.005c.605.055 1.98.055 3.85-.715.825-.385 1.705-.88 2.53-1.375-.275 0-.44-.055-.495-.055l-.33-.055-.055-.44c0-.165-.055-.33-.055-.495a.118.118 0 0 0-.11.11c-1.43.935-2.915 1.815-4.51 2.53.66-.55 1.375-.99 2.09-1.485.715-.44 1.43-.935 2.145-1.43.165-.11.33-.275.495-.385.165-.825.66-1.485 1.375-2.255-.935.66-1.98 1.21-2.915 1.705h-.055c-2.145 1.43-3.74 2.64-3.96 4.345Zm9.515-3.685c-1.705.935-3.025.99-3.63.99 0-1.32.935-2.42 2.255-3.63.55-.055 1.155-.165 1.815-.495a6 6 0 0 0 .605-.33c0 .165 0 .33.055.55l-.22.22c-.605.495-1.265 1.045-1.925 1.54-.66.495-1.265.99-1.87 1.595 1.485-.77 2.805-1.76 4.07-2.75l.055-.055c0 .055 0 .11.055.165l.11.44.33.165s.22.11.605.165c-.77.44-1.54.99-2.31 1.43Zm-2.86 4.4c0-1.21.77-2.2 1.87-3.245.44-.165.935-.33 1.43-.605.99-.55 2.035-1.265 2.915-2.035h.11a8.29 8.29 0 0 0-.66 1.1c-.44.44-.935.935-1.43 1.32-.605.495-1.21.99-1.815 1.43-.605.495-1.21.935-1.76 1.485 1.43-.715 2.695-1.595 3.905-2.585.275-.22.495-.385.77-.605-.055.44 0 .825.11 1.265l.11.33c-.66.495-1.375.99-2.035 1.32-1.595.825-2.915.88-3.52.825Zm8.965-4.015c.33-.275.715-.605 1.045-.935-.385-.11-.605-.22-.66-.22l-.33-.165-.055-.275a26.91 26.91 0 0 1-2.585 2.42c.44-.605.935-1.155 1.43-1.705.385-.385.715-.825 1.045-1.21-.055-.33-.055-.605-.055-.88-.22.165-.495.33-.715.44-.275.165-.55.275-.77.385-.99 1.265-1.65 2.42-1.485 3.575.605-.055 1.76-.33 3.135-1.43Zm1.1 1.815c-1.32.99-2.475 1.21-3.025 1.21-.055-.495 0-.935.165-1.375.605-.22 1.375-.605 2.2-1.265 0 0 .055 0 .055-.055-.165.165-.33.385-.495.55-.495.495-.99.99-1.43 1.595 1.155-.825 2.2-1.815 3.19-2.805.165-.165.275-.33.44-.495.495-.055 1.155-.165 1.815-.495l.33-.165c-.66 1.045-1.98 2.42-3.245 3.3Zm3.52-4.345c-.33.275-.715.495-1.1.66-1.43.66-2.64.44-3.19.22-.165-1.375.605-2.145 1.65-3.135.55.22 1.045.495 1.375.715-.385.33-.715.66-1.1.935-.495.385-.99.715-1.43 1.1 1.1-.385 2.035-.99 2.97-1.705.275.22.495.44.66.66.11.165.11.33.165.55Zm1.815-1.1c1.98-1.705 2.64-2.585 2.035-4.29-.11-.385-.44-.605-.88-.66-.275-.055-.605-.055-1.045-.055.44.165.77.33 1.045.605.44.44.495 1.045.44 1.375-.055.165-.11.33-.11.385-.055.055-.055.11-.055.11s0-.055.055-.11c0-.11.055-.22 0-.385 0-.33-.22-.77-.605-1.045-.385-.33-.99-.44-1.595-.44h-2.09c-.715-.055-1.485-.11-2.145-.22-.22-.055-.385-.055-.605-.11-.22 0-.44-.055-.66-.055.33.11.605.22.88.33.55.165 1.045.385 1.375.44l.495.165s-.22 0-.55-.055c-.33-.055-.825-.055-1.43-.22a17.321 17.321 0 0 1-1.98-.495c-.715-.22-1.43-.55-2.2-.88-.715-.385-1.43-.77-2.035-1.155-.055 0-.055-.055-.11-.055-1.155-.66-2.31-1.43-3.52-2.53-7.205-6.325-7.37-15.675-4.895-22.605.055-.165.11-.33.165-.55.385-1.1.88-2.255 1.375-3.41.55-1.1 1.155-2.2 1.76-3.19.605-.99 1.265-1.815 1.76-2.585.495-.77.88-1.43 1.1-1.87.22-.495.33-.77.33-.77s0 .33-.165.825c-.11.44-.275.99-.55 1.595 2.09-3.41 3.52-6.82 3.08-9.845-.33-2.145-1.54-3.96-3.685-5.5-1.65-1.155-3.63-1.705-5.775-2.31-1.485-.44-3.08-.825-4.62-1.54-4.73-2.09-11.165-5.39-13.64-6.655.605 1.155 2.2 3.3 6.27 6.27.99.715 3.245 1.485 5.665 2.255.55.165 1.1.33 1.65.55.715.22 1.485.44 2.31.715 1.265.44 2.64.99 3.96 1.705.66.385 1.265.825 1.87 1.21.605.385 1.265.88 1.76 1.54.44.66.66 1.43.825 2.09.165.66.22 1.265.385 1.815.22 1.045.605 1.925 1.045 2.365.22.22.385.385.55.495.165.11.22.11.22.11s-.11 0-.275-.055a3.616 3.616 0 0 1-.66-.33c-.495-.33-1.045-1.045-1.485-2.035-.44 4.18-2.53 6.71-4.565 9.13-.55.66-1.1 1.32-1.595 2.035-.275.55-.495 1.155-.715 1.76-.275.66-.495 1.32-.715 1.925-.22.605-.44 1.21-.55 1.705-.165.495-.275.935-.385 1.265l-.165.495v-.495c.055-.33.055-.77.165-1.32.055-.44.165-.88.275-1.375-3.025 8.03-2.53 13.42 0 18.48-.275-.825-.385-1.595-.495-2.09-.055-.55-.11-.88-.11-.88s.055.33.22.825c.165.55.44 1.265.77 2.145.33.88.88 1.815 1.485 2.86.605.99 1.32 1.98 2.2 2.86.825.88 1.705 1.705 2.64 2.365.935.66 1.815 1.21 2.64 1.595a38.3 38.3 0 0 0 2.035.88c.495.165.77.275.77.275s-.275-.055-.825-.11c-.495-.11-1.265-.275-2.145-.605-.77-.33-1.65-.715-2.53-1.265 2.64 2.09 5.335 2.805 8.58 3.52l1.155.165c.66.11 1.32.275 1.925.385a8.12 8.12 0 0 0-1.595-.66c1.265 0 2.53.22 3.74.715a4.807 4.807 0 0 1 2.75 2.475ZM97.02 38.83c.495.99 1.54 2.53 3.85 4.565 0 0-.055 0-.055-.055-1.155-.605-2.365-1.155-3.52-1.76a104.204 104.204 0 0 1-6.765-4.015c-2.2-1.43-4.345-2.915-6.49-4.4 3.905 3.63 8.305 6.6 12.925 9.185.88.55 1.815.99 2.75 1.485-.88-.11-1.65-.11-2.365.055l-.66.165.44.55c.055.055.33.385.935.99C95.04 44 91.96 42.02 89.43 40.04c-4.84-3.795-6.875-7.15-7.645-8.635 2.145.22 4.62 1.43 7.59 3.08 2.2 1.265 4.73 2.805 7.645 4.345Zm-16.555-7.59c-.055-.11-.055-.22-.11-.33a172.14 172.14 0 0 1-7.81-6.105c-3.575-2.86-6.325-5.17-8.745-6.325.33.99 1.1 2.64 2.42 4.73 1.32 2.09 3.355 4.73 6.215 7.59 3.795 3.795 8.91 7.645 13.585 10.45.275.11.605.275.935.385 2.695 1.21 5.94 2.915 9.845 4.62a2.57 2.57 0 0 0-.55-.275c-2.585-1.485-5.225-3.19-7.425-4.895a46.133 46.133 0 0 1-3.245-2.805 91.98 91.98 0 0 1-3.795-2.585c-5.665-4.125-11.055-8.745-15.4-14.3 2.42 2.475 4.95 4.895 7.59 7.205l1.98 1.705c.66.55 1.375 1.1 2.035 1.65 1.375 1.1 2.805 2.09 4.18 3.08.33.22.715.495 1.045.715-.44-.55-.825-1.1-1.155-1.54-1.265-1.87-1.595-2.915-1.595-2.97Zm-9.9 1.815c-3.63-2.64-6.545-4.73-9.075-5.665.44.99 1.265 2.53 2.695 4.51s3.52 4.455 6.49 7.095c4.125 3.685 9.57 7.425 14.41 10.01 1.21.66 2.365 1.265 3.465 1.76.165.055.33.165.495.22-.715-.44-1.43-.88-2.035-1.32-3.465-2.31-5.555-4.565-6.765-6.215-.055-.055-.055-.055-.055-.11-.055-.055-.11-.055-.165-.11-1.43-.935-2.86-1.925-4.29-2.915-1.43-.99-2.75-2.09-4.07-3.135-2.64-2.2-5.17-4.565-7.48-7.15 2.53 2.255 5.115 4.51 7.865 6.6 1.375 1.045 2.695 2.09 4.125 3.025.99.715 1.98 1.375 2.97 2.035l-.44-.88c-.11-.275-.22-.55-.275-.825l.825-.165c.385-.055.715-.055 1.1-.055-3.685-2.31-6.985-4.675-9.79-6.71Zm-.44 9.79c-3.41-1.925-6.16-3.355-8.47-3.795.88 1.595 3.245 5.225 8.745 9.46 3.795 2.915 8.69 5.885 12.98 7.92.935.44 1.815.825 2.64 1.21-2.97-1.76-4.95-3.465-6.105-4.785-.55-.605-.88-1.1-1.155-1.485-5.17-2.97-10.12-6.27-14.52-10.285 2.42 1.705 4.84 3.41 7.315 5.06a95.36 95.36 0 0 0 6.435 3.905c-.055-.11-.11-.22-.165-.385.275-.11.55-.165.825-.22.77-.22 1.65-.33 2.53-.275-4.235-2.31-7.92-4.51-11.055-6.325Zm30.14 31.515c-3.3-.22-7.15-.825-10.34-1.54-4.62-1.1-7.15-2.53-8.25-3.245 3.19-1.43 8.965-.44 16.17.275.825.055 1.65.165 2.475.22.99.44 2.365.935 4.235 1.265.33.055.715.11 1.045.165-1.375 0-2.475 0-3.465.44-1.98-.055-4.015-.165-5.995-.385-2.035-.22-4.07-.495-6.105-.77s-4.07-.605-6.105-.825c4.015 1.045 8.085 1.705 12.21 2.255 1.65.22 3.3.385 4.95.44l-.33.33-.33.44.22.44s.165.275.44.605c-.275-.055-.55-.055-.825-.11Zm1.815 5.665c.44-.99 1.1-1.485 1.98-1.815h-.165c-1.87 0-3.74-.11-5.61-.275-3.74-.33-7.425-.825-11.055-1.65 1.87.11 3.685.33 5.555.495 1.87.165 3.685.385 5.555.495 1.87.11 3.74.165 5.555.11.99-.055 1.925-.11 2.915-.165a6.964 6.964 0 0 1-1.54-.33c-1.155-.33-2.09-.77-2.75-1.21-.935-.055-1.87-.055-2.805-.11-6.545-.385-11.77-1.045-14.575.55.99.66 3.355 1.925 7.535 2.805 2.915.66 6.435 1.045 9.405 1.1Zm-6.105.44h-.33s0-.055.055-.055c.11.055.22.055.275.055Zm8.03 4.4c-2.365.11-5.115 0-7.425-.33-3.355-.495-5.28-1.485-6.105-1.98 2.145-1.485 6.27-1.21 11.44-1.32h.385c.165.165.385.33.715.55.495.275 1.155.605 1.98.77-1.375.165-2.75.22-4.125.22-1.485 0-2.915-.055-4.4-.11-1.485-.055-2.915-.11-4.4-.11 2.915.495 5.83.715 8.8.77 1.375 0 2.695 0 4.07-.11-.385.385-.77.88-.935 1.65Zm-3.575.825c-1.045-.055-2.09-.11-3.08-.275-.11.33-.33.605-.55.825 1.1-.22 2.31-.385 3.63-.55Zm5.445 3.795c-2.09.275-4.4.44-6.38.385-3.355-.11-5.39-.825-6.27-1.265 1.98-1.76 6.105-1.98 11.22-2.64.165.11.33.275.605.44.385.22.88.44 1.485.55a.417.417 0 0 0-.11.22c-.935.165-1.815.33-2.75.44-1.43.165-2.915.33-4.4.44-1.485.11-2.915.22-4.4.385 2.97.165 5.885 0 8.855-.275l2.475-.33c0 .11-.055.22-.055.385l-.055.44.275.275s.165.165.385.275c-.33.11-.605.22-.88.275Zm-4.18 1.155c-.275.055-.605.165-.88.22-.11 0-.22.055-.33.055.11-.11.22-.165.275-.275h.935Zm-.055 4.18c1.98-.22 4.4-.66 6.325-1.32.22-.055.44-.165.66-.22-.275-.11-.44-.22-.44-.275l-.275-.22v-.935c-.99.33-1.925.605-2.915.825-2.475.605-4.95 1.045-7.535 1.265 1.21-.33 2.475-.605 3.685-.88s2.475-.55 3.685-.88c1.1-.275 2.2-.66 3.245-1.045.165-.44.495-.825.88-1.155a5.943 5.943 0 0 1-1.155-.275c-.825.275-1.65.55-2.475.77-4.29 1.21-7.755 1.87-9.185 3.85.77.275 2.585.77 5.5.495Zm.605 1.1c-.385.055-.715.11-1.1.22.77-.165 1.375-.385 1.76-.605.165 0 .275-.055.44-.055-.44.11-.77.275-1.1.44Zm8.525 1.265c-1.705.605-3.74 1.155-5.445 1.375-2.64.385-4.29 0-5.005-.22 1.21-1.87 4.345-2.64 8.14-3.905l1.815-.66c.385.055.825.055 1.32.055-.495.385-.88.77-1.1 1.32-.77.33-1.595.605-2.42.88l-3.3.99c-1.1.33-2.2.605-3.3.99 2.255-.275 4.51-.825 6.71-1.485.715-.22 1.43-.44 2.145-.715 0 .22 0 .495.055.77l.055.44.33.165Zm2.09-5.885c.22.44.495.935.715 1.375-.715.22-1.43.33-2.145.385-1.54.165-2.695-.275-3.245-.55.22-1.705 1.76-2.365 3.795-3.135.165.495.385.935.605 1.375h-.055l-1.87.66c-.605.22-1.265.44-1.815.77 1.375-.165 2.64-.495 3.905-.88.055.055.11 0 .11 0Zm-2.31-6.435c-1.485.44-2.75.77-3.52 1.43-1.375-.165-2.31-.77-2.695-1.1.66-1.705 2.42-1.925 4.675-2.585.55-.165 1.1-.33 1.65-.55 0 .55 0 1.045.055 1.54-.55.22-1.1.44-1.65.605-.66.165-1.32.33-2.035.44-.66.165-1.32.22-1.98.385 1.43.165 2.805-.055 4.18-.33.495-.11 1.045-.275 1.54-.44 0 .165.055.33.055.495-.11.055-.165.055-.275.11Zm-1.485 2.805c-.66.165-1.265.33-1.87.55 1.375 0 2.695-.22 3.96-.55.11 0 .165-.055.275-.055.11.385.22.715.33 1.1-.605.22-1.1.44-1.595.66h-.495c-1.595 0-2.695-.55-3.19-.935.44-1.76 2.2-2.145 4.4-2.805.055 0 .055 0 .11-.055l.33 1.485c-.11.055-.22.055-.33.11-.66.165-1.32.33-1.925.495Zm-10.12-33.22c.495.165.99.385 1.485.55.055 0 .11.055.165.055.99 0 2.145.165 3.41.385.22.055.385.055.605.11-.11-.055-.165-.055-.275-.11-3.135-1.265-5.17-2.585-6.435-3.52-.44-.33-.77-.605-1.045-.825-.605-.275-1.265-.55-1.87-.825-4.51-2.145-8.91-4.62-12.76-7.81 2.145 1.21 4.235 2.53 6.38 3.685 2.145 1.21 4.4 2.31 6.655 3.3.22.11.385.165.605.275l.385-.11c1.65-.55 3.85-.275 6.6.44.11.055.275.055.385.11-1.925-.66-3.74-1.375-5.5-2.09-3.96-1.705-7.425-3.465-10.395-4.785-2.97-1.32-5.335-2.255-7.425-2.255.77 1.375 2.86 4.455 7.7 7.755 3.3 2.145 7.59 4.29 11.33 5.665Zm-11.66 2.53c3.355 1.815 7.645 3.52 11.33 4.51h.055c1.1-.55 2.53-.66 4.29-.605 1.045 0 2.2.11 3.52.22.275 0 .495.055.77.055l-1.65-.495c-.22-.055-.385-.165-.605-.22-.11 0-.22 0-.385-.055-1.1-.165-2.2-.385-3.3-.605-1.155-.275-2.31-.605-3.465-.935-1.155-.385-2.31-.715-3.41-1.155-4.51-1.595-8.855-3.575-12.815-6.215 2.145.935 4.235 1.98 6.435 2.86 2.145.935 4.4 1.76 6.6 2.53 1.1.385 2.255.715 3.41 1.045l3.3.825c-.715-.385-1.265-.77-1.76-1.1-1.155-.825-1.65-1.43-1.705-1.485l-.385-.495.44-.165-.99-.33c-3.96-1.265-7.37-2.585-10.34-3.575-2.915-.99-5.335-1.595-7.315-1.32.825 1.32 3.08 4.07 7.975 6.71Zm10.89 11-.385.385.33.33c-3.245-.55-6.875-1.65-9.79-2.97-4.675-2.145-6.82-4.62-7.7-5.72 1.815-.495 4.07-.11 6.765.55 2.695.66 5.94 1.595 9.625 2.365.495.11.99.165 1.485.275.22.165.55.44.99.66 1.045.66 2.75 1.485 5.28 2.09.055 0 .11 0 .22.055h-.33c-1.045 0-2.09-.055-3.08-.11a41.597 41.597 0 0 1-6.38-.99c-2.09-.495-4.18-1.1-6.215-1.76-2.035-.66-4.07-1.43-6.05-2.145 3.795 2.2 7.92 3.685 12.155 4.73 1.98.495 3.96.88 5.995 1.1-1.265.11-2.2.495-2.915 1.155Zm7.645-19.965c1.925.825 3.85 1.54 5.83 2.2.99.33 1.98.605 2.97.825.99.22 2.035.495 3.025.825.33.11.605.22.935.33-.495-.275-.99-.605-1.485-.88-1.21-.715-2.53-1.265-3.74-1.815-.77-.33-1.485-.66-2.2-.935-.55-.165-1.1-.385-1.595-.55-2.475-.825-4.62-1.54-5.775-2.31-2.31-.825-4.235-1.32-5.775-1.21.935.935 3.025 2.97 7.315 5.17 1.485.77 3.135 1.54 4.84 2.145.165.055.33.11.55.165.66.165 1.32.275 2.035.44.605.11 1.21.22 1.87.33.33.055.715.11 1.045.165.385.055.715.165 1.1.22 1.43.33 2.86.825 4.235 1.485a2.915 2.915 0 0 0-.44-.825c-1.045-.495-2.035-.99-3.135-1.375-.935-.33-1.925-.605-2.97-.88-.99-.275-2.035-.55-3.025-.88-3.96-1.32-7.755-3.135-11.385-5.225 1.98.88 3.905 1.76 5.775 2.585Zm-.88 4.895c1.925.605 3.905 1.21 5.885 1.65.99.22 1.98.385 3.025.55.99.165 2.035.275 3.025.55 1.43.33 2.805.825 4.125 1.43.055-.44.055-.88.055-1.375-.055-.055-.11-.055-.22-.11a22.08 22.08 0 0 0-4.29-1.485c-.715-.165-1.485-.275-2.09-.385-.66-.11-1.265-.22-1.87-.33-3.465-.66-6.545-1.65-9.185-2.31-2.64-.66-4.785-1.1-6.435-.825.99.825 3.245 2.64 7.59 4.455a47.19 47.19 0 0 0 4.95 1.705c.385.11.825.22 1.265.33.715.11 1.43.165 2.145.275.33.055.605.055.935.11.33.055.66.11.99.11.66.11 1.32.275 1.98.44 1.32.33 2.585.77 3.85 1.265a7.17 7.17 0 0 0 .22-1.155 29.101 29.101 0 0 0-4.18-1.485c-.99-.275-1.925-.385-2.97-.55-1.045-.165-2.035-.385-3.025-.605-4.015-.99-7.865-2.365-11.66-4.125 2.035.55 3.905 1.21 5.885 1.87Zm1.1 5.17c-1.76-.44-3.52-.99-5.28-1.485 3.41 1.485 6.93 2.53 10.615 3.08.935.165 1.87.22 2.75.33.88.11 1.76.33 2.64.55.99.275 1.98.605 2.97.88-.22.44-.495.88-.77 1.265-1.045-.275-2.475-.715-4.125-1.045l-.99-.165c-.33-.055-.605-.055-1.045-.11-.825-.055-1.65-.22-2.42-.33a29.899 29.899 0 0 1-4.62-1.21c-4.07-1.43-6.105-3.135-6.985-3.85 1.485-.33 3.465-.11 5.83.33s5.17 1.1 8.305 1.375c.33.055.605.055.935.11.33.055.66.055.99.11.66.11 1.265.22 1.925.385 1.265.33 2.53.77 3.795 1.265-.165.44-.275.825-.495 1.21-1.045-.33-2.035-.66-3.08-.935-.88-.22-1.815-.44-2.75-.55-.935-.11-1.87-.165-2.75-.275-1.87-.11-3.685-.495-5.445-.935Zm-1.155 5.17c-1.54-.165-3.025-.44-4.565-.605 2.97.935 6.05 1.375 9.13 1.595 1.54.11 3.025.385 4.565.66l2.97.495c-.11.11-.22.275-.33.385-.165.165-.275.33-.44.495-.22-.11-.44-.165-.77-.165-1.1-.055-2.145-.11-3.19-.055-.275 0-.495.055-.77.055-.33-.055-.605-.11-.935-.11-.605-.11-1.21-.165-1.925-.22a38.451 38.451 0 0 1-3.905-.66c-3.52-.825-5.39-2.145-6.16-2.75 1.21-.55 2.86-.605 4.895-.55.99.055 2.09.11 3.3.22s2.42.11 3.96.275c2.09.22 4.125.66 6.325 1.155.44.11.825.275 1.1.55l-.66.825c-1.155-.11-2.255-.33-3.355-.495-1.54-.22-3.08-.44-4.62-.55-1.595-.22-3.08-.33-4.62-.55Zm-.385 5.445c-1.375-.055-2.805-.22-4.18-.22 2.75.605 5.555.88 8.415.77.715-.055 1.43-.055 2.145-.165.715-.055 1.375-.165 2.09-.165.44 0 .935 0 1.375-.055-.33.495-.605.99-.825 1.54-.495 0-1.045.055-1.65.11-.44.055-1.1.165-1.705.165-.605.055-1.265.055-1.87.055-1.265 0-2.53-.11-3.63-.275-3.245-.55-5.005-1.65-5.775-2.145 1.045-.715 2.585-.935 4.4-1.045 1.815-.11 4.015 0 6.38-.22.44-.055.825-.11 1.32-.11.495-.055.99-.11 1.54-.11.99-.055 2.035 0 3.08.055.11 0 .165 0 .275.055-.33.44-.66.825-.99 1.265-.605 0-1.265 0-1.87.055-1.43.055-2.805.385-4.235.44a55.77 55.77 0 0 1-4.29 0Zm.825 5.28c-1.045-.11-2.035-.275-3.08-.385 1.98.77 4.07 1.155 6.215 1.21a21.94 21.94 0 0 0 3.245-.22c.11 0 .165-.055.275-.055-.22.66-.385 1.265-.55 1.87-.165.055-.33.055-.495.055-1.815.22-3.96.055-5.665-.385-2.475-.715-3.685-2.035-4.18-2.64 1.705-1.485 4.345-.88 7.92-.99 1.21-.055 2.53-.165 3.85-.55-.22.605-.44 1.21-.66 1.76l-.66.165c-1.045.22-2.09.33-3.135.385-1.045 0-2.09-.11-3.08-.22Zm.165 6.16c-.77.11-1.54.11-2.255.275 1.54.22 3.135.165 4.73-.055.77-.11 1.54-.275 2.31-.495.22-.055.385-.165.605-.22-.055.495-.11 1.045-.11 1.54-.44.165-.88.33-1.265.495-1.155.22-2.475.33-3.575.22-1.87-.165-3.025-.99-3.52-1.43.935-1.65 2.97-1.76 5.61-2.255.935-.165 1.87-.44 2.915-.77.11-.055.275-.055.385-.055-.11.495-.22.935-.275 1.43-.275.165-.605.275-.935.385-.715.275-1.485.44-2.255.605-.825.165-1.595.275-2.365.33Zm7.425 15.455c-.55.22-1.045.44-1.54.77 1.21-.22 2.31-.605 3.41-1.045.165-.055.275-.11.44-.165.11.165.165.275.275.44.22.275.44.605.605.88-.715.275-1.54.495-2.255.66a5.326 5.326 0 0 1-2.97-.385c-.055-1.705 1.43-2.42 3.245-3.245.275.44.55.88.825 1.265-.11.055-.22.11-.385.165l-1.65.66Zm4.015 5.225a5.224 5.224 0 0 1-3.355.055c.055-1.705 1.375-2.475 3.025-3.685l.99 1.155c-.55.385-1.1.77-1.705 1.1-.55.33-1.155.66-1.705 1.045 1.32-.33 2.53-.99 3.74-1.76l.935.935c-.33.275-.605.495-.88.715-.33.165-.715.275-1.045.44Zm5.5 1.265c-.44-.22-.935-.495-1.375-.77-.11.11-.275.275-.44.385-.99.77-2.035 1.43-3.245 1.815.44-.385.935-.66 1.43-1.045.495-.33.99-.715 1.43-1.1l.33-.33c-.385-.275-.77-.55-1.155-.88-1.43 1.32-2.695 2.035-2.53 3.74.55.22 1.705.495 3.135-.11.88-.385 1.76-.99 2.42-1.705Zm3.3 2.86c-.495.385-.99.66-1.485.88-1.485.715-2.75.495-3.3.33-.11-1.595.935-2.42 2.31-3.63.495.22.99.44 1.54.605l-.22.22c-.495.44-.99.88-1.54 1.265-.495.385-1.045.77-1.54 1.155 1.265-.44 2.365-1.21 3.41-2.035.165-.11.275-.275.44-.385.44.165.935.275 1.375.385-.33.385-.715.77-.99 1.21Zm2.035.825c.44-.385.88-.825 1.32-1.265.055-.055.165-.165.22-.275l-.11-.055c-.495-.11-1.045-.22-1.54-.33-1.1 1.155-1.98 1.98-1.705 3.465.55.165 1.705.33 3.08-.44.88-.495 1.76-1.265 2.42-2.09-.385-.11-.825-.275-1.32-.385l-.275-.055c-.11.165-.275.275-.385.44-.88.88-1.87 1.65-3.025 2.09.44-.33.88-.715 1.32-1.1Zm-20.075-4.84c-.935.275-1.87.55-2.805.935 1.98-.275 3.85-.77 5.775-1.375.88-.275 1.705-.605 2.53-.935-.055.33-.11.715-.055 1.155l.055.33c-.055 0-.055.055-.11.055a21.81 21.81 0 0 1-4.84 1.32c-2.255.33-3.74 0-4.4-.275.88-1.815 3.575-2.585 6.82-3.74.605-.22 1.155-.44 1.76-.66.495.055 1.045.11 1.705 0 .11 0 .22-.055.275-.055-.385.33-.715.605-.935.99l-.33.165c-.88.44-1.815.77-2.75 1.1-.825.385-1.76.66-2.695.99ZM70.785 53.02c3.245 1.595 7.04 3.575 11.495 5.5.055 0 .11.055.165.055-.935.055-1.76.22-2.53.55-.22.11-.495.22-.715.33.055.11.055.165.11.275a77.175 77.175 0 0 1-7.04-3.63c-2.42-1.375-4.73-2.805-7.04-4.29 4.235 3.575 9.075 6.38 14.08 8.8.22.11.495.22.715.33.275.385.66.825 1.21 1.43.99.99 2.53 2.255 4.73 3.465-.715-.22-1.43-.495-2.145-.77-4.18-1.54-8.965-3.96-12.595-6.49-5.335-3.63-7.645-7.04-8.47-8.525 2.2.22 4.84 1.43 8.03 2.97ZM63.91 60.5l-.825.22.495.715c.055.055.66.935 2.145 2.31 1.54 1.375 3.96 3.245 7.7 5.335 1.375.77 2.915 1.54 4.51 2.255-3.685-1.1-6.49-1.65-8.58-.825l-.66.275.44.55c.055.055.55.715 1.815 1.76s3.3 2.475 6.325 3.905c1.815.88 3.85 1.76 5.885 2.475-4.18-.99-7.26-1.595-9.35-.605l-.55.275.385.44c.055.055.495.605 1.65 1.43 1.155.825 2.97 1.87 5.72 2.97 1.87.715 4.07 1.43 6.16 1.98-4.62-.385-8.03-.55-10.01.825l-.55.33.44.385c.055.055.605.495 1.87 1.155 1.265.605 3.245 1.43 6.05 2.035 2.585.55 5.665.99 8.415 1.1-4.565.33-7.92.55-9.57 2.42l-.385.44.44.33c.055.055.55.385 1.65.825 1.1.44 2.805.88 5.17 1.1 1.21.11 2.53.11 3.85.11l-1.155.165c-1.815.275-3.19.715-4.125 1.705l-.385.385c.11.11.22.22.385.33.055 0 .495.385 1.485.825.99.385 2.585.88 4.84.99.99.055 2.035.055 3.135 0-1.155.44-1.98 1.045-2.475 1.98l-.22.44.33.22c.055 0 .44.33 1.32.605.825.275 2.145.55 3.96.495.88-.055 1.815-.11 2.695-.275-1.375.66-2.31 1.43-2.695 2.585l-.165.44.385.22c.055 0 .495.22 1.375.385s2.2.22 3.905-.055c1.1-.165 2.31-.495 3.465-.825h.11c-1.485.715-2.53 1.43-2.86 2.805l-.11.44c.11.055.22.165.33.22.055 0 .385.275 1.155.44.77.165 1.925.33 3.41 0 .99-.165 2.035-.55 3.025-.99-.88.88-1.375 1.76-1.32 2.86v.44l.33.11c.055 0 .44.11 1.21.11s1.815-.22 3.135-.77c.825-.385 1.705-.825 2.475-1.375-.44.715-.605 1.43-.495 2.255l.055.44.33.11c.055 0 .44.11 1.155.055.715-.055 1.65-.275 2.805-.88.88-.44 1.76-1.045 2.585-1.705-.055.385 0 .715.11 1.1l.11.385.33.055c.055 0 .385.055 1.045-.11.605-.165 1.485-.44 2.42-1.155 1.21-.88 2.53-2.2 3.245-3.3.055-.055.055-.11.11-.22l.77-.605c2.805-2.2 4.62-3.685 3.63-6.49-.55-1.54-2.145-1.43-4.18-1.265-3.19.22-7.975.605-13.42-4.235-6.93-6.105-6.985-15.18-4.51-21.835 0-.055.055-.11.055-.22.275-.715.605-1.43.99-2.2.495-.935.99-1.815 1.595-2.585 3.63-5.005 6.93-10.23 6.27-14.96-.33-2.42-1.705-4.51-4.07-6.16-1.76-1.265-3.85-1.815-6.05-2.42-1.485-.385-3.025-.825-4.51-1.485-5.94-2.64-14.575-7.15-14.63-7.205l-.66-.33v.495c-2.915-1.65-5.445-3.135-7.7-4.345-2.86-1.54-5.225-2.53-7.315-2.585-3.685-2.695-6.82-5.225-9.46-7.37-3.63-2.97-6.435-5.115-8.965-5.94l-.99-.33c.055.33.11.715.165 1.1.055.11.275 1.43 1.54 3.905 1.265 2.42 3.575 6.05 7.755 10.12.88.88 1.87 1.76 2.86 2.64-1.595-1.155-3.08-2.2-4.4-3.19-3.795-2.695-6.71-4.62-9.295-5.225l-.99-.22c.055.33.165.715.275 1.045.055.11.385 1.375 1.815 3.685s3.85 5.665 8.14 9.46a77.526 77.526 0 0 0 6.82 5.39c-2.695-1.54-5.06-3.025-7.205-4.18-3.52-1.98-6.27-3.245-8.69-3.3h-.935c.055.275.22.605.33.935.055.055.44 1.21 1.815 3.135 1.375 1.925 3.74 4.675 7.645 7.645 2.475 1.925 5.445 3.85 8.36 5.5.99.55 1.925 1.045 2.86 1.54-4.18-1.87-7.7-3.74-10.615-5.17-3.355-1.595-5.995-2.585-8.25-2.475-.275 0-.605.055-.88.055.055.275.165.55.275.88.055.055.44 1.155 1.76 2.915s3.63 4.235 7.48 6.875c2.09 1.43 4.51 2.805 6.93 4.015-1.98-.77-3.74-1.485-5.39-2.035-3.52-1.43-6.27-1.98-8.415-1.43Zm50.16 23.705c.055.44.165.88.22 1.21.055.385.11.66.22.935.11.495.22.825.22.825s-.11-.275-.33-.77c-.11-.275-.22-.55-.33-.935-.11-.385-.275-.77-.33-1.21-.22-.88-.385-1.98-.385-3.135 0-1.155.055-2.42.275-3.685.275-1.21.605-2.42 1.045-3.52.44-1.1.935-2.035 1.375-2.805.22-.385.44-.77.66-1.045.22-.33.385-.55.55-.77l.495-.66s-.165.275-.385.715c-.11.22-.275.495-.44.825-.165.33-.385.715-.55 1.1-.44.825-.77 1.815-1.21 2.86a22.173 22.173 0 0 0-.935 3.41c-.275 1.21-.33 2.365-.385 3.52 0 1.155.055 2.2.22 3.135Z" fill="#9C9C9C"/></svg>