<svg width="220" height="220" fill="none" xmlns="http://www.w3.org/2000/svg"><path fill-rule="evenodd" clip-rule="evenodd" d="m85.69 92.62 9.295 9.02 11.44-6.105-5.72 11.66 9.35 9.02-12.815-1.87-5.665 11.715-2.255-12.815-12.87-1.76 11.495-6.105-2.255-12.76ZM67.32 74.47l2.915 8.855 9.35-.055-7.535 5.5 2.915 8.855-7.535-5.445-7.535 5.555 2.86-8.91-7.59-5.39 9.35-.055 2.805-8.91Z" fill="#9C9C9C"/><path fill-rule="evenodd" clip-rule="evenodd" d="m38.225 108.735 1.265 84.04c0 .66.275 1.21.77 1.65.495.44 1.1.55 1.76.495l137.885-21.835c1.045-.165 1.815-1.1 1.815-2.145l-.055-43.45c0-.715-.275-1.265-.825-1.705-.55-.44-1.155-.605-1.87-.44C131.285 135.52 92.4 135.85 41.525 106.81a2.24 2.24 0 0 0-2.2 0c-.715.385-1.1 1.1-1.1 1.925Z" fill="#9C9C9C"/><path fill-rule="evenodd" clip-rule="evenodd" d="M124.3 160.545c-12.43 2.53-25.74 1.1-37.62-3.96-11.825-5.06-22.165-13.75-29.15-24.75-7.04-10.89-10.67-24.035-10.34-37.07.275-13.035 4.675-25.96 12.21-36.63 7.59-10.615 18.37-18.975 30.635-23.54 12.21-4.51 25.795-5.445 38.445-2.31 3.135.77 6.27 1.76 9.24 2.97 2.97 1.265 5.885 2.64 8.69 4.29 2.75 1.705 5.39 3.52 7.92 5.555a73.05 73.05 0 0 1 7.04 6.655c8.635 9.57 14.355 21.67 16.005 34.265a67.452 67.452 0 0 0-6.325-17.82c-1.485-2.75-3.135-5.445-5.005-7.975a68.677 68.677 0 0 0-6.105-7.15c-8.745-8.965-20.075-15.235-32.175-17.875-12.1-2.64-24.97-1.705-36.465 2.805-11.55 4.4-21.67 12.265-28.765 22.33C55.33 70.345 51.205 82.5 50.82 94.82c-.495 12.32 2.805 24.805 9.24 35.365 6.435 10.56 16.06 19.305 27.39 24.585 2.805 1.375 5.775 2.475 8.745 3.41 2.97.935 6.05 1.595 9.185 2.09 6.27 1.045 12.65 1.1 18.92.275Z" fill="#9C9C9C"/><path fill-rule="evenodd" clip-rule="evenodd" d="M63.8 67.65C68.915 57.695 77.22 49.39 87.175 44c9.955-5.335 21.615-7.645 33-6.435 11.33 1.155 22.275 5.885 31.075 13.255 8.8 7.37 15.29 17.435 18.425 28.49 3.135 11.055 2.915 23.045-.66 33.935s-10.45 20.68-19.525 27.665c-2.255 1.705-4.62 3.3-7.15 4.73a55.108 55.108 0 0 1-7.755 3.575c-2.695.99-5.39 1.76-8.195 2.42-2.75.605-5.61.99-8.415 1.155-11.275.66-22.715-2.035-32.285-7.81 4.95 2.53 10.23 4.4 15.675 5.445 2.695.495 5.445.88 8.25.99 2.75.11 5.5.055 8.25-.275 10.945-1.045 21.45-5.445 29.92-12.265 8.47-6.875 14.85-16.225 18.095-26.565 3.3-10.34 3.465-21.615.495-32.01-2.915-10.45-9.02-19.965-17.215-27.005-8.195-7.095-18.535-11.66-29.37-13.09-10.78-1.375-22.055.44-31.955 5.28a61.739 61.739 0 0 0-7.15 4.125c-2.31 1.54-4.455 3.3-6.49 5.17A58.955 58.955 0 0 0 63.8 67.65Z" fill="#9C9C9C"/><path fill-rule="evenodd" clip-rule="evenodd" d="M58.63 186.67v-3.08c.495-.055.825-.165.935-.33.165-.165.22-.385.22-.77v-4.785l-2.86 9.185-3.19.44-2.915-7.92v4.4c0 .165 0 .33.055.44.055.11.11.165.165.22.11.055.22.055.385.055s.385 0 .605-.055v3.08l-5.39.77v-2.97c.495-.055.825-.165 1.045-.33.22-.165.33-.44.33-.77v-4.18c0-.385-.11-.605-.33-.715-.22-.11-.55-.11-1.045-.055v-3.08l7.92-1.155 1.925 5.445 1.65-5.995 7.81-1.155v3.08c-.495.055-.825.165-1.045.33-.22.165-.33.44-.33.77v4.235c0 .385.11.605.33.715.22.11.55.11 1.045.055v3.08l-7.315 1.045ZM74.415 181.28c.22-.055.44-.055.55-.165.165-.055.275-.165.385-.275.11-.11.165-.275.165-.495.055-.165.055-.44.055-.715l2.915-.44v4.51l-11.825 1.705v-3.08c.495-.055.825-.165 1.045-.33.22-.165.33-.44.33-.77V177.1c0-.385-.11-.605-.33-.715-.22-.11-.55-.11-1.045-.055v-3.08l11.825-1.705v4.51l-2.915.44c0-.275 0-.55-.055-.715-.055-.165-.11-.33-.165-.385a.5.5 0 0 0-.385-.165h-.55l-1.485.22v2.2l2.64-.385v1.485l-2.64.385v2.42l1.485-.275ZM89.54 182.215l-.275-.77c-.33.385-.825.715-1.43 1.045-.605.33-1.32.55-2.09.66-.88.11-1.76.11-2.53 0a4.647 4.647 0 0 1-2.09-.825c-.605-.44-1.045-1.045-1.43-1.815-.33-.77-.495-1.705-.495-2.86 0-1.155.165-2.145.55-3.025.385-.88.825-1.595 1.43-2.2.605-.605 1.265-1.1 2.035-1.43.77-.33 1.54-.605 2.31-.715.44-.055.88-.11 1.265-.055.385 0 .715.055.99.11s.495.165.715.22c.22.11.33.165.495.22v-.66l2.75-.385v4.51l-2.915.44c0-.605-.22-1.045-.55-1.375-.33-.33-.77-.44-1.375-.33-.275.055-.605.11-.825.275a1.896 1.896 0 0 0-.66.66c-.22.275-.385.715-.495 1.155-.11.495-.165 1.045-.165 1.76a13 13 0 0 0 .11 1.65c.055.44.22.77.33 1.045.165.275.385.44.605.495.22.11.55.11.88.055.055 0 .165-.055.275-.055.11-.055.22-.055.33-.165.11-.055.22-.11.275-.22a.42.42 0 0 0 .11-.275v-.44c0-.275-.11-.44-.275-.55-.165-.11-.495-.11-.99-.055v-2.75l7.04-.99v2.75c-.495.055-.825.165-1.045.33-.22.165-.33.44-.33.77v3.41l-2.53.385ZM100.76 176.33l-2.64.385-.11.385c-.11.275-.055.44 0 .605.11.165.33.165.66.165l.495-.055v3.08l-5.17.77v-3.08l.33-.055c.385-.055.66-.165.825-.33.11-.165.275-.44.385-.77l1.705-4.455c.11-.33.165-.605.055-.715-.055-.165-.33-.165-.715-.11h-.165v-3.08l8.525-1.21v3.08h-.165c-.385.055-.66.165-.715.33-.055.165-.055.385.055.715l1.705 3.96c.055.165.11.275.165.385.055.11.11.22.22.275.055.055.165.11.33.11h.495l.33-.055v3.08l-7.535 1.1v-3.19l.44-.055c.33-.055.55-.165.66-.33.11-.165.11-.385 0-.605l-.165-.33Zm-2.2-.99 1.76-.275-.825-2.42h-.055l-.88 2.695ZM124.245 169.4l-2.75.385a3.18 3.18 0 0 0-.275-.77 2.607 2.607 0 0 0-.55-.55c-.22-.165-.495-.22-.715-.33a2.083 2.083 0 0 0-.825 0c-.33.055-.66.165-.825.33-.22.165-.33.385-.33.605 0 .22.11.385.275.495.22.11.44.22.77.275.33.055.66.11 1.1.165.385.055.825.11 1.21.165.44.055.825.165 1.21.33s.77.33 1.1.605c.33.275.55.605.77.99.22.44.275.935.275 1.54 0 .66-.165 1.265-.44 1.76a4.35 4.35 0 0 1-1.155 1.32c-.495.385-1.045.66-1.65.88-.605.22-1.265.385-1.925.495a7.17 7.17 0 0 1-1.87.055 5.595 5.595 0 0 1-1.815-.495v.715l-2.75.385v-4.51l2.75-.385c.165.605.495 1.1.99 1.375.495.33 1.045.44 1.65.33.385-.055.715-.165.935-.385a.67.67 0 0 0 .275-.55c0-.33-.165-.495-.495-.66-.33-.11-.715-.22-1.21-.275-.495-.055-1.045-.11-1.595-.22a3.875 3.875 0 0 1-1.595-.495c-.495-.22-.88-.605-1.21-1.045-.33-.44-.495-1.1-.495-1.925 0-.605.11-1.155.385-1.65a4.817 4.817 0 0 1 1.045-1.32c.44-.385.935-.715 1.54-.935a4.935 4.935 0 0 1 1.815-.495c.88-.11 1.65-.11 2.255 0 .66.11 1.1.275 1.485.44v-.77l2.75-.385v4.51h-.11ZM134.53 170.225l-2.86.44v1.54c0 .275.055.495.22.605.165.11.44.11.88.055v3.08l-7.37 1.045v-3.08c.495-.055.825-.165 1.045-.33.22-.165.33-.44.33-.77v-4.18c0-.385-.11-.605-.33-.715-.22-.11-.55-.11-1.045-.055v-3.08l7.37-1.045v3.08c-.44.055-.715.165-.88.33-.165.165-.22.385-.22.66v1.32l2.86-.44v-1.32c0-.275-.055-.495-.22-.605-.165-.11-.44-.11-.88-.055v-3.08l7.37-1.045v3.08c-.495.055-.825.165-1.045.33-.22.165-.33.44-.33.77v4.18c0 .385.11.605.33.715.22.11.55.11 1.045.055v3.08l-7.37 1.045v-3.08c.44-.055.715-.165.88-.33.165-.165.22-.385.22-.66v-1.54ZM141.57 168.575c0-1.045.165-2.035.55-2.915.33-.88.825-1.595 1.485-2.255.66-.66 1.43-1.155 2.31-1.54.88-.385 1.87-.66 2.915-.825 1.045-.165 2.035-.165 2.915 0 .88.165 1.65.44 2.31.88.66.44 1.155 1.045 1.485 1.815.33.77.55 1.65.55 2.75 0 1.045-.165 2.035-.55 2.86-.33.88-.825 1.595-1.485 2.255-.66.66-1.43 1.155-2.31 1.54-.88.385-1.87.66-2.915.825-1.045.165-2.035.165-2.915 0-.88-.165-1.65-.44-2.31-.88-.66-.44-1.155-1.045-1.485-1.815-.385-.715-.55-1.65-.55-2.695Zm5.555-.825c0 .66 0 1.21.055 1.65.055.44.11.825.275 1.045.11.275.275.44.495.55.22.11.495.11.825.055.33-.055.605-.165.825-.275.22-.165.385-.385.495-.66.11-.275.22-.66.275-1.155.055-.44.055-1.045.055-1.705 0-.66 0-1.21-.055-1.65-.055-.44-.11-.825-.275-1.045a.984.984 0 0 0-.495-.55c-.22-.11-.495-.11-.825-.055-.33.055-.605.165-.825.33-.22.165-.385.385-.495.66-.11.275-.22.66-.275 1.155 0 .44-.055.99-.055 1.65ZM166.43 166.595l-1.595 4.675-3.685.55-3.19-7.755a2.681 2.681 0 0 0-.165-.385c-.055-.11-.11-.22-.22-.275a.795.795 0 0 0-.385-.11c-.165 0-.33 0-.605.055v-3.08l6.93-.99v3.08c-.275.055-.495.165-.605.33a.677.677 0 0 0-.055.66l1.21 3.85h.055l1.1-3.575-.165-.44c-.11-.33-.22-.55-.33-.66-.11-.11-.275-.165-.55-.165v-3.08l6.6-.935v3.08c-.44.055-.66.165-.77.33-.11.165-.11.385 0 .605l1.045 3.905h.055l1.265-4.235c.165-.605-.165-.825-.935-.715v-3.08l4.84-.715v3.08c-.22.055-.44.055-.605.165a.886.886 0 0 0-.385.22c-.11.11-.165.22-.22.33-.055.11-.11.275-.165.44l-3.025 8.635-3.685.55-1.76-4.345ZM51.37 148.39v23.65c-1.54.22-3.08.44-4.565.66v-53.24l4.95 2.64c.44 3.74.88 7.425 1.265 11 .44 3.575.88 7.095 1.32 10.615.44-3.3.825-6.545 1.265-9.79.44-3.19.88-6.325 1.32-9.46 1.65.77 3.355 1.485 5.005 2.145v43.89l-4.62.66v-21.89c-.495 3.025-.99 6.16-1.485 9.295-.495 3.19-.99 6.38-1.485 9.625-.495-3.19-.99-6.435-1.485-9.68-.495-3.355-.99-6.71-1.485-10.12ZM69.025 136.29c-.275-.055-.44.165-.44.66v24.64c0 .275.055.495.055.605.055.11.165.22.385.165.605-.055 1.21-.055 1.815-.11.22 0 .33-.11.385-.22.055-.11.055-.33.055-.605v-23.98c0-.495-.165-.77-.44-.825-.55-.055-1.155-.22-1.815-.33Zm7.095 26.895c0 .715-.055 1.375-.165 2.035-.11.66-.33 1.21-.55 1.76a4.817 4.817 0 0 1-1.045 1.32c-.44.385-.99.605-1.65.66-1.815.275-3.63.55-5.445.77-.66.11-1.21 0-1.65-.275-.44-.275-.77-.66-1.045-1.155-.275-.495-.44-1.155-.55-1.87a15.213 15.213 0 0 1-.165-2.31v-31.24c0-1.705.22-2.97.77-3.795.495-.825 1.32-.99 2.42-.605 1.925.66 3.905 1.265 5.885 1.87 1.1.33 1.925 1.045 2.42 2.09.495.99.77 2.255.77 3.685v27.06ZM88.55 134.145v6.05c-1.045-.165-2.09-.275-3.135-.385v27.28c-1.595.22-3.19.44-4.785.715v-28.82c-1.045-.165-2.09-.385-3.135-.55v-6.82c3.63.99 7.315 1.815 11.055 2.53ZM95.04 140.58c-.275 0-.44.165-.44.55v18.7c0 .22.055.385.055.495.055.11.165.165.385.11l1.815-.165c.22 0 .33-.055.385-.165.055-.11.055-.275.055-.495v-18.26c0-.385-.165-.605-.44-.605l-1.815-.165Zm7.04 20.075c0 .55-.055 1.1-.165 1.595-.11.495-.275.935-.55 1.375-.275.385-.605.77-1.045 1.045-.44.275-.99.495-1.65.55-1.815.275-3.63.55-5.5.77-.66.11-1.21.055-1.595-.11-.44-.165-.77-.495-1.045-.825-.275-.385-.44-.825-.55-1.375a8.54 8.54 0 0 1-.165-1.705v-23.32c0-1.265.22-2.255.77-2.915.495-.66 1.32-.88 2.42-.715 1.925.275 3.905.55 5.885.825 1.1.165 1.925.55 2.42 1.265.495.715.77 1.65.77 2.75v20.79ZM108.735 141.405v9.35c.77-.055 1.54-.11 2.31-.11.275 0 .44-.22.44-.55v-8.03c0-.385-.165-.55-.44-.55-.77-.055-1.54-.055-2.31-.11Zm7.425 10.835c0 .55-.165 1.1-.55 1.595-.385.495-.88.77-1.595.825.385 1.375.825 2.695 1.21 4.015.385 1.32.825 2.64 1.265 3.96-1.65.22-3.245.495-4.895.715-.385-1.375-.77-2.695-1.155-4.07-.385-1.375-.77-2.75-1.155-4.18-.22 0-.44.055-.605.055v8.58c-1.595.22-3.135.44-4.73.66v-28.16c2.97.275 5.995.44 8.965.605 1.1.055 1.925.385 2.42 1.045.495.605.77 1.43.77 2.475v5.94c.055 1.98.055 3.96.055 5.94ZM121.825 161.865c-1.375.22-2.31.055-2.86-.495-.55-.55-.825-1.485-.825-2.915v-18.37c0-.99.275-1.76.825-2.31a2.7 2.7 0 0 1 1.98-.825c2.31 0 4.675 0 7.04-.11v4.455c-1.485.055-3.025.165-4.51.22-.275 0-.44.165-.44.495v14.52c0 .33.11.44.44.44 1.485-.165 3.025-.385 4.51-.55v4.455c-2.09.385-4.125.66-6.16.99ZM138.435 159.445c-1.65.22-3.3.495-5.005.715v-5.94c-.77-2.86-1.54-5.665-2.255-8.58-.77-2.915-1.485-5.83-2.255-8.745 1.65-.055 3.245-.11 4.895-.22.33 1.815.715 3.63 1.045 5.445.33 1.815.715 3.575 1.045 5.39.33-1.87.715-3.74 1.045-5.61.33-1.87.715-3.685 1.1-5.555 1.65-.11 3.245-.275 4.895-.385-.77 2.915-1.54 5.83-2.255 8.745-.77 2.915-1.485 5.885-2.255 8.855v5.885ZM147.95 158.07c-1.375.22-2.31.055-2.86-.385-.55-.44-.825-1.32-.825-2.585v-16.5c0-.88.275-1.595.825-2.145.55-.55 1.21-.88 1.98-.935 2.31-.275 4.675-.55 7.04-.935v4.235c-1.485.22-3.025.44-4.51.66-.275.055-.44.22-.44.495v13.31c0 .275.11.44.44.385 1.485-.22 3.025-.44 4.51-.66v4.18c-2.09.275-4.125.605-6.16.88ZM155.705 134.365c1.595-.22 3.245-.495 4.84-.77v18.48c1.595-.22 3.19-.495 4.73-.715v4.235c-3.19.44-6.38.935-9.57 1.375v-22.605ZM166.76 132.44c3.3-.66 6.655-1.375 10.01-2.145v4.4c-1.705.33-3.41.715-5.17 1.045v5.5c1.265-.22 2.585-.495 3.905-.715v4.07c-1.32.22-2.585.44-3.905.66v5.06c1.65-.275 3.3-.55 4.95-.77v4.4c-3.245.495-6.545.935-9.79 1.43V132.44ZM82.39 96.8c-.495.44-.935.88-1.265 1.43l-.99 1.705 1.76.825c.605.275 1.375.44 1.98.55.99.165 1.98.22 3.025.22l-.88 1.43 1.155.66c.165.11.275.165.44.22.495.275 1.32.495 1.87.605 1.485.275 2.97.275 4.455.11l-.44 1.485 1.375.66c.495.22 1.155.33 1.705.385.99.11 2.035.055 3.025-.11 0 .11-.055.275-.055.385l-.22 1.595 1.485.44c.495.165 1.155.165 1.705.165.22 0 .385 0 .605-.055.055.22.11.385.11.605.055.33.165.66.22.99.33 1.265.66 2.475.99 3.685v.055c.11.33.22.715.33 1.045 0 .055 0 .055.055.11l.33.99v.055c1.1 3.41 3.41 9.35 5.83 12.155l.22.22.275.11c.055 0 .055 0 .11.055.055 0 .055.055.11.055.11.055.22.055.33.11.055 0 .11.055.22.055.275.11.55.165.825.275a87.252 87.252 0 0 0 13.42 3.41h.11c3.905.715 7.865 1.155 11.77 1.21.55 0 1.1 0 1.595-.055 3.245-.33 5.61-1.87 6.875-4.675 6.765.715 14.3.55 20.735-1.705 3.465-1.21 6.545-3.135 8.14-6.545 1.815-3.74 1.43-8.305.77-12.21-.825-5.115-2.145-10.175-3.025-15.345-.99-5.94 5.775-8.03 5.17-11.715-.825-5.005-3.465-10.01-6.71-13.915-4.015-4.84-9.24-8.305-15.18-10.285.66-3.08 1.045-6.435.165-9.405-.66-2.255-1.925-4.18-3.905-5.445-1.43-.935-2.915-1.155-4.565-1.43-.88-.11-1.815-.22-2.695-.55-3.3-1.155-6.6-2.53-9.79-3.96l-2.75-1.21.055.275c-.99-.495-1.98-.99-2.97-1.43-1.485-.715-3.355-1.43-5.06-1.32a168.656 168.656 0 0 1-6.325-4.62c-1.815-1.375-4.565-3.575-6.82-4.015l-2.695-.605.495 2.035c.055.33.22.66.275.99v.055c.44 1.155.99 2.255 1.595 3.3.55.88 1.1 1.76 1.76 2.64a6.86 6.86 0 0 0-1.705-.385L109.45 33l.605 1.87c.11.33.22.605.33.935v.11c.495 1.1 1.045 2.09 1.76 3.135 1.045 1.595 2.31 3.08 3.63 4.455a5.197 5.197 0 0 0-2.255 0l-2.09.44.55 1.43c.11.275.22.55.385.825v.055c.44.935 1.045 1.815 1.705 2.64 1.1 1.375 2.31 2.695 3.63 3.85a4.81 4.81 0 0 0-1.98.275c-.165.055-.385.11-.55.22l-.66.275c-1.1-2.145-2.915-3.63-5.115-4.62-2.035-.935-4.18-1.045-6.38-1.21-1.375-.11-2.805-.165-4.18-.495-4.84-1.045-9.79-2.42-14.575-3.795l-2.805-.825.055.385c-1.87-.605-3.74-1.265-5.665-1.815-2.255-.66-4.95-1.375-7.37-1.1a153.768 153.768 0 0 1-9.515-4.785c-2.805-1.485-6.6-3.52-9.735-3.905l-3.025-.385.605 1.925c.11.385.275.715.44 1.045l.055.055v.055c.605 1.265 1.375 2.365 2.255 3.465.88 1.1 1.87 2.145 2.915 3.08-1.32-.385-2.64-.66-3.85-.715l-2.97-.11.77 1.87.495.99.055.055v.055a20.24 20.24 0 0 0 2.475 3.245 34.293 34.293 0 0 0 5.445 4.73c-1.43-.275-2.915-.33-4.18-.11l-2.585.495.77 1.595c.165.275.33.605.495.88l.055.055c.66.99 1.54 1.925 2.42 2.75 1.595 1.485 3.465 2.805 5.335 3.96-1.21-.11-2.42-.055-3.52.275-.275.055-.55.165-.825.22l-1.485.44.66 1.375c.165.275.33.55.495.88l.055.055v.055c.66.935 1.485 1.815 2.365 2.53 1.705 1.485 3.685 2.75 5.72 3.795-1.21.11-2.365.33-3.355.825l-2.475 1.155 1.98 1.87c.715.715 1.76 1.375 2.64 1.87 1.76 1.045 3.685 1.87 5.61 2.585-.385.165-.77.33-1.1.55l-2.035 1.32 1.76 1.595c.605.55 1.54 1.1 2.255 1.43 1.43.77 3.025 1.375 4.62 1.87-.385.165-.715.385-1.045.605l-1.87 1.375 1.815 1.375c.55.44 1.43.88 2.09 1.155 1.375.605 2.86 1.045 4.345 1.375-.77.33-1.485.77-1.98 1.32l-1.65 1.65 2.035 1.1c.66.33 1.485.605 2.2.77 1.815.77 3.905.99 5.885 1.045Zm33-39.985c.33.495.66.935.99 1.375 1.155 1.43 2.53 2.695 4.015 3.795-.715.11-1.485.33-2.09.715l-1.65 1.1.825 1.1a33.732 33.732 0 0 0-3.74 3.08c-.22.22-.495.44-.715.715l-.605.605c1.54-3.74 3.355-8.36 2.97-12.485Z" fill="#fff"/><path fill-rule="evenodd" clip-rule="evenodd" d="M130.02 50.765c.825.385 1.65.715 2.365.99.11.055.22.055.33.11-.495-.275-.99-.55-1.43-.825a19.8 19.8 0 0 1-5.005-4.345c0-.055-.055-.055-.055-.055-.055 0-.11-.055-.11-.055-.99-.605-2.035-1.21-3.025-1.87-.99-.66-1.98-1.375-2.97-2.09a47.624 47.624 0 0 1-5.555-5.06c1.87 1.595 3.795 3.135 5.72 4.51.99.66 1.925 1.375 2.97 2.035.715.44 1.375.88 2.09 1.265-.275-.44-.385-.66-.385-.715-.11-.22-.22-.44-.275-.66.165-.11.33-.165.495-.22.22-.11.44-.165.66-.22-2.585-1.485-4.95-3.08-6.93-4.4-2.585-1.705-4.675-3.08-6.27-3.52.385.77 1.1 1.98 2.31 3.52 1.155 1.485 2.805 3.3 5.005 5.17 2.915 2.53 6.765 4.95 10.065 6.435Zm-22 34.65c-.165-.33-.385-.66-.55-1.045-.385-.77-.715-1.705-.99-2.805-.22-1.045-.385-2.2-.44-3.41 0-1.155.11-2.31.275-3.41.22-1.045.495-2.035.77-2.86.11-.385.275-.77.385-1.1.11-.33.22-.605.33-.825.22-.44.33-.715.33-.715s-.11.275-.22.77c-.055.22-.165.495-.275.88-.11.33-.22.715-.275 1.1-.22.825-.385 1.76-.55 2.805-.165 1.045-.22 2.145-.22 3.3 0 1.1.11 2.255.33 3.245.22 1.045.44 1.98.77 2.75.11.385.275.77.44 1.1.11.33.275.605.385.825.22.44.33.715.33.715s-.165-.22-.44-.66c-.055-.11-.22-.33-.385-.66Zm-33.055-27.72c1.21.33 2.42.715 3.52.935.165.055.33.055.495.11-.715-.275-1.43-.495-2.09-.825-3.575-1.485-5.885-3.135-7.315-4.345l-.11-.11c-.055 0-.11-.055-.165-.055-1.485-.605-2.97-1.21-4.4-1.87a77.765 77.765 0 0 1-4.29-2.09c-2.805-1.54-5.555-3.19-8.14-5.115 2.75 1.595 5.5 3.135 8.36 4.565 1.43.66 2.86 1.375 4.345 1.98.99.44 2.035.88 3.08 1.265a5.634 5.634 0 0 1-.55-.715c-.11-.22-.275-.44-.385-.66.22-.11.495-.165.715-.275.33-.11.66-.22.99-.275-3.85-1.485-7.26-3.025-10.23-4.345-3.795-1.705-6.82-3.08-9.295-3.465.55.825 1.595 2.035 3.245 3.63 1.705 1.54 4.015 3.355 7.26 5.225 4.4 2.585 10.065 5.005 14.96 6.435Zm32.56-5.5a2.681 2.681 0 0 1-.605-.22c-.22-.055-.44-.11-.715-.165-.99-.275-2.145-.44-3.41-.66a87.129 87.129 0 0 0-3.96-.44c-1.375-.165-2.695-.33-3.96-.55-1.265-.165-2.42-.55-3.41-.88-.495-.22-.935-.385-1.32-.605-.385-.22-.715-.385-.935-.605-.495-.385-.77-.605-.77-.605l.825.495c.275.165.605.275.99.495.385.165.825.275 1.32.44.99.275 2.145.495 3.41.66 1.265.165 2.585.33 3.96.44 1.375.165 2.695.33 3.96.55 1.265.22 2.42.495 3.41.825.22.055.495.165.715.22.22.11.44.165.605.275.385.165.715.33.99.495l.825.495s-.33-.165-.88-.385c-.33 0-.66-.11-1.045-.275Zm25.3 41.25c1.65-.165 3.135 1.32 3.3 3.355.22 2.035-.99 3.795-2.585 3.96h-.22c-.275.385-.605.715-.935 1.155l-.55.66c0 .055-.055.11-.055.22-.33.77-.825 1.705-1.485 2.585.33 0 .605.055.88.055 1.375.055 2.805.055 4.235.11 1.375 0 2.805 0 4.18-.055h1.43c-.11-.275-.165-.55-.275-.77-1.375-4.345-1.155-8.195.605-11.44 2.53-4.62 8.36-8.03 17.765-10.45 4.4-1.155 8.25-1.87 11.385-2.2 2.035-.22 3.575-.22 4.73-.11-1.265-4.235-4.125-9.57-9.13-13.75-.275-.22-.55-.495-.88-.715-3.74-3.025-8.195-5.06-12.925-6.105-4.73-.99-9.625-.99-14.41-.275-2.365.385-4.73.88-7.095 1.54-2.31.715-4.565 1.595-6.71 2.695-4.345 2.145-8.305 5.115-11.44 8.8a33.152 33.152 0 0 0-3.63 5.115c0 .495 0 .99.055 1.54 1.21-2.2 2.585-4.235 4.235-6.105 3.08-3.63 6.93-6.545 11.165-8.69a42.638 42.638 0 0 1 6.6-2.695c1.925-.605 3.85-1.045 5.83-1.43 1.375.275 2.75.605 4.07 1.1 6.875 2.365 12.43 8.03 14.685 14.74a26.954 26.954 0 0 0-2.585-4.62l-.825-1.045c-.11-.165-.275-.33-.385-.495l-.44-.495c-.275-.33-.605-.66-.88-.99l-.935-.88-.495-.44-.495-.385-1.045-.825c-.33-.275-.715-.495-1.1-.715-.385-.22-.715-.495-1.1-.715l-1.155-.605c-.22-.11-.385-.22-.605-.33L143 63.47l-1.21-.495c-.385-.165-.825-.275-1.21-.44-2.035-.66-4.18-1.1-6.325-1.265-13.475 5.06-20.845 15.07-22.495 27.115 1.32 2.035 3.135 3.905 5.61 5.28 5.885 3.355 10.175 2.145 12.98 1.32l.33-.11c.55-.825 1.265-1.32 2.145-1.43Zm-8.525 14.96c-.22.165-.385.33-.605.495-.935.77-1.76 1.155-2.42 1.32-.44.11-.77.165-.935.165 1.155.11 2.365.22 3.52.33 2.86.22 5.72.33 8.58.33 2.86 0 5.72-.055 8.58-.22.66 0 1.21-.055 1.65-.055a68.486 68.486 0 0 0-.495-1.705c-2.805.055-9.845.055-17.875-.66Zm-4.4 1.925-.11-.33c-.275-.715-.275-1.43 0-2.09-.605.605-1.32 1.21-1.98 1.65-.22.165-.44.275-.605.385.88.165 1.76.275 2.695.385Zm-6.435-.99c0-.11.055-.165.055-.275-.44-.055-.825-.165-1.265-.22l-.33.165c.55.11 1.045.22 1.54.33Zm.44-1.155c.055-.165.165-.33.275-.44-.11.055-.22.165-.33.22l.055.22Zm-6.49-.385-.33-.11.33.11Zm-1.485-.385c.44 2.09.935 4.18 1.54 6.27.66 2.31 1.375 4.565 2.255 6.82.44 1.1.935 2.2 1.485 3.3.55 1.045 1.1 2.145 1.815 3.08-1.43-1.925-2.53-4.125-3.465-6.325a70.818 70.818 0 0 1-2.475-6.765 79.133 79.133 0 0 1-1.595-6.215c.165-.055.33-.11.44-.165Zm-1.76.55c-.66.165-1.21.22-1.65.22-.825 0-1.265-.11-1.32-.11l-.385-.11.055-.44c.165-1.1.88-1.98 1.98-2.86-.825.33-1.65.55-2.42.77a12.09 12.09 0 0 1-3.685.33c-.825-.11-1.265-.275-1.265-.275l-.33-.165.11-.44c.275-.935.935-1.65 1.87-2.255-.99.275-1.925.44-2.86.55-2.09.275-3.575.165-4.565 0-.99-.165-1.485-.44-1.485-.44-.11-.055-.275-.11-.385-.22l.275-.385c.66-1.045 1.815-1.705 3.41-2.31.33-.11.66-.22 1.045-.33-1.21.275-2.42.495-3.52.605-2.2.275-3.85.165-4.895 0-1.1-.165-1.595-.44-1.65-.44l-.44-.22.275-.44c1.155-2.035 4.125-2.805 8.25-3.96-2.53.385-5.39.605-7.865.55-2.695-.055-4.62-.385-5.885-.715-1.265-.33-1.87-.66-1.87-.66l-.495-.275.385-.44c1.595-1.595 4.675-2.09 8.965-2.585-2.035-.11-4.125-.33-5.995-.66-2.695-.44-4.565-1.1-5.72-1.65-1.21-.55-1.76-.935-1.76-.99l-.44-.33.495-.33c1.705-1.265 4.62-1.32 8.58-1.155-1.98-.33-4.015-.715-5.83-1.155a33.524 33.524 0 0 1-6.49-2.365c-1.32-.715-1.925-1.21-1.98-1.265l-.495-.44.55-.385c1.705-1.155 4.4-1.155 7.975-.825-1.54-.385-3.08-.77-4.51-1.21-3.795-1.155-6.38-2.42-8.03-3.41-1.65-.99-2.365-1.65-2.42-1.705l-.605-.55.715-.33c1.87-.88 4.455-.88 7.755-.44 1.595.22 3.355.495 5.28.825-2.42-.66-4.895-1.43-7.04-2.365-3.96-1.65-6.545-3.465-8.085-4.84-1.54-1.375-2.09-2.255-2.145-2.31a5.021 5.021 0 0 1-.44-.715c.275-.055.55-.165.825-.22 2.035-.55 4.62-.165 7.975.66 2.915.77 6.49 1.815 10.615 2.695-.935-.275-1.925-.55-2.915-.88-2.97-.99-5.995-2.145-8.58-3.465-4.125-1.98-6.765-4.07-8.415-5.555-1.595-1.485-2.2-2.42-2.255-2.53-.165-.275-.33-.55-.44-.77l.88-.165c2.2-.44 4.95.22 8.525 1.375 2.145.715 4.565 1.54 7.315 2.475-2.53-1.1-5.005-2.31-7.205-3.63-4.62-2.64-7.425-5.28-9.13-7.095-1.705-1.87-2.255-2.97-2.31-3.025a6.566 6.566 0 0 1-.44-.88l.99.055c2.475.055 5.5 1.265 9.405 3.025 1.43.66 2.97 1.32 4.62 2.09-1.1-.605-2.09-1.21-3.08-1.87-4.62-3.08-7.37-5.885-8.965-7.865-1.595-1.98-2.09-3.19-2.145-3.245-.11-.33-.275-.66-.385-.935l.935.11c2.475.275 5.39 1.705 9.295 3.74 2.805 1.485 6.105 3.19 9.955 4.95 1.925-.385 4.235.11 7.15.99 2.255.66 4.84 1.595 7.81 2.53l-.11-.44.66.22c.11 0 8.745 2.53 14.63 3.795 1.485.33 2.915.44 4.345.495 2.09.165 4.125.275 5.94 1.1 2.475 1.1 4.07 2.75 4.84 4.84 1.485 4.18-.495 9.57-2.915 14.74-.385.825-.66 1.705-.935 2.64-.165.715-.33 1.485-.495 2.145 0 .055 0 .11-.055.165 0 .165-.055.385-.055.55.495-.715.99-1.375 1.485-2.035.99-1.21 2.035-2.42 3.19-3.575.22-.22.44-.44.715-.66a36.945 36.945 0 0 1 4.785-3.74c-.275-.275-.385-.44-.44-.495l-.385-.55.495-.33c.88-.55 2.035-.66 3.41-.55.44-.22.88-.495 1.32-.715l-.825-.495a22.328 22.328 0 0 1-5.555-4.785c-1.1-1.32-1.485-2.2-1.485-2.255-.11-.22-.22-.495-.33-.715.165-.055.385-.11.55-.165 1.375-.495 3.08 0 5.335.88 1.98.77 4.345 1.87 7.205 2.86-.66-.275-1.32-.605-1.98-.88-2.035-.99-4.07-2.2-5.83-3.52a28.203 28.203 0 0 1-5.775-5.445c-1.1-1.43-1.54-2.365-1.54-2.42-.11-.275-.22-.495-.33-.77l.55-.11c1.485-.33 3.3.33 5.72 1.54 1.43.715 3.135 1.595 4.95 2.53-1.705-1.1-3.41-2.31-4.895-3.63-3.135-2.64-5.115-5.17-6.325-6.93-1.21-1.815-1.595-2.86-1.65-2.915-.11-.275-.22-.605-.33-.88l.66.055c1.65.11 3.685 1.32 6.38 3.135.935.66 2.035 1.32 3.135 2.09-.715-.605-1.43-1.21-2.09-1.87-3.135-2.915-5.06-5.665-6.16-7.59-1.155-1.925-1.485-3.025-1.54-3.135a5.406 5.406 0 0 1-.275-.88l.66.165c1.65.33 3.685 1.76 6.325 3.795 1.925 1.485 4.18 3.19 6.82 4.95 1.265-.275 2.805.22 4.785 1.1 1.485.715 3.245 1.65 5.28 2.585l-.055-.44.44.22c.055.055 5.94 2.64 9.9 4.015.99.33 1.98.495 2.915.605 1.43.165 2.75.385 4.015 1.21 1.65 1.1 2.805 2.695 3.355 4.73.825 2.915.385 6.38-.495 9.955 13.75 3.96 20.735 15.4 22.11 23.485.44 2.695-6.27 5.17-5.17 11.715 2.695 15.895 8.47 27.83-5.06 32.615-6.875 2.42-14.905 2.255-21.12 1.54-.88 2.64-2.75 4.455-6.16 4.785-.44.055-.935.055-1.485.055-4.07-.055-8.03-.55-11.605-1.21h-.11c-5.995-1.1-10.89-2.585-13.255-3.41-.33-.11-.605-.22-.825-.275-.055 0-.165-.055-.22-.055-.165-.055-.22-.11-.275-.11-.055 0-.055 0-.11-.055-.055 0-.11-.055-.11-.055s-2.805-3.245-5.555-11.66v-.055l-.33-.99v-.11c-.11-.33-.22-.66-.33-1.045v-.055a113.26 113.26 0 0 1-.99-3.685c-.055-.33-.165-.66-.22-.99-.055-.22-.11-.385-.165-.605-.055-.22-.11-.495-.165-.715l.165-.22Zm26.29-9.46-.66-.165c-1.21-.22-2.42-.22-3.52.055.55.055 1.1.165 1.595.33h-1.815c-.385 0-.715.055-1.1.055-3.08-.055-5.665-.165-8.47-1.595.88.33 1.76.55 2.53.66.825.165 1.54.165 2.035.165.495 0 .77-.055.77-.055s-.275 0-.77-.11c-.495-.055-1.155-.22-1.98-.385-.825-.22-1.76-.55-2.695-.935-.935-.44-1.925-.99-2.86-1.65a16.14 16.14 0 0 1-2.53-2.2 21.568 21.568 0 0 1-1.87-2.31 15.935 15.935 0 0 1-1.1-1.815c-.275-.44-.385-.715-.385-.715s.11.275.275.77c.165.44.44 1.1.825 1.815-3.245-4.18-4.73-8.91-3.41-16.83v1.32c0 .495.055.935.11 1.21.055.275.055.44.055.44s0-.165.055-.44c0-.275.055-.715.11-1.21s.11-1.045.165-1.65c.055-.605.165-1.265.275-1.925.11-.605.22-1.155.33-1.705.33-.715.715-1.43 1.1-2.145 1.375-2.585 2.805-5.28 2.42-9.185.55.825 1.21 1.32 1.705 1.54.275.11.495.165.66.165h.22s-.11 0-.22-.055c-.165-.055-.33-.165-.605-.33-.495-.33-.99-1.045-1.375-1.925-.22-.44-.44-.99-.66-1.595-.275-.55-.605-1.21-1.155-1.705-.55-.55-1.265-.825-1.87-1.1-.605-.22-1.265-.495-1.925-.715-1.32-.385-2.64-.605-3.905-.825-.77-.11-1.54-.165-2.2-.22a15.87 15.87 0 0 1-1.595-.22c-2.31-.275-4.51-.55-5.555-.99-4.29-1.98-6.105-3.63-6.875-4.565 2.475.715 8.965 2.53 13.64 3.52 1.54.33 3.025.44 4.455.55 2.035.165 3.96.275 5.665 1.045 2.255.99 3.685 2.42 4.4 4.345.935 2.695.275 6.05-.99 9.515.11-.605.165-1.155.22-1.54v-.825s-.055.275-.165.77c-.11.495-.385 1.155-.66 1.925s-.715 1.65-1.1 2.64c-.385.99-.715 2.09-1.045 3.19a23.887 23.887 0 0 0-.605 3.355c-.055.165-.055.33-.055.495-.935 6.765.935 15.235 8.635 19.635 1.32.77 2.53 1.265 3.685 1.65.055 0 .055.055.11.055.66.275 1.375.495 2.09.66.715.165 1.485.275 2.145.385.715.11 1.32.11 1.87.11s.99-.055 1.32-.11c.33-.055.495-.055.495-.055s-.165 0-.495-.055c-.33 0-.77-.11-1.32-.165-.275-.055-.55-.055-.88-.11.22 0 .385-.055.605-.055h.55c.66 0 1.32-.11 1.98-.165l.935-.165c-.055.33-.055.715-.055 1.1.22.33.275.715.44 1.045Zm-70.29-43.67c3.19 1.045 6.985 2.42 11.22 3.685a7.23 7.23 0 0 0-2.255.715c-.22.11-.495.22-.66.385.055.11.11.22.22.275-2.2-.715-4.4-1.485-6.545-2.365-2.585-.99-5.06-2.145-7.59-3.19 4.73 2.86 9.9 4.95 15.125 6.655.33.33.77.66 1.32 1.1 1.32.99 3.41 2.2 6.435 3.245-.825-.165-1.705-.385-2.64-.605-4.29-1.045-9.295-2.805-13.255-4.785-5.775-2.86-8.58-5.665-9.68-6.985 2.09-.055 4.84.77 8.305 1.87Zm2.53 9.13c-3.245-.825-5.83-1.375-7.865-1.155 1.045 1.21 3.795 3.85 9.295 6.16 3.795 1.595 8.58 2.915 12.65 3.575.715.11 1.43.22 2.09.275-2.255-.715-3.85-1.54-4.95-2.31-.605-.385-1.045-.77-1.375-1.045-.22-.055-.495-.11-.715-.165-5.005-1.265-9.955-2.915-14.465-5.335 2.365.88 4.785 1.76 7.205 2.585 2.31.77 4.73 1.43 7.095 1.98-.055-.055-.11-.165-.165-.22.165-.165.385-.275.605-.44.66-.44 1.375-.77 2.2-.99-.055 0-.11 0-.165-.055-4.345-.88-8.195-1.98-11.44-2.86Zm3.74 8.745c-3.19-.44-5.775-.605-7.645-.055 1.21.88 4.125 2.75 9.46 4.4 3.685 1.1 8.195 2.09 12.1 2.475.99.055 1.925.165 2.75.165h.825c.55-.11 1.155-.275 1.815-.385h-1.98c-3.135-.11-5.335-.55-6.765-.935-1.43-.385-2.145-.77-2.2-.825l-.55-.33.495-.495c-4.51-.88-8.965-1.98-13.365-3.465 2.365.44 4.73 1.045 7.095 1.54 2.31.495 4.62.99 6.985 1.375.935-.66 2.09-1.1 3.575-1.43-.495-.055-.99-.11-1.43-.165-4.235-.605-7.975-1.43-11.165-1.87Zm-.99 7.81c1.045.66 3.41 2.035 7.7 3.135 2.97.77 6.545 1.375 9.625 1.595 1.87.165 3.52.165 4.675.055.605-.33 1.32-.55 2.145-.825.055-.055.11-.165.165-.275-.77.055-1.485.055-2.2.055-2.805 0-4.84-.385-6.16-.715-.385-.11-.715-.22-.99-.33-.495-.055-.99-.11-1.485-.22-3.795-.55-7.59-1.265-11.33-2.255 1.925.22 3.795.55 5.665.88 1.87.275 3.74.605 5.665.825l.385-.44c.33-.385.77-.77 1.21-1.045-6.765-.715-12.155-1.705-15.07-.44Zm5.555 6.655c.935.495 3.08 1.54 6.82 2.2a53.74 53.74 0 0 0 8.415.715c2.695 0 4.84-.33 5.445-.77.275-.165.495-.495.66-.825h-.165c-1.045.055-1.98.055-2.75 0-.55.055-1.1.11-1.65.11-1.65.055-3.355 0-5.005-.055-3.355-.22-6.655-.55-9.955-1.21 1.65.055 3.3.22 4.95.385l4.95.33c1.32.055 2.64.055 3.96 0-.715-.22-1.045-.385-1.1-.44l-.44-.22.275-.44a1.2 1.2 0 0 1 .22-.275c-.55 0-1.155 0-1.705-.055-5.775-.165-10.505-.66-12.925.55Zm4.51 6.435c.99.385 3.245 1.045 7.04 1.1 2.64.055 5.775-.22 8.415-.66 1.98-.33 3.685-.77 4.62-1.21-2.09.33-3.63.33-4.675.22-.66-.055-1.1-.165-1.32-.275-.77.11-1.485.165-2.255.275-3.3.33-6.655.495-9.955.385 1.65-.165 3.3-.275 4.95-.44 1.65-.11 3.3-.275 4.95-.495.55-.055 1.1-.165 1.65-.22l.165-.33c.275-.495.605-.935 1.1-1.32-.605.11-1.265.165-1.87.275-5.83.825-10.56 1.045-12.815 2.695ZM82.94 99c.88.275 2.805.66 5.94.275 2.145-.275 4.675-.825 6.765-1.54.275-.11.55-.22.825-.275-.715.11-1.375.11-1.87.11-.935 0-1.485-.165-1.485-.22l-.44-.165.055-.165c-.11 0-.165.055-.275.055-2.64.66-5.335 1.21-8.03 1.485 1.32-.385 2.64-.66 3.96-.99l3.96-.99c.22-.055.385-.11.605-.165.275-.715.715-1.32 1.375-1.925-.495.165-.935.275-1.43.44-4.675 1.43-8.415 2.2-9.955 4.07Zm5.72 3.19c.77.275 2.585.66 5.445.275 1.98-.275 4.345-.88 6.27-1.705.935-.385 1.705-.77 2.31-1.155-1.54.55-2.75.715-3.63.715-.55 0-.935-.055-1.155-.055l-.495.165c-2.42.715-4.895 1.265-7.425 1.485 1.21-.33 2.42-.605 3.63-.88s2.42-.66 3.63-1.045c.055 0 .055-.055.11-.055l.055-.275c.11-.495.33-.935.605-1.375-.11.055-.22.11-.385.11-4.07 1.485-7.48 2.145-8.965 3.795Zm7.095 2.75c.66.165 2.145.44 4.455-.165 1.54-.385 3.355-1.045 4.785-1.815.055 0 .11-.055.165-.055a8.07 8.07 0 0 1-2.09.275c-.77 0-1.21-.11-1.21-.165l-.11-.055c-1.595.66-3.245 1.21-4.95 1.54.88-.44 1.815-.77 2.75-1.1.66-.275 1.32-.55 1.925-.825v-.11c.055-.605.275-1.1.605-1.595-3.025 1.43-5.5 2.365-6.325 4.07Zm5.61 2.585c.66.055 2.2.11 4.345-.715.33-.11.715-.275 1.1-.44h-.22l-.385-.055-.055-.44v-.605c-1.265.66-2.53 1.265-3.905 1.705.825-.55 1.705-.99 2.585-1.485.495-.275.935-.55 1.43-.77.275-.935.99-1.76 1.98-2.695-.275.165-.605.385-.88.55-2.915 1.76-5.39 3.08-5.995 4.95Zm9.02-2.86c-1.76.99-3.135 1.1-3.74 1.1.165-1.815 2.09-3.3 4.455-5.28.165-.165.33-.33.55-.44.495 0 1.155-.11 1.925-.495-.055.165-.11.33-.11.495l-.055.055c-.605.66-1.265 1.21-1.925 1.76-.66.55-1.375 1.1-2.035 1.65-.66.55-1.375 1.045-2.035 1.65 1.54-.825 2.97-1.87 4.345-2.915.605-.44 1.155-.935 1.705-1.485.055.22.11.495.275.77l.165.385.22.055-.055.055c-1.1.99-2.475 1.98-3.685 2.64Zm-2.915 4.455c.385-1.76 2.365-2.75 4.62-4.51.44-.385.935-.77 1.375-1.155-.715.935-1.155 1.76-1.21 2.64-.605.44-1.265.88-1.925 1.265-.715.44-1.43.825-2.09 1.265 1.43-.495 2.75-1.21 4.015-2.035 0 .11 0 .22.055.275l.11.385h.33c.055 0 .33 0 .88-.11-.77.55-1.65 1.045-2.42 1.375-1.815.88-3.135.715-3.74.605Zm8.745-3.795c-1.54 1.155-2.86 1.43-3.465 1.485-.11-1.54 1.1-2.97 2.695-4.675.55-.055 1.265-.275 1.98-.77.055 0 .055-.055.11-.11 0 .165-.055.275-.055.44-.22.275-.44.55-.715.825-.55.605-1.155 1.21-1.76 1.815-.55.605-1.155 1.155-1.705 1.815 1.375-.99 2.585-2.145 3.795-3.3.165-.165.33-.33.44-.495.055.165.11.385.165.55l.165.385.33.055h.11c-.605.715-1.32 1.43-2.09 1.98Zm-2.255 5.17c-.165-1.54 1.1-2.97 2.695-4.675 0 0 .055 0 .055-.055.77-.605 1.595-1.32 2.31-2.09-.495.77-.825 1.54-.825 2.31-.11.165-.22.275-.385.44-.55.55-1.1 1.155-1.65 1.705-.55.55-1.1 1.1-1.65 1.705 1.32-.935 2.475-1.98 3.63-3.135l.11-.11c.055.165.055.275.11.44l.165.385h.33s.165 0 .44-.055a19.34 19.34 0 0 1-2.035 1.76c-1.485 1.1-2.75 1.32-3.3 1.375Zm7.92-5.115c-1.375 1.155-2.53 1.485-3.135 1.54-.22-1.21.385-2.365 1.375-3.685.44-.165.99-.385 1.54-.825.165-.11.33-.275.495-.44.055.165.055.33.11.495-.055.055-.11.165-.165.22-.495.605-.935 1.155-1.43 1.76-.495.605-.99 1.155-1.375 1.76 1.21-.99 2.2-2.09 3.19-3.245l.055-.055c0 .055.055.055.055.11l.22.33.33.055s.22.055.605.055c-.605.77-1.21 1.375-1.87 1.925Zm-1.705 4.565c-.275-1.1.275-2.145 1.1-3.3a7.51 7.51 0 0 0 1.155-.825c.825-.66 1.595-1.54 2.255-2.42.055 0 .055 0 .11-.055-.165.385-.33.77-.385 1.155-.33.495-.66.99-1.045 1.485-.44.55-.935 1.1-1.375 1.65-.44.55-.935 1.1-1.32 1.705 1.155-.935 2.145-1.98 3.08-3.08.22-.22.385-.495.55-.715 0 .385.11.77.33 1.1l.165.275c-.495.605-1.1 1.155-1.65 1.595-1.265 1.045-2.42 1.32-2.97 1.43Zm4.785-3.465c-.385-1.045 0-2.2.66-3.52.22-.11.44-.275.66-.495.165-.165.385-.33.55-.55 0 .22.055.495.165.77-.22.44-.495.88-.715 1.32-.33.605-.715 1.155-.99 1.815.715-.825 1.32-1.705 1.925-2.64l.11.22.33.11s.275.055.605.055c-.275.385-.495.715-.77 1.045-.99 1.21-2.035 1.705-2.53 1.87Zm1.375 1.265c-.165-.44-.165-.825-.11-1.32.495-.275 1.155-.77 1.815-1.54 0 0 0-.055.055-.055a3.7 3.7 0 0 1-.385.605c-.33.55-.715 1.1-.99 1.705.935-.99 1.65-2.035 2.365-3.19l.33-.495c.495-.11.99-.385 1.54-.77.11-.055.165-.165.275-.22-.44 1.1-1.375 2.585-2.31 3.63-1.045 1.1-2.09 1.485-2.585 1.65Zm4.73-6.82c.055.165.165.33.165.495-.275.275-.55.55-.88.825-1.21.88-2.31.88-2.805.825-.385-1.21.165-2.09.935-3.135.55.11.99.22 1.375.385-.275.385-.55.715-.825 1.045-.385.44-.77.825-1.1 1.265.935-.55 1.705-1.265 2.365-2.145.33.11.55.275.77.44ZM83.875 46.2c.605.825 1.87 1.98 4.345 3.41h-.055c-1.155-.33-2.365-.605-3.52-.935-2.31-.715-4.62-1.485-6.93-2.42-2.255-.88-4.51-1.87-6.71-2.805 4.18 2.585 8.8 4.4 13.475 5.94.935.33 1.815.55 2.75.825-.825.055-1.54.22-2.145.495l-.605.275.495.44c.055.055.33.275 1.045.715-3.025-.88-6.215-2.09-8.855-3.41-5.115-2.53-7.59-5.17-8.525-6.435 1.98-.165 4.455.44 7.48 1.375 2.2.77 4.84 1.65 7.755 2.53Zm4.675 13.86c-3.685-.55-7.975-1.76-11.385-3.19-5.005-2.09-7.48-4.455-8.415-5.61 1.87-.385 4.235 0 7.15.715 2.915.66 6.38 1.65 10.34 2.42 1.705.385 3.52.66 5.39.88h-.385c-2.64-.11-4.675.055-6.05.825l-.33.165c-.22-.055-.385-.055-.605-.11-2.255-.495-4.455-1.1-6.655-1.76-2.2-.66-4.345-1.43-6.49-2.2 4.125 2.145 8.525 3.63 13.035 4.73.605.165 1.21.275 1.87.44.275.165.66.33 1.1.55 1.375.605 3.465 1.43 6.545 1.98.11 0 .165.055.275.055h-.55c-1.21.055-2.255.11-3.135.275h-.165c-.55-.055-1.045-.11-1.54-.165Zm.99 6.435h.055c.935-.66 2.2-1.045 3.795-1.32.935-.165 2.035-.33 3.19-.495.22-.055.44-.055.715-.11-.55-.055-1.045-.11-1.595-.165-.22 0-.385-.055-.55-.11-.11 0-.22 0-.33.055-1.045.055-2.09.055-3.135.055-1.1-.055-2.2-.11-3.3-.22-1.1-.11-2.2-.22-3.3-.385-4.4-.66-8.745-1.595-12.815-3.245 2.145.44 4.235.99 6.38 1.43 2.145.44 4.29.825 6.49 1.1 1.1.165 2.2.22 3.3.33 1.045.055 2.09.11 3.135.11-.715-.22-1.32-.495-1.815-.715-1.21-.55-1.76-.99-1.815-.99l-.44-.385.33-.22c-.33-.055-.66-.055-.99-.11-3.795-.385-7.205-.99-10.065-1.32-2.86-.33-5.115-.44-6.875.165.99.99 3.575 3.08 8.525 4.565 3.355 1.045 7.59 1.76 11.11 1.98Zm.88 6.655-.33-.22.275-.44c.495-.715 1.265-1.265 2.255-1.65-1.87.165-3.795.22-5.665.11-4.07-.165-8.085-.77-11.935-2.035 1.98.275 3.905.605 5.885.825 1.98.22 3.96.385 5.995.44 1.98.055 4.015-.055 5.995-.275.935-.11 1.925-.275 2.86-.495.11 0 .22-.055.33-.055h-.165c-2.42-.055-4.07-.495-5.17-.88-.44-.165-.77-.33-.99-.44h-1.375c-3.465 0-6.6-.275-9.185-.33-2.585-.11-4.675 0-6.27.77.99.88 3.41 2.75 8.03 3.795 2.86.66 6.38.935 9.46.88Zm3.025 4.785c.275-.055.495-.055.77-.11a3.329 3.329 0 0 1-.495-.495l-.275-.33.22-.44c.055-.11.165-.275.22-.385-1.54.22-3.08.385-4.62.495-3.85.275-7.645.44-11.495.22 1.87-.22 3.795-.275 5.72-.385 1.925-.11 3.795-.275 5.72-.44 1.87-.165 3.685-.44 5.5-.77.77-.55 1.815-.825 3.025-1.045-.33.055-.66.055-.99.055-1.76.055-3.135-.11-4.125-.33-.77.11-1.54.165-2.255.275-6.71.715-12.155.88-14.74 2.805 1.155.44 3.74 1.265 8.14 1.43 3.025.055 6.655-.165 9.68-.55Zm2.695 4.785c.22-.935.715-1.54 1.485-2.035-.055 0-.11 0-.165.055-1.705.33-3.41.605-5.17.825-3.465.385-6.93.66-10.395.55 1.705-.275 3.41-.385 5.115-.55 1.705-.165 3.41-.385 5.17-.605 1.705-.22 3.41-.55 5.115-.935.88-.22 1.76-.44 2.64-.715-.495 0-.99.055-1.43 0a8.87 8.87 0 0 1-2.75-.605c-.88.165-1.705.275-2.53.385-5.995.88-10.89 1.265-13.145 3.19 1.045.385 3.41 1.155 7.425 1.155 2.64.055 5.94-.22 8.635-.715Zm-5.445 1.54h-.275v.055c.11 0 .165-.055.275-.055Zm8.085 2.475c.055-.715.22-1.265.605-1.65-1.21.33-2.42.605-3.685.88-2.695.495-5.39.88-8.14.935 1.32-.275 2.64-.495 4.015-.715 1.32-.22 2.695-.44 4.015-.715a40.295 40.295 0 0 0 3.685-.99 6.154 6.154 0 0 1-1.98-.33 3.307 3.307 0 0 1-.77-.385c-.11 0-.22.055-.33.055-4.675 1.045-8.47 1.54-10.12 3.3.825.33 2.75.825 5.885.66 2.2-.11 4.73-.495 6.82-1.045ZM95.7 88.11c-.935.165-1.925.275-2.805.33-.055.33-.165.605-.33.825.88-.33 1.925-.715 3.135-1.155Zm5.665 2.475c.22-.11.495-.275.715-.385-.22-.11-.385-.165-.44-.22l-.275-.165-.055-.44v-.33c-.715.275-1.485.495-2.2.77-2.64.825-5.28 1.485-7.975 1.925 1.265-.44 2.585-.77 3.905-1.21 1.32-.385 2.585-.77 3.905-1.21.825-.275 1.65-.605 2.42-.935 0-.11.055-.165.055-.22a5.21 5.21 0 0 1-1.43-.22c-.275-.11-.44-.165-.605-.275-4.51 1.595-8.25 2.53-9.68 4.51.88.22 2.805.495 5.94-.055 1.815-.33 3.905-.88 5.72-1.54ZM97.79 92.4l-.825.165c-.055.11-.11.22-.22.33.11-.055.165-.055.275-.11.275-.11.495-.22.77-.385Zm.715 3.85c1.76-.55 3.85-1.43 5.5-2.365.22-.11.385-.22.55-.33-.275-.055-.44-.11-.44-.165l-.33-.11-.11-.385c-.055-.165-.055-.275-.055-.44-.825.495-1.65.935-2.475 1.32-2.145.99-4.345 1.87-6.6 2.53 1.045-.55 2.09-.99 3.19-1.485 1.045-.495 2.145-.99 3.19-1.485.935-.495 1.87-.99 2.75-1.54.055-.44.275-.825.605-1.21-.44 0-.825 0-1.1-.055-.715.385-1.43.77-2.09 1.155-3.685 1.87-6.71 3.135-7.645 5.17.715.055 2.475.165 5.06-.605Zm.715.88c.275-.22.605-.44.935-.66-.11.055-.275.11-.385.165-.33.275-.825.55-1.485.88.33-.165.66-.275.935-.385Zm7.755-.55-.165-.385a1.657 1.657 0 0 1-.165-.66 30.68 30.68 0 0 1-1.815 1.045c-1.87.99-3.795 1.925-5.83 2.585.88-.55 1.87-.99 2.805-1.485l2.805-1.485c.715-.385 1.375-.825 2.035-1.265.055-.55.33-.99.77-1.43-.44.11-.825.165-1.21.22-.495.33-1.045.66-1.54.935-3.245 1.87-5.94 3.135-6.655 5.06.715.055 2.31.11 4.62-.715a26.092 26.092 0 0 0 4.675-2.255l-.33-.165Zm-7.04-12.87c1.045-.11 2.2-.44 3.19-.88.385-.22.715-.44 1.1-.66-.055-.44-.11-.935-.165-1.43l-.495.33c-.66.33-1.32.66-2.035.88a16.156 16.156 0 0 1-4.29.935c.66-.275 1.32-.44 2.035-.66.66-.22 1.375-.44 2.035-.715.66-.275 1.32-.605 1.925-.99.275-.165.495-.33.77-.495v-1.32c-.11 0-.22.055-.33.11-.825.495-1.65.935-2.475 1.265-2.31.99-4.125 1.375-4.675 3.08.495.22 1.65.715 3.41.55Zm1.595 2.255c.605-.22 1.155-.495 1.76-.77.495-.275.935-.55 1.375-.88-.11-.44-.22-.935-.33-1.375-.495.33-.935.605-1.375.825-1.925 1.045-3.52 1.54-3.795 3.19.44.22 1.375.605 2.695.495.605-.77 1.65-1.265 2.915-1.98a.417.417 0 0 1 .22-.11c-.055-.165-.11-.33-.165-.44-.44.275-.88.495-1.32.715-1.21.55-2.42.935-3.74 1.1.605-.33 1.155-.55 1.76-.77Zm-.495-11.495c-3.19.77-5.72.715-6.985 2.365.55.495 1.925 1.485 4.29 1.65 1.65.11 3.63-.165 5.225-.66.165-.055.275-.11.44-.165 0-.605.055-1.21.11-1.815-.055.055-.165.055-.22.11-.935.385-1.925.66-2.86.825-1.98.33-3.96.44-5.885.055.935-.11 1.925-.11 2.86-.22.935-.11 1.925-.22 2.86-.44.935-.22 1.87-.495 2.805-.88.22-.11.385-.165.605-.275.055-.55.165-1.155.275-1.76-1.265.55-2.42.935-3.52 1.21ZM93.61 52.855a67.53 67.53 0 0 0 5.665.935c.935.11 1.925.165 2.86.22.935 0 1.925.055 2.915.165.33.055.605.11.88.165-.495-.165-.99-.385-1.485-.495-1.265-.385-2.53-.715-3.74-.935-.77-.165-1.485-.33-2.2-.44-.55-.055-1.045-.11-1.54-.165-2.42-.275-4.51-.55-5.665-1.045-2.255-.275-4.125-.385-5.5 0 .99.66 3.3 2.09 7.59 3.355 1.485.44 3.135.77 4.84 1.045.165 0 .33.055.495.055h1.925c.605 0 1.155 0 1.76-.055.33 0 .66-.055.99-.055h1.045c1.375.055 2.75.22 4.125.55a3.531 3.531 0 0 0-.55-.715 30.768 30.768 0 0 0-3.08-.66c-.935-.165-1.87-.165-2.86-.22-.99-.055-1.925-.165-2.915-.275-3.85-.495-7.645-1.43-11.33-2.64 2.035.385 3.905.88 5.775 1.21Zm.11 4.62c-1.87-.22-3.74-.495-5.665-.66 3.74.88 7.535 1.43 11.33 1.595.935 0 1.925.055 2.86 0 .99-.055 1.87-.11 2.805-.055 1.375.055 2.695.275 4.07.55v1.1c-1.265-.22-2.475-.385-3.74-.44a10.617 10.617 0 0 0-1.87 0c-.33 0-.605 0-.935.055-.275.055-.605.055-.88.11-.66.055-1.375.11-1.98.165-.385 0-.77-.055-1.21-.055a43.07 43.07 0 0 1-4.84-.605c-4.29-.825-6.71-2.09-7.755-2.64 1.43-.55 3.52-.605 5.995-.44 2.53.11 5.5.385 8.8.385.605 0 1.155 0 1.76-.055s1.32-.055 1.98-.055c1.375.055 2.75.22 4.18.55.055 0 .165.055.22.055.11.44.165.825.22 1.265-1.32-.275-2.64-.495-4.015-.495-.935-.055-1.925.055-2.86.11-.935.055-1.87.055-2.86.055-1.87-.11-3.74-.275-5.61-.495Zm1.925 4.565c-1.705-.055-3.41-.22-5.06-.33 3.355.715 6.765.99 10.23.825.88-.055 1.76-.165 2.53-.22.825-.055 1.65 0 2.53.055.935.055 1.925.165 2.86.275-.11.44-.275.88-.44 1.32-.99-.055-2.365-.165-3.96-.165h-.935c-.33.055-.605.055-.99.11l-2.31.165c-1.54.055-3.025-.055-4.4-.22-3.96-.55-6.105-1.705-7.04-2.2 1.265-.605 3.135-.715 5.335-.77 2.255-.055 4.895.055 7.81-.33.275-.055.55-.055.825-.11.33-.055.605-.055.935-.055.605-.055 1.21 0 1.815 0 1.21.055 2.42.22 3.685.44-.055.44-.11.825-.22 1.21-.99-.11-1.98-.22-2.97-.275-.88-.055-1.705-.055-2.585.055-.88.055-1.705.22-2.53.275-1.705 0-3.41 0-5.115-.055Zm-.055 4.895c1.43-.11 2.86-.275 4.29-.44 1.43-.22 2.86-.275 4.345-.385 1.045-.055 2.09-.055 3.135-.165.165-.275.275-.605.44-.88-.275-.165-.66-.275-1.1-.275-2.09-.055-4.015-.055-5.94.165a99.9 99.9 0 0 0-3.63.495c-1.1.165-2.145.275-3.025.44-1.87.275-3.3.66-4.345 1.43.825.44 2.75 1.265 6.105 1.375 1.155 0 2.42 0 3.685-.165.66-.055 1.21-.11 1.76-.165.275 0 .605-.055.88-.055.22-.055.44-.11.715-.165.935-.22 1.925-.385 2.915-.55.275-.055.495 0 .715 0 .11-.165.165-.385.275-.55.055-.11.165-.275.22-.385-.935.055-1.87.11-2.75.11-1.43.055-2.86.11-4.29.275-2.86.33-5.775.55-8.635.22 1.375-.165 2.805-.22 4.235-.33Zm.66 5.005c1.265-.22 2.53-.44 3.795-.77 1.265-.33 2.475-.825 3.74-1.21.55-.165 1.1-.275 1.705-.385.22-.44.44-.935.66-1.375h-.275c-.99.11-1.87.275-2.805.55-.44.11-.935.275-1.375.385-.385.11-.77.275-1.155.385-2.145.605-4.125.99-5.775 1.375-1.65.44-2.97.935-3.795 1.76.825.33 2.64.99 5.665.88a25.12 25.12 0 0 0 3.355-.385c.55-.11 1.155-.22 1.705-.385s1.155-.385 1.54-.495c.495-.165.99-.275 1.485-.385.11-.55.275-1.045.495-1.595-.385.11-.825.165-1.21.275-.605.165-1.21.33-1.87.55-.605.22-1.265.385-1.925.55-2.585.605-5.17.88-7.81.825 1.265-.22 2.585-.33 3.85-.55Zm7.645 16.39 1.65-.825c.11-.055.165-.11.275-.165-.22-.44-.385-.88-.55-1.32-.055 0-.055.055-.11.055-1.87 1.045-3.41 1.705-3.465 3.41.495.22 1.65.55 3.08.22.165-.055.275-.055.44-.11.385-.275.825-.55 1.32-.88-.165-.275-.385-.605-.55-.935-.055.055-.165.055-.22.11-1.1.55-2.255.99-3.52 1.265l1.65-.825Zm2.255 3.19 1.595-.935s.055 0 .055-.055l-.825-1.155c-1.705 1.045-3.025 1.925-2.86 3.52.55.165 1.65.33 3.025-.11a8.959 8.959 0 0 0 1.87-.77c-.33-.385-.605-.715-.935-1.1 0 0-.055 0-.055.055-1.1.605-2.145 1.155-3.355 1.54.44-.385.935-.715 1.485-.99Zm2.75 3.3c-.44.33-.88.605-1.265.99 1.045-.44 1.98-.99 2.915-1.54.11-.055.22-.165.33-.22l.33.33c.22.22.495.44.715.66-.605.385-1.265.77-1.925.99-1.21.44-2.255.33-2.805.165-.385-1.54.825-2.475 2.31-3.575l.99.99c-.11.055-.22.165-.275.22l-1.32.99Zm5.5 3.355c-.275.22-.605.44-.88.605-1.32.77-2.53.715-3.025.66-.275-1.54.77-2.475 2.09-3.905.385.33.715.605 1.1.88l-1.32 1.32c-.44.44-.935.825-1.32 1.265 1.155-.55 2.145-1.375 3.08-2.31l.99.66c-.275.33-.495.605-.715.825Zm4.4.77c-.495.77-1.21 1.485-1.87 1.925-1.21.825-2.31.77-2.805.66-.495-1.54.495-2.42 1.595-3.85.44.22.825.44 1.265.605-.055.11-.165.22-.22.33-.33.44-.715.88-1.1 1.265-.385.385-.77.77-1.1 1.21.99-.55 1.87-1.32 2.585-2.2.11-.11.22-.275.33-.385.385.22.825.33 1.32.44Zm4.235.605c-.33.495-.55.935-.715 1.32-.385.44-.77.77-1.21 1.1-1.21.935-2.42.935-2.915.88-.385-1.43.385-2.365 1.43-3.74.495.11.99.165 1.485.22-.055.055-.11.165-.165.22-.385.495-.77.935-1.155 1.43-.385.44-.825.88-1.155 1.32 1.045-.605 1.925-1.54 2.75-2.53.11-.165.22-.275.33-.44.385.165.88.22 1.32.22Zm1.265 1.76-.99 1.32c.935-.66 1.705-1.54 2.365-2.475.11-.165.165-.33.275-.495h.275c.44 0 .88.055 1.265.11-.44.88-1.1 1.76-1.815 2.365-1.1.935-2.2.99-2.75.99-.55-1.32.11-2.2.88-3.465.495 0 .935 0 1.43.055h.11c-.055.11-.11.165-.165.275-.22.385-.55.88-.88 1.32Zm-14.355-2.97c0 .33.055.66.165 1.1l.11.33-.055.055c-1.21.825-2.805 1.595-4.125 2.09-1.98.715-3.41.66-4.015.605.495-1.815 2.75-3.025 5.5-4.675.495-.275.99-.605 1.485-.935.44 0 .99-.11 1.54-.33.11-.055.165-.055.275-.11-.275.33-.495.715-.66 1.1-.11.055-.165.165-.275.22-.715.55-1.485 1.045-2.255 1.54-.77.44-1.595.88-2.365 1.32-.77.44-1.595.88-2.365 1.375 1.705-.605 3.355-1.43 4.95-2.31.66-.44 1.375-.88 2.09-1.375ZM67.43 42.405c.055.055.55.935 1.925 2.365.385.385.825.77 1.375 1.21-.385-.165-.715-.275-1.1-.44-1.485-.66-2.97-1.32-4.4-2.035-.715-.385-1.43-.715-2.145-1.1L60.94 41.25a113.582 113.582 0 0 1-8.195-5.115c4.95 4.235 10.725 7.48 16.665 10.12 1.32.605 2.64 1.1 3.96 1.65.99.66 2.145 1.32 3.465 1.98 2.365 1.155 5.005 2.2 7.645 3.08.165.055.385.11.55.165-3.85-.825-7.095-1.76-9.79-2.365-.33-.055-.605-.11-.88-.165-4.785-1.705-10.12-4.235-14.3-6.985-3.19-2.09-5.445-4.07-7.095-5.72-1.595-1.705-2.585-3.025-3.08-3.85 2.42.605 5.39 2.2 9.13 4.125 2.42 1.265 5.17 2.695 8.25 4.07.055-.055.11.055.165.165Zm94.93 28.16-.825-1.045c-.11-.165-.275-.33-.385-.495l-.44-.495c-.275-.33-.605-.66-.88-.99l-.935-.88-.495-.44-.495-.44-1.045-.825c-.33-.275-.715-.495-1.1-.715-.385-.22-.715-.495-1.1-.715l-1.155-.605c-.22-.11-.385-.22-.605-.33l-.605-.275-1.21-.495c-.385-.165-.825-.275-1.21-.44-3.3-1.1-6.82-1.485-10.34-1.32h-.275a43.681 43.681 0 0 1 8.47-.33c.825.22 1.595.44 2.42.715 6.875 2.365 12.43 8.03 14.685 14.74-.605-1.595-1.485-3.135-2.475-4.62Zm-15.84 56.155c.33-2.915-.055-5.83-.605-8.635-.55-2.86-1.375-5.665-2.2-8.415l-1.32-4.18c-.22-.715-.44-1.375-.66-2.09-.165-.715-.385-1.43-.44-2.2-.22-1.485-.22-3.025.11-4.455.165-.715.385-1.485.715-2.145.33-.66.715-1.32 1.155-1.98.88-1.21 1.98-2.255 3.19-3.135 1.21-.88 2.475-1.595 3.795-2.255 2.64-1.265 5.445-2.2 8.305-2.97 2.805-.715 5.665-1.32 8.58-1.815 1.43-.22 2.915-.385 4.345-.495 1.485-.11 2.915-.11 4.345.165-1.43-.165-2.915-.055-4.345.055-.77.055-1.54.165-2.255.275-.385.715-1.045 1.21-1.76 1.54-.715.275-1.485.385-2.255.495.715-.165 1.485-.33 2.145-.715a3.378 3.378 0 0 0 1.375-1.265c-.495.11-1.045.165-1.54.275-2.475.44-4.895 1.045-7.315 1.705-.385.77-1.045 1.32-1.76 1.65-.77.33-1.595.495-2.365.66.77-.22 1.595-.44 2.255-.825.55-.33 1.1-.77 1.375-1.375l-.66.165c-2.805.825-5.555 1.705-8.14 3.025-1.265.66-2.53 1.375-3.685 2.2a15.19 15.19 0 0 0-2.97 2.97c-.385.55-.77 1.155-1.045 1.815-.055.11-.11.275-.165.385.55.055 1.045.165 1.485.385-.55-.165-1.1-.165-1.65-.055-.165.385-.275.825-.385 1.265a12.148 12.148 0 0 0-.11 4.235c.11.715.275 1.43.44 2.09.22.66.385 1.375.66 2.09.165.44.275.935.44 1.375.935-.22 1.87-.275 2.805-.11-.935-.055-1.815.11-2.695.44.22.825.495 1.65.715 2.42.66 2.2 1.21 4.455 1.65 6.765.77-.055 1.485.165 2.035.605-.605-.33-1.32-.44-1.925-.275.11.495.165.935.275 1.43.275 3.08.55 6.05.055 8.91Zm16.5.66c-2.31.495-4.675.77-7.04.88 2.365-.275 4.675-.605 6.93-1.265 1.43-.385 2.86-.825 4.18-1.43l-.33-.33c-.22-.275-.33-.55-.385-.88.22.495.66.88 1.1 1.045.66-.33 1.32-.66 1.925-1.045.935-.66 1.815-1.43 2.53-2.31.165-.165.275-.385.385-.605-.055 0-.11 0-.22-.055a2.708 2.708 0 0 1-.935-.33c-.605-.275-1.1-.715-1.485-1.155.495.385 1.045.66 1.595.77.275.055.55.11.88.11h.495c.275-.55.55-1.155.77-1.76.66-2.2.66-4.565.44-6.875a19.225 19.225 0 0 0-.22-1.76c-.165 0-.275.055-.44.055-.33.055-.66.055-.99.055-.33 0-.66-.055-.99-.165-.33-.11-.605-.22-.88-.385.275.11.605.165.935.165.33 0 .605 0 .935-.055.275-.055.605-.11.88-.22.165-.055.33-.11.44-.165a63.282 63.282 0 0 0-.825-4.455c-.385-1.925-.77-3.85-1.155-5.83-.165.11-.33.165-.495.275-.33.165-.715.275-1.045.275-.715.11-1.43.11-2.145-.055.715 0 1.375-.11 2.035-.33.33-.11.605-.275.88-.44.22-.165.44-.33.66-.55 0-.11-.055-.22-.055-.33-.22-1.155-.44-2.31-.605-3.52l-.165-.88c-.055-.275-.055-.605-.11-.935 0-.44 0-.935.055-1.375a2.805 2.805 0 0 1-1.32-.88c.385.33.935.495 1.375.55v-.11c.275-1.21.88-2.255 1.65-3.19.715-.935 1.595-1.705 2.42-2.585-.77.88-1.595 1.76-2.255 2.695-.66.935-1.21 2.035-1.43 3.135-.11.55-.11 1.155-.11 1.705.055.55.165 1.155.275 1.705.22 1.155.44 2.31.715 3.465.99 4.62 2.2 9.185 2.695 13.97.22 2.365.22 4.84-.55 7.15-.385 1.155-.935 2.255-1.705 3.245-.77.935-1.705 1.76-2.75 2.42-1.925 1.32-4.235 2.035-6.545 2.585Zm-43.065-62.645-.33-.33c.385-.11.77-.22 1.21-.22a4.75 4.75 0 0 1-.88.55Zm4.895-2.64c-.605-.33-1.155-.66-1.705-.99-3.74-2.365-5.665-4.895-6.38-6.105 1.375-.165 3.135.44 5.28 1.32 2.2.88 4.785 2.035 7.755 3.025.055 0 .055 0 .11.055-.55.165-1.045.44-1.43.88l-.385.385c0 .055.055.055.055.11l-.11.055a83.31 83.31 0 0 1-4.62-1.98c-1.65-.825-3.245-1.705-4.895-2.64 2.695 2.145 5.61 3.74 8.58 4.95-.825.275-1.54.605-2.255.935Zm11.11-3.52c.275-.055.605-.11.935-.165.605-.11 1.155-.165 1.705-.275.22-.055.385-.055.605-.055.385-.055.715-.11 1.1-.11h.165c.385-.055.825-.055 1.21-.11h.11c.44-.055.88-.055 1.32-.055h1.21-.11c-.11-.055-.275-.055-.385-.11h-.22c-.715 0-1.375 0-2.09-.055-.77-.055-1.485-.165-2.2-.275-.77-.165-1.485-.275-2.2-.44-2.97-.715-5.885-1.76-8.635-3.41 1.43.495 2.86 1.045 4.29 1.54 1.43.495 2.915.88 4.345 1.21.715.165 1.485.275 2.2.385.715.11 1.43.165 2.09.22-.495-.22-.88-.495-1.21-.715-.825-.55-1.21-.99-1.265-.99l-.33-.33.22-.22c-.22-.055-.44-.055-.66-.11-2.585-.495-4.84-1.155-6.765-1.54-1.925-.385-3.465-.55-4.62-.055.715.99 2.475 2.97 5.83 4.565.99.33 2.145.77 3.355 1.1Zm16.885-.055c.55.11 1.045.22 1.54.385 0-.055.055-.11.055-.165.165-.715.33-1.32.385-1.815.055-.44.11-.715.11-.715s.055.275.055.77c0 .385 0 .88-.11 1.43.77-3.245 1.1-6.38.385-8.965-.495-1.815-1.485-3.19-3.025-4.235-1.155-.77-2.475-.935-3.795-1.1-.99-.11-1.98-.275-3.025-.605-3.19-1.1-7.535-2.97-9.24-3.685.55.935 1.815 2.53 4.73 4.51.715.495 2.2.77 3.74 1.1.33.055.715.165 1.045.22.495.055.99.11 1.485.275.825.22 1.76.495 2.64.88.44.22.88.495 1.32.77.44.22.88.55 1.265 1.1.385.495.605 1.1.825 1.65.165.55.33 1.045.495 1.485.33.88.66 1.54.99 1.87.165.165.275.275.385.33.11.055.165.055.165.055h-.165c-.11 0-.275-.055-.44-.165-.33-.22-.825-.77-1.21-1.485.22 2.365-.11 4.345-.605 6.105Zm-8.69 58.025-.495-2.145c-2.255.11-10.285.495-19.415-.165-3.025-.22-5.83-.495-8.415-.88.33.825.715 1.595 1.1 2.42-1.43-.165-2.805-.385-4.18-.605-1.375-.22-2.75-.55-4.125-.88 2.695.825 5.445 1.375 8.25 1.815a108.272 108.272 0 0 0 16.885.99c1.43 0 2.805-.055 4.235-.11 1.43-.055 2.805-.165 4.235-.275a65.75 65.75 0 0 0 1.925-.165Zm-.275 12.98c1.375-2.145 1.485-5.555.935-9.295-2.365.165-10.395.66-19.47.165-2.255-.11-4.345-.275-6.325-.495 1.98 3.575 4.345 7.095 7.095 10.56 3.795.715 8.03 1.265 12.43 1.375.44 0 .88 0 1.265-.055 1.87-.275 3.19-.99 4.07-2.255Zm16.115-48.29c-1.87.44-3.795.935-5.61 1.54-1.87.55-3.685 1.21-5.445 2.035-1.76.77-3.465 1.705-4.95 2.86-1.54 1.155-2.86 2.53-3.85 4.125a12.127 12.127 0 0 0-1.65 5.39c-.055.935 0 1.925.11 2.915s.33 1.925.55 2.86c-.33-.935-.66-1.87-.88-2.805-.22-.99-.33-1.98-.33-2.97-.055-1.98.44-4.07 1.375-5.83.935-1.815 2.365-3.3 3.96-4.565 1.595-1.21 3.355-2.2 5.17-3.08 3.63-1.595 7.48-2.64 11.385-3.355 1.925-.385 3.905-.605 5.885-.825 1.98-.165 3.96-.22 5.885-.165-1.98.22-3.905.44-5.83.77-1.98.275-3.85.66-5.775 1.1Zm-8.36-34.76c.275.11.495.22.66.385.385.22.605.385.605.385s-.22-.165-.55-.495a3.428 3.428 0 0 0-.66-.495c-.11-.11-.275-.165-.44-.275-.165-.055-.33-.165-.495-.22-.66-.33-1.485-.66-2.31-.88-.88-.22-1.76-.44-2.695-.605a38.872 38.872 0 0 1-2.695-.55c-.825-.22-1.65-.44-2.31-.715-.33-.165-.605-.275-.88-.495a3.428 3.428 0 0 1-.66-.495c-.33-.33-.55-.495-.55-.495s.165.22.495.605c.165.165.385.33.66.55.275.22.55.385.88.605.66.33 1.485.715 2.31.935.88.22 1.76.44 2.695.605.935.165 1.815.33 2.695.55.825.22 1.65.44 2.31.715.165.055.33.11.495.22.165.055.33.11.44.165Zm-31.57 1.155c2.145 1.1 4.73 2.475 7.59 3.795-.55.11-1.045.275-1.485.605-.165.11-.33.22-.44.33.055.11.11.165.165.275-1.485-.77-2.97-1.54-4.455-2.42-1.76-1.045-3.465-2.145-5.17-3.245 3.245 2.805 6.71 4.95 10.285 6.71.22.275.495.66.935 1.1.935.935 2.31 2.145 4.4 3.19-.55-.165-1.155-.385-1.76-.605-2.915-1.1-6.27-2.915-9.02-4.895-3.96-2.75-5.94-5.555-6.71-6.82 1.43 0 3.355.825 5.665 1.98Zm15.62-7.48c.44.77 1.265 1.925 3.025 3.355h-.055c-.825-.33-1.595-.605-2.365-.99a42.402 42.402 0 0 1-4.675-2.475c-1.54-.88-3.08-1.87-4.565-2.805 2.86 2.53 5.995 4.4 9.185 5.995.605.33 1.265.605 1.87.825-.55.055-1.045.165-1.43.385l-.385.22.33.385c0 .055.22.275.715.715-2.035-.935-4.235-2.145-6.05-3.465-3.52-2.53-5.225-5.115-5.885-6.27 1.32-.11 2.97.55 5.06 1.54 1.485.77 3.245 1.705 5.225 2.585Zm3.52 13.2c-2.475-.66-5.39-1.87-7.7-3.3-3.41-2.09-5.115-4.455-5.775-5.5 1.265-.275 2.805.165 4.785.88s4.29 1.705 6.985 2.585c1.155.385 2.365.715 3.63.99h-.22c-1.76-.165-3.135-.055-4.015.66l-.22.165c-.11-.055-.275-.055-.385-.11-1.485-.55-3.025-1.155-4.51-1.87a110.079 110.079 0 0 1-4.4-2.255c2.805 2.145 5.83 3.63 8.855 4.785.44.165.825.33 1.265.44.22.165.44.33.77.55.935.605 2.365 1.43 4.4 2.09.055 0 .11.055.165.055h-.385c-.77 0-1.485.055-2.09.165h-.11c-.385-.165-.715-.22-1.045-.33Zm3.135-6.6c1.265.44 2.53.77 3.85 1.045.66.11 1.265.22 1.925.275.66.055 1.32.11 1.925.275.22.055.385.11.605.165-.33-.165-.66-.385-1.045-.495-.825-.44-1.705-.715-2.53-.99l-1.485-.495c-.33-.055-.715-.165-1.045-.22-1.595-.33-3.025-.66-3.795-1.155-1.485-.33-2.75-.495-3.685-.165.715.66 2.255 2.09 5.17 3.355.99.44 2.09.825 3.245 1.155.11.055.22.055.33.11.44.055.825.055 1.265.055h2.53c.88.055 1.815.275 2.805.66-.11-.275-.275-.495-.385-.66-.715-.275-1.375-.55-2.09-.715-.66-.165-1.265-.22-1.925-.275-.66-.055-1.32-.165-1.925-.33-2.585-.55-5.115-1.54-7.645-2.805 1.375.275 2.64.77 3.905 1.21Zm.22 4.345c1.265.22 2.53.44 3.795.55.66.055 1.265.055 1.925 0a11.245 11.245 0 0 1 1.925 0c.88.055 1.815.275 2.695.605-.055-.385-.11-.77-.165-1.21-.055 0-.11-.055-.165-.055a9.016 9.016 0 0 0-2.805-.66c-.44-.055-.935 0-1.32 0h-1.21c-2.2-.055-4.18-.385-5.885-.605-1.705-.165-3.08-.22-4.015.275.715.55 2.365 1.815 5.28 2.695.99.33 2.09.55 3.245.715.275.055.55.055.825.11.44 0 .88-.055 1.32-.11.165 0 .385-.055.55-.055.22-.055.44-.055.605-.055.44 0 .825 0 1.265.055.825.11 1.65.275 2.53.55 0-.33 0-.66-.055-.99a12.5 12.5 0 0 0-2.75-.66c-.605-.055-1.21-.055-1.87-.055-.66 0-1.265 0-1.925-.055-2.585-.22-5.115-.88-7.645-1.815 1.32.22 2.585.495 3.85.77Zm1.43 4.345c1.155.11 2.255.165 3.41.11.55-.055 1.1-.165 1.705-.165.55-.055 1.155 0 1.705.055.66.055 1.32.22 1.98.33.055-.385.055-.715.11-1.155-.825-.275-1.65-.44-2.475-.55-.385-.055-.825-.055-1.21-.055-.22 0-.385 0-.605.055-.165 0-.385.055-.55.055-1.925.22-3.685.11-5.17.055-1.485-.055-2.695.055-3.575.55.66.55 2.145 1.65 4.785 2.31.935.22 1.925.33 2.97.33.495 0 1.045 0 1.54-.055.275-.055.44-.055.66-.055h.605c1.045.055 1.98.22 2.64.275.11-.385.165-.825.275-1.21-.66-.11-1.265-.275-1.925-.33-.55-.055-1.1-.11-1.705-.11-.55.055-1.155.11-1.705.165-2.31.11-4.62-.275-6.875-1.045 1.155.11 2.255.33 3.41.44Zm-19.415-19.36c.055.055.385.935 1.375 2.255.275.385.55.77.935 1.155-.275-.165-.495-.275-.77-.44-.99-.66-2.035-1.32-2.97-2.035-.495-.385-.99-.715-1.485-1.1l-1.43-1.155a97.005 97.005 0 0 1-5.61-5.06c3.41 4.125 7.37 7.37 11.385 10.01.88.605 1.76 1.1 2.695 1.65.66.66 1.485 1.265 2.365 1.925 1.595 1.155 3.41 2.2 5.225 3.08.11.055.275.11.385.165-2.585-.88-4.785-1.87-6.6-2.475-.22-.055-.385-.165-.605-.22-3.245-1.705-6.875-4.29-9.735-6.985-2.2-2.035-3.74-4.015-4.895-5.61-1.1-1.65-1.815-2.915-2.145-3.74 1.65.66 3.685 2.2 6.215 4.125 1.65 1.265 3.52 2.695 5.61 4.07-.055.22 0 .33.055.385ZM56.375 195.47 177.815 176l-9.79 9.405c-.55.55-1.21.825-2.035.88L56.375 195.47Z" fill="#9C9C9C"/><path fill-rule="evenodd" clip-rule="evenodd" d="m134.64 67.045 2.2 6.545 6.875-.055-5.555 4.125 2.2 6.545-5.665-4.015-5.555 4.07 2.145-6.6-5.665-4.015h6.93l2.09-6.6ZM63.965 101.915l3.52 3.685 4.51-2.145-2.42 4.4 3.52 3.685-5.005-.935-2.365 4.4-.66-5.005-4.95-.88 4.565-2.2-.715-5.005Z" fill="#9C9C9C"/></svg>