<svg width="220" height="220" fill="none" xmlns="http://www.w3.org/2000/svg"><path fill-rule="evenodd" clip-rule="evenodd" d="M121 43.56c-33.605-6.82-66.33 14.96-73.15 48.51-6.765 33.605 14.905 66.33 48.51 73.15 33.605 6.82 66.33-14.96 73.15-48.51 6.82-33.605-14.905-66.385-48.51-73.15Zm.44-2.255c34.815 7.04 57.365 40.975 50.325 75.845-7.04 34.815-40.975 57.365-75.845 50.325-34.815-7.095-57.31-41.03-50.27-75.845 7.04-34.815 40.975-57.365 75.79-50.325Z" fill="#9C9C9C"/><path fill-rule="evenodd" clip-rule="evenodd" d="M121.88 39.105C85.855 31.79 50.655 55.11 43.395 91.19 36.08 127.27 59.4 162.415 95.48 169.675c36.025 7.315 71.225-16.005 78.485-52.085 7.315-36.08-16.005-71.225-52.085-78.485Zm.825-3.96c38.225 7.755 62.975 45.045 55.22 83.27-7.755 38.225-45.045 62.975-83.27 55.22-38.225-7.755-62.975-45.045-55.22-83.27 7.755-38.225 45.045-62.975 83.27-55.22ZM112.42 206.58c15.07 0 29.535.11 43.12.275.44 0 .825.165.825.33s-.385.33-.825.33c-13.585.165-28.105.275-43.12.275-15.015 0-29.535-.11-43.12-.275-.495 0-.825-.165-.825-.33s.385-.33.825-.33c13.53-.165 28.05-.275 43.12-.275ZM112.42 208.725c12.87 0 25.3.11 36.905.275.44 0 .825.165.825.33s-.385.33-.825.33c-11.66.165-24.035.275-36.905.275-12.87 0-25.3-.11-36.905-.275-.495 0-.825-.165-.825-.33s.385-.33.825-.33a2595.06 2595.06 0 0 1 36.905-.275ZM112.42 204.435c17.875 0 35.145.11 51.315.275.44 0 .825.165.825.33s-.385.33-.825.33c-16.17.165-33.385.275-51.315.275-17.875 0-35.145-.11-51.315-.275-.495 0-.825-.165-.825-.33s.385-.33.825-.33c16.17-.165 33.385-.275 51.315-.275ZM59.4 186.56c0 .715.055 1.485.055 2.2 0 .715.055 1.485.055 2.2h-.275c-.44-1.595-.77-2.64-1.1-3.245-.33-.605-.77-.88-1.375-.935h-.165v11.66h1.21v.385c-1.76 0-3.465-.055-5.225-.055v-.385h1.21v-11.77h-.165c-.605-.055-1.1.22-1.43.825-.33.605-.715 1.65-1.1 3.19h-.275c0-.77.055-1.485.055-2.255 0-.77.055-1.485.055-2.255 2.86.165 5.665.275 8.47.44ZM114.345 202.84c.495 0 .825-.22 1.1-.66.275-.44.385-.99.385-1.705 0-.66-.275-1.32-.77-2.035-.715.825-1.705 1.32-2.97 1.265-1.265 0-2.255-.22-3.025-.715-.77-.44-1.1-1.155-1.1-2.09 0-.66.165-1.155.495-1.54.33-.385.935-.66 1.705-.825-.825-.825-1.265-1.65-1.265-2.585s.33-1.595.935-2.035c.605-.44 1.43-.55 2.365-.55.935 0 1.65.11 2.145.44.495.33.715.77.715 1.375 0 1.045-.77 1.815-2.31 2.42.22.11.55.33 1.045.605 1.045.66 1.815 1.21 2.255 1.595.165-.715.22-1.375.275-2.145-.385 0-.77.055-1.155.055v-.275c.825-.055 1.65-.055 2.475-.11v.275c-.33 0-.66 0-.99.055 0 .935-.11 1.76-.275 2.475.385.44.715.88.935 1.32.22.44.33.935.33 1.595 0 1.045-.385 1.98-1.1 2.805-.715.825-1.54 1.21-2.475 1.21-.605 0-1.1-.11-1.43-.385-.33-.275-.495-.605-.495-.99s.11-.715.33-.935c.22-.22.495-.33.88-.33.77 0 1.155.33 1.155 1.045 0 .165 0 .33-.11.495h-.495c-.22.66-.055.88.44.88Zm-1.925-3.465c.99 0 1.815-.44 2.42-1.21-.44-.44-1.045-.935-1.815-1.43-1.375-.88-2.255-1.54-2.585-1.87-.165.33-.22.935-.22 1.87s.165 1.65.55 2.035c.33.385.88.605 1.65.605Zm-.275-9.625c-.385 0-.66.055-.935.275-.275.22-.385.55-.385 1.045 0 .495.11.88.33 1.21.22.33.66.715 1.32 1.21.385-.22.66-.495.77-.77.11-.275.165-.715.165-1.32 0-1.1-.44-1.65-1.265-1.65ZM126.005 194.095h-.77v5.06h.935v.275c-1.54 0-3.08.055-4.675.055v-.275h.935v-9.9c-.33 0-.605.055-.935.055v-.275c1.43-.055 2.86-.165 4.345-.275 1.265-.055 2.145-.055 2.64.055.495.11.88.275 1.1.44.44.385.66.99.66 1.87 0 .88-.22 1.485-.605 1.87s-.99.66-1.815.715v.055c.77.11 1.32.33 1.595.66.33.385.44.99.44 1.87v.825c0 .55 0 .88.055 1.1.055.165.165.275.33.275s.275-.11.385-.275c.11-.165.22-.55.275-1.1h.22c-.11.88-.275 1.485-.55 1.76-.275.275-.77.44-1.54.495-.77 0-1.32-.165-1.65-.55-.33-.385-.495-1.1-.495-2.2v-1.1c0-.55-.055-.99-.22-1.21-.055-.165-.275-.33-.66-.275Zm-.77-4.95v4.62h.44c.55 0 .935-.22 1.21-.55.275-.385.385-.935.385-1.76v-.44c0-.825-.165-1.32-.385-1.595-.275-.22-.66-.33-1.21-.33-.11.055-.275.055-.44.055ZM63.965 195.25c0 1.045.165 1.87.44 2.42.33.55.825.88 1.65.88.77 0 1.375-.275 1.815-.825.44-.55.66-1.43.66-2.64v-7.7c-.33 0-.605-.055-.935-.055V187c.715.055 1.375.055 2.09.11v.33c-.275 0-.495-.055-.77-.055v7.535c0 1.375-.275 2.42-.77 3.135-.55.66-1.43.99-2.805.99-1.32 0-2.365-.385-3.025-1.045-.715-.66-1.045-1.87-1.045-3.465v-7.59c-.275 0-.55-.055-.825-.055v-.33c1.485.11 3.025.165 4.51.275v.33c-.33 0-.605-.055-.935-.055v4.015c-.055 1.43-.055 2.75-.055 4.125ZM78.265 187.99v11.11c-.66 0-1.32 0-1.98-.055-.825-1.815-1.65-3.575-2.475-5.39a239.08 239.08 0 0 1-2.42-5.5v10.56h.77v.33h-1.98v-.33h.77v-11.11c-.275 0-.55-.055-.77-.055v-.33c1.32.055 2.64.165 3.96.22.605 1.43 1.265 2.86 1.87 4.235.605 1.375 1.265 2.805 1.87 4.18v-7.92c-.275 0-.495-.055-.77-.055v-.33c.66.055 1.265.055 1.925.11v.33h-.77ZM79.805 187.77c1.43.11 2.915.165 4.345.275v.33c-.275 0-.495 0-.77-.055v10.67h.77v.33c-1.43 0-2.915-.055-4.345-.055v-.33h.77v-10.78c-.275 0-.495 0-.77-.055v-.33ZM92.95 188.815v10.56c-.66 0-1.32 0-1.98-.055l-2.475-5.115a151.369 151.369 0 0 1-2.42-5.225v10.01h.77v.275c-.66 0-1.32 0-1.925-.055v-.33h.77v-10.56c-.275 0-.495 0-.77-.055v-.33c1.32.055 2.64.165 3.96.22.605 1.375 1.265 2.695 1.87 4.015.605 1.32 1.265 2.64 1.87 3.96v-7.48c-.275 0-.495-.055-.77-.055v-.275c.66.055 1.32.055 1.98.11v.275c-.385.11-.66.11-.88.11ZM99.66 199.265c.44 0 .77-.055.88-.275.11-.165.22-.495.22-.935v-2.915c-.33 0-.605 0-.935-.055v-.33l4.125.165v.33h-.55v4.18h-.22c-.165-.275-.44-.385-.715-.385-.165 0-.55.055-1.21.275-.66.165-1.21.275-1.705.22-1.54 0-2.75-.495-3.575-1.375-.44-.44-.77-1.045-.99-1.705-.22-.66-.33-1.485-.33-2.365 0-.88.11-1.705.33-2.365.22-.66.55-1.265.99-1.705.88-.935 2.09-1.32 3.575-1.265a9.906 9.906 0 0 1 1.76.33c.605.165.935.275.99.275.11 0 .165 0 .22-.055a.76.76 0 0 0 .165-.22h.165c.055 1.1.055 2.145.11 3.245h-.275c-.44-.99-.935-1.76-1.375-2.365-.495-.55-.99-.88-1.595-.935-.715-.055-1.265.33-1.65 1.045-.385.715-.55 1.87-.55 3.355v1.21c0 1.54.165 2.695.55 3.465.44.77.935 1.155 1.595 1.155ZM131.835 188.485c2.475-.165 4.95-.275 7.425-.44.055 1.045.11 2.09.11 3.135h-.275c-.385-1.045-.825-1.76-1.265-2.145-.44-.385-1.1-.55-1.925-.495-.165 0-.33 0-.495.055v4.84h.495c.44 0 .825-.22 1.155-.605.33-.385.495-.88.66-1.54h.22v4.73h-.22c-.165-.77-.385-1.32-.715-1.65-.275-.33-.66-.495-1.21-.44h-.33v5.06h.55c.88 0 1.65-.33 2.255-.935a4.825 4.825 0 0 0 1.265-2.255h.275c-.055 1.155-.055 2.31-.11 3.465-2.64.055-5.225.055-7.865.11v-.33h.825v-10.23c-.275 0-.55.055-.825.055v-.385ZM140.69 187.99c1.43-.055 2.805-.165 4.18-.22 1.43-.055 2.53.11 3.19.55.715.44 1.045 1.265 1.045 2.53 0 1.375-.44 2.31-1.265 2.86-.825.495-1.925.77-3.355.825h-.11V198.88h1.76v.33c-1.815 0-3.685.055-5.5.055v-.33h.935v-10.67c-.33 0-.605.055-.935.055.055-.11.055-.22.055-.33Zm3.685.11v6.05h.275c.55 0 .99-.275 1.21-.715.22-.44.33-1.21.33-2.2v-.77c0-.935-.11-1.595-.33-1.925-.22-.33-.55-.495-1.1-.495-.11.055-.22.055-.385.055ZM155.705 198.66c-.33-1.21-.715-2.42-1.045-3.63-.935 0-1.87.055-2.805.055-.385 1.21-.77 2.42-1.1 3.63h1.045v.33c-.715 0-1.485 0-2.2.055v-.33h.66l1.815-5.775c.605-1.925 1.21-3.905 1.815-5.83.385 0 .77-.055 1.155-.055.605 1.925 1.21 3.795 1.815 5.72l1.815 5.775h.66v.33c-1.54 0-3.135.055-4.675.055v-.33h1.045Zm-2.42-8.36c-.22.77-.44 1.485-.66 2.2-.22.715-.44 1.485-.66 2.2.88 0 1.705-.055 2.585-.055-.22-.715-.44-1.43-.66-2.2-.165-.715-.385-1.43-.605-2.145ZM159.775 186.89c1.43-.11 2.915-.165 4.345-.275v.33c-.275 0-.495.055-.77.055v11.55h.77v.33c-1.43 0-2.915.055-4.345.055v-.33h.77v-11.44c-.275 0-.55.055-.77.055v-.33ZM169.18 192.5c-.275 0-.495 0-.77.055v5.94h.935v.33c-1.54 0-3.08.055-4.675.055v-.33h.935V187c-.33 0-.605.055-.935.055v-.33c1.43-.11 2.86-.165 4.345-.22 1.265-.055 2.145-.055 2.64.11.495.11.88.33 1.1.495.44.44.66 1.155.66 2.2 0 1.045-.22 1.76-.605 2.2-.385.44-.99.715-1.815.825v.055c.77.11 1.32.385 1.595.825.33.44.44 1.155.44 2.2v.935c0 .605.055 1.045.11 1.265.055.22.165.33.33.33s.275-.11.385-.33c.11-.22.22-.605.275-1.265.055 0 .165 0 .22.055-.11 1.045-.275 1.705-.55 2.09-.275.33-.77.55-1.54.55s-1.32-.22-1.65-.66c-.33-.44-.495-1.32-.495-2.585v-1.32c0-.66-.055-1.155-.22-1.43-.055-.44-.33-.55-.715-.55Zm-.715-5.775v5.445h.44c.55 0 .935-.22 1.21-.66.275-.44.385-1.1.385-2.035v-.495c0-.935-.11-1.54-.385-1.815-.275-.275-.66-.44-1.21-.385-.165-.055-.33-.055-.44-.055Z" fill="#9C9C9C"/><path fill-rule="evenodd" clip-rule="evenodd" d="M162.745 95.81c-.165.055-.33.055-.55.055-4.895-.165-10.945-16.445-14.41-20.02-2.695-2.75-5.555-5.115-8.745-7.315-2.64-1.87-5.39-3.575-8.03-5.445a39.77 39.77 0 0 1-3.795-3.025.42.42 0 0 1-.11-.275c2.365.44 8.415 3.905 9.9 4.73 5.665 3.245 8.14 4.51 12.21 9.9l2.145 2.86v-.22l1.155 1.595c1.98 2.695 3.905 5.445 5.72 8.305.88 1.21 4.62 7.205 4.51 8.855Zm-66.33 69.41c33.605 6.82 66.33-14.96 73.15-48.51a61.479 61.479 0 0 0-.495-26.895c-4.345-4.895-9.295-9.24-14.74-12.87l-2.805-1.87V73.7c.165-12.815-15.62-21.395-25.795-25.63-13.97-5.83-34.21-17.27-41.8-30.47l-2.09-3.63-.22 4.235c-.165 3.63.715 6.985 2.53 10.175.77 1.375 1.76 2.695 2.805 3.905l-2.255 1.76c-5.885 4.565-.11 11.44 3.465 15.29 3.96 4.235 9.405 7.81 14.465 10.67 1.32.715 2.97 1.375 4.345 2.035 2.695 1.32 5.39 2.695 7.975 4.235 2.2 1.32 9.57 5.885 9.24 8.91-.11.77-.77 1.43-1.43 1.815-.44.33-.99.495-1.54.55-3.465.275-8.415-5.775-10.505-8.14-2.365-2.695-5.445-6.545-8.525-8.415a94.44 94.44 0 0 0-8.36-4.565c-1.925-.99-3.96-1.925-5.775-3.025-1.87-1.155-3.41-2.475-4.895-4.125-4.015-4.4-5.005-11.33-6.105-16.94-1.705-8.965-10.725-16.83-18.81-20.24l-4.565-1.925 3.135 3.85c5.17 6.38 9.02 9.955 11.44 18.15a54.038 54.038 0 0 1 1.595 6.545c.22 1.32.715 5.225-.495 6.16-.275.22-.715.275-1.1.22-2.42-.275-4.125-2.805-5.005-4.785-1.54-3.465-1.76-7.59-1.1-11.22l.66-3.685-2.695 2.585c-7.04 6.655-3.465 16.885 2.2 23.21.77.88 1.87 1.705 3.08 2.475l-.33 3.465c-.44 5.17.44 10.175 4.18 14.025 8.415 8.69 26.235 6.93 33.165 15.18 7.315 8.635-1.155 10.395-6.655 3.795l-.055-.055-.055-.055c-5.335-5.5-11.385-11.275-19.195-12.87C61.655 74.14 53.075 65.12 52.855 49.72l.165-4.62-2.255 3.905c-3.025 5.28-4.455 10.945-2.53 16.885.44 1.32 1.045 2.64 1.76 3.85l-1.87 2.97c-1.155 1.87-1.87 3.96-2.035 6.16-.55 8.745 7.425 14.74 14.905 17.16 3.74 1.21 7.095 1.21 10.835-.055 1.815-.605 3.795-1.595 5.665-2.2l-.33 1.87c-.605 3.685-.495 7.425 1.485 10.725 1.925 3.3 5.225 5.555 8.525 7.37 4.235 2.31 8.855 4.235 13.255 6.27 4.07 1.87 8.525 4.785 10.89 8.745 1.045 1.76 2.035 4.62.66 6.49-1.375 1.815-4.235 1.485-6.16.935-4.675-1.375-9.46-5.335-12.815-8.745-7.865-7.92-14.08-21.615-23.815-26.95-13.695-7.48-29.15-5.885-28.655-26.565v-1.1l-2.2-.275-.22 1.1C33.99 92.895 41.965 98.12 51.04 101.2l-.22.825c-1.54 5.445-1.1 10.835 2.53 15.345 3.355 4.235 8.8 6.71 14.025 7.755.55.11 1.155.22 1.705.275l-.055 3.41c-.055 4.84 1.21 9.13 5.06 12.265 3.465 2.86 7.975 4.015 12.045 5.665 15.015 6.16 5.005 20.955-13.475 0-13.255-15.015-7.92-24.64-31.625-29.425l-6.765-.935 5.995 3.245c11.55 5.335 12.32 12.54 17.93 20.79 8.8 12.32 22.11 21.56 38.225 24.805Zm-9.24-132.825c.33.385.715.77 1.045 1.155 2.86 3.025 6.105 5.445 9.295 8.03 1.595 1.265 4.675 3.795 5.225 5.775.055.275.33 1.32.165 1.595-.825.55-5.335-1.76-6.215-2.145-4.18-1.76-10.835-6.435-9.955-11.66l.44-2.75ZM67.045 54.45c2.475 1.43 5.28 2.75 7.26 3.685 2.585 1.265 11 5.06 11.77 8.03.22.88.495 2.31-.22 3.025-1.1 1.1-3.905.44-5.17.055-2.915-.935-5.83-2.695-8.085-4.73-2.255-2.035-4.345-4.73-5.06-7.755l-.495-2.31Zm-16.39 16.28c3.575 5.555 9.35 10.285 13.86 14.575.275.275 1.98 2.035 1.76 2.53-.385.77-4.125.275-4.73.11-2.695-.55-5.61-2.64-7.48-4.62-2.53-2.75-3.96-6.16-3.63-9.9l.22-2.695Zm28.6 22.66c.715-.11 1.43-.055 2.145.055 4.73.935 11.11 7.15 12.595 11.66 1.155 3.52-.99 3.575-3.795 2.585-4.675-1.595-9.57-7.205-10.505-12.1l-.44-2.2Zm-26.015 8.415c7.92 2.42 16.005 3.96 17.38 12.155.165.825.275 2.365-.495 2.97-1.045.825-3.355.055-4.4-.33-2.475-.99-4.95-2.695-6.93-4.455-2.53-2.255-5.885-6.215-5.555-9.79v-.55Zm16.17 23.54c1.925.22 3.905.33 5.83.605 3.63.495 9.13 1.485 8.14 6.38-.165.77-.495 1.65-1.21 2.035-2.915 1.375-9.405-4.015-10.945-6.325l-1.815-2.695Z" fill="#fff"/><path fill-rule="evenodd" clip-rule="evenodd" d="M169.565 92.29c-4.565-5.5-9.955-10.395-16.005-14.355 2.585 3.575 13.035 17.93 9.735 18.975-6.435 2.09-12.43-16.115-16.39-20.24-7.37-7.59-14.52-10.285-20.625-15.895-3.685-6.215 10.395 2.09 11.33 2.64 5.885 3.355 8.305 4.51 12.595 10.23.165-12.21-15.51-20.515-25.08-24.475-17.655-7.37-35.53-19.14-42.295-30.965-.715 15.4 19.195 22.165 21.01 28.875 1.65 6.05-5.555 1.815-7.755.88-5.28-2.255-11.605-7.37-10.67-13.035-4.29 3.3-1.32 8.195 3.575 13.475 3.795 4.07 9.24 7.7 14.135 10.395 1.32.77 29.755 12.76 20.185 19.14-6.71 4.51-15.18-11.825-21.89-15.95-9.955-6.16-13.97-6.16-19.25-11.99-4.51-4.895-5.555-13.2-6.38-17.545-1.65-8.8-10.78-16.225-18.04-19.36 5.445 6.71 9.13 10.065 11.66 18.535.77 2.585 4.62 15.18-1.265 14.465-4.84-.55-8.8-8.36-7.205-17.49-5.61 5.335-4.18 14.3 2.31 21.45 4.73 5.225 22.495 10.065 23.98 15.675 2.97 11-18.205 2.86-20.9-8.745-2.09 23.595 27.39 16.83 37.07 28.27 8.25 9.79-1.76 13.475-8.525 5.39-4.95-5.115-10.945-11-18.535-12.485C61.49 75.13 52.03 66 51.81 49.5 42.515 65.67 55 74.525 65.34 84.315c4.4 4.18 1.43 5.885-4.125 4.73-4.785-.99-12.87-7.095-12.1-15.84-4.73 7.425-.385 17.38 12.265 21.505 9.79 3.19 14.025-3.795 20.13-2.585 5.5 1.1 11.99 7.92 13.53 12.485 1.375 4.29-1.155 5.555-5.39 4.125-4.4-1.485-10.175-7.04-11.33-13.035-2.255 13.2 7.81 16.17 22.55 22.99 22.77 10.56 12.65 31.02-8.855 9.35-7.865-7.92-14.3-21.725-23.54-26.73-12.925-7.04-29.81-5.995-29.26-27.665C31.405 110 68.365 93.72 71.72 113.63c2.035 12.045-20.68-1.485-19.855-11.55-3.63 12.98 6.105 19.635 15.565 21.56 5.335 1.1 18.755.22 17.05 8.8-1.54 7.535-11.88-.055-14.41-3.85-.165 12.265 8.91 13.75 16.335 16.775 16.665 6.82 5.28 24.805-14.85 1.98-13.31-15.125-7.865-24.365-30.965-29.04 12.925 5.94 14.63 13.585 17.545 22 8.8 12.32 22.11 21.45 38.115 24.695 33.605 6.82 66.33-14.96 73.15-48.51 1.815-8.085 1.705-16.335.165-24.2Z" fill="#9C9C9C"/><path fill-rule="evenodd" clip-rule="evenodd" d="M153.945 51.7c-.77-3.575-.22-8.085 2.31-10.835 2.64-2.86 6.545-4.62 10.285-5.335 1.705-.33 4.235-.33 5.335 1.32l.825 1.32-7.59 8.14c.165 1.65 1.21 3.245 2.365 4.29 1.155 1.1 2.805 1.98 4.455 2.035l7.59-8.14 1.375.77c1.76.935 1.925 3.52 1.705 5.225-.44 3.795-1.925 7.865-4.565 10.67-1.595 1.705-3.96 2.695-6.215 3.08-2.695.44-5.445.11-7.975-.935-2.915.275-6.325 1.98-8.745 3.41l-8.58 5.06c.935.715 1.87 1.375 2.805 2.035 1.485.99 3.74 2.365 4.07 4.29.11.66.055 1.32-.22 1.925.605.55 1.155 1.155 1.595 1.76.935 1.43 1.375 3.19.605 4.785-.22 1.045.165 5.115.275 6.27.22 3.025.99 9.625-.495 12.65.055.55-.055 1.155-.22 1.705-.055.22-.11.605-.165.88-.165 1.155-.385 2.31-.935 3.41.11.77.055 1.485-.22 2.2-.33.935-.935 1.595-1.65 2.2 1.925 3.52 3.905 10.56 4.675 13.86.66 2.75 1.265 5.555 1.595 8.36l.165 1.155a66.718 66.718 0 0 1-9.79 10.67c-.275-.55-.605-1.1-.88-1.65-1.87-3.52-3.96-6.93-6.16-10.23-.275-.385-.715-1.045-1.21-1.76.44.935.935 1.815 1.375 2.695 2.035 3.795 4.18 7.59 6.435 11.385a65.826 65.826 0 0 1-8.745 6.38 191.777 191.777 0 0 1-3.355-5.665c-1.045-1.76-2.145-3.685-3.025-5.555-.275-.66-.605-1.265-.88-1.925-1.485-3.245-2.475-5.225-5.17-7.81-1.98-1.925-3.52-4.4-4.345-7.04a9.287 9.287 0 0 1-.44-2.145c-1.595-.055-3.19-.605-4.455-1.43-1.76-1.1-3.135-2.53-4.51-4.015-.66-.715-1.32-1.375-1.98-2.09-2.145-2.2-3.08-4.07-1.375-6.82 0-.055.055-.055.055-.11-.22-.165-.385-.275-.55-.44-.99-.825-1.595-1.925-1.705-3.135-2.09-1.76-3.63-4.18-5.17-6.435-.55-.825-1.1-1.65-1.65-2.42-.22-.165-.44-.33-.66-.44l-8.305 4.95c-1.87 1.1-3.795 2.42-5.39 3.96.44 3.135-.165 6.82-2.31 9.13-.935 1.045-2.035 1.87-3.245 2.585-1.87 1.1-4.125 1.925-6.27 2.31-1.65.33-4.015.33-5.06-1.265l-.88-1.32 6.985-7.48c-.165-1.43-1.045-2.805-2.09-3.74s-2.475-1.76-3.905-1.815l-6.985 7.48-1.375-.77c-1.705-.935-1.87-3.3-1.65-4.95.385-3.52 1.76-7.26 4.18-9.845 3.135-3.41 8.8-3.685 12.925-2.09 2.86-.385 6.05-1.925 8.415-3.355l1.155-.66c-.385-.825-.66-1.705-.99-2.53-.495-1.43-1.21-3.52-2.145-4.675-.495-.55-.99-1.1-1.54-1.595-.44-.275-.935-.605-1.32-.935-.275-.275-.55-.55-.715-.88-1.1-1.21-1.65-2.53-1.32-4.18.385-1.705 2.145-3.41 3.465-4.455.99-1.32 2.42-2.75 4.07-3.025.77-.11 1.54 0 2.2.385.055 0 .11.055.22.055-.715-1.595-.99-3.3-.275-5.005.33-.77.99-1.485 1.65-2.035 2.145-2.09 6.05-3.85 8.965-4.345 1.705-.275 3.63-.165 4.785.99-.055-1.265.11-2.42.605-3.52 1.43-3.08 7.26-5.5 10.505-5.335.165 0 .275 0 .44.055 1.21-.055 2.475.11 3.41.88.44.33.77.77 1.045 1.265.11-1.485.55-2.86 1.705-4.015.44-.44 1.045-.77 1.595-1.045.99-.495 2.035-.77 3.135-.935 1.155-.165 2.31-.275 3.41-.22 1.21 0 2.64.055 3.795.385.44.165.88.33 1.265.605.66.275 1.32.715 1.815 1.21.88.935 1.21 2.145.935 3.355-.165.66-.385 1.32-.605 1.98-.66 1.98-1.1 3.63-.99 5.61.77.385 1.485.935 2.145 1.485l10.89-6.49c1.925-.935 3.795-2.2 5.39-3.74Z" fill="#fff"/><path fill-rule="evenodd" clip-rule="evenodd" d="M179.85 50.16c-.11.88-.33 2.31-.825 3.96-.55 1.705-1.485 3.575-2.915 5.17l-.33.33-.11.11a1.2 1.2 0 0 1-.275.22c-.055.055-.11.055-.165.11-.11.055-.22.165-.33.22l-.055.055c-1.43.715-2.97 1.32-4.565 1.485-1.595.165-3.245-.11-4.73-.66-1.485-.605-2.86-1.485-4.07-2.53-1.21-1.1-2.255-2.365-2.97-3.74 0 0 0 .11.055.385.055.11.055.33.165.55.055.22.22.495.385.825.275.55.715 1.21 1.375 1.98-.99.33-2.09.825-3.52 1.65a67.96 67.96 0 0 0-2.915 1.76v-.165c0-.715-.33-1.43-.825-1.98-.495-.55-1.21-.825-1.925-.88-.385 0-.715.055-1.045.165-.165.055-.33.11-.495.22-.165.11-.275.165-.44.275l-1.595.99-3.19 1.98-5.06 3.19c-.22-.275-.495-.55-.715-.825l11.385-6.765c2.805-1.705 5.115-3.41 6.765-5.225l.33-.33-.11-.44c-1.21-3.795-.22-7.535 1.375-9.24 2.86-3.08 7.04-4.125 8.745-4.455.77-.165 1.32-.165 1.705-.11l-6.435 6.93v.275c0 .165-.33 3.905 3.3 7.315 3.63 3.355 7.37 2.75 7.535 2.75l.275-.055 6.215-7.095c.055.33.055.88 0 1.595Zm-22.33 90.475c-.165-.825-.33-1.595-.385-2.31-.935-8.25-4.84-20.075-6.655-22.66.935-.715 1.76-1.32 2.09-2.365.22-.605.275-1.32.11-1.98.66-1.045.825-2.42.99-3.355.055-.44.11-.825.22-1.045.22-.605.22-1.155.165-1.595 1.21-1.925.99-6.16.55-12.265-.22-2.585-.495-6.105-.165-6.82.55-1.1.385-2.365-.495-3.685-.55-.825-1.375-1.65-2.31-2.31.165-.11.33-.22.495-.385.33-.385.44-.88.33-1.43-.22-1.21-1.595-2.145-3.52-3.465-1.32-.88-2.805-1.925-4.235-3.245l10.065-5.94c4.62-2.75 7.755-3.465 9.57-3.575 3.08 1.32 5.83 1.265 7.59.935 2.255-.385 4.29-1.375 5.5-2.695 3.19-3.465 4.015-8.14 4.235-10.01.33-3.08-.825-3.905-1.1-4.015l-.55-.33-7.26 7.865c-.77.055-3.3 0-5.83-2.365-2.53-2.365-2.75-4.84-2.75-5.665l7.26-7.865-.33-.55c-.165-.22-1.045-1.375-4.07-.77-1.815.33-6.435 1.485-9.625 4.95-1.76 1.925-3.08 5.94-1.87 10.34-1.485 1.54-3.52 3.08-6.05 4.565l-11.715 6.93c-1.045-1.045-2.09-1.815-3.135-2.2-.33-2.915.385-5.005.99-6.875.22-.66.44-1.265.55-1.87.165-.825-.055-1.595-.66-2.255-.385-.385-.88-.715-1.54-.99-.33-.275-.77-.44-.99-.495-.77-.22-2.035-.385-3.465-.33-1.1-.055-2.2.055-3.245.22-1.1.165-2.035.44-2.805.825-.495.22-.935.495-1.265.825-2.255 2.255-1.32 5.94.11 10.12.55 1.65.605 3.575.605 5.5-.22.165-.385.275-.605.44-2.585-5.335-3.245-8.8-3.52-11.605a2.232 2.232 0 0 0-.88-1.595c-.66-.495-1.54-.715-2.75-.605-.11 0-.275-.055-.44-.055-2.365-.11-8.03 1.815-9.35 4.62-1.485 3.19.385 7.755 2.365 11.825.33.66.55 1.375.77 2.145-3.63-4.29-4.455-6.985-5.17-9.185-.275-.825-1.155-2.145-4.345-1.65-2.64.44-6.325 2.09-8.36 4.015-.605.495-1.1 1.045-1.32 1.595-1.155 2.695.88 5.445 3.465 8.525.935 1.1 1.595 2.585 2.145 4.07-2.2-1.925-3.74-3.575-4.895-4.84-.33-.385-.66-.715-.935-.99-.22-.33-.44-.605-.66-.88a.883.883 0 0 0-.605-.275c-.44-.275-.935-.44-1.485-.33-1.155.165-2.365 1.32-3.41 2.64-1.54 1.21-2.915 2.64-3.19 3.85-.275 1.375.275 2.31 1.1 3.19.165.33.33.55.55.715.33.275.715.55 1.21.88.55.495 1.21 1.1 1.76 1.76.99 1.21 1.705 3.135 2.365 5.06.44 1.265.88 2.475 1.43 3.465l-2.09 1.265c-4.4 2.585-7.425 3.41-9.24 3.575-4.84-2.035-9.735-.66-11.88 1.65-2.915 3.19-3.685 7.48-3.905 9.185-.33 2.805.715 3.575 1.045 3.74l.55.33 6.655-7.205c.715-.055 3.025 0 5.28 2.145 2.255 2.09 2.53 4.345 2.53 5.115l-6.655 7.205.33.55c.22.33 1.045 1.265 3.795.77 1.155-.22 3.52-.77 5.885-2.2 1.045-.605 2.09-1.375 2.97-2.365 1.54-1.65 2.695-4.95 1.925-8.745 1.485-1.54 3.575-3.08 6.05-4.62l8.91-5.28c.11.055.22.055.275.11.495.22.88.55 1.32.825.66.935 1.21 1.815 1.815 2.64 1.815 2.695 3.3 4.95 5.335 6.545-.055.88.22 1.87 1.265 2.805.385.33.825.66 1.375.935a5.69 5.69 0 0 1-.605 1.155c-1.045 1.705-1.155 2.915 1.21 5.335.77.77 1.43 1.485 1.98 2.09 1.705 1.815 2.75 2.915 4.29 3.85 1.595.99 3.41 1.43 5.005 1.21 0 1.265.33 2.53.495 3.08.715 2.42 2.145 4.73 4.015 6.49 3.025 2.915 4.07 5.115 5.445 8.195.275.605.55 1.21.88 1.87.88 1.87 3.41 6.325 6.27 11.055.385-.22.715-.44 1.045-.715-2.86-4.73-5.335-9.075-6.215-10.89-1.925-4.125-2.75-6.765-6.6-10.45-3.135-3.025-4.29-7.04-4.07-9.02.495-.22.935-.55 1.32-.99l.495.165c.11.055.275.055.385.055.11.165.275.385.385.605.44 3.135 1.54 6.16 3.245 8.69a19.856 19.856 0 0 1-1.485-7.92c.275-.11.495-.22.77-.33 1.155.22 2.365.88 3.3 1.87a7.766 7.766 0 0 0-1.65-2.695c.275-.11.55-.22.825-.275.055 0 .165 0 .22-.055.77-.055 1.485.22 2.255 1.375 1.815 2.86-1.265 2.86 4.95 14.52a307.225 307.225 0 0 0 6.71 11.77l.99-.825c-2.42-4.07-4.785-8.195-6.6-11.55-2.31-4.29-3.245-6.93-3.685-8.69.385.33.825.66 1.265.99 1.65 1.21 7.095 9.185 11.275 17.27.33-.275.66-.605.935-.88-4.18-7.975-9.625-16.005-11.495-17.38-.825-.66-1.65-1.265-2.365-1.87-.055-.275-.055-.55-.055-.825-.055-.99-.11-1.925-.935-3.245-.165-.275-.33-.495-.495-.715.22-.165.495-.385.825-.55 2.365-1.32 4.565-1.265 6.215-1.76-.165.165-.33.385-.55.55-.22.22-.495.44-.715.605-.495.33-.88.605-1.21.77a3 3 0 0 1-.55.22s.22.055.605.11a3.7 3.7 0 0 0 1.65-.165c.33-.11.715-.22 1.045-.385.33-.165.715-.385 1.045-.66l.99-.825c.33-.33.605-.605.88-.935.275-.33.495-.66.77-.99.275-.33.495-.66.715-.935.44-.605.935-1.1 1.32-1.54l.11-.11c2.42 5.83 4.235 11.935 5.335 18.15a90.32 90.32 0 0 0-3.135-17.05c1.815 4.345 4.51 13.09 5.28 19.745.055.66.22 1.43.385 2.145.055.275.055.495.11.77l.11.66c.165-.275.55-.77.88-1.265Zm-5.17 5.94-.11.11c-.22-.385-.495-.935-.825-1.485-.385-.77-.935-1.65-1.485-2.585a61.1 61.1 0 0 0-1.815-2.915 35.871 35.871 0 0 0-1.925-2.805c-.66-.88-1.21-1.705-1.76-2.42-.55-.715-.99-1.265-1.32-1.65a5.43 5.43 0 0 1-.495-.66s.22.22.605.55c.385.385.88.88 1.485 1.54a30.51 30.51 0 0 1 1.925 2.31c.66.88 1.375 1.815 1.98 2.805.605.99 1.21 2.035 1.76 2.97.55.99.935 1.925 1.32 2.695.33.605.495 1.155.66 1.54Zm-.605.605-.44.44c-.44-.935-.88-1.87-1.43-2.75-.715-1.375-1.54-2.695-2.31-3.905s-1.485-2.365-2.145-3.355a46.84 46.84 0 0 0-1.54-2.365c-.385-.55-.55-.935-.55-.935s.22.33.66.825c.385.55 1.045 1.32 1.705 2.255.66.935 1.485 2.035 2.31 3.245s1.65 2.53 2.365 3.905c.55.88.99 1.76 1.375 2.64Zm-5.94 5.28c-.165.11-.275.22-.44.33-.77-1.1-1.54-2.255-2.255-3.41a67.39 67.39 0 0 1-2.145-3.85 60.807 60.807 0 0 1-1.65-3.465c-.44-1.045-.825-1.925-1.045-2.53-.22-.605-.385-.935-.385-.935s.165.33.495.935c.33.605.715 1.43 1.265 2.42.495.99 1.155 2.145 1.815 3.355.66 1.21 1.43 2.53 2.2 3.795.715 1.1 1.43 2.255 2.145 3.355Zm-.99.77-.275.165c-.22-.44-.44-.77-.605-1.045l-.275-.55s.165.165.385.495c.22.22.495.55.77.935Zm3.52-39.875c.44 0 .825.055 1.1 0 .275 0 .44-.055.44-.055s-.165.055-.385.165c-.275.11-.66.22-1.155.275a4.322 4.322 0 0 1-1.65-.11c-.605-.11-1.21-.33-1.815-.605a9.615 9.615 0 0 1-1.595-.99c-.495-.33-.88-.715-1.265-1.045-.33-.33-.605-.605-.825-.77a3.367 3.367 0 0 0-.275-.33s.11.055.385.22c.22.165.55.33.935.605.385.275.825.55 1.32.825.495.33.99.605 1.54.825.55.275 1.1.495 1.65.605.66.275 1.155.385 1.595.385Zm-66.495-7.92c.11.22.275.495.385.77.385.77.715 1.595.935 2.585.22.99.22 1.87.055 2.695a6.36 6.36 0 0 1-.605 2.035c-.385.825-.825 1.485-1.265 1.98a9.078 9.078 0 0 1-2.145 1.595c-1.98 1.21-4.07 1.705-5.115 1.925.99-.44 2.255-1.045 3.41-1.76 2.42-1.43 3.685-2.86 3.795-4.4.055-1.045-.055-2.035-.11-2.97-.11-1.595-.275-2.97.66-4.455Zm89.045-46.86c-2.475.275-4.125 0-5.555-.275-1.155-.22-2.145-.385-3.355-.22.935.715 2.145 1.595 3.795 2.255 1.815.715 3.355.825 4.565.77.495-.055.99-.11 1.375-.165 1.1-.22 2.035-.605 2.75-1.045.495-.275.88-.605 1.21-.935 1.32-1.43 2.145-3.08 2.695-4.62-.88 1.32-1.815 2.2-2.97 2.915-1.155.66-2.64 1.1-4.51 1.32Zm-12.815 3.52c1.98-.88 3.63-1.265 4.895-1.485-.22-.11-.385-.275-.605-.44-2.09.385-5.005 1.43-8.855 3.685l-9.24 5.5c-.385.275-.825.495-1.21.715.11.11.22.275.33.385l10.395-6.16a40.177 40.177 0 0 1 4.29-2.2Zm-67.54 39.71c-.935.55-1.815 1.1-2.64 1.705-1.375.99-2.53 1.925-3.575 2.915-.055.055-.11.165-.22.22-.055-.165-.165-.33-.22-.495 1.595-1.65 3.74-3.245 6.325-4.785l1.815-1.1.33-.165.825-.495 3.905-2.255c.055 0 .165 0 .275.055.165 0 .33.055.44.055l-7.26 4.345Zm-6.49 9.405c-.11.88-.33 1.705-.715 2.475-.77 1.54-2.09 2.75-3.52 3.685-.055 0-.11.055-.165.055-.055 0-.11.055-.11.055-.055.055-.11.055-.165.11-.165.055-.275.165-.44.22-.055 0-.055.055-.11.055-.165.11-.33.165-.495.275-.22.11-.33.165-.495.22-.055 0-.055.055-.11.055l-.495.165-.495.165c-.055 0-.055 0-.11.055-.165.055-.275.11-.44.165-.22.055-.33.11-.495.165-.165.055-.33.11-.44.11-.44.11-.825.165-1.1.22-.605.11-1.045.11-1.375.11-.055 0 .935-.99.935-.99l4.895-5.28v-.275c0-.165.33-3.63-3.025-6.71-3.355-3.135-6.765-2.53-6.93-2.53l-.275.055-5.83 6.27c-.055-.33-.055-.77 0-1.375.165-1.54.825-5.445 3.465-8.195 1.54-1.65 5.72-3.135 10.23-1.21l.165.055h.22c1.98-.165 5.28-.935 10.12-3.795l2.2-1.32.44.44-.11.055-.11.055-.11.055c-.055.055-.165.11-.22.165-.275.22-.55.55-.77.88a3.091 3.091 0 0 0-.33 2.2c.165.77.66 1.43 1.265 1.87.055.055.11.055.165.11-1.265.715-2.475 1.43-3.795 2.2-1.155.66-2.035 1.32-2.64 1.925-.22-.275-.44-.55-.605-.825a16.8 16.8 0 0 0-2.31-2.255c-.605-.44-.99-.715-1.265-.825-.275-.11-.385-.165-.385-.165 1.265 1.155 2.475 2.365 3.52 3.795.99 1.375 1.815 2.97 2.2 4.62.275.88.275 1.76.165 2.64Zm58.19-42.075 2.31-1.32 6.545-3.74.825-.495.22-.11.165-.11a.663.663 0 0 0 .275-.275c.385-.385.55-.88.55-1.43 0-.495-.165-1.045-.55-1.43-.33-.385-.88-.66-1.375-.715-.275 0-.55 0-.825.11-.11.055-.275.11-.385.165-.11.055-.275.165-.385.22l-1.65.935-3.3 1.87-5.225 2.915c.715.88 1.485 1.87 2.31 2.915l.495.495Zm8.69 42.24c-.055 0-.11.055-.165.055-.495.11-1.045.11-1.595 0s-1.1-.275-1.595-.55c-.495-.22-.935-.495-1.32-.715a9.399 9.399 0 0 1-.935-.605c-.22-.11-.385-.22-.385-.22s.11.11.275.33c.165.165.44.495.77.77l.165.165c-2.255-1.045-4.4-2.585-5.06-3.74-1.1-1.87-3.52-4.675-1.65-6.435 1.155-1.045 1.87-1.65 2.53-1.76.44-.055.825.055 1.32.385.605.44 1.265 1.595 2.145 2.64-.22-.165-.495-.33-.66-.495-.33-.275-.66-.495-.825-.66-.22-.165-.33-.22-.33-.22s.11.11.22.33c.165.22.385.495.715.825.33.33.66.715 1.1 1.045.44.33.935.715 1.43 1.045.495.33 1.045.605 1.54.825.495.22.99.385 1.43.55.44.165.825.22 1.045.275.275.055.385.055.385.055s-.11-.055-.385-.165c-.22-.11-.55-.275-.935-.495-.385-.165-.825-.44-1.32-.715-.055-.055-.165-.11-.22-.165.165 0 .33.055.495.055 3.19.055 3.905 1.21 3.465 2.64-.275 1.265-.22 4.015-1.65 4.95Zm-4.18 5.775c-1.595 1.54-3.905 2.75-5.775 3.08-.99.165-1.815.055-2.31-.385-.88-.715-1.21-5.115-2.805-5.885-1.595-.77.275-1.65 1.375-3.63.77-1.485 1.595-2.53 2.365-2.64.275-.055.55.055.825.275 1.595 2.09 5.885 4.51 8.855 4.95.385.055.825.055 1.155 0 .385-.055.77-.22 1.045-.385 0 .11-.055.22-.11.33-.495 1.375-2.255 1.925-4.62 4.29Zm-33.715-5.5c.275-1.1.825-1.595 1.54-1.705 1.155-.165 2.75.605 4.51 1.65-.11-.055-.22-.11-.33-.11-.33-.11-.66-.165-.825-.22a.798.798 0 0 1-.33-.055s.11.055.275.165c.165.11.44.22.715.385.33.165.66.385.99.605.385.22.715.495 1.1.77.385.275.715.55 1.045.825.33.275.605.55.825.825l.275.275c.055.055.11.165.165.22-.165.11-.33.33-.495.495-.22.33-.44.935-.22 1.815.55 2.09 1.21 3.685 1.98 4.785a8.12 8.12 0 0 1-1.595-.66c.385.715.935 1.375 1.595 2.035-.275.055-.605.055-.99.055a7.25 7.25 0 0 1-2.31-.385 8.2 8.2 0 0 1-2.365-1.265c-.77-.55-1.485-1.155-2.035-1.815-.605-.66-1.155-1.265-1.595-1.815-.44-.55-.825-1.045-1.1-1.375a8.152 8.152 0 0 0-.44-.495s.11.22.33.605c.22.385.495.88.88 1.485.055.11.165.22.275.385-.495-.55-1.1-1.155-1.76-1.815-3.025-2.97-.825-2.805-.11-5.665Zm-2.585-4.235c.385-.88 1.265-1.815 2.42-2.695-.495.495-.88 1.045-1.1 1.54-.275.495-.385.99-.495 1.32-.055.33-.055.55-.055.55s.055-.165.22-.495c.11-.33.33-.715.66-1.21.33-.44.77-.935 1.265-1.43a8.693 8.693 0 0 1 1.815-1.21c.66-.33 1.375-.605 2.035-.825.66-.22 1.32-.385 1.87-.55.385-.11.715-.165.99-.22-.44.88-.66 2.09.33 3.52.715.99 1.815 1.98 3.135 3.08.605.495 1.21 1.045 1.815 1.595a11.9 11.9 0 0 0-1.705-1.045c-.495-.275-.99-.44-1.265-.605l-.495-.165s.165.11.44.275c.275.165.66.44 1.155.77s.99.77 1.54 1.21c.55.44 1.1.935 1.65 1.485.55.495 1.045 1.1 1.54 1.595.165.165.385.33.55.495-.055 0-.11 0-.165.055-.11 0-.165.055-.275.055-.77.11-1.54.165-2.2.165-.66.055-1.265.055-1.76.165-.055 0-.165 0-.22.055-1.1-1.65-2.475-3.19-4.18-4.18-2.475-1.43-4.18-2.255-5.72-1.98-.77.11-1.705.55-2.31 1.87-1.32-.88-2.035-1.815-1.485-3.19Zm-4.675-7.04c.605-.11 1.265-.385 2.035-.88.77-.55 1.21-1.155 1.155-1.87 0-.935-.715-1.705-1.76-2.475l1.925-1.155c.33.275.66.495 1.045.77 3.41 2.31 6.38 3.905 7.425 5.5-.275-.33-.66-.605-.99-.825-.715-.44-1.375-.77-2.035-1.1l-4.015-1.98 3.52 2.805c.605.495 1.21.935 1.65 1.375.275.275.495.605.605.88-2.695.935-5.17 2.695-6.435 4.4l-2.53-2.64 2.2 3.135c-.11.165-.165.275-.22.44-1.815-1.54-3.245-3.74-5.005-6.435.44.11.88.165 1.43.055ZM89.76 95.7l.11-.055.385-.275.385-.22c.22.055.44.055.715.055.99 1.045 2.255 1.54 3.685 1.815l-2.42 1.485-.825.495c-.22.11-.44.22-.66.275-.495.11-.99 0-1.375-.275s-.715-.66-.825-1.155a2.13 2.13 0 0 1 .165-1.43c.11-.22.275-.385.44-.55.055-.055.11-.055.165-.11l.055-.055Zm6.655-16.5c.33.495.605.88.77 1.155.22.275.33.44.33.44s-.055-.165-.22-.495c-.165-.33-.33-.77-.605-1.32-.275-.55-.55-1.155-.935-1.815-.33-.66-.715-1.32-1.1-2.035a62.572 62.572 0 0 0-1.21-1.98c-.385-.605-.77-1.21-1.1-1.705-.33-.495-.605-.88-.825-1.155-.22-.275-.33-.44-.33-.44s.055.165.22.495c.165.33.33.77.605 1.265.11.165.22.385.275.605-1.705-2.145-2.695-4.015-1.98-5.665.275-.605 1.155-1.375 2.31-2.09l-.275.275c-.33.33-.55.66-.77.88-.165.22-.275.33-.275.33s.11-.11.33-.275c.22-.165.55-.385.88-.715.385-.275.825-.605 1.265-.88.495-.275 1.045-.55 1.595-.715.55-.22 1.155-.385 1.705-.55.55-.165.99-.11 1.32.165.055 0 .055.055.11.055.55 1.485.495 3.575.44 5.5v.605c-.11-.385-.22-.77-.275-1.155-.22-.715-.33-1.375-.385-1.815-.11-.44-.165-.715-.165-.715s-.055.275-.11.715c-.055.44-.055 1.1-.055 1.87.055.77.11 1.65.275 2.64.22.935.495 1.925.825 2.915.385.935.88 1.87 1.375 2.75.55.825 1.045 1.54 1.595 2.145.495.55.99 1.045 1.32 1.32.33.275.55.44.55.44s-.11-.22-.33-.605c-.22-.385-.55-.935-.935-1.595-.385-.66-.77-1.43-1.21-2.255a4.257 4.257 0 0 1-.385-.88c.715.77 1.595 1.595 2.42 2.365 1.045.99 2.31 2.2 2.585 2.695-.165.33-1.265 1.32-3.245 2.145-1.925.825-3.685 1.1-4.4.66-.715-.33-1.32-1.925-1.98-3.575Zm12.76-3.85c.275 1.705.55 3.245.99 4.455l-1.65.99c-.385-.55-.77-.99-1.265-1.265-.385-.66-1.32-1.54-2.75-2.86-1.595-1.485-3.575-3.355-3.905-4.4-.055-.165-.11-.44-.165-.66.33.385.715.77 1.1 1.1a6.877 6.877 0 0 1-.495-2.035c.44.605.935 1.155 1.43 1.65-.33-.66-.55-1.375-.77-2.035a49.275 49.275 0 0 0 4.07 5.94c-1.43-2.42-2.64-4.95-3.575-7.59a62.042 62.042 0 0 0 3.135 4.895c-1.21-2.255-2.2-4.62-3.08-7.04.99 1.925 2.09 3.74 3.41 5.335-1.1-1.98-1.98-4.07-2.585-6.215.935 2.09 2.53 4.675 5.775 8.195.165.495.275 1.045.33 1.54Zm10.23-6.93c-.55.33-1.375.935-2.255 1.705-.77-1.265-1.375-2.475-1.485-3.3-.11-.99.11-2.75.385-4.62.055-.22.055-.44.11-.605.22.715.495 1.43.825 2.09a21.14 21.14 0 0 1 0-2.64c.495 1.265 1.1 2.53 1.76 3.74-.44-1.375-.715-2.695-.99-4.07.495 1.87 1.155 3.74 2.255 5.28-.825-1.485-1.155-3.135-1.375-4.785.55 1.705 1.32 3.685 2.475 6.05-.66.44-1.21.825-1.705 1.155Zm9.955-4.4c-.825.825-1.705 1.595-2.75 2.255.99-.11 1.98-.33 2.915-.66-.055.165-.055.33-.11.44-.33.88.055 2.2.66 3.245-2.695.275-5.28.935-7.7 1.98 1.76-.33 3.52-.495 5.28-.495-.055 0-.165 0-.22.055-1.54.22-3.135.44-4.29.935-2.915 1.21-6.875 2.31-8.195 2.31.55-.99 2.86-3.245 5.115-4.675.55-.33 1.155-.825 1.925-1.375 2.035-1.375 4.84-3.465 7.37-4.015Zm-5.995-3.85c-1.32-3.905-2.145-7.095-.385-8.855.55-.55 1.87-.99 3.355-1.21.33-.055.605-.11.935-.11-.11.055-.22.055-.385.11-.495.165-.88.33-1.155.495-.275.165-.44.22-.44.22s.165-.055.44-.11c.275-.11.715-.165 1.21-.275.495-.11 1.1-.11 1.705-.11s1.32.055 1.925.275c.605.165 1.1.605 1.43 1.1.33.495.55 1.045.605 1.54v.055c-.33 1.265-.88 2.585-1.43 3.795-.22.495-.385.99-.605 1.43 0-.33.055-.605.11-.88.055-.55.11-1.1.22-1.54.055-.44.11-.88.165-1.155.055-.275.055-.44.055-.44s-.11.11-.275.33c-.165.22-.385.55-.66.99-.22.44-.44.99-.605 1.54a10.822 10.822 0 0 0-.33 1.925v.11c-.055-.165-.055-.275-.11-.44-.055-.275-.165-.495-.165-.66-.055-.165-.055-.275-.055-.275s0 .11-.055.275c0 .165-.055.385-.055.715 0 .275 0 .605.055.99.055.33.11.715.165 1.1.11.385.22.715.33 1.045.055.165.11.33.165.44-1.87.275-3.795 1.32-5.61 2.475.055-1.595-.055-3.355-.55-4.895Zm9.57.99c-.715.055-1.265.22-1.705.55 0-.165-.055-.275 0-.385 0-.495.22-1.1.495-1.815-.055.55-.11 1.045-.11 1.595.33-1.155.77-2.2 1.265-3.245l-.275 1.21.66-1.375c-.165 1.045-.22 2.2-.11 3.52-.11-.055-.165-.055-.22-.055Zm8.14 8.525-.22-.33c-3.135-3.96-5.61-7.04-7.81-6.93-1.485.055-1.76 1.1-2.09 2.75-.055.44-.165.88-.275 1.265-.22.605.33 2.2 1.21 3.08.22.22.605.55.935.385.66-.22 1.32-.055 2.09.33a3.558 3.558 0 0 0-.495-.44c-.495-.44-.88-.77-1.155-.99-.275-.22-.44-.385-.44-.385s.165.11.495.275c.33.165.77.44 1.32.825.495.385 1.155.825 1.705 1.375.605.55 1.21 1.155 1.815 1.76.605.66 1.155 1.265 1.65 1.87.495.605.935 1.21 1.32 1.76.385.495.66.99.88 1.265l.33.495s-.165-.165-.385-.44-.605-.66-1.045-1.155c-.22-.22-.44-.44-.66-.715.385.715.77 1.54 1.155 2.365.66 1.43 1.705 3.795 2.255 3.96 1.375.275 1.595-.22 2.035-1.045.11-.22.22-.44.385-.66a11.835 11.835 0 0 0-2.145-3.41 15.178 15.178 0 0 1 3.575 2.42c.495-.055.99-.055 1.54-.055.605 0 1.375 0 1.87-.165.11-.275.165-.605-.055-.935-.275-.44-.825-.715-1.43-1.1-.605-.385-1.265-.77-1.925-1.155-.66-.44-1.265-.825-1.87-1.21-.605-.385-1.1-.77-1.595-1.1-.495-.33-.825-.66-1.1-.825-.275-.22-.385-.33-.385-.33s.165.055.495.22c.275.165.715.33 1.21.66.275.165.55.275.825.44-.275-.22-.605-.44-.88-.715-.715-.66-1.485-1.32-2.145-1.98-.66-.66-1.265-1.265-1.76-1.815-.495-.55-.88-1.045-1.155-1.375-.275-.33-.44-.55-.44-.55s.165.165.495.44c.33.275.77.715 1.32 1.21.055.275.275.495.55.66ZM119.24 102.08h-.165c.055.055.11 0 .165 0ZM98.67 92.4c.165-.165.33-.275.44-.44 1.265 1.265 2.695 2.31 4.18 3.19a20.99 20.99 0 0 1-1.925-2.585c.275.22.495.44.77.66.605.44 1.32.88 2.09 1.375 1.485.935 3.465 2.2 3.465 3.025 0 .22-.22.495-.605.77-.935.605-1.595.77-2.255.66-.11-.055-.22-.055-.33-.11-.44-.165-.88-.44-1.32-.77-.44-.33-.935-.77-1.54-1.1l-1.65-.825c-.495-.275-1.045-.44-1.485-.66-.44-.22-.825-.33-1.045-.44-.275-.11-.385-.165-.385-.165s.11.11.33.275c.22.165.55.385.935.605.165.11.385.22.605.385-.495-.055-.99-.165-1.485-.22-1.595-.165-3.19-.385-4.4-1.1 2.145-.385 4.455-1.54 5.61-2.53Zm-.715-8.36c.55.33 1.32.44 2.2.33.165.385.33.715.55.99l-3.63 2.145c-.275-.275-.55-.55-.88-.825-1.76-1.65-3.96-3.685-4.29-4.62-.055-.11-.055-.22-.11-.385a37.863 37.863 0 0 0 4.785 4.62 31.868 31.868 0 0 1-3.19-4.51 29.165 29.165 0 0 0 3.3 2.53c-1.54-1.43-2.86-3.025-3.905-4.785a17.534 17.534 0 0 0 2.31 1.65c-.77-.825-1.485-1.65-2.09-2.585.88.77 1.815 1.65 2.97 2.53.44 1.32 1.045 2.365 1.98 2.915Zm13.2-2.695c.33.275.66.44 1.1.55.66 1.265 1.76 2.255 2.915 3.08l-2.2 1.32c-.495-.33-.935-.715-1.265-.99-.825-.77-1.485-1.87-2.09-2.86-.055-.11-.11-.165-.165-.275l1.595-.935c0 .055.055.11.11.11Zm30.69 14.135c-.77-.44-1.925-.66-3.63-.385-.33.055-.715.165-1.045.22l-1.375-3.08.825 3.245c-.275.055-.55.165-.825.275-.55-1.595-1.76-3.41-3.19-5.665 0-.055-.055-.055-.055-.11-.22-1.815-.44-3.795-.77-6.05.055.22.165.44.22.605.715 1.925 1.485 4.125 4.84 3.74h.22c.825-.165 1.43-.495 1.76-1.1.77-1.54-.55-3.96-1.815-6.27-.44-.825-.825-1.54-1.155-2.2l2.64-1.54c.55 2.86.605 5.115 2.475 8.58.77 1.43 1.595 2.75 2.255 3.96 0 .385-.055.77-.055 1.155-.055 1.045-.11 2.09-.165 3.08-.44-1.21-.99-2.42-1.65-3.52.385 1.65.55 3.355.495 5.06Zm-29.92-1.87c.825.55 1.815.935 3.025.715.605-.11 1.32-.33 2.09-.825.935-.55 1.43-1.21 1.43-1.98s-.44-1.485-1.155-2.145l1.87-1.1c.44.495.88 1.045 1.485 1.595 1.98 1.87 3.795 3.41 5.115 4.785a11.378 11.378 0 0 0-2.64-1.705 10.528 10.528 0 0 1 3.52 5.39c-2.035.33-3.96 1.21-5.28 2.31a10.198 10.198 0 0 0-2.86-3.41 10.089 10.089 0 0 1 2.365 3.685c-.495-.11-1.045-.11-1.595-.11-.44-2.035-2.75-3.465-5.885-5.5-.33-.22-.66-.44-.99-.605-.165-.385-.33-.715-.495-1.1ZM110 92.18c.165.44.33.825.495 1.21-.385-.275-.77-.605-1.1-.88l.605-.33Zm-5.335 1.265c-.11-.055-.22-.165-.385-.22l1.98-1.155 2.2-1.32c.055.055.165.11.275.165l.055.055-4.125 2.475Zm-2.145-6.105-2.97 1.65c-.22-.22-.495-.385-.715-.55l2.915-1.76c.275.22.495.44.77.66Zm14.465-1.21-2.255 1.32c-.11-.055-.22-.165-.33-.22l2.255-1.32c.11.11.22.165.33.22Zm1.925-6.49 4.18 6.105-.825-2.2c.055.055.055.11.11.165.44.55 1.045 1.21 1.65 1.87 1.485 1.595 3.52 3.795 3.245 4.895 0 .11-.11.44-.715.66-1.815.77-2.585-.055-3.795-1.76.275.165.495.33.77.495.385.22.77.385.99.495.275.11.385.165.385.165s-.11-.11-.33-.275c-.22-.165-.495-.385-.88-.66s-.77-.66-1.21-.99c-.44-.385-.88-.77-1.32-1.21-.44-.385-.88-.825-1.32-1.21-.385-.385-.825-.77-1.155-1.045-.33-.33-.66-.55-.825-.715a3.367 3.367 0 0 1-.33-.275s.11.11.22.33c.165.22.385.55.66.88.11.11.22.275.385.44-.22-.11-.44-.22-.605-.385-1.65-.99-3.465-2.035-4.565-3.52h.055c1.43-.22 2.86-.935 3.465-1.265.385-.11 1.1-.495 1.76-.99Zm9.35-.605c.055.11.165.165.22.275l-5.39 3.19c-.055-.11-.11-.165-.22-.275 1.815-1.1 3.63-2.145 5.39-3.19Zm8.965-4.895-2.145 1.265c0-.165-.055-.275-.055-.44.66-.385 1.265-.77 1.925-1.155.11.11.22.22.275.33Zm-2.585 11.825c-.11-.22-.33-.55-.55-.99-.22-.385-.495-.88-.825-1.375-.275-.495-.605-1.045-.935-1.595 0-.055-.055-.11-.11-.165l-.055-.11c-.275-.44-.55-.88-.77-1.265-.33-.495-.66-.935-.88-1.32-.275-.385-.495-.715-.66-.935-.165-.22-.275-.33-.275-.33s.055.165.165.385c.11.22.22.495.385.88-1.375-1.595-2.97-3.52-3.575-5.39 1.705.33 3.74.275 5.335 0 .22-.055.44-.055.605-.11.33 2.695 1.1 5.225 2.2 7.59-.275-1.21-.44-2.475-.55-3.74.11.44.22.825.385 1.21.33.77.825 1.705 1.32 2.64.935 1.76 2.255 4.18 1.815 5.115-.055.11-.165.385-.935.44-2.035.22-2.64-.66-3.245-2.145.11.11.165.22.275.33.275.385.55.66.77.825.22.165.33.275.33.275s-.11.055-.22-.22Zm-1.155 7.865a10.603 10.603 0 0 0-1.65-1.485 10.002 10.002 0 0 1 1.65 4.51c-.77.495-1.43 1.045-1.87 1.65-.055.11-.165.22-.22.33a9.642 9.642 0 0 1-1.43-2.805c.11.88.385 1.76.77 2.64-.495-.22-1.045-.33-1.65-.385v-.165c.11-1.76-1.32-3.41-3.52-5.445.11 0 .22 0 .33-.055.385-.055.77-.165 1.155-.33.825-.33 1.32-.88 1.485-1.595.385-1.705-1.54-3.85-3.41-5.885l2.585-1.485c.385 1.43.935 2.86 2.09 4.675 1.375 2.255 2.75 4.235 3.685 5.83Zm-2.475-6.27c-.055-.055-.11-.11-.11-.22-1.54-2.42-1.925-4.18-2.365-6.105l1.1-.66c.165.165.275.33.385.495.44 2.365.715 4.51.99 6.49Zm-28.05 4.73c-.77-.55-1.375-1.265-2.035-1.98-.275-.33-.605-.66-.935-.99.935-.605 1.925-1.21 2.86-1.815 1.155.825 2.53 1.54 3.685 2.145.11.055.275.11.385.22l-1.43.88-2.53 1.54Zm33-19.525c-.385.22-.715.44-1.1.66-.055-.22-.055-.44-.11-.66.22-.22.33-.44.385-.715.275.22.55.495.825.715Zm-8.305-.66c1.595-.22 3.19-.44 4.345-.99a1.54 1.54 0 0 0 1.21 0c.11-.055.275-.055.495 0 .11.275.165.55.165.715-.22.275-1.485.77-3.74.935-1.65.11-3.135-.055-4.18-.385.55-.11 1.155-.22 1.705-.275Zm-7.095 3.465 4.07-2.42c.165.11.33.165.495.22.275 1.54 1.155 3.025 2.2 4.455-1.705.99-3.41 2.035-5.115 3.025-.165-.385-.33-.715-.495-1.1a16.534 16.534 0 0 0-.935-1.98c.165-.33.275-.715.22-1.045-.055-.275-.22-.66-.44-1.155Zm-14.3 6.38c1.705 2.365 3.85 4.18 5.995 5.94-.385-.495-.715-.935-1.1-1.43.66.605 1.595 1.21 2.53 1.815 1.54.99 3.575 2.365 3.575 3.245 0 .385-.44.715-.825.935-1.65.99-2.695.77-3.685.165-.055-.055-.11-.055-.165-.11-.165-.11-.385-.275-.605-.44-.275-.22-.55-.495-.825-.77-.385-.385-.77-.715-1.21-1.045l-.165-.165c-.495-.44-.99-.935-1.485-1.32-.495-.44-.99-.77-1.375-1.1-.44-.275-.825-.495-1.045-.66-.275-.11-.44-.22-.44-.22l.33.33c.22.165.55.495.935.825.275.22.55.55.88.88-.165-.055-.275-.165-.44-.22-2.145-1.045-4.675-2.365-5.72-4.4 1.815-.44 3.685-1.43 4.84-2.255Zm29.04 33.165c.44.22.935 1.98 1.155 2.805.33 1.1.605 2.035 1.045 2.585a10.501 10.501 0 0 1-1.815-.33c.605.55 1.265.99 1.98 1.43-.275.11-.605.22-.99.385-.22.055-.495.165-.715.22-.055 0-.165 0-.22.055-.55.11-1.155.165-1.815.22-.66.055-1.375.11-2.09.11-.715 0-1.43 0-2.09-.11-.66-.11-1.265-.22-1.76-.385-.495-.165-.935-.33-1.21-.495-.275-.11-.44-.22-.44-.22s.11.11.385.33c.275.22.605.495 1.155.715.495.22 1.1.495 1.815.605.495.11.99.165 1.485.165-1.595.165-3.08.165-4.29-.11-1.76-.385-2.86-4.015-3.355-5.72-.22-.825.22-1.155 1.1-1.265.935-.165 2.365-.11 3.905-.33.11 0 .22-.055.33-.055.605-.11 1.155-.275 1.65-.44.825.385 1.705.55 2.64.385.66-.11 1.265-.33 1.925-.715.055.055.165.11.22.165Zm-1.265-1.43c.055.11.055.22.11.33-.385.22-.825.33-1.21.385-1.32.22-2.64-.385-4.07-2.2-3.52-4.4-8.8-6.6-7.865-9.13.495 1.43 1.54 2.585 2.86 3.135-1.43-.77-2.31-2.31-2.475-3.795 1.045-1.375 3.3-2.42 5.445-2.805 2.255-.385 4.51.11 5.225 1.925.385.99 1.1 2.035 1.925 3.025a6.022 6.022 0 0 1-.605-.55c-.275-.22-.55-.385-.715-.495-.165-.11-.275-.165-.275-.165s.055.11.22.275c.11.165.33.385.55.66.22.275.495.605.77.935.275.33.605.715.88 1.045.33.33.605.715.88 1.045.275.33.55.66.77.935.11.11.22.275.275.33-.22.33-.385.66-.605 1.045-.33.55-.715 1.045-1.045 1.485-.66.88-1.265 1.595-1.045 2.585ZM141.9 97.46c-.99.165-1.87.825-3.19 2.09-2.255 2.145-.44 5.06.715 6.875-.605.11-1.155.44-1.705.99-.55-.88-1.265-1.76-1.925-2.585-.77-.935-1.485-1.87-2.035-2.75.165.11.33.165.385.22.165.055.22.11.22.11s-.055-.055-.165-.22c-.11-.11-.275-.275-.44-.495-.22-.22-.385-.44-.55-.715-.055-.165-.165-.33-.275-.495a1.02 1.02 0 0 1-.11-.385c-.055-.33-.055-.605.055-.88s.33-.495.495-.66c.22-.165.385-.33.495-.44a.95.95 0 0 1 .22-.165c1.21-.77 2.86-1.43 4.29-1.65 1.705-.275 3.19 0 3.575 1.155h-.055Zm1.485-10.12c-.44-.715-.88-1.485-1.32-2.31-1.43-2.64-1.76-4.51-2.09-6.6v-.11c.055.11.11.275.165.385 1.265 2.75 2.09 4.4 3.135 4.675.165.055.33.055.44.055-.11 1.1-.22 2.42-.33 3.905ZM110 72.71c.11.275.165.495.22.715.22.605.385 1.155.495 1.54.11.385.22.55.22.55s-.055-.22-.055-.605c-.055-.385-.11-.935-.275-1.595-.165-.66-.275-1.375-.495-2.2-.22-.77-.44-1.65-.715-2.475-.275-.825-.605-1.65-.88-2.42-.33-.77-.66-1.485-.935-2.035-.275-.605-.55-1.1-.715-1.43l-.275-.55s.055.22.165.55c.11.385.33.88.495 1.485.22.605.44 1.32.715 2.09.165.495.385 1.045.55 1.595-1.76-3.685-3.3-7.645-2.09-10.23.495-1.155 2.255-2.255 4.18-3.025-.055 0-.11.055-.11.055-.385.275-.715.55-.935.715l-.33.33s.165-.055.385-.22.605-.33 1.045-.495c.44-.22.935-.385 1.485-.605.495-.165 1.045-.33 1.54-.33.22.11.495.33.715.495.22.22.44.495.55.825.165.33.275.66.33.99 0 .055 0 .11.055.165 0 1.65-.275 3.575-.55 5.335l-.165 1.32c-.165-1.1-.33-2.09-.385-2.97-.11-.935-.22-1.705-.22-2.255-.055-.55-.055-.88-.055-.88s-.055.33-.165.825c-.055.55-.165 1.32-.22 2.255-.055.935 0 2.035.055 3.245.11.88.22 1.815.385 2.75-.11-.385-.22-.77-.275-1.1-.11-.385-.22-.715-.22-.935-.055-.22-.11-.33-.11-.33v1.375c.055.385.055.88.165 1.375.11.495.22 1.045.385 1.54.165.495.385.99.605 1.485.22.44.44.88.66 1.21.11.165.165.275.275.385.055.11.055.165.11.275-1.1 1.1-1.98 2.255-1.925 2.97.055.275.165.495.44.66.385.22 1.155.22 2.09.055.385-.055.77-.165 1.155-.22.165.275.33.495.44.715.33.44.495.715.495.715s-.11-.275-.275-.825c-.055-.22-.165-.44-.275-.715.275-.055.605-.165.88-.22.605.99 1.1 1.87 1.21 2.255 0 .385-1.32 1.76-3.685 2.86-1.87.88-3.52 1.155-4.07.605-.825-.77-1.21-2.97-1.595-5.335-.165-.66-.33-1.485-.495-2.31ZM87.78 88.77c.055.11.11.22.165.275.275.55.55 1.045.715 1.375l.275.55s-.055-.22-.165-.55c-.11-.385-.275-.88-.495-1.485-.22-.605-.495-1.32-.88-2.035-.385-.715-.77-1.485-1.21-2.255-.44-.715-.935-1.43-1.43-2.09-.495-.66-.99-1.21-1.43-1.705-.44-.495-.825-.88-1.1-1.1-.275-.275-.44-.385-.44-.385l.33.495c.22.275.55.77.935 1.265.22.275.44.605.66.935-.275-.275-.605-.55-.88-.77-1.485-1.265-2.2-1.925-1.925-3.08.11-.605.88-1.54 1.87-2.475-.22.33-.385.605-.495.825-.11.22-.165.385-.165.385l.275-.275c.165-.22.385-.44.715-.77.275-.33.66-.605 1.045-.935.385-.33.88-.66 1.32-.935.44-.275.935-.55 1.43-.605.33-.055.605-.055.88 0 1.045 1.485 1.705 4.29 2.145 6.435-.275-.495-.495-.99-.715-1.43-.385-.66-.66-1.265-.825-1.65-.22-.385-.33-.66-.33-.66s.055.275.11.715c.11.44.22 1.1.44 1.87s.55 1.595.88 2.53c.385.88.88 1.815 1.375 2.75.55.88 1.155 1.76 1.705 2.53.605.77 1.21 1.43 1.76 2.035.55.55 1.045.99 1.375 1.265.385.275.55.44.55.44s-.165-.22-.385-.605c-.275-.385-.605-.935-1.045-1.595-.385-.55-.825-1.21-1.265-1.98.495.495 1.1.99 1.705 1.595 1.265 1.155 2.805 2.64 3.08 3.135-.11.33-1.155 1.265-3.19 2.2-2.145.935-4.07 1.265-4.84.77-.99-.605-1.76-2.75-2.475-4.73 0-.11-.055-.22-.055-.275Zm65.45-3.08c-.77 1.54.44 9.075.44 14.3-.22-1.925-.66-3.85-1.21-5.665.33 2.97.22 5.94-.22 8.855-.77-.33-1.76-.55-3.025-.55-1.595-.055-2.695-1.54-3.685-2.86-.495-.715-.935-1.32-1.485-1.65-.11-.055-.165-.11-.275-.165.385-2.585.495-6.215.715-9.57 0 .055 0 .11.055.165.165.77.385 1.595.495 2.365.165.825.275 1.595.385 2.365.055.77.11 1.485.165 2.09v2.035s.055-.22.11-.55c.055-.385.165-.88.22-1.485.055-.605.11-1.375.055-2.145s-.165-1.65-.275-2.475a24.657 24.657 0 0 0-.605-2.365c-.165-.715-.33-1.32-.44-1.925.11-1.155.22-2.2.33-3.135.99-.275 1.375-1.1 1.65-1.705.275-.605.44-.88.77-.935.33-.055.66-.055 1.045-.055 1.21 1.21 2.255 2.64 3.135 4.18a26.26 26.26 0 0 0-.935-3.575c1.87 1.265 3.245 3.08 2.585 4.455Z" fill="#9C9C9C"/><path fill-rule="evenodd" clip-rule="evenodd" d="m38.995 148.72 73.425-5.06 73.37 5.06v32.945l-73.37 5.06-73.425-5.06V148.72Z" fill="#9C9C9C"/><path fill-rule="evenodd" clip-rule="evenodd" d="m40.15 149.765 72.27-4.95 72.215 4.95v30.855l-72.215 4.95-72.27-4.95v-30.855Z" fill="#fff"/><path fill-rule="evenodd" clip-rule="evenodd" d="m42.13 151.635 70.29-4.84 70.235 4.84v27.115l-70.235 4.84-70.29-4.84v-27.115Z" fill="#9C9C9C"/><path fill-rule="evenodd" clip-rule="evenodd" d="M52.03 174.955c-.055 0-.11-.055-.11-.165l.055-19.195c0-.055.055-.11.11-.11h3.41c.055 0 .165.055.22.11l2.53 3.685 2.53-3.685c.055-.055.11-.11.22-.11h3.41c.055 0 .11.055.11.11l.055 19.195c0 .11-.055.165-.11.165h-3.135c-.055 0-.11-.055-.11-.165l-.055-14.245-2.915 4.235-2.915-4.235-.055 14.245c0 .11-.055.165-.11.165H52.03ZM72.105 175.23c-.99 0-1.925-.275-2.75-.77s-1.485-1.21-1.98-2.035a5.364 5.364 0 0 1-.77-2.805v-8.855c0-1.045.22-1.98.715-2.805.495-.825 1.155-1.485 1.98-2.035a5.314 5.314 0 0 1 2.75-.77c.99 0 1.925.275 2.75.77a5.415 5.415 0 0 1 1.98 2.035c.495.825.715 1.76.715 2.805l.055 8.855c0 1.045-.22 1.98-.715 2.805-.495.825-1.155 1.54-1.98 2.035-.825.495-1.76.77-2.75.77Zm0-3.41c.55 0 1.045-.22 1.485-.66.44-.44.605-.99.605-1.54l-.055-8.855c0-.605-.22-1.155-.605-1.54-.385-.44-.88-.66-1.485-.66-.605 0-1.1.22-1.485.605-.385.44-.605.935-.605 1.595v8.855c0 .605.22 1.155.605 1.595.44.385.935.605 1.54.605ZM82.5 174.955c-.055 0-.11-.055-.11-.165v-15.95h-3.63c-.11 0-.11-.055-.11-.165l.055-3.135c0-.055.055-.11.11-.11H89.43c.11 0 .11.055.11.11v3.135c0 .11-.055.165-.11.165h-3.685l.055 15.95c0 .11-.055.165-.11.165H82.5ZM96.03 175.23c-.99 0-1.925-.275-2.75-.77s-1.485-1.21-1.98-2.035a5.364 5.364 0 0 1-.77-2.805l.055-8.855c0-1.045.22-1.98.715-2.805.495-.825 1.155-1.485 1.98-2.035a5.314 5.314 0 0 1 2.75-.77c.99 0 1.925.275 2.75.77a5.415 5.415 0 0 1 1.98 2.035c.495.825.715 1.76.715 2.805l.055 8.855c0 1.045-.22 1.98-.715 2.805-.495.825-1.155 1.54-1.98 2.035-.88.495-1.815.77-2.805.77Zm0-3.41c.55 0 1.045-.22 1.485-.66.44-.44.605-.99.605-1.54l-.055-8.855c0-.605-.22-1.155-.605-1.54-.385-.44-.88-.66-1.485-.66-.605 0-1.1.22-1.485.605-.385.44-.605.935-.605 1.595v8.855c0 .605.22 1.155.605 1.595.495.385.99.605 1.54.605ZM103.73 174.955c-.055 0-.11-.055-.11-.165l.055-19.195c0-.055.055-.11.11-.11h5.665c.99 0 1.925.22 2.805.715.825.495 1.54 1.155 2.035 1.98.495.825.77 1.76.77 2.805 0 .715-.11 1.32-.33 1.87-.22.55-.44.99-.715 1.375-.275.385-.55.66-.77.825.99 1.1 1.54 2.42 1.54 3.96v5.72c0 .11-.055.165-.165.165h-3.135a.118.118 0 0 1-.11-.11v-5.775c0-.66-.22-1.265-.715-1.76-.495-.495-1.045-.715-1.76-.715h-1.87l-.055 8.195c0 .11-.055.165-.11.165h-3.135v.055Zm3.3-11.715h2.42c.605 0 1.1-.22 1.54-.66.44-.44.66-.935.66-1.54s-.22-1.1-.66-1.54c-.44-.44-.935-.66-1.54-.66h-2.42v4.4ZM122.265 175.23c-1.045 0-1.925-.275-2.805-.77-.825-.495-1.485-1.21-1.98-2.035-.495-.88-.715-1.815-.715-2.86l.055-8.745c0-1.045.22-1.98.715-2.805.495-.825 1.1-1.54 1.98-2.035a5.364 5.364 0 0 1 2.805-.77 5.17 5.17 0 0 1 2.75.77 5.415 5.415 0 0 1 1.98 2.035c.495.825.715 1.815.715 2.86v1.265c0 .055-.055.11-.11.11h-3.135a.118.118 0 0 1-.11-.11v-1.265c0-.605-.22-1.155-.605-1.595-.385-.44-.88-.66-1.485-.66-.66 0-1.21.22-1.54.66-.33.44-.55.99-.55 1.595v8.745c0 .715.22 1.265.605 1.65.385.44.88.66 1.485.66.605 0 1.1-.22 1.485-.715s.605-.99.605-1.595v-1.265c0-.055.055-.11.11-.11h3.135c.055 0 .11.055.11.11v1.265c0 1.045-.22 2.035-.715 2.86a5.415 5.415 0 0 1-1.98 2.035c-.88.44-1.76.715-2.805.715ZM132.385 174.955c-.055 0-.055-.055-.055-.11v-7.92l-3.74-11.275c0-.055 0-.11.055-.11h3.08c.11 0 .165.055.165.11l2.09 7.535 2.09-7.535c0-.055.055-.11.165-.11h3.135c.055 0 .11.055.11.11l-3.795 11.165.055 8.03c0 .055-.055.11-.11.11h-3.245ZM146.135 175.23a5.364 5.364 0 0 1-2.805-.77c-.825-.495-1.485-1.21-1.98-2.035-.495-.88-.715-1.815-.715-2.86l.055-8.745c0-1.045.22-1.98.715-2.805.495-.825 1.1-1.54 1.98-2.035a5.364 5.364 0 0 1 2.805-.77 5.17 5.17 0 0 1 2.75.77 5.415 5.415 0 0 1 1.98 2.035c.495.825.715 1.815.715 2.86v1.265c0 .055-.055.11-.11.11h-3.135a.118.118 0 0 1-.11-.11v-1.265c0-.605-.22-1.155-.605-1.595-.385-.44-.88-.66-1.485-.66-.66 0-1.21.22-1.54.66-.33.44-.55.99-.55 1.595v8.745c0 .715.22 1.265.605 1.65.385.44.88.66 1.485.66.605 0 1.1-.22 1.485-.715s.605-.99.605-1.595v-1.265c0-.055.055-.11.11-.11h3.135c.055 0 .11.055.11.11v1.265c0 1.045-.22 2.035-.715 2.86a5.415 5.415 0 0 1-1.98 2.035c-.88.44-1.76.715-2.805.715ZM153.78 174.955c-.055 0-.11-.055-.11-.165l.055-19.195c0-.11.055-.165.165-.165h3.08c.11 0 .165.055.165.165l-.055 15.895h5.72c.11 0 .11.055.11.165v3.135c0 .11-.055.165-.11.165h-9.02ZM164.835 174.955c-.055 0-.11-.055-.11-.165l.055-19.195c0-.055.055-.11.11-.11h8.965c.055 0 .11.055.11.165v3.135c0 .055-.055.11-.11.11h-5.72v4.345h5.72c.055 0 .11.055.11.11v3.135c0 .055-.055.11-.11.11h-5.775v4.895h5.775c.055 0 .11.055.11.165v3.19c0 .055-.055.11-.11.11h-9.02ZM112.42 151.14l-49.94 1.925 49.94-3.85 49.885 3.85-49.885-1.925ZM112.42 179.245l-49.94-1.925 49.94 3.85 49.885-3.85-49.885 1.925Z" fill="#fff"/></svg>