<svg width="220" height="220" fill="none" xmlns="http://www.w3.org/2000/svg"><path fill-rule="evenodd" clip-rule="evenodd" d="m111.155 164.67.495-114.345 5.445 113.905.275-.055-4.455-113.905L123.2 163.13l.275-.055-9.35-112.915 15.015 111.21.33-.11-14.025-111.265 19.58 109.01.33-.165L116.71 49.775l23.87 106.205.33-.22L117.92 49.5l27.83 102.85.33-.22-26.895-102.96 31.46 99 .33-.275-30.58-99.11 34.65 94.655.33-.385L121.55 48.4l37.4 89.815.275-.44-36.465-89.87 39.545 84.59c.11-.165.165-.385.275-.55l-38.28-83.71c-4.675-1.21-9.625-1.815-14.685-1.815-3.96 0-7.81.385-11.55 1.155L58.19 134.75l.275.495 40.865-87.34-37.51 92.4.275.385 38.39-92.29-34.595 97.02c.11.11.22.22.275.33l35.475-96.91-31.185 101.09.275.275 32.065-100.98-27.39 104.72.33.22L104.115 49.5 80.85 157.245l.275.165 24.2-107.635-18.81 110.275.275.11 19.745-110.165-14.135 112.2.275.11L107.8 50.215 98.45 163.68l.275.055 10.34-113.41-4.455 114.235h.275l5.445-114.18.495 114.345.33-.055Zm13.2-116.435c.55.165 1.1.275 1.65.44l39.27 76.89-.22.66-40.7-77.99Zm1.815.495c.605.165 1.155.33 1.76.55l39.38 69.52c-.055.275-.11.55-.165.77L126.17 48.73Zm2.035.66c.605.22 1.265.44 1.87.66l38.445 61.435c-.055.33-.055.66-.11.935l-40.205-63.03Zm2.31.825c.66.275 1.375.55 2.035.825l36.19 52.635v1.21l-38.225-54.67Zm2.75 1.1c.77.33 1.54.715 2.31 1.045l32.285 42.845c.11.495.165.99.22 1.485l-34.815-45.375Zm3.575 1.705c.935.495 1.87.99 2.805 1.54l25.795 31.35c.22.66.495 1.375.715 2.09L136.84 53.02Zm5.17 3.025c1.485.99 2.915 1.98 4.29 3.08l13.365 14.85c.77 1.21 1.485 2.42 2.145 3.685l-19.8-21.615ZM71.005 60.72c1.87-1.65 3.905-3.135 5.995-4.51L60.17 73.095c1.21-1.815 2.475-3.575 3.85-5.225l6.985-7.15Zm9.13-6.435c.99-.55 1.98-1.1 3.025-1.65l-28.545 31.24c.275-.77.605-1.485.935-2.255l24.585-27.335Zm4.455-2.31c.825-.385 1.595-.715 2.42-1.1l-35.145 41.91c.11-.55.22-1.045.385-1.595l32.34-39.215Zm3.245-1.43c.715-.275 1.43-.55 2.145-.77l-39.325 51.26c.055-.44.055-.825.11-1.265l37.07-49.225Zm2.64-.99c.66-.22 1.265-.44 1.925-.605l-41.855 59.785c0-.33-.055-.66-.055-1.045l39.985-58.135Zm2.255-.715c.605-.165 1.21-.33 1.76-.495l-43.12 67.65-.165-.825L92.73 48.84Zm1.98-.55c.55-.165 1.1-.275 1.705-.385l-43.395 74.91c-.055-.22-.165-.44-.22-.715l41.91-73.81Zm1.76-.44c.55-.11 1.045-.22 1.595-.33L55.44 129.25c-.11-.165-.165-.385-.275-.55L96.47 47.85Z" fill="#9C9C9C"/><path fill-rule="evenodd" clip-rule="evenodd" d="M109.615 42.9c34.595 0 62.645 28.05 62.645 62.645s-28.05 62.645-62.645 62.645-62.645-28.05-62.645-62.645S75.02 42.9 109.615 42.9Zm0-2.31c-35.86 0-64.955 29.095-64.955 64.955S73.755 170.5 109.615 170.5s64.955-29.095 64.955-64.955c.055-35.86-29.04-64.955-64.955-64.955Z" fill="#9C9C9C"/><path fill-rule="evenodd" clip-rule="evenodd" d="M109.615 38.28c37.125 0 67.265 30.14 67.265 67.265s-30.14 67.265-67.265 67.265-67.265-30.14-67.265-67.265S72.49 38.28 109.615 38.28Zm0-4.07c-39.38 0-71.335 31.955-71.335 71.335 0 39.38 31.955 71.335 71.335 71.335 39.38 0 71.335-31.955 71.335-71.335 0-39.38-31.9-71.335-71.335-71.335Z" fill="#9C9C9C"/><path fill-rule="evenodd" clip-rule="evenodd" d="m121.44 179.355-.165.385-.77-.165c-2.53-.55-4.455-3.575-5.17-5.94l-.935-1.485c-4.455-1.045-2.86-9.405 1.925-8.415.66.11 1.21.44 1.65.935.165.22.385.495.55.66 4.015 1.595 6.93 1.87 11.055.055 6.105-2.695 8.855-8.965 8.525-15.345-.385-6.105-4.84-12.65-1.98-18.645 2.145-4.51 6.765-5.06 11.22-4.895 2.365.11 4.84-.165 7.205-.44 3.63-.44 7.15-1.1 10.725-1.76l1.65-.275-.11.33c1.87-.385 3.74-.825 5.555-1.21 2.09-.385 4.565-.77 6.71-.275 3.08-1.045 6.105-2.2 9.13-3.41 3.52-1.375 6.16-2.53 9.955-2.585l1.54-.055-.605 1.43c-1.045 2.475-3.63 4.895-6.6 6.93 1.76-.385 3.575-.55 5.335-.44l1.54.11-.715 1.375c-1.65 3.025-5.39 5.72-9.405 7.81 1.925-.165 3.85-.11 5.61.385l1.265.385-.715 1.1c-1.705 2.64-5.28 4.785-9.24 6.435 1.87 0 3.63.165 5.005.77l1.045.44-.605.99c-1.595 2.64-5.335 4.565-9.24 5.94 1.54.22 3.025.715 4.4 1.54l1.21.77-1.155.88c-2.365 1.87-5.665 3.025-8.965 3.795.66.275 1.265.66 1.925 1.21l1.045.825-1.045.77c-1.98 1.43-4.73 2.31-7.48 2.805.605.33 1.21.715 1.815 1.21l.99.88-1.1.715c-1.87 1.155-4.4 1.705-6.985 1.98.935.495 1.815 1.155 2.53 2.035l.825 1.045-1.21.495c-2.255.99-5.39 1.045-8.47.77.66.605 1.21 1.32 1.595 2.2l.44.99-1.045.385c-1.595.55-3.465.55-5.28.275.11.165.22.385.33.605l.44.935-.935.44c-1.815.825-4.235.605-6.38.055l.165.66.165.825-.825.275c-1.54.55-3.19.33-4.785-.165.055.33.11.66.11 1.045l.055.88-.88.165c-1.705.33-3.41-.165-4.895-.935v.77l-.055.66-.605.22c-1.65.605-3.575 0-5.225-.935-.055.33-.165.66-.33 1.045l-.22.66h-.715c-1.705-.055-3.245-.935-4.455-2.09-.055.165-.165.275-.22.44l-.275.55-.66-.055c-2.035-.055-3.575-1.265-4.785-2.75Z" fill="#fff"/><path fill-rule="evenodd" clip-rule="evenodd" d="M139.205 159.83c.165-.275.385-.55.55-.88.385-.66.825-1.485 1.155-2.42.33-.935.55-1.98.715-3.025.11-1.045.11-2.09.055-3.08-.055-.99-.22-1.87-.385-2.64-.055-.385-.165-.715-.275-1.045-.11-.275-.165-.55-.22-.77-.165-.44-.22-.66-.22-.66s.055.275.11.715c.055.22.11.495.165.77.055.33.11.66.165 1.045.11.77.165 1.65.22 2.585.055.935 0 1.98-.11 2.97-.11.99-.33 1.98-.605 2.915-.275.88-.605 1.76-.935 2.42-.165.33-.33.66-.495.935a9.793 9.793 0 0 0-.385.715 6.39 6.39 0 0 1-.385.605s.165-.22.44-.55c.11-.11.275-.33.44-.605Zm32.395-21.835c-1.155.22-2.255.385-3.245.55-.165 0-.33.055-.495.055.66-.165 1.32-.33 1.98-.55 3.355-.99 5.61-2.255 6.985-3.245.055 0 .055-.055.11-.055s.11-.055.165-.055c1.375-.385 2.805-.77 4.18-1.265 1.375-.44 2.75-.99 4.07-1.485 2.695-1.1 5.335-2.365 7.81-3.85-2.64 1.155-5.28 2.31-7.975 3.3-1.375.495-2.695.99-4.07 1.375-.935.33-1.925.605-2.86.88.385-.33.55-.605.55-.605.165-.165.275-.385.44-.605l-.66-.33c-.275-.11-.55-.22-.88-.33 3.575-.99 6.82-2.035 9.625-2.97 3.575-1.155 6.435-2.09 8.69-2.2-.605.66-1.65 1.705-3.3 2.915s-3.96 2.64-7.04 4.015c-4.235 1.98-9.515 3.575-14.08 4.455Zm-28.82-8.03c.165-.055.385-.11.605-.11.22-.055.44-.055.66-.11.935-.165 1.98-.22 3.135-.275 1.155-.055 2.365-.055 3.63-.055 1.21 0 2.475-.055 3.63-.11 1.155-.055 2.255-.275 3.19-.44.44-.165.88-.22 1.21-.385.33-.165.66-.275.88-.44.44-.33.715-.495.715-.495s-.275.165-.77.385c-.22.11-.55.22-.935.33-.385.11-.77.165-1.21.275-.935.165-1.98.22-3.135.275-1.155.055-2.365.055-3.63.055-1.21 0-2.475.055-3.63.11-1.155.11-2.255.22-3.19.44l-.66.165c-.22.055-.385.11-.605.165-.385.11-.66.22-.935.33-.495.22-.77.385-.77.385s.275-.11.825-.275c.33-.055.66-.11.99-.22Zm-26.62 34.76c.77.165 1.375.715 1.705 1.43l.275.11c2.475.99 6.215 2.475 11.825.055 7.095-3.135 9.405-10.395 9.13-16.335v-.165c-.055-.66-.11-1.32-.22-1.98-.165-.88-.33-1.705-.605-2.475-1.65-4.895-2.97-9.955-1.21-13.53.88-1.815 2.53-3.135 4.84-3.905 1.76-.55 3.52-.495 5.445-.44 1.265.055 2.64.11 3.96-.055 5.445-.605 13.475-2.035 13.53-2.035l.605-.11-.11.385c2.75-.55 5.17-1.155 7.26-1.54 2.695-.495 4.84-.715 6.545-.22 3.63-1.21 6.765-2.475 9.46-3.52 3.685-1.43 6.49-2.475 8.69-2.475h.88c-.11.275-.275.55-.44.825-.055.055-.605 1.1-2.255 2.75s-4.4 3.905-8.745 6.16c-.935.495-1.925.935-2.97 1.43 1.54-.495 3.025-.99 4.345-1.43 3.685-1.21 6.545-2.035 8.745-1.815l.88.055c-.11.22-.33.495-.495.77-.055.055-.66.99-2.365 2.53-1.705 1.485-4.51 3.575-8.91 5.555-2.09.935-4.455 1.815-6.82 2.585 2.53-.55 4.84-1.1 6.82-1.54 3.3-.715 5.885-.99 7.81-.44l.77.22-.495.66c-.055.055-.66.88-2.255 2.035-1.595 1.155-4.18 2.805-8.085 4.18-2.475.935-5.335 1.705-8.085 2.31-.935.165-1.815.33-2.695.495 3.85-.44 7.095-1.045 9.845-1.43 3.08-.44 5.445-.55 7.26.11.22.11.495.165.715.275-.11.22-.275.385-.44.605-.055.055-.605.825-2.145 1.87-1.54 1.045-4.015 2.475-7.7 3.575-2.035.605-4.29 1.1-6.545 1.485 1.76-.11 3.41-.22 4.84-.275 3.025-.055 5.39.165 6.93 1.155l.605.385-.55.44c-.055.055-.77.55-2.31 1.265-1.54.715-4.015 1.595-7.535 2.31-1.32.275-2.75.495-4.18.66 3.245.055 5.61.33 7.095 1.485l.495.385-.495.33c-.055.055-.605.44-1.925.935-1.265.495-3.245 1.155-6.05 1.54-1.65.22-3.52.44-5.335.495 3.575.22 6.215.55 7.645 1.87l.385.385-.44.275c-.055 0-.55.33-1.705.715-1.155.385-2.86.77-5.335.935-1.705.11-3.63.11-5.445 0 3.795.88 6.545 1.595 7.81 3.19l.33.44-.44.22c-.055 0-.605.275-1.76.44-1.155.165-2.915.33-5.39.055a45.074 45.074 0 0 1-7.04-1.265c3.575 1.43 6.215 2.42 7.04 4.345l.22.44-.44.165c-.055 0-.55.165-1.54.22-.99.055-2.475 0-4.455-.44-.99-.22-2.09-.55-3.135-.88.33.165.605.275.88.44 1.375.715 2.365 1.43 2.86 2.42l.22.385c-.11.055-.275.11-.385.165-.055 0-.495.165-1.375.275-.935.055-2.255.055-4.125-.385-.825-.22-1.65-.495-2.53-.77.825.66 1.32 1.32 1.485 2.2l.055.385-.33.11c-.055 0-.44.165-1.21.165s-1.87-.11-3.245-.605c-.66-.22-1.43-.55-2.09-.935.935.88 1.485 1.705 1.54 2.75v.385l-.33.055c-.055 0-.44.055-1.21 0-.715-.11-1.815-.385-3.135-1.045-.825-.44-1.76-.99-2.585-1.54 0 0-.055 0-.055-.055.99.935 1.65 1.815 1.595 2.97v.385c-.11.055-.22.055-.33.11-.055 0-.385.11-1.045.055-.66-.055-1.595-.22-2.75-.88-.715-.385-1.485-.935-2.2-1.54.495.88.66 1.76.33 2.64l-.11.33h-.33c-.055 0-.385 0-.99-.22s-1.375-.605-2.31-1.43c-.55-.495-1.155-1.1-1.65-1.705.165.66.165 1.265-.22 1.925l-.165.33h-.275c-.055 0-.385-.055-.935-.275-.55-.22-1.265-.66-2.035-1.43-.55-.605-1.155-1.32-1.595-2.035a2.058 2.058 0 0 1-.385.88l-.165.275-.275-.055s-.33-.055-.77-.33a5.763 5.763 0 0 1-1.65-1.54c-.77-.99-1.43-2.42-1.76-3.465 0-.055-.055-.11-.055-.165l-.44-.66c-.275-.385-.495-.77-.715-1.1-.055 0-.165 0-.22-.055-1.485-.275-2.365-1.98-1.98-3.795.385-1.925 1.87-3.135 3.355-2.86Zm1.65 4.73c.165-.275.275-.605.33-.99.055-.33.11-.66.055-.99l.825.275c.605.165 1.21.275 1.76.33.165 0 .33.055.495.055.165.055.385.055.55.11-.275 0-.55.055-.825.055-.495 0-.935.055-1.21.055h-.44s.165.055.44.11.715.165 1.21.22c.495.055 1.1.11 1.705.11s1.32-.055 1.98-.165c.66-.11 1.32-.275 1.925-.44.055 0 .055 0 .11-.055 1.1-.22 2.255-.55 3.465-1.1 7.37-3.245 9.845-10.67 9.625-16.83v-.495c-.055-.99-.11-2.035-.22-3.08a40.364 40.364 0 0 0-.605-2.97c-.22-.935-.55-1.76-.715-2.53-.165-.715-.33-1.32-.385-1.815-.055-.44-.055-.715-.055-.715s-.055.275-.11.715c0 .385 0 .825.055 1.43-.825-3.245-1.1-6.325 0-8.69.77-1.65 2.2-2.805 4.345-3.465 1.595-.55 3.355-.44 5.225-.385 1.32.055 2.695.11 4.07-.055 4.345-.495 10.285-1.485 12.65-1.87-.77.77-2.585 2.09-6.655 3.465-.99.33-2.97.385-5.115.385h-1.43c-.605 0-1.32-.055-2.035 0a41.135 41.135 0 0 0-3.575.33c-.605.11-1.21.33-1.815.495-.55.165-1.265.385-1.76.825-.55.44-.88.935-1.155 1.43-.275.495-.495.935-.77 1.375-.44.77-.99 1.375-1.43 1.595-.22.11-.44.22-.55.22-.165.055-.22.055-.22.055h.22c.165 0 .385 0 .605-.11.495-.165 1.1-.55 1.705-1.265-.715 3.465.33 5.995 1.32 8.47.275.66.55 1.32.77 2.035.055.495.11 1.045.165 1.595.055.605.11 1.155.11 1.76 0 .55.055 1.1 0 1.54v1.54s.055-.165.11-.385c.055-.275.165-.605.22-1.1.055-.33.11-.77.11-1.21.385 7.205-1.375 11.385-4.675 14.795.44-.605.715-1.155.935-1.595l.33-.66s-.165.22-.385.605c-.275.385-.66.935-1.155 1.54s-1.155 1.265-1.87 1.925c-.715.66-1.595 1.265-2.475 1.76-.88.495-1.815.935-2.75 1.21-.88.275-1.76.495-2.53.605-.77.11-1.375.165-1.815.165h-.715s.275.055.715.11c.44.055 1.1.11 1.87.055a14.013 14.013 0 0 0 2.365-.385c-2.64.99-5.005.88-7.81.66l-.99-.165-1.65-.165c.495-.11.99-.165 1.485-.165-.99-.33-2.09-.44-3.19-.385-.385.165-.55.22-.77.22Zm67.375-32.67c-2.97.66-6.49 1.54-10.45 2.255.715.22 1.375.495 1.98.88.165.165.385.275.605.385-.055.11-.11.165-.22.275 2.035-.44 4.125-.935 6.16-1.485 2.42-.66 4.785-1.43 7.15-2.2-4.51 2.09-9.35 3.52-14.245 4.565a7.76 7.76 0 0 1-1.32.88c-1.265.715-3.3 1.65-6.105 2.31.77-.055 1.595-.165 2.42-.275 3.96-.55 8.635-1.65 12.43-3.025 5.445-1.98 8.25-4.29 9.405-5.39-2.035-.33-4.62.165-7.81.825Zm-3.135 8.03c-2.97.44-6.545 1.1-10.56 1.485h-.165c.715.275 1.375.605 1.87 1.1.165.165.33.33.495.44l-.165.165c2.2-.275 4.4-.66 6.6-1.1 2.255-.495 4.51-1.045 6.71-1.65-4.29 1.815-8.91 2.805-13.53 3.465-.22.055-.44.055-.66.055-.33.22-.715.495-1.32.825-1.045.55-2.585 1.155-4.675 1.595.605 0 1.265-.055 1.925-.055 3.74-.165 8.195-.935 11.77-1.98 5.225-1.595 7.92-3.685 8.965-4.675-1.87-.385-4.29-.11-7.26.33Zm-4.235 7.48c-2.915.11-6.38.44-10.175.605-.44 0-.88 0-1.32.055 1.265.44 2.31.935 3.08 1.595 2.145-.11 4.29-.33 6.38-.55 2.2-.22 4.345-.55 6.545-.715-4.07.935-8.195 1.54-12.375 1.87l.385.495-.55.22c-.055 0-.715.275-2.035.55-1.32.22-3.355.385-6.215.22-.605-.055-1.155-.11-1.815-.165a57 57 0 0 1 1.595.495c.22 0 .495.055.77.055.77.055 1.65.055 2.53.11 3.52.055 7.7-.44 11.11-1.1 4.95-.935 7.755-2.365 8.965-3.025-1.595-.715-3.96-.825-6.875-.715Zm.22 7.095c-2.53-1.43-7.425-.99-13.585-.935.385.33.77.66.99 1.1l.275.44c1.705-.055 3.465-.11 5.17-.22 1.76-.11 3.465-.22 5.225-.22-3.465.55-6.93.825-10.45.99-.44 0-.88.055-1.375.055-.275.055-.55.11-.935.165-1.21.22-3.08.33-5.61.055-.66-.055-1.32-.165-1.98-.275a.76.76 0 0 0 .165.22c.715.275 1.32.605 1.87.935 1.045.22 2.53.33 4.235.385 2.805.055 6.05-.165 8.8-.55 3.905-.605 6.215-1.595 7.205-2.145Zm-5.61 5.5c-2.09-1.375-6.38-1.32-11.66-1.76-.495-.055-1.045-.11-1.54-.165.055.11.11.165.165.275l.22.44-.385.165c-.055 0-.385.165-1.045.275 1.155.165 2.365.275 3.575.385 1.485.11 3.025.165 4.51.165 1.485.055 3.025.055 4.51.165-3.025.275-6.05.275-9.075.11-1.485-.055-3.025-.22-4.51-.385-.495-.055-.99-.165-1.43-.275-.715 0-1.54-.11-2.475-.22-.055 0-.11 0-.165-.055.11.33.275.605.495.825.495.44 2.42.935 4.84 1.21 2.42.275 5.28.33 7.645.165 3.41-.165 5.445-.935 6.325-1.32Zm-4.73 5.39c-1.87-1.705-6.105-2.31-11.22-3.575-.55-.11-1.1-.275-1.65-.44.385.385.66.825.88 1.265l.11.275c.495.11.935.22 1.43.385 1.485.33 2.915.605 4.4.88 1.485.275 2.97.495 4.4.825a61.825 61.825 0 0 1-8.965-1.32c-.66-.165-1.32-.275-1.98-.44-.275.055-.66.11-1.21.11-.935 0-2.365-.11-4.18-.605.825.495 2.31 1.045 4.07 1.54 2.31.66 5.115 1.155 7.48 1.375 3.41.33 5.5-.055 6.435-.275Zm-7.15 4.125c-1.21-1.815-4.565-2.86-8.58-4.51-.385-.165-.825-.33-1.265-.55.55.55.935 1.155 1.1 1.87.165.055.33.165.495.22 1.155.44 2.31.88 3.465 1.265 1.155.385 2.31.77 3.465 1.265-2.42-.495-4.785-1.265-7.095-2.09-.055-.055-.165-.055-.22-.11v.165l-.385.11c-.055 0-.495.11-1.375.055-.44-.055-.99-.11-1.65-.275.22.11.495.22.715.33a34.467 34.467 0 0 0 5.94 2.035c2.805.55 4.565.385 5.39.22Zm-5.5 2.365c-1.155-1.65-4.18-2.53-7.755-4.235l-.33-.165c.22.385.385.825.44 1.265l.055.275c.055 0 .055.055.11.055 1.045.44 2.09.88 3.135 1.265 1.045.385 2.145.715 3.19 1.155-2.255-.44-4.4-1.155-6.545-2.035-.165-.055-.275-.165-.44-.22-.22 0-.55 0-1.045-.055-.77-.11-1.815-.33-3.19-.99.55.385 1.21.825 1.98 1.265a25.27 25.27 0 0 0 5.445 2.09c2.585.66 4.235.44 4.95.33Zm-6.6 1.76c-.605-1.595-2.75-2.64-5.335-4.235.275.44.385.935.385 1.485v.11c.55.33 1.1.605 1.705.88.77.44 1.595.825 2.365 1.265a24.715 24.715 0 0 1-4.29-1.87h-.11c-.055 0-.44.11-1.1 0a8.042 8.042 0 0 1-1.87-.44l.11.11c1.21.825 2.805 1.595 4.125 2.09 2.035.77 3.41.715 4.015.605Zm-5.335 1.815c-.385-1.76-2.475-3.135-5.005-5.06-.22-.165-.495-.385-.715-.55.825.935 1.375 1.76 1.54 2.64.385.275.825.55 1.21.825.715.495 1.485.99 2.2 1.595-1.155-.55-2.255-1.21-3.355-1.925 0 .165 0 .33-.055.55l-.055.385h-.495c.33.165.605.385.935.495 1.815.935 3.19 1.045 3.795 1.045Zm-7.865-3.41c1.485 1.045 2.695 1.32 3.245 1.375.055-1.65-1.595-3.19-3.52-5.17-.165-.165-.275-.33-.44-.44a4.064 4.064 0 0 1-1.65-.605c.055.165.055.33.055.44 0 0 0 .055.055.055.495.605.99 1.21 1.54 1.815.55.55 1.1 1.1 1.705 1.65.55.55 1.155 1.1 1.65 1.65-1.32-.88-2.53-1.925-3.63-3.025-.495-.495-.935-.99-1.375-1.485-.055.22-.165.44-.275.66l-.165.33-.165.055.055.055c.77.88 1.87 1.925 2.915 2.64Zm2.2 4.29c-.165-1.595-1.87-2.695-3.74-4.455-.385-.385-.77-.77-1.1-1.21.55.88.88 1.705.825 2.53.55.44 1.045.935 1.595 1.32.605.44 1.21.88 1.76 1.375-1.21-.55-2.365-1.32-3.465-2.2 0 .11-.055.165-.055.275l-.11.385h-.33s-.33 0-.77-.165c.66.55 1.375 1.1 2.09 1.485 1.595.715 2.805.715 3.3.66Zm-7.48-4.29c1.32 1.21 2.42 1.54 2.97 1.705.22-1.375-.715-2.75-1.98-4.455a3.62 3.62 0 0 1-1.705-.88l-.11-.11v.385c.165.275.385.55.55.825.44.605.935 1.21 1.375 1.76.44.605.935 1.155 1.375 1.815-1.155-.99-2.145-2.145-3.08-3.355-.11-.165-.22-.33-.385-.495-.055.165-.11.33-.22.495l-.165.33-.275.055h-.11c.495.715 1.155 1.375 1.76 1.925Zm1.54 4.895c.275-1.375-.715-2.75-1.98-4.455l-.055-.055c-.66-.605-1.32-1.32-1.925-2.09.385.77.605 1.43.55 2.145.11.165.22.275.275.44.44.55.88 1.155 1.32 1.705.44.55.935 1.1 1.32 1.705-1.1-.935-2.035-2.035-2.97-3.135 0-.055-.055-.055-.11-.11-.055.11-.11.22-.165.385l-.165.33h-.33s-.165 0-.385-.11c.495.66 1.1 1.265 1.65 1.76 1.375 1.045 2.475 1.375 2.97 1.485Zm-6.655-5.335c1.1 1.155 2.145 1.54 2.64 1.705.33-1.045-.11-2.145-.88-3.465a4.231 4.231 0 0 1-1.32-.88c-.165-.11-.275-.275-.385-.44-.055.11-.11.275-.165.44.055.055.11.165.11.22.385.605.77 1.155 1.155 1.705s.77 1.1 1.1 1.76c-.99-.99-1.815-2.09-2.585-3.245v-.055c0 .055-.055.055-.055.11l-.22.275-.275.055h-.495c.33.66.88 1.265 1.375 1.815Zm1.155 4.235c.33-.99-.055-1.925-.66-3.08-.33-.22-.66-.495-.99-.88-.66-.66-1.32-1.54-1.815-2.365-.055 0-.055 0-.11-.055.11.385.22.715.275 1.045.22.495.495.99.77 1.43.33.55.715 1.1 1.1 1.65.385.55.715 1.045 1.045 1.65a18.986 18.986 0 0 1-2.475-3.08c-.165-.22-.275-.44-.44-.715-.055.33-.22.66-.44.99l-.165.22c.385.55.88 1.1 1.32 1.595 1.045 1.1 2.09 1.485 2.585 1.595Zm-4.07-3.52c.44-.88.22-1.98-.275-3.245-.165-.165-.385-.275-.55-.495-.165-.165-.33-.33-.44-.55-.055.22-.11.44-.22.715.165.385.33.825.55 1.21.275.55.495 1.155.715 1.705a24.152 24.152 0 0 1-1.485-2.585l-.11.22-.275.055s-.22.055-.55 0c.165.33.385.715.605.99.77 1.21 1.65 1.76 2.035 1.98Zm-1.32.99c.165-.385.22-.77.22-1.155-.44-.33-.935-.825-1.485-1.595v-.055c.11.165.165.385.275.55.275.55.55 1.045.715 1.595a15.638 15.638 0 0 1-1.815-3.08c-.055-.165-.165-.33-.22-.495a5.13 5.13 0 0 1-1.32-.825l-.22-.22c.275 1.045.99 2.475 1.76 3.465.77 1.155 1.65 1.65 2.09 1.815Zm-3.575-6.6c-.11.165-.165.275-.22.44.22.275.44.55.715.825.99.935 1.98.99 2.475.99.495-1.045.055-1.87-.55-2.915-.495.055-.935.11-1.32.22.22.33.44.715.66 1.045.275.44.605.825.88 1.265-.77-.55-1.375-1.32-1.925-2.145a1.76 1.76 0 0 0-.715.275Zm47.63-44.77c-.605.66-1.87 1.65-4.235 2.695h.055c1.1-.165 2.2-.33 3.245-.495 2.145-.44 4.345-.935 6.435-1.485 2.145-.605 4.235-1.265 6.325-1.87-4.015 1.925-8.36 3.135-12.705 4.07-.88.165-1.705.33-2.585.495.715.11 1.375.33 1.87.66l.495.275-.495.33c-.055 0-.33.22-.99.55 2.805-.495 5.83-1.32 8.305-2.255 4.84-1.815 7.315-3.96 8.305-4.95-1.76-.385-4.015 0-6.875.55-2.035.33-4.455.88-7.15 1.43Zm-5.555 11.99c3.355-.165 7.37-.825 10.56-1.76 4.675-1.375 7.15-3.3 8.085-4.235-1.65-.495-3.795-.385-6.49-.055-2.695.33-5.885.88-9.515 1.21a47.77 47.77 0 0 1-4.895.275h.33c2.365.165 4.18.495 5.39 1.32l.275.22c.165 0 .385-.055.55-.055 2.09-.275 4.125-.55 6.16-.99 2.035-.385 4.07-.88 6.05-1.32-3.905 1.54-8.03 2.42-12.21 3.025-.55.055-1.155.165-1.705.22-.275.11-.605.275-1.045.385-1.265.44-3.245.935-6.05 1.21h-.275c.165 0 .33.055.495.055 1.045.165 2.035.33 2.805.55h.165c.44 0 .88-.055 1.32-.055Zm-1.485 5.72c3.19.165 7.04-.11 10.23-.77 4.565-.935 7.095-2.53 8.085-3.355-1.54-.715-3.575-.825-6.16-.77-2.585.055-5.72.275-9.185.275h-.88l.275.275-.44.275c-.055 0-.55.33-1.76.77-.44.165-1.045.33-1.705.44.935.055 1.925.165 2.86.165.99 0 1.98.055 2.97.055 1.98-.055 3.96-.165 5.94-.385 1.98-.165 3.905-.44 5.885-.66-3.85 1.1-7.865 1.54-11.88 1.705-.99.055-1.98.055-3.025.055-.99 0-1.98-.055-3.025-.11-.935-.055-1.87-.22-2.805-.33-.11 0-.22-.055-.275-.055h-1.98c.22.055.44.11.605.165 1.045.275 1.98.495 2.86.715 1.43.385 2.53.88 3.3 1.595.055-.055.11-.055.11-.055Zm-1.375 5.885c2.75.385 5.94.44 8.58.11 4.29-.55 6.655-1.98 7.59-2.64-1.32-.825-3.245-1.155-5.555-1.32-2.365-.165-5.17-.22-8.305-.55-.44-.055-.825-.11-1.265-.165-.22.11-.55.22-.935.275-.99.275-2.585.495-4.73.33h-.165c.11.055.165.055.275.11.825.275 1.65.495 2.53.715 1.76.385 3.575.66 5.39.825 1.815.165 3.63.165 5.445.165 1.815 0 3.63-.165 5.39-.22-3.575.77-7.26.935-10.945.715-1.705-.11-3.41-.33-5.06-.605.825.44 1.485.99 1.87 1.705l.22.44-.33.11Zm-3.19 4.015c2.695.66 5.94 1.155 8.69 1.375 3.96.275 6.38-.22 7.425-.495-2.2-1.925-7.04-2.64-13.035-3.905-.66-.165-1.32-.275-2.035-.44-.935.11-2.145.165-3.74-.055-.275-.055-.55-.11-.88-.165 1.1.33 1.98.66 2.64 1.21 1.595.495 3.245.88 4.895 1.21 1.705.33 3.41.66 5.115.935s3.41.55 5.115.88c-3.465-.22-6.93-.66-10.34-1.32-1.375-.275-2.75-.55-4.07-.88.055.11.11.22.165.385l.165.44-.275.275s-.165.165-.495.385l.66.165Zm-2.915 4.07a42.834 42.834 0 0 0 7.755 1.485c3.575.385 5.775-.055 6.765-.33-1.87-1.98-6.215-2.75-11.55-4.125-.77-.165-1.485-.385-2.255-.605-.66.22-1.485.33-2.53.275-.44 0-.88-.055-1.32-.11.77.33 1.54.605 2.31.88 1.485.495 2.97.935 4.51 1.32 1.54.385 3.025.715 4.565.99 1.54.33 3.08.605 4.565.99-3.135-.275-6.215-.825-9.295-1.485-1.54-.33-3.08-.715-4.565-1.21-.055 0-.11-.055-.165-.055.715.495 1.155 1.1 1.21 1.98Zm4.785 1.87c.11.055.165.055.275.11v-.055c-.11 0-.22 0-.275-.055Zm-7.535 1.485c1.87.715 4.125 1.265 5.995 1.595 2.805.44 4.565.165 5.39-.055-1.32-1.76-4.73-2.585-8.8-3.96-.11-.055-.22-.055-.275-.11-.165.055-.385.165-.715.275-.44.11-1.045.22-1.815.11 1.045.44 2.145.88 3.245 1.21 1.155.385 2.365.715 3.52 1.045 1.21.33 2.365.605 3.52 1.045-2.475-.33-4.84-.935-7.205-1.65-1.1-.33-2.2-.715-3.245-1.1.275.44.44.935.385 1.595Zm2.64 1.54c1.045.495 1.925.935 2.75 1.375-.11-.22-.165-.495-.22-.77-.825-.165-1.65-.385-2.53-.605Zm-5.335 1.705c1.595.77 3.41 1.43 5.005 1.925 2.75.77 4.51.715 5.335.605-1.155-1.925-4.4-3.135-8.305-4.95-.165.055-.33.11-.605.165-.33.055-.77.11-1.32.055 0 .055.055.165.055.22.715.385 1.375.715 2.09 1.045 1.1.495 2.255.99 3.41 1.43 1.155.495 2.31.935 3.41 1.43-2.42-.605-4.73-1.485-6.985-2.475-.66-.275-1.265-.55-1.925-.88 0 .11 0 .22-.055.33l-.055.385-.275.11s-.165.055-.385.11c.22.22.385.33.605.495Zm3.08 1.98c.22.165.44.275.605.44.055.055.165.11.22.11-.055-.11-.11-.22-.165-.275-.165-.11-.44-.165-.66-.275Zm-.99 3.355c2.255.935 3.85 1.045 4.565.99-.66-1.925-3.3-3.355-6.38-5.39-.605-.385-1.21-.77-1.76-1.21-.275 0-.66 0-.99-.055.22.33.385.715.44 1.155.77.605 1.54 1.155 2.31 1.65.88.55 1.815 1.1 2.75 1.65.935.55 1.815 1.045 2.695 1.65-1.98-.825-3.85-1.815-5.72-2.915-.715-.44-1.43-.935-2.145-1.43 0 .11-.055.275-.11.385l-.11.33-.275.11s-.165.055-.44.055c.165.11.33.22.495.385 1.32.99 3.08 1.98 4.675 2.64Zm-.77.715c.275.165.55.275.825.44-.55-.33-.99-.66-1.265-.935l-.33-.165c.275.22.55.44.77.66Zm-6.93-1.21-.275.055c1.21.935 2.695 1.87 4.015 2.475 1.98.99 3.41 1.1 4.07 1.1-.495-1.76-2.805-3.19-5.5-5.17l-1.32-.99a4.533 4.533 0 0 1-1.045-.33c.33.44.55.88.55 1.32.55.44 1.1.935 1.705 1.32.77.55 1.595 1.1 2.365 1.595.825.55 1.595 1.045 2.365 1.595-1.76-.825-3.41-1.815-5.005-2.86a26.68 26.68 0 0 1-1.54-1.1c-.055.165-.11.385-.22.605l-.165.385Zm7.535-10.89c1.54.33 2.64 0 3.135-.22-.33-1.595-1.925-2.145-3.905-3.245a15.593 15.593 0 0 1-2.145-1.375c-.11-.055-.165-.11-.275-.11-.055.385-.11.825-.165 1.21.22.165.44.385.66.55.495.385 1.1.77 1.65 1.045.605.275 1.155.55 1.76.825.605.275 1.21.495 1.76.77-1.32-.22-2.585-.66-3.74-1.21a10.58 10.58 0 0 1-1.705-.99c-.165-.11-.275-.22-.44-.33-.11.44-.165.825-.275 1.265.275.275.605.495.935.715.825.495 1.87.88 2.75 1.1Zm-1.595 1.87c.495.275 1.045.495 1.485.825-1.155-.22-2.255-.715-3.245-1.32a7.86 7.86 0 0 1-1.1-.77c-.055.11-.11.275-.165.385.055.055.11.11.22.165 1.1.77 1.98 1.32 2.475 2.035a4.504 4.504 0 0 0 2.475-.22c-.11-1.54-1.485-2.145-3.135-3.245-.385-.275-.77-.55-1.21-.88-.11.44-.275.825-.44 1.21.385.33.77.605 1.155.88.44.385.935.66 1.485.935Zm1.485-10.34c-.99-.33-1.98-.77-2.97-1.43.055.55.055 1.1.055 1.595l.495.33c.77.44 1.595.825 2.42 1.1.825.275 1.705.495 2.53.66.825.165 1.705.275 2.53.44-1.76.11-3.575-.11-5.28-.605a20.11 20.11 0 0 1-2.53-.99c-.055-.055-.11-.055-.22-.11 0 .55 0 1.1-.055 1.65.11.055.22.11.385.165 1.375.66 3.135 1.045 4.62 1.1 2.145.055 3.465-.66 4.015-1.045-.88-1.65-3.19-1.815-5.995-2.86Zm8.745-18.7c1.76-.165 3.465-.385 5.225-.55-3.41.77-6.93 1.21-10.45 1.32-.88 0-1.76 0-2.64-.055-.88-.055-1.705-.11-2.585-.055-.935.055-1.925.165-2.86.33-.22.165-.385.33-.55.55 1.32-.165 2.585-.22 3.795-.11.33.055.66.055.935.11s.605.11.88.11c.55.055 1.045.165 1.595.22.605.055 1.155.11 1.76.165h.44c1.54-.11 3.08-.275 4.455-.495 3.96-.715 6.215-1.815 7.15-2.31-1.21-.44-2.86-.55-4.95-.495-1.1.33-3.025.385-5.17.385h-1.43c-.605.055-1.32.11-1.98.22-1.1.11-2.31.22-3.465.495a5.585 5.585 0 0 0-1.375.33c.275 0 .55-.055.825-.055.88-.055 1.76.055 2.64.11.88.055 1.76.11 2.585.11a84.192 84.192 0 0 0 5.17-.33Zm-.55 4.125c1.705 0 3.41-.055 5.17-.055-3.41.44-6.875.605-10.34.33-.88-.055-1.705-.165-2.585-.275-.88-.11-1.705-.275-2.53-.275-1.21-.055-2.475 0-3.685.11-.055.33-.11.66-.11.99 1.155-.11 2.31-.11 3.41-.055.55.055 1.155.055 1.705.165.275.055.55.055.825.165.275.055.495.11.77.165.605.11 1.21.22 1.76.33.385 0 .715.055 1.1.055 1.54.055 3.025 0 4.4-.11 3.96-.33 6.215-1.21 7.205-1.65-1.265-.605-3.08-.825-5.39-.99-2.255-.11-5.005-.165-7.92-.495a15.87 15.87 0 0 1-1.595-.22c-.55-.055-1.21-.165-1.815-.22-1.21-.11-2.53-.055-3.795.11-.055 0-.11 0-.165.055-.11.385-.22.77-.275 1.1 1.21-.11 2.42-.165 3.63-.055.88.055 1.705.22 2.585.33.825.165 1.705.22 2.53.33 1.705.165 3.41.22 5.115.165Zm-2.145 3.905c1.54.11 3.08.11 4.62.165-3.08.33-6.215.275-9.295-.22-.77-.11-1.54-.33-2.255-.44a31.27 31.27 0 0 0-2.255-.22 20.27 20.27 0 0 0-2.585 0c.055.44.165.825.275 1.21.88.055 2.145.055 3.575.22.275 0 .55.055.825.11.275.055.55.11.88.165.66.165 1.375.275 2.035.33 1.375.165 2.75.22 3.96.22 3.63-.11 5.665-.935 6.545-1.32-1.1-.66-2.75-.935-4.73-1.21-2.035-.22-4.4-.44-6.985-.99-.275-.055-.495-.11-.77-.165l-.825-.165c-.55-.11-1.1-.11-1.65-.165-1.1-.055-2.2 0-3.355.055 0 .385 0 .77.055 1.1.88 0 1.815 0 2.695.055.77.055 1.54.11 2.31.275.77.165 1.54.33 2.255.495 1.595.22 3.135.385 4.675.495Zm-.385 4.455a46.792 46.792 0 0 1-3.795-.825c-1.265-.33-2.585-.55-3.85-.715-.935-.165-1.87-.275-2.805-.44l-.33-.825c.275-.11.605-.165.99-.165 1.87.165 3.63.33 5.335.715 1.265.275 2.2.55 3.245.77.99.22 1.87.44 2.695.66 1.65.44 2.915.935 3.74 1.705-.77.33-2.585.88-5.61.66-1.045-.11-2.145-.22-3.3-.495-.605-.11-1.045-.22-1.595-.33-.275-.055-.55-.11-.77-.11-.22-.055-.385-.165-.605-.22-.825-.33-1.65-.55-2.53-.77-.275-.055-.44-.055-.66-.055-.055-.165-.165-.33-.22-.495-.055-.11-.11-.275-.165-.385.825.165 1.65.275 2.475.385 1.265.165 2.585.33 3.795.605 2.53.605 5.115.99 7.755 1.045-1.265-.33-2.53-.495-3.795-.715Zm-1.1 4.4c1.155.33 2.255.55 3.41.88a29.96 29.96 0 0 1-6.93-1.485l-1.65-.66c-.55-.22-1.045-.44-1.595-.66-.385-.11-.715-.275-1.1-.385.11.495.22.935.275 1.485.385.165.825.33 1.265.495.33.165.88.385 1.32.55.495.22.99.385 1.485.55.99.33 2.035.55 2.97.66 2.75.385 4.455-.055 5.17-.275-.66-.825-1.815-1.43-3.245-1.925-1.43-.55-3.19-1.045-5.06-1.815-.33-.165-.66-.275-.99-.44l-1.155-.495c-.825-.275-1.595-.55-2.475-.715-.055 0-.165-.055-.22-.055.165.44.33.825.44 1.265.495.165.99.33 1.485.55 1.1.44 2.145 1.045 3.245 1.43 1.1.44 2.255.77 3.355 1.045Zm-8.415 14.08c-.495-.275-.935-.605-1.43-.88-.055-.055-.165-.11-.22-.165.22-.385.44-.715.66-1.1l.055.055c1.595 1.1 2.915 1.87 2.805 3.355-.495.165-1.54.33-2.805-.055-.11-.055-.275-.11-.385-.165-.33-.275-.715-.605-1.1-.935.165-.275.385-.495.55-.77.055.055.11.11.165.11.935.605 1.98 1.1 3.025 1.43-.385-.33-.88-.605-1.32-.88Zm-2.31 2.64c.44.33.88.66 1.265 1.045-1.045-.495-1.98-1.1-2.915-1.705 0 0-.055 0-.055-.055-.275.33-.605.605-.935.935.495.33 1.045.66 1.595.88 1.21.495 2.255.44 2.75.385.275-1.43-.825-2.365-2.255-3.465l-.825.99s.055 0 .055.055l1.32.935Zm-2.805 2.695c.385.33.715.66 1.045 1.045a19.362 19.362 0 0 1-2.475-1.65c-.11-.055-.165-.165-.275-.22-.11.11-.22.165-.33.275-.22.165-.495.385-.715.55.495.385 1.1.825 1.65 1.1 1.045.495 2.035.495 2.475.44.495-1.375-.495-2.31-1.76-3.41l-.99.825.22.22 1.155.825Zm-5.28 2.53c.22.22.495.44.715.605 1.155.825 2.2.88 2.695.88.385-1.375-.44-2.31-1.485-3.685-.385.22-.715.44-1.045.66.33.44.715.88 1.1 1.32.385.44.77.825 1.1 1.265-.99-.605-1.815-1.43-2.53-2.365l-.99.495c.11.33.275.55.44.825Zm-4.015.275c.385.715.935 1.43 1.54 1.925.99.825 1.98.88 2.475.88.55-1.32-.22-2.2-1.1-3.63-.385.165-.77.33-1.155.44l.165.33c.275.44.55.825.88 1.265.275.385.605.77.88 1.21-.88-.605-1.54-1.375-2.145-2.255-.11-.11-.165-.275-.22-.385-.495.055-.88.165-1.32.22Zm-3.905.165c.22.495.44.88.495 1.265.275.385.605.77.935 1.1 1.045.935 2.09 1.045 2.53 1.1.495-1.21-.165-2.145-.935-3.465-.44.055-.935.055-1.375.055.055.055.055.165.11.22.275.495.605.935.88 1.375.33.44.66.88.935 1.32-.88-.66-1.595-1.54-2.2-2.53-.11-.11-.165-.275-.22-.44-.33.055-.715 0-1.155 0Zm-1.32 1.43c.275.44.55.825.77 1.265-.77-.66-1.375-1.54-1.87-2.475-.055-.165-.165-.33-.22-.44h-.22c-.44-.055-.77-.055-1.155-.055a6.281 6.281 0 0 0 1.43 2.31c.88.935 1.87 1.1 2.365 1.155.605-1.1.11-1.98-.44-3.245-.44-.055-.88-.055-1.32-.11h-.11c.055.11.055.165.11.275.165.44.44.88.66 1.32Zm13.255-1.32c0 .275-.11.605-.275.935l-.11.275.055.055c1.045.825 2.365 1.705 3.52 2.31 1.705.825 2.97.935 3.575.935-.275-1.705-2.2-2.97-4.51-4.73-.44-.33-.825-.66-1.265-.99a3.95 3.95 0 0 1-1.375-.44c-.055-.055-.165-.055-.22-.11.22.33.385.66.495 1.045l.22.22c.605.55 1.265 1.1 1.925 1.595.66.495 1.32.99 2.035 1.43.66.495 1.375.935 1.98 1.43-1.485-.715-2.915-1.595-4.235-2.53a16.01 16.01 0 0 1-1.815-1.43Zm43.56-46.365c-.055.055-.55.825-1.98 1.925-.385.275-.825.605-1.32.935.33-.11.715-.165 1.045-.275 1.375-.495 2.805-.88 4.125-1.43.66-.275 1.375-.495 2.035-.77l2.035-.825c2.695-1.155 5.28-2.475 7.865-3.85-4.895 3.355-10.34 5.72-15.95 7.535-1.21.385-2.475.77-3.74 1.1-.935.495-2.035.99-3.3 1.43-2.2.825-4.73 1.485-7.205 2.035-.165.055-.33.055-.495.11 3.52-.385 6.545-.88 9.02-1.21.275-.055.55-.055.825-.055 4.455-1.1 9.515-2.86 13.53-4.95 3.025-1.54 5.28-3.135 6.93-4.51 1.595-1.375 2.585-2.475 3.135-3.19-2.255.33-5.06 1.485-8.635 2.86-2.31.88-4.895 1.925-7.81 2.915 0 .055-.055.11-.11.22Z" fill="#9C9C9C"/><path fill-rule="evenodd" clip-rule="evenodd" d="m98.56 179.355.165.385.77-.165c2.53-.55 4.455-3.575 5.17-5.94l.935-1.485c4.455-1.045 2.86-9.405-1.925-8.415-.66.11-1.21.44-1.65.935-.165.22-.385.495-.55.66-4.015 1.595-6.93 1.87-11.055.055-6.105-2.695-8.855-8.965-8.525-15.345.385-6.105 4.84-12.65 1.98-18.645-2.145-4.51-6.765-5.06-11.22-4.895-2.365.11-4.84-.165-7.205-.44-3.63-.44-7.15-1.1-10.725-1.76l-1.65-.275.11.33c-1.87-.385-3.74-.825-5.555-1.21-2.09-.385-4.565-.77-6.71-.275a162.23 162.23 0 0 1-9.075-3.41c-3.52-1.375-6.16-2.53-9.955-2.585l-1.54-.055.55 1.43c1.045 2.475 3.63 4.895 6.6 6.93-1.76-.385-3.575-.55-5.335-.44l-1.54.11.715 1.375c1.65 3.025 5.39 5.72 9.405 7.81-1.925-.165-3.85-.11-5.61.385l-1.265.385.715 1.1c1.705 2.64 5.28 4.785 9.24 6.435-1.87 0-3.63.165-5.005.77l-1.045.44.605.99c1.595 2.64 5.335 4.565 9.24 5.94-1.54.22-3.025.715-4.4 1.54l-1.21.77 1.155.88c2.365 1.87 5.665 3.025 8.965 3.795-.66.275-1.265.66-1.925 1.21l-1.045.825 1.045.77c1.98 1.43 4.73 2.31 7.48 2.805-.605.33-1.21.715-1.815 1.21l-.99.88 1.155.715c1.87 1.155 4.4 1.705 6.985 1.98-.935.495-1.815 1.155-2.53 2.035l-.825 1.045 1.21.495c2.255.99 5.39 1.045 8.47.77a6.479 6.479 0 0 0-1.595 2.2l-.44.99 1.045.385c1.595.55 3.465.55 5.28.275a6 6 0 0 0-.33.605l-.44.935.935.44c1.815.825 4.235.605 6.38.055l-.165.66-.165.825.825.275c1.54.55 3.19.33 4.785-.165-.055.33-.11.66-.11 1.045l-.055.88.88.165c1.705.33 3.41-.165 4.895-.935v.77l.055.66.605.22c1.65.605 3.575 0 5.225-.935.055.33.165.66.33 1.045l.22.66h.715c1.705-.055 3.245-.935 4.455-2.09.055.165.165.275.22.44l.275.55.66-.055c1.98-.055 3.52-1.265 4.73-2.75Z" fill="#fff"/><path fill-rule="evenodd" clip-rule="evenodd" d="M80.795 159.83c-.165-.275-.385-.55-.55-.88-.385-.66-.825-1.485-1.155-2.42-.33-.935-.55-1.98-.715-3.025-.11-1.045-.11-2.09-.055-3.08.055-.99.22-1.87.385-2.64.055-.385.165-.715.275-1.045.11-.275.165-.55.22-.77.165-.44.22-.66.22-.66s-.055.275-.11.715c-.055.22-.11.495-.165.77-.055.33-.11.66-.165 1.045-.11.77-.165 1.65-.22 2.585-.055.935 0 1.98.11 2.97.11.99.33 1.98.605 2.915.275.88.605 1.76.935 2.42.165.33.33.66.495.935.165.275.275.495.385.715.22.385.385.605.385.605s-.165-.22-.44-.55c-.11-.11-.275-.33-.44-.605ZM48.4 137.995c1.155.22 2.255.385 3.245.55.165 0 .33.055.495.055-.66-.165-1.32-.33-1.98-.55-3.355-.99-5.61-2.255-6.985-3.245-.055 0-.055-.055-.11-.055s-.11-.055-.165-.055c-1.375-.385-2.805-.77-4.18-1.265-1.375-.44-2.75-.99-4.07-1.485-2.695-1.1-5.335-2.365-7.81-3.85 2.64 1.155 5.28 2.31 7.975 3.3 1.375.495 2.695.99 4.07 1.375.935.33 1.925.605 2.86.88-.385-.33-.55-.605-.55-.605-.165-.165-.275-.385-.44-.605l.66-.33c.275-.11.55-.22.88-.33-3.575-.99-6.82-2.035-9.625-2.97-3.575-1.155-6.435-2.09-8.69-2.2.605.66 1.65 1.705 3.3 2.915s3.96 2.64 7.04 4.015c4.235 1.98 9.515 3.575 14.08 4.455Zm28.82-8.03a1.977 1.977 0 0 0-.605-.11c-.22-.055-.44-.055-.66-.11-.935-.165-1.98-.22-3.135-.275-1.155-.055-2.365-.055-3.63-.055a77.62 77.62 0 0 1-3.63-.11c-1.155-.055-2.255-.275-3.19-.44-.44-.165-.88-.22-1.21-.385-.33-.165-.66-.275-.935-.44-.44-.33-.715-.495-.715-.495s.275.165.77.385c.22.11.55.22.935.33.33.11.77.165 1.21.275.935.165 1.98.22 3.135.275 1.155.055 2.365.055 3.63.055 1.21 0 2.475.055 3.63.11 1.155.11 2.255.22 3.19.44l.66.165c.22.055.385.11.605.165.385.11.66.22.935.33.495.22.77.385.77.385s-.275-.11-.825-.275c-.275-.055-.605-.11-.935-.22Zm26.62 34.76c-.77.165-1.375.715-1.705 1.43l-.275.11c-2.475.99-6.215 2.475-11.825.055-7.095-3.135-9.405-10.395-9.13-16.335v-.165c.055-.66.11-1.32.22-1.98.165-.88.33-1.705.605-2.475 1.65-4.895 2.97-9.955 1.21-13.53-.88-1.815-2.53-3.135-4.84-3.905-1.76-.55-3.52-.495-5.445-.44-1.265.055-2.64.11-3.96-.055-5.445-.605-13.475-2.035-13.53-2.035l-.66-.11.11.385c-2.75-.55-5.17-1.155-7.26-1.54-2.695-.495-4.84-.715-6.545-.22-3.63-1.21-6.765-2.475-9.46-3.52-3.685-1.43-6.49-2.475-8.69-2.475h-.88c.11.275.275.55.44.825.055.055.605 1.1 2.255 2.75s4.4 3.905 8.745 6.16c.935.495 1.925.935 2.97 1.43-1.54-.495-3.025-.99-4.345-1.43-3.685-1.21-6.545-2.035-8.745-1.815l-.88.055c.11.22.33.495.495.77.055.055.66.99 2.365 2.53 1.705 1.485 4.51 3.575 8.91 5.555 2.09.935 4.455 1.815 6.82 2.585-2.53-.55-4.84-1.1-6.82-1.54-3.3-.715-5.885-.99-7.81-.44l-.77.22.495.66c.055.055.66.88 2.255 2.035 1.595 1.155 4.18 2.805 8.085 4.18 2.475.935 5.335 1.705 8.085 2.31.935.165 1.815.33 2.695.495-3.85-.44-7.095-1.045-9.845-1.43-3.08-.44-5.445-.55-7.26.11-.22.11-.495.165-.715.275.11.22.275.385.44.605.055.055.605.825 2.145 1.87 1.54 1.045 4.015 2.475 7.7 3.575 2.035.605 4.29 1.1 6.545 1.485-1.76-.11-3.41-.22-4.84-.275-3.025-.055-5.39.165-6.93 1.155l-.605.385.55.44c.055.055.77.55 2.31 1.265 1.54.715 4.015 1.595 7.535 2.31 1.32.275 2.75.495 4.18.66-3.245.055-5.61.33-7.095 1.485l-.495.385.495.33c.055.055.605.44 1.925.935 1.265.495 3.245 1.155 6.05 1.54 1.65.22 3.52.44 5.335.495-3.575.22-6.215.55-7.645 1.87l-.385.385.44.275c.055 0 .55.33 1.705.715 1.155.385 2.86.77 5.335.935 1.705.11 3.63.11 5.445 0-3.795.88-6.545 1.595-7.81 3.19l-.33.44.44.22c.055 0 .605.275 1.76.44 1.155.165 2.915.33 5.39.055 2.255-.22 4.785-.66 7.04-1.265-3.575 1.43-6.215 2.42-7.04 4.345l-.22.44.44.165c.055 0 .55.165 1.54.22.99.055 2.475 0 4.455-.44.99-.22 2.09-.55 3.135-.88-.33.165-.605.275-.88.44-1.375.715-2.365 1.43-2.86 2.42l-.22.385c.11.055.22.11.385.165.055 0 .495.165 1.375.275.935.055 2.255.055 4.125-.385.825-.22 1.65-.495 2.53-.77-.825.66-1.32 1.32-1.485 2.2l-.055.385.33.11c.055 0 .44.165 1.21.165s1.87-.11 3.245-.605c.66-.22 1.43-.55 2.09-.935-.935.88-1.485 1.705-1.54 2.75v.385l.33.055c.055 0 .44.055 1.21 0 .715-.11 1.815-.385 3.135-1.045.825-.44 1.76-.99 2.585-1.54 0 0 .055 0 .055-.055-.99.935-1.65 1.815-1.595 2.97v.385c.11.055.22.055.275.11.055 0 .385.11 1.045.055.66-.055 1.595-.22 2.75-.88.715-.385 1.485-.935 2.2-1.54-.495.88-.66 1.76-.33 2.64l.11.33h.33c.055 0 .385 0 .99-.22s1.375-.605 2.31-1.43c.55-.495 1.155-1.1 1.65-1.705-.165.66-.165 1.265.22 1.925l.165.33h.275c.055 0 .385-.055.935-.275.55-.22 1.265-.66 2.035-1.43.55-.605 1.155-1.32 1.595-2.035.055.275.165.605.385.88l.165.275.275-.055s.33-.055.77-.33a5.763 5.763 0 0 0 1.65-1.54c.77-.99 1.43-2.42 1.76-3.465 0-.055.055-.11.055-.165l.44-.66c.275-.385.495-.77.715-1.1.055 0 .165 0 .22-.055 1.485-.275 2.365-1.98 1.98-3.795-.275-1.925-1.76-3.135-3.245-2.86Zm-1.65 4.73a2.629 2.629 0 0 1-.33-.99c-.055-.33-.11-.66-.055-.99l-.825.275c-.605.165-1.21.275-1.76.33-.165 0-.33.055-.495.055-.165.055-.33.055-.55.11.275 0 .55.055.825.055.495 0 .935.055 1.21.055h.44s-.165.055-.44.11-.715.165-1.21.22c-.495.055-1.1.11-1.705.11s-1.32-.055-1.98-.165c-.66-.11-1.32-.275-1.925-.44-.055 0-.055 0-.11-.055-1.1-.22-2.255-.55-3.465-1.1-7.37-3.245-9.845-10.67-9.625-16.83v-.495c.055-.99.11-2.035.22-3.08.165-1.045.385-2.035.605-2.97.22-.935.55-1.76.715-2.53.165-.715.33-1.32.385-1.815.055-.44.055-.715.055-.715s.055.275.11.715c0 .385 0 .825-.055 1.43.825-3.245 1.1-6.325 0-8.69-.77-1.65-2.2-2.805-4.345-3.465-1.595-.55-3.355-.44-5.225-.385-1.32.055-2.695.11-4.07-.055-4.345-.495-10.285-1.485-12.65-1.87.77.77 2.585 2.09 6.655 3.465.99.33 2.97.385 5.115.385h1.43c.605 0 1.32-.055 2.035 0a44.46 44.46 0 0 1 3.63.33c.605.11 1.21.33 1.815.495.55.165 1.265.385 1.815.825.55.44.88.935 1.155 1.43.275.495.495.935.77 1.375.44.77.99 1.375 1.43 1.595.22.11.44.22.55.22.11.055.22.055.22.055h-.22c-.165 0-.385 0-.605-.11-.495-.165-1.1-.55-1.705-1.265.715 3.465-.33 5.995-1.32 8.47-.275.66-.55 1.32-.77 2.035-.055.495-.11 1.045-.165 1.595-.055.605-.11 1.155-.11 1.76 0 .55-.055 1.1 0 1.54v1.54s-.055-.165-.11-.385c-.055-.275-.165-.605-.22-1.1-.055-.33-.11-.77-.11-1.21-.385 7.205 1.375 11.385 4.675 14.795-.44-.605-.715-1.155-.935-1.595l-.33-.66s.165.22.385.605c.275.385.66.935 1.155 1.54s1.155 1.265 1.87 1.925c.715.66 1.595 1.265 2.475 1.76.88.495 1.815.935 2.75 1.21.88.275 1.76.495 2.53.605.77.11 1.375.165 1.815.165h.715s-.275.055-.715.11c-.44.055-1.1.11-1.87.055a14.013 14.013 0 0 1-2.365-.385c2.64.99 5.005.88 7.81.66l.99-.165 1.65-.165a6.827 6.827 0 0 0-1.485-.165c.99-.33 2.09-.44 3.19-.385.275.165.44.22.66.22Zm-67.375-32.67c2.97.66 6.49 1.54 10.45 2.255-.715.22-1.375.495-1.925.88-.165.165-.385.275-.605.385.055.11.11.165.22.275-2.035-.44-4.125-.935-6.16-1.485-2.42-.66-4.785-1.43-7.15-2.2 4.51 2.09 9.35 3.52 14.245 4.565.33.275.715.55 1.32.88 1.265.715 3.245 1.65 6.105 2.31-.77-.055-1.595-.165-2.42-.275-3.96-.55-8.635-1.65-12.43-3.025-5.445-1.98-8.25-4.29-9.405-5.39 1.98-.33 4.565.165 7.755.825Zm3.135 8.03c2.97.44 6.545 1.1 10.56 1.485h.165c-.715.275-1.375.605-1.87 1.1-.165.165-.33.33-.495.44l.165.165c-2.2-.275-4.4-.66-6.6-1.1a132.705 132.705 0 0 1-6.71-1.65c4.29 1.815 8.91 2.805 13.53 3.465.22.055.44.055.66.055.33.22.715.495 1.32.825 1.045.55 2.585 1.155 4.675 1.595-.605 0-1.265-.055-1.925-.055-3.74-.165-8.195-.935-11.77-1.98-5.225-1.595-7.92-3.685-8.965-4.675 1.87-.385 4.29-.11 7.26.33Zm4.235 7.48c2.915.11 6.38.44 10.175.605.44 0 .88 0 1.32.055-1.265.44-2.31.935-3.08 1.595-2.145-.11-4.29-.33-6.38-.55-2.2-.22-4.345-.55-6.545-.715 4.07.935 8.195 1.54 12.375 1.87l-.385.495.55.22c.055 0 .715.275 2.035.55 1.32.22 3.355.385 6.215.22.605-.055 1.155-.11 1.815-.165a57 57 0 0 0-1.595.495c-.22 0-.495.055-.77.055-.77.055-1.65.055-2.53.11-3.52.055-7.7-.44-11.11-1.1-4.95-.935-7.755-2.365-8.965-3.025 1.595-.715 3.96-.825 6.875-.715Zm-.22 7.095c2.53-1.43 7.425-.99 13.585-.935-.385.33-.77.66-.99 1.1l-.275.44c-1.705-.055-3.465-.11-5.17-.22-1.76-.11-3.465-.22-5.225-.22 3.465.55 6.93.825 10.45.99.44 0 .88.055 1.375.055.275.055.55.11.935.165 1.21.22 3.08.33 5.61.055.66-.055 1.32-.165 1.98-.275a.76.76 0 0 1-.165.22c-.715.275-1.32.605-1.87.935-1.045.22-2.53.33-4.235.385-2.805.055-6.05-.165-8.8-.55-3.905-.605-6.215-1.595-7.205-2.145Zm5.61 5.5c2.09-1.375 6.38-1.32 11.66-1.76.495-.055 1.045-.11 1.54-.165-.055.11-.11.165-.165.275l-.22.44.385.165c.055 0 .385.165 1.045.275-1.155.165-2.365.275-3.575.385-1.485.11-3.025.165-4.51.165-1.485.055-3.025.055-4.51.165 3.025.275 6.05.275 9.075.11 1.485-.055 3.025-.22 4.51-.385.495-.055.99-.165 1.43-.275.715 0 1.54-.11 2.475-.22.055 0 .11 0 .165-.055-.11.33-.275.605-.495.825-.495.44-2.42.935-4.84 1.21-2.42.275-5.28.33-7.645.165-3.41-.165-5.445-.935-6.325-1.32Zm4.73 5.39c1.87-1.705 6.105-2.31 11.22-3.575.55-.11 1.1-.275 1.65-.44-.385.385-.66.825-.88 1.265l-.11.275c-.495.11-.935.22-1.43.385-1.485.33-2.915.605-4.4.88-1.485.275-2.97.495-4.4.825 3.025-.22 5.995-.66 8.965-1.32.66-.165 1.32-.275 1.98-.44.275.055.66.11 1.21.11.935 0 2.365-.11 4.18-.605-.825.495-2.255 1.045-4.015 1.54-2.31.66-5.115 1.155-7.48 1.375-3.465.33-5.555-.055-6.49-.275Zm7.15 4.125c1.21-1.815 4.565-2.86 8.58-4.51.44-.165.825-.33 1.265-.55-.55.55-.935 1.155-1.045 1.87-.165.055-.33.165-.495.22-1.155.44-2.31.88-3.465 1.265-1.155.385-2.31.77-3.465 1.265 2.42-.495 4.785-1.265 7.095-2.09.055-.055.165-.055.22-.11v.165l.385.11c.055 0 .495.11 1.375.055.44-.055.99-.11 1.65-.275-.22.11-.495.22-.715.33a34.467 34.467 0 0 1-5.94 2.035c-2.86.55-4.62.385-5.445.22Zm5.5 2.365c1.155-1.65 4.18-2.53 7.755-4.235l.33-.165a3.47 3.47 0 0 0-.44 1.265l-.055.275c-.055 0-.055.055-.11.055-1.045.44-2.09.88-3.135 1.265-1.045.385-2.145.715-3.19 1.155 2.255-.44 4.4-1.155 6.545-2.035.165-.055.275-.165.44-.22.22 0 .55 0 1.045-.055.77-.11 1.815-.33 3.19-.99-.55.385-1.21.825-1.98 1.265a25.27 25.27 0 0 1-5.445 2.09c-2.585.66-4.235.44-4.95.33Zm6.6 1.76c.605-1.595 2.75-2.64 5.335-4.235-.275.44-.385.935-.385 1.485v.11c-.55.33-1.1.605-1.705.88-.77.44-1.595.825-2.365 1.265a24.715 24.715 0 0 0 4.29-1.87h.11c.055 0 .44.11 1.1 0a8.042 8.042 0 0 0 1.87-.44l-.11.11c-1.21.825-2.805 1.595-4.125 2.09-2.035.77-3.41.715-4.015.605Zm5.335 1.815c.385-1.76 2.475-3.135 5.005-5.06.22-.165.495-.385.715-.55-.825.935-1.375 1.76-1.54 2.64-.385.275-.825.55-1.21.825-.715.495-1.485.99-2.2 1.595 1.155-.55 2.255-1.21 3.355-1.925 0 .165 0 .33.055.55l.055.385h.495c-.33.165-.605.385-.935.495-1.815.935-3.19 1.045-3.795 1.045Zm7.865-3.41c-1.485 1.045-2.695 1.32-3.245 1.375-.055-1.65 1.595-3.19 3.52-5.17.165-.165.275-.33.44-.44a4.064 4.064 0 0 0 1.65-.605c-.055.165-.055.33-.055.44 0 0 0 .055-.055.055-.495.605-.99 1.21-1.54 1.815-.55.55-1.1 1.1-1.705 1.65-.55.55-1.155 1.1-1.65 1.65 1.32-.88 2.53-1.925 3.63-3.025.495-.495.935-.99 1.375-1.485.055.22.165.44.275.66l.165.33.165.055-.055.055c-.77.88-1.87 1.925-2.915 2.64Zm-2.2 4.29c.165-1.595 1.87-2.695 3.74-4.455.385-.385.77-.77 1.1-1.21-.55.88-.88 1.705-.825 2.53-.55.44-1.045.935-1.595 1.32-.605.44-1.21.88-1.76 1.375 1.265-.55 2.365-1.32 3.465-2.2 0 .11.055.165.055.275l.11.385h.33s.33 0 .77-.165c-.66.55-1.375 1.1-2.09 1.485-1.595.715-2.805.715-3.3.66Zm7.48-4.29c-1.32 1.21-2.42 1.54-2.97 1.705-.22-1.375.715-2.75 1.98-4.455a3.62 3.62 0 0 0 1.705-.88l.11-.11v.385c-.165.275-.385.55-.55.825-.44.605-.935 1.21-1.375 1.76-.44.605-.935 1.155-1.375 1.815 1.155-.99 2.145-2.145 3.08-3.355.11-.165.22-.33.385-.495.055.165.11.33.22.495l.165.33.275.055h.11c-.495.715-1.155 1.375-1.76 1.925Zm-1.54 4.895c-.275-1.375.715-2.75 1.98-4.455l.055-.055c.66-.605 1.32-1.32 1.925-2.09-.385.77-.605 1.43-.55 2.145-.11.165-.22.275-.275.44-.44.55-.88 1.155-1.32 1.705-.44.55-.935 1.1-1.32 1.705 1.1-.935 2.035-2.035 2.97-3.135l.11-.11c.055.11.11.22.165.385l.165.33h.275s.165 0 .385-.11c-.495.66-1.1 1.265-1.65 1.76-1.32 1.045-2.42 1.375-2.915 1.485Zm6.655-5.335c-1.1 1.155-2.145 1.54-2.64 1.705-.33-1.045.11-2.145.88-3.465.385-.165.88-.44 1.32-.88.165-.11.275-.275.385-.44.055.11.11.275.165.44a.417.417 0 0 0-.11.22c-.385.605-.77 1.155-1.155 1.705s-.77 1.1-1.1 1.76c.99-.99 1.815-2.09 2.585-3.245v-.055c0 .055.055.055.055.11l.22.275.275.055h.55c-.385.66-.935 1.265-1.43 1.815Zm-1.155 4.235c-.33-.99.055-1.925.66-3.08.33-.22.66-.495.99-.88.66-.66 1.32-1.54 1.815-2.365.055 0 .055 0 .11-.055-.11.385-.22.715-.275 1.045-.22.495-.495.99-.77 1.43-.33.55-.715 1.1-1.1 1.65-.385.55-.715 1.045-1.045 1.65.935-.935 1.76-1.98 2.475-3.08.165-.22.275-.44.44-.715.055.33.165.66.44.99l.165.22c-.385.55-.88 1.1-1.32 1.595-1.045 1.1-2.09 1.485-2.585 1.595Zm4.07-3.52c-.44-.88-.22-1.98.275-3.245.165-.165.385-.275.55-.495.165-.165.33-.33.44-.55.055.22.11.44.22.715-.165.385-.33.825-.55 1.21-.275.55-.495 1.155-.715 1.705a24.152 24.152 0 0 0 1.485-2.585l.11.22.275.055s.22.055.55 0c-.165.33-.385.715-.605.99-.77 1.21-1.65 1.76-2.035 1.98Zm1.32.99a2.872 2.872 0 0 1-.22-1.155c.44-.33.935-.825 1.485-1.595v-.055c-.11.165-.165.385-.275.55-.275.55-.55 1.045-.715 1.595.715-.935 1.32-1.98 1.815-3.08.055-.165.165-.33.22-.495a5.13 5.13 0 0 0 1.32-.825l.22-.22c-.275 1.045-.99 2.475-1.76 3.465-.77 1.155-1.65 1.65-2.09 1.815Zm3.575-6.6c.11.165.165.275.22.44-.22.275-.44.55-.715.825-.99.935-1.98.99-2.475.99-.495-1.045-.055-1.87.55-2.915.495.055.935.11 1.32.22-.22.33-.44.715-.66 1.045-.275.44-.605.825-.88 1.265.77-.55 1.375-1.32 1.925-2.145.33.055.55.165.715.275Zm-47.63-44.77c.605.66 1.87 1.65 4.235 2.695h-.055c-1.1-.165-2.2-.33-3.245-.495-2.145-.44-4.345-.935-6.435-1.485-2.145-.605-4.235-1.265-6.325-1.87 4.015 1.925 8.36 3.135 12.705 4.07.88.165 1.705.33 2.585.495-.715.11-1.375.33-1.87.66l-.495.275.495.33c.055 0 .33.22.99.55a49.786 49.786 0 0 1-8.305-2.255c-4.84-1.815-7.315-3.96-8.305-4.95 1.76-.385 4.015 0 6.875.55 2.035.33 4.455.88 7.15 1.43Zm5.555 11.99c-3.355-.165-7.37-.825-10.56-1.76-4.675-1.375-7.15-3.3-8.085-4.235 1.65-.495 3.795-.385 6.49-.055 2.695.33 5.885.88 9.515 1.21a47.77 47.77 0 0 0 4.895.275h-.33c-2.365.165-4.18.495-5.39 1.32l-.275.22c-.165 0-.385-.055-.55-.055-2.09-.275-4.125-.55-6.16-.99-2.035-.385-4.07-.88-6.05-1.32 3.905 1.54 8.03 2.42 12.21 3.025.55.055 1.155.165 1.705.22.275.11.605.275 1.045.385 1.265.44 3.245.935 6.05 1.21h.275c-.165 0-.33.055-.495.055-1.045.165-2.035.33-2.805.55h-.165c-.44 0-.88-.055-1.32-.055Zm1.485 5.72c-3.19.165-7.04-.11-10.23-.77-4.565-.935-7.095-2.53-8.085-3.355 1.54-.715 3.575-.825 6.16-.77 2.585.055 5.72.275 9.185.275h.88l-.275.275.44.275c.055 0 .55.33 1.76.77.44.165 1.045.33 1.705.44-.935.055-1.925.165-2.86.165-.99 0-1.98.055-2.97.055-1.98-.055-3.96-.165-5.94-.385-1.98-.165-3.905-.44-5.885-.66 3.85 1.1 7.865 1.54 11.88 1.705.99.055 1.98.055 3.025.055.99 0 1.98-.055 3.025-.11.935-.055 1.87-.22 2.805-.33.11 0 .22-.055.275-.055H69.19c-.22.055-.44.11-.605.165-1.045.275-1.98.495-2.86.715-1.43.385-2.53.88-3.3 1.595 0-.055-.055-.055-.055-.055Zm1.375 5.885c-2.75.385-5.94.44-8.58.11-4.29-.55-6.655-1.98-7.59-2.64 1.32-.825 3.19-1.155 5.555-1.32 2.365-.165 5.17-.22 8.305-.55.44-.055.825-.11 1.265-.165.22.11.55.22.935.275.99.275 2.585.495 4.73.33h.165c-.11.055-.165.055-.275.11a33.95 33.95 0 0 1-2.53.715c-1.76.385-3.575.66-5.39.825-1.815.165-3.63.165-5.445.165-1.815 0-3.63-.165-5.39-.22 3.575.77 7.26.935 10.945.715 1.705-.11 3.41-.33 5.06-.605-.825.44-1.485.99-1.87 1.705l-.22.44.33.11Zm3.19 4.015c-2.695.66-5.94 1.155-8.69 1.375-3.96.275-6.38-.22-7.425-.495 2.2-1.925 7.04-2.64 13.035-3.905.66-.165 1.32-.275 2.035-.44.935.11 2.145.165 3.74-.055.275-.055.55-.11.88-.165-1.1.33-1.98.66-2.64 1.21-1.595.495-3.245.88-4.895 1.21-1.705.33-3.41.66-5.115.935s-3.41.55-5.115.88c3.465-.22 6.93-.66 10.34-1.32 1.375-.275 2.75-.55 4.07-.88-.055.11-.11.22-.165.385l-.165.44.275.275s.165.165.495.385l-.66.165Zm2.915 4.07a42.834 42.834 0 0 1-7.755 1.485c-3.575.385-5.775-.055-6.765-.33 1.87-1.98 6.215-2.75 11.55-4.125.715-.165 1.485-.385 2.255-.605.66.22 1.485.33 2.53.275.44 0 .88-.055 1.32-.11-.77.33-1.54.605-2.31.88-1.485.495-2.97.935-4.51 1.32-1.54.385-3.025.715-4.565.99-1.54.33-3.08.605-4.565.99 3.135-.275 6.215-.825 9.295-1.485 1.54-.33 3.08-.715 4.565-1.21.055 0 .11-.055.165-.055-.715.495-1.155 1.1-1.21 1.98Zm-4.785 1.87c-.11.055-.165.055-.275.11v-.055c.11 0 .22 0 .275-.055Zm7.535 1.485c-1.87.715-4.125 1.265-6.05 1.595-2.805.44-4.565.165-5.39-.055 1.32-1.76 4.73-2.585 8.8-3.96.11-.055.22-.055.275-.11.165.055.385.165.715.275.44.11 1.045.22 1.815.11-1.045.44-2.145.88-3.245 1.21-1.155.385-2.365.715-3.52 1.045-1.155.33-2.365.605-3.52 1.045 2.475-.33 4.84-.935 7.205-1.65 1.1-.33 2.2-.715 3.245-1.1-.22.44-.385.935-.33 1.595Zm-2.64 1.54a63.877 63.877 0 0 0-2.75 1.375c.11-.22.165-.495.22-.77.825-.165 1.65-.385 2.53-.605Zm5.335 1.705c-1.595.77-3.41 1.43-5.005 1.925-2.75.77-4.51.715-5.335.605 1.155-1.925 4.4-3.135 8.305-4.95.165.055.33.11.605.165.33.055.77.11 1.32.055 0 .055-.055.165-.055.22-.715.385-1.375.715-2.09 1.045-1.1.495-2.255.99-3.41 1.43-1.155.495-2.31.935-3.41 1.43 2.42-.605 4.73-1.485 6.985-2.475.66-.275 1.265-.55 1.925-.88 0 .11 0 .22.055.33l.055.385.275.11s.165.055.385.11c-.22.22-.385.33-.605.495Zm-3.08 1.98c-.22.165-.44.275-.605.44a.417.417 0 0 1-.22.11c.055-.11.11-.22.165-.275.165-.11.44-.165.66-.275Zm.99 3.355c-2.255.935-3.85 1.045-4.565.99.66-1.925 3.3-3.355 6.38-5.39.605-.385 1.21-.77 1.76-1.21.275 0 .66 0 .99-.055-.22.33-.385.715-.44 1.155-.77.605-1.54 1.155-2.31 1.65-.88.55-1.815 1.1-2.75 1.65-.935.55-1.815 1.045-2.695 1.65 1.98-.825 3.85-1.815 5.72-2.915.715-.44 1.43-.935 2.145-1.43 0 .11.055.275.11.385l.11.33.275.11s.165.055.44.055c-.165.11-.33.22-.495.385-1.32.99-3.08 1.98-4.675 2.64Zm.77.715c-.275.165-.55.275-.825.44.55-.33.99-.66 1.265-.935l.33-.165c-.275.22-.55.44-.77.66Zm6.93-1.21.275.055c-1.21.935-2.695 1.87-4.015 2.475-1.98.99-3.41 1.1-4.07 1.1.495-1.76 2.805-3.19 5.5-5.17l1.32-.99c.33-.055.66-.165 1.045-.33-.33.44-.55.88-.55 1.32-.55.44-1.1.935-1.705 1.32-.77.55-1.595 1.1-2.365 1.595-.825.55-1.595 1.045-2.365 1.595 1.76-.825 3.41-1.815 5.005-2.86a26.68 26.68 0 0 0 1.54-1.1c.055.165.11.385.22.605l.165.385Zm-7.535-10.89c-1.54.33-2.64 0-3.135-.22.33-1.595 1.925-2.145 3.905-3.245.715-.385 1.43-.825 2.145-1.375.11-.055.165-.11.275-.11.055.385.11.825.165 1.21-.22.165-.44.385-.66.55-.495.385-1.1.77-1.65 1.045-.605.275-1.155.55-1.76.825-.605.275-1.21.495-1.76.77 1.32-.22 2.585-.66 3.74-1.21a10.58 10.58 0 0 0 1.705-.99c.165-.11.275-.22.44-.33.11.44.165.825.275 1.265-.275.275-.605.495-.935.715-.825.495-1.87.88-2.75 1.1Zm1.595 1.87c-.495.275-1.045.495-1.485.825 1.155-.22 2.255-.715 3.245-1.32a7.86 7.86 0 0 0 1.1-.77c.055.11.11.275.165.385-.055.055-.11.11-.22.165-1.1.77-1.98 1.32-2.475 2.035a4.504 4.504 0 0 1-2.475-.22c.11-1.54 1.485-2.145 3.135-3.245.385-.275.77-.55 1.21-.88.11.44.275.825.44 1.21-.385.33-.77.605-1.155.88-.44.385-.935.66-1.485.935Zm-1.485-10.34c.99-.33 1.98-.77 2.97-1.43-.055.55-.055 1.1-.055 1.595l-.495.33c-.77.44-1.595.825-2.42 1.1-.825.275-1.705.495-2.53.66-.825.165-1.705.275-2.53.44 1.76.11 3.575-.11 5.28-.605a20.11 20.11 0 0 0 2.53-.99c.055-.055.11-.055.22-.11 0 .55 0 1.1.055 1.65-.11.055-.22.11-.385.165-1.375.66-3.135 1.045-4.62 1.1-2.145.055-3.465-.66-4.015-1.045.88-1.65 3.19-1.815 5.995-2.86Zm-8.745-18.7c-1.76-.165-3.465-.385-5.225-.55 3.41.77 6.93 1.21 10.45 1.32.88 0 1.76 0 2.64-.055.88-.055 1.705-.11 2.585-.055.935.055 1.925.165 2.86.33.22.165.385.33.55.55-1.32-.165-2.585-.22-3.795-.11-.33.055-.66.055-.935.11s-.605.11-.88.11c-.55.055-1.045.165-1.595.22-.605.055-1.155.11-1.705.165h-.495c-1.54-.11-3.08-.275-4.455-.495-3.96-.715-6.215-1.815-7.15-2.31 1.21-.44 2.86-.55 4.95-.495 1.1.33 3.025.385 5.17.385h1.43c.605.055 1.32.11 1.98.22 1.1.11 2.31.22 3.465.495.495.055.935.165 1.375.33-.275 0-.55-.055-.825-.055-.88-.055-1.76.055-2.64.11-.88.055-1.76.11-2.585.11a84.192 84.192 0 0 1-5.17-.33Zm.55 4.125c-1.705 0-3.41-.055-5.17-.055 3.465.44 6.875.605 10.34.33.88-.055 1.705-.165 2.585-.275.88-.11 1.705-.275 2.53-.275 1.21-.055 2.475 0 3.685.11.055.33.11.66.11.99-1.155-.11-2.31-.11-3.41-.055-.55.055-1.155.055-1.705.165-.275.055-.55.055-.825.165-.275.055-.495.11-.77.165-.605.11-1.21.22-1.76.33-.385 0-.715.055-1.1.055-1.54.055-3.025 0-4.4-.11-3.96-.33-6.215-1.21-7.205-1.65 1.265-.605 3.08-.825 5.39-.99 2.255-.11 5.005-.165 7.92-.495a15.87 15.87 0 0 0 1.595-.22c.55-.055 1.21-.165 1.815-.22 1.21-.11 2.53-.055 3.795.11.055 0 .11 0 .165.055.11.385.22.77.275 1.1-1.21-.11-2.42-.165-3.63-.055-.88.055-1.705.22-2.585.33-.825.165-1.705.22-2.53.33-1.705.165-3.41.22-5.115.165Zm2.145 3.905c-1.54.11-3.08.11-4.62.165 3.08.33 6.215.275 9.295-.22.77-.11 1.54-.33 2.255-.44a31.27 31.27 0 0 1 2.255-.22 20.27 20.27 0 0 1 2.585 0c-.055.44-.165.825-.275 1.21-.88.055-2.145.055-3.575.22-.275 0-.55.055-.825.11-.275.055-.55.11-.88.165-.66.165-1.375.275-2.035.33-1.375.165-2.75.22-3.96.22-3.575-.11-5.665-.935-6.545-1.32 1.1-.66 2.75-.935 4.73-1.21 2.035-.22 4.4-.44 6.985-.99.275-.055.495-.11.77-.165l.825-.165c.55-.11 1.1-.11 1.65-.165 1.1-.055 2.2 0 3.355.055 0 .385 0 .77-.055 1.1-.88 0-1.815 0-2.695.055-.77.055-1.54.11-2.31.275-.77.165-1.54.33-2.255.495-1.595.22-3.135.385-4.675.495Zm.385 4.455c1.265-.22 2.53-.495 3.795-.825 1.265-.33 2.585-.55 3.85-.715.935-.165 1.87-.275 2.805-.44l.33-.825c-.275-.11-.605-.165-.99-.165-1.87.165-3.63.33-5.335.715-1.265.275-2.2.55-3.245.77-.99.22-1.87.44-2.695.66-1.65.44-2.915.935-3.74 1.705.77.33 2.585.88 5.61.66 1.045-.11 2.145-.22 3.3-.495.605-.11 1.045-.22 1.595-.33.275-.055.55-.11.77-.11.22-.055.385-.165.605-.22.825-.33 1.65-.55 2.53-.77.275-.055.44-.055.66-.055.055-.165.165-.33.22-.495.055-.11.11-.275.165-.385-.825.165-1.65.275-2.475.385-1.265.165-2.585.33-3.795.605-2.53.605-5.115.99-7.755 1.045 1.265-.33 2.53-.495 3.795-.715Zm1.1 4.4c-1.155.33-2.255.55-3.41.88a29.96 29.96 0 0 0 6.93-1.485l1.65-.66c.55-.22 1.045-.44 1.595-.66.385-.11.715-.275 1.1-.385-.11.495-.22.935-.275 1.485-.385.165-.825.33-1.265.495-.33.165-.88.385-1.32.55-.495.22-.99.385-1.485.55-.99.33-2.035.55-2.97.66-2.75.385-4.455-.055-5.17-.275.66-.825 1.815-1.43 3.245-1.925 1.43-.55 3.19-1.045 5.06-1.815.33-.165.66-.275.99-.44l1.155-.495c.825-.275 1.595-.55 2.475-.715.055 0 .165-.055.22-.055-.165.44-.33.825-.44 1.265-.495.165-.99.33-1.485.55-1.1.44-2.145 1.045-3.245 1.43-1.1.44-2.255.77-3.355 1.045Zm8.415 14.08c.495-.275.935-.605 1.43-.88.055-.055.165-.11.22-.165-.22-.385-.44-.715-.66-1.1l-.055.055c-1.595 1.1-2.915 1.87-2.805 3.355.495.165 1.54.33 2.805-.055.11-.055.275-.11.385-.165.33-.275.715-.605 1.1-.935-.165-.275-.385-.495-.55-.77-.055.055-.11.11-.22.11-.935.605-1.98 1.1-3.025 1.43.44-.33.935-.605 1.375-.88Zm2.31 2.64c-.44.33-.88.66-1.265 1.045 1.045-.495 1.98-1.1 2.915-1.705 0 0 .055 0 .055-.055.275.33.605.605.935.935-.495.33-1.045.66-1.595.88a5.601 5.601 0 0 1-2.75.385c-.275-1.43.825-2.365 2.255-3.465l.825.99s-.055 0-.055.055l-1.32.935Zm2.805 2.695c-.385.33-.715.66-1.045 1.045a19.362 19.362 0 0 0 2.475-1.65c.11-.055.165-.165.275-.22.11.11.22.165.33.275.22.165.495.385.715.55-.495.385-1.1.825-1.65 1.1-1.045.495-2.035.495-2.475.44-.495-1.375.495-2.31 1.76-3.41l.99.825c-.11.055-.165.165-.275.22l-1.1.825Zm5.28 2.53c-.22.22-.495.44-.715.605-1.155.825-2.2.88-2.695.88-.385-1.375.44-2.31 1.485-3.685.385.22.715.44 1.045.66-.33.44-.715.88-1.1 1.32-.385.44-.77.825-1.1 1.265.99-.605 1.815-1.43 2.53-2.365l.99.495c-.11.33-.275.55-.44.825Zm4.015.275c-.385.715-.935 1.43-1.54 1.925-.99.825-1.98.88-2.475.88-.55-1.32.22-2.2 1.045-3.63.385.165.77.33 1.155.44l-.165.33c-.275.44-.55.825-.88 1.265-.275.385-.605.77-.88 1.21.88-.605 1.54-1.375 2.145-2.255.11-.11.165-.275.22-.385.55.055.99.165 1.375.22Zm3.905.165c-.22.495-.44.88-.495 1.265-.275.385-.605.77-.935 1.1-1.045.935-2.09 1.045-2.53 1.1-.495-1.21.165-2.145.935-3.465.44.055.935.055 1.375.055-.055.055-.055.165-.11.22-.275.495-.605.935-.88 1.375-.33.44-.66.88-.935 1.32.88-.66 1.595-1.54 2.2-2.53.11-.11.165-.275.22-.44.33.055.715 0 1.155 0Zm1.32 1.43c-.275.44-.55.825-.77 1.265.77-.66 1.375-1.54 1.87-2.475.055-.165.165-.33.22-.44h.22c.44-.055.77-.055 1.155-.055a6.281 6.281 0 0 1-1.43 2.31c-.88.935-1.87 1.1-2.365 1.155-.605-1.1-.11-1.98.44-3.245.44-.055.88-.055 1.32-.11h.11c-.055.11-.055.165-.11.275-.165.44-.44.88-.66 1.32Zm-13.255-1.32c0 .275.11.605.275.935l.11.275-.055.055c-1.045.825-2.365 1.705-3.52 2.31-1.705.825-2.97.935-3.575.935.275-1.705 2.2-2.97 4.51-4.73.44-.33.825-.66 1.265-.99.44-.055.88-.165 1.375-.44.055-.055.165-.055.22-.11-.22.33-.385.66-.495 1.045l-.22.22c-.605.55-1.265 1.1-1.925 1.595-.66.495-1.32.99-2.035 1.43-.66.495-1.375.935-1.98 1.43 1.485-.715 2.915-1.595 4.235-2.53a16.01 16.01 0 0 0 1.815-1.43Zm-43.56-46.365c.055.055.55.825 1.98 1.925.385.275.825.605 1.32.935-.33-.11-.715-.165-1.045-.275-1.375-.495-2.805-.88-4.125-1.43-.66-.275-1.375-.495-2.035-.77l-2.035-.825c-2.695-1.155-5.28-2.475-7.865-3.85 4.895 3.355 10.34 5.72 15.95 7.535 1.21.385 2.475.77 3.74 1.1.935.495 2.035.99 3.3 1.43 2.2.825 4.73 1.485 7.205 2.035.165.055.33.055.495.11-3.52-.385-6.545-.88-9.02-1.21-.275-.055-.55-.055-.825-.055-4.455-1.1-9.515-2.86-13.53-4.95-3.025-1.54-5.28-3.135-6.93-4.51-1.595-1.375-2.585-2.475-3.135-3.19 2.255.33 5.06 1.485 8.635 2.86 2.31.88 4.895 1.925 7.81 2.915 0 .055.055.11.11.22ZM88.11 72.215l-1.705.22c-3.685.495-7.37 1.1-11.055 1.705l-2.97.495V72.49a8.713 8.713 0 0 1-1.54 1.65 8.596 8.596 0 0 1-3.355 1.595c-7.425 1.76-14.795 3.85-22.11 6.16L42.02 82.94V31.735h24.805c1.32 0 2.53.33 3.63.99.715.44 1.32.99 1.815 1.595v-2.64h31.46v.275l.055-.275h65.89c1.375 0 2.695.385 3.795 1.21 1.1.77 1.87 1.815 2.42 3.025.55 1.265.77 2.585.77 3.96v17.82c0 1.045-.22 2.035-.605 3.025-.385.935-.935 1.815-1.65 2.53-.055.055-.165.11-.22.22.99 3.3 1.98 6.6 2.915 9.9l.11.33v9.625l-3.41-1.155c-3.575-1.21-7.15-2.42-10.78-3.52l-1.485-.44-.33-1.485a26.31 26.31 0 0 1-.165-.88v2.09l-3.19-.77c-3.685-.88-7.37-1.815-11.055-2.53l-2.035-.44v-.055l-.935-.165a285.768 285.768 0 0 0-23.65-2.805l-2.255-.165h-.66c-3.685-.055-7.37-.11-11.055-.055l-2.09.055-.44-1.925v1.87l-2.42.165c-3.685.22-7.37.495-11.055.88l-2.09.22Zm29.755-29.755c-.33.935-.66 1.925-.99 2.86-.605 1.705-1.155 3.355-1.76 5.06.715 2.035 1.485 4.015 2.2 6.05.165.55.385 1.045.55 1.595V42.46Zm26.95 2.365-.165.44h.165v-.44Zm0 14.85h-.165.165s0 .055 0 0Zm-72.49-6.105v-1.155c-.165.22-.33.44-.55.605.22.165.385.33.55.55Z" fill="#9C9C9C"/><path fill-rule="evenodd" clip-rule="evenodd" d="M145.585 32.505h24.145c1.21 0 2.365.33 3.355 1.045a6.173 6.173 0 0 1 2.145 2.75c.495 1.155.715 2.365.715 3.63v17.82c0 .935-.165 1.87-.55 2.75-.33.825-.825 1.65-1.485 2.255-.165.165-.385.33-.55.495 1.045 3.465 2.035 6.93 3.08 10.395l.055.22v8.47l-2.365-.825c-3.575-1.21-7.205-2.42-10.835-3.52l-1.045-.275-.22-1.045c-.495-2.31-1.045-4.62-1.54-6.875-.055-.275-.11-.605-.22-.88v8.195l-2.2-.55c-3.685-.88-7.37-1.815-11.11-2.53l-1.43-.275V73.7l-1.54-.275c-7.865-1.265-15.785-2.255-23.705-2.86l-1.65-.11V70.4h-1.265c-3.685-.055-7.37-.11-11.055-.055h-1.43l-.33-1.43c-.495-2.145-.99-4.345-1.485-6.49v7.92l-1.705.11c-3.685.22-7.37.495-11.055.88l-1.98.22V32.67H103.07V39.38l1.155-5.28.33-1.43h13.86V39.05l-.11.275c-.715 1.98-1.375 3.96-2.09 5.885-.605 1.76-1.21 3.52-1.87 5.335.77 2.09 1.54 4.235 2.255 6.325.66 1.925 1.375 3.795 2.09 5.72V32.67H145.585v-.165Zm0 8.14c-.44 1.21-.935 2.365-1.375 3.575l-.44 1.21-1.265-.055-9.075-.33v.385l9.24.495 1.705.11V58.905l-1.98-.165c-3.025-.275-5.995-.55-9.02-.825v1.265c3.74.385 7.48.825 11.165 1.265l1.045.11v-19.91ZM73.095 68.2c-.055.99-.33 1.87-.77 2.75-.495.99-1.155 1.87-2.035 2.585-.88.715-1.925 1.155-3.025 1.43a338.63 338.63 0 0 0-22.165 6.16l-2.31.715V32.45h24.035c1.155 0 2.255.275 3.245.88a5.709 5.709 0 0 1 2.2 2.365c.44.88.715 1.76.77 2.695V32.45H87.78V71.445l-1.54.22c-3.685.495-7.37 1.1-11.055 1.705l-2.09.33v-5.5Zm0-10.725V48.4c-.055.99-.385 1.925-.88 2.805-.44.715-.935 1.375-1.595 1.87.605.44 1.155.935 1.54 1.595.55.825.88 1.76.935 2.805Z" fill="#fff"/><path fill-rule="evenodd" clip-rule="evenodd" d="M55.715 59.895c1.485-.275 2.97-.495 4.455-.715v5.555c-1.485.275-2.97.605-4.455.88v-5.72Zm4.455-10.89c-1.485.11-2.97.275-4.455.44V44.77c1.485-.11 2.97-.22 4.455-.275v4.51Zm6.655 24.255c2.64-.605 4.51-2.86 4.51-5.61v-9.57c0-2.805-2.145-4.4-4.62-4.125V52.91c2.475-.22 4.62-2.255 4.62-5.005V39.16c0-2.75-1.815-4.73-4.51-4.73H44.55v45.1c7.425-2.42 14.85-4.565 22.275-6.27ZM86.02 69.905V34.32H74.91v37.29c3.685-.605 7.37-1.21 11.11-1.705ZM103.235 46.75H101.2V34.32H90.09v35.09c3.685-.385 7.425-.605 11.11-.88V55.275c.66 0 1.375 0 2.035-.055l1.485 6.6c.495 2.2.99 4.4 1.54 6.545 3.685-.055 7.425 0 11.11.055v-4.235c-.825-2.31-1.65-4.62-2.53-6.93l-2.475-6.93c.66-1.98 1.375-3.96 2.035-5.885.66-1.98 1.375-3.96 2.09-5.94v-4.235h-10.615c-.44 2.09-.88 4.125-1.32 6.215l-1.32 6.27ZM144.32 71.5v-9.295a335.17 335.17 0 0 0-12.76-1.43v-4.84c3.63.275 7.315.605 10.945.935v-9.185c-3.685-.22-7.315-.385-10.945-.55V43.23c3.63.11 7.315.22 10.945.385.605-1.54 1.21-3.08 1.76-4.62v-4.62h-23.87v34.32c7.975.605 15.95 1.54 23.925 2.805ZM162.965 44.825v7.81c-1.485-.165-2.97-.385-4.455-.55V44.55c1.485.055 2.97.165 4.455.275Zm-15.62-10.505v37.84c3.74.77 7.425 1.65 11.165 2.585v-12.54c.77.11 1.485.275 2.255.44l1.485 6.765c.495 2.255.99 4.565 1.54 6.875 3.63 1.045 7.26 2.31 10.89 3.52V74.14c-1.155-4.015-2.365-8.03-3.52-11.935 1.65-.22 2.97-2.365 2.97-4.455V39.985c0-3.3-1.815-5.61-4.455-5.61-7.425-.055-14.85-.055-22.33-.055Z" fill="#9C9C9C"/><path fill-rule="evenodd" clip-rule="evenodd" d="m160.82 86.24-.165.055c-.55.165-.99.55-1.265 1.045l-.66 1.375c5.665.165 10.615 2.805 15.455 5.555 1.21.715 2.75 1.65 4.125 2.145.385-.165.77-.22 1.155-.22a3.25 3.25 0 0 1 1.65 6.05l4.51 2.145.165.165c1.21 1.265.715 3.52.055 4.895-.66 1.375-2.035 3.025-3.685 3.19l-.33.055-25.795-12.155c-.66.66-1.65 1.045-2.64.825-.33-.055-.605-.165-.935-.22a2.402 2.402 0 0 1-1.705-1.375c-.11 0-.165-.055-.275-.055-.77-.165-1.32-.715-1.595-1.32-.055 0-.055.055-.11.055a4.216 4.216 0 0 0-2.09 3.355l-4.675 44c-.165 2.145-.77 4.235-1.705 6.16.66 2.145.77 4.455.77 6.71 0 6.325-.385 12.595-4.18 17.93-4.07 5.72-10.725 8.25-17.435 9.295-2.97 1.54-6.215 2.365-9.57 2.365-3.355 0-6.6-.825-9.57-2.365-6.71-1.045-13.365-3.52-17.435-9.295-3.795-5.335-4.18-11.66-4.18-17.93 0-2.255.165-4.565.77-6.71-.935-1.925-1.485-4.015-1.705-6.16l-4.675-44a4.216 4.216 0 0 0-2.09-3.355c-.055 0-.055-.055-.11-.055a2.18 2.18 0 0 1-1.595 1.32c-.11 0-.165.055-.275.055-.33.66-.935 1.21-1.705 1.375-.33.055-.605.165-.935.22a2.76 2.76 0 0 1-2.64-.825L37.95 112.695l-.33-.055c-1.595-.165-3.025-1.815-3.685-3.19-.66-1.375-1.155-3.63.055-4.895l.165-.165 4.51-2.145a3.25 3.25 0 0 1 1.65-6.05c.385 0 .77.055 1.155.22 1.375-.495 2.915-1.485 4.125-2.145 4.84-2.75 9.79-5.39 15.455-5.555l-.66-1.375a2.17 2.17 0 0 0-1.265-1.045l-.165-.055c-1.76.77-3.795 1.21-5.665 1.43-1.54.22-3.08.33-4.565.33-2.035 0-4.235-.22-6.16-.935-2.035-.715-4.235-2.2-4.565-4.51-.33-2.365 1.43-4.4 3.19-5.665C44 74.91 47.85 73.92 51.26 73.425c2.75-.385 6.71-.77 9.075 1.045 1.485 1.1 1.815 2.585 2.09 4.29 0 .11.055.22.055.33 0 .11.055.22.055.33.22 1.43.275 2.75-.33 3.96.77.55 1.375 1.32 1.76 2.145l1.32 2.695c.88-.055 1.815.44 2.365 1.21l.33.495c.275 0 .55-.055.825-.055 2.145 0 4.235.55 6.105 1.65a11.933 11.933 0 0 1 5.995 9.515l4.62 43.505c4.51-2.42 10.78-3.135 15.785-3.41a2.244 2.244 0 0 1 2.145-1.595h12.595c1.045 0 1.87.66 2.145 1.595 5.005.275 11.33 1.045 15.785 3.41l4.62-43.45c.33-3.96 2.585-7.535 5.995-9.515 1.87-1.1 3.96-1.65 6.105-1.65.275 0 .55 0 .825.055l.33-.495c.55-.77 1.43-1.21 2.365-1.21l1.32-2.695c.44-.825 1.045-1.595 1.76-2.145-.605-1.265-.55-2.53-.33-3.96 0-.11.055-.22.055-.33 0-.11.055-.22.055-.33.22-1.705.605-3.19 2.035-4.29 2.365-1.76 6.325-1.43 9.075-1.045 3.41.495 7.315 1.485 10.12 3.52 1.76 1.265 3.41 3.3 3.135 5.61-.33 2.31-2.53 3.795-4.565 4.51-1.925.715-4.125.935-6.16.935-1.54 0-3.08-.11-4.565-.33-1.485-.275-3.575-.715-5.335-1.485Z" fill="#fff"/><path fill-rule="evenodd" clip-rule="evenodd" d="m139.755 145.585 4.675-44a6.416 6.416 0 0 1 2.09-4.345c-1.87 1.155-3.08 2.915-3.245 4.785L138.6 145.97c-.385 4.84-2.805 9.02-6.545 11.605 4.29-2.53 7.26-6.985 7.7-11.99Zm-39.49 11.66v3.96a8.929 8.929 0 0 1 2.64-2.915c.055-.605.11-1.1.165-1.54-.88.55-1.705 1.155-2.42 1.87-.165-1.1-.385-1.375-.385-1.375Zm3.245.605.495-.33a15.81 15.81 0 0 1 2.2-.99c.055-.495.11-.88.165-1.265a20.11 20.11 0 0 0-2.53.99c-.165-1.045-.33-1.375-.33-1.375v2.97Zm3.245-4.235v2.805c.88-.22 1.815-.385 2.695-.44.055-.44.11-.825.165-1.155-.88 0-1.705.11-2.475.33-.22-1.21-.385-1.54-.385-1.54Zm3.245 2.31c.935 0 1.815.11 2.75.33.055-.44.11-.825.165-1.155a19.08 19.08 0 0 0-2.475-.33c-.22-1.54-.385-1.925-.385-1.925v3.08H110Zm12.98 5.39v12.21s.99-.88.99-6.105c0-5.225-.99-6.105-.99-6.105Zm-2.31 8.91v-.275l.055.055c0 .055 0 .11-.055.22Zm-.935-9.02c.11.22.22.44.33.715l-.33-.165v15.84s.605-.935.88-5.775c.165-.55.33-1.045.44-1.595.44.33.825.495 1.155.605-.11-.825-.165-1.925-.165-3.355 0-1.98.165-3.355.33-4.29-.495-1.265-1.155-2.365-1.98-3.41-.275-1.98-.605-2.475-.605-2.475v3.905h-.055Zm-3.245-3.355c.99.66 1.87 1.43 2.585 2.365.055-.66.165-1.155.22-1.595-.715-.715-1.54-1.375-2.42-1.87-.22-1.43-.44-1.815-.44-1.815v2.915h.055Zm-3.245-1.485c.935.275 1.87.66 2.695 1.1.055-.495.11-.88.165-1.21-.77-.44-1.65-.77-2.53-.99-.22-1.375-.385-1.705-.385-1.705v2.805h.055Zm-13.86 15.455c0-.495-.055-1.045-.055-1.595 0-.055-.055-.165-.055-.22l.055-.055c0-.77-.055-1.595-.055-2.53 0-3.74.165-6.16.385-7.7-.825 1.045-1.485 2.145-1.98 3.41-.275-1.485-.66-1.815-.66-1.815v12.21s.495-.495.77-2.75c.33-.055.715-.275 1.155-.605.11.55.275 1.1.44 1.65Zm10.12 7.425c-.055-.33-.055-.66-.11-1.045a12.089 12.089 0 0 1-2.035-.33c.055-.385.055-.77.11-1.265.605.165 1.21.275 1.87.33 0-.33-.055-.715-.055-1.045a9.328 9.328 0 0 1-1.705-.33c.055-1.265.165-2.75.165-4.62.385.275.88.495 1.375.66v-.385c-.495-.165-.99-.385-1.375-.715v-.66c.33.385.825.715 1.32.88v-1.155a2.014 2.014 0 0 1-1.045-1.76c0-.77.44-1.375 1.045-1.76v-1.155c-.495.165-.99.495-1.32.88v-.715c.385-.33.825-.55 1.32-.715.055-1.925.055-3.52.165-4.895-.825.055-1.65.11-2.42.22v21.45s.22-.495.495-2.365c.66.33 1.43.44 2.2.495Zm7.975-11.495c.44.275.825.495 1.21.77a9.58 9.58 0 0 1-1.265 3.3c0-1.21.055-2.53.055-4.07Zm1.485 5.83c-.385.55-.88 1.1-1.375 1.54-.11.11-.275.275-.44.385.055-.66.11-1.485.165-2.365.77-1.155 1.265-2.42 1.43-3.74v-1.98c0-2.585.11-4.51.22-5.995-.88-.33-1.65-.66-2.475-.88v19.36s.33-.605.605-3.135c.385-.33.77-.66 1.1-1.045.33-.33.605-.715.88-1.1 0-.275-.055-.66-.11-1.045Zm-13.42 4.73c.22.11.495.165.715.275-.055-.33-.055-.715-.11-1.1a11.093 11.093 0 0 1-1.98-.99c.055-.44.11-.99.11-1.595.55.44 1.1.825 1.76 1.155 0-.33-.055-.715-.055-1.1-.55-.33-1.1-.66-1.595-1.1.11-1.65.165-3.74.165-6.435v-.66c.44-.165.825-.33 1.32-.495 0-2.64.055-4.675.165-6.38-.275.055-.605.11-.88.165-.55.11-1.045.275-1.595.44v19.36s.275-.495.495-2.365c.44.33.935.605 1.485.825Zm5.445-8.745V166.1c.605.33 1.045.99 1.045 1.76-.055.715-.44 1.375-1.045 1.705Zm1.76 9.295c-.055-.33-.055-.66-.11-1.045-.66.165-1.375.275-2.035.33.055-.385.055-.77.11-1.21a11.115 11.115 0 0 0 1.87-.33c0-.33-.055-.66-.055-1.045a9.328 9.328 0 0 1-1.705.33c.055-1.21.11-2.585.165-4.29.495-.11.99-.33 1.375-.66v-.44c-.385.33-.825.55-1.375.715v-.495c.55-.165.99-.495 1.32-.88v-4.015a3.107 3.107 0 0 0-1.32-.88v-.495c.495.11.935.385 1.32.715 0-2.2.11-4.015.165-5.445-.825-.11-1.65-.165-2.475-.165v22.495s.275-.55.495-2.75c.77-.11 1.54-.22 2.255-.44Zm-9.955-3.355c.055.44.055.88.11 1.265-.385-.33-.77-.66-1.1-1.045-.33-.33-.605-.715-.88-1.1-.275 2.365-.66 2.915-.66 2.915V161.7c.825-.385 1.65-.66 2.42-.935-.11 1.705-.165 3.85-.165 6.6v.33c-.44.275-.825.495-1.21.77.22 1.155.66 2.31 1.265 3.3 0 .495.055.935.055 1.32a8.423 8.423 0 0 1-1.43-3.74c-.055 1.705-.11 3.08-.22 4.18.385.55.88 1.1 1.375 1.54.165.22.33.33.44.44Zm12.925-15.235c-.275-.055-.55-.165-.77-.22-.55-.165-1.1-.22-1.65-.33v21.45s.275-.55.495-2.64c.22-.11.495-.165.715-.275a8.299 8.299 0 0 0 1.54-.825c-.055-.33-.11-.66-.11-1.045-.605.385-1.32.715-1.98.99.055-.44.055-.88.11-1.43.605-.33 1.21-.715 1.76-1.155 0-.33-.055-.715-.055-1.1-.495.44-1.045.77-1.595 1.1.11-1.925.165-4.345.165-7.535V166.1l1.32.495c-.11-2.53-.055-4.675.055-6.325Zm67.925-51.975-.22-.11c.165-.55.22-1.1.11-1.595-.055.55-.33.99-.605 1.32l-25.465-12.1c.055-.495.275-.99.66-1.43-.165.11-.385.22-.55.33.11-.22.22-.44.385-.66l26.125 12.32c0 .33 0 .935-.44 1.925Zm-127.71-32.12c-.66-.055-1.375-.055-2.2-.055-.825.055-1.65.11-2.53.22-.825.165-1.705.33-2.475.55-.385.11-.77.22-1.1.33-.33.11-.66.275-.99.385-.605.275-1.1.495-1.43.66-.33.165-.495.275-.495.275s.22-.055.55-.165c.33-.11.88-.275 1.485-.385.33-.055.66-.165.99-.275.33-.055.715-.165 1.1-.22a31.54 31.54 0 0 1 2.42-.44c.825-.165 1.65-.275 2.475-.33.77-.11 1.54-.165 2.145-.165.605-.055 1.155-.055 1.54 0h.605s-.22-.055-.55-.165c-.385-.055-.88-.165-1.54-.22Zm100.21 21.615 26.015 12.265c.11-.055.22-.165.385-.275L156.31 97.35a3.79 3.79 0 0 0-.165.44Zm-2.86.44c-.055.11-.055.22 0 .275l.825.165s.055-.055.11-.165c.275-.935.66-1.87 1.045-2.75.605-1.43 1.375-2.75 2.31-4.07v-.165c-.22-.165-.44-.33-.66-.55a.118.118 0 0 0-.11.11 26.584 26.584 0 0 0-2.42 4.18c-.44 1.045-.825 1.98-1.1 2.97Zm13.915-4.125c3.74 1.815 8.085 4.015 10.175 5.115.055-.275.11-.495.22-.715-1.265-.495-2.805-1.375-4.51-2.31-3.905-2.255-8.745-5.005-14.08-5.225.22.44.22.99 0 1.43l-.165.33c-.055.055-.055.11-.11.165.44 0 .935-.055 1.485-.055 2.09-.055 4.785.22 6.985 1.265Zm13.42 5.39c0-.605-.495-1.1-1.1-1.1-.605 0-1.1.495-1.1 1.1 0 .605.495 1.1 1.1 1.1.605 0 1.1-.495 1.1-1.1Zm-26.29-8.635c.11.11.275.22.385.33a27.197 27.197 0 0 0-1.925 3.52c-.385.88-.715 1.76-1.045 2.695-.22-.055-.385-.11-.605-.165v-.22c.275-.825.55-1.65.935-2.475.55-1.265 1.265-2.475 2.09-3.63.11 0 .165-.055.165-.055Zm-16.39 61.05c-.055.11-.11.165-.165.275-.055.11-.11.165-.165.275-.055.11-.11.165-.165.275-.055.11-.11.22-.165.275-.055.055-.11.11-.11.165l-.495.66c-.055.055-.11.11-.11.165-.11.11-.165.22-.275.33l-.165.165c-.11.11-.165.22-.275.33l-.165.165-.33.33-.11.11-.33.33-.055.055c-.55.495-1.155.99-1.815 1.375l-.055.055c-.165.11-.275.165-.44.275l-.055.055c-.165.11-.33.165-.495.275-.88.495-1.815.88-2.75 1.21-.22.055-.385.11-.55.165-.22.055-.44.11-.605.165-.22.055-.44.11-.66.11a18.346 18.346 0 0 0-2.035-3.3h.055c.165 0 .33 0 .495-.055h.055c.165 0 .385-.055.55-.055.22-.055.44-.055.605-.11 4.95-1.1 8.8-5.335 9.185-10.505l4.675-44c.275-3.3 2.09-6.215 4.95-7.865l.99-.495c.165-.055.33-.11.44-.165h.055c.44-.165.88-.275 1.375-.385.055 0 .055 0 .11-.055.11 0 .22-.055.33-.055.11 0 .165-.055.275-.055.11 0 .165 0 .275-.055.11 0 .22 0 .385-.055h.825c.275 0 .55 0 .825.055-.055.055-.055.11-.11.165-.22 0-.495-.055-.715-.055-.385 0-.715 0-1.1.055.55 0 1.1.11 1.65.275-.22.44-.495.935-.66 1.375-.275.55-.495 1.155-.66 1.705-.66.11-1.32.275-1.925.55-.165.055-.33.165-.495.275-.11.055-.22.11-.33.22-.055.055-.11.055-.165.11-.055.055-.11.055-.165.11-.055.055-.11.055-.11.11l-.165.165-.11.11-.165.165-.11.11-.165.165c-.055.055-.055.11-.11.11l-.165.165c-.055.055-.055.11-.11.11-.055.055-.11.11-.11.165-.055.055-.055.11-.11.11-.055.055-.11.11-.11.165-.055.055-.055.11-.055.11-.055.055-.055.11-.11.22 0 .055-.055.11-.055.165-.055.055-.055.11-.11.22 0 .055-.055.11-.055.165-.055.055-.055.165-.11.22 0 .055-.055.11-.055.165 0 .055-.055.165-.055.22 0 .055-.055.11-.055.165 0 .055-.055.165-.055.22 0 .055 0 .11-.055.165 0 .055-.055.165-.055.22 0 .055 0 .11-.055.165 0 .055 0 .165-.055.22v.385l-4.675 44c0 .22-.055.44-.055.715 0 .055 0 .165-.055.22 0 .165-.055.33-.055.44 0 .11-.055.165-.055.275 0 .165-.055.275-.11.385 0 .11-.055.165-.055.275-.055.11-.055.275-.11.385 0 .11-.055.165-.055.275-.055.165-.055.275-.11.44 0 .055-.055.165-.055.22-.055.22-.165.385-.22.605 0 .055-.055.11-.055.165a3.79 3.79 0 0 1-.165.44c-.055.11-.055.165-.11.275l-.165.33c-.055.11-.11.165-.165.275l-.165.33c-.22-.165-.275-.055-.33.055Zm.22 7.59c0-1.925-.11-3.63-.495-5.225l.825-1.155c.385 1.65.55 3.465.55 5.5 0 7.92-.275 18.975-13.64 23.595 12.485-4.565 12.76-15.125 12.76-22.715Zm-43.725 22.66c-9.735-4.84-9.955-15.785-9.955-23.485 0-.715 0-1.375.055-2.035 2.145 1.87 4.73 3.245 7.645 3.795a19.438 19.438 0 0 0-1.485 7.425c0 4.235 1.375 8.14 3.685 11.275-.44-.22-.88-.495-1.265-.77-2.365-1.65-4.125-4.07-5.005-6.875-.99-2.805-1.21-5.83-1.43-8.91-.22 3.025-.275 6.105.44 9.185.385 1.54.99 3.025 1.815 4.345a13.199 13.199 0 0 0 3.19 3.575c1.265.99 2.64 1.815 4.125 2.42.44.165.825.33 1.265.495.33.275.605.55.935.77-1.43-.385-2.805-.77-4.015-1.21Zm-12.1-27.885-.825-1.155c-.385 1.65-.55 3.465-.55 5.5 0 5.72.11 13.035 5.225 18.425-4.345-5.225-4.345-12.265-4.345-17.6.055-1.87.165-3.575.495-5.17Zm51.975-5.39c-2.31-1.815-5.885-3.135-11.55-3.795 4.565 1.76 6.38 4.62 7.04 8.635-1.32.77-2.86 1.21-4.4 1.32v-3.905l-.385-.22c-1.76-.88-5.225-1.375-8.47-1.265-2.035-.77-4.29-1.155-6.6-1.155-2.31 0-4.565.44-6.655 1.155-3.245-.165-6.71.22-8.415 1.265l-.33.22v3.85a10.834 10.834 0 0 1-8.47-5.28c.44-.825.99-1.54 1.65-2.2-.825.385-1.485.88-2.09 1.32-.22-.44-.385-.88-.55-1.375 3.85-2.915 11.22-4.455 24.86-4.455 13.64 0 21.01 1.485 24.86 4.455-.11.55-.275 1.045-.495 1.43Zm-10.285 5.665v-2.53c-1.045-.385-2.585-.715-4.235-.825 1.54.88 2.97 2.035 4.235 3.355Zm-23.705-3.41c-1.705.11-3.3.385-4.345.88v2.585c1.265-1.375 2.75-2.53 4.345-3.465Zm9.68 1.43c8.415 0 15.29 6.82 15.29 15.235s-6.82 15.29-15.29 15.29c-8.415 0-15.29-6.82-15.29-15.29 0-8.415 6.875-15.235 15.29-15.235Zm19.14 17.93c.935-3.63 1.045-7.425 1.045-10.78-.77.275-1.54.495-2.365.66a19.438 19.438 0 0 1 1.485 7.425c0 .935-.055 1.815-.165 2.695Zm-1.98-9.79a18.413 18.413 0 0 1 1.265 7.095c-.11-4.84-2.145-9.515-5.61-12.815-1.705-1.65-3.685-3.025-5.885-3.905-2.2-.88-4.565-1.375-6.93-1.32-2.365 0-4.73.44-6.93 1.32-2.2.88-4.18 2.255-5.885 3.905-3.41 3.3-5.445 8.03-5.61 12.815-.055-2.42.385-4.84 1.265-7.095.88-2.255 2.255-4.345 3.96-6.105 3.41-3.52 8.305-5.555 13.2-5.555s9.79 2.035 13.2 5.555c1.705 1.76 3.08 3.85 3.96 6.105ZM65.835 98.56c-.275-.99-.66-1.925-1.045-2.805-.605-1.43-1.43-2.75-2.31-4.015-.055-.11-.055-.165 0-.165.22-.165.44-.33.66-.55.055 0 .11.055.11.11.935 1.32 1.76 2.75 2.42 4.18.44.935.77 1.87 1.045 2.86.055.11 0 .22 0 .275l-.825.165-.055-.055Zm-28.38 11.22c.165.11.275.22.385.275L63.855 97.79c-.055-.165-.11-.275-.165-.44l-26.235 12.43Zm-1.43-3.355c-.055.275-.11.88.385 1.87l.22-.11c-.165-.55-.22-1.1-.11-1.595.055.55.33.99.605 1.32l25.465-12.1c-.055-.495-.275-.99-.66-1.43.165.11.385.22.55.33-.11-.22-.22-.44-.385-.66l-26.07 12.375ZM65.78 90.97l-.11-.11c-.11.11-.275.22-.385.33.715 1.1 1.375 2.31 1.925 3.52.385.88.715 1.76 1.045 2.695.22-.055.385-.11.605-.165v-.22c-.275-.825-.55-1.65-.935-2.475-.66-1.21-1.375-2.475-2.145-3.575Zm-26.4 8.525c0-.605.495-1.1 1.1-1.1.605 0 1.1.495 1.1 1.1 0 .605-.495 1.1-1.1 1.1-.605 0-1.1-.495-1.1-1.1Zm13.42-5.39c-3.74 1.815-8.085 4.015-10.175 5.115-.055-.275-.11-.495-.22-.715 1.265-.495 2.805-1.375 4.51-2.31 3.905-2.255 8.745-5.005 14.08-5.225-.22.44-.22.99 0 1.43l.165.33c.055.055.055.11.11.165-2.145-.165-5.72-.11-8.47 1.21Zm27.28 51.48c.55 6.985 5.83 12.595 12.54 13.86a18.347 18.347 0 0 1 2.035-3.3c-.165 0-.275 0-.44-.055-.165 0-.275-.055-.385-.055h-.165c-.11 0-.22-.055-.33-.055-.055 0-.11 0-.22-.055a1.02 1.02 0 0 1-.385-.11c-.055 0-.11 0-.165-.055-.11-.055-.275-.055-.385-.11-.055 0-.11 0-.165-.055-.165-.055-.275-.11-.385-.11-.055 0-.055 0-.11-.055l-.495-.165a1.954 1.954 0 0 1-.495-.22c-.165-.055-.33-.165-.495-.22-.165-.055-.33-.165-.495-.275-.165-.11-.275-.165-.44-.275a8.393 8.393 0 0 1-.88-.605c-.55-.44-1.1-.935-1.595-1.485-.11-.11-.22-.275-.33-.385-.11-.11-.22-.275-.33-.44-.11-.11-.22-.275-.275-.385 0 0 0-.055-.055-.055-.11-.11-.165-.275-.275-.385 0 0 0-.055-.055-.055a1.647 1.647 0 0 1-.22-.44s0-.055-.055-.055c-.055-.11-.165-.275-.22-.385 0-.055-.055-.055-.055-.055-.055-.11-.11-.275-.165-.385 0-.055-.055-.055-.055-.11-.055-.11-.11-.275-.165-.385 0-.055-.055-.055-.055-.11a1.02 1.02 0 0 1-.11-.385c0-.055-.055-.11-.055-.165-.055-.11-.055-.22-.11-.385 0-.055-.055-.11-.055-.165-.055-.11-.055-.22-.11-.33 0-.055-.055-.11-.055-.22s-.055-.22-.055-.33c0-.055-.055-.165-.055-.22 0-.11-.055-.22-.055-.33 0-.055-.055-.165-.055-.22 0-.11 0-.22-.055-.33v-.275l-4.675-44c-.275-3.245-2.09-6.215-4.95-7.81-.385-.22-.77-.44-1.155-.605a10.23 10.23 0 0 0-3.85-.77c-.275 0-.55 0-.825.055.055.055.055.11.11.165.22 0 .495-.055.715-.055 1.705 0 3.41.44 4.895 1.32a9.647 9.647 0 0 1 4.84 7.7l4.675 44c.44 5.775 5.06 10.34 10.725 10.945-6.05-.055-11.275-4.84-11.77-10.615l-4.675-43.89c-.275-3.575-1.925-6.38-4.675-7.975a10.278 10.278 0 0 0-4.785-1.375c.275.55.55 1.045.825 1.65.275.55.495 1.155.66 1.705.825.11 1.65.385 2.42.825 1.87 1.1 3.025 2.915 3.19 5.06.165.055 4.84 44.055 4.84 44.055Zm12.375 22.22c0-2.86.715-5.555 1.925-7.92-.165.385-.33.825-.495 1.21-.715 2.145-1.045 4.455-.825 6.655.22-2.2.825-4.345 1.76-6.27.22-.44.44-.88.715-1.32a16.245 16.245 0 0 0-1.925 7.645c0 9.02 7.315 16.335 16.335 16.335s16.335-7.315 16.335-16.335c0-2.75-.66-5.335-1.87-7.59.22.385.495.825.66 1.265a18.677 18.677 0 0 1 1.76 6.27c.22-2.2-.055-4.51-.825-6.655-.165-.44-.33-.825-.495-1.265 1.21 2.42 1.925 5.115 1.925 7.975 0 9.68-7.865 17.545-17.545 17.545-9.57 0-17.435-7.865-17.435-17.545ZM59.29 83.27c.935-1.1.66-2.42.495-3.52 0-.11-.055-.275-.055-.385-.66.99-2.145 1.815-5.06 2.475l-.99-.33c0-.495-.22-1.045-.55-1.43-.385-.385-.88-.66-1.43-.715-1.21 0-2.2.99-2.2 2.2 0 .33.055.66.22.935-3.96.22-6.6-.495-8.25-1.485-.22.495-.33.99-.275 1.375.11.935.99 1.925 2.585 2.585-2.035-.66-3.08-1.76-3.245-2.75-.165-1.045.66-2.31 2.2-3.41 1.43-1.045 4.18-2.42 9.13-3.135 1.32-.165 2.53-.275 3.52-.275 1.76 0 3.08.275 3.85.88.88.66 1.045 1.705 1.155 2.805 0 .11.055.22.055.33 0 .11.055.22.055.33.165 1.1.33 2.09-.33 2.97-.165.165-.33.385-.55.55h-.33Zm-6.38-.11c-.33.33-.77.55-1.265.605.55.055 1.155-.11 1.595-.495l-.33-.11Zm114.18 0c.33.33.77.55 1.265.605a2.138 2.138 0 0 1-1.595-.495l.33-.11Zm-7.535-3.355c-.165 1.1-.33 2.09.33 2.97.165.165.33.385.55.55l.275-.11c-.935-1.1-.66-2.42-.495-3.52 0-.11.055-.275.055-.385.66.99 2.145 1.815 5.06 2.475l.99-.33c0-.495.22-1.045.55-1.43.385-.385.88-.66 1.43-.715 1.21 0 2.2.99 2.2 2.2 0 .33-.055.66-.22.935 3.96.22 6.6-.495 8.25-1.485.22.495.33.99.275 1.375-.11.935-.99 1.98-2.695 2.64.11-.055.22-.055.33-.11 1.76-.66 2.915-1.65 3.025-2.695.165-1.045-.66-2.31-2.2-3.41-1.43-1.045-4.18-2.42-9.13-3.135-1.32-.165-2.53-.275-3.52-.275-1.76 0-3.08.275-3.85.88-.88.66-1.045 1.705-1.155 2.805 0 .11-.055.22-.055.33.055.22.055.33 0 .44Zm1.21 14.08 24.255 11.44s1.045 1.155-.165 3.685c-1.155 2.42-2.805 2.585-2.805 2.585l-26.4-12.485c0 .055-.055.055-.055.11-.33.77-1.155 1.21-1.925 1.045-.33-.055-.605-.165-.935-.22-.55-.11-.99-.605-1.1-1.21h-.055l-.825-.165c-.715-.165-1.155-.935-.99-1.76-.55.11-1.045.33-1.54.605-1.54.88-2.53 2.42-2.64 4.235l-4.675 44c-.165 2.2-.825 4.29-1.76 6.16.66 1.98.88 4.235.88 6.82 0 4.675 0 11.715-3.96 17.325-3.355 4.73-8.965 7.645-16.885 8.855a19.284 19.284 0 0 1-9.185 2.31c-3.3 0-6.435-.825-9.185-2.31-7.975-1.21-13.53-4.125-16.885-8.855-3.96-5.555-3.96-12.65-3.96-17.325 0-2.53.22-4.785.88-6.82a15.642 15.642 0 0 1-1.76-6.16l-4.675-44c-.165-1.76-1.1-3.3-2.64-4.235-.495-.275-.99-.495-1.54-.605.165.825-.275 1.595-.99 1.76l-.825.165h-.055c-.165.605-.55 1.1-1.1 1.21-.33.055-.605.165-.935.22-.825.165-1.595-.275-1.925-1.045 0-.055-.055-.055-.055-.11l-26.4 12.485s-1.595-.165-2.805-2.585c-1.21-2.53-.165-3.685-.165-3.685l24.255-11.44c-1.87.055-4.18.33-5.995 1.21-4.235 2.035-9.35 4.675-10.945 5.5-.385.66-1.045 1.045-1.87 1.045-1.21 0-2.145-.99-2.145-2.145 0-1.21.935-2.145 2.145-2.145.385 0 .77.11 1.1.33 1.265-.385 2.915-1.32 4.785-2.42 4.07-2.31 9.515-5.5 15.62-5.39l.165-.165c.22-.165.44-.275.66-.33l-1.265-2.53a3.36 3.36 0 0 0-1.925-1.65l-.55-.165c-1.32.66-3.245 1.21-5.72 1.54-1.595.22-3.025.33-4.455.33-2.255 0-4.18-.275-5.775-.88-2.2-.825-3.63-2.145-3.795-3.63-.44-2.97 3.685-6.655 12.32-7.865 4.125-.605 6.71-.33 8.25.825 1.32.99 1.485 2.42 1.65 3.575 0 .11.055.22.055.33 0 .11.055.22.055.33.165 1.155.385 2.585-.605 3.905-.055.11-.165.165-.22.275.99.495 1.87 1.265 2.365 2.31l1.76 3.575c.605-.44 1.485-.22 2.035.495.22.33.495.66.66 1.045.495-.055.935-.11 1.43-.11 1.925 0 3.85.495 5.555 1.485 3.135 1.815 5.17 5.06 5.5 8.69l4.675 44c.055.385.11.825.165 1.21.11-.11.275-.165.44-.275 3.465-2.255 8.91-3.465 17.27-3.905v-.385c0-.66.495-1.155 1.155-1.155h12.595c.66 0 1.155.495 1.155 1.155v.385c8.36.44 13.805 1.705 17.27 3.905.165.11.275.165.44.275.055-.385.165-.825.165-1.21l4.675-44a10.911 10.911 0 0 1 5.5-8.69 11.067 11.067 0 0 1 5.555-1.485c.495 0 .935.055 1.43.11.22-.33.44-.715.715-1.045.55-.715 1.43-.935 2.035-.495l1.76-3.575a5.072 5.072 0 0 1 2.365-2.31c-.055-.11-.165-.165-.22-.275-.99-1.32-.77-2.75-.605-3.905 0-.11.055-.22.055-.33 0-.11.055-.22.055-.33.165-1.155.33-2.585 1.65-3.575 1.485-1.155 4.125-1.375 8.25-.825 4.125.605 7.425 1.76 9.625 3.355 1.925 1.375 2.86 3.025 2.64 4.565-.22 1.485-1.595 2.805-3.795 3.63-1.595.55-3.52.88-5.775.88-1.375 0-2.86-.11-4.455-.33-2.53-.33-4.4-.88-5.72-1.54l-.55.165a3.36 3.36 0 0 0-1.925 1.65l-1.265 2.53c.22.055.495.165.66.33l.165.165c6.105-.055 11.605 3.08 15.62 5.39 1.87 1.045 3.465 1.98 4.785 2.42.33-.22.715-.33 1.1-.33 1.21 0 2.145.935 2.145 2.145a2.148 2.148 0 0 1-2.145 2.145c-.77 0-1.485-.44-1.87-1.045a875.52 875.52 0 0 0-10.945-5.5c-1.98-.935-4.29-1.21-6.16-1.265Z" fill="#9C9C9C"/><path fill-rule="evenodd" clip-rule="evenodd" d="M123.97 76.56v-2.035h11.055c1.21 0 2.365.33 3.19 1.265.77.88 1.1 1.925 1.1 3.08v11.88c0 .55-.055 1.1-.22 1.65-.165.605-.44 1.155-.88 1.595-.44.495-.99.825-1.595 1.045-.715.275-1.43.33-2.2.33h-2.915v6.6h-7.59v-2.2c-.11.22-.275.44-.44.66-.44.495-.99.88-1.595 1.155-.715.275-1.485.385-2.255.385h-5.72c-.77 0-1.54-.11-2.255-.385-.605-.275-1.155-.605-1.595-1.155-.165-.22-.33-.44-.44-.66v2.2h-7.7v-9.9h-.055v9.9h-7.7v-2.09c-.165.275-.385.605-.605.825-.99 1.045-2.53 1.265-3.905 1.265h-8.36v-7.26h5.94v-3.08h-2.145c-.44 0-.825-.055-1.265-.11a3.629 3.629 0 0 1-1.485-.66 3.532 3.532 0 0 1-1.045-1.375c-.275-.605-.33-1.32-.33-1.98V79.09c0-1.21.33-2.365 1.155-3.245.935-.99 2.2-1.32 3.52-1.32h16.225V85.14h.055V74.525h7.7v2.035c.165-.275.33-.495.55-.715.935-.99 2.2-1.32 3.52-1.32h6.215c1.32 0 2.64.33 3.52 1.32.22.22.385.44.55.715Zm-29.81 5.225h-5.72v3.025h2.53c.99 0 1.98.22 2.695.88.165.165.33.33.44.55v-4.455h.055Zm22.55-.275v13.42h.165V81.51h-.165Zm14.795 0v7.095h.275V81.51h-.275Z" fill="#fff"/><path fill-rule="evenodd" clip-rule="evenodd" d="M82.665 100.65v-4.62H88c.385 0 .605-.165.605-.495v-4.51c0-.33-.055-.55-.22-.605-.11-.055-.385-.11-.715-.11h-2.585c-.385 0-.715-.055-1.045-.11a1.808 1.808 0 0 1-.88-.385c-.275-.22-.44-.495-.605-.88-.165-.385-.22-.88-.22-1.485v-8.415c0-.99.275-1.76.825-2.365.55-.605 1.375-.88 2.53-.88h7.7v4.62h-5.61c-.385 0-.605.165-.605.55v4.51c0 .275.055.44.165.495.11.11.33.11.55.11h3.135c.825 0 1.43.165 1.815.55.44.385.605 1.045.605 1.98V96.8c0 1.375-.275 2.31-.825 2.915-.55.55-1.54.88-2.97.88h-6.985v.055ZM108.35 100.65h-5.06v-9.9h-2.695v9.9h-5.06V75.845h5.06V86.46h2.695V75.845h5.06v24.805ZM115.83 80.19c-.275 0-.44.165-.44.495V95.81c0 .165.055.33.11.385.055.055.165.11.385.11h1.87c.22 0 .33-.055.385-.11.055-.055.11-.22.11-.385V80.685c0-.33-.165-.495-.44-.495h-1.98Zm7.425 16.94c0 .495-.055.935-.165 1.375-.11.44-.33.77-.605 1.1-.275.33-.66.55-1.1.77-.44.22-1.045.275-1.705.275h-5.72c-.66 0-1.265-.11-1.705-.275-.44-.22-.825-.44-1.1-.77-.275-.33-.44-.715-.605-1.1-.11-.44-.165-.88-.165-1.375V79.09c0-.99.275-1.76.825-2.365.55-.605 1.375-.88 2.53-.88h6.16c1.155 0 2.035.275 2.53.88.55.605.825 1.375.825 2.365v18.04ZM130.185 80.19v9.735h2.475c.22 0 .33-.055.385-.11.055-.055.11-.22.11-.385v-8.745c0-.33-.165-.495-.44-.495h-2.53Zm4.84-4.345c.99 0 1.705.275 2.2.825.495.55.715 1.265.715 2.2v11.88c0 .495-.055.935-.165 1.32-.11.385-.275.77-.55 1.045-.275.275-.66.55-1.1.715-.44.165-1.045.275-1.705.275h-4.235v6.6h-4.895v-24.75h9.735v-.11ZM93.5 109.56h32.23l-2.42 5.665 2.42 5.61H93.5l2.42-5.61-2.42-5.665Z" fill="#9C9C9C"/><path fill-rule="evenodd" clip-rule="evenodd" d="m99.165 114.125.99-.495v3.74h-.99v1.32h4.015v-1.32h-.935v-5.72h-1.815c-.715.88-1.21 1.045-1.76 1.32l.495 1.155ZM103.785 118.03c.605.495 1.705.825 2.365.77 2.64-.055 3.08-2.53 3.025-4.07-.055-2.035-1.32-3.19-2.97-3.135-1.65.055-2.585 1.21-2.585 2.53 0 1.375 1.045 2.31 2.365 2.255.55 0 .99-.275 1.21-.495 0 .88-.495 1.32-1.21 1.375-.605 0-1.155-.33-1.485-.495l-.715 1.265Zm2.42-3.08c-.605 0-.825-.495-.825-.88 0-.495.385-.88.935-.88.66 0 .825.66.825 1.21-.165.165-.44.495-.935.55ZM111.76 113.19h2.695v-1.485h-3.96l-.605 3.465 1.265.55c.22-.22.495-.44.935-.44.55 0 1.045.44 1.045.99 0 .605-.44.99-1.1.99-.605 0-.99-.33-1.43-.77l-1.1 1.155c.44.605 1.485 1.21 2.475 1.21 1.485 0 3.025-.88 3.025-2.53 0-1.54-1.155-2.365-2.365-2.365-.495 0-.88.11-1.1.22l.22-.99ZM117.535 113.19h2.695v-1.485h-3.96l-.605 3.465 1.265.55c.22-.22.495-.44.935-.44.55 0 1.045.44 1.045.99 0 .605-.44.99-1.1.99-.605 0-.99-.33-1.43-.77l-1.1 1.155c.44.605 1.485 1.21 2.475 1.21 1.485 0 3.025-.88 3.025-2.53 0-1.54-1.155-2.365-2.365-2.365-.495 0-.88.11-1.1.22l.22-.99Z" fill="#fff"/></svg>