<svg width="220" height="220" fill="none" xmlns="http://www.w3.org/2000/svg"><path fill-rule="evenodd" clip-rule="evenodd" d="M89.155 183.15c.165.165.22.33.22.55V188.98c0 .165.11.275.33.275h3.465a.5.5 0 0 0 .385-.165l.99-.99a.625.625 0 0 0 .165-.44v-.825c0-.33.055-.605.22-.825l.055-.165a.35.35 0 0 0 0-.33c-.055-.11-.11-.22-.165-.275-.055-.165-.11-.275-.11-.495v-.99a.887.887 0 0 0-.165-.495l-.385-.385c-.11-.165-.11-.275 0-.385.11-.11.165-.22.275-.275.22-.165.33-.44.33-.715 0-.605-.11-.55.275-1.155.11-.11.055-.275 0-.385-.055-.11-.11-.165-.165-.275-.11-.165-.165-.275-.165-.495v-.825a.5.5 0 0 0-.165-.385c-.33-.385-.715-.715-1.045-1.045a.5.5 0 0 0-.385-.165H89.65c-.165 0-.275.11-.275.275v4.62a.96.96 0 0 1-.22.66.76.76 0 0 0-.165.22c-.11.165-.11.22 0 .385l.165.22Zm3.245-4.785c.275 0 .605.275.605.605v2.31c0 .33-.275.55-.55.55H91.3c-.22 0-.33-.11-.33-.33v-2.75c0-.275.11-.385.385-.385.385 0 .715.055 1.045 0Zm.605 8.69c0 .275-.22.55-.55.55H91.41c-.275 0-.385-.11-.385-.385v-3.41c0-.275.11-.385.385-.385h1.045a.61.61 0 0 1 .605.605v2.145c-.055.275-.055.605-.055.88ZM162.085 183.15c.165.165.22.33.22.55V188.98c0 .165.11.275.275.275h3.465a.5.5 0 0 0 .385-.165l.99-.99a.625.625 0 0 0 .165-.44v-.825c0-.33.055-.605.22-.825l.055-.165a.35.35 0 0 0 0-.33c-.055-.11-.11-.22-.165-.275-.055-.165-.11-.275-.11-.495v-.99a.887.887 0 0 0-.165-.495l-.385-.385c-.11-.165-.11-.275 0-.385.11-.11.165-.22.275-.275.22-.165.33-.44.33-.715 0-.605-.11-.55.275-1.155.11-.11.055-.275 0-.385-.055-.11-.11-.165-.165-.275-.11-.165-.165-.275-.165-.495v-.825a.5.5 0 0 0-.165-.385c-.33-.385-.715-.715-1.045-1.045a.5.5 0 0 0-.385-.165h-3.465c-.165 0-.275.11-.275.275v4.62a.96.96 0 0 1-.22.66c-.055.055-.11.11-.165.22-.11.165-.11.22 0 .385l.22.22Zm3.3-4.785c.275 0 .605.275.605.605v2.31c0 .33-.275.55-.55.55h-1.155c-.22 0-.33-.11-.33-.33v-2.75c0-.275.11-.385.385-.385.33 0 .715.055 1.045 0Zm.605 8.69c0 .275-.22.55-.55.55h-1.045c-.275 0-.385-.11-.385-.385v-3.41c0-.275.11-.385.385-.385h1.045a.61.61 0 0 1 .605.605v2.145c-.055.275-.055.605-.055.88ZM95.92 183.37c.11.11.165.275.165.44v3.74c0 .22.055.385.22.55.33.275.605.605.935.935.11.11.275.165.44.165h2.2c.165 0 .33-.055.44-.165.275-.275.55-.605.88-.88.22-.165.275-.385.275-.66V183.7c0-.165.055-.33.165-.44.055-.11.165-.165.275-.275.11-.165.11-.22 0-.385-.055-.055-.11-.165-.165-.22a.91.91 0 0 1-.275-.66c.055-.77 0-1.595 0-2.365v-.99c0-.22-.055-.44-.275-.605-.33-.275-.605-.605-.935-.88a.697.697 0 0 0-.495-.22h-2.09a.5.5 0 0 0-.385.165l-1.045 1.045a.625.625 0 0 0-.165.44v3.575c0 .165-.055.33-.165.44-.055.11-.165.165-.22.275-.11.165-.11.275 0 .385l.22.385Zm1.87 3.355V179.025c0-.385.22-.605.605-.605h.77c.33 0 .55.275.605.55V187c0 .275-.33.55-.55.55h-.88c-.275 0-.55-.22-.55-.495-.055-.055 0-.22 0-.33ZM102.96 183.37a.5.5 0 0 1 .165.385v5.06c0 .22.11.33.33.33h1.045c.22 0 .33-.11.33-.33v-4.125c0-.22.11-.33.33-.33h.385c.165 0 .275.11.33.275l.495 2.475c.11.605.22 1.155.33 1.76.055.22.165.275.385.275h.99c.44 0 .44-.165.33-.44-.165-.715-.275-1.43-.44-2.145-.165-.77-.33-1.485-.44-2.255-.055-.22 0-.385.165-.495l.605-.66c.11-.11.22-.275.22-.44v-.935c0-.605-.055-.55.33-1.155a.47.47 0 0 0 0-.385c-.055-.11-.11-.22-.165-.275-.055-.165-.165-.275-.165-.495V178.2a.625.625 0 0 0-.165-.44c-.33-.33-.66-.66-1.045-.99a.625.625 0 0 0-.44-.165H103.4c-.165 0-.275.11-.275.33v4.95c0 .165-.055.33-.165.44-.055.11-.165.165-.22.275-.11.165-.11.275 0 .44.055.165.165.22.22.33Zm3.245-5.005c.275 0 .55.275.55.605v3.19a.61.61 0 0 1-.605.605h-1.1c-.22 0-.33-.11-.33-.33v-3.685c0-.22.11-.33.33-.33h1.155v-.055ZM109.78 183.37c.11.165.165.275.165.495V188.925c0 .165.11.275.275.275h1.1c.11 0 .165-.055.22-.11.055-.055.055-.165.055-.275v-6.49c0-.055.055-.11.11-.11s.055.055.055.11c.165.495.275.99.44 1.43l.55 1.98c.33 1.1.605 2.145.935 3.245.055.165.165.275.33.275h1.32c.11 0 .22-.11.275-.22V183.755c0-.165.055-.275.11-.385l.275-.33c.11-.165.11-.22 0-.385-.11-.11-.165-.22-.33-.33-.055-.11-.11-.22-.11-.33V177.1c0-.22-.11-.33-.33-.33h-.99c-.22 0-.385.11-.385.385v6.435c0 .055-.055.11-.11.11s-.11 0-.11-.055c0-.11-.055-.22-.055-.33-.275-.825-.495-1.705-.715-2.53a72.013 72.013 0 0 1-1.045-3.685c-.055-.22-.165-.33-.44-.33h-1.1c-.275 0-.33.11-.33.33v4.84c0 .165-.055.275-.11.44l-.33.33c-.11.165-.11.275 0 .44l.275.22ZM129.69 183.37c.11.11.165.275.165.385v5.115c0 .22.055.33.33.33h.99c.275 0 .385-.11.385-.385v-4.785c0-.22.11-.33.33-.33h1.87c.165 0 .275-.055.275-.275v-1.1c0-.165-.11-.275-.275-.275h-1.815c-.22 0-.33-.055-.33-.275v-2.97c0-.275.055-.385.33-.385H134.31c.22 0 .275-.055.33-.275.055-.33 0-.715 0-1.045 0-.22-.11-.33-.33-.33h-4.015c-.165 0-.275.11-.275.275v4.895c0 .22-.055.385-.22.55l-.165.165c-.165.22-.165.275 0 .495-.11.055-.055.165.055.22ZM135.85 183.37c.11.11.165.275.165.44v3.74c0 .22.055.385.22.55.33.275.605.605.935.935.11.11.275.165.44.165h2.2c.165 0 .33-.055.44-.165.275-.275.55-.605.88-.88a.91.91 0 0 0 .275-.66V183.7c0-.165.055-.33.165-.44.055-.11.165-.165.275-.275.11-.165.11-.22 0-.385-.055-.055-.11-.165-.165-.22a.91.91 0 0 1-.275-.66c.055-.77 0-1.595 0-2.365v-.99c0-.22-.055-.44-.275-.605-.33-.275-.605-.605-.935-.88a.697.697 0 0 0-.495-.22h-2.09a.5.5 0 0 0-.385.165l-1.045 1.045a.625.625 0 0 0-.165.44v3.575c0 .165-.055.33-.165.44-.055.11-.165.165-.22.275-.11.165-.11.275 0 .385l.22.385Zm1.815 3.355V179.025c0-.385.22-.605.605-.605h.77c.33 0 .55.275.605.55V187c0 .275-.275.55-.55.55h-.88c-.275 0-.55-.22-.55-.495v-.33ZM142.89 183.37a.5.5 0 0 1 .165.385v5.06c0 .22.11.33.33.33h1.045c.22 0 .33-.11.33-.33v-4.125c0-.22.11-.33.33-.33h.385c.165 0 .275.11.33.275l.495 2.475c.11.605.22 1.155.33 1.76.055.22.165.275.385.275h.99c.44 0 .44-.165.33-.44-.165-.715-.275-1.43-.44-2.145-.165-.77-.33-1.485-.44-2.255-.055-.22 0-.385.165-.495l.605-.66c.11-.11.22-.275.22-.44v-.935c0-.605-.055-.55.275-1.155a.47.47 0 0 0 0-.385c-.055-.11-.11-.22-.165-.275-.055-.165-.165-.275-.165-.495V178.2a.625.625 0 0 0-.165-.44c-.33-.33-.66-.66-1.045-.99a.625.625 0 0 0-.44-.165h-3.52c-.165 0-.275.11-.275.33v4.95c0 .165-.055.33-.165.44-.055.11-.165.165-.22.275-.11.165-.11.275 0 .44l.33.33Zm3.245-5.005c.275 0 .55.275.55.605v3.19a.61.61 0 0 1-.605.605h-1.1c-.22 0-.33-.11-.33-.33v-3.685c0-.22.11-.33.33-.33h1.155v-.055ZM168.96 183.315c.165.165.22.385.22.605v4.95c0 .22.11.33.33.33h1.045c.165 0 .275-.11.275-.275v-5.115c0-.22.055-.385.22-.55a.76.76 0 0 0 .165-.22c.165-.22.11-.33 0-.44l-.22-.22a.625.625 0 0 1-.165-.44v-4.84c0-.275-.11-.385-.33-.385h-.935c-.275 0-.385.165-.385.385v4.785c0 .22-.055.385-.22.55l-.22.275c-.11.11-.11.22 0 .33.055.11.11.165.22.275ZM172.37 183.37c.11.11.165.275.165.44v5.115c.055.165.11.275.275.275h1.1c.165 0 .275-.11.275-.275v-3.245c0-.33.165-.605.275-.88.055-.055.055-.055.165-.055.055 0 .11.055.165.11l.055.11c.33.935.66 1.815.99 2.75l.44 1.21c.055.22.22.275.44.275h1.045c.275 0 .33-.11.275-.385-.11-.33-.22-.66-.385-1.045-.495-1.32-.935-2.585-1.43-3.905-.11-.275-.165-.55.055-.825.055-.055.055-.055.055-.11.11-.22.11-.275-.055-.44l-.33-.275c-.165-.165-.165-.275-.055-.44.275-.66.605-1.375.935-2.09l1.21-2.64c.11-.22 0-.33-.22-.33h-1.045c-.275 0-.385.055-.495.33-.165.495-.385.935-.605 1.43-.33.715-.605 1.43-.935 2.145l-.165.44c-.055.055-.055.11-.165.055-.055 0-.055-.055-.055-.11V176.99c0-.165-.11-.275-.33-.275h-1.045c-.22 0-.33.11-.33.33v4.895c0 .11-.055.22-.11.33-.11.165-.22.275-.33.385-.11.11-.11.22 0 .385l.165.33ZM178.915 183.37c.11.165.165.275.165.495V188.925c0 .22.11.33.33.33h4.125c.22 0 .33-.11.33-.33v-.99c0-.22-.11-.33-.33-.33H181.06c-.165 0-.275-.11-.33-.33v-3.41c0-.275.11-.385.385-.385h1.595c.22 0 .33-.11.33-.33v-.935c0-.275-.11-.385-.385-.385h-1.595c-.275 0-.385-.055-.385-.385v-2.75c0-.275.165-.385.385-.385h2.42c.22 0 .33-.11.33-.33v-.99c0-.22-.165-.385-.33-.385h-4.07c-.33 0-.385.055-.385.385v4.84c0 .165-.055.33-.165.495l-.22.22c-.11.165-.165.22 0 .44l.275.385ZM82.995 179.74l.935 2.31 2.475.165-1.925 1.595.605 2.42-2.09-1.32-2.09 1.32.605-2.42-1.925-1.595 2.475-.165.935-2.31ZM122.595 179.74l.935 2.31 2.475.165-1.925 1.595.605 2.42-2.09-1.32-2.09 1.32.605-2.42-1.925-1.595 2.475-.165.935-2.31ZM155.265 179.74l.935 2.31 2.475.165-1.925 1.595.605 2.42-2.09-1.32-2.09 1.32.605-2.42-1.925-1.595 2.475-.165.935-2.31ZM190.465 179.74l.935 2.31 2.475.165-1.925 1.595.605 2.42-2.09-1.32-2.09 1.32.605-2.42-1.925-1.595 2.475-.165.935-2.31ZM62.535 83.16H195.14c2.86 0 5.28 2.035 5.775 4.84.495 2.86 2.805 5.17 5.665 5.665a5.846 5.846 0 0 1 4.84 5.775v57.695c0 2.86-2.035 5.28-4.84 5.775-2.86.495-5.17 2.805-5.665 5.665a5.846 5.846 0 0 1-5.775 4.84H62.535a5.846 5.846 0 0 1-5.775-4.84c-.495-2.86-2.805-5.17-5.665-5.665a5.846 5.846 0 0 1-4.84-5.775V99.44c0-2.86 2.035-5.28 4.895-5.775 2.86-.495 5.17-2.805 5.665-5.665.44-2.75 2.86-4.84 5.72-4.84Z" fill="#9C9C9C"/><path fill-rule="evenodd" clip-rule="evenodd" d="M62.535 84.48H195.14c2.2 0 4.07 1.595 4.455 3.74.605 3.41 3.3 6.16 6.765 6.765a4.49 4.49 0 0 1 3.74 4.455v57.695c0 2.2-1.595 4.07-3.74 4.455-3.41.605-6.16 3.3-6.765 6.765a4.49 4.49 0 0 1-4.455 3.74H62.535c-2.2 0-4.07-1.595-4.455-3.74-.605-3.41-3.3-6.16-6.765-6.765a4.49 4.49 0 0 1-3.74-4.455V99.44c0-2.2 1.595-4.07 3.74-4.455 3.41-.605 6.16-3.3 6.765-6.765.385-2.145 2.255-3.74 4.455-3.74Z" fill="#fff"/><path fill-rule="evenodd" clip-rule="evenodd" d="M62.535 86.9H195.14c1.045 0 1.925.715 2.09 1.76.77 4.455 4.29 7.975 8.69 8.69 1.045.165 1.76 1.045 1.76 2.09v57.695c0 1.045-.715 1.925-1.76 2.09-4.455.77-7.975 4.29-8.69 8.69-.165 1.045-1.045 1.76-2.09 1.76H62.535c-1.045 0-1.925-.715-2.09-1.76-.77-4.455-4.29-7.975-8.69-8.69-1.045-.165-1.76-1.045-1.76-2.09V99.44c0-1.045.715-1.925 1.76-2.09 4.455-.77 7.975-4.29 8.69-8.69.165-1.045 1.045-1.76 2.09-1.76Z" fill="#9C9C9C"/><path fill-rule="evenodd" clip-rule="evenodd" d="m73.48 138.655-.165.55h-1.1c-3.685 0-7.26-3.685-8.91-6.82l-1.705-1.76c-6.49-.22-6.655-12.265.275-12.265.935 0 1.76.22 2.53.825.33.22.66.605.935.825 6.05 1.1 10.175.605 15.4-3.08 7.7-5.445 9.735-15.015 7.48-23.815-2.255-8.415-10.395-16.225-8.085-25.41 1.705-6.875 7.975-9.02 14.19-10.065 3.3-.55 6.71-1.595 9.9-2.695 4.95-1.65 9.625-3.575 14.465-5.5l2.2-.88-.055.495c2.475-1.1 4.95-2.2 7.425-3.245 2.805-1.155 6.16-2.42 9.24-2.31 4.015-2.31 7.81-4.785 11.715-7.37 4.455-2.915 7.81-5.225 13.09-6.435l2.145-.495-.44 2.145c-.77 3.74-3.685 7.865-7.15 11.55 2.365-1.045 4.785-1.815 7.315-2.145l2.145-.275-.605 2.09c-1.43 4.675-5.83 9.46-10.835 13.585 2.64-.825 5.335-1.265 7.92-1.045l1.87.165-.66 1.76c-1.65 4.18-5.94 8.195-11 11.605 2.64-.55 5.115-.77 7.15-.33l1.595.33-.55 1.54c-1.485 4.125-6.105 7.92-11.11 10.89 2.2-.11 4.4.11 6.545.88l1.925.715-1.32 1.54c-2.805 3.245-6.985 5.83-11.33 7.865.99.22 1.98.55 3.025 1.1l1.65.825-1.265 1.375c-2.365 2.53-5.885 4.51-9.625 6.05.935.275 1.925.66 2.86 1.21l1.595.935-1.375 1.265c-2.31 2.145-5.665 3.685-9.185 4.73 1.43.44 2.86 1.1 4.125 2.145l1.43 1.21-1.54 1.045c-2.915 1.98-7.205 3.025-11.55 3.465a9.79 9.79 0 0 1 2.86 2.585l.88 1.265-1.32.77c-2.09 1.265-4.675 1.76-7.315 1.925.22.22.44.495.605.715l.88 1.155-1.155.88c-2.255 1.65-5.72 2.035-8.91 1.925.11.275.275.55.385.88l.44 1.155-1.045.605c-1.98 1.155-4.4 1.375-6.71 1.155.165.44.33.88.44 1.43l.275 1.21-1.155.44c-2.31.935-4.73.77-7.095.11.11.33.165.715.22 1.1l.165.935-.77.495c-2.09 1.32-4.95 1.045-7.535.22 0 .495-.055.99-.11 1.595l-.165.99-.99.165c-2.42.44-4.73-.385-6.82-1.65-.055.22-.11.44-.165.715l-.275.88-.88.11c-2.75.44-5.28-.88-7.315-2.53Z" fill="#fff"/><path fill-rule="evenodd" clip-rule="evenodd" d="M92.565 106.37c.165-.385.385-.88.55-1.375.33-1.045.715-2.31.88-3.685a23.3 23.3 0 0 0 .11-4.4c-.165-1.485-.44-2.97-.825-4.29-.385-1.32-.88-2.53-1.32-3.52a14.73 14.73 0 0 0-.66-1.32c-.22-.385-.385-.715-.55-.99-.33-.55-.495-.88-.495-.88s.11.33.385.935c.11.275.275.66.44 1.045.165.385.33.88.495 1.375.385.99.715 2.255 1.1 3.52.33 1.32.55 2.75.715 4.18.165 1.43.11 2.86 0 4.235-.165 1.32-.33 2.585-.605 3.63-.11.55-.275.99-.385 1.43-.11.44-.22.77-.385 1.1-.22.605-.33.935-.33.935s.165-.33.495-.88c.055-.275.22-.605.385-1.045Zm38.83-39.71c-1.54.605-2.97 1.21-4.345 1.65-.22.055-.44.165-.66.22.88-.44 1.76-.825 2.585-1.32 4.4-2.31 7.15-4.785 8.8-6.49l.11-.11c.055-.055.165-.055.22-.11 1.815-.935 3.63-1.925 5.445-2.97 1.815-.99 3.52-2.145 5.28-3.245 3.41-2.31 6.71-4.785 9.79-7.535-3.3 2.365-6.655 4.73-10.12 6.875-1.76 1.045-3.465 2.145-5.28 3.135-1.21.715-2.475 1.375-3.74 2.035.44-.605.605-.99.605-.99.165-.33.33-.66.385-.935-.275-.11-.66-.165-.99-.275-.44-.11-.88-.165-1.32-.22 4.73-2.365 8.91-4.785 12.54-6.875 4.675-2.64 8.36-4.785 11.44-5.555-.605 1.1-1.815 2.805-3.74 5.005-1.98 2.2-4.73 4.84-8.58 7.645-5.39 3.795-12.32 7.59-18.425 10.065Zm-42.35-2.86c.22-.11.495-.22.77-.33.275-.11.55-.22.88-.33 1.21-.495 2.695-.825 4.29-1.265 1.595-.385 3.3-.77 5.005-1.1 1.705-.385 3.41-.77 5.005-1.21 1.595-.385 3.08-.99 4.29-1.54.605-.33 1.155-.605 1.595-.935.44-.33.825-.605 1.155-.88l.88-.88s-.33.275-.99.77c-.33.22-.715.44-1.21.715-.44.275-1.045.495-1.595.77-1.21.44-2.695.88-4.29 1.265-1.595.385-3.3.77-5.005 1.1-1.705.385-3.41.77-5.005 1.21-1.595.44-3.08.99-4.29 1.54-.33.11-.605.275-.88.385-.275.165-.495.275-.77.44-.495.275-.88.495-1.21.77-.605.495-.99.715-.99.715s.385-.22 1.045-.605c.385-.22.825-.385 1.32-.605ZM61.93 119.79c1.1 0 2.09.55 2.805 1.485l.44.055c3.74.66 9.35 1.705 16.445-3.355 9.02-6.38 10.12-17.16 8.03-25.355 0-.055-.055-.165-.055-.22-.22-.88-.55-1.815-.88-2.695-.44-1.155-.99-2.255-1.54-3.245-3.74-6.38-6.985-12.98-5.61-18.535.715-2.805 2.585-5.115 5.61-6.82 2.255-1.265 4.785-1.705 7.48-2.145 1.815-.275 3.685-.605 5.5-1.21 7.37-2.365 18.15-6.71 18.26-6.71l.825-.33-.055.605c3.685-1.54 6.875-3.08 9.625-4.235 3.63-1.485 6.545-2.365 9.02-2.145 4.73-2.695 8.745-5.39 12.155-7.59 4.675-3.08 8.305-5.28 11.385-5.94l1.21-.275c-.055.385-.22.825-.33 1.265-.055.11-.495 1.65-2.31 4.455-1.815 2.75-4.95 6.71-10.45 11.055a73.574 73.574 0 0 1-3.74 2.805c2.035-1.155 3.905-2.255 5.665-3.245 4.785-2.75 8.525-4.675 11.66-5.06l1.21-.165c-.11.385-.275.825-.44 1.21-.055.11-.66 1.595-2.585 4.18-1.925 2.585-5.28 6.27-10.835 10.23-2.64 1.925-5.665 3.795-8.8 5.555 3.41-1.485 6.38-2.915 9.075-4.125 4.4-1.925 7.865-3.08 10.725-2.86l1.1.11c-.11.33-.33.715-.495 1.045-.055.11-.66 1.375-2.53 3.52-1.87 2.09-5.005 5.06-10.065 8.14-3.19 1.98-6.93 3.85-10.56 5.5-1.21.495-2.42.99-3.575 1.485 5.225-1.705 9.625-3.52 13.255-4.84 4.18-1.485 7.425-2.365 10.12-1.87.33.055.715.11 1.045.165-.11.33-.275.66-.44.99-.055.11-.66 1.32-2.475 3.245s-4.84 4.62-9.735 7.205c-2.64 1.43-5.665 2.75-8.69 3.905 2.42-.66 4.62-1.32 6.655-1.76 4.18-.99 7.535-1.265 10.01-.385l.99.33-.66.77c-.055.055-.88.99-2.86 2.475-1.98 1.43-5.115 3.41-9.845 5.335-1.76.715-3.63 1.43-5.61 2.09 4.51-.88 7.92-1.155 10.285.055l.77.385-.55.605c-.055.055-.77.77-2.365 1.87-1.65 1.1-4.18 2.53-7.975 3.905-2.255.825-4.785 1.595-7.315 2.255 5.06-.66 8.8-.99 11.165.44l.66.385-.55.495c-.055.055-.715.66-2.145 1.485-1.485.825-3.795 1.87-7.15 2.805-2.31.66-5.005 1.21-7.59 1.595 5.555.11 9.57.33 11.825 2.2l.605.495-.605.385c-.055.055-.77.495-2.365 1.1-1.595.605-4.015 1.265-7.48 1.65-3.19.33-6.875.44-10.12.275 5.39.935 9.35 1.595 11.055 4.015l.385.55-.55.33c-.055.055-.715.385-2.035.77-1.375.385-3.41.715-6.27.66a72.958 72.958 0 0 1-4.62-.33c.495.11.935.22 1.375.33 2.145.55 3.74 1.265 4.675 2.53l.385.495-.495.33c-.055.055-.605.385-1.87.77-1.265.385-3.19.715-5.83.605a29.98 29.98 0 0 1-3.685-.385c1.32.66 2.255 1.485 2.695 2.695l.22.55-.44.275c-.055 0-.55.33-1.595.55-1.045.22-2.64.385-4.73.055a36.634 36.634 0 0 1-3.19-.66c1.54.935 2.53 1.98 2.915 3.41l.165.55-.44.165c-.055 0-.605.22-1.65.275-1.045.055-2.64 0-4.62-.55a23.416 23.416 0 0 1-4.015-1.43h-.11c1.65 1.045 2.805 2.035 3.025 3.685l.055.55c-.11.055-.275.165-.385.22-.055 0-.495.275-1.43.385-.935.11-2.31.11-4.015-.44-1.155-.33-2.365-.88-3.52-1.54.935 1.1 1.375 2.255 1.21 3.575l-.055.495-.44.11c-.055 0-.55.11-1.43-.055-.88-.11-2.145-.44-3.575-1.32-.935-.55-1.87-1.21-2.805-1.925.44.88.55 1.76.275 2.75l-.165.495-.44.055c-.055 0-.55.055-1.375-.11a8.422 8.422 0 0 1-3.245-1.375c-.99-.66-1.98-1.485-2.805-2.365 0 .44-.11.88-.275 1.32l-.165.44h-.385c-.055 0-.495 0-1.21-.275-.715-.22-1.705-.715-2.75-1.65-1.32-1.21-2.695-2.915-3.41-4.29-.055-.11-.055-.165-.11-.22l-.825-.825c-.495-.44-.935-.88-1.32-1.32h-.275c-2.145 0-3.85-2.09-3.85-4.73-.11-2.585 1.595-4.675 3.74-4.675Zm3.63 6.16c.11-.44.165-.935.165-1.43 0-.495-.055-.99-.165-1.43l1.265.11c.88.055 1.76.055 2.585 0 .275 0 .495-.055.715-.055h.77c-.385.11-.77.22-1.1.275-.66.165-1.265.33-1.65.385-.385.11-.66.165-.66.165s.22 0 .66.055c.44 0 .99 0 1.705-.055.715-.055 1.54-.165 2.42-.385.88-.22 1.815-.44 2.695-.77.88-.33 1.76-.715 2.585-1.155.055 0 .11-.055.11-.055 1.43-.605 2.915-1.43 4.51-2.53 9.35-6.6 10.67-17.655 8.58-26.18l-.165-.66c-.33-1.375-.715-2.805-1.21-4.18-.55-1.375-1.1-2.75-1.705-3.96-.605-1.265-1.265-2.31-1.76-3.3-.495-.99-.88-1.76-1.1-2.365-.22-.605-.33-.935-.33-.935s0 .385.055 1.045c.11.495.22 1.21.44 1.98-2.09-4.29-3.355-8.525-2.475-12.045.605-2.53 2.31-4.51 5.06-6.105 2.09-1.21 4.51-1.595 7.15-2.035 1.815-.33 3.74-.605 5.665-1.265 5.885-1.87 13.915-5.005 17.05-6.215-.88 1.32-3.025 3.63-8.25 6.71-1.265.715-4.015 1.375-6.985 1.98-.66.165-1.32.275-1.98.44-.88.165-1.815.33-2.805.55a35.74 35.74 0 0 0-4.895 1.54c-.825.385-1.595.825-2.365 1.21-.77.385-1.595.88-2.255 1.595-.66.77-.99 1.595-1.21 2.365-.275.77-.44 1.485-.66 2.09-.44 1.21-.935 2.2-1.54 2.64-.275.275-.495.44-.715.495-.165.11-.275.11-.275.11s.11 0 .33-.055c.22-.055.495-.11.825-.33.605-.33 1.375-1.1 1.98-2.2 0 5.005 2.2 8.25 4.29 11.44.55.88 1.155 1.705 1.65 2.585l.66 2.145c.22.825.44 1.595.605 2.42.165.77.33 1.485.44 2.145.11.605.22 1.155.275 1.54.055.385.11.605.11.605s0-.22.055-.605c0-.385.055-.935 0-1.595a92.1 92.1 0 0 1-.165-1.705c2.64 9.9 1.375 16.225-2.255 21.945.44-.99.66-1.815.825-2.42.165-.66.22-1.045.22-1.045s-.11.385-.385.99c-.22.605-.66 1.485-1.21 2.475-.55.99-1.265 2.09-2.09 3.19s-1.815 2.2-2.915 3.135c-1.1.99-2.255 1.815-3.465 2.475-1.155.66-2.31 1.21-3.355 1.54-.99.385-1.87.605-2.475.77-.605.165-.99.22-.99.22s.385 0 .99-.055c.66-.055 1.54-.165 2.585-.44.935-.275 2.035-.605 3.135-1.155-3.41 2.2-6.71 2.64-10.67 3.135-.44 0-.935.055-1.43.055-.77.055-1.595.165-2.365.22.66-.275 1.32-.495 1.98-.605-1.485-.165-3.025 0-4.51.385-.055-.11-.33 0-.605.165Zm84.425-64.79c-3.96 1.76-8.58 3.96-13.86 6.105 1.1.055 2.09.275 2.97.66.33.11.66.275.935.385-.055.11-.11.275-.22.385a136.23 136.23 0 0 0 8.085-3.85c3.135-1.595 6.215-3.355 9.295-5.06-5.665 4.235-11.99 7.59-18.48 10.45-.385.44-.88.99-1.595 1.595-1.595 1.375-4.07 3.245-7.865 4.95 1.045-.33 2.145-.715 3.3-1.1 5.39-1.87 11.55-4.785 16.39-7.81 7.04-4.345 10.285-8.36 11.55-10.175-2.805.22-6.215 1.595-10.505 3.465Zm-2.09 12.045c-4.015 1.485-8.8 3.41-14.3 5.115-.055 0-.165.055-.22.055 1.1.165 2.035.44 2.915.99l.825.495c-.055.11-.11.22-.165.275 2.97-1.045 5.94-2.145 8.855-3.41 3.025-1.32 5.94-2.75 8.855-4.18-5.5 3.74-11.605 6.49-17.82 8.69-.275.11-.605.22-.88.275-.385.385-.88.935-1.595 1.54-1.32 1.045-3.245 2.365-6.05 3.575.88-.165 1.705-.385 2.64-.66 5.17-1.32 11.11-3.63 15.785-6.16 6.82-3.685 9.955-7.37 11.11-9.075-2.695-.11-5.94.99-9.955 2.475ZM144.21 84.81c-4.015.99-8.745 2.475-14.025 3.74-.605.165-1.21.275-1.815.44 1.925.22 3.465.66 4.73 1.375 2.915-.77 5.83-1.65 8.745-2.64 2.97-.935 5.885-1.98 8.855-2.86-5.39 2.475-11 4.455-16.665 6.16l.66.55-.66.495c-.055.055-.88.605-2.695 1.32-1.815.715-4.565 1.54-8.58 2.035-.825.11-1.65.22-2.53.275.825.055 1.65.165 2.365.22.33-.055.715-.055 1.045-.11 1.1-.165 2.31-.385 3.52-.605 4.95-.99 10.615-2.805 15.18-4.675 6.6-2.75 10.12-5.5 11.605-6.82-2.42-.385-5.72.11-9.735 1.1Zm2.255 9.845c-3.905-1.265-10.67.715-19.195 2.585.66.33 1.265.715 1.705 1.21l.495.495c2.365-.55 4.785-1.155 7.15-1.76s4.785-1.265 7.15-1.815a118.067 118.067 0 0 1-14.245 4.345c-.605.165-1.265.275-1.87.44-.33.165-.715.33-1.21.55-1.65.605-4.18 1.375-7.81 1.705-.935.11-1.87.165-2.86.22.11.11.165.22.275.275 1.045.22 2.035.44 2.86.77 1.54 0 3.63-.275 5.995-.715 3.905-.715 8.415-1.925 12.1-3.3 5.39-1.925 8.25-4.015 9.46-5.005Zm-6.215 9.295c-3.3-1.32-9.24-.055-16.72.935-.715.11-1.43.165-2.2.275l.33.33.44.55-.495.33c-.055.055-.495.33-1.375.66a78.723 78.723 0 0 0 5.06-.495c2.09-.275 4.235-.66 6.325-1.045 2.09-.385 4.18-.77 6.325-1.1-4.125 1.21-8.305 2.09-12.595 2.805-2.145.33-4.235.605-6.435.715-.715.055-1.375.055-2.09.055a27.5 27.5 0 0 1-3.52.385h-.22c.22.44.55.77.935.99.825.44 3.63.605 7.095.275 3.41-.33 7.425-1.045 10.67-1.98 4.73-1.32 7.37-2.915 8.47-3.685Zm-5.005 8.745c-3.08-1.815-9.13-1.485-16.665-1.76-.77-.055-1.595-.055-2.42-.11.66.44 1.155.935 1.54 1.54l.22.385c.715.055 1.43.055 2.09.055 2.145.055 4.29 0 6.38 0 2.145-.055 4.235-.11 6.38-.11-4.235.55-8.525.77-12.815.77-.935 0-1.925 0-2.86-.055-.33.11-.88.33-1.705.495-1.32.275-3.3.495-6.05.33 1.265.44 3.465.77 6.05.935 3.41.22 7.48.11 10.835-.22 5.005-.495 7.81-1.65 9.02-2.255Zm-8.8 7.865c-2.255-2.2-7.15-2.695-13.2-3.85-.605-.11-1.265-.22-1.87-.385.935.66 1.595 1.375 2.035 2.255.275.055.495.11.77.165 1.705.275 3.465.55 5.17.77 1.705.22 3.465.44 5.17.77-3.52 0-7.04-.385-10.505-.88-.11 0-.22-.055-.33-.055l.055.22-.495.22c-.055 0-.66.275-1.87.44-.66.055-1.43.11-2.42.055.385.11.715.165 1.1.275 2.75.66 6.105 1.045 8.855 1.1 4.07.11 6.49-.66 7.535-1.1Zm-6.93 4.785c-2.09-1.98-6.545-2.31-12.045-3.63-.165-.055-.33-.11-.495-.11.44.495.77 1.045.935 1.65l.11.385c.055 0 .11 0 .165.055 1.595.33 3.135.605 4.73.825l4.785.66c-3.245.055-6.435-.33-9.68-.935l-.66-.165c-.275.055-.77.165-1.485.22-1.045.055-2.64.055-4.73-.495.825.44 1.925.825 3.135 1.21 2.53.77 5.61 1.265 8.195 1.375 3.85.165 6.05-.605 7.04-1.045Zm-8.69 4.4c-1.265-2.09-4.565-2.915-8.635-4.345.495.55.825 1.21.935 1.925l.055.165c.88.275 1.705.55 2.585.77 1.21.385 2.475.66 3.685 1.1-2.2-.22-4.345-.715-6.49-1.375l-.11.055c-.055 0-.55.22-1.54.33-.66.055-1.595.055-2.695-.11.055.055.11.055.22.11 1.925.825 4.345 1.43 6.38 1.76 2.86.44 4.73-.055 5.61-.385Zm-6.875 4.07c-.99-2.31-4.345-3.63-8.415-5.61-.385-.165-.77-.385-1.21-.605 1.375 1.045 2.42 2.035 2.915 3.19.66.275 1.265.55 1.925.825 1.155.495 2.365.99 3.465 1.54-1.76-.44-3.52-1.045-5.225-1.705.055.22.11.495.11.77v.55l-.44.11s-.11 0-.22.055c.495.165.99.33 1.43.44 2.86.825 4.785.605 5.665.44Zm-11.935-2.53c2.365 1.045 4.125 1.045 4.95.99-.44-2.31-3.135-3.96-6.38-6.215-.22-.165-.495-.33-.715-.495-.66.055-1.485 0-2.475-.385.11.22.165.385.22.605l.055.055a49.36 49.36 0 0 0 2.695 2.035l2.805 1.815c.935.605 1.925 1.155 2.805 1.87-2.09-.88-4.07-1.98-5.94-3.19a22.802 22.802 0 0 1-2.365-1.65c-.055.33-.11.66-.22 1.045l-.165.495-.22.11.055.055a25.365 25.365 0 0 0 4.895 2.86Zm4.29 5.335c-.715-2.2-3.355-3.245-6.49-5.17a30.437 30.437 0 0 1-1.925-1.32c.99 1.1 1.705 2.09 1.87 3.245.88.495 1.705.99 2.64 1.375.935.495 1.925.88 2.86 1.375-1.87-.44-3.685-1.21-5.445-2.09v.385l-.055.55-.44.055c-.055 0-.44.055-1.155 0 1.1.605 2.255 1.1 3.3 1.43 2.42.715 4.125.385 4.84.165Zm-11.66-3.795c2.145 1.265 3.85 1.485 4.62 1.485-.055-1.98-1.815-3.63-4.015-5.665-.715 0-1.65-.165-2.64-.715-.055 0-.11-.055-.165-.11.055.165.055.385.11.55.33.33.66.66.99.935.825.715 1.65 1.375 2.475 2.09.825.715 1.65 1.375 2.42 2.145-1.87-1.1-3.575-2.365-5.28-3.795-.22-.165-.44-.385-.66-.55-.055.22-.11.495-.165.715l-.165.495-.385.165s-.055 0-.11.055c.88.825 1.98 1.595 2.97 2.2Zm3.575 6.38c0-2.035-1.815-3.63-4.07-5.665l-.055-.055c-1.1-.66-2.2-1.485-3.245-2.365.77.935 1.265 1.87 1.375 2.805.165.165.33.33.55.495.77.66 1.54 1.32 2.365 1.98.77.66 1.595 1.265 2.31 1.98-1.815-.99-3.465-2.255-5.06-3.52-.055-.055-.11-.11-.165-.11 0 .165-.055.385-.11.55l-.165.55-.44.055h-.55c.88.715 1.87 1.43 2.805 1.98 2.035 1.155 3.685 1.32 4.455 1.32Zm-10.835-5.555c1.87 1.32 3.465 1.54 4.18 1.595.165-1.595-.825-2.97-2.255-4.565-.605-.11-1.32-.385-2.035-.825-.22-.165-.44-.275-.715-.495 0 .22-.055.385-.11.605.11.11.165.22.275.275.66.715 1.375 1.375 2.09 2.09.66.715 1.375 1.375 2.035 2.09-1.65-1.1-3.08-2.42-4.51-3.795l-.055-.055c0 .055-.055.11-.055.165l-.22.495-.385.11s-.275.11-.715.11c.715.88 1.595 1.595 2.475 2.2Zm2.805 5.61c.165-1.43-.605-2.695-1.815-4.07-.495-.22-1.045-.55-1.595-.935a21.95 21.95 0 0 1-3.245-2.805c-.055 0-.11 0-.11-.055.275.495.495.935.66 1.375.495.605.99 1.21 1.54 1.76.66.66 1.32 1.32 1.98 1.925.66.66 1.32 1.265 1.925 1.98-1.595-1.045-2.97-2.255-4.345-3.575l-.825-.825c0 .495-.055.99-.33 1.485l-.165.33c.715.66 1.54 1.32 2.255 1.815 1.815 1.375 3.355 1.54 4.07 1.595Zm-6.6-3.795c.385-1.375-.275-2.805-1.32-4.455-.275-.165-.605-.33-.88-.55a2.894 2.894 0 0 1-.77-.66c0 .33-.055.66-.165 1.045.385.55.715 1.045 1.1 1.54.495.715 1.045 1.43 1.485 2.2-.99-.99-1.925-2.035-2.75-3.19l-.11.33-.385.165s-.33.11-.77.165c.385.44.715.88 1.1 1.21 1.43 1.54 2.805 2.035 3.465 2.2Zm-1.595 1.76c.165-.55.11-1.1-.055-1.65-.715-.33-1.54-.88-2.475-1.76l-.055-.055c.165.22.385.495.55.715.495.66 1.045 1.32 1.485 2.035-1.265-1.1-2.365-2.42-3.465-3.74-.165-.22-.33-.44-.495-.605a5.658 5.658 0 0 1-2.09-.825c-.11-.055-.22-.165-.385-.22.715 1.375 2.09 3.19 3.41 4.345 1.595 1.265 2.915 1.65 3.575 1.76Zm-6.875-8.085c-.11.22-.165.44-.165.66.385.33.825.66 1.21.88 1.65.99 3.08.825 3.74.66.33-1.65-.495-2.64-1.595-3.905-.715.22-1.265.44-1.76.66.385.44.77.825 1.21 1.21.495.495 1.1.935 1.54 1.485-1.265-.55-2.31-1.43-3.3-2.42-.385.275-.66.55-.88.77Zm53.46-76.01c-.66 1.1-2.09 2.805-5.115 4.95.055 0 .055 0 .11-.055 1.485-.55 2.97-1.045 4.4-1.65 2.915-1.21 5.72-2.53 8.525-3.96 2.805-1.43 5.5-2.97 8.25-4.455-5.06 3.795-10.67 6.765-16.5 9.295a90.62 90.62 0 0 1-3.465 1.375c1.045 0 1.98.055 2.805.33l.77.275-.55.605c-.055.055-.385.44-1.21 1.045 3.795-1.54 7.7-3.465 10.945-5.5 6.27-3.905 9.075-7.59 10.12-9.295-2.585 0-5.61 1.1-9.405 2.75-2.86 1.265-6.105 2.75-9.68 4.29Zm-4.235 18.26c4.62-1.21 10.01-3.245 14.19-5.5 6.105-3.3 8.965-6.655 10.065-8.25-2.42-.22-5.39.55-9.075 1.815-3.63 1.21-7.975 2.915-12.925 4.4-2.145.66-4.4 1.265-6.765 1.815.165 0 .33-.055.44-.055 3.355-.44 5.995-.495 7.865.33l.44.165c.275-.055.495-.165.77-.22 2.805-.935 5.555-1.98 8.305-3.135 2.695-1.155 5.39-2.42 8.03-3.63-5.005 3.3-10.505 5.72-16.115 7.7-.77.275-1.54.55-2.31.77-.33.22-.825.55-1.375.88-1.65.935-4.235 2.255-8.085 3.41-.11.055-.22.055-.33.11.22 0 .495-.055.715-.055 1.54-.11 2.86-.165 4.07-.055.055 0 .11 0 .22-.055.605-.11 1.21-.275 1.87-.44Zm-.495 8.415c4.51-.715 9.79-2.2 13.97-3.96 6.105-2.585 9.13-5.555 10.285-6.93-2.31-.55-5.225-.11-8.855.66-3.575.825-7.865 1.98-12.705 2.97-.385.11-.825.165-1.21.22l.495.275-.55.495c-.055.055-.715.66-2.2 1.54-.605.33-1.32.715-2.2 1.1 1.32-.165 2.695-.33 4.015-.55 1.375-.275 2.805-.495 4.18-.825 2.75-.66 5.5-1.375 8.14-2.2 2.695-.825 5.335-1.76 7.975-2.64-5.06 2.64-10.505 4.455-16.005 5.83-1.375.385-2.805.605-4.18.935a52.288 52.288 0 0 1-4.235.66c-1.32.165-2.695.275-4.015.33h-.44c-.22.055-.44.11-.715.165-.66.165-1.32.275-1.98.385.33 0 .605 0 .935.055 1.54.055 2.915.11 4.18.165 2.09.165 3.74.495 5.005 1.265a.17.17 0 0 0 .11.055Zm-.275 8.58c3.96-.275 8.36-1.1 11.99-2.365 5.775-1.98 8.69-4.62 9.845-5.885-2.09-.77-4.785-.66-8.14-.22-3.3.44-7.26 1.21-11.715 1.595-.605.055-1.21.11-1.76.165-.33.22-.715.44-1.21.715-1.32.66-3.465 1.43-6.49 1.815h-.22c.11 0 .275.055.385.055 1.21.11 2.475.22 3.685.22 2.585.055 5.17-.055 7.7-.385 2.585-.33 5.115-.77 7.59-1.32 2.53-.55 5.005-1.21 7.48-1.815-4.73 2.09-9.845 3.355-15.015 4.125-2.42.385-4.84.55-7.26.605 1.32.385 2.365.935 3.135 1.87l.44.495-.44.33Zm-3.245 6.49c3.96.165 8.58-.055 12.485-.55 5.61-.715 8.8-2.09 10.23-2.805-3.575-2.09-10.56-1.65-19.25-1.705-.99 0-1.98-.055-2.97-.055-1.21.44-2.915.825-5.225.935-.385 0-.825.055-1.265.055 1.595.165 2.97.33 4.015.935 2.365.22 4.73.275 7.15.275 2.475 0 4.895-.11 7.37-.165 2.475-.055 4.895-.22 7.37-.22-4.895.715-9.845 1.045-14.74 1.155-1.98.055-3.96 0-5.94-.055.11.165.22.275.33.44l.385.55-.33.495s-.22.275-.605.715h.99Zm-2.86 6.49c3.575.275 7.755.22 11.275-.11 5.06-.495 8.03-1.76 9.295-2.42-3.135-2.2-9.46-2.035-17.27-2.42-1.1-.055-2.2-.11-3.3-.22-.88.44-1.98.88-3.41 1.1-.605.11-1.21.165-1.815.165 1.155.22 2.31.44 3.465.605 2.2.275 4.4.44 6.655.55 2.2.055 4.455.11 6.655.11s4.455-.055 6.655.055c-4.455.55-8.91.66-13.365.605A91.438 91.438 0 0 1 105.6 99h-.22c.99.495 1.705 1.155 2.09 2.365Zm7.15 1.265c.11 0 .275.055.385.055 0 0 0-.055-.055-.055h-.33Zm-10.065 4.235c2.805.44 6.105.605 8.855.495 4.015-.165 6.435-1.1 7.48-1.595-2.365-2.035-7.315-2.255-13.42-2.97-.165 0-.275-.055-.44-.055-.22.165-.495.385-.935.55-.605.275-1.43.605-2.475.715 1.595.33 3.245.605 4.895.77 1.76.165 3.465.33 5.225.44 1.76.11 3.465.22 5.225.385-3.52.22-7.04.11-10.505-.22-1.595-.165-3.245-.33-4.84-.66.495.55.825 1.21.935 2.145Zm4.18 1.375c1.54.385 2.97.715 4.18 1.1a6.27 6.27 0 0 1-.55-1.045 26.917 26.917 0 0 1-3.63-.055Zm-6.985 3.905c2.475.605 5.17 1.045 7.535 1.21 4.015.275 6.49-.33 7.59-.715-2.145-2.31-6.985-3.08-12.98-4.51-.165.11-.44.275-.77.44-.44.22-1.1.385-1.815.495.055.11.11.22.11.33 1.045.33 2.145.605 3.245.88 1.705.385 3.41.715 5.17 1.045 1.705.33 3.465.605 5.115 1.045-3.52-.165-6.985-.715-10.45-1.43-.99-.22-1.925-.44-2.915-.66v.99l-.33.275s-.22.165-.495.33c.385 0 .715.11.99.275Zm4.895 1.87c.33.11.66.275.99.385.11.055.22.055.385.11-.11-.11-.22-.22-.275-.385-.44 0-.77-.055-1.1-.11Zm-.495 5.005c3.41.66 5.665.33 6.655.055-1.485-2.475-5.5-3.74-10.45-5.665-.935-.385-1.87-.77-2.86-1.21-.385.11-.88.165-1.43.22.44.44.77.88.935 1.485a45.35 45.35 0 0 0 3.74 1.65c1.43.55 2.86 1.045 4.29 1.485 1.43.495 2.86.935 4.235 1.485-2.97-.55-5.885-1.375-8.745-2.42-1.155-.385-2.255-.88-3.355-1.375 0 .165 0 .385-.055.55l-.055.55-.385.22s-.22.11-.55.22c.275.11.495.22.77.33 2.145 1.045 4.95 1.925 7.26 2.42Zm-.825 1.21c.44.11.825.22 1.265.385-.88-.33-1.54-.66-1.98-.935-.165-.055-.33-.11-.495-.11.44.165.825.385 1.21.66Zm-9.955.22-.33.165c1.925.935 4.29 1.815 6.27 2.31 3.08.77 5.06.55 5.995.33-1.21-2.365-4.84-3.63-9.185-5.61-.715-.33-1.375-.66-2.09-.99-.44 0-.99 0-1.54-.11.55.495.99 1.045 1.155 1.705.88.495 1.815.935 2.75 1.375 1.265.55 2.53 1.045 3.795 1.54 1.265.495 2.53.99 3.795 1.54-2.695-.605-5.28-1.54-7.81-2.585-.825-.33-1.65-.715-2.42-1.1 0 .275-.055.55-.165.88l-.22.55Zm7.37-17.325c2.255.055 3.685-.77 4.345-1.21-.88-2.09-3.3-2.42-6.38-3.355-1.1-.33-2.2-.715-3.355-1.265-.165-.055-.275-.11-.44-.055.055.605.11 1.155.11 1.705.33.22.715.385 1.045.55.825.385 1.705.715 2.585.99.88.22 1.815.44 2.695.66.88.22 1.815.33 2.695.605-1.87.11-3.74-.165-5.61-.66a15.439 15.439 0 0 1-2.695-.88c-.22-.11-.495-.22-.715-.33 0 .605 0 1.21-.055 1.815.495.275.99.55 1.485.715 1.43.44 2.97.715 4.29.715Zm-1.76 3.08c.77.22 1.54.44 2.31.715-1.705 0-3.355-.385-4.95-.935-.605-.22-1.21-.44-1.76-.715-.055.22-.055.385-.11.605l.33.165c1.705.715 3.135 1.265 4.015 2.145 1.65 0 2.805-.66 3.355-.99-.55-2.09-2.64-2.53-5.28-3.63-.605-.275-1.265-.55-1.925-.88-.055.605-.165 1.21-.22 1.815.605.33 1.265.66 1.87.935.825.33 1.595.55 2.365.77Zm-.825-14.74c-1.485-.22-2.97-.55-4.51-1.1.22.77.385 1.485.55 2.2.275.11.55.22.77.275 1.21.385 2.42.66 3.685.825 1.265.11 2.475.165 3.74.165 1.21 0 2.475-.11 3.685-.055-2.42.715-5.005.88-7.535.66-1.265-.11-2.53-.33-3.795-.66-.11-.055-.22-.055-.33-.11.165.77.275 1.54.385 2.31.165.055.385.11.55.165 2.09.495 4.675.55 6.765.22 3.025-.495 4.62-1.925 5.28-2.64-1.815-2.09-5.06-1.705-9.24-2.255Zm6.765-28.6c-2.365.715-4.73 1.375-7.15 1.925-1.21.22-2.42.44-3.63.605-1.21.165-2.475.33-3.685.605-.385.11-.77.22-1.155.275.605-.275 1.21-.605 1.87-.825 1.54-.66 3.135-1.21 4.675-1.65.935-.275 1.87-.605 2.75-.825.66-.165 1.32-.275 1.98-.44 3.025-.66 5.665-1.265 7.095-2.035 2.805-.66 5.225-1.045 6.985-.715-1.21.99-3.96 3.135-9.295 5.28a52.06 52.06 0 0 1-6.05 1.98l-.66.165c-.825.11-1.595.165-2.475.275-.715.055-1.485.11-2.255.165-.44 0-.88.055-1.265.055-.44 0-.88.11-1.32.11-1.705.22-3.465.605-5.225 1.21.165-.33.385-.66.605-.935a34.948 34.948 0 0 1 3.85-1.265c1.21-.33 2.365-.495 3.63-.66 1.21-.165 2.475-.44 3.685-.715 4.84-1.1 9.57-2.75 14.135-4.785-2.365.66-4.73 1.485-7.095 2.2Zm.495 5.94c2.365-.495 4.785-1.1 7.15-1.595-4.675 1.595-9.405 2.805-14.3 3.465a41.66 41.66 0 0 1-3.685.33c-1.265.055-2.42.11-3.63.33-1.76.275-3.465.66-5.115 1.21 0 .495.055.935.11 1.375 1.595-.44 3.135-.825 4.73-1.045.825-.11 1.595-.22 2.42-.275.385 0 .825-.055 1.21-.055h1.1c.88 0 1.76 0 2.585-.055.495-.055.99-.165 1.54-.22a47.48 47.48 0 0 0 6.105-1.375c5.445-1.595 8.305-3.52 9.57-4.345-1.925-.495-4.565-.275-7.755.165-3.19.495-6.985 1.21-11.22 1.595-.77.055-1.485.11-2.255.165-.77.055-1.705.11-2.53.22-1.76.22-3.52.605-5.28 1.265-.11.055-.165.055-.275.11-.055.55-.11 1.1-.11 1.65a26.95 26.95 0 0 1 5.06-1.155c1.21-.165 2.475-.22 3.685-.22 1.21-.055 2.42-.165 3.63-.275 2.475-.33 4.84-.77 7.26-1.265Zm-1.925 6.05c2.145-.275 4.29-.715 6.49-1.1-4.235 1.32-8.58 2.145-12.98 2.31-1.1.055-2.255 0-3.3.055a29.81 29.81 0 0 0-3.19.33c-1.21.22-2.42.44-3.63.715.22.55.44 1.1.715 1.595 1.265-.165 3.025-.55 5.005-.715.385-.055.77-.055 1.21-.11h1.265c.99 0 1.98-.055 2.915-.11 1.98-.165 3.905-.44 5.61-.88 5.005-1.21 7.59-2.915 8.745-3.74-1.705-.605-4.07-.55-6.93-.275-2.86.22-6.27.66-10.01.605h-1.1c-.385 0-.77 0-1.155.055-.77.055-1.54.11-2.31.22-1.54.22-3.08.605-4.675 1.045.11.495.275 1.045.385 1.485 1.265-.275 2.53-.55 3.795-.715 1.1-.165 2.2-.275 3.3-.275 1.1 0 2.2.055 3.3.055 2.2-.055 4.345-.275 6.545-.55Zm.715 6.27c1.815-.055 3.685-.165 5.5-.165-3.63.715-7.37.88-11.055.77-1.815-.055-3.685.055-5.5.22-1.21.11-2.365.165-3.575.22l.33.495c.165.22.275.44.44.66.275-.055.55-.11.935-.11 1.265.055 2.53.165 3.74.33.33.055.605.11.935.165.385 0 .77-.055 1.155-.055.77-.055 1.43 0 2.31-.055 1.65 0 3.245-.11 4.73-.275 4.29-.55 6.655-1.87 7.645-2.53-1.375-.825-3.3-1.1-5.72-1.265-1.21-.055-2.53-.11-3.96-.165-1.43-.055-2.86-.165-4.73-.165-2.475 0-4.95.275-7.645.55-.55.055-1.045.22-1.32.495.22.385.44.715.66 1.1 1.375 0 2.695-.11 4.07-.165 1.87-.11 3.685-.165 5.555-.055 1.815 0 3.685.055 5.5 0Zm-.22 6.49c-1.65-.11-3.3-.22-4.95-.495-1.65-.22-3.245-.77-4.95-1.045-.715-.11-1.485-.22-2.2-.33l-.99-1.65h.33c1.265.055 2.475.165 3.63.33.605.11 1.21.22 1.76.33.55.11 1.045.22 1.54.33 2.805.55 5.39.715 7.59 1.045 2.145.33 3.905.77 5.115 1.76-.99.55-3.245 1.595-7.15 1.815-1.375.055-2.86.055-4.345-.11-.77-.055-1.485-.165-2.255-.275-.715-.11-1.54-.33-2.035-.44-.66-.11-1.32-.22-1.925-.33-.22-.66-.495-1.32-.825-1.925.55.055 1.1.11 1.595.22.825.11 1.595.275 2.42.44.825.165 1.65.33 2.53.44 3.355.44 6.71.495 10.065.11-1.65-.11-3.3-.11-4.95-.22ZM98.23 109.56c.715.275 1.485.495 2.145.88-1.65-.165-3.135-.605-4.675-1.155-.11-.055-.22-.11-.33-.11-.165.44-.33.825-.55 1.265.66.33 1.265.66 1.815.935.22.055.385.055.55.11 1.925.22 3.3-.33 3.905-.66-.275-2.145-2.31-2.805-4.84-3.905-.055 0-.055-.055-.11-.055-.165.605-.33 1.155-.55 1.705.11.055.22.11.385.165.825.275 1.54.55 2.255.825Zm-2.42 4.345c.715.33 1.43.66 2.035 1.1-1.595-.385-3.08-.935-4.51-1.54-.055 0-.055-.055-.11-.055-.33.495-.66 1.045-1.045 1.54.825.33 1.65.605 2.475.77 1.815.385 3.245 0 3.905-.275 0-2.035-1.815-3.025-4.125-4.18-.275.55-.55 1.045-.88 1.595 0 0 .055 0 .055.055l2.2.99Zm-3.135 4.565c.605.33 1.21.66 1.705 1.155-1.375-.385-2.64-.99-3.905-1.65-.165-.055-.33-.165-.495-.275-.11.165-.275.33-.385.44-.275.33-.55.66-.825.935.825.44 1.76.825 2.585 1.045 1.595.44 2.97.11 3.575-.11.275-2.035-1.375-3.025-3.465-4.29-.385.495-.715.935-1.1 1.43.11.11.275.165.385.275l1.925 1.045Zm-6.6 5.06a6.57 6.57 0 0 0 1.21.66c1.815.825 3.3.605 3.96.44.165-1.98-1.32-3.08-3.135-4.73l-1.265 1.265c.605.55 1.21 1.045 1.87 1.485.605.495 1.265.935 1.87 1.485-1.54-.55-2.915-1.485-4.18-2.53-.385.33-.825.66-1.21.99.275.275.605.605.88.935Zm-5.5 1.54c.715.88 1.705 1.705 2.64 2.255 1.65.88 3.025.66 3.685.495.385-2.035-.99-3.025-2.53-4.73-.495.33-.99.66-1.54.935.11.165.22.275.33.44.495.55 1.045 1.045 1.54 1.485.55.495 1.1.88 1.54 1.43-1.375-.55-2.53-1.485-3.63-2.53-.165-.165-.275-.33-.44-.495-.495.22-1.045.495-1.595.715Zm-5.39 1.265c.44.605.825 1.1 1.1 1.65.55.495 1.1.935 1.65 1.265 1.705.99 3.19.88 3.85.77.33-1.87-.825-2.97-2.255-4.565-.605.22-1.265.385-1.87.495.055.11.165.22.22.275.55.605 1.1 1.155 1.65 1.65.55.55 1.155.99 1.65 1.595-1.43-.66-2.695-1.705-3.795-2.86-.165-.165-.275-.33-.44-.495-.605.055-1.155.165-1.76.22Zm-1.375 2.42c.495.55.99.99 1.375 1.54-1.32-.715-2.365-1.705-3.355-2.86-.165-.165-.275-.385-.44-.55l-.33.055c-.605.055-1.1.165-1.595.275.66 1.045 1.595 2.145 2.585 2.805 1.54 1.045 2.97.99 3.63.88.55-1.705-.385-2.805-1.54-4.345-.605.055-1.21.165-1.87.22h-.165c.055.11.165.22.22.33l1.485 1.65Zm17.985-5.61c.055.44.055.88-.11 1.43l-.11.44c.055 0 .055.055.11.055 1.65.88 3.74 1.705 5.555 2.145 2.64.715 4.455.44 5.225.22-.825-2.255-3.905-3.465-7.59-5.28-.66-.33-1.375-.66-2.035-1.045-.605.055-1.265 0-2.035-.165-.11-.055-.22-.055-.33-.11.385.44.77.825.99 1.32.11.055.22.165.385.22.99.605 2.035 1.155 3.08 1.65 1.045.495 2.145.935 3.19 1.43 1.045.495 2.145.88 3.19 1.43-2.31-.55-4.51-1.375-6.655-2.31-.935-.44-1.87-.935-2.86-1.43ZM139.15 46.09c-.055.11-.55 1.32-2.2 3.245-.44.495-.99 1.1-1.595 1.705.44-.22.88-.44 1.375-.715 1.815-1.045 3.63-2.035 5.39-3.19l2.64-1.65 2.585-1.76c3.41-2.365 6.655-4.95 9.845-7.59-5.83 6.05-12.76 10.89-20.02 15.07-1.595.935-3.245 1.76-4.84 2.585a65.562 65.562 0 0 1-4.18 2.97c-2.86 1.76-6.16 3.465-9.405 4.895-.22.11-.44.165-.66.275 4.785-1.54 8.855-3.135 12.21-4.235l1.155-.33c5.885-2.75 12.43-6.71 17.38-10.78 3.795-3.025 6.49-5.885 8.305-8.25 1.815-2.365 2.915-4.18 3.465-5.335-3.025 1.1-6.6 3.465-11.165 6.435-2.97 1.925-6.325 4.07-10.065 6.27-.11.165-.165.275-.22.385Z" fill="#9C9C9C"/><path fill-rule="evenodd" clip-rule="evenodd" d="M17.6 135.025c-4.95-.99-9.02-4.235-9.02-9.845 0-4.62 1.43-9.295 3.74-13.31l.825-9.02.055-.11c.275-.88.66-1.76 1.045-2.585C18.26 79.42 32.89 69.08 53.845 69.08c20.405 0 35.035 9.79 39.38 29.92.66 1.1 1.265 2.475 1.65 3.685l.055.11.88 9.79c2.035 3.795 3.3 8.195 3.3 12.54 0 5.445-3.85 8.635-8.69 9.735v1.045c.22 5.17-1.76 7.7-5.775 10.505-.495.33-.99.715-1.485 1.045-.935 5.445-.825 11.825-.825 17.38v3.245c-.055 4.95-3.08 7.37-6.765 9.9-.77.495-1.54 1.045-2.255 1.595-1.54 1.155-2.915 3.08-4.125 4.565-1.87 2.42-4.29 5.775-7.48 6.325-.605.11-1.21.165-1.815.165-1.045 0-1.815-.22-2.75-.66-1.045-.495-1.98-.55-3.135-.55-1.155 0-2.09.055-3.135.55-.935.44-1.705.66-2.75.66-.605 0-1.21-.055-1.815-.165-3.19-.605-5.61-3.905-7.48-6.325-1.155-1.54-2.585-3.41-4.125-4.565-.715-.55-1.485-1.1-2.255-1.595-3.685-2.585-6.71-4.95-6.765-9.9v-8.085c0-.495-.055-.935-.055-1.43v-1.595c-.055-3.135-.22-6.49-.715-9.57a23.55 23.55 0 0 0-1.43-1.045c-4.015-2.805-5.995-5.28-5.775-10.505-.11-.165-.11-.495-.11-.825Z" fill="#fff"/><path fill-rule="evenodd" clip-rule="evenodd" d="M75.075 135.08c-.77.275-1.65.44-2.53.605-.88.11-1.76.165-2.585.22-.825 0-1.595-.055-2.255-.165-.33-.055-.605-.11-.88-.165a5.708 5.708 0 0 1-.66-.165 15.16 15.16 0 0 1-.55-.165s.22.055.605.055c.165.055.44.055.66.055.275 0 .55.055.88.055.66.055 1.43.055 2.2.055.825-.055 1.65-.11 2.53-.275.825-.11 1.705-.33 2.475-.55.77-.22 1.485-.44 2.09-.715l.825-.33c.22-.11.44-.22.605-.275l.55-.275-.495.33c-.165.11-.33.22-.605.385-.22.165-.495.275-.77.44-.605.33-1.32.605-2.09.88Zm-25.96 28.6c-.055.22-.055.495-.11.715 0 .22-.055.495-.055.715v.605c0 .385.055.605.055.605s.055-.22.055-.605c0-.165.055-.385.055-.605 0-.22.055-.44.055-.715 0-.22.055-.495.055-.715 0-.22.055-.44.055-.605.055-.385.055-.605.055-.605s-.11.22-.165.605c.055.165 0 .385-.055.605Zm14.025 0V165.275s.055-.165.11-.495c.055-.165.055-.33.055-.495 0-.165 0-.385.055-.605 0-.22 0-.385-.055-.605 0-.165-.055-.385-.055-.495-.055-.275-.165-.495-.165-.495v.99c.055.22.055.44.055.605Zm33.055-33.935c.44-2.31.275-4.62-.33-6.82-.55-2.2-1.485-4.29-2.695-6.215a20.836 20.836 0 0 0-4.51-5.06c-1.815-1.375-3.905-2.42-6.215-2.805 2.365-.055 4.675.88 6.655 2.2a17.548 17.548 0 0 1 4.895 5.17c1.265 2.035 2.2 4.235 2.64 6.6.385 2.255.33 4.73-.44 6.93Zm-84.26-6.215c-.44 2.035-.495 4.125-.055 6.215-.66-1.98-.715-4.18-.44-6.27.33-2.09 1.045-4.125 2.035-6.05.99-1.925 2.31-3.63 3.85-5.115 1.54-1.485 3.41-2.695 5.5-3.41 1.045-.33 2.145-.55 3.19-.605 1.045-.055 2.09-.11 3.19-.11 2.145 0 4.235.165 6.325.385 4.18.44 8.36.825 12.54 1.1-2.09.055-4.18 0-6.325-.055-2.09-.055-4.18-.165-6.27-.33-2.09-.11-4.18-.275-6.27-.22-1.045 0-2.09.055-3.135.11s-1.98.22-2.97.55c-1.925.605-3.685 1.76-5.17 3.135a19.199 19.199 0 0 0-3.795 4.84c-1.045 1.87-1.815 3.795-2.2 5.83Zm3.025-14.96c-.44.77-.825 1.65-1.1 2.475.44-.825.935-1.54 1.43-2.31a19.65 19.65 0 0 1 1.65-2.09c.99-1.1 2.145-2.09 3.41-2.915-.055-.055-.055-.11-.11-.11-.55.22-1.1.55-1.595.88-.77.495-1.43 1.155-2.09 1.815-.55.77-1.155 1.485-1.595 2.255Zm.385-7.095a9.86 9.86 0 0 1 1.21-2.09c.495-.66 1.045-1.265 1.65-1.76.055-.055.11-.055.165-.11v.495c-.495.55-.99 1.1-1.43 1.705-.44.605-.88 1.265-1.265 1.98-.385.715-.715 1.43-.99 2.145.11-.825.385-1.595.66-2.365Zm28.16-28.27c.825-.22 1.705-.385 2.53-.605.88-.165 1.76-.33 2.64-.385 3.52-.385 7.095-.385 10.615.11 1.76.275 3.465.605 5.17 1.1a29.213 29.213 0 0 1 4.895 1.925c-.825-.33-1.65-.66-2.475-.935-.825-.275-1.65-.55-2.53-.715-1.705-.44-3.41-.715-5.17-.935-3.465-.385-6.985-.385-10.45.055-.88.055-1.705.22-2.585.385-.88.165-1.705.33-2.53.55-.275.055-.55.165-.88.22-2.585 1.595-4.84 3.685-6.71 5.995-2.53.495-5.17 1.265-7.59 2.475-.22.055-.44.055-.66.11-.33.055-.66.165-.99.22 4.015-4.235 9.35-7.81 16.72-9.57Zm37.675 9.57c-.33-.11-.66-.165-.99-.22-.22-.055-.44-.055-.66-.11a5.029 5.029 0 0 1-.77-.385 30.035 30.035 0 0 0-3.575-4.345 34.257 34.257 0 0 1 5.995 5.06Zm11.495 18.7c.33.715.55 1.54.66 2.31-.275-.715-.66-1.43-.99-2.145-.385-.715-.77-1.375-1.265-1.98-.44-.605-.935-1.155-1.43-1.705v-.495c.055.055.11.055.165.11.605.495 1.155 1.1 1.65 1.76.495.715.88 1.43 1.21 2.145Zm1.485 9.625c-.275-.88-.605-1.705-1.1-2.475-.44-.77-.99-1.54-1.65-2.2-.605-.66-1.32-1.32-2.09-1.815-.495-.33-1.045-.66-1.595-.88-.055.055-.055.11-.11.11 1.265.825 2.42 1.76 3.41 2.915a19.65 19.65 0 0 1 1.65 2.09c.605.715 1.1 1.43 1.485 2.255Zm-5.885 1.485c.165.11.275.165.275.165s-.11-.055-.275-.165c-.165-.165-.385-.33-.77-.55-.66-.44-1.705-.99-3.025-1.375-1.32-.44-2.915-.715-4.62-.825-1.705-.11-3.52-.055-5.39.055-1.815.11-3.63.22-5.335.33-1.705.11-3.3.22-4.675.33-1.375.11-2.475.22-3.3.275-.77.055-1.265.11-1.265.11h1.265c.77 0 1.925-.055 3.3-.11 1.375-.055 2.97-.11 4.675-.165 1.705-.11 3.52-.165 5.335-.275 1.815-.11 3.63-.165 5.335-.11 1.705.11 3.245.33 4.565.66 1.32.385 2.365.825 3.025 1.21.44.165.66.33.88.44Zm-20.405 52.58v-.055c0-.11-.055-.22-.11-.33l.165-.165c.11 0 .22 0 .275.055 0 1.485-.275 1.925-.385 2.09 0-.495.055-1.045.055-1.595Zm-1.32 1.1v-.11c0-.22-.055-.385-.385-.55.22-.055.33-.165.44-.33.11 0 .22 0 .33.055 0 1.54-.275 2.145-.44 2.31.055-.385.055-.825.055-1.375Zm-21.395 3.85c-.055 0-.055-.055-.11-.055 0-.055-.055-.165-.055-.22a1.02 1.02 0 0 1-.11-.385 1.02 1.02 0 0 1-.11-.385c0-.11-.055-.275-.11-.385 0-.11-.055-.22-.055-.275 0-.055-.055-.11-.055-.11s0 .055-.055.11c-.055-.385-.11-.88-.11-1.485.22-.055.55-.055.825-.055.055.055.055.11.11.165v.33c0 .77 0 1.485.11 2.09-.11.275-.22.55-.275.66Zm-2.695-3.685h.165c0 .11-.055.165-.055.275v.33c0 .11.055.22.055.275.055.165.11.275.11.275s0-.11.055-.275v-.88h.605c-.055.11-.055.165-.055.275v.11c0 .495 0 .88.055 1.32-.055.33-.11.605-.22.825l-.22-.22-.165.275c-.11-.385-.33-1.045-.33-2.585Zm-2.585-1.815c.055 0 .165 0 .275-.055l.165.165c-.055.11-.11.22-.11.33v.055c0 .605 0 1.1.055 1.54-.11-.11-.385-.55-.385-2.035Zm-1.1-.605h.275c-.055.11-.11.22-.11.33v.055c0 .385 0 .77.055 1.1-.11-.275-.22-.715-.22-1.485Zm1.54-2.97c-.11.44-.22 1.045-.275 1.76-.11 0-.275 0-.33-.055 0-1.815.22-2.53.385-2.805.055.33.165.715.22 1.1Zm1.045 3.025c-.165 0-.275 0-.385-.055 0-2.31.33-3.025.495-3.245.055.165.11.44.165.715-.165.66-.275 1.485-.275 2.585Zm1.98-.88c-.055.495-.11 1.045-.11 1.705-.33 0-.715 0-.935-.11 0-.495 0-.99.055-1.375 0 .055.055.11.055.165a.17.17 0 0 1 .055.11s0-.055.055-.11c0-.11.055-.22.055-.33 0-.165.055-.275.055-.44 0-.165.055-.33.11-.495 0-.165.055-.33.055-.495.055-.165.055-.33.055-.44l.11.11.055-.055c.11.385.275 1.045.33 1.76Zm13.42 3.96c-.385.165-1.54.22-2.035.11 0-.385.055-.825.11-1.32 0 .055 0 .11.055.11.055.11.055.22.055.22v-.22c0-.11.055-.33.055-.55 0-.22.055-.495.11-.77s.055-.55.11-.88c.055-.275.11-.605.165-.88.055-.275.11-.55.165-.77v-.11l.44.66.165-.44c.33.825.66 2.145.605 4.84Zm4.84-3.245v.165c.055.275.11.88.22 1.43.055.275.11.66.165.935-.33.11-1.155.165-1.595.11v-1.1c.165-1.43.44-3.19.715-3.795.11.11.33.66.495 2.255Zm6.27-3.685c.055.165.11.275.11.44.055.165.055.275.11.44 0 .11.055.275.055.385 0 .11.055.22.055.275v.11s0-.055.055-.11c.055.275.055.605.055 1.045-.11 0-.22.055-.33.055-.055-.715-.11-1.32-.275-1.76.055-.33.11-.66.165-.88Zm1.265 4.18v-.055c0-.11-.055-.22-.11-.33h.275c0 .77-.11 1.21-.165 1.485v-1.1ZM38.61 162.14c0-1.43.165-2.09.275-2.365.055.11.055.275.11.44-.165.495-.22 1.155-.22 1.925h-.165Zm2.915 4.73c0-.055-.055-.055-.055-.11-.055-.11-.11-.22-.11-.275-.055-.055-.055-.11-.055-.11s0 .055-.055.11c0 .055-.055.11-.055.22-.055-.33-.055-.77-.055-1.32.11 0 .22 0 .33-.055.11.165.275.22.44.33-.33.165-.385.385-.385.55v.66Zm27.885-4.73h-.165c0-.77-.11-1.43-.22-1.925.055-.165.055-.33.11-.44.11.275.33.935.275 2.365Zm-4.235-.33c.055-.11.11-.275.165-.385.22.44.44 1.43.385 3.355h-.055c0-.11 0-.165-.055-.275 0-.165-.055-.275-.055-.385-.055-.22-.055-.385-.055-.385s-.055.165-.11.385v.66c-.22 0-.44.055-.66.055 0-.66-.055-1.21-.11-1.705.11-.605.22-1.21.275-1.65.165.11.22.22.275.33Zm1.375-1.045c.165.22.55.935.495 3.245-.11 0-.22.055-.385.055 0-1.1-.11-1.925-.33-2.585.11-.275.165-.55.22-.715Zm-3.465.605.055.055c.22.22.715 1.1.715 4.18-.22.055-.66.11-1.045.11 0-.11-.055-.275-.055-.44a16.267 16.267 0 0 0-.22-1.32c.165-1.045.385-2.145.55-2.585Zm-4.73.165c.055 0 .11.055.165.11.055.055.11.165.22.33.055.11.055.275.11.44.055.22.055.44.11.66.055.22.055.44.055.66 0 .22.055.385.055.605 0 .33.055.55.055.55s.055-.22.11-.55c0-.165 0-.33.055-.495.11.66.165 1.485.11 2.585-.165 0-.275-.055-.44 0-.165 0-.385.055-.66.165-.165.055-.385.11-.55.11 0-.55 0-1.1-.055-1.54.165-1.54.44-3.135.66-3.63Zm-6.38.55c.055.165.165.385.275.55.11-.165.22-.33.33-.44.33 1.1.66 3.465.77 4.895-.275-.055-.66-.165-1.045-.165h-.22c-.22 0-.495 0-.66.055h-.11c-.055-3.08.385-4.345.66-4.895ZM49.5 161.7c.055-.055.11-.11.165-.11.165.33.33 1.1.495 1.98v1.155s.055-.055.11-.165c0-.055.055-.055.055-.11.055.165.055.385.055.55-.055.55-.055 1.155-.055 1.815-.495.055-1.375 0-1.65-.165-.055-3.685.55-4.675.825-4.95Zm-2.53.605.22-.275c.22.77.44 2.2.55 3.41v.88c-.11 0-.22-.055-.275-.055H47.3c-.605.055-.935.055-1.155.055 0-.11.055-.22.055-.385 0 .055 0 0 .055-.11v-.11c.055-.495.165-1.1.22-1.54l.165-.935c.055-.275.11-.77.22-1.155l.11.22Zm-2.09-.88.055-.055c.165.44.385 1.54.55 2.64-.11.77-.22 1.32-.275 1.76-.055 0-.055-.055-.055-.055 0-.165-.055-.275-.055-.44 0-.165-.055-.275-.055-.44 0-.165-.055-.275-.055-.385 0-.22-.055-.385-.055-.385s-.055.165-.11.385c0 .11-.055.275-.055.385v.44c0 .165.055.33.055.44-.275 0-.605 0-.77-.055.11-3.135.605-3.96.825-4.235Zm-8.635-.22c-.55-.935-1.54-3.465-1.485-10.23 0-.88 0-1.705.055-2.475.275.22.66.55.99.935 1.595 1.65 2.145 6.435 2.365 8.745.055.33.055.605.11.825-.44.55-.605 1.595-.605 3.245v.055c0 .165.11.55.715.66.055 0 .165 0 .22.055-.33.055-.605.165-.715.385-.715-.715-1.21-1.485-1.65-2.2Zm11 9.79-.22-.165-.11.165c-.275-.275-.66-.99-.715-3.135.11.055.275.055.385.11.11 0 .275-.055.825-.165.11-.055.275-.055.44-.11v.605c-.11.935-.385 2.145-.605 2.695Zm3.19-1.32c-.055.11-.11.22-.11.33 0 .11-.11.22-.11.33-.055.11-.055.275-.11.385 0 .11-.055.22-.055.275-.11-.22-.165-.44-.275-.66-.165.275-.275.55-.385.88-.275-.44-.55-1.43-.55-3.465.055 0 .165-.055.275-.055.275.055.55.055.825.055.22 0 .385 0 .605-.055v1.375c-.055.275-.055.44-.11.605Zm1.815 2.31s0-.055-.055-.11a3.79 3.79 0 0 1-.165-.44 6.924 6.924 0 0 1-.165-.55 1.954 1.954 0 0 1-.11-.55c-.055-.165-.055-.33-.055-.495-.055-.275-.055-.495-.055-.495s-.055.165-.11.495v.165c-.055-.495-.11-1.1-.11-1.87h.055c.22.055.44.11.66.11.165 0 .385-.055.88-.165.11 0 .275-.055.44-.11-.11 1.32-.55 3.52-.88 4.07-.11.11-.22 0-.33-.055Zm3.575-.055c-.055.055-.055.055-.11.055l-.165-.22-.165.165c-.33-.715-.66-2.53-.77-3.74.275.055.55.055.825.055.33 0 .715 0 1.045-.055 0 .11 0 .275-.055.385 0 .22-.055.385-.055.605 0 .165-.055.385-.055.495-.055.33-.055.495-.055.495s.11-.165.22-.495l.165-.495v-.165c-.165 1.925-.55 2.64-.825 2.915Zm2.695-.385c-.055.055-.165.11-.22.165v-.11c-.055-.11-.055-.22-.11-.33a1.02 1.02 0 0 1-.11-.385c-.055-.11-.11-.275-.165-.385-.055-.11-.11-.165-.11-.275-.055-.33-.165-.715-.22-1.045 0-.385.055-.825 0-1.265v-.11c0-.055.055-.055.055-.055.495 0 1.265 0 1.65.11-.055 2.475-.495 3.355-.77 3.685Zm3.245-2.915c0-.055 0-.11-.055-.165-.055-.11-.055-.165-.055-.165s0 .055-.055.165c0 .11-.055.22-.11.385s-.11.33-.11.55c-.055.22-.11.385-.165.605-.055.22-.055.44-.11.605 0 .055-.055.11-.055.22l-.165-.22-.22.22c-.22-.605-.44-1.65-.55-2.585v-.77c.22.055.495.055.66.055.275 0 .55 0 .825-.055.055 0 .165 0 .22.055 0 .385 0 .77-.055 1.1Zm1.32 1.375c-.055.055-.11.11-.165.11-.055-.165-.165-.44-.22-.715.055-.605.11-1.265.11-2.09v-.11c0-.055 0-.11-.055-.22.055-.055.11-.11.11-.22.165 0 .385 0 .495.055v1.045s.055-.11.11-.275c0-.11.055-.165.055-.275 0-.11.055-.22.055-.33v-.11h.11c.055 2.255-.385 2.915-.605 3.135Zm1.54-1.925c.055-.385.055-.825.055-1.32v-.11c0-.11 0-.165-.055-.275.33 0 .77 0 1.045.055 0 .385 0 .715-.055 1.045 0-.055-.055-.11-.055-.165-.055-.055-.055-.11-.055-.11s0 .055-.055.11c0 .055-.055.165-.055.33 0 .11-.055.275-.11.44 0 .165-.055.33-.11.495-.055.165-.055.33-.11.44-.055.055-.055.165-.055.22-.165-.22-.275-.66-.385-1.155Zm9.35-16.94c.55 6.655-.275 9.185-.825 10.065-.66 1.045-1.54 2.09-2.97 3.08v-.55c0-.385-.33-.55-.77-.66.715-.11.935-.44.935-.715v-.055c0-1.65-.165-2.695-.605-3.245.055-.275.055-.55.11-.825.275-2.31.77-7.095 2.365-8.745.55-.55 1.045-.99 1.43-1.21.165.825.275 1.815.33 2.86ZM43.01 80.355a31.338 31.338 0 0 0-9.295 1.265c4.675-.715 8.03-1.045 10.34-.77 1.485 0 2.97.055 4.455.165.935.055 1.815.165 2.75.275.935.11 1.87.22 2.805.22s1.87-.055 2.805-.22c.935-.11 1.815-.22 2.75-.275 1.485-.11 2.97-.11 4.455-.165 2.31-.275 5.665.055 10.34.77-3.025-.88-6.16-1.265-9.295-1.265-1.87 0-3.685 0-5.555.11-.935.055-1.87.165-2.75.275-.935.11-1.815.22-2.75.165-.935 0-1.815-.055-2.75-.165-.935-.11-1.87-.22-2.75-.275-1.87-.055-3.74-.055-5.555-.11Zm45.925 17.93c0-1.87-.33-3.685-.99-5.39-.275-.77-.66-1.485-1.045-2.2v-.385c.495.825.88 1.65 1.155 2.53.605 1.76.88 3.63.88 5.445ZM66.99 98.23c.825.55 1.65 1.1 2.475 1.54.88.44 1.76.88 2.695 1.21 1.815.715 3.74 1.21 5.665 1.485 1.925.22 3.905-.495 5.39-1.76a7.51 7.51 0 0 1-2.475 1.65c-.935.385-1.98.55-2.97.495-1.98-.22-3.96-.715-5.83-1.375-1.87-.715-3.63-1.65-5.225-2.86-.77-.605-1.54-1.265-2.2-2.035-.66-.77-1.265-1.54-1.76-2.42a18.555 18.555 0 0 0 4.235 4.07Zm-21.945 4.895c-1.045.715-2.145 1.265-3.3 1.815a22.444 22.444 0 0 0 6.49-3.74c.99-.77 1.87-1.65 2.805-2.53.44-.44.88-.88 1.375-1.21.495-.385.99-.66 1.54-.66s1.045.33 1.54.66c.495.385.935.77 1.375 1.21.88.88 1.815 1.76 2.805 2.53 1.925 1.595 4.18 2.86 6.49 3.74-1.1-.55-2.255-1.1-3.245-1.815a23.456 23.456 0 0 1-2.97-2.255c-.935-.825-1.815-1.705-2.695-2.585-.44-.44-.88-.88-1.43-1.265-.495-.385-1.1-.77-1.87-.77-.715 0-1.32.385-1.87.77-.495.385-.99.825-1.43 1.265-.88.88-1.76 1.76-2.695 2.585-.825.825-1.87 1.595-2.915 2.255Zm-1.54-6.6c-.66.715-1.43 1.43-2.2 2.035-1.595 1.21-3.355 2.145-5.225 2.86-1.87.715-3.795 1.155-5.83 1.375a6.904 6.904 0 0 1-2.97-.495 7.51 7.51 0 0 1-2.475-1.65c1.54 1.265 3.465 1.98 5.39 1.76 1.925-.275 3.85-.77 5.665-1.485.935-.33 1.815-.715 2.695-1.21.88-.44 1.705-.99 2.475-1.54 1.595-1.155 3.025-2.53 4.18-4.125-.44.935-1.045 1.76-1.705 2.475Zm-23.54-3.685a21 21 0 0 1 1.155-2.53v.385c-.385.715-.77 1.43-1.045 2.2-.66 1.705-.935 3.575-.99 5.39 0-1.815.275-3.685.88-5.445Zm7.645 11.055a8.814 8.814 0 0 1-2.805-1.32 8.423 8.423 0 0 1-2.75-3.63c-.165-.55-.275-.935-.33-1.21-.055-.275-.055-.44-.055-.44s.055.165.11.44.22.715.385 1.21a8.44 8.44 0 0 0 2.805 3.465c.77.55 1.705.99 2.695 1.21 1.045.22 2.145.275 3.3.055 2.31-.385 4.73-1.1 6.985-2.09 2.255-.99 4.4-2.365 6.05-3.96 1.65-1.595 2.86-3.465 3.52-5.225.66-1.76.77-3.355.77-4.4 0-.55-.055-.99-.055-1.265 0-.275-.055-.44-.055-.44s0 .165.055.44.11.715.165 1.265c.055 1.1 0 2.695-.605 4.51s-1.76 3.795-3.465 5.445c-1.705 1.705-3.85 3.08-6.16 4.125s-4.785 1.705-7.15 2.09c-1.155.055-2.365 0-3.41-.275Zm49.39.11a8.13 8.13 0 0 0 3.465-.11 8.814 8.814 0 0 0 2.805-1.32 8.423 8.423 0 0 0 2.75-3.63c.165-.55.275-.935.33-1.21.055-.275.055-.44.055-.44s-.055.165-.11.44-.22.715-.385 1.21a8.44 8.44 0 0 1-2.805 3.465c-.77.55-1.705.99-2.695 1.21-1.045.22-2.145.275-3.3.055-2.31-.385-4.73-1.1-6.985-2.09-2.255-.99-4.4-2.365-6.05-3.96-1.65-1.595-2.86-3.465-3.52-5.225-.66-1.76-.77-3.355-.77-4.4 0-.55.055-.99.055-1.265 0-.275.055-.44.055-.44s0 .165-.055.44-.11.715-.165 1.265c-.055 1.1 0 2.695.605 4.51s1.76 3.795 3.465 5.445c1.705 1.705 3.85 3.08 6.16 4.125 2.31.88 4.73 1.595 7.095 1.925Zm8.965-12.815c.66-3.96-2.035-7.645-5.94-8.305-13.09-2.145-17.82-2.64-18.59 1.815-.605 3.575.495 6.93 2.915 9.68-1.98-2.64-2.805-5.72-2.31-8.855.275-1.54 1.045-2.475 2.53-2.915l2.31 12.705-.825-12.98c.11 0 .275 0 .385-.055l1.485 8.36-.55-8.36c2.53 0 6.05.495 10.835 1.265l1.375 7.755-.495-7.59c.165.055.385.055.55.11l2.31 15.29s.055 0 .055-.055L80.63 84.48l2.255 13.585-1.1-13.53c2.53 1.32 4.07 4.18 3.575 7.15l-.55 3.41c-.275 1.76-1.21 3.3-2.475 4.455a7.102 7.102 0 0 0 3.025-4.785l.605-3.575ZM28.05 82.885a7.186 7.186 0 0 0-5.94 8.305l.605 3.575c.33 2.035 1.485 3.685 3.025 4.785-1.265-1.155-2.2-2.695-2.475-4.455l-.55-3.41c-.385-2.365.495-4.62 2.145-6.16l2.09 11.55-.825-12.43c.11-.055.275-.165.385-.22l1.43 8.03-.55-8.36c.33-.11.605-.165.935-.22 3.85-.605 6.93-1.1 9.405-1.32l1.925 10.615-.715-10.725h.275l2.09 13.695c.11-.055.22-.165.275-.22l-.88-9.57 1.485 9.075.33-.33-1.045-12.65c2.805.165 4.125 1.045 4.51 3.19.495 3.135-.33 6.215-2.31 8.855 2.42-2.75 3.465-6.105 2.915-9.68-.66-4.565-5.445-4.015-18.535-1.925Zm-11.66 25.74c.55-.44 2.31-1.595 6.27-2.805-.66-.385-1.21-.825-1.76-1.32-1.54.88-2.805 2.035-3.795 3.245-.22.275-.44.605-.715.88Zm10.835 1.705c1.375-.055 2.805 0 4.29.11 1.485.055 2.915.11 4.29.165 1.375.055 2.64.055 3.74.11s2.035 0 2.695.055h.99s-.385-.055-.99-.11c-.66-.055-1.54-.165-2.64-.22-1.1-.055-2.365-.165-3.74-.275-1.375-.055-2.86-.165-4.29-.22-1.485-.055-2.97-.11-4.345-.055-1.375.055-2.695.33-3.74.715-1.045.385-1.87.88-2.365 1.265-.495.385-.77.66-.77.66s.275-.22.825-.605c.55-.33 1.375-.77 2.42-1.045.99-.33 2.255-.495 3.63-.55Zm-8.745 12.155c.055.44.11.99.165 1.54.055.55.165 1.155.22 1.76.11.605.22 1.21.33 1.76.11.55.22 1.1.33 1.54v.11c.22 1.21.385 2.365.495 3.465.055-.22.055-.495.11-.715.055-.55.165-1.1.22-1.595.11-1.045.22-2.035.275-2.86.11-1.705.165-2.86.165-2.86s.11.275.22.77c.11.33.165.715.275 1.155v-.44l.165-1.485c.33-1.925.88-3.63 1.54-5.005s1.375-2.475 1.98-3.08c.33-.33.55-.55.77-.66.165-.11.275-.22.275-.22s-.11.11-.22.275a3.99 3.99 0 0 0-.605.825c-.44.715-.99 1.815-1.43 3.245-.44 1.375-.825 3.08-1.045 4.895-.055.44-.055.88-.11 1.375 0 .495 0 .99-.055 1.485-.055.99-.11 1.98-.22 2.97-.11.99-.22 2.035-.44 3.025-.11.495-.22.99-.44 1.54-.055.11-.165.275-.22.44-.055.11-.11.22-.22.275-.11.165-.22.385-.33.55-.055.11-.11.22-.165.385 0 .11-.055.165-.055.275-.11.44-.165.825-.275 1.155.33 1.925 1.155 3.19 2.2 4.18-.33-.66-.66-1.265-.825-1.815-.11-.33-.22-.605-.275-.88-.055-.275-.11-.495-.165-.715a6.626 6.626 0 0 0-.11-.605l.275.55c.055.165.165.385.33.605.11.22.275.495.44.77.33.605.715 1.21 1.21 1.87.495.66 1.045 1.32 1.65 1.98.11.165.275.275.385.44.385.275.715.55 1.1.825 1.43 1.155 2.585 2.2 3.795 2.2.44 0 .88-.11 1.32-.44.495-.33.935-.605 1.375-.715a4.582 4.582 0 0 0-.825-.22c-.55-.11-.99-.165-1.32-.22-.33-.055-.495-.055-.495-.055s.165-.055.495-.11a8.1 8.1 0 0 1 1.375-.11c.55 0 1.265.11 1.98.275.715.22 1.43.495 2.09.935.66.44 1.21.935 1.705 1.485.44.55.825 1.155 1.1 1.65.22.55.385.99.495 1.32.055.33.11.495.11.495s-.11-.165-.275-.44c-.165-.275-.44-.66-.77-1.1-.33-.44-.715-.88-1.21-1.32 1.32 2.035 1.815 5.5 2.09 7.975l.275-.66-.055 2.365c0 .11 0 .165.055.275.11-.055.22-.11.385-.165.165-.495.385-.935.66-1.375-.055.55-.11 1.045-.055 1.595.165.165.275.44.33.77a.887.887 0 0 1 .495-.165l.33-1.155.165 1.32c.11.11.22.275.275.44.165-.165.385-.275.55-.275l.33-1.265.22 1.375c.165.165.33.44.495.99.11-.165.165-.275.275-.385.11-.11.275-.22.385-.275l.385-1.65.33 1.595c.275.165.495.55.66 1.1.11-.22.22-.44.385-.66.11-.11.22-.22.385-.275.11-.55.22-1.1.275-1.65.165.55.33 1.1.385 1.705.11.055.22.165.275.33h.055l-.055.055c.165.275.275.66.385 1.155.165-.495.385-.935.66-1.21.165-.165.33-.275.55-.33l.33-1.375.22 1.32c.385.11.715.77.935 1.65.165-.44.385-.825.605-1.045.165-.165.33-.275.55-.385l.33-1.87.33 1.815c.44.165.715.99.99 1.98 0 .055.055.11.055.165.055.22.22.275.275.275l.055-.055c.055-.055.055-.165.11-.22.055-.165.165-.33.275-.495.22-.77.495-1.375.825-1.595l.385-2.09.33 2.09c.22.055.385.22.605.385.22.22.44.605.605 1.045.22-.88.55-1.54.935-1.65l.11-1.595.495 1.65c.165.055.385.165.495.33.275.275.495.66.66 1.21.11-.44.275-.825.44-1.155l.22-2.53.605 2.09c.44.11.715.44.935.935.165-.55.385-.935.66-1.1 0-.44 0-.88-.055-1.32l.66 1.32c.22.055.385.165.55.33.11.11.165.22.275.385a2.6 2.6 0 0 1 .385-.935c.055-.44 0-.88-.055-1.375.275.385.44.77.66 1.155.22 0 .385.11.55.22.055 0 .055.055.055.055.11-.275.275-.495.44-.55.055-.55.055-1.1 0-1.705.275.55.55 1.155.715 1.76.055 0 .055.055.11.055.165-.605.33-.88.605-.935.055-.44.055-.825.055-1.265.22.44.385.88.55 1.32.055 0 .11.055.165.055l.11-2.97.165.495c.275-2.255.77-5.17 1.815-7.095-.385.385-.715.825-.99 1.21-.33.44-.55.88-.66 1.155-.165.275-.22.495-.22.495s0-.165.055-.55c.055-.33.165-.825.385-1.375s.605-1.155 1.045-1.76c.495-.55 1.1-1.1 1.76-1.54a8.967 8.967 0 0 1 2.2-.825c.77-.11 1.43-.165 2.035-.11.605.055 1.045.22 1.375.33.33.11.495.22.495.22h-.55c-.33 0-.825 0-1.375.055-.165 0-.275 0-.44.055.275.11.55.33.88.495.44.33.88.44 1.32.44.385 0 .77-.11 1.155-.275.275-.165.55-.385.825-.66.605-.495 1.265-1.1 1.925-1.65.66-.55 1.265-1.155 1.87-1.76.605-.55 1.1-1.1 1.54-1.595.44-.495.825-.88 1.1-1.155l.44-.44-.275.55c-.165.33-.44.825-.825 1.375-.22.385-.55.77-.825 1.155 1.54-1.21 2.805-2.695 3.135-5.28 0-.11-.055-.22-.055-.33a3.97 3.97 0 0 0-.495-1.1c-.11-.165-.22-.385-.33-.55-.055-.11-.11-.165-.22-.275-.055-.11-.165-.275-.22-.44-.22-.55-.33-1.045-.44-1.54-.22-.99-.33-2.035-.44-3.025-.11-.99-.165-2.035-.22-2.97-.055-.495-.055-.99-.055-1.485 0-.44-.055-.935-.11-1.375a28.244 28.244 0 0 0-1.045-4.895c-.44-1.375-.99-2.53-1.43-3.245-.22-.33-.44-.66-.605-.825a1.22 1.22 0 0 1-.22-.275s.11.055.275.22c.22.11.44.385.77.66.605.66 1.375 1.705 1.98 3.08.66 1.375 1.21 3.08 1.54 5.005l.165 1.155v-.11c.11-.88.165-1.98.275-3.08.055-.66.11-1.375.11-2.09 0-.165.055-.385.055-.605.055-.55.055-1.1.11-1.65v-1.65c0-.495-.055-.99-.055-1.43 0-.44-.055-.77-.11-.99-.055-.22-.055-.385-.055-.385s0 .165-.055.385c0 .22-.055.605-.11.99 0 .44-.055.88-.11 1.43-.055.495-.055 1.045-.11 1.65-1.375-2.805-3.3-4.95-5.885-5.61.275.605.55 1.045.77 1.32.11.165.22.275.275.385l.11.11-.11-.11a3.75 3.75 0 0 0-.385-.275c-.275-.275-.715-.66-1.1-1.21-.055-.11-.165-.275-.22-.385-.165 0-.275-.055-.44-.055-7.7-.55-10.12 1.265-24.915 1.32-.055.55-.11 1.1-.11 1.595-.055.495-.055.99-.11 1.43.11.66.22 1.265.275 1.925.055.99.055 1.98 0 2.915-.11.935-.165 1.76-.33 2.475-.165.715-.33 1.32-.44 1.705-.165.385-.22.66-.22.66s0-.22.055-.66c.055-.44.055-1.045.055-1.76a18.5 18.5 0 0 0 0-2.475c0-.88-.055-1.87-.11-2.805a44.059 44.059 0 0 0-.275-2.805 72.26 72.26 0 0 0-.33-2.255c-15.18-.055-17.545-1.87-25.3-1.32-.66.055-1.265.165-1.87.44-.385.55-.825.99-1.1 1.21-.165.11-.275.22-.385.275-.11.055-.11.11-.11.11l.11-.11c.055-.11.165-.22.275-.385.165-.22.33-.44.495-.77-3.3 1.705-5.39 6.16-6.215 10.78v-.055c-.11-.55-.22-1.1-.33-1.54-.11-.44-.22-.825-.275-1.1a1.719 1.719 0 0 0-.11-.385v.44c.165.275.165.66.22 1.1Zm32.945 64.735c.11-.22.22-.385.275-.55.055-.165.11-.275.11-.33 0-.055.055-.11.055-.11s-.055 0-.11.055-.165.11-.275.22c-.22.165-.605.44-.99.66-.22.11-.44.22-.715.275-.275.055-.495.165-.77.22-.275.055-.55.055-.825.11-.275 0-.55 0-.88-.055-.275-.055-.605-.11-.88-.22s-.55-.165-.825-.33c-.55-.22-1.045-.495-1.54-.77-.055-.055-.165-.11-.22-.22-.22-.275-.385-.55-.66-.88-.55-.715-1.155-1.595-1.815-2.475-.33-.44-.66-.935-.99-1.43-.33-.495-.715-.99-1.045-1.43-.33-.495-.715-.99-1.045-1.43-.33-.495-.66-.935-.99-1.43-.33-.44-.66-.88-.935-1.32-.275-.44-.605-.825-.825-1.21-1.045-1.485-1.815-2.475-1.815-2.475s.33 1.21 1.1 2.86c.165.44.385.88.66 1.32.165.33.385.715.55 1.045-3.795-2.86-7.645-4.455-7.7-9.295v-.825c.165.385.275.715.44 1.045.44.99.88 1.76 1.265 2.255.33.495.55.77.55.77s-.11-.33-.33-.935c-.22-.605-.44-1.43-.715-2.42-.11-.495-.275-1.045-.385-1.595-.11-.55-.22-1.21-.33-1.815-.11-.605-.165-1.265-.275-1.98-.11-.66-.165-1.375-.22-2.035v-.33c-.055-4.015-.165-8.47-.66-12.1.825.55 1.705.99 2.695.99l1.1 5.555.605-2.86c.11 2.86.495 5.72 1.045 8.525-.055-2.365.11-4.73.385-7.095.11 3.41.55 6.82 1.705 8.635.715 1.21 1.595 2.42 3.025 3.52.11.44.275.77.495.99 0 0 .055 0 .055.055.22.605.55 1.21.88 1.76-.11-.495-.11-.99-.11-1.485.11.22.22.385.385.55l.11.11c.22.77.55 1.485.88 2.145-.055-.605-.055-1.21-.055-1.815.11.275.22.44.385.605l.165.165c.22.77.495 1.485.825 2.145a7.202 7.202 0 0 1 0-1.54c.11.275.275.495.44.66.165.165.275.22.495.33.165.55.385 1.1.66 1.595-.055-.495-.055-1.045-.055-1.54a.855.855 0 0 0 .44-.33c.11.33.275.605.495.77.165.165.385.33.605.385.165.495.385.99.605 1.43-.055-.495-.055-.935-.11-1.43.11-.055.22-.11.33-.22.11.33.275.605.495.77.165.165.385.275.605.385.165.715.44 1.43.77 2.09-.11-.66-.11-1.375-.11-2.035.33-.11.55-.495.77-1.045.165.495.385.88.66 1.155.22.22.44.33.66.385.165.605.385 1.155.605 1.705-.055-.55-.055-1.1-.055-1.65.33-.055.605-.495.825-1.1.165.44.385.77.605 1.045.11.11.22.22.33.275.165.825.385 1.595.605 2.42 0-.715.055-1.43.11-2.2h.055c.66 0 1.045-1.155 1.32-2.42.275 1.21.66 2.31 1.21 2.42l.275 2.475.495-2.64a.855.855 0 0 0 .44-.33c.22-.275.44-.605.605-1.045.165.44.385.825.605.99l.33 2.695.55-2.695c.22-.055.44-.22.605-.385.275-.275.495-.66.66-1.155.22.55.44.99.77 1.045l.11 1.54.495-1.65c.22-.055.44-.22.605-.385.22-.22.33-.44.495-.77.055.055.11.11.165.11l.165 2.035.605-2.035c.22-.055.385-.165.55-.33.165-.22.33-.44.495-.77.11.165.275.275.44.33 0 .33.055.715.055 1.045.165-.385.33-.715.44-1.1.22-.055.385-.165.55-.33.165-.165.275-.33.385-.55v1.045c.275-.55.495-1.1.66-1.65.11-.055.22-.165.33-.22.165-.165.33-.44.44-.715h.055c0 .495 0 .99-.055 1.54.275-.55.495-1.1.715-1.705l.165-.165.055-.055c-.055.385-.055.825-.165 1.21.33-.55.66-1.155.88-1.815.11-.055.275-.165.385-.275.055-.055.11-.165.165-.22 2.42-1.265 3.685-2.805 4.62-4.29 1.705-2.805 1.32-9.24.77-13.75.11.055.275.165.44.275-.055 0 .825 6.05.825 6.05l.495-1.925c-.055 2.64.055 5.28.44 7.865.11-1.87.33-3.74.66-5.555-.275 3.74-.165 6.49.11 9.24.055.44.055.88.11 1.32-.11.385-.22.77-.385 1.155-.11.385-.275.77-.385 1.1-.165.33-.275.715-.44 1.045-.165.33-.275.66-.44.935-.11.275-.275.55-.385.77-.11.22-.22.44-.33.605l-.275.55.495-.33c.165-.11.33-.275.55-.44.22-.165.44-.385.605-.66a1.2 1.2 0 0 0 .22-.275c-.825 2.09-2.365 3.85-4.62 5.335 0-.055.055-.11.055-.165.605-1.485.825-2.585.825-2.585s-.66.88-1.54 2.2c-.22.33-.495.66-.715 1.045-.275.385-.55.77-.77 1.21-.11.165-.22.33-.33.55-2.75 3.135-5.115 7.975-7.81 9.955-.275.055-.55.11-.935.165-.385.055-.77.055-1.21.055-.22 0-.44-.055-.66-.055-.22 0-.44-.055-.605-.11-.22-.055-.44-.11-.605-.165-.165-.11-.385-.165-.605-.275-.22-.11-.385-.22-.605-.33-.22-.11-.44-.22-.605-.275-.385-.165-.77-.165-1.045-.165-.11 0-.22.055-.275.055-.055 0-.11.055-.11.055l.33.165c.22.11.44.33.66.55l.055.055c-.605-.11-1.32-.165-2.365-.165-1.485.275-2.31.385-2.915.495Zm37.4-77.165c.22.11.44.22.55.33l.22.11s-.055-.055-.165-.11c-.11-.11-.275-.22-.495-.385-.44-.275-1.1-.715-1.98-1.1-.88-.385-1.925-.77-3.08-.99a19.842 19.842 0 0 0-3.685-.495c-1.265-.055-2.53 0-3.685.055-1.155.055-2.255.22-3.19.33-.935.11-1.705.275-2.255.385l-.825.165s.33 0 .88-.055 1.32-.11 2.255-.165c.935-.055 2.035-.165 3.19-.22a39.945 39.945 0 0 1 3.63 0c1.21.055 2.475.22 3.575.44 1.155.22 2.2.495 3.025.825.88.275 1.54.605 2.035.88Zm-1.76-3.685c-.055-.55-.165-1.1-.22-1.705l.22-.22c1.54.88 2.805 2.035 3.795 3.245.275.275.495.605.715.935-.44-.385-1.705-1.265-4.51-2.255Zm6.765-3.245s-.495-1.705-1.65-3.63C89.65 87.56 81.235 70.29 53.845 70.29c-28.215 0-36.3 18.37-38.555 30.305-.715 1.43-1.045 2.53-1.045 2.53l-.825 9.13c-1.43 2.42-3.74 7.205-3.74 12.98 0 7.095 7.04 8.58 9.02 8.91.055.66.055 1.32 0 1.925-.275 5.61 2.695 7.7 5.28 9.515.55.385 1.1.77 1.595 1.155l.275.22c.495 2.86.715 6.545.825 10.175 0 .495-.055 1.045 0 1.54 0 .44.055.935.055 1.43V168.135c.055 4.73 3.245 6.875 6.325 9.02.77.495 1.54 1.045 2.31 1.65 1.485 1.155 2.915 2.97 4.29 4.785 2.145 2.805 4.235 5.445 6.82 5.94.605.11 1.155.165 1.65.165 1.1 0 1.705-.275 2.31-.55.66-.275 1.375-.66 3.63-.66 2.2 0 2.97.33 3.63.66.55.275 1.21.55 2.31.55.495 0 .99-.055 1.65-.165 2.585-.495 4.62-3.135 6.82-5.94 1.375-1.76 2.805-3.63 4.29-4.785.77-.605 1.54-1.155 2.31-1.65 3.08-2.09 6.215-4.29 6.325-9.02v-3.245c0-5.005-.055-12.815.88-17.985l.275-.22c.495-.385 1.045-.77 1.595-1.155 2.585-1.815 5.555-3.905 5.28-9.515-.055-.66 0-1.32.055-1.98 2.365-.385 8.635-2.145 8.635-8.8 0-5.17-1.87-9.625-3.3-12.21l-.99-9.9ZM58.795 125.29c-.22.715-.33 1.375-.44 1.925-.055.55-.11 1.045-.11 1.43v.55s-.055-.22-.11-.55a5.575 5.575 0 0 1-.055-1.43c0-.605.11-1.32.275-2.035.22-.715.495-1.485.88-2.2.385-.715.88-1.32 1.375-1.87s1.045-.99 1.485-1.375c.44-.385.88-.66 1.155-.88.275-.22.44-.33.44-.33l-.385.385-.99.99c-.44.385-.88.935-1.375 1.43-.495.55-.935 1.155-1.265 1.87-.385.66-.715 1.375-.88 2.09Zm-9.515 1.375c0-.275.055-.66 0-1.1 0-.44-.055-.99-.165-1.595-.11-.55-.385-1.155-.715-1.705-.385-.55-.825-.935-1.265-1.32-.44-.385-.88-.66-1.21-.99-.385-.275-.66-.495-.88-.66-.22-.165-.33-.22-.33-.22s.11.11.275.33c.165.165.44.495.77.77.33.33.715.715 1.155 1.045.44.385.825.825 1.155 1.32.33.495.55.99.715 1.54.165.55.275 1.045.33 1.485.055.44.11.825.165 1.1.055.275.055.44.055.44s-.055-.165-.055-.44Zm11.99 17.655c0 .55-.055 1.1-.11 1.65-.055.495-.165.99-.275 1.375-.11.385-.22.715-.275.99-.11.22-.11.385-.11.385s0-.165.055-.385.055-.605.11-.99.055-.88.11-1.375.055-1.045.055-1.595v-1.595c-.055-.495-.055-.99-.055-1.375-.055-.385-.055-.77-.055-.99 0-.22-.055-.385-.055-.385s.055.11.11.385c.055.22.165.55.275.99.11.385.165.88.22 1.43-.055.385 0 .935 0 1.485Zm-12.045 5.83c.22.22.385.44.55.605.11.165.22.22.22.22s-.11-.055-.275-.165c-.165-.11-.44-.22-.66-.495a5.834 5.834 0 0 1-.825-.825c-.275-.33-.495-.715-.715-1.155-.165-.44-.33-.88-.44-1.265-.11-.44-.11-.825-.11-1.155 0-.33.055-.605.055-.825.055-.22.055-.33.055-.33s0 .11.055.33c0 .22.055.495.11.77.055.33.165.715.275 1.1.11.385.275.77.44 1.155.165.385.385.77.605 1.1.22.385.44.715.66.935Zm-7.095-15.565s-.22.055-.55.165c-.165.055-.385.11-.66.165l-.825.165c-.605.11-1.375.165-2.145.165-.825 0-1.65-.055-2.475-.165-.825-.165-1.65-.33-2.42-.55-.77-.22-1.43-.55-2.035-.825-.275-.11-.55-.275-.77-.385-.22-.11-.44-.22-.55-.33l-.495-.33s.165.11.55.22c.165.055.385.165.605.275.22.11.495.22.77.33.605.22 1.265.44 2.035.66.77.22 1.54.385 2.365.495.825.11 1.65.22 2.42.22s1.485 0 2.145-.055c.33 0 .605-.055.825-.055.275 0 .495-.055.66-.055.33-.055.55-.11.55-.11ZM25.245 121c-.165.77-.22 1.54-.275 2.31-.055.77-.11 1.485-.165 2.2 0 .11-.055.275-.11.385-.33 1.54-.495 3.08-.605 4.62-.055.77-.11 1.54-.11 2.31s0 1.54.22 2.31c0-.77.165-1.485.275-2.255.165-.77.275-1.485.495-2.2.165-.715.33-1.43.55-2.145-.275 2.09-.275 3.905-.165 4.51.22 1.1 2.09 3.245 4.235 4.07a7.305 7.305 0 0 1-1.65-.33 3.84 3.84 0 0 1-1.265-.66c-.275-.22-.44-.385-.44-.385s0 .055.055.11c.055.11.11.22.22.385.22.275.605.66 1.155 1.045.55.33 1.265.605 2.09.715.825.11 1.705.055 2.53-.11.825-.165 1.65-.44 2.365-.66.385-.165.77-.275 1.1-.44 2.09.22 4.62.825 6.82.66-.44.11-.825.22-1.32.275-1.595.275-3.3.275-5.06.33 1.65.55 3.355.88 5.17.825.88-.055 1.815-.165 2.695-.495.55-.22 1.1-.495 1.595-.88-.275.33-.55.66-.88.99-.44.385-.825.77-1.265.99-.22.11-.385.275-.55.33-.165.11-.33.22-.44.275-.275.11-.385.22-.385.22s.165-.055.44-.11c.11-.055.275-.11.495-.165a5.36 5.36 0 0 0 .605-.275c.44-.22.935-.55 1.375-.935.44-.385.935-.88 1.32-1.375.385-.55.715-1.1.99-1.65 0-.055.055-.055.055-.11.22-.33.385-.715.55-1.1.33-.88.55-1.76.66-2.64.22-1.76.11-3.52-.33-5.225-.055.66-.165 1.265-.22 1.925-.165-1.65-.88-3.135-2.145-4.18-1.54-1.265-3.08-2.31-4.675-3.135.55.275 1.045.495 1.595.77 1.375.66 2.75 1.375 4.125 1.98-1.21-.99-2.42-1.87-3.685-2.75-1.265-.88-2.53-1.76-4.015-2.42-.385-.165-.77-.33-1.21-.44-.44-.11-.88-.165-1.375-.165-.66.055-1.375-.055-2.09-.11-1.21-.165-2.53-.385-3.96-.275.33-.11.605-.165.935-.275.935-.22 1.87-.275 2.64-.275.825-.055 1.485-.11 1.925-.11.495-.055.715-.055.715-.055s-.275-.055-.715-.11c-.495-.055-1.155-.165-1.925-.22-.825-.055-1.76-.11-2.805 0-1.045.165-2.145.55-3.08 1.155a7.877 7.877 0 0 0-2.31 2.365c-.22.385-.385.77-.55 1.1 0-.11 0-.22.055-.275.11-.715.275-1.375.55-1.925.22-.55.495-.935.715-1.21l.275-.275.11-.11s-.055 0-.11.055-.165.11-.33.275c-.275.22-.605.605-.935 1.155-.11.385-.385 1.045-.55 1.815Zm5.06 18.315c-.33-.055-.66-.11-.88-.165a2.381 2.381 0 0 1-.605-.22c-.165-.055-.22-.11-.22-.11h1.705c.33 0 .66 0 .99-.055.33 0 .66-.055.99-.055.33-.055.605-.055.88-.11s.495-.055.605-.055h.22s-.055.055-.22.11-.33.165-.605.275c-.275.11-.55.165-.88.22-.33.055-.66.11-1.045.165h-.935Zm50.27-2.365c.22-.22.385-.385.495-.55l.22-.22s-.055.11-.11.275c-.11.165-.22.385-.385.66s-.385.55-.66.825c-.275.275-.605.55-.88.825-.33.22-.715.44-1.045.66-.33.165-.66.33-.99.385-.275.11-.55.165-.715.165-.165.055-.275.055-.275.055s.11-.055.275-.11c.165-.055.385-.22.66-.33.275-.11.55-.33.88-.55.33-.22.66-.44.935-.66.33-.22.605-.495.88-.715.22-.275.495-.495.715-.715Zm-9.57 6.985c-.275.22-.55.44-.825.715-.275.275-.55.605-.825.935-.22.33-.495.715-.66 1.045-.22.33-.33.715-.44.99-.11.275-.165.55-.22.715-.055.165-.055.275-.055.275s.055-.11.165-.22c.11-.165.22-.385.385-.66s.385-.55.55-.88c.22-.33.44-.66.715-.99.22-.33.495-.66.77-.935s.495-.55.715-.77c.22-.22.385-.44.495-.55l.22-.22s-.11.055-.275.165c-.22.055-.495.165-.715.385Zm-31.9.935c.275.33.44.605.55.825l.165.33-.275-.275-.66-.66c-.275-.275-.605-.55-.99-.88-.385-.275-.825-.605-1.265-.88-.44-.275-.88-.495-1.32-.715-.44-.165-.88-.385-1.21-.495-.385-.11-.66-.22-.88-.275-.22-.055-.33-.11-.33-.11h.385c.22 0 .55.055.935.11a4.93 4.93 0 0 1 1.32.385c.44.165.935.44 1.43.715.44.275.88.605 1.265.935.33.33.66.66.88.99Zm7.81 10.065c.055.385.11.715.11 1.1v.935c0 .275-.055.495-.055.66-.055.165-.055.275-.055.275s0-.11-.055-.275c0-.165-.055-.385-.11-.66s-.11-.605-.165-.935c-.055-.33-.11-.715-.165-1.045-.055-.385-.11-.715-.165-1.045-.055-.33-.11-.66-.165-.935-.055-.275-.055-.495-.11-.66 0-.165-.055-.275-.055-.275l.11.22c.055.165.165.33.275.605.11.275.22.55.33.88.11.44.22.77.275 1.155Zm14.465-2.145c.055-.22.165-.385.22-.495a.68.68 0 0 1 .11-.165v.22c0 .11 0 .33-.055.55-.055.22-.055.495-.11.77s-.11.55-.11.88c-.055.275-.11.605-.165.88-.055.275-.11.55-.11.77-.055.22-.11.385-.11.55-.055.11-.055.22-.055.22s0-.055-.055-.22c0-.11-.055-.33-.055-.55 0-.22-.055-.495 0-.77 0-.275.055-.605.055-.88.055-.275.11-.605.165-.88.11-.44.22-.66.275-.88Zm-3.96 28.435c0 .22.055.385.11.495.055.11.055.22.055.22s0-.055.055-.22c0-.11.055-.275.11-.495 0-.22.055-.44.055-.715 0-.275 0-.55.055-.825 0-.275 0-.55-.055-.825 0-.275-.055-.495-.055-.715 0-.22-.055-.385-.11-.495-.055-.11-.055-.22-.055-.22s0 .055-.055.22c0 .11-.055.275-.11.495 0 .22-.055.44-.055.715 0 .275 0 .55-.055.825 0 .275 0 .55.055.825 0 .22 0 .495.055.715Zm-6.765-4.07c-.055-.165-.11-.33-.165-.44a.68.68 0 0 0-.11-.165v3.96s0-.055.055-.165c.055-.11.11-.275.165-.44.055-.165.11-.385.11-.66 0-.22.055-.495.055-.77s-.055-.495-.055-.77c.11-.165 0-.385-.055-.55Zm-1.375.275c-.055-.33-.11-.66-.165-.825-.055-.22-.055-.33-.055-.33v.33c0 .22 0 .495-.055.88 0 .33-.055.77-.055 1.21 0 .44-.055.88-.055 1.375 0 .44-.055.935-.11 1.375-.055.44-.055.825-.11 1.21-.055.33-.055.66-.055.88v.33s.055-.11.11-.33c.055-.22.165-.495.275-.825.11-.33.165-.77.275-1.21.055-.44.11-.935.165-1.375v-1.375c-.055-.55-.11-.99-.165-1.32Zm10.835 3.905c.055.385.165.715.275.99.11.275.165.55.275.715.055.165.11.275.11.275v-.275c0-.165-.055-.44-.055-.715-.055-.275-.055-.66-.11-.99-.055-.385-.055-.77-.11-1.155s-.055-.77-.055-1.155-.055-.715-.055-.99v-.99s-.055.11-.055.275c-.055.165-.11.44-.165.715a5.54 5.54 0 0 0-.11 1.045v1.21c-.055.275 0 .66.055 1.045Zm6.05-34.54c.33-.385.605-.715.825-.935l.33-.33s-.055.165-.22.44c-.11.275-.33.66-.495 1.1-.22.44-.44.99-.715 1.54-.275.55-.495 1.21-.715 1.815-.22.605-.44 1.265-.605 1.815-.22.605-.385 1.155-.495 1.65-.165.495-.275.88-.33 1.21-.055.275-.11.44-.11.44s0-.165-.055-.495c0-.275-.055-.715-.055-1.265.055-.495.11-1.1.22-1.76.165-.66.33-1.32.55-1.98.275-.66.55-1.265.88-1.87.33-.495.66-.99.99-1.375Zm-22.055 4.4c.165.66.33 1.32.44 1.98.055.66.11 1.265.11 1.76 0 .495-.055.935-.055 1.265-.055.275-.055.44-.055.44s-.055-.165-.11-.44-.165-.715-.275-1.21c-.11-.495-.22-1.045-.385-1.65s-.33-1.21-.55-1.87a14.03 14.03 0 0 0-.605-1.815 8.813 8.813 0 0 0-.605-1.595c-.165-.495-.33-.88-.44-1.155a8.883 8.883 0 0 1-.165-.44l.33.33c.165.22.44.55.77.99.275.44.55.935.88 1.54.275.605.495 1.265.715 1.87Zm10.505-11.99c0 .275-.055.55-.11.77 0 .22-.055.385-.11.55-.055.11-.055.22-.055.22s0-.055-.055-.22c0-.11-.055-.33-.055-.55 0-.22-.055-.495-.055-.77v-.88c0-.275.055-.605.055-.88s.055-.55.11-.77c.055-.22.055-.385.11-.55.055-.11.055-.22.055-.22s0 .055.055.22c0 .11.055.33.055.55 0 .22.055.495.055.77v.88c0 .33 0 .605-.055.88Zm-.66 4.07c-.055.495-.22.88-.33 1.155-.11.275-.22.385-.22.385s.055-.165.11-.44.11-.66.165-1.155c0-.495 0-1.045-.055-1.65s-.165-1.265-.22-1.925c-.055-.66-.11-1.32-.11-1.925s0-1.21.055-1.705c.055-.495.11-.88.165-1.21.055-.275.11-.44.11-.44v1.65c0 .495.055 1.045.11 1.65s.11 1.265.22 1.925c.055.66.11 1.32.165 1.925-.055.66-.11 1.265-.165 1.76Zm-2.475-12.54c.22-.055.55 0 .88.165.33.165.66.495.935.715.275.275.55.495.825.55.22.055.495 0 .825-.22.33-.165.605-.44.935-.605.33-.165.66-.22.88-.22.22.055.33.11.33.11s-.11 0-.275.11c-.11.055-.22.11-.33.22.165 0 .33 0 .55.055 1.1.22 1.65 3.96 2.2 7.645v-.22a31.653 31.653 0 0 0-.275-2.695 37.011 37.011 0 0 0-.165-1.925c-.055-.495-.055-.715-.055-.715s.11.275.22.715c.11.44.33 1.1.55 1.87.165.77.385 1.705.55 2.695.165.99.275 2.09.385 3.135.055 1.1.055 2.145.055 3.135-.055.99-.11 1.98-.44 2.805-.33.77-.77 1.32-1.155 1.65-.22.165-.385.22-.495.275-.11.055-.165.11-.165.11s.055-.055.165-.11l.385-.385c.275-.33.605-.935.77-1.65.11-.385.165-.825.165-1.32-.33 1.265-.99 2.09-1.65 2.585l-.22.22c-.165.11-.385.22-.66.33-.275.055-.495.055-.77.055-.495-.11-.825-.33-1.1-.495-.275-.22-.55-.33-.77-.44-.22-.11-.44-.165-.605-.11-.165 0-.275.055-.275.055s.055-.11.22-.22.44-.22.77-.22c.165 0 .275 0 .44.055-.275-.11-.55-.22-.99-.22-2.035 0-1.595 1.76-2.97 1.54a3.1 3.1 0 0 1-.66-.22l.165.165c.55.44 1.155.66 1.54.715h.66s-.055 0-.165.055c-.11.055-.275.11-.495.11-.44.055-1.155-.055-1.87-.44-.715-.44-1.32-1.21-1.76-2.09-.385-.935-.605-1.98-.77-2.97-.11-1.045-.165-2.09-.11-3.025.055-.99.22-1.87.385-2.585.165-.77.385-1.375.55-1.76.165-.44.275-.66.275-.66s-.055.275-.055.715c-.055.44-.11 1.045-.165 1.815-.055.77-.11 1.595-.055 2.585.715-4.345 1.21-10.01 2.64-10.34 1.155-.22.99.55 1.815.935-.11-.11-.165-.165-.22-.275-.22-.385-.44-.66-.605-.88a1.125 1.125 0 0 0-.55-.385c-.165-.055-.275-.055-.275-.055s-.165-.385.055-.44Zm4.895-7.645c-.165.33-.275.495-.275.495v-.605c0-.385.055-.88.165-1.54.055-.33.11-.66.275-.99.11-.33.22-.715.44-1.1.165-.385.385-.77.66-1.1.275-.385.55-.715.935-.99.385-.33.77-.55 1.155-.77.385-.22.77-.33 1.155-.495.77-.275 1.485-.44 2.145-.495 1.265-.165 2.09-.11 2.09-.11l-1.87.935c-.55.275-1.21.55-1.87.88-.33.165-.66.33-.99.55-.33.165-.605.385-.88.605-.275.22-.55.495-.77.77-.22.275-.44.55-.66.88-.165.33-.385.605-.55.88-.165.33-.33.605-.44.88-.275.55-.55.99-.715 1.32Zm-12.925-6.93c.495.165 1.045.33 1.54.495.495.165 1.045.33 1.54.55.495.22.99.44 1.43.66.44.275.825.55 1.155.88.33.33.66.715.88 1.1.275.385.495.77.66 1.155.385.715.715 1.375.935 1.87.22.44.33.715.33.715s0-.275-.055-.825a10.964 10.964 0 0 0-.44-2.09c-.11-.44-.275-.88-.495-1.375-.22-.495-.495-.99-.88-1.43-.385-.44-.825-.88-1.375-1.21-.55-.33-1.1-.605-1.65-.825-.55-.22-1.1-.385-1.705-.55-.55-.165-1.1-.275-1.65-.385-1.1-.22-2.09-.33-2.915-.44-1.705-.22-2.915-.22-2.915-.22s1.045.495 2.695 1.045c.88.275 1.87.55 2.915.88Zm17.49 7.865c1.43-.605 2.805-1.32 4.125-1.98.55-.275 1.045-.55 1.595-.77a31.552 31.552 0 0 0-4.675 3.135c-1.265 1.045-1.98 2.475-2.145 4.18-.11-.605-.165-1.265-.22-1.925-.385 1.705-.55 3.465-.33 5.225.11.88.33 1.76.66 2.64.165.44.385.88.66 1.32.055.165.11.33.22.495.33.55.66 1.1 1.045 1.54.385.44.825.825 1.21 1.1.165.165.385.275.55.385.165.11.33.165.44.22.275.11.385.165.385.165s-.11-.11-.33-.275c-.11-.055-.22-.165-.385-.33-.165-.11-.33-.275-.495-.44-.33-.33-.66-.715-1.045-1.155-.055-.055-.055-.11-.11-.11.55.385 1.1.715 1.76.935a7.77 7.77 0 0 0 2.695.495c1.815.055 3.52-.275 5.17-.825-1.76-.055-3.465-.055-5.06-.33-.44-.055-.88-.165-1.32-.275 3.465.275 7.7-1.43 9.845-.385.33.165.715.275 1.1.33l-.825.165c-.44.11-.88.11-1.155.165-.275.055-.44.055-.44.055s.165.055.44.165c.275.055.715.165 1.21.22.495 0 1.1 0 1.76-.165a8.959 8.959 0 0 0 1.87-.77 7.217 7.217 0 0 0 1.54-1.32c.11-.11.165-.22.275-.33.935-.88 1.65-1.87 1.76-2.475.11-.605.11-2.42-.165-4.51.165.715.385 1.43.55 2.145.165.715.33 1.485.495 2.2.11.77.275 1.485.275 2.255.22-.77.22-1.54.22-2.31s-.055-1.54-.11-2.31c-.11-1.54-.33-3.08-.605-4.62a9.58 9.58 0 0 0-.275-1.21v-.385c-.055-.99-.22-1.98-.385-2.86a8.49 8.49 0 0 0-.935-2.365 6.81 6.81 0 0 0-1.1-1.43c-.165-.165-.275-.275-.385-.33-.11-.055-.11-.11-.11-.11l.11.11c.055.11.22.22.33.385.275.33.605.825.935 1.485.33.66.55 1.485.77 2.365.055.165.055.33.11.495a6.949 6.949 0 0 0-.825-1.87c-.55-.825-1.265-1.65-2.145-2.31-.88-.605-1.925-.99-2.915-1.21a11.495 11.495 0 0 0-2.695-.11c-.77.055-1.43.22-1.87.275-.44.11-.715.165-.715.165s.275 0 .715.055c.44 0 1.1 0 1.815.055.77.055 1.65.11 2.475.385l.99.33c-1.43-.11-2.75.11-4.015.275-.77.11-1.43.165-2.09.11-.495-.055-.99.055-1.375.165-.44.11-.825.275-1.21.44-1.485.66-2.75 1.54-4.015 2.42-1.21.825-2.42 1.76-3.63 2.75Z" fill="#9C9C9C"/><path fill-rule="evenodd" clip-rule="evenodd" d="M107.14 108.625c.11.11.22.22.385.275.44.275.77.605.99 1.045.275.44.275.935.275 1.43v1.045c.055.44.055.935 0 1.375 0 .44-.055.88-.055 1.32V120.67c0 .44-.055.825-.22 1.265-.165.385-.44.715-.77.99-.88.825-1.705 1.65-2.53 2.53-.275.275-.66.55-1.045.77-.44.22-.935.385-1.485.44-.495.055-.935.055-1.43.11-.495.055-.935.11-1.43.11-1.925.165-3.85.275-5.775.385h-1.21c-.715 0-1.375-.22-1.87-.605-.495-.44-.66-.99-.66-1.54v-4.62c0-.77 0-1.595-.055-2.365v-13.31c0-.88.055-1.76.055-2.64v-1.595c0-.55-.055-1.045-.055-1.595v-2.31c0-.55.22-1.1.715-1.54.495-.385 1.155-.55 1.76-.55 2.255 0 4.565-.22 6.82-.385.44-.055.935-.055 1.375-.11.385 0 .77-.055 1.21-.11a3.635 3.635 0 0 1 1.54 0c.495.11.935.33 1.32.605.44.33.88.605 1.32.935.44.33.88.605 1.32.935.44.275.77.66.935 1.1.165.385.22.77.22 1.155V106.205c0 .385-.11.77-.33 1.1-.385.605-.11.22-.605.715l-.495.495c-.165 0-.22.055-.22.11Zm3.465-14.135v-.275c.055-.44.33-.825.66-1.155.385-.33.825-.55 1.375-.66 1.045-.165 2.09-.33 3.08-.55.715-.165 1.43-.055 2.035.33.55.385.825.935.825 1.54v13.64c0 .495-.055.935 0 1.43v2.75c0 .495.055.99.055 1.43v9.185c0 .495-.165.99-.495 1.43-.385.44-.99.77-1.65.88-1.045.22-2.09.385-3.135.55-.715.11-1.43 0-1.925-.44-.495-.385-.77-.935-.77-1.485V94.875c-.055-.275-.11-.11-.055-.385Zm18.315.495c.11-.275.275-.55.385-.88l.99-2.145c.385-.825.77-1.705 1.155-2.53.22-.44.495-.825.88-1.1.385-.33.88-.55 1.375-.66l3.135-.825c.495-.11.385-.11.715-.11.715 0 .825 0 1.375.385.66.44.605.66.66.88.165.55.11.605-.11 1.1-.44.88-.825 1.76-1.265 2.695-.44.88-.88 1.76-1.265 2.695l-.99 2.145c-.33.715-.66 1.43-1.045 2.2-.165.33-.33.66-.495 1.045-.165.33-.33.715-.55 1.045-.055.165-.165.33-.165.495 0 .11 0 .22.055.33.88 2.255 1.705 4.565 2.585 6.82.385 1.045.825 2.09 1.21 3.135s.77 2.145 1.21 3.19c.11.33.275.605.385.935.11.33.275.605.385.935.22.605.165 1.21-.22 1.705-.33.44-.825.77-1.485.935-1.155.33-2.255.605-3.41.88-.66.165-1.32.11-1.925-.22-.495-.275-.825-.66-.99-1.1a60.979 60.979 0 0 1-1.1-2.86c-.33-.935-.66-1.925-1.045-2.86-.165-.495-.385-.99-.55-1.485 0 .11-.055.22 0 .33.055.605 0 1.155 0 1.76v1.705c0 .55 0 1.1.055 1.65 0 .605 0 1.155-.055 1.76v.385c0 .165.055.385.055.55 0 .55-.165 1.045-.55 1.485-.385.44-.935.715-1.54.825l-1.32.33c-.385.11-.825.22-1.21.33-.22.055-.385.11-.605.165-.66.11-1.32.055-1.87-.275a1.856 1.856 0 0 1-.88-1.595v-3.795c0-.88 0-1.815-.055-2.695v-6.6c0-1.265.055-2.53.055-3.795V92.565c.055-.55.165-.99.605-1.43.385-.385.935-.66 1.485-.77.99-.22 1.98-.44 2.97-.715.715-.165 1.485-.165 2.09.22.66.385.825.99.825 1.65.055 1.155.055 2.31.055 3.465Zm18.81-4.29c.165-.055.33-.055.495-.11.66-.165 1.32-.385 1.98-.55l1.98-.495 1.32-.33 1.155-.33c.66-.165 1.21-.44 1.595-.88.33-.44.495-.935.44-1.485V84.37c0-.66-.22-1.265-.825-1.65-.66-.44-1.485-.385-2.255-.22-1.045.275-2.145.55-3.19.825-1.045.275-2.09.495-3.135.77-1.815.495-3.63.99-5.445 1.43-.55.165-1.045.385-1.43.77a1.91 1.91 0 0 0-.55 1.375v1.705c0 .605-.055 1.21-.055 1.815 0 .495 0 .935.055 1.43 0 .44.055.88 0 1.32v1.595c0 .495.055.99 0 1.485v5.28c0 .495-.055 1.045-.055 1.54 0 .77 0 1.485.055 2.255v8.47c0 .495 0 1.045-.055 1.54-.055.66.275 1.32.935 1.705s1.43.385 2.145.165c1.925-.495 3.85-.99 5.775-1.54.935-.275 1.925-.495 2.86-.715.99-.22 1.925-.495 2.915-.77.715-.165 1.375-.44 1.815-.99.44-.495.55-1.1.495-1.705v-2.145c0-.605-.33-1.155-.88-1.54-.605-.385-1.375-.385-2.09-.22-1.98.495-3.96.99-5.94 1.54V102.795c.11-.055.22-.11.275-.11.11-.055.275-.055.44-.11.275-.055.495-.11.77-.165l.66-.165c.33-.11.66-.165.99-.275.385-.11.77-.22 1.1-.275.605-.11 1.21-.385 1.595-.77.44-.44.605-.935.605-1.485 0-.385.055-.825.055-1.265 0-.385 0-.825-.055-1.21-.055-.605-.275-1.21-.88-1.54-.66-.44-1.375-.385-2.145-.22s-1.54.33-2.31.55c-.385.11-.825.22-1.21.33v-5.39Zm26.18 7.095c.33 1.265.605 2.53.935 3.795.33 1.265.605 2.53.935 3.85.11.44.22.935.33 1.375.11.495.275.935.385 1.43.11.605 0 1.155-.44 1.65-.385.44-.935.715-1.595.825-1.045.165-2.09.385-3.135.55-.66.11-1.375.055-1.98-.275-.55-.33-.88-.825-1.045-1.375-.165-.66-.33-1.375-.495-2.09-.165-.715-.33-1.375-.495-2.09-.385-1.485-.77-2.97-1.1-4.455v8.855c0 .275 0 .495-.055.77 0 .44-.165.88-.495 1.265-.385.385-.88.66-1.485.825-1.045.22-2.09.495-3.08.715-.77.165-1.595.055-2.2-.385-.495-.385-.77-.99-.715-1.54 0-.385.055-.77 0-1.1 0-.44-.055-.825 0-1.265 0-.88.055-1.76 0-2.695v-22.55c0-.275.055-.55.055-.825 0-.495.165-.935.495-1.32.385-.495.99-.77 1.65-.935 3.19-.715 6.38-1.43 9.625-2.09.55-.11 1.045-.11 1.595 0s.99.275 1.43.55c.385.275.715.495 1.1.77.33.22.715.495 1.1.715.44.275.825.605 1.1 1.045.275.495.385.99.385 1.485V93.775c-.055.66.11.22-.22.99-.165.385-.44.715-.715.99-.275.275-.55.55-.825.88l-.99.99c0 .11 0 .165-.055.165 0 0 .055 0 0 0Zm5.775 9.24c-.11-.055-.165-.11-.275-.165-.055-.055-.165-.11-.22-.165-.385-.275-.22-.055-.605-.55a2.214 2.214 0 0 1-.495-1.1V103.785a11.25 11.25 0 0 0 0-1.925c0-.66-.055-1.32-.055-1.98 0-.55.165-1.045.55-1.485.385-.44.99-.715 1.65-.825.55-.11 1.1-.165 1.65-.22.495-.055.99-.11 1.54-.165a2.6 2.6 0 0 1 1.925.44c.495.385.715.88.77 1.43v2.915c0 .22 0 .385.055.66.385 0 .715-.055 1.1-.11.385-.055.825-.055 1.21-.055h.055l.165-.165v-2.86c-.055-.055-.11-.165-.165-.22-.385-.33-.715-.66-1.1-.99-.385-.385-.825-.715-1.155-1.1l-1.21-1.21c-.385-.385-.825-.77-1.265-1.155-.715-.66-1.375-1.32-2.09-1.98l-2.145-1.98c-.22-.165-.385-.385-.55-.55-.605-.605-.385-.33-.605-.88-.275-.605-.165-.275-.165-.935v-2.915c0-.935-.055-1.87-.055-2.805 0-.495.11-.99.33-1.43.22-.44.495-.77.88-1.155.44-.385.825-.77 1.265-1.155.44-.44.88-.825 1.265-1.265.605-.605.22-.275.935-.66.44-.22.88-.33 1.375-.385 1.045-.055 2.09-.165 3.135-.22 1.045-.11 2.09-.165 3.19-.275.88-.055.605-.055 1.265.165.44.11.77.33 1.1.605.495.385.99.825 1.485 1.21.495.385.99.825 1.485 1.21.33.275.605.605.715.99.275.605.22.275.165 1.045a27.75 27.75 0 0 0 0 3.025v1.87c0 .55-.22 1.1-.66 1.485-.44.385-1.1.605-1.76.605h-3.19c-.55 0-1.1-.165-1.54-.44a1.839 1.839 0 0 1-.825-1.375c-.055-.385 0-.715 0-1.1v-2.475c-.385 0-.77.055-1.1.055-.385 0-.825.055-1.21.11h-.055c-.055 0-.055.055-.11.11 0 0-.055.055-.055.11v2.75l.77.77c.22.22.495.495.77.715l1.65 1.65c.55.55 1.1 1.045 1.65 1.595.825.77 1.595 1.54 2.42 2.365l1.32 1.32c.44.44.88.935 1.32 1.375.275.275.495.605.605.99.11.385.165.77.11 1.155-.055.385-.055.77 0 1.1.055.495.055.99 0 1.485v3.19c0 .385-.11.77-.275 1.1-.33.55 0 .22-.605.77-.495.44-.99.88-1.485 1.265-.495.385-.99.825-1.43 1.21-.66.55-.385.33-.99.55-.385.165-.77.22-1.21.22-.495 0-.99.055-1.485.055h-.165l-1.43.11c-1.045.055-2.145.165-3.245.22-.44 0-.88-.055-1.32-.165-.605-.165-.33 0-.99-.44-.99-.55-1.76-1.155-2.585-1.705Zm-79.255 44.275c0-.44-.055-.935-.055-1.375.055-.495.055-.99.055-1.43 0-1.155-.055-2.365-.055-3.52V137.225c0-.11.055-.275.165-.33.11-.165.275-.33.495-.44.11-.055.275-.165.385-.165.605-.055 1.21-.11 1.87-.165.605-.055 1.21-.165 1.815-.22.11 0 .22 0 .33.055.11.055.165.055.275.165.055.055.055.22.055.275V139.095a8.83 8.83 0 0 1 0 1.705v1.815c0 .66.275 1.32.935 1.76.66.44 1.485.55 2.255.44l2.145-.33c.77-.11 1.485-.275 2.255-.385.77-.165 1.485-.44 1.98-.935.495-.495.66-1.155.66-1.815 0-2.805-.055-5.61 0-8.36 0-.55-.055-1.045-.33-1.54a2.917 2.917 0 0 0-1.155-1.155c-1.265-.825-2.53-1.65-3.795-2.53-.44-.33-.99-.55-1.595-.66-.55-.11-1.1-.11-1.705-.055-1.485.22-3.025.385-4.51.55a59.177 59.177 0 0 1-4.4.33c-.605.055-1.155.165-1.65.385-.495.22-.88.495-1.265.825-.66.55-1.32 1.155-1.98 1.705-.605.55-1.265 1.045-1.925 1.595-.495.385-.825.825-1.1 1.375-.275.495-.385 1.1-.385 1.65 0 1.375.055 2.805 0 4.18v17.38c0 1.76.055 3.52.055 5.225 0 1.76 0 3.52.055 5.28 0 .55.11 1.155.385 1.705s.66.99 1.155 1.375c.605.495 1.265.99 1.87 1.54.605.495 1.265.99 1.925 1.485.385.33.88.55 1.375.715.55.165 1.1.165 1.705.11.935-.055 1.87-.11 2.805-.22 1.045-.11 2.035-.22 3.08-.33.935-.11 1.925-.275 2.915-.33.66-.055 1.32-.22 1.87-.495s1.045-.605 1.43-1.045c.715-.715 1.43-1.375 2.09-2.09.66-.66 1.32-1.375 2.035-2.035.385-.385.66-.825.88-1.32.165-.44.275-.935.22-1.375 0-.385-.055-.825 0-1.21v-7.205c0-.715-.275-1.485-1.045-1.87-.66-.33-1.375-.44-2.145-.33-.77.11-1.595.22-2.365.385-.715.11-1.43.275-2.145.385-1.54.22-2.53 1.155-2.53 2.475v6.38c0 .11-.11.275-.165.385-.11.22-.33.385-.495.495-.11.055-.165.11-.275.11-.66.055-1.265.165-1.925.275-.605.055-1.21.165-1.815.275-.055 0-.165-.055-.22-.055-.11-.055-.22-.165-.33-.275-.055-.055-.055-.165-.055-.22a9.402 9.402 0 0 0 0-1.76v-1.65c0-.825-.055-1.595-.055-2.42V154.11c-.165-.99-.055-1.925-.055-2.805Zm29.645 9.075v-35.2c0-.66-.22-1.32-.825-1.76-.66-.495-1.54-.55-2.42-.385-1.595.385-3.135.715-4.73 1.1-.605.165-1.155.44-1.595.88-.44.44-.66.99-.715 1.595v41.8c0 .77.33 1.43 1.1 1.87.77.44 1.65.495 2.475.22.275-.11.605-.22.935-.275.385-.055.825-.165 1.21-.22a278.756 278.756 0 0 0 6.49-1.595c1.21-.33 2.365-.605 3.575-.935 1.21-.33 2.42-.605 3.575-.935.715-.22 1.375-.55 1.815-1.045.44-.495.605-1.1.605-1.705v-3.465c0-.715-.33-1.43-1.1-1.815-.715-.385-1.595-.44-2.42-.22-2.64.66-5.28 1.375-7.975 2.09Zm14.85.605c-.495-.22-.99-.55-1.32-.935-.385-.495-.66-1.045-.715-1.595a14.494 14.494 0 0 1-.11-1.54c0-.825.055-1.595.055-2.42V121c0-.66.22-1.32.715-1.815.495-.495 1.155-.77 1.87-.935.66-.165 1.32-.385 2.035-.55.715-.22 1.43-.385 2.09-.55.935-.22 1.87-.275 2.64.275.66.495.825 1.21.825 1.87 0 1.595 0 3.19.055 4.785 0 1.595.055 3.245.055 4.84v12.375c0 1.265 0 2.475-.055 3.74 0 1.21-.055 2.42-.055 3.685v2.64c0 .88.055 1.76.055 2.585 0 .055 0 .275.055.385.165 0 .495-.055.605-.11.495-.11.99-.22 1.43-.385l1.485-.33c.33-.055.605-.22.88-.385.33-.275.605-.55.825-.935v-.165c0-1.65-.055-3.3-.055-4.95 0-1.65 0-3.3-.055-4.95v-25.08c0-.66.165-1.32.715-1.87.495-.495 1.21-.77 1.925-.935 1.43-.33 2.86-.66 4.345-.99.825-.165 1.705-.11 2.365.33.66.44.935 1.1.935 1.76V152.845c0 .44-.055.88-.33 1.32-.165.33-.44.605-.715.935a104.647 104.647 0 0 0-3.41 3.575c-.22.22-.385.44-.605.66-.165.11-.275.275-.44.44-.275.33-.66.605-1.045.825-.88.44-.275.22-1.155.44-3.135.77-6.325 1.54-9.46 2.31-.55.165-1.155.22-1.76.055-.44-.055-.88-.275-1.265-.44-.55-.275-1.1-.605-1.65-.88-.495-.275-.99-.55-1.54-.825l-.22-.275Zm51.425-29.755c.165-.165.385-.33.55-.495.22-.22.495-.495.77-.715.33-.275.66-.55.88-.88.275-.44.44-.88.44-1.375 0-.88.055-1.815.055-2.695 0-.88 0-1.76.055-2.64 0-.935 0-1.87-.055-2.805 0-.935-.055-1.815-.055-2.75 0-.495-.055-.99-.275-1.43-.22-.55-.605-.99-1.1-1.375-.66-.55-1.265-1.045-1.925-1.595-.66-.55-1.32-1.045-1.98-1.54-.44-.33-.88-.66-1.43-.825-.66-.22-1.32-.275-2.035-.22l-1.98.165c-.715.055-1.375.055-2.09.11-3.465.275-6.875.715-10.34 1.21-.77.11-1.485.385-1.98.88-.495.495-.715 1.1-.77 1.76v3.41c0 .77.055 1.54.055 2.31v2.365c0 1.32 0 2.585-.055 3.905 0 1.32-.055 2.585-.055 3.905V141.955c0 1.155 0 2.31.055 3.465 0 1.155.055 2.31.055 3.465v6.765c0 .715.22 1.43.935 1.87.715.44 1.595.495 2.365.33.495-.11 1.045-.165 1.54-.22 2.805-.33 5.555-.715 8.36-.935.715-.055 1.43-.11 2.09-.165.66-.055 1.32-.11 1.98-.11.66 0 1.265-.11 1.815-.33.55-.22 1.045-.495 1.485-.88 1.265-1.045 2.475-2.145 3.74-3.19.44-.385.825-.77 1.1-1.265.275-.495.33-1.045.33-1.595-.055-1.98 0-4.015 0-5.995v-2.145c0-.66 0-1.32.055-1.98.055-.66 0-1.32-.055-1.98-.055-.55-.055-1.045-.055-1.595.055-.605 0-1.21-.275-1.815-.275-.55-.715-.935-1.155-1.375-.275-.22-.495-.44-.77-.66 0-.11-.165-.275-.275-.385Zm-95.59-28.27v-2.31c-.11.055-.055.055-.55.055-.165 0-.385 0-.55.055-.495 0-.99.055-1.43.055V106.15c.22 0 .44-.055.715-.055.495-.055 1.045-.055 1.595-.055l.165-.165c0-.055.055-.11.055-.165v-2.75Zm-2.53 17.38c.275 0 .495-.055.77-.055.55-.055 1.045-.055 1.54-.11.055-.055.165-.11.22-.165.055-.055.055-.055 0-.11V112.475c-.495 0-.99.055-1.485.11-.33.055-.715.055-1.045.11v7.645Zm68.035-26.29c.165-.055.275-.055.44-.11.55-.11 1.1-.275 1.705-.385.055 0 .055-.055.11-.055a.663.663 0 0 0 .275-.275c0-.055.055-.055.055-.11V85.69c-.44.11-.825.165-1.265.275-.385.055-.825.165-1.265.275v4.235c-.055 1.155-.055 2.365-.055 3.575Zm22.495 28.325v3.96c0 .165-.055.33-.165.44a2.1 2.1 0 0 1-.495.495.887.887 0 0 1-.495.165c-.77 0-1.54 0-2.255.11-.605.055-1.21.11-1.87.165v-8.91c.935-.165 1.925-.22 2.86-.22.275 0 .495-.055.77-.055.33 0 .66-.055.99-.165.055 0 .055.055.11.055.165.055.33.165.495.33l.11.11v1.87c-.11.495-.11 1.1-.055 1.65Zm-5.28 26.07V135.96c.715-.11 1.485-.165 2.2-.22l2.31-.165c.165 0 .385 0 .55.11.165.11.22.22.22.385v9.9c0 .385-.055.77 0 1.1 0 .22 0 .33-.165.495-.165.22-.44.385-.715.495-.825 0-1.65.055-2.42.165-.66.11-1.32.165-1.98.22Z" fill="#9C9C9C"/><path fill-rule="evenodd" clip-rule="evenodd" d="M91.795 110.935v-3.465c0-1.76.055-3.52.055-5.28 0-1.045 0-2.145-.055-3.19 0-.77-.055-1.54 0-2.31 0-.55.33-.77.99-.77 2.31-.055 4.62-.22 6.93-.385.935-.055 1.815-.055 2.75-.22.605-.11 1.045.055 1.43.33l2.64 1.815c.44.33.605.715.605 1.21 0 1.265.055 2.53.055 3.795 0 1.21 0 2.475-.055 3.685 0 .385-.22.66-.55.935-.44.385-.825.88-1.21 1.265-.33.33-.33.605.055.825.385.22.715.495 1.045.77.495.33.715.715.66 1.375-.055.825.11 1.595.055 2.42-.055.935 0 1.925-.055 2.86 0 1.375-.055 2.75 0 4.125 0 .55-.22.99-.66 1.375-.88.825-1.705 1.705-2.53 2.53-.385.385-.88.66-1.485.715-.935.11-1.87.165-2.805.22-1.925.165-3.795.275-5.72.385h-1.1c-.715 0-.935-.22-.935-.825v-4.62c0-1.595-.055-3.19-.055-4.785-.055-1.595-.055-3.19-.055-4.785Zm10.56-7.975v-2.475c0-.66-1.045-1.375-1.76-1.155-.33.11-.715.11-.99.11-.715 0-1.485.055-2.2.165-.44.055-.77.33-.77.66-.055 1.21 0 2.365 0 3.575v2.915c0 .605.22.88.99.825.99-.055 1.98-.165 2.915-.165 1.1 0 1.815-.99 1.815-1.705v-2.75Zm-5.72 13.695v4.455c0 .44.33.66.88.605 1.155-.055 2.255-.22 3.355-.22h.11c.935-.33 1.485-1.045 1.375-1.705-.055-.22 0-.44 0-.66v-6.765c0-.77-.715-1.265-1.65-1.21-1.1.055-2.2.165-3.3.22-.33 0-.55.165-.715.385-.22.33-.11.605-.11.88.055 1.32.055 2.695.055 4.015ZM116.985 101.2c0 2.035.055 4.07 0 6.16 0 .99 0 1.925-.055 2.86-.055.935.055 1.815.055 2.75-.055 1.815 0 3.575 0 5.335v3.905c0 .55-.275.88-.935 1.045-1.045.22-2.09.385-3.08.55-.44.055-.77-.11-.77-.605v-11.715c-.055-1.925 0-3.795 0-5.665 0-1.375.055-2.75.055-4.125 0-1.54-.055-3.08-.055-4.62v-2.2c0-.165 0-.33.055-.495.055-.33.385-.605.77-.715 1.045-.165 2.09-.385 3.135-.55.55-.11.825.11.88.605.055.935 0 1.815 0 2.695-.055 1.595-.055 3.19-.055 4.785ZM127.27 96.195c0 1.54 0 3.135.055 4.675 0 .11-.11.275.11.275a.5.5 0 0 0 .44-.22c.165-.165.165-.385.275-.605.55-1.155 1.1-2.365 1.65-3.575.66-1.43 1.32-2.86 1.925-4.29.385-.825.77-1.65 1.155-2.53.22-.495.66-.825 1.21-.99 1.045-.275 2.145-.55 3.19-.825.22-.055.44-.11.605.055.165.11.165.22.11.44a237.367 237.367 0 0 0-2.53 5.39c-.66 1.43-1.32 2.86-1.98 4.345-.33.66-.66 1.32-.99 2.035-.33.66-.33 1.21-.165 1.76.88 2.31 1.705 4.565 2.585 6.875.825 2.09 1.595 4.18 2.42 6.325.22.605.495 1.265.77 1.87.165.385-.11.825-.66.99-1.1.275-2.255.605-3.355.88-.44.11-.77-.055-.935-.44-.385-.935-.77-1.87-1.1-2.86-.715-1.925-1.375-3.85-2.09-5.775-.165-.44-.33-.88-.495-1.375-.055-.165-.055-.33-.33-.33-.33.055-.44.22-.55.44-.33.66-.66 1.32-.935 1.98-.22.495-.33.99-.33 1.43.055 1.1 0 2.255 0 3.41 0 1.1.11 2.2 0 3.3-.055.385 0 .715.055 1.1 0 .495-.33.825-.935.99l-2.64.66c-.11.055-.22.055-.385.11-.605.11-.88-.055-.88-.55v-3.795c0-1.815-.055-3.63-.055-5.445 0-2.585.055-5.115.055-7.59 0-1.76-.055-3.52 0-5.335v-4.4c0-.66-.055-1.265 0-1.925 0-.55.33-.825.935-.99.99-.22 1.98-.44 2.97-.715.66-.165.935 0 .935.605-.11 1.485-.11 3.025-.11 4.62ZM148.115 115.335l-5.775 1.485c-.66.165-1.045 0-.99-.55.055-1.1.055-2.145.055-3.245.055-1.54 0-3.08 0-4.675 0-1.485-.055-2.97-.055-4.455 0-.99.055-2.035.055-3.025 0-1.265-.055-2.475 0-3.795 0-1.045-.055-2.035 0-3.08 0-.935-.055-1.87-.055-2.805 0-1.21.055-2.365.055-3.52 0-.495.275-.77.88-.935 1.815-.495 3.63-.99 5.445-1.43 2.09-.55 4.18-1.1 6.325-1.65.825-.22 1.045-.055 1.045.66 0 .77-.055 1.485 0 2.2.055.495-.275.88-.88.99-.825.165-1.705.495-2.53.66-1.32.275-2.64.66-3.96 1.045-.275.055-.495.11-.715.165-.55.165-.88.44-.88.935V97.075c0 .605.275.825 1.045.605a61.547 61.547 0 0 1 4.565-1.155c.715-.165.935-.055.99.55.055.715.055 1.54 0 2.31-.055.66-.275.88-1.045 1.045-.77.165-1.54.385-2.255.55a9.58 9.58 0 0 1-1.21.275c-.385.055-.825.165-1.155.33-.66.275-.825.495-.825 1.045v8.195c0 .605.275.77.99.55 2.31-.605 4.675-1.21 6.985-1.815.605-.165.88 0 .935.55 0 .715-.055 1.485 0 2.2.055.715-.22 1.1-1.155 1.32-2.035.66-4.015 1.21-5.885 1.705ZM164.67 105.49v3.63c0 .495 0 .935-.055 1.43 0 .44-.275.715-.77.825-1.045.22-2.09.495-3.135.715-.605.165-.88-.11-.88-.605.055-.825 0-1.595 0-2.42.055-1.815 0-3.63 0-5.445V84.59c0-.55 0-1.045.055-1.595 0-.44.22-.825.935-.99 3.19-.715 6.38-1.43 9.57-2.035.66-.11 1.21 0 1.65.275.715.495 1.485 1.045 2.255 1.54.55.33.88.77.88 1.43 0 2.585.055 5.06 0 7.645 0 .935.055 1.925 0 2.86 0 .44-.165.825-.55 1.155-.66.605-1.21 1.265-1.87 1.87-.33.33-.495.715-.385 1.155.605 2.53 1.21 5.115 1.87 7.645.22.935.55 1.87.715 2.805.11.495-.165.825-.77.935-1.045.165-2.09.385-3.135.55-.66.11-.935-.055-1.1-.55-.385-1.375-.66-2.75-.99-4.125-.44-1.815-.935-3.63-1.375-5.5-.11-.495-.495-.66-1.155-.55-.33.11-.66.165-.99.275-.495.11-.77.44-.77.825v5.28Zm0-15.015v4.565c0 .44.33.66.825.55 1.1-.22 2.2-.495 3.245-.715.77-.165 1.705-.935 1.705-1.815-.055-.77 0-1.595 0-2.42 0-1.76-.055-3.52 0-5.335 0-.66-.88-1.265-1.705-1.045-.99.275-2.035.44-3.08.66-.605.11-.935.44-.935.99-.055 1.54-.055 3.025-.055 4.565ZM187.44 107.8c-1.045.055-2.145.165-3.19.22-.44.055-.825-.11-1.155-.33-.825-.55-1.595-1.155-2.42-1.76-.11-.055-.22-.11-.385-.22-.275-.165-.55-.44-.55-.77v-1.155c.055-1.32 0-2.695-.055-4.015 0-.55.275-.825.935-.935.99-.165 2.035-.22 3.08-.385.495-.055.825.165.825.605.055.935 0 1.925 0 2.86v.66c.055.825.77 1.375 1.705 1.32.77-.055 1.54-.11 2.365-.165.825-.055 1.65-.825 1.65-1.43 0-.99-.055-1.98 0-2.97 0-.44-.33-.715-.605-.99-.715-.715-1.54-1.375-2.255-2.09-.825-.825-1.65-1.65-2.53-2.42a140.57 140.57 0 0 0-4.29-3.96c-.165-.165-.385-.33-.55-.495a1.206 1.206 0 0 1-.385-.935c0-1.925 0-3.85-.055-5.775 0-.605.275-1.155.77-1.65.88-.825 1.705-1.65 2.53-2.475.33-.33.715-.55 1.21-.55 2.09-.165 4.18-.385 6.27-.495.385 0 .77.11 1.1.385.99.825 1.98 1.595 3.025 2.475.33.275.44.605.44.99-.055 1.045 0 2.09 0 3.08v1.87c0 .44-.33.715-.88.715h-3.19c-.385 0-.715-.165-.77-.605-.055-.66 0-1.265 0-1.87v-1.87c0-.605-.715-1.21-1.485-1.1-.88.055-1.76.11-2.695.22-.935.11-1.54.825-1.54 1.54v2.64c0 .385.165.715.385.935.495.495 1.045.99 1.485 1.43 1.1 1.1 2.2 2.2 3.355 3.245.77.715 1.595 1.54 2.365 2.31.88.88 1.705 1.76 2.53 2.64.33.33.44.715.385 1.155-.11.88.055 1.76 0 2.695-.055 1.045 0 2.2 0 3.245 0 .44-.22.715-.495.99-.935.88-1.87 1.705-2.86 2.475-.275.22-.715.385-1.155.385-.825.11-1.87.22-2.915.33 0 0 0-.055 0 0ZM98.835 151.25c0 1.815-.055 3.685-.055 5.61 0 1.595 0 3.245.055 4.84 0 1.1.11 2.255 0 3.3-.11.99 1.155 2.145 2.42 1.98 1.21-.165 2.475-.385 3.685-.495 1.155-.11 2.365-1.375 2.365-2.31v-6.38c0-.66.385-1.045 1.21-1.155 1.485-.22 2.97-.55 4.51-.77.88-.11 1.32.11 1.32.88v5.885c0 .825-.055 1.76 0 2.585.055.66-.22 1.265-.715 1.815-1.32 1.375-2.695 2.75-4.07 4.125a3.481 3.481 0 0 1-2.31 1.045c-1.925.165-3.96.495-5.995.66-.935.11-1.87.11-2.805.22-.715.055-1.32-.11-1.815-.495-1.265-.99-2.53-1.98-3.74-2.97-.77-.605-1.045-1.21-1.1-2.145-.055-3.52-.055-7.04-.055-10.56-.055-4.345 0-8.69 0-13.09 0-2.86.055-5.665 0-8.47 0-.825.33-1.54.99-2.09 1.265-1.1 2.585-2.145 3.905-3.355.495-.44 1.155-.77 1.87-.825 3.025-.165 6.05-.55 9.075-.935.825-.11 1.43.055 2.035.44 1.265.88 2.53 1.65 3.795 2.53.605.385.88.88.88 1.65-.055 2.805 0 5.61 0 8.36 0 .825-.44 1.265-1.43 1.485-1.485.275-2.86.495-4.29.77-.825.11-1.265-.22-1.265-.88 0-1.21.055-2.42 0-3.63-.055-.825 0-1.76 0-2.64.055-1.265-1.32-1.98-2.53-1.76-1.155.22-2.31.275-3.52.385-1.155.055-2.53 1.21-2.475 2.31.055 1.375 0 2.86 0 4.235 0 2.365 0 4.73.055 7.095v2.75ZM121.385 147.62v-19.415c0-.495-.055-1.045 0-1.54.055-.605.495-1.045 1.155-1.21 1.595-.385 3.135-.77 4.675-1.1.825-.165 1.21.165 1.21.825v35.805c0 .77.495 1.045 1.43.825 2.915-.715 5.83-1.485 8.745-2.255.88-.22 1.43.11 1.43.715-.055 1.21 0 2.365 0 3.52 0 .77-.385 1.265-1.32 1.54-2.31.66-4.675 1.21-7.095 1.87-2.145.55-4.29 1.045-6.435 1.54-.715.165-1.54.275-2.31.55-.715.22-1.375-.11-1.375-.88v-10.945c-.11-3.3-.11-6.545-.11-9.845ZM166.98 134.035v16.28c0 .825-.055 1.705 0 2.53 0 .495-.275.935-.66 1.375-1.155 1.21-2.31 2.365-3.41 3.575-.385.385-.77.715-1.1 1.1-.33.385-.88.66-1.43.77-3.135.77-6.325 1.54-9.46 2.365-.66.165-1.21 0-1.65-.22-1.1-.55-2.09-1.155-3.19-1.76 0-.055 0-.11-.055-.11-1.54-.44-1.705-1.595-1.65-3.025.055-1.65.055-3.3.055-4.95v-19.91c.055-3.685 0-7.425 0-11.11 0-.825.385-1.21 1.485-1.485 1.375-.385 2.75-.77 4.07-1.1 1.155-.275 1.43 0 1.43.88 0 3.245.055 6.38.055 9.625v12.32c0 2.475-.055 4.95-.055 7.37 0 1.815.055 3.575.055 5.28.055 1.43 1.1 1.98 2.75 1.54.935-.22 1.87-.495 2.805-.66 1.265-.275 2.09-.99 2.75-1.98.165-.22.22-.495.22-.77-.055-3.3-.055-6.6-.055-9.9-.055-2.53 0-5.005 0-7.535v-17.545c0-.88.385-1.265 1.485-1.54 1.43-.33 2.86-.66 4.29-.935.88-.165 1.265.165 1.265.825v18.7ZM174.735 134.86v-5.06c0-2.585.055-5.17.055-7.755 0-1.595 0-3.135-.055-4.675 0-1.1-.055-2.255 0-3.355 0-.77.44-1.21 1.43-1.375 3.41-.495 6.82-.935 10.23-1.21 1.32-.11 2.695-.165 4.07-.275.88-.11 1.595.22 2.145.715 1.32 1.1 2.64 2.09 3.905 3.135.66.55.88 1.155.88 1.925 0 1.815.11 3.685.055 5.5s0 3.575-.055 5.39c0 .55-.33.935-.825 1.32-.66.495-1.21 1.1-1.815 1.65-.495.385-.495.825.055 1.21.495.385 1.045.88 1.54 1.265.715.55 1.1 1.21.99 2.09-.11 1.155.165 2.31.055 3.575-.11 1.375-.055 2.805-.055 4.18a110.937 110.937 0 0 0 0 6.05c0 .77-.275 1.375-.935 1.925-1.32 1.045-2.53 2.145-3.74 3.19-.605.495-1.265.825-2.2.825-1.43.055-2.75.22-4.18.33-2.805.22-5.665.605-8.47.935-.55.055-1.045.165-1.595.22-1.045.165-1.43-.11-1.43-.935v-6.765c0-2.365-.055-4.675-.055-6.985v-7.04Zm15.565-12.485c-.055-.99 0-2.31 0-3.575 0-.935-1.54-2.035-2.64-1.76-.495.11-.99.165-1.485.165-1.045.055-2.145.11-3.245.275-.66.11-1.1.55-1.155.99-.055 1.76.055 3.465 0 5.17-.055 1.43 0 2.86 0 4.29 0 .88.33 1.21 1.485 1.1 1.43-.165 2.915-.275 4.29-.275 1.595-.055 2.695-1.375 2.695-2.42 0-1.32.11-2.64.055-3.96Zm-8.47 20.02v6.545c0 .605.495.88 1.265.88 1.65-.11 3.355-.33 4.95-.33h.22c1.32-.495 2.145-1.485 2.035-2.42-.055-.33 0-.66 0-.99v-9.9c0-1.1-1.045-1.925-2.42-1.815-1.595.11-3.245.22-4.84.385-.44.055-.77.275-.99.605-.33.495-.22.935-.22 1.32v5.72Z" fill="#fff"/></svg>