<svg width="32" height="32" fill="none" xmlns="http://www.w3.org/2000/svg"><path d="M7.333 18.667c0 1.4.317 2.716.95 3.95a8.635 8.635 0 0 0 2.65 3.083 5.158 5.158 0 0 1-.266-1.633c0-.711.133-1.378.4-2a5.407 5.407 0 0 1 1.166-1.7l3.767-3.7 3.767 3.7c.51.51.9 1.077 1.166 1.7.267.622.4 1.289.4 2a5.157 5.157 0 0 1-.266 1.633 8.634 8.634 0 0 0 2.65-3.083c.633-1.234.95-2.55.95-3.95 0-1.2-.256-2.373-.767-3.517-.511-1.144-1.244-2.194-2.2-3.15a6.242 6.242 0 0 1-1.467.783 4.397 4.397 0 0 1-1.533.284c-1.356 0-2.478-.461-3.367-1.384C14.444 10.761 14 9.6 14 8.2v-.667a18.227 18.227 0 0 0-2.767 2.434 16.788 16.788 0 0 0-2.1 2.783A13.535 13.535 0 0 0 7.8 15.717a10.007 10.007 0 0 0-.467 2.95Zm8.667.8L13.633 21.8c-.31.311-.55.656-.716 1.033-.167.378-.25.79-.25 1.234 0 .91.322 1.683.966 2.316.645.634 1.434.95 2.367.95s1.722-.316 2.367-.95c.644-.633.966-1.405.966-2.316 0-.445-.083-.856-.25-1.234a3.393 3.393 0 0 0-.716-1.033L16 19.467ZM16 4v4.4c0 .756.261 1.389.783 1.9.522.511 1.161.767 1.917.767.4 0 .772-.084 1.117-.25.344-.167.65-.417.916-.75l.6-.734a10.271 10.271 0 0 1 3.9 3.9c.956 1.667 1.434 3.478 1.434 5.434 0 2.977-1.034 5.5-3.1 7.566-2.067 2.067-4.59 3.1-7.567 3.1-2.978 0-5.5-1.033-7.567-3.1-2.066-2.066-3.1-4.589-3.1-7.566 0-2.845.956-5.584 2.867-8.217C10.111 7.817 12.711 5.667 16 4Z" fill="url(#a)"/><defs><linearGradient id="a" x1="16" y1="4" x2="16" y2="29.333" gradientUnits="userSpaceOnUse"><stop stop-color="#FF4D35"/><stop offset="1" stop-color="#D1301A"/></linearGradient></defs></svg>