<svg width="206" height="32" fill="none" xmlns="http://www.w3.org/2000/svg"><path d="M35.068.445V31.69h-7.543V12.95L20.6 31.69h-6.088l-6.97-18.782v18.782H.001V.445h8.91l8.69 21.63L26.202.445h8.866ZM65.724 32c-2.912 0-5.588-.682-8.028-2.047-2.412-1.365-4.338-3.264-5.779-5.697-1.412-2.463-2.117-5.222-2.117-8.278s.706-5.8 2.117-8.234c1.441-2.433 3.367-4.332 5.779-5.697C60.136.682 62.812 0 65.724 0c2.911 0 5.572.682 7.984 2.047a14.763 14.763 0 0 1 5.734 5.697c1.412 2.433 2.118 5.178 2.118 8.234s-.706 5.815-2.118 8.278c-1.411 2.433-3.323 4.332-5.734 5.697C71.296 31.318 68.635 32 65.724 32Zm0-6.943c2.47 0 4.44-.83 5.91-2.492 1.5-1.662 2.25-3.858 2.25-6.587 0-2.76-.75-4.955-2.25-6.587-1.47-1.662-3.44-2.493-5.91-2.493-2.5 0-4.5.816-6 2.448-1.47 1.632-2.205 3.843-2.205 6.632 0 2.76.735 4.97 2.206 6.631 1.5 1.632 3.5 2.448 5.999 2.448ZM118.619.445v6.097h-8.205V31.69h-7.543V6.542h-8.205V.445h23.953ZM147.636 32c-2.912 0-5.588-.682-8.029-2.047-2.411-1.365-4.337-3.264-5.778-5.697-1.412-2.463-2.117-5.222-2.117-8.278s.705-5.8 2.117-8.234c1.441-2.433 3.367-4.332 5.778-5.697C142.048.682 144.724 0 147.636 0c2.911 0 5.572.682 7.984 2.047a14.767 14.767 0 0 1 5.734 5.697c1.412 2.433 2.117 5.178 2.117 8.234s-.705 5.815-2.117 8.278c-1.412 2.433-3.323 4.332-5.734 5.697-2.412 1.365-5.073 2.047-7.984 2.047Zm0-6.943c2.47 0 4.44-.83 5.91-2.492 1.5-1.662 2.25-3.858 2.25-6.587 0-2.76-.75-4.955-2.25-6.587-1.47-1.662-3.44-2.493-5.91-2.493-2.5 0-4.5.816-6 2.448-1.47 1.632-2.205 3.843-2.205 6.632 0 2.76.735 4.97 2.205 6.631 1.5 1.632 3.5 2.448 6 2.448ZM197.222 31.689l-6.308-9.57-5.558 9.57h-8.557l9.925-15.89L176.578.446h8.778l6.22 9.435 5.47-9.435h8.557L195.766 16.2 206 31.69h-8.778Z" fill="#fff"/></svg>